<svg width="327" height="181" viewBox="0 0 327 181" fill="none" xmlns="http://www.w3.org/2000/svg">
<path d="M322.333 150.945L323.536 150.049L323.57 150.095L323.6 150.143L322.333 150.945ZM271.885 143.415L271.053 142.167L271.147 142.105L271.248 142.057L271.885 143.415ZM8.05194 64.6397L6.66687 64.0639L8.05194 64.6397ZM269.056 40.3157L269.776 38.9995L269.803 39.0147L269.83 39.0309L269.056 40.3157ZM210.594 165.755L210.204 164.307L210.225 164.301L210.247 164.296L210.594 165.755ZM2.54263 83.7L4.03726 83.5732L2.54263 83.7ZM29.5485 26.8802L28.6432 25.6842L29.5485 26.8802ZM265.756 53.9686L266.845 52.9371L265.756 53.9686ZM298.747 105.814C298.453 106.589 297.586 106.978 296.812 106.684C296.037 106.39 295.648 105.523 295.942 104.749L298.747 105.814ZM294.776 111.447L323.536 150.049L321.13 151.842L292.37 113.239L294.776 111.447ZM323.6 150.143C324.536 151.619 325.241 152.892 325.719 153.978C326.186 155.038 326.489 156.036 326.5 156.927C326.512 157.891 326.169 158.847 325.263 159.444C324.478 159.961 323.523 160.028 322.702 159.971C321.032 159.857 318.804 159.137 316.348 158.173C313.845 157.191 310.922 155.879 307.803 154.462C301.528 151.61 294.423 148.319 287.918 146.185C284.669 145.118 281.629 144.361 278.963 144.083C276.279 143.804 274.116 144.026 272.521 144.773L271.248 142.057C273.543 140.982 276.33 140.793 279.274 141.099C282.236 141.408 285.502 142.234 288.854 143.334C295.55 145.532 302.826 148.905 309.044 151.73C312.173 153.152 315.026 154.432 317.444 155.381C319.909 156.348 321.748 156.899 322.907 156.978C323.5 157.019 323.65 156.914 323.613 156.939C323.455 157.043 323.503 157.186 323.5 156.964C323.496 156.67 323.379 156.109 322.973 155.187C322.578 154.289 321.957 153.155 321.066 151.748L323.6 150.143ZM272.716 144.664C254.394 156.86 225.684 165.026 193.809 168.713C161.896 172.404 126.625 171.628 95.0661 165.798C63.5511 159.977 35.5241 149.078 18.3102 132.351C9.67935 123.965 3.74573 114.091 1.49911 102.66C-0.746948 91.2326 0.717224 78.3765 6.66687 64.0639L9.43704 65.2155C3.66739 79.0951 2.33264 91.3456 4.44281 102.082C6.55246 112.816 12.1302 122.163 20.4008 130.2C36.9896 146.319 64.3251 157.069 95.611 162.848C126.853 168.619 161.822 169.393 193.464 165.733C225.145 162.068 253.307 153.98 271.053 142.167L272.716 144.664ZM6.66687 64.0639C18.7148 35.081 52.2234 11.1271 98.6993 3.25367C145.232 -4.62943 204.93 3.55406 269.776 38.9995L268.337 41.6319C203.999 6.46405 144.98 -1.54395 99.2004 6.21152C53.3633 13.9767 20.9617 37.4914 9.43704 65.2155L6.66687 64.0639ZM269.83 39.0309C281.369 45.9841 292.892 55.1555 301.332 65.6022C309.763 76.0362 315.233 87.892 314.34 100.155C313.444 112.473 306.157 124.825 289.876 136.269C273.618 147.696 248.276 158.311 210.942 167.214L210.247 164.296C247.406 155.434 272.334 144.932 288.151 133.814C303.945 122.713 310.536 111.093 311.348 99.937C312.164 88.7257 307.174 77.6056 298.999 67.4876C290.835 57.3824 279.609 48.4258 268.282 41.6005L269.83 39.0309ZM210.985 167.203C175.564 176.759 125.753 185.508 83.4705 177.135C62.303 172.942 42.9294 164.441 28.2152 149.511C13.4852 134.564 3.54822 113.301 1.048 83.8268L4.03726 83.5732C6.48874 112.473 16.194 133.039 30.3519 147.405C44.5257 161.786 63.2859 170.079 84.0533 174.192C125.641 182.428 174.904 173.83 210.204 164.307L210.985 167.203ZM1.048 83.8268C0.320312 75.248 3.52136 63.5401 8.65262 52.6802C13.7917 41.8039 21.0195 31.4546 28.6432 25.6842L30.4537 28.0763C23.3693 33.4385 16.3993 43.3073 11.3651 53.9619C6.32303 64.6329 3.37524 75.7686 4.03726 83.5732L1.048 83.8268ZM28.6432 25.6842C52.6675 7.50031 97.3505 -1.35039 143.26 2.08555C189.212 5.52459 236.883 21.3055 266.845 52.9371L264.667 55.0001C235.412 24.1148 188.583 8.48589 143.037 5.07718C97.4491 1.66538 53.637 10.529 30.4537 28.0763L28.6432 25.6842ZM266.845 52.9371C271.771 58.1374 281.038 67.6265 288.411 77.5295C292.097 82.4794 295.36 87.5986 297.372 92.3939C299.365 97.1429 300.251 101.856 298.747 105.814L295.942 104.749C297.032 101.881 296.503 98.0737 294.606 93.5549C292.729 89.0823 289.627 84.1864 286.005 79.3211C278.762 69.5939 269.642 60.2524 264.667 55.0001L266.845 52.9371Z" fill="#2DE9F6"/>
<path d="M31.68 64.408H29.872C29.6 65.592 29.328 66.744 29.056 67.832C29.552 68.136 30.064 68.456 30.576 68.808C31.104 67.576 31.472 66.104 31.68 64.408ZM32.464 62.568L33.632 62.76C33.44 65.768 32.944 68.088 32.128 69.912C32.88 70.504 33.536 71.08 33.968 71.592L32.864 73.224C32.464 72.712 31.872 72.152 31.184 71.56C30.32 72.776 29.232 73.704 27.872 74.392C27.632 73.912 27.136 73.208 26.752 72.824C27.952 72.312 28.944 71.496 29.712 70.392C29.344 70.12 28.96 69.848 28.592 69.592L28.432 70.184L26.832 69.416C27.216 68.088 27.664 66.28 28.08 64.408H26.672V62.616H28.464C28.688 61.512 28.896 60.424 29.056 59.448L30.896 59.624C30.704 60.568 30.496 61.576 30.272 62.616H32.128L32.464 62.568ZM36.208 70.968H39.024V62.872H36.208V70.968ZM34.4 61.08H40.912V73.72H39.024V72.776H36.208V73.96H34.4V61.08ZM45.984 59.432L47.776 60.008C47.408 60.984 46.976 61.96 46.464 62.936V74.344H44.56V65.976C44.192 66.472 43.808 66.92 43.44 67.32C43.264 66.856 42.752 65.816 42.416 65.336C43.824 63.928 45.2 61.688 45.984 59.432ZM51.376 66.024H49.6V68.52H51.376V66.024ZM53.152 70.168H49.6V71.208H47.824V64.376H53.152V70.168ZM57.488 60.824V62.648H56.528V72.136C56.528 73.24 56.288 73.752 55.6 74.056C54.928 74.344 53.84 74.408 52.352 74.408C52.288 73.848 51.984 73.016 51.712 72.456C52.752 72.504 53.872 72.504 54.192 72.504C54.512 72.504 54.608 72.408 54.608 72.104V62.648H47.632V60.824H57.488ZM64.816 69.384H62.336C62.8 69.96 63.296 70.408 63.888 70.776C64.352 70.344 64.624 69.896 64.816 69.384ZM62.176 66.792V67.832H65.104C65.12 67.656 65.12 67.48 65.12 67.304V66.792H62.176ZM62.176 64.344V65.368H65.12V64.344H62.176ZM70.128 64.344H67.12V65.368H70.128V64.344ZM70.128 67.832V66.792H67.12V67.32C67.12 67.48 67.12 67.656 67.104 67.832H70.128ZM72.016 69.384H66.88C66.672 70.184 66.304 70.952 65.712 71.608C67.792 72.296 70.416 72.36 73.664 72.344C73.312 72.776 72.96 73.576 72.848 74.232C69.376 74.152 66.432 73.912 64.144 72.904C63.072 73.512 61.664 74.04 59.808 74.408C59.584 73.96 59.072 73.16 58.656 72.712C60.192 72.472 61.36 72.152 62.272 71.768C61.648 71.288 61.104 70.68 60.624 69.976L62.08 69.384H60.384V62.808H65.12V61.864H58.992V60.168H73.008V61.864H67.12V62.808H72.016V69.384ZM75.136 68.776L76.72 69.048C76.56 70.568 76.224 72.168 75.76 73.192C75.44 72.968 74.72 72.632 74.32 72.488C74.768 71.56 75.008 70.12 75.136 68.776ZM85.84 71.576H87.232V67.816H85.84V71.576ZM82.848 67.816V71.576H84.176V67.816H82.848ZM84.176 62.424H82.848V66.088H84.176V62.424ZM87.232 66.088V62.424H85.84V66.088H87.232ZM81.168 60.648H88.992V74.008H87.232V73.288H82.848V74.152H81.168V71.8L79.664 72.312C79.536 71.48 79.104 70.168 78.72 69.176L80.144 68.712C80.56 69.64 80.944 70.808 81.168 71.656V68.008L79.904 68.6C79.84 68.296 79.728 67.944 79.6 67.56L78.672 67.656V74.376H76.976V67.848C76.16 67.928 75.392 68.008 74.704 68.088L74.432 66.408C74.816 66.392 75.264 66.36 75.728 66.328C75.952 66.04 76.192 65.736 76.416 65.416C75.952 64.696 75.152 63.832 74.464 63.176L75.36 61.88C75.488 61.992 75.616 62.104 75.744 62.232C76.192 61.336 76.656 60.28 76.928 59.448L78.608 60.056C78.048 61.16 77.376 62.392 76.816 63.272C77.024 63.512 77.232 63.752 77.392 63.96C77.952 63.064 78.48 62.136 78.864 61.352L80.416 62.104C79.568 63.416 78.496 64.936 77.504 66.2L78.992 66.088C78.832 65.768 78.672 65.432 78.496 65.144L79.872 64.536C80.368 65.352 80.864 66.328 81.168 67.16V60.648ZM97.744 70.584V71.096H99.52V70.584H97.744ZM97.744 69.144V69.64H99.52V69.144H97.744ZM97.744 67.72V68.2H99.52V67.72H97.744ZM92.848 67.352H93.888V65.368H92.864V65.8C92.864 66.28 92.864 66.808 92.848 67.352ZM93.888 61.72H92.864V63.64H93.888V61.72ZM101.04 72.104H100.336C100.944 72.584 101.568 73.16 101.92 73.592L100.576 74.344C100.208 73.816 99.472 73.08 98.848 72.568L99.52 72.104H97.792L98.544 72.536C98 73.16 97.136 73.944 96.528 74.36C96.256 74.12 95.728 73.768 95.36 73.544C95.28 73.752 95.136 73.912 94.944 74.04C94.496 74.344 93.904 74.392 92.992 74.392C92.944 73.928 92.752 73.128 92.544 72.664C93.024 72.68 93.504 72.68 93.664 72.68C93.824 72.68 93.888 72.616 93.888 72.424V69.096H92.768C92.656 70.968 92.384 72.92 91.824 74.376C91.52 74.12 90.8 73.736 90.4 73.592C91.216 71.368 91.28 68.136 91.28 65.8V60.008H95.52V72.456C95.52 72.888 95.488 73.224 95.392 73.48C95.92 73.128 96.528 72.584 96.96 72.104H96.288V66.728H101.04V72.104ZM95.904 66.264V65.192H101.168V66.264H95.904ZM96.432 63.64H100.864V64.712H96.432V63.64ZM103.056 60.312V61.512H104.16C103.872 61.128 103.44 60.664 103.056 60.312ZM105.488 63.128H103.072C103.152 68.168 103.536 72.088 104.096 72.104C104.272 72.104 104.4 71.384 104.464 70.168C104.736 70.552 105.44 71.064 105.728 71.256C105.328 73.832 104.56 74.376 104 74.376C102.08 74.344 101.552 69.96 101.392 63.128H95.776V61.512H101.36C101.344 60.856 101.328 60.168 101.328 59.464H103.056V60.152L104.128 59.496C104.672 59.928 105.312 60.568 105.632 61.016L104.832 61.512H105.488V63.128ZM108.944 71.064H111.488V67.928H108.944V71.064ZM111.488 66.28V63.688H108.944V66.28H111.488ZM116.576 61.912H121.072C121.072 61.912 121.072 62.552 121.056 62.776C120.848 69.928 120.672 72.472 120.016 73.32C119.568 73.912 119.12 74.088 118.48 74.2C117.872 74.28 116.912 74.264 115.968 74.232C115.936 73.704 115.68 72.904 115.344 72.376C116.368 72.472 117.312 72.472 117.728 72.472C118.048 72.472 118.224 72.408 118.432 72.2C118.896 71.688 119.104 69.288 119.28 63.64H115.856C115.44 64.6 114.944 65.48 114.448 66.168C114.192 65.928 113.648 65.56 113.216 65.272V72.744H108.944V73.912H107.216V62.024H109.024C109.232 61.224 109.424 60.2 109.488 59.448L111.568 59.736C111.296 60.536 111.008 61.336 110.736 62.024H113.216V64.616C114.144 63.272 114.912 61.336 115.376 59.464L117.2 59.88C117.024 60.568 116.816 61.24 116.576 61.912ZM118.416 69.208L116.8 70.2C116.352 69.24 115.36 67.672 114.576 66.504L116.064 65.656C116.864 66.76 117.92 68.28 118.416 69.208ZM126.016 64.648V66.056H129.024V64.648H126.016ZM126.016 61.768V63.112H129.024V61.768H126.016ZM133.792 63.112V61.768H130.864V63.112H133.792ZM133.792 66.056V64.648H130.864V66.056H133.792ZM128.112 68.744L129.232 67.704H124.224V60.12H135.68V67.704H129.632C130.704 68.248 131.936 69.064 132.592 69.736L131.232 71.032C130.608 70.344 129.264 69.352 128.112 68.744ZM124.336 73.48L122.624 72.536C123.36 71.576 123.968 70.136 124.304 68.824L126.032 69.448C125.648 70.808 125.104 72.424 124.336 73.48ZM129.392 72.376H131.664C132.32 72.376 132.448 72.136 132.544 70.552C132.928 70.84 133.744 71.144 134.256 71.256C134.048 73.528 133.488 74.104 131.824 74.104H129.168C127.056 74.104 126.528 73.544 126.528 71.848V69.224H128.448V71.832C128.448 72.312 128.592 72.376 129.392 72.376ZM133.632 69.432L135.328 68.728C136.224 69.928 137.12 71.48 137.44 72.6L135.584 73.384C135.312 72.312 134.496 70.68 133.632 69.432ZM145.792 63.928H146.864C147.392 63.512 147.904 63.096 148.384 62.648H145.792V63.928ZM152.928 65.528H147.504C146.816 66.056 146.096 66.552 145.36 67.016C147.152 66.808 148.896 66.52 150.08 66.2L151.248 67.448C149.264 67.992 146.512 68.296 144.08 68.472L143.888 69.288H151.28C151.28 69.288 151.248 69.816 151.184 70.088C150.8 72.248 150.416 73.336 149.872 73.816C149.44 74.232 149.008 74.344 148.336 74.376C147.808 74.424 146.896 74.424 145.936 74.376C145.904 73.848 145.664 73.128 145.328 72.616C146.256 72.712 147.264 72.744 147.68 72.744C147.984 72.744 148.192 72.712 148.384 72.584C148.64 72.376 148.896 71.832 149.104 70.824H143.488L143.296 71.56L141.392 71.288C141.616 70.616 141.856 69.752 142.08 68.84C141.216 69.256 140.336 69.64 139.456 69.992C139.2 69.608 138.64 68.888 138.288 68.536C139.744 68.024 141.184 67.416 142.56 66.68L142.64 66.312L143.152 66.376C143.648 66.104 144.128 65.816 144.592 65.528H138.992V63.928H143.904V62.648H140.224V61.096H143.904V59.448H145.792V61.096H149.152V61.912C149.728 61.32 150.256 60.712 150.736 60.088L152.272 60.936C151.44 61.992 150.496 63 149.456 63.928H152.928V65.528ZM161.376 67H163.344V66.792V65.416H161.376V67ZM167.216 65.416H165.232V66.808V67H167.216V65.416ZM169.04 68.536H165.136C165.008 69.528 164.736 70.472 164.256 71.32C165.728 72.024 167.568 72.472 169.728 72.664C169.328 73.08 168.832 73.864 168.592 74.36C166.432 74.088 164.608 73.528 163.12 72.68C162.352 73.384 161.264 73.976 159.84 74.392C159.6 73.976 159.04 73.208 158.656 72.808C159.936 72.52 160.88 72.104 161.568 71.576C160.784 70.92 160.144 70.104 159.6 69.192L161.152 68.712C161.536 69.336 162.048 69.88 162.64 70.36C162.96 69.784 163.136 69.192 163.232 68.536H159.664V63.864H163.344V62.744H159.328V61.272C159.04 61.896 158.72 62.504 158.368 63.112V74.424H156.56V65.832C156.128 66.376 155.696 66.888 155.248 67.336C155.072 66.872 154.56 65.848 154.24 65.384C155.76 63.944 157.248 61.688 158.112 59.416L159.872 59.992C159.728 60.328 159.584 60.664 159.44 61.016H163.344V59.56H165.232V61.016H169.472V62.744H165.232V63.864H169.04V68.536ZM179.12 67.928H182.496V65.96H179.12V67.928ZM174.144 67.928H177.2V65.96H174.192V66.248C174.192 66.76 174.176 67.336 174.144 67.928ZM177.2 62.328H174.192V64.184H177.2V62.328ZM182.496 64.184V62.328H179.12V64.184H182.496ZM184.384 60.52V72.136C184.384 73.16 184.16 73.672 183.52 73.96C182.864 74.28 181.888 74.312 180.448 74.296C180.384 73.784 180.08 72.968 179.84 72.472C180.736 72.52 181.792 72.504 182.08 72.504C182.384 72.504 182.496 72.408 182.496 72.12V69.72H179.12V74.184H177.2V69.72H173.936C173.648 71.464 173.072 73.224 171.92 74.472C171.616 74.12 170.848 73.464 170.416 73.24C172.16 71.32 172.304 68.472 172.304 66.232V60.52H184.384ZM198.624 61.928V61.16H194.496V61.928H198.624ZM198.624 63.944V63.176H194.496V63.944H198.624ZM200.384 59.848V65.256H192.816V59.848H200.384ZM201.472 67.464H195.104C194.976 67.72 194.816 67.976 194.656 68.232H201.152C201.152 68.232 201.136 68.664 201.12 68.888C200.896 72.008 200.64 73.288 200.208 73.752C199.904 74.12 199.552 74.248 199.152 74.296C198.784 74.344 198.176 74.36 197.536 74.328C197.504 73.88 197.344 73.24 197.104 72.84C197.616 72.888 198.032 72.888 198.24 72.888C198.464 72.888 198.592 72.856 198.72 72.712C198.944 72.472 199.136 71.656 199.312 69.72H198.688C198.032 71.512 196.784 73.448 195.488 74.456C195.168 74.088 194.624 73.656 194.144 73.4C195.36 72.632 196.432 71.208 197.12 69.72H196.176C195.312 71.256 193.824 72.856 192.432 73.736C192.128 73.368 191.632 72.888 191.184 72.616C192.368 72.024 193.6 70.904 194.448 69.72H193.504C192.912 70.344 192.288 70.872 191.632 71.288C191.392 70.984 190.784 70.424 190.384 70.168C189.232 70.744 188.08 71.32 187.104 71.8L186.4 69.88C186.944 69.672 187.616 69.4 188.368 69.096V64.584H186.768V62.792H188.368V59.64H190.128V62.792H191.632V64.584H190.128V68.36L191.408 67.8L191.744 69.16C192.32 68.664 192.816 68.088 193.216 67.464H191.408V65.864H201.472V67.464ZM206.48 62.872V63.56H213.408V62.872H206.48ZM206.48 61.096V61.768H213.408V61.096H206.48ZM217.008 65.384V66.872H202.896V65.384H209.008V64.744H204.656V59.928H215.328V64.744H210.944V65.384H217.008ZM206.32 71.08L208.064 71.784C206.992 72.712 205.28 73.64 203.904 74.184C203.584 73.832 202.912 73.16 202.512 72.856C203.92 72.44 205.456 71.784 206.32 71.08ZM206.864 68.712V69.736H213.136V68.712H206.864ZM215.056 71.048H210.976V72.76C210.976 73.592 210.8 73.944 210.176 74.152C209.536 74.36 208.72 74.36 207.6 74.36C207.504 73.896 207.28 73.32 207.056 72.904C207.712 72.936 208.576 72.936 208.784 72.92C209.008 72.904 209.088 72.856 209.088 72.68V71.048H205.04V67.384H215.056V71.048ZM211.696 72.104L212.96 71.096C214.256 71.592 216.064 72.408 217.04 73.048L215.664 74.168C214.816 73.56 213.04 72.648 211.696 72.104ZM221.824 67.768L221.872 69.08H224.048V65.736H225.552V69.08H226.464V65.192H224.08V61.08C223.312 61.448 222.448 61.832 221.664 62.136L221.696 63.288H223.504V64.856H221.744L221.776 66.2H223.504V67.768H221.824ZM233.376 69.08V70.856H229.008C230.592 71.608 232.32 72.488 233.344 73.112L231.472 74.408C230.464 73.736 228.688 72.68 227.072 71.896L228.224 70.856H223.44L224.848 71.88C223.584 72.76 221.648 73.784 220.192 74.392C219.856 74.008 219.184 73.432 218.736 73.08C220.144 72.552 221.872 71.624 222.928 70.856H218.672V69.08H220.16L219.904 60.504L220.976 60.792C221.68 60.408 222.384 59.96 222.864 59.592L224.08 60.76V59.64H225.696V61.048H228.144V62.632H225.696V63.704H228.08V69.08H230.064C230.08 68.68 230.112 68.232 230.144 67.784H228.624V66.216H230.208C230.224 65.768 230.24 65.32 230.256 64.856H228.64V63.288H230.288C230.304 62.856 230.304 62.44 230.304 62.024H228.448V60.376H232.048C232.048 63.176 231.984 66.68 231.84 69.08H233.376ZM235.696 67.24L234.32 66.776C234.656 65.688 234.896 63.896 234.976 62.6L236.32 62.776C236.288 64.104 236.032 66.008 235.696 67.24ZM241.776 70.696H246.56V69.96H241.776V70.696ZM246.56 67.864H241.776V68.616H246.56V67.864ZM248.352 66.472V72.568C248.352 73.4 248.192 73.848 247.616 74.104C247.056 74.376 246.256 74.376 245.152 74.376C245.088 73.912 244.864 73.224 244.64 72.76C245.296 72.808 246.048 72.792 246.256 72.792C246.48 72.792 246.56 72.728 246.56 72.536V72.008H241.776V74.408H240.016V66.472H248.352ZM245.072 64.504H249.424V65.864H238.944V64.504H243.184V63.816H239.872L239.904 63.896L238.656 64.504C238.544 64.04 238.32 63.368 238.064 62.744V74.376H236.352V59.448H238.064V62.008L238.976 61.624C239.312 62.312 239.68 63.208 239.872 63.8V62.536H243.184V61.896H239.44V60.536H243.184V59.448H245.072V60.536H248.944V61.896H245.072V62.536H248.512V63.816H245.072V64.504ZM37.792 85.928H35.12C35.328 86.312 35.488 86.76 35.568 87.096L35.36 87.144H37.392L37.312 87.128C37.472 86.776 37.664 86.312 37.792 85.928ZM41.408 87.144V88.696H31.632V87.144H33.744C33.664 86.792 33.504 86.376 33.344 86.056L33.936 85.928H31.984V84.456H35.456V83.48H37.328V84.456H41.12V85.928H39.312L39.712 86.008C39.504 86.44 39.296 86.824 39.12 87.144H41.408ZM31.6 91.992L32.016 93.672C30.336 94.488 28.496 95.32 27.04 95.992L26.4 94.088C26.944 93.896 27.616 93.64 28.352 93.352V89.032H26.768V87.24H28.352V83.672H30.112V87.24H31.568V89.032H30.112V92.632C30.608 92.424 31.104 92.2 31.6 91.992ZM34.304 92.392V93.208H38.8V92.392H34.304ZM34.304 90.488V91.288H38.8V90.488H34.304ZM39.04 96.696H39.76C40.016 96.696 40.096 96.536 40.128 95.32C40.48 95.592 41.216 95.896 41.712 95.992C41.536 97.832 41.088 98.312 39.968 98.312H38.72C37.216 98.312 36.896 97.784 36.896 96.264V94.392H35.76C35.408 96.312 34.48 97.656 31.424 98.44C31.248 97.976 30.752 97.208 30.384 96.84C32.896 96.36 33.6 95.56 33.888 94.392H32.528V89.32H40.672V94.392H38.704V96.248C38.704 96.648 38.752 96.696 39.04 96.696ZM45.104 99.208L44.592 97.912C45.84 97.512 46.56 96.824 46.656 95.976C46.608 95.992 46.544 95.992 46.48 95.992C45.68 95.992 44.96 95.48 44.96 94.568C44.96 93.672 45.68 93.128 46.528 93.128C47.664 93.128 48.256 93.976 48.256 95.32C48.256 97.144 47.088 98.616 45.104 99.208ZM70.592 86.088V85.288H66.272V86.088H70.592ZM70.592 88.12V87.304H66.272V88.12H70.592ZM72.416 83.944V89.464H64.528V83.944H72.416ZM63.728 91.928L62.032 92.44V96.168C62.032 97.048 61.888 97.512 61.408 97.8C60.928 98.12 60.224 98.184 59.2 98.168C59.152 97.704 58.944 96.92 58.704 96.424C59.296 96.44 59.84 96.44 60.032 96.424C60.224 96.424 60.304 96.36 60.304 96.152V92.952C59.776 93.096 59.296 93.24 58.832 93.368L58.4 91.528C58.944 91.416 59.584 91.24 60.304 91.064V88.232H58.576V86.472H60.304V83.448H62.032V86.472H63.632V88.232H62.032V90.6L63.472 90.216L63.728 91.928ZM69.312 94.632V96.472C69.68 96.504 70.032 96.52 70.432 96.52C70.976 96.52 72.96 96.52 73.648 96.504C73.424 96.888 73.2 97.688 73.136 98.168H70.352C68.256 98.168 66.64 97.784 65.552 95.848C65.152 96.856 64.576 97.704 63.888 98.36C63.584 98.056 62.864 97.464 62.48 97.224C63.808 96.168 64.464 94.392 64.704 92.216L66.432 92.424C66.352 93 66.256 93.544 66.128 94.04C66.48 94.968 66.944 95.544 67.52 95.912V91.736H63.76V90.2H73.216V91.736H69.312V93.144H72.368V94.632H69.312ZM77.92 83.48L79.696 84.04C79.28 85.144 78.752 86.28 78.176 87.368V98.376H76.304V90.264C75.968 90.696 75.632 91.08 75.296 91.448C75.12 90.968 74.608 89.928 74.272 89.464C75.712 88.024 77.12 85.768 77.92 83.48ZM81.648 94.088L83.424 94.632C82.624 96.024 81.344 97.432 80.24 98.344C79.888 97.992 79.168 97.4 78.752 97.144C79.872 96.392 80.992 95.224 81.648 94.088ZM85.136 94.904L86.656 94.072C87.696 95.08 88.8 96.44 89.376 97.368L87.776 98.376C87.264 97.416 86.144 95.944 85.136 94.904ZM83.072 88.392V91.576H85.392V88.392H83.072ZM87.248 91.576H89.456V93.432H79.072V91.576H81.216V88.392H79.472V86.568H81.216V83.576H83.072V86.568H85.392V83.56H87.248V86.568H89.328V88.392H87.248V91.576ZM99.328 94.312L97.856 94.344C97.632 95.064 97.328 95.656 96.912 96.152C97.408 96.408 97.872 96.648 98.256 96.872C99.472 96.216 100.384 95.32 101.072 94.216C100.688 93.288 100.368 92.232 100.112 91.112C99.92 91.496 99.712 91.848 99.488 92.168C99.328 91.928 98.976 91.56 98.64 91.224V92.408H95.088L95.232 92.44L94.912 93.032C96.352 93.016 97.888 92.984 99.376 92.968L99.328 94.312ZM94.112 94.424L93.84 94.872C94.368 95.048 94.896 95.256 95.424 95.48C95.712 95.176 95.952 94.808 96.144 94.392L94.112 94.424ZM92.784 90.6V91.272H94.048V90.6H92.784ZM96.992 90.6H95.664V91.272H96.992V90.6ZM102.848 88.12H101.264L101.232 88.216C101.44 89.544 101.712 90.824 102.096 91.976C102.448 90.84 102.688 89.56 102.848 88.12ZM93.104 87.752H94.048V87.16H93.104V87.752ZM94.048 85.432H93.104V86.008H94.048V85.432ZM96.672 85.432H95.664V86.008H96.672V85.432ZM95.664 87.752H96.672V87.16H95.664V87.752ZM105.472 88.12H104.624C104.32 90.52 103.856 92.552 103.056 94.232C103.696 95.368 104.512 96.28 105.552 96.904C105.136 97.256 104.592 97.944 104.32 98.424C103.376 97.8 102.608 96.984 101.984 96.008C101.264 96.968 100.368 97.784 99.264 98.456C99.136 98.136 98.752 97.544 98.448 97.128L97.344 98.216C96.912 97.896 96.32 97.544 95.664 97.192C94.656 97.784 93.328 98.168 91.616 98.456C91.504 97.96 91.216 97.368 90.944 97C92.176 96.888 93.184 96.712 93.968 96.392C93.68 96.28 93.392 96.152 93.104 96.04L92.976 96.248L91.456 95.88C91.728 95.48 92.032 94.984 92.352 94.456L90.64 94.472L90.576 93.064C91.312 93.064 92.192 93.064 93.136 93.048C93.264 92.824 93.376 92.616 93.488 92.408H91.216V89.448H94.048V88.952H91.536V87.256H90.528V85.912H91.536V84.232H94.048V83.448H95.664V84.232H98.32V85.912H99.36V87.256H98.32V88.952H95.664V89.448H98.64V89.96C99.552 88.264 100.064 85.896 100.352 83.448L102.16 83.688C102.048 84.6 101.888 85.496 101.712 86.36H105.472V88.12ZM111.52 86.328H115.28V83.656H117.2V86.328H121.2V88.136H111.52V86.328ZM115.472 95.016L113.584 95.416C113.536 93.864 113.136 91.208 112.624 89.16L114.336 88.856C114.88 90.872 115.36 93.448 115.472 95.016ZM110.096 83.48L111.872 84.072C111.456 85.096 110.944 86.152 110.368 87.16V98.344H108.56V89.88C108.128 90.44 107.696 90.936 107.248 91.384C107.072 90.92 106.56 89.864 106.24 89.4C107.76 87.992 109.232 85.752 110.096 83.48ZM118.288 95.928H121.536V97.72H111.2V95.928H116.448C117.072 93.976 117.728 91.016 117.984 88.76L120.064 89.096C119.6 91.416 118.912 94.056 118.288 95.928ZM126.272 86.12H124.8V88.936H126.272V86.12ZM124.8 93.608H126.272V90.6H124.8V93.608ZM128.048 84.424V95.304H124.8V96.712H123.04V84.424H128.048ZM128.992 93.96L130.512 93.08C131.248 93.864 132.112 94.92 132.448 95.704L130.816 96.648C130.528 95.912 129.712 94.776 128.992 93.96ZM137.456 89.864H135.808V91.24H137.344V92.888H135.808V96.376C135.808 97.288 135.632 97.768 135.008 98.056C134.384 98.328 133.52 98.376 132.336 98.376C132.272 97.848 131.984 97.096 131.728 96.584C132.496 96.616 133.392 96.616 133.632 96.616C133.888 96.616 133.968 96.552 133.968 96.328V92.888H128.352V91.24H133.968V89.864H128.32V88.2H131.936V86.792H128.864V85.128H131.936V83.448H133.808V85.128H137.008V86.792H133.808V88.2H137.456V89.864ZM153.168 86.136L151.632 87.128C151.232 86.376 150.272 85.256 149.44 84.44L150.864 83.56C151.712 84.328 152.704 85.384 153.168 86.136ZM142.56 83.576L144.384 84.168C143.968 85.144 143.472 86.136 142.896 87.112V98.36H140.912V89.96C140.368 90.632 139.824 91.24 139.248 91.752C139.072 91.304 138.528 90.28 138.192 89.816C139.92 88.344 141.6 85.992 142.56 83.576ZM153.408 89.32L148.768 89.96C149.216 93.512 150.064 95.88 151.344 96.04C151.712 96.072 151.904 95.272 152.032 93.496C152.384 93.912 153.232 94.392 153.584 94.584C153.184 97.672 152.32 98.408 151.424 98.36C148.72 98.104 147.456 95.096 146.88 90.216L143.728 90.648L143.456 88.808L146.688 88.376C146.576 86.936 146.48 85.368 146.432 83.688H148.368C148.4 85.256 148.464 86.76 148.576 88.12L153.136 87.528L153.408 89.32ZM169.136 86.536H162.704V89.048L163.024 88.68C164.752 89.544 167.264 90.92 168.48 91.912L167.072 93.656C166.144 92.84 164.32 91.672 162.704 90.744V98.344H160.656V86.536H154.88V84.616H169.136V86.536ZM177.376 91H179.344V90.792V89.416H177.376V91ZM183.216 89.416H181.232V90.808V91H183.216V89.416ZM185.04 92.536H181.136C181.008 93.528 180.736 94.472 180.256 95.32C181.728 96.024 183.568 96.472 185.728 96.664C185.328 97.08 184.832 97.864 184.592 98.36C182.432 98.088 180.608 97.528 179.12 96.68C178.352 97.384 177.264 97.976 175.84 98.392C175.6 97.976 175.04 97.208 174.656 96.808C175.936 96.52 176.88 96.104 177.568 95.576C176.784 94.92 176.144 94.104 175.6 93.192L177.152 92.712C177.536 93.336 178.048 93.88 178.64 94.36C178.96 93.784 179.136 93.192 179.232 92.536H175.664V87.864H179.344V86.744H175.328V85.272C175.04 85.896 174.72 86.504 174.368 87.112V98.424H172.56V89.832C172.128 90.376 171.696 90.888 171.248 91.336C171.072 90.872 170.56 89.848 170.24 89.384C171.76 87.944 173.248 85.688 174.112 83.416L175.872 83.992C175.728 84.328 175.584 84.664 175.44 85.016H179.344V83.56H181.232V85.016H185.472V86.744H181.232V87.864H185.04V92.536ZM195.12 91.928H198.496V89.96H195.12V91.928ZM190.144 91.928H193.2V89.96H190.192V90.248C190.192 90.76 190.176 91.336 190.144 91.928ZM193.2 86.328H190.192V88.184H193.2V86.328ZM198.496 88.184V86.328H195.12V88.184H198.496ZM200.384 84.52V96.136C200.384 97.16 200.16 97.672 199.52 97.96C198.864 98.28 197.888 98.312 196.448 98.296C196.384 97.784 196.08 96.968 195.84 96.472C196.736 96.52 197.792 96.504 198.08 96.504C198.384 96.504 198.496 96.408 198.496 96.12V93.72H195.12V98.184H193.2V93.72H189.936C189.648 95.464 189.072 97.224 187.92 98.472C187.616 98.12 186.848 97.464 186.416 97.24C188.16 95.32 188.304 92.472 188.304 90.232V84.52H200.384ZM209.856 86.824V88.28H210.736C211.344 87.816 211.92 87.336 212.464 86.824H209.856ZM213.344 93.816V92.792H207.84V93.816H213.344ZM207.84 96.344H213.344V95.256H207.84V96.344ZM217.168 89.96H211.408C210.784 90.408 210.176 90.824 209.52 91.24H215.344V98.344H213.344V97.928H207.84V98.408H205.936V93.176C205.136 93.528 204.304 93.88 203.488 94.184C203.264 93.768 202.688 93 202.336 92.616C204.432 91.96 206.432 91.048 208.272 89.96H202.832V88.28H207.968V86.824H204.208V85.176H207.968V83.448H209.856V85.176H213.328V85.96C213.936 85.304 214.48 84.632 214.976 83.928L216.608 84.76C215.696 86.024 214.624 87.208 213.456 88.28H217.168V89.96ZM224.816 93.384H222.336C222.8 93.96 223.296 94.408 223.888 94.776C224.352 94.344 224.624 93.896 224.816 93.384ZM222.176 90.792V91.832H225.104C225.12 91.656 225.12 91.48 225.12 91.304V90.792H222.176ZM222.176 88.344V89.368H225.12V88.344H222.176ZM230.128 88.344H227.12V89.368H230.128V88.344ZM230.128 91.832V90.792H227.12V91.32C227.12 91.48 227.12 91.656 227.104 91.832H230.128ZM232.016 93.384H226.88C226.672 94.184 226.304 94.952 225.712 95.608C227.792 96.296 230.416 96.36 233.664 96.344C233.312 96.776 232.96 97.576 232.848 98.232C229.376 98.152 226.432 97.912 224.144 96.904C223.072 97.512 221.664 98.04 219.808 98.408C219.584 97.96 219.072 97.16 218.656 96.712C220.192 96.472 221.36 96.152 222.272 95.768C221.648 95.288 221.104 94.68 220.624 93.976L222.08 93.384H220.384V86.808H225.12V85.864H218.992V84.168H233.008V85.864H227.12V86.808H232.016V93.384ZM239.008 88.376H237.632C237.376 89.592 237.12 90.776 236.864 91.896C237.248 92.136 237.648 92.408 238.048 92.696C238.512 91.448 238.816 90.008 239.008 88.376ZM239.76 86.584L240.912 86.76C240.736 89.672 240.304 91.992 239.568 93.832C240.272 94.408 240.896 94.984 241.296 95.496L240.144 97.032C239.808 96.584 239.312 96.056 238.736 95.512C237.968 96.76 237.008 97.704 235.824 98.44C235.568 97.96 235.072 97.288 234.688 96.936C235.76 96.376 236.624 95.48 237.296 94.312C237.008 94.088 236.72 93.864 236.432 93.656L236.304 94.152L234.736 93.336C235.104 92.024 235.504 90.232 235.888 88.376H234.64V86.632H236.224C236.432 85.528 236.624 84.44 236.768 83.464L238.56 83.624C238.4 84.568 238.208 85.592 238 86.632H239.44L239.76 86.584ZM249.488 89.784V91.576H245.968V96.264C245.968 97.224 245.792 97.736 245.168 98.024C244.528 98.328 243.664 98.392 242.496 98.376C242.4 97.848 242.08 97.032 241.808 96.504C242.624 96.536 243.472 96.552 243.728 96.536C244 96.536 244.08 96.472 244.08 96.248V91.576H240.704V89.784H244.08V87.928H244.672C245.2 87.384 245.76 86.68 246.208 86.008H241.232V84.248H247.488L247.872 84.152L249.12 85.08C248.272 86.328 247.088 87.816 245.968 88.872V89.784H249.488ZM252.944 95.064H255.488V91.928H252.944V95.064ZM255.488 90.28V87.688H252.944V90.28H255.488ZM260.576 85.912H265.072C265.072 85.912 265.072 86.552 265.056 86.776C264.848 93.928 264.672 96.472 264.016 97.32C263.568 97.912 263.12 98.088 262.48 98.2C261.872 98.28 260.912 98.264 259.968 98.232C259.936 97.704 259.68 96.904 259.344 96.376C260.368 96.472 261.312 96.472 261.728 96.472C262.048 96.472 262.224 96.408 262.432 96.2C262.896 95.688 263.104 93.288 263.28 87.64H259.856C259.44 88.6 258.944 89.48 258.448 90.168C258.192 89.928 257.648 89.56 257.216 89.272V96.744H252.944V97.912H251.216V86.024H253.024C253.232 85.224 253.424 84.2 253.488 83.448L255.568 83.736C255.296 84.536 255.008 85.336 254.736 86.024H257.216V88.616C258.144 87.272 258.912 85.336 259.376 83.464L261.2 83.88C261.024 84.568 260.816 85.24 260.576 85.912ZM262.416 93.208L260.8 94.2C260.352 93.24 259.36 91.672 258.576 90.504L260.064 89.656C260.864 90.76 261.92 92.28 262.416 93.208ZM33.376 115H35.344V114.792V113.416H33.376V115ZM39.216 113.416H37.232V114.808V115H39.216V113.416ZM41.04 116.536H37.136C37.008 117.528 36.736 118.472 36.256 119.32C37.728 120.024 39.568 120.472 41.728 120.664C41.328 121.08 40.832 121.864 40.592 122.36C38.432 122.088 36.608 121.528 35.12 120.68C34.352 121.384 33.264 121.976 31.84 122.392C31.6 121.976 31.04 121.208 30.656 120.808C31.936 120.52 32.88 120.104 33.568 119.576C32.784 118.92 32.144 118.104 31.6 117.192L33.152 116.712C33.536 117.336 34.048 117.88 34.64 118.36C34.96 117.784 35.136 117.192 35.232 116.536H31.664V111.864H35.344V110.744H31.328V109.272C31.04 109.896 30.72 110.504 30.368 111.112V122.424H28.56V113.832C28.128 114.376 27.696 114.888 27.248 115.336C27.072 114.872 26.56 113.848 26.24 113.384C27.76 111.944 29.248 109.688 30.112 107.416L31.872 107.992C31.728 108.328 31.584 108.664 31.44 109.016H35.344V107.56H37.232V109.016H41.472V110.744H37.232V111.864H41.04V116.536ZM51.12 115.928H54.496V113.96H51.12V115.928ZM46.144 115.928H49.2V113.96H46.192V114.248C46.192 114.76 46.176 115.336 46.144 115.928ZM49.2 110.328H46.192V112.184H49.2V110.328ZM54.496 112.184V110.328H51.12V112.184H54.496ZM56.384 108.52V120.136C56.384 121.16 56.16 121.672 55.52 121.96C54.864 122.28 53.888 122.312 52.448 122.296C52.384 121.784 52.08 120.968 51.84 120.472C52.736 120.52 53.792 120.504 54.08 120.504C54.384 120.504 54.496 120.408 54.496 120.12V117.72H51.12V122.184H49.2V117.72H45.936C45.648 119.464 45.072 121.224 43.92 122.472C43.616 122.12 42.848 121.464 42.416 121.24C44.16 119.32 44.304 116.472 44.304 114.232V108.52H56.384ZM71.552 110.68V109.992H70.848V110.68H71.552ZM71.552 112.536V111.832H70.848V112.536H71.552ZM67.424 111.832V112.536H68.112V111.832H67.424ZM67.424 109.992V110.68H68.112V109.992H67.424ZM69.824 111.832H69.136V112.536H69.824V111.832ZM69.136 110.68H69.824V109.992H69.136V110.68ZM73.024 108.792V113.752H66.032V108.792H67.808V107.464H69.136V108.792H69.824V107.464H71.168V108.792H73.024ZM64.288 114.424V113.784H60.176V114.424H64.288ZM61.36 118.392H63.072V117.656H61.36V118.392ZM63.072 116.408V115.704H61.36V116.408H63.072ZM61.088 109.288V112.488H61.648V109.944H63.328V109.288H61.088ZM62.656 112.488H63.328V111.016H62.656V112.488ZM65.696 114.984H64.688V120.792C64.688 121.48 64.592 121.88 64.16 122.12C63.744 122.376 63.2 122.392 62.448 122.392C62.384 121.96 62.192 121.352 62.016 120.952C62.384 120.968 62.752 120.968 62.896 120.968C63.04 120.952 63.072 120.904 63.072 120.776V119.672H61.36V122.392H59.76V114.984H58.816V112.488H59.728V107.944H64.752V112.488H65.712V114.296H73.328V115.56H65.696V114.984ZM70.64 119.192H68.192C68.512 119.704 68.8 120.376 68.912 120.856H70C70.224 120.36 70.496 119.704 70.64 119.192ZM67.792 117.192V118.072H71.2V117.192H67.792ZM71.424 120.856H73.504V122.2H65.36V120.856H67.408C67.264 120.424 67.056 119.928 66.816 119.544L67.792 119.192H66.256V116.072H72.8V119.192H71.296L72.256 119.416C71.968 119.928 71.68 120.424 71.424 120.856ZM83.392 111.24H86.768C86.08 110.584 85.456 109.832 85.04 109.144C84.656 109.832 84.08 110.568 83.392 111.24ZM83.008 112.632V111.592C82.496 112.056 81.936 112.456 81.376 112.776C81.216 112.28 80.848 111.592 80.528 111.192C82.032 110.408 83.456 108.824 84.144 107.464H85.84C86.784 108.984 88.224 110.392 89.68 111.048C89.344 111.512 88.976 112.2 88.72 112.728C88.224 112.44 87.712 112.072 87.216 111.656V112.632H83.008ZM86.64 114.52V116.04H87.648V114.52H86.64ZM85.408 117.24V113.336H88.976V117.24H85.408ZM82.64 114.52V116.04H83.536V114.52H82.64ZM81.392 117.24V113.336H84.832V117.24H81.392ZM75.312 121.512L74.352 121.016C74.88 120.168 75.024 118.808 75.072 117.432L76.096 117.624C76.032 119.096 75.904 120.584 75.312 121.512ZM76.256 117.768L77.056 117.672C77.2 118.616 77.232 119.832 77.2 120.616L76.336 120.712C76.4 119.912 76.368 118.712 76.256 117.768ZM77.232 117.656L78.016 117.512C78.24 118.344 78.448 119.4 78.48 120.104L77.68 120.248C77.648 119.56 77.472 118.488 77.232 117.656ZM76.656 114.264V115.288H77.648V114.264H76.656ZM77.648 109.512H76.656V110.504H77.648V109.512ZM77.648 112.872V111.896H76.656V112.872H77.648ZM86.4 117.496L87.984 117.592C87.92 118.2 87.824 118.776 87.68 119.288C88.352 119.976 89.168 120.872 89.552 121.464L88.352 122.392C88.08 121.96 87.6 121.352 87.104 120.76C86.736 121.432 86.272 121.976 85.648 122.424C85.472 122.168 84.976 121.704 84.624 121.416L84.176 121.896C83.968 121.56 83.6 121.096 83.2 120.632C82.832 121.368 82.336 121.96 81.68 122.44C81.472 122.152 80.928 121.608 80.576 121.368C80.512 121.576 80.448 121.736 80.368 121.832C80.112 122.184 79.84 122.328 79.456 122.376C79.152 122.44 78.624 122.44 78.096 122.44C78.064 121.992 77.936 121.4 77.728 121.016C78.128 121.064 78.464 121.064 78.672 121.064C78.848 121.064 78.96 121.032 79.072 120.872C79.184 120.712 79.248 120.296 79.312 119.416L78.88 119.576C78.784 119.016 78.512 118.168 78.208 117.512L78.912 117.288C79.072 117.608 79.232 117.992 79.36 118.36C79.392 117.896 79.408 117.352 79.424 116.728H75.168V108.024H80.752V109.512H79.088V110.504H80.464V111.896H79.088V112.872H80.512V114.264H79.088V115.288H80.928C80.928 115.288 80.928 115.688 80.912 115.896C80.832 118.968 80.768 120.568 80.576 121.336C81.792 120.536 82.304 119.224 82.448 117.512L84.016 117.608C83.952 118.168 83.872 118.68 83.744 119.176C84.272 119.704 84.848 120.328 85.168 120.776C85.936 119.976 86.272 118.856 86.4 117.496ZM96.784 116.888C96.448 114.376 99.84 113.8 99.84 112.248C99.84 111.288 99.072 110.744 97.824 110.744C96.832 110.744 96.048 111.176 95.264 112.008L93.952 110.792C94.96 109.608 96.368 108.84 98.08 108.84C100.4 108.84 102.096 109.912 102.096 112.04C102.096 114.392 98.608 114.664 98.848 116.888H96.784ZM97.824 121.144C97.008 121.144 96.416 120.568 96.416 119.736C96.416 118.888 97.024 118.312 97.824 118.312C98.64 118.312 99.232 118.888 99.232 119.736C99.232 120.568 98.64 121.144 97.824 121.144Z" fill="#FAFAFA"/>
</svg>
