<svg width="453" height="252" viewBox="0 0 453 252" fill="none" xmlns="http://www.w3.org/2000/svg">
<path d="M5.70725 210.692L4.501 209.8L4.46741 209.846L4.43732 209.894L5.70725 210.692ZM75.8353 200.141L76.6711 198.896L76.5777 198.833L76.476 198.785L75.8353 200.141ZM442.587 89.7664L443.974 89.1945L442.587 89.7664ZM79.7672 55.6853L79.0434 54.3715L79.0156 54.3868L78.9885 54.4032L79.7672 55.6853ZM161.034 231.442L161.428 229.995L161.406 229.989L161.385 229.984L161.034 231.442ZM450.246 116.472L448.751 116.346L450.246 116.472ZM412.705 36.8604L413.615 35.6679L412.705 36.8604ZM84.3549 74.8147L83.2619 73.7875L84.3549 74.8147ZM39.04 147.24C39.3322 148.015 40.1975 148.407 40.9727 148.114C41.7479 147.822 42.1394 146.957 41.8473 146.182L39.04 147.24ZM44.4799 155.713L4.501 209.8L6.9135 211.584L46.8924 157.497L44.4799 155.713ZM4.43732 209.894C3.14558 211.949 2.18206 213.704 1.53446 215.187C0.897605 216.645 0.51424 217.954 0.500391 219.081C0.485683 220.277 0.900882 221.397 1.95163 222.094C2.88368 222.713 4.05678 222.814 5.15582 222.738C7.37937 222.584 10.4012 221.609 13.8171 220.258C17.2802 218.888 21.3297 217.055 25.667 215.069C34.3799 211.078 44.2889 206.452 53.368 203.449C57.9039 201.948 62.1734 200.874 65.9361 200.479C69.7166 200.082 72.8429 200.386 75.1946 201.497L76.476 198.785C73.421 197.342 69.6659 197.07 65.6228 197.495C61.5619 197.921 57.0655 199.066 52.4259 200.6C43.1539 203.667 33.0731 208.377 24.4177 212.341C20.0708 214.332 16.0915 216.132 12.7137 217.468C9.28874 218.823 6.65758 219.627 4.94857 219.745C4.08133 219.805 3.71827 219.666 3.61082 219.595C3.58091 219.575 3.57088 219.562 3.55757 219.533C3.53813 219.49 3.49707 219.369 3.50016 219.117C3.50674 218.583 3.70703 217.708 4.28365 216.388C4.84952 215.092 5.72927 213.475 6.97718 211.49L4.43732 209.894ZM74.9995 201.387C100.357 218.401 140.161 229.827 184.434 234.989C228.745 240.155 277.716 239.067 321.525 230.91C365.291 222.762 404.117 207.52 427.924 184.203C439.851 172.522 448.027 158.793 451.123 142.92C454.217 127.05 452.208 109.16 443.974 89.1945L441.201 90.3383C449.257 109.873 451.139 127.162 448.178 142.346C445.218 157.527 437.392 170.731 425.825 182.06C402.642 204.765 364.509 219.856 320.976 227.961C277.487 236.058 228.819 237.143 184.781 232.009C140.705 226.87 101.451 215.522 76.6711 198.896L74.9995 201.387ZM443.974 89.1945C427.331 48.8395 380.969 15.3613 316.483 4.35012C251.942 -6.67058 169.087 4.76199 79.0434 54.3715L80.491 56.9991C170.025 7.67017 252.196 -3.58366 315.978 7.30732C379.816 18.2078 425.075 51.2393 441.201 90.3383L443.974 89.1945ZM78.9885 54.4032C62.9892 64.1206 47.0299 76.9285 35.3515 91.4977C23.683 106.055 16.176 122.517 17.4013 139.483C18.6306 156.505 28.6193 173.665 51.1574 189.632C73.6714 205.583 108.82 220.434 160.684 232.9L161.385 229.984C109.697 217.56 74.9643 202.822 52.8917 187.185C30.8431 171.564 21.5395 155.135 20.3935 139.267C19.2436 123.343 26.2786 107.613 37.6923 93.374C49.0963 79.1472 64.7594 66.5554 80.5459 56.9674L78.9885 54.4032ZM160.641 232.889C209.856 246.272 278.994 258.502 337.637 246.796C366.986 240.937 393.798 229.065 414.146 208.255C434.509 187.429 448.275 157.778 451.74 116.598L448.751 116.346C445.333 156.957 431.795 185.914 412.001 206.158C392.192 226.417 365.994 238.076 337.05 243.854C279.106 255.42 210.521 243.344 161.428 229.995L160.641 232.889ZM451.74 116.598C452.739 104.736 448.34 88.4489 441.225 73.2708C434.103 58.077 424.107 43.6721 413.615 35.6679L411.795 38.053C421.749 45.6469 431.489 59.5703 438.509 74.5441C445.535 89.5335 449.685 105.253 448.751 116.346L451.74 116.598ZM413.615 35.6679C380.382 10.3143 318.436 -2.08966 254.678 2.71995C190.877 7.53273 124.773 29.615 83.2619 73.7875L85.448 75.842C126.254 32.4202 191.514 10.4933 254.903 5.71145C318.335 0.926483 379.405 13.3425 411.795 38.053L413.615 35.6679ZM83.2619 73.7875C76.4047 81.0843 63.5515 94.3503 53.3278 108.191C48.2171 115.109 43.7133 122.237 40.9429 128.89C38.1916 135.498 37.0334 141.916 39.04 147.24L41.8473 146.182C40.249 141.942 41.0568 136.421 43.7124 130.044C46.3489 123.712 50.6929 116.807 55.7409 109.973C65.8345 96.3087 78.542 83.1907 85.448 75.842L83.2619 73.7875Z" fill="#2DE9F6"/>
<path d="M83.1 108.26H80.84C80.5 109.74 80.16 111.18 79.82 112.54C80.44 112.92 81.08 113.32 81.72 113.76C82.38 112.22 82.84 110.38 83.1 108.26ZM84.08 105.96L85.54 106.2C85.3 109.96 84.68 112.86 83.66 115.14C84.6 115.88 85.42 116.6 85.96 117.24L84.58 119.28C84.08 118.64 83.34 117.94 82.48 117.2C81.4 118.72 80.04 119.88 78.34 120.74C78.04 120.14 77.42 119.26 76.94 118.78C78.44 118.14 79.68 117.12 80.64 115.74C80.18 115.4 79.7 115.06 79.24 114.74L79.04 115.48L77.04 114.52C77.52 112.86 78.08 110.6 78.6 108.26H76.84V106.02H79.08C79.36 104.64 79.62 103.28 79.82 102.06L82.12 102.28C81.88 103.46 81.62 104.72 81.34 106.02H83.66L84.08 105.96ZM88.76 116.46H92.28V106.34H88.76V116.46ZM86.5 104.1H94.64V119.9H92.28V118.72H88.76V120.2H86.5V104.1ZM100.98 102.04L103.22 102.76C102.76 103.98 102.22 105.2 101.58 106.42V120.68H99.2V110.22C98.74 110.84 98.26 111.4 97.8 111.9C97.58 111.32 96.94 110.02 96.52 109.42C98.28 107.66 100 104.86 100.98 102.04ZM107.72 110.28H105.5V113.4H107.72V110.28ZM109.94 115.46H105.5V116.76H103.28V108.22H109.94V115.46ZM115.36 103.78V106.06H114.16V117.92C114.16 119.3 113.86 119.94 113 120.32C112.16 120.68 110.8 120.76 108.94 120.76C108.86 120.06 108.48 119.02 108.14 118.32C109.44 118.38 110.84 118.38 111.24 118.38C111.64 118.38 111.76 118.26 111.76 117.88V106.06H103.04V103.78H115.36ZM124.52 114.48H121.42C122 115.2 122.62 115.76 123.36 116.22C123.94 115.68 124.28 115.12 124.52 114.48ZM121.22 111.24V112.54H124.88C124.9 112.32 124.9 112.1 124.9 111.88V111.24H121.22ZM121.22 108.18V109.46H124.9V108.18H121.22ZM131.16 108.18H127.4V109.46H131.16V108.18ZM131.16 112.54V111.24H127.4V111.9C127.4 112.1 127.4 112.32 127.38 112.54H131.16ZM133.52 114.48H127.1C126.84 115.48 126.38 116.44 125.64 117.26C128.24 118.12 131.52 118.2 135.58 118.18C135.14 118.72 134.7 119.72 134.56 120.54C130.22 120.44 126.54 120.14 123.68 118.88C122.34 119.64 120.58 120.3 118.26 120.76C117.98 120.2 117.34 119.2 116.82 118.64C118.74 118.34 120.2 117.94 121.34 117.46C120.56 116.86 119.88 116.1 119.28 115.22L121.1 114.48H118.98V106.26H124.9V105.08H117.24V102.96H134.76V105.08H127.4V106.26H133.52V114.48ZM137.42 113.72L139.4 114.06C139.2 115.96 138.78 117.96 138.2 119.24C137.8 118.96 136.9 118.54 136.4 118.36C136.96 117.2 137.26 115.4 137.42 113.72ZM150.8 117.22H152.54V112.52H150.8V117.22ZM147.06 112.52V117.22H148.72V112.52H147.06ZM148.72 105.78H147.06V110.36H148.72V105.78ZM152.54 110.36V105.78H150.8V110.36H152.54ZM144.96 103.56H154.74V120.26H152.54V119.36H147.06V120.44H144.96V117.5L143.08 118.14C142.92 117.1 142.38 115.46 141.9 114.22L143.68 113.64C144.2 114.8 144.68 116.26 144.96 117.32V112.76L143.38 113.5C143.3 113.12 143.16 112.68 143 112.2L141.84 112.32V120.72H139.72V112.56C138.7 112.66 137.74 112.76 136.88 112.86L136.54 110.76C137.02 110.74 137.58 110.7 138.16 110.66C138.44 110.3 138.74 109.92 139.02 109.52C138.44 108.62 137.44 107.54 136.58 106.72L137.7 105.1C137.86 105.24 138.02 105.38 138.18 105.54C138.74 104.42 139.32 103.1 139.66 102.06L141.76 102.82C141.06 104.2 140.22 105.74 139.52 106.84C139.78 107.14 140.04 107.44 140.24 107.7C140.94 106.58 141.6 105.42 142.08 104.44L144.02 105.38C142.96 107.02 141.62 108.92 140.38 110.5L142.24 110.36C142.04 109.96 141.84 109.54 141.62 109.18L143.34 108.42C143.96 109.44 144.58 110.66 144.96 111.7V103.56ZM165.68 115.98V116.62H167.9V115.98H165.68ZM165.68 114.18V114.8H167.9V114.18H165.68ZM165.68 112.4V113H167.9V112.4H165.68ZM159.56 111.94H160.86V109.46H159.58V110C159.58 110.6 159.58 111.26 159.56 111.94ZM160.86 104.9H159.58V107.3H160.86V104.9ZM169.8 117.88H168.92C169.68 118.48 170.46 119.2 170.9 119.74L169.22 120.68C168.76 120.02 167.84 119.1 167.06 118.46L167.9 117.88H165.74L166.68 118.42C166 119.2 164.92 120.18 164.16 120.7C163.82 120.4 163.16 119.96 162.7 119.68C162.6 119.94 162.42 120.14 162.18 120.3C161.62 120.68 160.88 120.74 159.74 120.74C159.68 120.16 159.44 119.16 159.18 118.58C159.78 118.6 160.38 118.6 160.58 118.6C160.78 118.6 160.86 118.52 160.86 118.28V114.12H159.46C159.32 116.46 158.98 118.9 158.28 120.72C157.9 120.4 157 119.92 156.5 119.74C157.52 116.96 157.6 112.92 157.6 110V102.76H162.9V118.32C162.9 118.86 162.86 119.28 162.74 119.6C163.4 119.16 164.16 118.48 164.7 117.88H163.86V111.16H169.8V117.88ZM163.38 110.58V109.24H169.96V110.58H163.38ZM164.04 107.3H169.58V108.64H164.04V107.3ZM172.32 103.14V104.64H173.7C173.34 104.16 172.8 103.58 172.32 103.14ZM175.36 106.66H172.34C172.44 112.96 172.92 117.86 173.62 117.88C173.84 117.88 174 116.98 174.08 115.46C174.42 115.94 175.3 116.58 175.66 116.82C175.16 120.04 174.2 120.72 173.5 120.72C171.1 120.68 170.44 115.2 170.24 106.66H163.22V104.64H170.2C170.18 103.82 170.16 102.96 170.16 102.08H172.32V102.94L173.66 102.12C174.34 102.66 175.14 103.46 175.54 104.02L174.54 104.64H175.36V106.66ZM179.68 116.58H182.86V112.66H179.68V116.58ZM182.86 110.6V107.36H179.68V110.6H182.86ZM189.22 105.14H194.84C194.84 105.14 194.84 105.94 194.82 106.22C194.56 115.16 194.34 118.34 193.52 119.4C192.96 120.14 192.4 120.36 191.6 120.5C190.84 120.6 189.64 120.58 188.46 120.54C188.42 119.88 188.1 118.88 187.68 118.22C188.96 118.34 190.14 118.34 190.66 118.34C191.06 118.34 191.28 118.26 191.54 118C192.12 117.36 192.38 114.36 192.6 107.3H188.32C187.8 108.5 187.18 109.6 186.56 110.46C186.24 110.16 185.56 109.7 185.02 109.34V118.68H179.68V120.14H177.52V105.28H179.78C180.04 104.28 180.28 103 180.36 102.06L182.96 102.42C182.62 103.42 182.26 104.42 181.92 105.28H185.02V108.52C186.18 106.84 187.14 104.42 187.72 102.08L190 102.6C189.78 103.46 189.52 104.3 189.22 105.14ZM191.52 114.26L189.5 115.5C188.94 114.3 187.7 112.34 186.72 110.88L188.58 109.82C189.58 111.2 190.9 113.1 191.52 114.26ZM201.02 108.56V110.32H204.78V108.56H201.02ZM201.02 104.96V106.64H204.78V104.96H201.02ZM210.74 106.64V104.96H207.08V106.64H210.74ZM210.74 110.32V108.56H207.08V110.32H210.74ZM203.64 113.68L205.04 112.38H198.78V102.9H213.1V112.38H205.54C206.88 113.06 208.42 114.08 209.24 114.92L207.54 116.54C206.76 115.68 205.08 114.44 203.64 113.68ZM198.92 119.6L196.78 118.42C197.7 117.22 198.46 115.42 198.88 113.78L201.04 114.56C200.56 116.26 199.88 118.28 198.92 119.6ZM205.24 118.22H208.08C208.9 118.22 209.06 117.92 209.18 115.94C209.66 116.3 210.68 116.68 211.32 116.82C211.06 119.66 210.36 120.38 208.28 120.38H204.96C202.32 120.38 201.66 119.68 201.66 117.56V114.28H204.06V117.54C204.06 118.14 204.24 118.22 205.24 118.22ZM210.54 114.54L212.66 113.66C213.78 115.16 214.9 117.1 215.3 118.5L212.98 119.48C212.64 118.14 211.62 116.1 210.54 114.54ZM225.74 107.66H227.08C227.74 107.14 228.38 106.62 228.98 106.06H225.74V107.66ZM234.66 109.66H227.88C227.02 110.32 226.12 110.94 225.2 111.52C227.44 111.26 229.62 110.9 231.1 110.5L232.56 112.06C230.08 112.74 226.64 113.12 223.6 113.34L223.36 114.36H232.6C232.6 114.36 232.56 115.02 232.48 115.36C232 118.06 231.52 119.42 230.84 120.02C230.3 120.54 229.76 120.68 228.92 120.72C228.26 120.78 227.12 120.78 225.92 120.72C225.88 120.06 225.58 119.16 225.16 118.52C226.32 118.64 227.58 118.68 228.1 118.68C228.48 118.68 228.74 118.64 228.98 118.48C229.3 118.22 229.62 117.54 229.88 116.28H222.86L222.62 117.2L220.24 116.86C220.52 116.02 220.82 114.94 221.1 113.8C220.02 114.32 218.92 114.8 217.82 115.24C217.5 114.76 216.8 113.86 216.36 113.42C218.18 112.78 219.98 112.02 221.7 111.1L221.8 110.64L222.44 110.72C223.06 110.38 223.66 110.02 224.24 109.66H217.24V107.66H223.38V106.06H218.78V104.12H223.38V102.06H225.74V104.12H229.94V105.14C230.66 104.4 231.32 103.64 231.92 102.86L233.84 103.92C232.8 105.24 231.62 106.5 230.32 107.66H234.66V109.66ZM245.22 111.5H247.68V111.24V109.52H245.22V111.5ZM252.52 109.52H250.04V111.26V111.5H252.52V109.52ZM254.8 113.42H249.92C249.76 114.66 249.42 115.84 248.82 116.9C250.66 117.78 252.96 118.34 255.66 118.58C255.16 119.1 254.54 120.08 254.24 120.7C251.54 120.36 249.26 119.66 247.4 118.6C246.44 119.48 245.08 120.22 243.3 120.74C243 120.22 242.3 119.26 241.82 118.76C243.42 118.4 244.6 117.88 245.46 117.22C244.48 116.4 243.68 115.38 243 114.24L244.94 113.64C245.42 114.42 246.06 115.1 246.8 115.7C247.2 114.98 247.42 114.24 247.54 113.42H243.08V107.58H247.68V106.18H242.66V104.34C242.3 105.12 241.9 105.88 241.46 106.64V120.78H239.2V110.04C238.66 110.72 238.12 111.36 237.56 111.92C237.34 111.34 236.7 110.06 236.3 109.48C238.2 107.68 240.06 104.86 241.14 102.02L243.34 102.74C243.16 103.16 242.98 103.58 242.8 104.02H247.68V102.2H250.04V104.02H255.34V106.18H250.04V107.58H254.8V113.42ZM267.4 112.66H271.62V110.2H267.4V112.66ZM261.18 112.66H265V110.2H261.24V110.56C261.24 111.2 261.22 111.92 261.18 112.66ZM265 105.66H261.24V107.98H265V105.66ZM271.62 107.98V105.66H267.4V107.98H271.62ZM273.98 103.4V117.92C273.98 119.2 273.7 119.84 272.9 120.2C272.08 120.6 270.86 120.64 269.06 120.62C268.98 119.98 268.6 118.96 268.3 118.34C269.42 118.4 270.74 118.38 271.1 118.38C271.48 118.38 271.62 118.26 271.62 117.9V114.9H267.4V120.48H265V114.9H260.92C260.56 117.08 259.84 119.28 258.4 120.84C258.02 120.4 257.06 119.58 256.52 119.3C258.7 116.9 258.88 113.34 258.88 110.54V103.4H273.98ZM291.78 105.16V104.2H286.62V105.16H291.78ZM291.78 107.68V106.72H286.62V107.68H291.78ZM293.98 102.56V109.32H284.52V102.56H293.98ZM295.34 112.08H287.38C287.22 112.4 287.02 112.72 286.82 113.04H294.94C294.94 113.04 294.92 113.58 294.9 113.86C294.62 117.76 294.3 119.36 293.76 119.94C293.38 120.4 292.94 120.56 292.44 120.62C291.98 120.68 291.22 120.7 290.42 120.66C290.38 120.1 290.18 119.3 289.88 118.8C290.52 118.86 291.04 118.86 291.3 118.86C291.58 118.86 291.74 118.82 291.9 118.64C292.18 118.34 292.42 117.32 292.64 114.9H291.86C291.04 117.14 289.48 119.56 287.86 120.82C287.46 120.36 286.78 119.82 286.18 119.5C287.7 118.54 289.04 116.76 289.9 114.9H288.72C287.64 116.82 285.78 118.82 284.04 119.92C283.66 119.46 283.04 118.86 282.48 118.52C283.96 117.78 285.5 116.38 286.56 114.9H285.38C284.64 115.68 283.86 116.34 283.04 116.86C282.74 116.48 281.98 115.78 281.48 115.46C280.04 116.18 278.6 116.9 277.38 117.5L276.5 115.1C277.18 114.84 278.02 114.5 278.96 114.12V108.48H276.96V106.24H278.96V102.3H281.16V106.24H283.04V108.48H281.16V113.2L282.76 112.5L283.18 114.2C283.9 113.58 284.52 112.86 285.02 112.08H282.76V110.08H295.34V112.08ZM301.6 106.34V107.2H310.26V106.34H301.6ZM301.6 104.12V104.96H310.26V104.12H301.6ZM314.76 109.48V111.34H297.12V109.48H304.76V108.68H299.32V102.66H312.66V108.68H307.18V109.48H314.76ZM301.4 116.6L303.58 117.48C302.24 118.64 300.1 119.8 298.38 120.48C297.98 120.04 297.14 119.2 296.64 118.82C298.4 118.3 300.32 117.48 301.4 116.6ZM302.08 113.64V114.92H309.92V113.64H302.08ZM312.32 116.56H307.22V118.7C307.22 119.74 307 120.18 306.22 120.44C305.42 120.7 304.4 120.7 303 120.7C302.88 120.12 302.6 119.4 302.32 118.88C303.14 118.92 304.22 118.92 304.48 118.9C304.76 118.88 304.86 118.82 304.86 118.6V116.56H299.8V111.98H312.32V116.56ZM308.12 117.88L309.7 116.62C311.32 117.24 313.58 118.26 314.8 119.06L313.08 120.46C312.02 119.7 309.8 118.56 308.12 117.88ZM320.78 112.46L320.84 114.1H323.56V109.92H325.44V114.1H326.58V109.24H323.6V104.1C322.64 104.56 321.56 105.04 320.58 105.42L320.62 106.86H322.88V108.82H320.68L320.72 110.5H322.88V112.46H320.78ZM335.22 114.1V116.32H329.76C331.74 117.26 333.9 118.36 335.18 119.14L332.84 120.76C331.58 119.92 329.36 118.6 327.34 117.62L328.78 116.32H322.8L324.56 117.6C322.98 118.7 320.56 119.98 318.74 120.74C318.32 120.26 317.48 119.54 316.92 119.1C318.68 118.44 320.84 117.28 322.16 116.32H316.84V114.1H318.7L318.38 103.38L319.72 103.74C320.6 103.26 321.48 102.7 322.08 102.24L323.6 103.7V102.3H325.62V104.06H328.68V106.04H325.62V107.38H328.6V114.1H331.08C331.1 113.6 331.14 113.04 331.18 112.48H329.28V110.52H331.26C331.28 109.96 331.3 109.4 331.32 108.82H329.3V106.86H331.36C331.38 106.32 331.38 105.8 331.38 105.28H329.06V103.22H333.56C333.56 106.72 333.48 111.1 333.3 114.1H335.22ZM338.12 111.8L336.4 111.22C336.82 109.86 337.12 107.62 337.22 106L338.9 106.22C338.86 107.88 338.54 110.26 338.12 111.8ZM345.72 116.12H351.7V115.2H345.72V116.12ZM351.7 112.58H345.72V113.52H351.7V112.58ZM353.94 110.84V118.46C353.94 119.5 353.74 120.06 353.02 120.38C352.32 120.72 351.32 120.72 349.94 120.72C349.86 120.14 349.58 119.28 349.3 118.7C350.12 118.76 351.06 118.74 351.32 118.74C351.6 118.74 351.7 118.66 351.7 118.42V117.76H345.72V120.76H343.52V110.84H353.94ZM349.84 108.38H355.28V110.08H342.18V108.38H347.48V107.52H343.34L343.38 107.62L341.82 108.38C341.68 107.8 341.4 106.96 341.08 106.18V120.72H338.94V102.06H341.08V105.26L342.22 104.78C342.64 105.64 343.1 106.76 343.34 107.5V105.92H347.48V105.12H342.8V103.42H347.48V102.06H349.84V103.42H354.68V105.12H349.84V105.92H354.14V107.52H349.84V108.38ZM370.74 105.16H367.4C367.66 105.64 367.86 106.2 367.96 106.62L367.7 106.68H370.24L370.14 106.66C370.34 106.22 370.58 105.64 370.74 105.16ZM375.26 106.68V108.62H363.04V106.68H365.68C365.58 106.24 365.38 105.72 365.18 105.32L365.92 105.16H363.48V103.32H367.82V102.1H370.16V103.32H374.9V105.16H372.64L373.14 105.26C372.88 105.8 372.62 106.28 372.4 106.68H375.26ZM363 112.74L363.52 114.84C361.42 115.86 359.12 116.9 357.3 117.74L356.5 115.36C357.18 115.12 358.02 114.8 358.94 114.44V109.04H356.96V106.8H358.94V102.34H361.14V106.8H362.96V109.04H361.14V113.54C361.76 113.28 362.38 113 363 112.74ZM366.38 113.24V114.26H372V113.24H366.38ZM366.38 110.86V111.86H372V110.86H366.38ZM372.3 118.62H373.2C373.52 118.62 373.62 118.42 373.66 116.9C374.1 117.24 375.02 117.62 375.64 117.74C375.42 120.04 374.86 120.64 373.46 120.64H371.9C370.02 120.64 369.62 119.98 369.62 118.08V115.74H368.2C367.76 118.14 366.6 119.82 362.78 120.8C362.56 120.22 361.94 119.26 361.48 118.8C364.62 118.2 365.5 117.2 365.86 115.74H364.16V109.4H374.34V115.74H371.88V118.06C371.88 118.56 371.94 118.62 372.3 118.62ZM379.88 121.76L379.24 120.14C380.8 119.64 381.7 118.78 381.82 117.72C381.76 117.74 381.68 117.74 381.6 117.74C380.6 117.74 379.7 117.1 379.7 115.96C379.7 114.84 380.6 114.16 381.66 114.16C383.08 114.16 383.82 115.22 383.82 116.9C383.82 119.18 382.36 121.02 379.88 121.76ZM91.74 135.36V134.36H86.34V135.36H91.74ZM91.74 137.9V136.88H86.34V137.9H91.74ZM94.02 132.68V139.58H84.16V132.68H94.02ZM83.16 142.66L81.04 143.3V147.96C81.04 149.06 80.86 149.64 80.26 150C79.66 150.4 78.78 150.48 77.5 150.46C77.44 149.88 77.18 148.9 76.88 148.28C77.62 148.3 78.3 148.3 78.54 148.28C78.78 148.28 78.88 148.2 78.88 147.94V143.94C78.22 144.12 77.62 144.3 77.04 144.46L76.5 142.16C77.18 142.02 77.98 141.8 78.88 141.58V138.04H76.72V135.84H78.88V132.06H81.04V135.84H83.04V138.04H81.04V141L82.84 140.52L83.16 142.66ZM90.14 146.04V148.34C90.6 148.38 91.04 148.4 91.54 148.4C92.22 148.4 94.7 148.4 95.56 148.38C95.28 148.86 95 149.86 94.92 150.46H91.44C88.82 150.46 86.8 149.98 85.44 147.56C84.94 148.82 84.22 149.88 83.36 150.7C82.98 150.32 82.08 149.58 81.6 149.28C83.26 147.96 84.08 145.74 84.38 143.02L86.54 143.28C86.44 144 86.32 144.68 86.16 145.3C86.6 146.46 87.18 147.18 87.9 147.64V142.42H83.2V140.5H95.02V142.42H90.14V144.18H93.96V146.04H90.14ZM100.9 132.1L103.12 132.8C102.6 134.18 101.94 135.6 101.22 136.96V150.72H98.88V140.58C98.46 141.12 98.04 141.6 97.62 142.06C97.4 141.46 96.76 140.16 96.34 139.58C98.14 137.78 99.9 134.96 100.9 132.1ZM105.56 145.36L107.78 146.04C106.78 147.78 105.18 149.54 103.8 150.68C103.36 150.24 102.46 149.5 101.94 149.18C103.34 148.24 104.74 146.78 105.56 145.36ZM109.92 146.38L111.82 145.34C113.12 146.6 114.5 148.3 115.22 149.46L113.22 150.72C112.58 149.52 111.18 147.68 109.92 146.38ZM107.34 138.24V142.22H110.24V138.24H107.34ZM112.56 142.22H115.32V144.54H102.34V142.22H105.02V138.24H102.84V135.96H105.02V132.22H107.34V135.96H110.24V132.2H112.56V135.96H115.16V138.24H112.56V142.22ZM127.66 145.64L125.82 145.68C125.54 146.58 125.16 147.32 124.64 147.94C125.26 148.26 125.84 148.56 126.32 148.84C127.84 148.02 128.98 146.9 129.84 145.52C129.36 144.36 128.96 143.04 128.64 141.64C128.4 142.12 128.14 142.56 127.86 142.96C127.66 142.66 127.22 142.2 126.8 141.78V143.26H122.36L122.54 143.3L122.14 144.04C123.94 144.02 125.86 143.98 127.72 143.96L127.66 145.64ZM121.14 145.78L120.8 146.34C121.46 146.56 122.12 146.82 122.78 147.1C123.14 146.72 123.44 146.26 123.68 145.74L121.14 145.78ZM119.48 141V141.84H121.06V141H119.48ZM124.74 141H123.08V141.84H124.74V141ZM132.06 137.9H130.08L130.04 138.02C130.3 139.68 130.64 141.28 131.12 142.72C131.56 141.3 131.86 139.7 132.06 137.9ZM119.88 137.44H121.06V136.7H119.88V137.44ZM121.06 134.54H119.88V135.26H121.06V134.54ZM124.34 134.54H123.08V135.26H124.34V134.54ZM123.08 137.44H124.34V136.7H123.08V137.44ZM135.34 137.9H134.28C133.9 140.9 133.32 143.44 132.32 145.54C133.12 146.96 134.14 148.1 135.44 148.88C134.92 149.32 134.24 150.18 133.9 150.78C132.72 150 131.76 148.98 130.98 147.76C130.08 148.96 128.96 149.98 127.58 150.82C127.42 150.42 126.94 149.68 126.56 149.16L125.18 150.52C124.64 150.12 123.9 149.68 123.08 149.24C121.82 149.98 120.16 150.46 118.02 150.82C117.88 150.2 117.52 149.46 117.18 149C118.72 148.86 119.98 148.64 120.96 148.24C120.6 148.1 120.24 147.94 119.88 147.8L119.72 148.06L117.82 147.6C118.16 147.1 118.54 146.48 118.94 145.82L116.8 145.84L116.72 144.08C117.64 144.08 118.74 144.08 119.92 144.06C120.08 143.78 120.22 143.52 120.36 143.26H117.52V139.56H121.06V138.94H117.92V136.82H116.66V135.14H117.92V133.04H121.06V132.06H123.08V133.04H126.4V135.14H127.7V136.82H126.4V138.94H123.08V139.56H126.8V140.2C127.94 138.08 128.58 135.12 128.94 132.06L131.2 132.36C131.06 133.5 130.86 134.62 130.64 135.7H135.34V137.9ZM142.9 135.66H147.6V132.32H150V135.66H155V137.92H142.9V135.66ZM147.84 146.52L145.48 147.02C145.42 145.08 144.92 141.76 144.28 139.2L146.42 138.82C147.1 141.34 147.7 144.56 147.84 146.52ZM141.12 132.1L143.34 132.84C142.82 134.12 142.18 135.44 141.46 136.7V150.68H139.2V140.1C138.66 140.8 138.12 141.42 137.56 141.98C137.34 141.4 136.7 140.08 136.3 139.5C138.2 137.74 140.04 134.94 141.12 132.1ZM151.36 147.66H155.42V149.9H142.5V147.66H149.06C149.84 145.22 150.66 141.52 150.98 138.7L153.58 139.12C153 142.02 152.14 145.32 151.36 147.66ZM161.34 135.4H159.5V138.92H161.34V135.4ZM159.5 144.76H161.34V141H159.5V144.76ZM163.56 133.28V146.88H159.5V148.64H157.3V133.28H163.56ZM164.74 145.2L166.64 144.1C167.56 145.08 168.64 146.4 169.06 147.38L167.02 148.56C166.66 147.64 165.64 146.22 164.74 145.2ZM175.32 140.08H173.26V141.8H175.18V143.86H173.26V148.22C173.26 149.36 173.04 149.96 172.26 150.32C171.48 150.66 170.4 150.72 168.92 150.72C168.84 150.06 168.48 149.12 168.16 148.48C169.12 148.52 170.24 148.52 170.54 148.52C170.86 148.52 170.96 148.44 170.96 148.16V143.86H163.94V141.8H170.96V140.08H163.9V138H168.42V136.24H164.58V134.16H168.42V132.06H170.76V134.16H174.76V136.24H170.76V138H175.32V140.08ZM194.96 135.42L193.04 136.66C192.54 135.72 191.34 134.32 190.3 133.3L192.08 132.2C193.14 133.16 194.38 134.48 194.96 135.42ZM181.7 132.22L183.98 132.96C183.46 134.18 182.84 135.42 182.12 136.64V150.7H179.64V140.2C178.96 141.04 178.28 141.8 177.56 142.44C177.34 141.88 176.66 140.6 176.24 140.02C178.4 138.18 180.5 135.24 181.7 132.22ZM195.26 139.4L189.46 140.2C190.02 144.64 191.08 147.6 192.68 147.8C193.14 147.84 193.38 146.84 193.54 144.62C193.98 145.14 195.04 145.74 195.48 145.98C194.98 149.84 193.9 150.76 192.78 150.7C189.4 150.38 187.82 146.62 187.1 140.52L183.16 141.06L182.82 138.76L186.86 138.22C186.72 136.42 186.6 134.46 186.54 132.36H188.96C189 134.32 189.08 136.2 189.22 137.9L194.92 137.16L195.26 139.4ZM214.92 135.92H206.88V139.06L207.28 138.6C209.44 139.68 212.58 141.4 214.1 142.64L212.34 144.82C211.18 143.8 208.9 142.34 206.88 141.18V150.68H204.32V135.92H197.1V133.52H214.92V135.92ZM225.22 141.5H227.68V141.24V139.52H225.22V141.5ZM232.52 139.52H230.04V141.26V141.5H232.52V139.52ZM234.8 143.42H229.92C229.76 144.66 229.42 145.84 228.82 146.9C230.66 147.78 232.96 148.34 235.66 148.58C235.16 149.1 234.54 150.08 234.24 150.7C231.54 150.36 229.26 149.66 227.4 148.6C226.44 149.48 225.08 150.22 223.3 150.74C223 150.22 222.3 149.26 221.82 148.76C223.42 148.4 224.6 147.88 225.46 147.22C224.48 146.4 223.68 145.38 223 144.24L224.94 143.64C225.42 144.42 226.06 145.1 226.8 145.7C227.2 144.98 227.42 144.24 227.54 143.42H223.08V137.58H227.68V136.18H222.66V134.34C222.3 135.12 221.9 135.88 221.46 136.64V150.78H219.2V140.04C218.66 140.72 218.12 141.36 217.56 141.92C217.34 141.34 216.7 140.06 216.3 139.48C218.2 137.68 220.06 134.86 221.14 132.02L223.34 132.74C223.16 133.16 222.98 133.58 222.8 134.02H227.68V132.2H230.04V134.02H235.34V136.18H230.04V137.58H234.8V143.42ZM247.4 142.66H251.62V140.2H247.4V142.66ZM241.18 142.66H245V140.2H241.24V140.56C241.24 141.2 241.22 141.92 241.18 142.66ZM245 135.66H241.24V137.98H245V135.66ZM251.62 137.98V135.66H247.4V137.98H251.62ZM253.98 133.4V147.92C253.98 149.2 253.7 149.84 252.9 150.2C252.08 150.6 250.86 150.64 249.06 150.62C248.98 149.98 248.6 148.96 248.3 148.34C249.42 148.4 250.74 148.38 251.1 148.38C251.48 148.38 251.62 148.26 251.62 147.9V144.9H247.4V150.48H245V144.9H240.92C240.56 147.08 239.84 149.28 238.4 150.84C238.02 150.4 237.06 149.58 236.52 149.3C238.7 146.9 238.88 143.34 238.88 140.54V133.4H253.98ZM265.82 136.28V138.1H266.92C267.68 137.52 268.4 136.92 269.08 136.28H265.82ZM270.18 145.02V143.74H263.3V145.02H270.18ZM263.3 148.18H270.18V146.82H263.3V148.18ZM274.96 140.2H267.76C266.98 140.76 266.22 141.28 265.4 141.8H272.68V150.68H270.18V150.16H263.3V150.76H260.92V144.22C259.92 144.66 258.88 145.1 257.86 145.48C257.58 144.96 256.86 144 256.42 143.52C259.04 142.7 261.54 141.56 263.84 140.2H257.04V138.1H263.46V136.28H258.76V134.22H263.46V132.06H265.82V134.22H270.16V135.2C270.92 134.38 271.6 133.54 272.22 132.66L274.26 133.7C273.12 135.28 271.78 136.76 270.32 138.1H274.96V140.2ZM284.52 144.48H281.42C282 145.2 282.62 145.76 283.36 146.22C283.94 145.68 284.28 145.12 284.52 144.48ZM281.22 141.24V142.54H284.88C284.9 142.32 284.9 142.1 284.9 141.88V141.24H281.22ZM281.22 138.18V139.46H284.9V138.18H281.22ZM291.16 138.18H287.4V139.46H291.16V138.18ZM291.16 142.54V141.24H287.4V141.9C287.4 142.1 287.4 142.32 287.38 142.54H291.16ZM293.52 144.48H287.1C286.84 145.48 286.38 146.44 285.64 147.26C288.24 148.12 291.52 148.2 295.58 148.18C295.14 148.72 294.7 149.72 294.56 150.54C290.22 150.44 286.54 150.14 283.68 148.88C282.34 149.64 280.58 150.3 278.26 150.76C277.98 150.2 277.34 149.2 276.82 148.64C278.74 148.34 280.2 147.94 281.34 147.46C280.56 146.86 279.88 146.1 279.28 145.22L281.1 144.48H278.98V136.26H284.9V135.08H277.24V132.96H294.76V135.08H287.4V136.26H293.52V144.48ZM302.26 138.22H300.54C300.22 139.74 299.9 141.22 299.58 142.62C300.06 142.92 300.56 143.26 301.06 143.62C301.64 142.06 302.02 140.26 302.26 138.22ZM303.2 135.98L304.64 136.2C304.42 139.84 303.88 142.74 302.96 145.04C303.84 145.76 304.62 146.48 305.12 147.12L303.68 149.04C303.26 148.48 302.64 147.82 301.92 147.14C300.96 148.7 299.76 149.88 298.28 150.8C297.96 150.2 297.34 149.36 296.86 148.92C298.2 148.22 299.28 147.1 300.12 145.64C299.76 145.36 299.4 145.08 299.04 144.82L298.88 145.44L296.92 144.42C297.38 142.78 297.88 140.54 298.36 138.22H296.8V136.04H298.78C299.04 134.66 299.28 133.3 299.46 132.08L301.7 132.28C301.5 133.46 301.26 134.74 301 136.04H302.8L303.2 135.98ZM315.36 139.98V142.22H310.96V148.08C310.96 149.28 310.74 149.92 309.96 150.28C309.16 150.66 308.08 150.74 306.62 150.72C306.5 150.06 306.1 149.04 305.76 148.38C306.78 148.42 307.84 148.44 308.16 148.42C308.5 148.42 308.6 148.34 308.6 148.06V142.22H304.38V139.98H308.6V137.66H309.34C310 136.98 310.7 136.1 311.26 135.26H305.04V133.06H312.86L313.34 132.94L314.9 134.1C313.84 135.66 312.36 137.52 310.96 138.84V139.98H315.36ZM319.68 146.58H322.86V142.66H319.68V146.58ZM322.86 140.6V137.36H319.68V140.6H322.86ZM329.22 135.14H334.84C334.84 135.14 334.84 135.94 334.82 136.22C334.56 145.16 334.34 148.34 333.52 149.4C332.96 150.14 332.4 150.36 331.6 150.5C330.84 150.6 329.64 150.58 328.46 150.54C328.42 149.88 328.1 148.88 327.68 148.22C328.96 148.34 330.14 148.34 330.66 148.34C331.06 148.34 331.28 148.26 331.54 148C332.12 147.36 332.38 144.36 332.6 137.3H328.32C327.8 138.5 327.18 139.6 326.56 140.46C326.24 140.16 325.56 139.7 325.02 139.34V148.68H319.68V150.14H317.52V135.28H319.78C320.04 134.28 320.28 133 320.36 132.06L322.96 132.42C322.62 133.42 322.26 134.42 321.92 135.28H325.02V138.52C326.18 136.84 327.14 134.42 327.72 132.08L330 132.6C329.78 133.46 329.52 134.3 329.22 135.14ZM331.52 144.26L329.5 145.5C328.94 144.3 327.7 142.34 326.72 140.88L328.58 139.82C329.58 141.2 330.9 143.1 331.52 144.26ZM345.22 141.5H347.68V141.24V139.52H345.22V141.5ZM352.52 139.52H350.04V141.26V141.5H352.52V139.52ZM354.8 143.42H349.92C349.76 144.66 349.42 145.84 348.82 146.9C350.66 147.78 352.96 148.34 355.66 148.58C355.16 149.1 354.54 150.08 354.24 150.7C351.54 150.36 349.26 149.66 347.4 148.6C346.44 149.48 345.08 150.22 343.3 150.74C343 150.22 342.3 149.26 341.82 148.76C343.42 148.4 344.6 147.88 345.46 147.22C344.48 146.4 343.68 145.38 343 144.24L344.94 143.64C345.42 144.42 346.06 145.1 346.8 145.7C347.2 144.98 347.42 144.24 347.54 143.42H343.08V137.58H347.68V136.18H342.66V134.34C342.3 135.12 341.9 135.88 341.46 136.64V150.78H339.2V140.04C338.66 140.72 338.12 141.36 337.56 141.92C337.34 141.34 336.7 140.06 336.3 139.48C338.2 137.68 340.06 134.86 341.14 132.02L343.34 132.74C343.16 133.16 342.98 133.58 342.8 134.02H347.68V132.2H350.04V134.02H355.34V136.18H350.04V137.58H354.8V143.42ZM367.4 142.66H371.62V140.2H367.4V142.66ZM361.18 142.66H365V140.2H361.24V140.56C361.24 141.2 361.22 141.92 361.18 142.66ZM365 135.66H361.24V137.98H365V135.66ZM371.62 137.98V135.66H367.4V137.98H371.62ZM373.98 133.4V147.92C373.98 149.2 373.7 149.84 372.9 150.2C372.08 150.6 370.86 150.64 369.06 150.62C368.98 149.98 368.6 148.96 368.3 148.34C369.42 148.4 370.74 148.38 371.1 148.38C371.48 148.38 371.62 148.26 371.62 147.9V144.9H367.4V150.48H365V144.9H360.92C360.56 147.08 359.84 149.28 358.4 150.84C358.02 150.4 357.06 149.58 356.52 149.3C358.7 146.9 358.88 143.34 358.88 140.54V133.4H373.98ZM392.94 136.1V135.24H392.06V136.1H392.94ZM392.94 138.42V137.54H392.06V138.42H392.94ZM387.78 137.54V138.42H388.64V137.54H387.78ZM387.78 135.24V136.1H388.64V135.24H387.78ZM390.78 137.54H389.92V138.42H390.78V137.54ZM389.92 136.1H390.78V135.24H389.92V136.1ZM394.78 133.74V139.94H386.04V133.74H388.26V132.08H389.92V133.74H390.78V132.08H392.46V133.74H394.78ZM383.86 140.78V139.98H378.72V140.78H383.86ZM380.2 145.74H382.34V144.82H380.2V145.74ZM382.34 143.26V142.38H380.2V143.26H382.34ZM379.86 134.36V138.36H380.56V135.18H382.66V134.36H379.86ZM381.82 138.36H382.66V136.52H381.82V138.36ZM385.62 141.48H384.36V148.74C384.36 149.6 384.24 150.1 383.7 150.4C383.18 150.72 382.5 150.74 381.56 150.74C381.48 150.2 381.24 149.44 381.02 148.94C381.48 148.96 381.94 148.96 382.12 148.96C382.3 148.94 382.34 148.88 382.34 148.72V147.34H380.2V150.74H378.2V141.48H377.02V138.36H378.16V132.68H384.44V138.36H385.64V140.62H395.16V142.2H385.62V141.48ZM391.8 146.74H388.74C389.14 147.38 389.5 148.22 389.64 148.82H391C391.28 148.2 391.62 147.38 391.8 146.74ZM388.24 144.24V145.34H392.5V144.24H388.24ZM392.78 148.82H395.38V150.5H385.2V148.82H387.76C387.58 148.28 387.32 147.66 387.02 147.18L388.24 146.74H386.32V142.84H394.5V146.74H392.62L393.82 147.02C393.46 147.66 393.1 148.28 392.78 148.82ZM407.74 136.8H411.96C411.1 135.98 410.32 135.04 409.8 134.18C409.32 135.04 408.6 135.96 407.74 136.8ZM407.26 138.54V137.24C406.62 137.82 405.92 138.32 405.22 138.72C405.02 138.1 404.56 137.24 404.16 136.74C406.04 135.76 407.82 133.78 408.68 132.08H410.8C411.98 133.98 413.78 135.74 415.6 136.56C415.18 137.14 414.72 138 414.4 138.66C413.78 138.3 413.14 137.84 412.52 137.32V138.54H407.26ZM411.8 140.9V142.8H413.06V140.9H411.8ZM410.26 144.3V139.42H414.72V144.3H410.26ZM406.8 140.9V142.8H407.92V140.9H406.8ZM405.24 144.3V139.42H409.54V144.3H405.24ZM397.64 149.64L396.44 149.02C397.1 147.96 397.28 146.26 397.34 144.54L398.62 144.78C398.54 146.62 398.38 148.48 397.64 149.64ZM398.82 144.96L399.82 144.84C400 146.02 400.04 147.54 400 148.52L398.92 148.64C399 147.64 398.96 146.14 398.82 144.96ZM400.04 144.82L401.02 144.64C401.3 145.68 401.56 147 401.6 147.88L400.6 148.06C400.56 147.2 400.34 145.86 400.04 144.82ZM399.32 140.58V141.86H400.56V140.58H399.32ZM400.56 134.64H399.32V135.88H400.56V134.64ZM400.56 138.84V137.62H399.32V138.84H400.56ZM411.5 144.62L413.48 144.74C413.4 145.5 413.28 146.22 413.1 146.86C413.94 147.72 414.96 148.84 415.44 149.58L413.94 150.74C413.6 150.2 413 149.44 412.38 148.7C411.92 149.54 411.34 150.22 410.56 150.78C410.34 150.46 409.72 149.88 409.28 149.52L408.72 150.12C408.46 149.7 408 149.12 407.5 148.54C407.04 149.46 406.42 150.2 405.6 150.8C405.34 150.44 404.66 149.76 404.22 149.46C404.14 149.72 404.06 149.92 403.96 150.04C403.64 150.48 403.3 150.66 402.82 150.72C402.44 150.8 401.78 150.8 401.12 150.8C401.08 150.24 400.92 149.5 400.66 149.02C401.16 149.08 401.58 149.08 401.84 149.08C402.06 149.08 402.2 149.04 402.34 148.84C402.48 148.64 402.56 148.12 402.64 147.02L402.1 147.22C401.98 146.52 401.64 145.46 401.26 144.64L402.14 144.36C402.34 144.76 402.54 145.24 402.7 145.7C402.74 145.12 402.76 144.44 402.78 143.66H397.46V132.78H404.44V134.64H402.36V135.88H404.08V137.62H402.36V138.84H404.14V140.58H402.36V141.86H404.66C404.66 141.86 404.66 142.36 404.64 142.62C404.54 146.46 404.46 148.46 404.22 149.42C405.74 148.42 406.38 146.78 406.56 144.64L408.52 144.76C408.44 145.46 408.34 146.1 408.18 146.72C408.84 147.38 409.56 148.16 409.96 148.72C410.92 147.72 411.34 146.32 411.5 144.62ZM424.48 143.86C424.06 140.72 428.3 140 428.3 138.06C428.3 136.86 427.34 136.18 425.78 136.18C424.54 136.18 423.56 136.72 422.58 137.76L420.94 136.24C422.2 134.76 423.96 133.8 426.1 133.8C429 133.8 431.12 135.14 431.12 137.8C431.12 140.74 426.76 141.08 427.06 143.86H424.48ZM425.78 149.18C424.76 149.18 424.02 148.46 424.02 147.42C424.02 146.36 424.78 145.64 425.78 145.64C426.8 145.64 427.54 146.36 427.54 147.42C427.54 148.46 426.8 149.18 425.78 149.18Z" fill="white"/>
</svg>
