<svg width="840" height="243" viewBox="0 0 840 243" fill="none" xmlns="http://www.w3.org/2000/svg">
<mask id="mask0_1_11413" style="mask-type:alpha" maskUnits="userSpaceOnUse" x="0" y="0" width="840" height="243">
<rect width="840" height="243" fill="#0C1C24"/>
</mask>
<g mask="url(#mask0_1_11413)">
<circle cx="867" cy="120" r="115" fill="#0C1C24"/>
<circle cx="-28" cy="120" r="115" fill="#0C1C24"/>
<path fill-rule="evenodd" clip-rule="evenodd" d="M342.595 205.05C328.634 192.338 294.366 192.338 280.405 205.05C259.974 223.657 232.811 235 203 235C139.487 235 88 183.513 88 120C88 56.4873 139.487 5 203 5C232.811 5 259.974 16.3434 280.405 34.9495C294.366 47.6622 328.634 47.6622 342.595 34.9495C363.026 16.3434 390.189 5 420 5C450.094 5 477.489 16.5598 497.985 35.4812C511.669 48.1134 544.331 48.1134 558.015 35.4812C578.511 16.5598 605.906 5 636 5C699.513 5 751 56.4873 751 120C751 183.513 699.513 235 636 235C605.906 235 578.511 223.44 558.015 204.519C544.331 191.887 511.669 191.887 497.985 204.519C477.489 223.44 450.094 235 420 235C390.189 235 363.026 223.657 342.595 205.05Z" fill="#CD9453"/>
<path d="M129.355 128.68L126.883 127.432C127.651 125.56 128.731 122.56 129.523 119.776L131.755 121.096C131.059 123.616 130.171 126.4 129.355 128.68ZM131.779 115.504L130.099 117.688C129.427 116.944 127.867 115.888 126.667 115.24L128.227 113.248C129.451 113.824 131.011 114.76 131.779 115.504ZM135.523 125.896L133.843 126.496C133.747 125.872 133.435 124.936 133.099 124.216L134.707 123.736C135.067 124.408 135.427 125.344 135.523 125.896ZM135.619 119.128H139.411C138.715 118.528 137.971 117.928 137.275 117.448C136.795 117.976 136.243 118.552 135.619 119.128ZM134.251 112.696L135.619 112.288C135.427 111.808 135.211 111.328 134.995 110.896L136.459 110.272C136.795 110.872 137.107 111.592 137.347 112.264C137.563 111.472 137.683 110.584 137.755 109.552H136.939V108.328C136.027 108.928 135.067 109.456 134.251 109.864V112.696ZM140.371 109.552H139.507C139.411 111.256 139.171 112.696 138.643 113.872C139.099 113.92 139.363 113.92 139.579 113.92C139.795 113.944 139.939 113.896 140.059 113.704C140.251 113.416 140.299 112.384 140.371 109.552ZM139.435 123.736H138.211V126.232L139.771 126.088L138.715 125.776C138.979 125.176 139.291 124.312 139.435 123.736ZM140.131 120.904H138.211V121.816H141.547V123.736H139.771L141.331 124.096C140.971 124.84 140.587 125.512 140.275 126.04L141.859 125.896L141.907 127.792C138.499 128.176 134.899 128.584 132.259 128.848L131.923 126.784C133.051 126.688 134.467 126.568 136.003 126.424V123.736H132.595V121.816H136.003V120.904H134.179V120.304C133.771 120.616 133.315 120.928 132.835 121.216C132.499 120.712 131.779 119.944 131.251 119.584C133.339 118.48 134.875 116.944 135.763 115.6C135.595 115.384 135.379 115.168 135.211 115.048C135.595 114.832 135.931 114.568 136.219 114.28C136.195 114.184 136.171 114.064 136.147 113.92C134.707 114.496 133.339 115.072 132.091 115.6L131.395 113.488C131.635 113.44 131.875 113.368 132.139 113.296V109.624L130.603 111.544C129.931 110.752 128.419 109.648 127.243 108.928L128.851 106.984C129.955 107.584 131.371 108.496 132.139 109.24V107.584L133.723 108.088C134.443 107.608 135.211 107.056 135.715 106.624L136.939 107.8V107.608H142.411C142.411 107.608 142.411 108.16 142.387 108.448C142.339 112.792 142.219 114.568 141.811 115.12C141.523 115.552 141.187 115.744 140.683 115.816C140.323 115.888 139.723 115.912 139.123 115.888C139.099 115.264 138.907 114.4 138.643 113.872C138.355 114.496 137.971 115.048 137.491 115.528H137.947C139.483 116.464 141.451 117.928 142.459 118.984L141.043 120.76C140.803 120.472 140.491 120.136 140.131 119.8V120.904ZM145.003 109.816V123.4H142.771V109.816H145.003ZM146.275 106.888H148.603V126.04C148.603 127.432 148.339 128.104 147.547 128.536C146.755 128.968 145.483 129.04 143.755 129.04C143.659 128.344 143.323 127.216 142.987 126.496C144.211 126.544 145.387 126.544 145.771 126.52C146.155 126.52 146.275 126.424 146.275 126.04V106.888ZM154.411 113.752V114.736H156.115V113.752H154.411ZM156.115 109.024H154.411V109.84H156.115V109.024ZM158.923 112.264V111.352H154.411V112.264H158.923ZM161.995 114.736V116.344H151.987V107.392H161.803V109.024H158.347V109.84H161.299V110.368C162.715 109.288 163.579 107.92 164.035 106.696L166.483 107.08C166.387 107.344 166.267 107.632 166.147 107.896H172.771V109.672H165.187C165.043 109.912 164.875 110.128 164.707 110.344H171.691V111.904H164.299V110.848C163.939 111.256 163.507 111.664 163.051 112.048C162.643 111.568 161.875 110.896 161.299 110.536V113.752H158.347V114.736H161.995ZM164.779 113.848V115.072H165.691V113.848H164.779ZM167.083 113.848V115.072H168.067V113.848H167.083ZM169.459 113.848V115.072H170.419V113.848H169.459ZM162.883 116.368V112.552H172.411V116.368H162.883ZM157.171 122.824V123.616H166.819V122.824H157.171ZM157.171 120.664V121.432H166.819V120.664H157.171ZM157.171 118.504V119.272H166.819V118.504H157.171ZM166.963 126.688H169.867C170.611 126.688 170.779 126.424 170.875 124.888C171.427 125.248 172.531 125.608 173.227 125.704C172.939 128.176 172.243 128.824 170.155 128.824H166.603C163.747 128.824 163.051 128.176 163.051 126.04V125.08H160.411C159.667 127.408 157.795 128.536 152.011 129.088C151.843 128.44 151.267 127.456 150.787 126.904C155.371 126.688 156.859 126.208 157.507 125.08H154.459V117.04H169.627V125.08H165.811V126.016C165.811 126.616 166.003 126.688 166.963 126.688ZM183.835 109.864L177.451 127H174.211L180.595 109.864H183.835ZM195.549 112.6V106.936H198.165V117.376C198.165 122.176 197.541 126.376 192.813 128.992C192.381 128.392 191.397 127.432 190.797 127C193.629 125.488 194.805 123.472 195.261 121.096C194.325 121.864 193.341 122.632 192.477 123.304L191.013 120.904C192.141 120.232 193.845 119.104 195.501 117.976L195.549 118.072V117.352V114.904L194.133 115.768C193.749 114.568 192.885 112.744 192.045 111.304V113.848H190.053V116.944L191.877 116.272L192.405 118.792C191.637 119.104 190.845 119.392 190.053 119.68V126.064C190.053 127.384 189.813 128.104 189.093 128.56C188.373 129.016 187.341 129.112 185.781 129.088C185.709 128.392 185.397 127.216 185.061 126.448C185.925 126.496 186.741 126.496 187.029 126.472C187.317 126.472 187.437 126.376 187.437 126.064V120.688L185.253 121.504L184.533 118.816C185.349 118.552 186.333 118.216 187.437 117.856V113.848H184.845V111.208H187.437V106.696H190.053V111.208H191.997L191.781 110.848L193.893 109.696C194.469 110.56 195.045 111.64 195.549 112.6ZM202.965 126.304H204.309C204.789 126.304 204.885 125.608 204.957 123.184C205.581 123.664 206.613 124.144 207.357 124.312C207.093 127.576 206.421 128.848 204.549 128.848H202.461C200.301 128.848 199.701 128.008 199.701 125.008V106.936H202.389V113.944C203.109 112.552 203.901 110.776 204.333 109.408L206.877 110.704C205.893 112.48 204.813 114.496 203.925 115.768L202.389 114.904V117.592L203.085 116.92C204.645 118.216 206.493 119.992 207.381 121.144L205.557 123.16C204.885 122.2 203.637 120.808 202.389 119.584V125.032C202.389 126.136 202.461 126.304 202.965 126.304ZM227.517 110.2V109.192H222.861V107.392H229.941V112.024H225.645V112.504C225.645 113.032 225.765 113.128 226.365 113.128H228.309C228.789 113.128 228.885 112.984 228.981 112.168C229.413 112.48 230.349 112.768 230.973 112.888C230.733 114.544 230.109 115 228.597 115H226.029C223.869 115 223.317 114.448 223.317 112.528V110.2H227.517ZM219.645 110.2V109.192H215.109V107.392H222.045V112.024H217.797V112.528C217.797 113.032 217.893 113.128 218.517 113.128H220.365C220.845 113.128 220.941 112.984 221.037 112.192C221.445 112.504 222.357 112.792 223.005 112.912C222.765 114.544 222.117 115 220.677 115H218.157C216.045 115 215.445 114.448 215.445 112.528V110.2H219.645ZM214.365 111.184L211.941 112.768C211.413 111.592 209.973 109.864 208.749 108.664L211.005 107.224C212.253 108.376 213.765 109.984 214.365 111.184ZM221.349 118.528V120.112H224.133V118.528H221.349ZM219.981 122.224L222.069 122.944C220.869 124.072 218.853 125.176 217.221 125.848C217.821 125.992 218.469 126.064 219.189 126.088C222.141 126.232 228.021 126.16 231.381 125.872C231.069 126.52 230.661 127.768 230.541 128.536C227.493 128.704 222.189 128.752 219.189 128.608C216.309 128.488 214.341 127.792 212.901 125.92C211.989 126.88 211.053 127.816 209.901 128.848L208.557 126.136C209.421 125.512 210.477 124.72 211.389 123.904V118.6H208.917V115.984H214.029V123.664C214.677 124.792 215.733 125.488 217.125 125.824C216.645 125.344 215.685 124.528 215.109 124.144C216.669 123.664 218.349 122.992 219.357 122.224H214.797V120.112H218.709V118.528H215.493V116.44H218.709V115.168H221.349V116.44H224.133V115.168H226.845V116.44H230.133V118.528H226.845V120.112H230.877V122.224H226.197C227.853 123.016 229.749 124.048 230.829 124.816L227.925 125.872C227.013 125.128 225.333 124.024 223.749 123.256L225.573 122.224H219.981ZM244.893 120.808H240.981C240.525 121.504 240.021 122.128 239.517 122.632C239.037 122.2 238.029 121.48 237.429 121.12C238.653 120.064 239.685 118.432 240.261 116.728L242.757 117.328C242.613 117.736 242.445 118.168 242.253 118.576H244.893V116.992H247.701V118.576H253.509V120.808H247.701V122.344H252.789V124.504H247.701V126.328H254.685V128.632H237.837V126.328H244.893V124.504H239.877V122.344H244.893V120.808ZM240.501 114.424H248.229C247.197 114.064 246.021 113.68 244.749 113.296C243.381 113.728 241.917 114.112 240.501 114.424ZM247.101 110.536H241.293C242.421 110.8 243.597 111.112 244.773 111.424C245.613 111.16 246.405 110.848 247.101 110.536ZM254.877 114.424V116.728H237.429V118.456C237.429 121.624 236.997 126.352 234.765 129.376C234.309 128.848 233.133 127.912 232.533 127.576C234.453 124.888 234.645 121.096 234.645 118.432V114.424H237.645C237.405 113.992 237.093 113.512 236.877 113.224C238.317 113.008 239.901 112.72 241.461 112.36C240.189 112.024 238.941 111.712 237.765 111.448L238.989 110.536H234.477V108.304H242.469V106.696H245.325V108.304H253.725V110.536H249.837L250.365 110.824C249.573 111.328 248.637 111.808 247.605 112.24C248.949 112.648 250.173 113.056 251.181 113.416L249.981 114.424H254.877ZM272.157 113.584V110.344H263.757V113.584H272.157ZM275.061 107.608V116.296H260.997V107.608H275.061ZM263.973 121.024H260.397V125.152H263.973V121.024ZM257.709 129.088V118.288H266.829V128.968H263.973V127.888H260.397V129.088H257.709ZM271.605 125.152H275.421V121.024H271.605V125.152ZM268.869 118.288H278.301V128.992H275.421V127.888H271.605V129.088H268.869V118.288ZM157.616 145.6L156.224 146.824C155.936 146.536 155.552 146.2 155.096 145.84C154.448 146.296 153.8 146.704 153.176 147.04C152.864 146.704 152.12 146.056 151.664 145.744C152.312 145.48 152.936 145.168 153.536 144.784C153.104 144.52 152.672 144.28 152.264 144.064L153.584 142.96C154.016 143.176 154.496 143.44 154.976 143.728C155.288 143.44 155.576 143.128 155.816 142.816L157.664 143.368C157.328 143.824 156.92 144.28 156.464 144.688C156.92 145.024 157.328 145.336 157.616 145.6ZM159.608 154.216L161.192 155.656C159.992 156.616 158.504 157.6 157.04 158.44H165.464V160.672H156.392V162.424C156.392 163.744 156.128 164.344 155.12 164.704C154.16 165.088 152.84 165.088 151.04 165.088C150.896 164.344 150.488 163.36 150.128 162.688C151.304 162.736 152.72 162.736 153.104 162.736C153.488 162.712 153.608 162.64 153.608 162.328V160.672H144.56V158.44H153.608V157.336H155.024C155.528 157.048 156.056 156.712 156.536 156.352H148.808V154.36H159.008L159.608 154.216ZM163.688 151.264H165.512V156.184H162.68V153.328H147.272V156.184H144.56V151.264H146.408L145.952 143.728L147.512 144.04C148.64 143.68 149.936 143.152 150.776 142.792L152.096 144.328C151.088 144.808 149.816 145.216 148.712 145.504L148.736 146.056H151.904V147.832H148.832L148.88 148.648H151.976V149.824C152.552 149.536 153.104 149.224 153.632 148.888C153.2 148.624 152.744 148.36 152.336 148.12L153.656 147.04C154.088 147.256 154.568 147.52 155.048 147.808C155.384 147.496 155.696 147.16 155.936 146.824L157.784 147.376C157.448 147.856 157.04 148.336 156.56 148.768C157.064 149.128 157.52 149.488 157.856 149.8L156.416 151C156.128 150.688 155.696 150.328 155.192 149.944C154.52 150.448 153.824 150.88 153.176 151.24C152.912 150.976 152.408 150.52 151.976 150.208V150.424H148.976L149.024 151.264H161L161.072 150.424H158.216V148.648H161.24L161.288 147.832H158.288V146.056H161.408L161.456 145.24H158.192V143.44H164.24C164.12 145.984 163.928 149.032 163.688 151.264ZM174.128 149.104L174.56 151.144C172.64 151.984 170.6 152.824 168.896 153.52L167.912 151.192C169.472 150.712 171.824 149.896 174.128 149.104ZM184.232 158.584V157.192H173.96V158.584H184.232ZM173.96 162.112H184.232V160.72H173.96V162.112ZM177.968 152.92L180.536 153.28C180.248 153.904 179.912 154.504 179.6 155.032H187.208V165.136H184.232V164.272H173.96V165.136H171.128V155.032H176.768C176.96 154.576 177.128 154.072 177.272 153.64L177.2 153.664C176.456 153.976 175.4 153.976 173.936 153.976C173.84 153.352 173.504 152.512 173.216 151.96C174.032 151.984 174.968 151.984 175.232 151.984C175.496 151.984 175.592 151.888 175.592 151.648V145.936H170.96C171.92 146.464 173.048 147.184 173.624 147.736L172.184 149.56C171.584 148.888 170.24 147.952 169.16 147.376L170.36 145.936H168.536V143.728H178.16V151.672C178.16 152.2 178.112 152.608 177.968 152.92ZM189.008 143.728V151.6C189.008 152.752 188.768 153.328 187.952 153.688C187.16 154.048 186.008 154.072 184.448 154.048C184.328 153.376 183.992 152.488 183.68 151.888C184.592 151.936 185.648 151.936 185.936 151.936C186.248 151.912 186.344 151.84 186.344 151.576V145.936H181.76C182.744 146.44 183.848 147.136 184.424 147.64L183.128 149.368C183.848 149.104 184.592 148.864 185.336 148.6L185.768 150.64C183.704 151.432 181.496 152.248 179.72 152.896L178.76 150.76C179.864 150.424 181.328 149.968 182.888 149.44C182.216 148.768 180.896 147.904 179.864 147.352L181.016 145.936H179.456V143.728H189.008ZM209.84 150.328L212.696 151.024C211.712 154.144 210.296 156.928 208.568 159.256C209.264 160.984 210.032 161.992 210.8 161.992C211.376 161.992 211.664 160.792 211.784 157.792C212.432 158.464 213.44 159.088 214.208 159.4C213.752 163.84 212.792 164.896 210.56 164.896C208.88 164.896 207.56 163.696 206.504 161.728C205.28 163 203.936 164.08 202.448 164.992C202.016 164.368 200.984 163.192 200.384 162.64C202.232 161.632 203.888 160.312 205.28 158.752C204.464 156.04 203.936 152.68 203.624 149.08H196.664V151.648H202.592C202.592 151.648 202.568 152.392 202.568 152.728C202.496 157.768 202.352 159.904 201.8 160.6C201.344 161.224 200.864 161.44 200.144 161.56C199.52 161.656 198.488 161.656 197.384 161.632C197.336 160.792 197.024 159.688 196.592 158.968C197.456 159.04 198.272 159.064 198.656 159.064C198.992 159.064 199.184 159.016 199.376 158.776C199.616 158.44 199.712 157.288 199.784 154.264H196.664C196.568 157.768 196.064 162.448 194.096 165.376C193.592 164.824 192.32 163.768 191.672 163.432C193.496 160.552 193.664 156.376 193.664 153.256V146.248H203.456C203.408 145.072 203.36 143.896 203.36 142.696H206.36C206.336 143.896 206.36 145.072 206.408 146.248H210.08C209.192 145.528 207.992 144.76 207.008 144.16L208.736 142.456C210.056 143.128 211.808 144.232 212.648 145.024L211.496 146.248H213.992V149.08H206.576C206.792 151.48 207.128 153.736 207.536 155.656C208.472 154.048 209.264 152.272 209.84 150.328ZM228.488 158.128H232.304C230.864 156.592 229.568 154.792 228.488 152.848V158.128ZM221.72 158.128H225.488V152.896C224.408 154.816 223.136 156.592 221.72 158.128ZM237.584 150.208H230.216C232.088 153.808 235.16 157.12 238.592 158.92C237.872 159.496 236.888 160.696 236.384 161.512C234.992 160.648 233.672 159.568 232.472 158.296V161.032H228.488V165.088H225.488V161.032H221.36V158.512C220.208 159.712 218.936 160.744 217.616 161.584C217.112 160.864 216.2 159.76 215.528 159.208C218.912 157.36 221.936 153.904 223.784 150.208H216.464V147.328H225.488V142.696H228.488V147.328H237.584V150.208ZM253.04 161.2V159.64H248.888V161.2H253.04ZM260.72 154.288V162.064C260.72 163.384 260.456 164.152 259.52 164.584C258.632 165.016 257.36 165.04 255.632 165.04C255.56 164.488 255.344 163.744 255.08 163.12H248.888V164.2H246.392V157.744H255.56V162.4C256.376 162.424 257.12 162.424 257.384 162.4C257.744 162.376 257.84 162.304 257.84 162.016V156.664H244.256V165.088H241.472V154.288H260.72ZM254.648 151.36V149.896H247.16V151.36H254.648ZM244.448 148H257.552V153.28H244.448V148ZM252.296 144.664H261.488V147.088H240.512V144.664H249.392V142.648H252.296V144.664Z" fill="white"/>
<path d="M186.56 81.696H191.04V79.28H186.56V81.696ZM181.008 81.696H185.344V79.28H181.008V81.696ZM185.344 75.856H181.008V78.176H185.344V75.856ZM191.04 75.856H186.56V78.176H191.04V75.856ZM186.56 74.72H192.24V83.68H191.04V82.848H186.56V87.2H185.344V82.848H181.008V83.76H179.84V74.72H185.344V72.608H186.56V74.72ZM199.6 76.24V74.208H197.216V76.24H199.6ZM199.6 79.216V77.168H197.216V79.216H199.6ZM199.6 82.24V80.16H197.216V82.24H199.6ZM200.672 73.216V83.216H196.176V73.216H200.672ZM196.96 83.552L198.032 83.792C197.664 85.104 196.976 86.384 196.256 87.232C196.064 87.056 195.616 86.752 195.36 86.592C196.096 85.84 196.656 84.704 196.96 83.552ZM198.96 83.936L199.856 83.536C200.384 84.304 200.928 85.328 201.184 86L200.24 86.448C200.016 85.776 199.456 84.704 198.96 83.936ZM206.016 83.68H208.064V82.48H206.016V83.68ZM203.008 82.48V83.68H204.96V82.48H203.008ZM204.96 80.512H203.008V81.648H204.96V80.512ZM208.064 80.512H206.016V81.648H208.064V80.512ZM204.32 76.736V77.792H206.688V76.736H204.32ZM204.32 74.896V75.856H206.688V74.896H204.32ZM210.112 83.68V84.592H209.152V85.984C209.152 86.56 209.024 86.864 208.624 87.04C208.176 87.2 207.456 87.2 206.304 87.2C206.256 86.928 206.112 86.512 205.968 86.24C206.8 86.256 207.568 86.256 207.792 86.256C207.984 86.24 208.064 86.192 208.064 85.984V84.592H203.008V87.232H201.936V84.592H200.896V83.68H201.936V79.616H204.96V78.688H200.96V77.792H203.264V76.736H201.744V75.856H203.264V74.896H201.328V74H203.264V72.624H204.32V74H206.688V72.624H207.76V74H209.712V74.896H207.76V75.856H209.456V76.736H207.76V77.792H210.048V78.688H206.016V79.616H209.152V83.68H210.112ZM214.64 82.768H218.176V81.168H214.64V82.768ZM218.176 78.672H214.64V80.24H218.176V78.672ZM219.328 77.648V85.856C219.328 86.464 219.184 86.768 218.752 86.96C218.304 87.152 217.616 87.152 216.528 87.152C216.464 86.848 216.304 86.4 216.144 86.112C216.944 86.144 217.664 86.144 217.872 86.128C218.112 86.112 218.176 86.048 218.176 85.84V83.712H214.64V87.152H213.504V77.648H219.328ZM224.48 85.728V77.328H225.648V85.728C225.648 86.448 225.488 86.768 225.008 86.96C224.496 87.152 223.696 87.184 222.48 87.168C222.416 86.848 222.224 86.352 222.048 86.032C223.024 86.064 223.888 86.064 224.128 86.048C224.4 86.032 224.48 85.968 224.48 85.728ZM222.368 77.808V84.304H221.264V77.808H222.368ZM222.976 75.136H226.704V76.224H212.512V75.136H216.432C216.144 74.512 215.52 73.648 214.976 73.008L216.064 72.592C216.688 73.264 217.36 74.208 217.664 74.832L216.88 75.136H221.648C222.192 74.368 222.8 73.312 223.152 72.544L224.4 72.96C223.968 73.696 223.44 74.48 222.976 75.136Z" fill="white"/>
<path d="M369.216 125.584H377.064C379.536 125.584 379.92 124.96 380.28 121.48C381.024 121.936 382.32 122.416 383.16 122.584C382.608 127.096 381.552 128.416 377.184 128.416H369.24C364.608 128.416 363.192 127.504 363.192 123.88V112.696H366.144V115.96H377.04V110.848H362.232V108.016H380.016V119.896H377.04V118.768H366.144V123.88C366.144 125.368 366.576 125.584 369.216 125.584ZM390.672 112.024V109.816H388.296V112.024H390.672ZM390.672 116.392V114.16H388.296V116.392H390.672ZM390.672 120.76V118.504H388.296V120.76H390.672ZM393.168 107.56V123.04H385.872V107.56H393.168ZM387.024 123.208L389.52 123.76C388.896 125.776 387.792 127.84 386.664 129.136C386.184 128.728 385.152 128.056 384.552 127.744C385.632 126.616 386.544 124.888 387.024 123.208ZM389.832 124.048L391.944 123.16C392.736 124.36 393.624 125.968 394.008 127.024L391.8 128.104C391.464 127 390.6 125.296 389.832 124.048ZM401.568 123.232H403.44V122.032H401.568V123.232ZM397.272 122.032V123.232H399.096V122.032H397.272ZM399.096 119.176H397.272V120.28H399.096V119.176ZM403.44 119.176H401.568V120.28H403.44V119.176ZM399.096 113.32V114.256H401.544V113.32H399.096ZM399.096 110.536V111.424H401.544V110.536H399.096ZM407.136 123.232V125.224H406.032V126.496C406.032 127.696 405.792 128.296 405 128.68C404.208 129.064 403.08 129.088 401.52 129.088C401.424 128.416 401.088 127.432 400.776 126.808C401.712 126.832 402.744 126.832 403.032 126.832C403.344 126.832 403.44 126.736 403.44 126.472V125.224H397.272V129.112H394.776V125.224H393.48V123.232H394.776V117.184H399.096V116.272H393.6V114.256H396.6V113.32H394.56V111.424H396.6V110.536H394.008V108.52H396.6V106.696H399.096V108.52H401.544V106.696H404.088V108.52H406.68V110.536H404.088V111.424H406.296V113.32H404.088V114.256H407.112V116.272H401.568V117.184H406.032V123.232H407.136ZM420.936 120.808H417.024C416.568 121.504 416.064 122.128 415.56 122.632C415.08 122.2 414.072 121.48 413.472 121.12C414.696 120.064 415.728 118.432 416.304 116.728L418.8 117.328C418.656 117.736 418.488 118.168 418.296 118.576H420.936V116.992H423.744V118.576H429.552V120.808H423.744V122.344H428.832V124.504H423.744V126.328H430.728V128.632H413.88V126.328H420.936V124.504H415.92V122.344H420.936V120.808ZM416.544 114.424H424.272C423.24 114.064 422.064 113.68 420.792 113.296C419.424 113.728 417.96 114.112 416.544 114.424ZM423.144 110.536H417.336C418.464 110.8 419.64 111.112 420.816 111.424C421.656 111.16 422.448 110.848 423.144 110.536ZM430.92 114.424V116.728H413.472V118.456C413.472 121.624 413.04 126.352 410.808 129.376C410.352 128.848 409.176 127.912 408.576 127.576C410.496 124.888 410.688 121.096 410.688 118.432V114.424H413.688C413.448 113.992 413.136 113.512 412.92 113.224C414.36 113.008 415.944 112.72 417.504 112.36C416.232 112.024 414.984 111.712 413.808 111.448L415.032 110.536H410.52V108.304H418.512V106.696H421.368V108.304H429.768V110.536H425.88L426.408 110.824C425.616 111.328 424.68 111.808 423.648 112.24C424.992 112.648 426.216 113.056 427.224 113.416L426.024 114.424H430.92ZM448.2 113.584V110.344H439.8V113.584H448.2ZM451.104 107.608V116.296H437.04V107.608H451.104ZM440.016 121.024H436.44V125.152H440.016V121.024ZM433.752 129.088V118.288H442.872V128.968H440.016V127.888H436.44V129.088H433.752ZM447.648 125.152H451.464V121.024H447.648V125.152ZM444.912 118.288H454.344V128.992H451.464V127.888H447.648V129.088H444.912V118.288ZM460.416 124.096H464.232V119.392H460.416V124.096ZM464.232 116.92V113.032H460.416V116.92H464.232ZM471.864 110.368H478.608C478.608 110.368 478.608 111.328 478.584 111.664C478.272 122.392 478.008 126.208 477.024 127.48C476.352 128.368 475.68 128.632 474.72 128.8C473.808 128.92 472.368 128.896 470.952 128.848C470.904 128.056 470.52 126.856 470.016 126.064C471.552 126.208 472.968 126.208 473.592 126.208C474.072 126.208 474.336 126.112 474.648 125.8C475.344 125.032 475.656 121.432 475.92 112.96H470.784C470.16 114.4 469.416 115.72 468.672 116.752C468.288 116.392 467.472 115.84 466.824 115.408V126.616H460.416V128.368H457.824V110.536H460.536C460.848 109.336 461.136 107.8 461.232 106.672L464.352 107.104C463.944 108.304 463.512 109.504 463.104 110.536H466.824V114.424C468.216 112.408 469.368 109.504 470.064 106.696L472.8 107.32C472.536 108.352 472.224 109.36 471.864 110.368ZM474.624 121.312L472.2 122.8C471.528 121.36 470.04 119.008 468.864 117.256L471.096 115.984C472.296 117.64 473.88 119.92 474.624 121.312ZM360.731 161.008H351.227V162.352H360.731V161.008ZM358.907 154.528H351.227V155.776H358.907V154.528ZM351.227 157.816V158.92H363.563V165.112H360.731V164.464H351.227V165.112H348.491V152.464H361.739V157.816H351.227ZM366.083 144.352V146.584H362.123C362.531 147.16 362.915 147.736 363.131 148.192L360.491 148.936C360.227 148.312 359.627 147.376 359.051 146.584H357.659C357.227 147.136 356.771 147.616 356.339 148.048V149.344H365.531V154.096H362.747V151.48H347.459V154.096H344.771V149.344H353.603V147.664H354.659C354.227 147.424 353.771 147.208 353.459 147.064C353.651 146.92 353.867 146.752 354.059 146.584H351.251C351.587 147.16 351.875 147.736 352.043 148.168L349.475 148.888C349.283 148.288 348.851 147.376 348.371 146.584H347.987C347.363 147.472 346.691 148.264 346.067 148.888C345.515 148.432 344.387 147.664 343.739 147.352C345.179 146.152 346.547 144.304 347.267 142.48L349.931 143.2C349.763 143.584 349.571 143.968 349.379 144.352H354.707V145.96C355.667 144.976 356.483 143.728 356.987 142.48L359.699 143.128C359.531 143.536 359.339 143.944 359.123 144.352H366.083ZM375.659 157.6L376.139 160.288C373.499 161.224 370.619 162.136 368.315 162.88L367.667 159.976C368.507 159.76 369.491 159.496 370.595 159.184V153.544H368.171V150.928H370.595V146.704H367.955V144.04H375.875V146.704H373.307V150.928H375.467V153.544H373.307V158.344C374.099 158.104 374.891 157.864 375.659 157.6ZM379.355 150.352V152.416H381.827V150.352H379.355ZM379.355 146.104V148.12H381.827V146.104H379.355ZM386.603 148.12V146.104H384.227V148.12H386.603ZM386.603 152.416V150.352H384.227V152.416H386.603ZM384.491 161.752H390.395V164.344H374.963V161.752H381.587V159.472H376.619V156.904H381.587V154.84H376.787V143.68H389.315V154.84H384.491V156.904H389.579V159.472H384.491V161.752ZM400.835 145.864L394.451 163H391.211L397.595 145.864H400.835ZM408.709 157.72V158.944H416.845V157.72H408.709ZM408.709 154.696V155.896H416.845V154.696H408.709ZM405.877 152.8H419.845V160.84H405.877V152.8ZM402.205 145.312H423.709V147.784H402.205V145.312ZM411.421 142.624H414.277V152.128H411.421V142.624ZM410.101 146.08L412.501 146.992C410.437 150.208 407.029 152.944 403.357 154.384C402.949 153.688 402.109 152.632 401.509 152.08C404.989 150.976 408.373 148.624 410.101 146.08ZM415.477 146.056C417.229 148.552 420.733 150.808 424.309 151.864C423.685 152.392 422.845 153.496 422.437 154.216C418.741 152.848 415.261 150.136 413.149 146.944L415.477 146.056ZM402.421 161.944H423.517V164.488H402.421V161.944ZM433.741 143.416V145.576H426.901V143.416H433.741ZM434.437 146.632V148.888H425.749V146.632H434.437ZM433.813 153.256V155.392H426.829V153.256H433.813ZM431.461 158.824H429.109V161.584H431.461V158.824ZM433.837 156.568V163.816H429.109V164.752H426.757V156.568H433.837ZM440.677 152.824H438.109V154.288H440.677V152.824ZM438.109 157.864H440.677V156.328H438.109V157.864ZM439.333 146.176H447.709C447.709 146.176 447.685 147.184 447.685 147.496C447.517 158.608 447.349 162.4 446.485 163.624C445.837 164.512 445.237 164.824 444.277 164.944C443.389 165.112 441.973 165.064 440.605 165.016C440.557 164.272 440.221 163.096 439.741 162.328C441.157 162.448 442.453 162.448 443.053 162.448C443.485 162.448 443.749 162.352 444.013 162.016C444.661 161.296 444.829 157.672 444.997 148.792H438.133C437.773 149.464 437.413 150.088 437.029 150.664H443.077V160H438.109V161.104H435.733V152.368L435.613 152.512C435.229 152.128 434.461 151.48 433.813 151V152.152H426.829V149.968H433.813V149.992C435.445 148.12 436.717 145.408 437.437 142.648L440.341 143.296C440.053 144.28 439.717 145.24 439.333 146.176ZM462.517 151.912L464.293 150.424C466.861 152.272 470.557 155.032 472.285 156.928L469.861 159.112C468.373 157.336 465.109 154.6 462.517 152.608V165.04H459.397V153.328C457.213 155.656 454.645 157.744 451.765 159.232C451.309 158.464 450.421 157.288 449.797 156.64C454.165 154.6 457.909 150.88 460.141 147.208H450.565V144.28H471.373V147.208H463.909C463.501 147.952 463.021 148.696 462.517 149.416V151.912ZM480.013 149.608V151.12H490.093V149.608H480.013ZM480.013 145.984V147.472H490.093V145.984H480.013ZM481.645 154.864H494.917C494.917 154.864 494.869 155.632 494.821 155.992C494.317 161.176 493.765 163.36 492.973 164.152C492.397 164.776 491.773 164.992 491.029 165.064C490.357 165.136 489.229 165.136 488.029 165.112C488.005 164.392 487.717 163.36 487.285 162.688C488.293 162.784 489.229 162.784 489.661 162.784C490.093 162.784 490.309 162.736 490.549 162.496C491.005 162.064 491.485 160.6 491.821 157.36H489.757C488.509 160.576 486.469 163.432 484.261 165.256C483.781 164.776 482.653 163.888 482.005 163.504C484.021 162.064 485.725 159.88 486.805 157.36H484.741C482.965 160.336 480.277 162.904 477.589 164.56C477.133 163.984 476.077 162.976 475.477 162.52C477.829 161.344 480.013 159.496 481.525 157.36H479.437C478.261 158.488 476.965 159.496 475.717 160.264C475.237 159.736 474.157 158.68 473.557 158.248C475.741 157.096 477.853 155.368 479.317 153.4H477.205V143.68H492.997V153.4H482.653C482.341 153.904 482.005 154.384 481.645 154.864Z" fill="white"/>
<path d="M403.56 81.696H408.04V79.28H403.56V81.696ZM398.008 81.696H402.344V79.28H398.008V81.696ZM402.344 75.856H398.008V78.176H402.344V75.856ZM408.04 75.856H403.56V78.176H408.04V75.856ZM403.56 74.72H409.24V83.68H408.04V82.848H403.56V87.2H402.344V82.848H398.008V83.76H396.84V74.72H402.344V72.608H403.56V74.72ZM416.6 76.24V74.208H414.216V76.24H416.6ZM416.6 79.216V77.168H414.216V79.216H416.6ZM416.6 82.24V80.16H414.216V82.24H416.6ZM417.672 73.216V83.216H413.176V73.216H417.672ZM413.96 83.552L415.032 83.792C414.664 85.104 413.976 86.384 413.256 87.232C413.064 87.056 412.616 86.752 412.36 86.592C413.096 85.84 413.656 84.704 413.96 83.552ZM415.96 83.936L416.856 83.536C417.384 84.304 417.928 85.328 418.184 86L417.24 86.448C417.016 85.776 416.456 84.704 415.96 83.936ZM423.016 83.68H425.064V82.48H423.016V83.68ZM420.008 82.48V83.68H421.96V82.48H420.008ZM421.96 80.512H420.008V81.648H421.96V80.512ZM425.064 80.512H423.016V81.648H425.064V80.512ZM421.32 76.736V77.792H423.688V76.736H421.32ZM421.32 74.896V75.856H423.688V74.896H421.32ZM427.112 83.68V84.592H426.152V85.984C426.152 86.56 426.024 86.864 425.624 87.04C425.176 87.2 424.456 87.2 423.304 87.2C423.256 86.928 423.112 86.512 422.968 86.24C423.8 86.256 424.568 86.256 424.792 86.256C424.984 86.24 425.064 86.192 425.064 85.984V84.592H420.008V87.232H418.936V84.592H417.896V83.68H418.936V79.616H421.96V78.688H417.96V77.792H420.264V76.736H418.744V75.856H420.264V74.896H418.328V74H420.264V72.624H421.32V74H423.688V72.624H424.76V74H426.712V74.896H424.76V75.856H426.456V76.736H424.76V77.792H427.048V78.688H423.016V79.616H426.152V83.68H427.112ZM432.536 72.624L433.624 73.024C432.68 74.384 431.192 75.856 429.848 76.816C429.688 76.576 429.384 76.16 429.176 75.952C430.424 75.12 431.832 73.744 432.536 72.624ZM432.92 75.856L433.976 76.224C433.576 76.928 433.112 77.632 432.584 78.32V87.264H431.48V79.616C430.888 80.256 430.28 80.848 429.672 81.328C429.56 81.088 429.192 80.528 429 80.288C430.456 79.2 431.976 77.536 432.92 75.856ZM436.824 81.792L436.744 81.888C437.256 82.672 437.944 83.376 438.776 83.984C439.624 83.36 440.344 82.64 440.856 81.792H436.824ZM441.688 80.8L442.456 81.184C441.848 82.576 440.888 83.712 439.736 84.608C441 85.36 442.504 85.92 444.104 86.24C443.864 86.48 443.544 86.928 443.384 87.232C441.672 86.848 440.12 86.176 438.792 85.28C437.304 86.224 435.576 86.864 433.832 87.264C433.72 86.96 433.448 86.48 433.224 86.256C434.84 85.936 436.456 85.376 437.848 84.576C437.144 83.984 436.52 83.312 436.008 82.56C435.384 83.104 434.728 83.584 434.072 83.984C433.912 83.76 433.528 83.296 433.272 83.12C434.792 82.288 436.296 81.024 437.256 79.616C435.88 79.664 434.6 79.696 433.56 79.728L433.464 78.64L435.928 78.608C436.28 78.304 436.664 78 437.032 77.648C436.28 76.88 435.064 75.888 433.992 75.184L434.712 74.432C435.016 74.624 435.336 74.832 435.656 75.072C436.36 74.336 437.176 73.36 437.672 72.608L438.712 73.152C438.008 74 437.176 74.944 436.456 75.648C437 76.064 437.512 76.496 437.88 76.88C438.968 75.856 440.008 74.752 440.744 73.824L441.8 74.416C440.552 75.744 438.92 77.328 437.432 78.576C438.792 78.544 440.264 78.512 441.72 78.48C441.352 77.984 440.936 77.488 440.536 77.056L441.464 76.56C442.472 77.616 443.608 79.056 444.104 80.016L443.112 80.592C442.952 80.256 442.696 79.856 442.408 79.424L438.552 79.568C438.296 80.016 437.992 80.448 437.656 80.864H441.496L441.688 80.8Z" fill="white"/>
<path d="M560.376 115.576V117.064H567.504V115.576H560.376ZM572.976 120.52V125.44C572.976 126.76 572.712 127.456 571.752 127.888C570.816 128.296 569.496 128.296 567.792 128.296C567.648 127.504 567.264 126.424 566.88 125.704C567.96 125.752 569.232 125.752 569.568 125.752C569.928 125.752 570.048 125.656 570.048 125.392V123.064H565.728V129.112H562.776V123.064H558.264V128.032H555.36V120.52H562.776V119.08H557.64V113.56H570.408V119.08H565.728V120.52H572.976ZM570.72 109.936H574.368V115.72H571.512V112.408H556.488V115.72H553.752V109.936H556.992C556.632 109.24 556.128 108.448 555.648 107.848L558.24 106.792C558.936 107.584 559.68 108.64 559.992 109.36L558.696 109.936H562.512V106.648H565.464V109.936H569.232L567.888 109.456C568.488 108.736 569.208 107.632 569.616 106.84L572.688 107.752C571.992 108.592 571.32 109.336 570.72 109.936ZM589.68 119.392H594.744V116.44H589.68V119.392ZM582.216 119.392H586.8V116.44H582.288V116.872C582.288 117.64 582.264 118.504 582.216 119.392ZM586.8 110.992H582.288V113.776H586.8V110.992ZM594.744 113.776V110.992H589.68V113.776H594.744ZM597.576 108.28V125.704C597.576 127.24 597.24 128.008 596.28 128.44C595.296 128.92 593.832 128.968 591.672 128.944C591.576 128.176 591.12 126.952 590.76 126.208C592.104 126.28 593.688 126.256 594.12 126.256C594.576 126.256 594.744 126.112 594.744 125.68V122.08H589.68V128.776H586.8V122.08H581.904C581.472 124.696 580.608 127.336 578.88 129.208C578.424 128.68 577.272 127.696 576.624 127.36C579.24 124.48 579.456 120.208 579.456 116.848V108.28H597.576ZM610.272 119.704L610.632 122.416C607.464 123.352 604.008 124.312 601.368 125.032L600.672 122.08C601.656 121.864 602.856 121.6 604.128 121.264V111.952H601.008V109.264H610.032V111.952H606.96V120.568C608.064 120.28 609.168 119.992 610.272 119.704ZM616.608 111.76H622.584C622.584 111.76 622.584 112.72 622.56 113.08C622.272 122.776 622.008 126.28 621.144 127.432C620.544 128.296 619.944 128.56 619.032 128.704C618.216 128.824 616.92 128.824 615.576 128.776C615.528 127.96 615.192 126.76 614.712 125.968C615.96 126.064 617.136 126.064 617.688 126.064C618.12 126.064 618.36 125.992 618.624 125.656C619.224 125.008 619.488 121.984 619.704 114.496H616.488C616.08 120.904 614.688 125.968 609.432 129.112C609 128.368 608.112 127.336 607.416 126.808C612.072 124.168 613.296 119.992 613.608 114.496H610.368V111.76H613.728C613.752 110.296 613.752 108.712 613.752 107.08H616.656C616.656 108.688 616.632 110.272 616.608 111.76ZM643.944 117.448H640.632C637.824 117.448 637.152 116.608 637.152 113.968V106.744H639.984V110.176C641.592 109.552 643.176 108.808 644.304 108.184L646.128 110.248C644.304 111.112 642.072 111.88 639.984 112.504V113.92C639.984 114.784 640.128 114.88 641.04 114.88H643.656C644.424 114.88 644.592 114.52 644.688 112.432C645.264 112.864 646.44 113.32 647.208 113.488C646.896 116.56 646.152 117.448 643.944 117.448ZM628.848 122.416H632.448V121H628.848V122.416ZM632.448 117.64H628.848V118.888H632.448V117.64ZM635.256 115.288V126.184C635.256 127.432 635.016 128.128 634.224 128.536C633.408 128.992 632.304 129.016 630.864 129.016C630.72 128.272 630.288 127.168 629.952 126.496C630.792 126.544 631.752 126.52 632.064 126.496C632.352 126.496 632.448 126.424 632.448 126.136V124.528H628.848V129.064H626.208V115.288H635.256ZM631.656 109.168L634.056 108.28C635.232 109.984 636.504 112.264 636.96 113.824L634.344 114.88C634.248 114.496 634.104 114.064 633.912 113.608C630.744 113.824 627.48 114.016 625.032 114.16L624.792 111.448C625.368 111.448 625.992 111.424 626.664 111.4C627.336 109.888 628.008 108.04 628.416 106.576L631.392 107.176C630.84 108.568 630.192 110.008 629.592 111.28L632.784 111.136C632.424 110.464 632.04 109.792 631.656 109.168ZM641.064 126.424H643.8C644.616 126.424 644.784 125.968 644.904 123.544C645.504 123.976 646.656 124.408 647.4 124.6C647.088 127.984 646.368 128.92 644.064 128.92H640.656C637.848 128.92 637.152 128.104 637.152 125.464V117.928H639.96V121.168C641.664 120.472 643.32 119.68 644.472 118.912L646.368 121C644.52 122.008 642.144 122.872 639.96 123.544V125.464C639.96 126.304 640.128 126.424 641.064 126.424ZM653.544 108.016H661.848C661.848 112.552 662.496 121.312 671.328 126.52C670.704 127.024 669.528 128.272 669.024 129.016C664.056 126.016 661.512 121.48 660.192 117.184C658.392 122.56 655.512 126.544 651.336 129.04C650.808 128.44 649.464 127.264 648.72 126.712C653.712 124.192 656.568 119.56 657.888 113.248L659.352 113.512C659.184 112.6 659.088 111.736 659.016 110.92H653.544V108.016ZM677.592 123.712H690.312V111.928H677.592V123.712ZM674.592 109.024H693.456V128.56H690.312V126.664H677.592V128.608H674.592V109.024ZM706.248 110.008V112.432H703.776V107.656H718.872V111.784H716.328V110.008H714.528V113.512C714.528 114.088 714.6 114.184 715.056 114.184H716.28C716.688 114.184 716.784 113.944 716.856 112.36C717.336 112.744 718.416 113.128 719.112 113.296C718.848 115.816 718.2 116.464 716.568 116.464H714.6C712.392 116.464 711.912 115.768 711.912 113.56V110.008H710.616C710.4 113.92 709.464 116.152 704.64 117.328C704.448 116.68 703.776 115.72 703.296 115.216C707.256 114.4 707.808 112.936 707.976 110.008H706.248ZM703.68 109.384L701.928 111.688C701.064 110.848 699.24 109.696 697.776 109L699.432 106.912C700.848 107.512 702.744 108.568 703.68 109.384ZM702.6 115.432L701.064 117.904C700.176 117.136 698.28 116.152 696.792 115.576L698.232 113.344C699.696 113.824 701.664 114.688 702.6 115.432ZM701.352 119.512L703.56 121.216C702.432 123.76 701.136 126.568 699.864 128.896L697.344 127.216C698.496 125.368 700.104 122.344 701.352 119.512ZM718.872 121.456H714.168C715.488 123.256 717.456 124.984 719.4 125.92C718.728 126.472 717.84 127.528 717.384 128.248C715.584 127.12 713.856 125.224 712.536 123.16V128.992H709.728V123.448C708.24 125.536 706.32 127.264 704.208 128.344C703.776 127.696 702.96 126.688 702.384 126.16C704.688 125.224 706.824 123.472 708.24 121.456H703.728V118.912H709.728V116.512H712.536V118.912H718.872V121.456ZM601.56 151.912L603.336 150.424C605.904 152.272 609.6 155.032 611.328 156.928L608.904 159.112C607.416 157.336 604.152 154.6 601.56 152.608V165.04H598.44V153.328C596.256 155.656 593.688 157.744 590.808 159.232C590.352 158.464 589.464 157.288 588.84 156.64C593.208 154.6 596.952 150.88 599.184 147.208H589.608V144.28H610.416V147.208H602.952C602.544 147.952 602.064 148.696 601.56 149.416V151.912ZM619.056 149.608V151.12H629.136V149.608H619.056ZM619.056 145.984V147.472H629.136V145.984H619.056ZM620.688 154.864H633.96C633.96 154.864 633.912 155.632 633.864 155.992C633.36 161.176 632.808 163.36 632.016 164.152C631.44 164.776 630.816 164.992 630.072 165.064C629.4 165.136 628.272 165.136 627.072 165.112C627.048 164.392 626.76 163.36 626.328 162.688C627.336 162.784 628.272 162.784 628.704 162.784C629.136 162.784 629.352 162.736 629.592 162.496C630.048 162.064 630.528 160.6 630.864 157.36H628.8C627.552 160.576 625.512 163.432 623.304 165.256C622.824 164.776 621.696 163.888 621.048 163.504C623.064 162.064 624.768 159.88 625.848 157.36H623.784C622.008 160.336 619.32 162.904 616.632 164.56C616.176 163.984 615.12 162.976 614.52 162.52C616.872 161.344 619.056 159.496 620.568 157.36H618.48C617.304 158.488 616.008 159.496 614.76 160.264C614.28 159.736 613.2 158.68 612.6 158.248C614.784 157.096 616.896 155.368 618.36 153.4H616.248V143.68H632.04V153.4H621.696C621.384 153.904 621.048 154.384 620.688 154.864ZM653.688 147.136V145.552H649.32V147.136H653.688ZM656.28 143.56V149.128H646.896V143.56H656.28ZM644.16 155.248L641.976 156.04V161.92C641.976 163.168 641.784 163.864 641.088 164.296C640.416 164.728 639.504 164.824 638.136 164.824C638.088 164.104 637.776 163 637.44 162.28C638.112 162.304 638.76 162.304 638.976 162.304C639.24 162.304 639.312 162.208 639.312 161.944V156.952C638.616 157.192 637.944 157.408 637.32 157.624L636.648 154.888C637.416 154.696 638.304 154.432 639.312 154.144V149.848H636.984V147.208H639.312V142.696H641.976V147.208H643.968V149.848H641.976V153.304L643.704 152.728L644.16 155.248ZM648.84 153.664V151.888H646.848V153.664H648.84ZM654.192 151.888V153.664H656.28V151.888H654.192ZM658.968 159.376H654.144C655.488 160.648 657.48 161.776 659.424 162.4C658.848 162.88 658.032 163.888 657.624 164.56C655.944 163.84 654.24 162.64 652.92 161.224V165.136H650.208V161.296C648.576 162.832 646.536 164.032 644.4 164.752C643.992 164.104 643.224 163.072 642.648 162.544C644.976 161.944 647.28 160.768 648.84 159.376H644.424V157.072H650.208V155.608H644.736V149.968H651.072V155.512H652.008V149.968H658.56V155.608H652.92V157.072H658.968V159.376ZM666.048 142.768L668.832 143.632C668.208 145.312 667.416 147.016 666.528 148.624V165.064H663.648V153.064C663.144 153.664 662.64 154.264 662.16 154.792C661.896 154.096 661.08 152.464 660.576 151.744C662.76 149.584 664.848 146.176 666.048 142.768ZM683.256 149.296H676.44V151.816H682.656V154.408H676.44V157.12H682.968V159.76H676.44V165.088H673.512V149.296H672.6C671.64 151.072 670.536 152.704 669.456 153.952C669 153.424 667.872 152.416 667.272 151.96C669.384 149.8 671.28 146.344 672.36 142.912L675.12 143.608C674.784 144.616 674.4 145.6 673.944 146.584H683.256V149.296Z" fill="white"/>
<path d="M619.56 81.696H624.04V79.28H619.56V81.696ZM614.008 81.696H618.344V79.28H614.008V81.696ZM618.344 75.856H614.008V78.176H618.344V75.856ZM624.04 75.856H619.56V78.176H624.04V75.856ZM619.56 74.72H625.24V83.68H624.04V82.848H619.56V87.2H618.344V82.848H614.008V83.76H612.84V74.72H618.344V72.608H619.56V74.72ZM632.6 76.24V74.208H630.216V76.24H632.6ZM632.6 79.216V77.168H630.216V79.216H632.6ZM632.6 82.24V80.16H630.216V82.24H632.6ZM633.672 73.216V83.216H629.176V73.216H633.672ZM629.96 83.552L631.032 83.792C630.664 85.104 629.976 86.384 629.256 87.232C629.064 87.056 628.616 86.752 628.36 86.592C629.096 85.84 629.656 84.704 629.96 83.552ZM631.96 83.936L632.856 83.536C633.384 84.304 633.928 85.328 634.184 86L633.24 86.448C633.016 85.776 632.456 84.704 631.96 83.936ZM639.016 83.68H641.064V82.48H639.016V83.68ZM636.008 82.48V83.68H637.96V82.48H636.008ZM637.96 80.512H636.008V81.648H637.96V80.512ZM641.064 80.512H639.016V81.648H641.064V80.512ZM637.32 76.736V77.792H639.688V76.736H637.32ZM637.32 74.896V75.856H639.688V74.896H637.32ZM643.112 83.68V84.592H642.152V85.984C642.152 86.56 642.024 86.864 641.624 87.04C641.176 87.2 640.456 87.2 639.304 87.2C639.256 86.928 639.112 86.512 638.968 86.24C639.8 86.256 640.568 86.256 640.792 86.256C640.984 86.24 641.064 86.192 641.064 85.984V84.592H636.008V87.232H634.936V84.592H633.896V83.68H634.936V79.616H637.96V78.688H633.96V77.792H636.264V76.736H634.744V75.856H636.264V74.896H634.328V74H636.264V72.624H637.32V74H639.688V72.624H640.76V74H642.712V74.896H640.76V75.856H642.456V76.736H640.76V77.792H643.048V78.688H639.016V79.616H642.152V83.68H643.112ZM652.04 76.16H648.92C648.552 76.96 648.168 77.712 647.736 78.384C648.776 78.992 649.96 79.792 650.728 80.48C651.288 79.216 651.736 77.776 652.04 76.16ZM656.6 72.624V79.968C657.736 81.04 659.032 81.92 660.296 82.496C660.024 82.72 659.656 83.184 659.448 83.504C658.488 83.008 657.512 82.32 656.6 81.52V87.184H655.384V80.352C654.472 79.376 653.64 78.304 653 77.216C651.832 82.256 649.432 85.44 646.392 87.136C646.184 86.864 645.736 86.432 645.448 86.256C647.352 85.264 648.984 83.712 650.184 81.552C649.448 80.848 648.232 79.952 647.128 79.28C646.792 79.728 646.44 80.144 646.072 80.512C645.88 80.304 645.368 79.92 645.096 79.744C646.856 78.112 648.184 75.472 648.92 72.608L650.088 72.848C649.88 73.6 649.64 74.352 649.368 75.056H652.376L652.6 74.992L653.368 75.28C653.304 75.744 653.208 76.192 653.128 76.624L653.752 76.384C654.184 77.184 654.744 77.968 655.384 78.72V72.624H656.6Z" fill="white"/>
</g>
</svg>
