<svg width="840" height="243" viewBox="0 0 840 243" fill="none" xmlns="http://www.w3.org/2000/svg">
<mask id="mask0_1_11433" style="mask-type:alpha" maskUnits="userSpaceOnUse" x="0" y="0" width="840" height="243">
<rect width="840" height="243" fill="#0C1C24"/>
</mask>
<g mask="url(#mask0_1_11433)">
<circle cx="867" cy="120" r="115" fill="#EDEFED"/>
<circle cx="-28" cy="120" r="115" fill="#EDEFED"/>
<path fill-rule="evenodd" clip-rule="evenodd" d="M342.595 205.05C328.634 192.338 294.366 192.338 280.405 205.05C259.974 223.657 232.811 235 203 235C139.487 235 88 183.513 88 120C88 56.4873 139.487 5 203 5C232.811 5 259.974 16.3434 280.405 34.9495C294.366 47.6622 328.634 47.6622 342.595 34.9495C363.026 16.3434 390.189 5 420 5C450.094 5 477.489 16.5598 497.985 35.4812C511.669 48.1134 544.331 48.1134 558.015 35.4812C578.511 16.5598 605.906 5 636 5C699.513 5 751 56.4873 751 120C751 183.513 699.513 235 636 235C605.906 235 578.511 223.44 558.015 204.519C544.331 191.887 511.669 191.887 497.985 204.519C477.489 223.44 450.094 235 420 235C390.189 235 363.026 223.657 342.595 205.05Z" fill="#17B6C9"/>
<path d="M148.424 111.376H144.8C145.208 112.192 145.52 113.296 145.616 114.016L144.416 114.352H149.12L147.536 114.016C147.848 113.296 148.232 112.192 148.424 111.376ZM148.112 120.952V121.144C148.976 121.744 150.968 123.328 151.52 123.76L149.864 125.8C149.48 125.32 148.808 124.6 148.112 123.928V129.04H145.352V124.216C144.416 125.56 143.336 126.76 142.304 127.6C141.872 126.976 141.056 126.04 140.456 125.584C142.016 124.552 143.672 122.752 144.776 120.952H141.128V118.552H145.352V116.704H141.056V114.352H143.264C143.168 113.56 142.88 112.528 142.544 111.712L144.008 111.376H141.32V109.048H145.352V106.864H148.112V109.048H152.096V111.376H149.624L151.016 111.64C150.584 112.672 150.2 113.632 149.864 114.352H152.288V116.704H148.112V118.552H152.072V120.952H148.112ZM163.184 114.568V117.208H160.904V128.944H158.144V117.208H155.696C155.672 120.784 155.168 125.848 152 129.136C151.64 128.512 150.608 127.528 149.96 127.192C152.72 124.264 153.008 120.184 153.008 116.872V108.568L154.664 109.024C156.944 108.472 159.32 107.704 160.784 106.912L163.064 109C160.952 109.936 158.216 110.68 155.696 111.208V114.568H163.184ZM176.936 120.808H173.024C172.568 121.504 172.064 122.128 171.56 122.632C171.08 122.2 170.072 121.48 169.472 121.12C170.696 120.064 171.728 118.432 172.304 116.728L174.8 117.328C174.656 117.736 174.488 118.168 174.296 118.576H176.936V116.992H179.744V118.576H185.552V120.808H179.744V122.344H184.832V124.504H179.744V126.328H186.728V128.632H169.88V126.328H176.936V124.504H171.92V122.344H176.936V120.808ZM172.544 114.424H180.272C179.24 114.064 178.064 113.68 176.792 113.296C175.424 113.728 173.96 114.112 172.544 114.424ZM179.144 110.536H173.336C174.464 110.8 175.64 111.112 176.816 111.424C177.656 111.16 178.448 110.848 179.144 110.536ZM186.92 114.424V116.728H169.472V118.456C169.472 121.624 169.04 126.352 166.808 129.376C166.352 128.848 165.176 127.912 164.576 127.576C166.496 124.888 166.688 121.096 166.688 118.432V114.424H169.688C169.448 113.992 169.136 113.512 168.92 113.224C170.36 113.008 171.944 112.72 173.504 112.36C172.232 112.024 170.984 111.712 169.808 111.448L171.032 110.536H166.52V108.304H174.512V106.696H177.368V108.304H185.768V110.536H181.88L182.408 110.824C181.616 111.328 180.68 111.808 179.648 112.24C180.992 112.648 182.216 113.056 183.224 113.416L182.024 114.424H186.92ZM204.2 113.584V110.344H195.8V113.584H204.2ZM207.104 107.608V116.296H193.04V107.608H207.104ZM196.016 121.024H192.44V125.152H196.016V121.024ZM189.752 129.088V118.288H198.872V128.968H196.016V127.888H192.44V129.088H189.752ZM203.648 125.152H207.464V121.024H203.648V125.152ZM200.912 118.288H210.344V128.992H207.464V127.888H203.648V129.088H200.912V118.288ZM224.768 125.032H234.92V127.912H213.104V125.032H221.696V106.96H224.768V113.824H233.24V116.728H224.768V125.032ZM255.272 114.76V110.944H251.84V114.76H255.272ZM258.104 108.496V117.208H249.152V108.496H258.104ZM245.312 111.52H242.888C242.36 114.64 241.208 117.064 238.4 118.672C238.088 118 237.296 116.968 236.696 116.512C238.808 115.336 239.72 113.704 240.152 111.52H237.272V109.048H240.464C240.512 108.304 240.536 107.536 240.56 106.696H243.296C243.272 107.512 243.224 108.28 243.176 109.048H248.144C248.144 109.048 248.12 109.744 248.096 110.08C247.904 114.352 247.688 116.2 247.112 116.896C246.632 117.448 246.152 117.664 245.48 117.76C244.928 117.856 243.968 117.856 242.936 117.832C242.864 117.04 242.576 116.008 242.192 115.312C243.008 115.408 243.728 115.408 244.064 115.408C244.376 115.432 244.568 115.36 244.76 115.144C245.024 114.832 245.192 113.872 245.312 111.52ZM258.632 122.056H251.168C253.184 123.832 256.256 125.368 259.232 126.136C258.632 126.712 257.744 127.816 257.336 128.536C254.456 127.6 251.6 125.824 249.44 123.736V129.112H246.464V123.736C244.328 125.896 241.496 127.744 238.64 128.752C238.208 128.056 237.368 127 236.792 126.448C239.744 125.608 242.864 123.928 244.832 122.056H237.272V119.536H246.464V117.808H249.44V119.536H258.632V122.056ZM159.776 152.68L160.136 155.248C159.416 155.464 158.672 155.704 157.952 155.92V162.112C157.952 163.432 157.736 164.128 156.992 164.56C156.296 165.016 155.264 165.112 153.728 165.088C153.656 164.392 153.344 163.264 153.008 162.496C153.872 162.544 154.712 162.544 155 162.544C155.288 162.544 155.408 162.448 155.408 162.112V156.688C154.616 156.904 153.848 157.12 153.152 157.312L152.528 154.576C153.344 154.408 154.328 154.144 155.408 153.88V149.824H152.96V147.208H155.408V142.696H157.952V147.208H159.8V149.824H157.952V153.184L159.776 152.68ZM165.464 159.4V160.36H167.504V159.4H165.464ZM165.464 157.12V158.056H167.504V157.12H165.464ZM171.752 157.12H169.664V158.056H171.752V157.12ZM171.752 160.36V159.4H169.664V160.36H171.752ZM164.84 146.752H162.8V147.784H164.84V146.752ZM170.144 147.784V146.752H167.168V147.784H170.144ZM170.144 150.688V149.512H167.168V150.688H170.144ZM174.008 161.824H171.752C173.072 162.472 174.56 163.288 175.448 163.888L172.832 165.064C172.04 164.416 170.528 163.456 169.208 162.76L170.624 161.824H166.4L167.888 162.736C166.712 163.696 164.72 164.608 163.112 165.088C162.728 164.632 161.984 163.936 161.456 163.528C162.824 163.168 164.408 162.472 165.392 161.824H163.304V155.632H167.504V154.744H162.728C162.536 158.224 161.936 162.28 160.232 165.112C159.8 164.728 158.72 164.128 158.144 163.936C160.304 160.408 160.448 155.32 160.448 151.72V144.688H166.568V142.696H169.208V144.688H174.848V146.752H172.568V147.784H174.728V149.512H172.568V152.296H164.84V149.512H162.8V151.72C162.8 152.104 162.8 152.512 162.8 152.944H175.04V154.744H169.664V155.632H174.008V161.824ZM192.296 147.904H187.016C186.44 149.08 185.792 150.28 185.168 151.384C187.4 151.312 189.776 151.24 192.128 151.168C191.456 150.472 190.76 149.8 190.088 149.2L192.296 147.904ZM178.4 154.504L178.304 151.552C179.432 151.528 180.704 151.504 182.096 151.48C182.648 150.352 183.224 149.056 183.632 147.904H177.512V145.216H186.488V142.672H189.416V145.216H198.488V147.904H192.584C194.648 149.68 197.192 152.176 198.416 153.976L195.824 155.56C195.488 155.032 195.032 154.408 194.504 153.76C188.696 154.072 182.552 154.336 178.4 154.504ZM183.32 154.936H186.344C185.984 159.928 184.904 163.312 178.4 165.136C178.112 164.368 177.344 163.216 176.744 162.616C182.408 161.272 183.008 158.8 183.32 154.936ZM193.448 162.28H195.632C196.4 162.28 196.544 161.776 196.664 158.44C197.24 158.944 198.536 159.4 199.256 159.568C198.992 163.864 198.272 164.968 195.896 164.968H193.016C190.328 164.968 189.656 164.104 189.656 161.392V154.816L192.536 154.84V161.368C192.536 162.16 192.656 162.28 193.448 162.28ZM213.56 151.912L215.336 150.424C217.904 152.272 221.6 155.032 223.328 156.928L220.904 159.112C219.416 157.336 216.152 154.6 213.56 152.608V165.04H210.44V153.328C208.256 155.656 205.688 157.744 202.808 159.232C202.352 158.464 201.464 157.288 200.84 156.64C205.208 154.6 208.952 150.88 211.184 147.208H201.608V144.28H222.416V147.208H214.952C214.544 147.952 214.064 148.696 213.56 149.416V151.912ZM231.056 149.608V151.12H241.136V149.608H231.056ZM231.056 145.984V147.472H241.136V145.984H231.056ZM232.688 154.864H245.96C245.96 154.864 245.912 155.632 245.864 155.992C245.36 161.176 244.808 163.36 244.016 164.152C243.44 164.776 242.816 164.992 242.072 165.064C241.4 165.136 240.272 165.136 239.072 165.112C239.048 164.392 238.76 163.36 238.328 162.688C239.336 162.784 240.272 162.784 240.704 162.784C241.136 162.784 241.352 162.736 241.592 162.496C242.048 162.064 242.528 160.6 242.864 157.36H240.8C239.552 160.576 237.512 163.432 235.304 165.256C234.824 164.776 233.696 163.888 233.048 163.504C235.064 162.064 236.768 159.88 237.848 157.36H235.784C234.008 160.336 231.32 162.904 228.632 164.56C228.176 163.984 227.12 162.976 226.52 162.52C228.872 161.344 231.056 159.496 232.568 157.36H230.48C229.304 158.488 228.008 159.496 226.76 160.264C226.28 159.736 225.2 158.68 224.6 158.248C226.784 157.096 228.896 155.368 230.36 153.4H228.248V143.68H244.04V153.4H233.696C233.384 153.904 233.048 154.384 232.688 154.864Z" fill="white"/>
<path d="M184.936 83.968V85.888H190.04V86.896H178.712V85.888H183.768V83.968H180.152V83.024H183.768V81.424H180.712C180.36 81.984 179.976 82.496 179.576 82.896C179.384 82.72 178.936 82.416 178.68 82.288C179.512 81.488 180.248 80.304 180.68 79.12L181.736 79.344C181.608 79.712 181.448 80.096 181.272 80.448H183.768V79.168H184.936V80.448H189.144V81.424H184.936V83.024H188.76V83.968H184.936ZM179.4 77.824H186.392C185.592 77.488 184.568 77.088 183.448 76.704C182.136 77.168 180.728 77.552 179.4 77.824ZM185.56 74.912H180.264C181.288 75.168 182.408 75.504 183.496 75.84C184.28 75.568 184.984 75.248 185.56 74.912ZM186.824 77.824H190.168V78.816H178.184V80.384C178.184 82.4 177.912 85.344 176.504 87.344C176.328 87.12 175.832 86.736 175.576 86.592C176.872 84.736 177.048 82.192 177.048 80.368V77.824H178.872C178.76 77.616 178.6 77.312 178.456 77.152C179.608 76.944 180.92 76.656 182.152 76.288C181.144 75.968 180.12 75.68 179.176 75.456L179.848 74.912H176.808V73.936H182.392V72.624H183.56V73.936H189.384V74.912H186.632L186.888 75.056C186.28 75.488 185.512 75.888 184.68 76.24C185.736 76.608 186.696 76.96 187.416 77.28L186.824 77.824ZM203 77.456V74.432H196.648V77.456H203ZM204.2 73.296V78.592H195.496V73.296H204.2ZM197.656 81.424H194.312V85.216H197.656V81.424ZM193.176 87.232V80.272H198.824V87.088H197.656V86.368H194.312V87.232H193.176ZM201.72 85.216H205.352V81.424H201.72V85.216ZM200.568 80.272H206.52V87.12H205.352V86.368H201.72V87.232H200.568V80.272ZM221.688 85.28V77.92H219.288V85.28H221.688ZM211.464 77.92V85.28H213.736V77.92H211.464ZM218.2 79.68V77.92H214.824V79.68H218.2ZM214.824 83.424V85.28H218.2V83.424H214.824ZM218.2 82.448V80.656H214.824V82.448H218.2ZM223.656 74.816H217.096C216.904 75.488 216.68 76.208 216.472 76.816H222.888V87.232H221.688V86.384H211.464V87.232H210.312V76.816H215.256C215.432 76.208 215.592 75.472 215.72 74.816H209.592V73.68H223.656V74.816Z" fill="white"/>
<path d="M370.392 108.04V110.752H358.728V108.04H370.392ZM354.12 106.672L356.88 107.8C355.152 110.056 352.56 112.528 350.28 114.112C349.92 113.488 349.2 112.336 348.696 111.784C350.688 110.512 352.968 108.352 354.12 106.672ZM355.032 111.856L357.768 112.912C357.048 114.136 356.16 115.384 355.2 116.584V129.112H352.344V119.728C351.672 120.376 351.024 120.976 350.376 121.504C349.968 120.928 349.008 119.632 348.432 119.032C350.88 117.352 353.496 114.568 355.032 111.856ZM370.992 114.64V117.352H367.704V125.776C367.704 127.312 367.416 128.104 366.36 128.536C365.352 128.968 363.816 129.016 361.68 129.016C361.56 128.176 361.2 126.952 360.816 126.112C362.184 126.184 363.768 126.184 364.2 126.16C364.632 126.16 364.8 126.064 364.8 125.704V117.352H357.72V114.64H370.992ZM395.352 112.912L392.88 114.16C392.448 112.72 391.248 110.488 390.144 108.832L392.448 107.728C393.576 109.312 394.848 111.448 395.352 112.912ZM375.912 112.6H380.856C380.16 111.592 379.128 110.32 378.144 109.384C377.568 110.392 376.824 111.496 375.912 112.6ZM379.032 119.152V125.128C380.16 124.936 381.336 124.744 382.488 124.552L382.632 126.952C379.488 127.552 376.08 128.128 373.56 128.56L373.008 126.016C374.016 125.896 375.24 125.704 376.56 125.512V119.152H373.296V116.728H376.56V114.976H374.352V114.232L374.184 114.4C373.824 113.824 373.008 112.864 372.432 112.504C374.424 110.8 375.792 108.544 376.56 106.696H378.84C380.28 107.872 382.104 109.6 382.968 110.872L381.456 112.912V114.976H379.032V116.728H382.152V119.152H379.032ZM373.44 120.544L375.312 120.064C375.72 121.36 376.104 123.064 376.224 124.168L374.256 124.72C374.184 123.568 373.824 121.864 373.44 120.544ZM380.976 124.408L379.272 123.904C379.608 122.8 380.016 121.048 380.16 119.848L382.32 120.376C381.84 121.792 381.384 123.376 380.976 124.408ZM386.136 122.152H391.464V120.52H386.136V122.152ZM391.464 116.704H386.136V118.192H391.464V116.704ZM394.2 114.208V126.04C394.2 127.36 393.96 128.128 393.096 128.584C392.256 129.04 391.104 129.088 389.496 129.088C389.424 128.296 389.016 127.096 388.632 126.328C389.616 126.4 390.696 126.376 391.032 126.376C391.344 126.376 391.464 126.28 391.464 125.992V124.504H386.136V129.064H383.4V114.208H384.288C383.736 113.8 382.704 113.152 382.104 112.84C383.112 111.616 383.952 109.696 384.408 107.872L387.024 108.472C386.448 110.584 385.44 112.792 384.432 114.208H387.336V106.672H390.096V114.208H394.2ZM403.752 109.096L402.072 111.448C401.256 110.632 399.432 109.552 398.016 108.928L399.6 106.768C400.992 107.344 402.84 108.304 403.752 109.096ZM402.48 115.336L400.824 117.712C399.984 116.92 398.208 115.912 396.792 115.312L398.328 113.152C399.72 113.656 401.568 114.568 402.48 115.336ZM401.256 119.416L403.488 121.12C402.432 123.688 401.16 126.472 399.912 128.824L397.344 127.144C398.472 125.296 400.032 122.248 401.256 119.416ZM412.416 123.208H415.056V122.104H412.416V123.208ZM407.424 122.104V123.208H409.752V122.104H407.424ZM409.752 119.176H407.424V120.208H409.752V119.176ZM415.056 119.176H412.416V120.208H415.056V119.176ZM409.632 113.104V114.04H412.584V113.104H409.632ZM409.632 110.224V111.184H412.584V110.224H409.632ZM419.232 123.208V125.416H417.792V126.472C417.792 127.696 417.504 128.272 416.664 128.656C415.824 129.016 414.624 129.064 412.992 129.04C412.848 128.368 412.416 127.432 412.08 126.832C413.088 126.856 414.264 126.856 414.6 126.856C414.936 126.832 415.056 126.76 415.056 126.448V125.416H407.424V129.016H404.76V125.416H402.96V123.208H404.76V117.208H409.752V116.296H403.056V114.04H406.896V113.104H404.448V111.184H406.896V110.224H404.064V108.232H406.896V106.672H409.632V108.232H412.584V106.672H415.344V108.232H418.464V110.224H415.344V111.184H418.104V113.104H415.344V114.04H419.16V116.296H412.416V117.208H417.792V123.208H419.232ZM434.112 114.736H431.352V116.032H434.112V114.736ZM439.488 116.032V114.736H436.656V116.032H439.488ZM436.656 119.368H439.488V118.024H436.656V119.368ZM431.352 119.368H434.112V118.024H431.352V119.368ZM431.352 121.432V125.032H428.664V112.672H434.04C432.96 112.168 431.808 111.688 430.824 111.304L432.672 109.768C433.512 110.08 434.52 110.464 435.504 110.896C436.176 110.512 436.824 110.056 437.424 109.624H428.88V107.464H439.896L440.448 107.32L442.152 108.688C440.952 109.816 439.44 110.968 437.88 111.928C438.408 112.192 438.912 112.432 439.32 112.672H442.224V122.56C442.224 123.712 442.008 124.312 441.24 124.696C440.472 125.104 439.44 125.104 438 125.104C437.904 124.408 437.616 123.472 437.304 122.872C438.048 122.896 438.888 122.896 439.128 122.896C439.416 122.872 439.488 122.776 439.488 122.536V121.432H436.656V124.936H434.112V121.432H431.352ZM427.344 110.872L425.208 112.912C424.464 111.76 422.664 110.104 421.2 109L423.168 107.176C424.632 108.184 426.48 109.72 427.344 110.872ZM426.624 115.984V123.64C427.56 125.248 429.216 125.92 431.664 126.016C434.52 126.136 440.208 126.064 443.496 125.8C443.16 126.472 442.728 127.792 442.608 128.584C439.656 128.728 434.568 128.776 431.64 128.656C428.76 128.536 426.864 127.84 425.424 125.992C424.32 126.928 423.192 127.864 421.848 128.872L420.528 126.016C421.56 125.44 422.784 124.648 423.888 123.832V118.6H420.84V115.984H426.624ZM461.688 125.008H452.184V126.352H461.688V125.008ZM459.864 118.528H452.184V119.776H459.864V118.528ZM452.184 121.816V122.92H464.52V129.112H461.688V128.464H452.184V129.112H449.448V116.464H462.696V121.816H452.184ZM467.04 108.352V110.584H463.08C463.488 111.16 463.872 111.736 464.088 112.192L461.448 112.936C461.184 112.312 460.584 111.376 460.008 110.584H458.616C458.184 111.136 457.728 111.616 457.296 112.048V113.344H466.488V118.096H463.704V115.48H448.416V118.096H445.728V113.344H454.56V111.664H455.616C455.184 111.424 454.728 111.208 454.416 111.064C454.608 110.92 454.824 110.752 455.016 110.584H452.208C452.544 111.16 452.832 111.736 453 112.168L450.432 112.888C450.24 112.288 449.808 111.376 449.328 110.584H448.944C448.32 111.472 447.648 112.264 447.024 112.888C446.472 112.432 445.344 111.664 444.696 111.352C446.136 110.152 447.504 108.304 448.224 106.48L450.888 107.2C450.72 107.584 450.528 107.968 450.336 108.352H455.664V109.96C456.624 108.976 457.44 107.728 457.944 106.48L460.656 107.128C460.488 107.536 460.296 107.944 460.08 108.352H467.04ZM486.36 116.176V114.928H479.856V116.176H486.36ZM486.36 119.32V118.072H479.856V119.32H486.36ZM486.36 122.488V121.216H479.856V122.488H486.36ZM477.144 112.864H481.08C481.176 112.432 481.248 112 481.32 111.568H475.512V109.264H478.848C478.56 108.688 478.152 108.04 477.744 107.536L480 106.696C480.648 107.416 481.32 108.448 481.56 109.144L481.272 109.264H484.272C484.728 108.496 485.256 107.416 485.544 106.672L488.376 107.272C487.944 107.992 487.512 108.688 487.128 109.264H490.8V111.568H484.392C484.2 112.024 483.984 112.456 483.792 112.864H489.192V124.552H477.144V112.864ZM475.272 110.848L473.016 112.744C472.272 111.592 470.568 110.008 469.152 108.952L471.264 107.224C472.704 108.232 474.456 109.72 475.272 110.848ZM474.672 115.984V123.52C475.656 125.128 477.456 125.776 479.952 125.872C482.76 125.992 488.16 125.92 491.352 125.68C491.04 126.352 490.608 127.744 490.464 128.56C487.584 128.704 482.76 128.752 479.904 128.632C476.952 128.512 474.984 127.84 473.424 125.968C472.368 126.904 471.312 127.84 469.992 128.848L468.6 125.872C469.632 125.272 470.832 124.48 471.888 123.664V118.6H469.128V115.984H474.672ZM380.28 144.76L378.984 146.92C377.88 146.32 375.624 145.456 373.968 144.976L375.216 143.032C376.8 143.416 379.08 144.184 380.28 144.76ZM378.912 158.296V159.352H389.304V158.296H378.912ZM378.912 155.656V156.688H389.304V155.656H378.912ZM378.912 153.016V154.048H389.304V153.016H378.912ZM382.8 151.312H390.864C389.016 150.64 387.912 149.752 387.192 148.72C386.352 149.848 385.008 150.688 382.8 151.312ZM392.208 161.056H388.056C390.504 161.92 393.264 163.072 394.896 163.864L391.584 165.136C390.216 164.344 387.768 163.216 385.344 162.304L387.504 161.056H380.496L382.68 162.016C380.688 163.312 377.616 164.488 375.192 165.16C374.688 164.608 373.68 163.576 373.08 163.072C375.408 162.64 378.024 161.872 379.68 161.056H376.152V151.312H381.168C380.88 150.736 380.424 150.04 380.04 149.656L380.064 149.752C378 150.352 375.768 151 373.968 151.504L372.912 149.008C374.688 148.672 377.256 148.072 379.8 147.472L380.04 149.632C383.856 149.008 385.128 147.976 385.656 146.272H383.928C383.376 146.944 382.752 147.592 382.008 148.192C381.504 147.688 380.52 147.112 379.872 146.848C381.6 145.648 382.776 144.064 383.4 142.672L385.92 143.08C385.728 143.488 385.536 143.872 385.296 144.256H392.376L392.808 144.184L394.704 144.664C394.08 145.96 393.216 147.4 392.424 148.288L390.216 147.592C390.504 147.232 390.84 146.776 391.152 146.272H388.488C388.992 147.808 390.36 149.128 395.208 149.704C394.68 150.232 394.056 151.336 393.792 152.032C393.216 151.936 392.688 151.84 392.208 151.72V161.056ZM405.048 143.416V145.576H397.992V143.416H405.048ZM405.912 146.632V148.888H396.792V146.632H405.912ZM405.12 149.968V152.152H397.92V149.968H405.12ZM397.92 155.392V153.256H405.12V155.392H397.92ZM402.72 161.584V158.824H400.248V161.584H402.72ZM406.104 143.608H416.808C416.568 151.768 416.664 161.656 417.816 161.944C417.984 161.992 418.128 160.336 418.2 158.68C418.632 159.424 419.328 160.576 419.76 161.008C419.376 164.728 418.128 165.544 416.568 164.896C414 163.912 413.928 155.488 413.904 146.32H411.168V151.456V151.648H413.424V154.312H411.096C410.832 158.08 409.896 162.016 406.776 165.112C406.416 164.632 405.744 163.912 405.144 163.432V163.816H400.248V164.752H397.848V156.568H405.144V162.568C407.376 160.12 408.12 157.168 408.36 154.312H405.84V151.648H408.456V151.432V146.32H406.104V143.608ZM433.68 144.064L436.488 142.936C438 145.984 441 149.464 443.616 151.48C442.848 152.08 441.744 153.232 441.192 154.048C440.688 153.592 440.184 153.064 439.656 152.512V152.68C439.392 159.928 439.104 162.76 438.264 163.768C437.664 164.536 437.016 164.776 436.08 164.896C435.264 165.016 433.872 165.016 432.456 164.968C432.408 164.104 432.024 162.904 431.52 162.088C432.84 162.184 434.088 162.208 434.688 162.208C435.12 162.208 435.384 162.16 435.648 161.872C436.128 161.368 436.392 159.232 436.608 154.216H431.88C431.28 158.824 429.72 162.928 423.504 165.256C423.144 164.44 422.304 163.264 421.608 162.616C427.032 160.864 428.28 157.72 428.76 154.216H424.704V152.536C424.08 153.184 423.432 153.76 422.784 154.264C422.256 153.616 421.032 152.464 420.336 151.96C423.336 149.944 425.976 146.632 427.416 142.984L430.488 143.872C429.312 146.632 427.632 149.272 425.736 151.432H438.696C436.8 149.224 435 146.584 433.68 144.064ZM455.64 162.472V162.592C457.608 161.584 459.096 160.24 460.176 158.512C459.552 157.048 459.072 155.488 458.664 153.808C458.28 154.576 457.872 155.272 457.416 155.92C457.08 155.296 456.192 154.048 455.64 153.448V162.472ZM462.84 149.68H460.176L460.152 149.704C460.512 151.72 461.016 153.616 461.64 155.344C462.216 153.688 462.6 151.792 462.84 149.68ZM448.92 159.304H453V158.296H448.92V159.304ZM453 155.296H448.92V156.28H453V155.296ZM449.928 147.664V149.68H452.016V147.664H449.928ZM467.208 149.68H465.672C465.216 153.208 464.472 156.184 463.272 158.632C464.352 160.36 465.72 161.704 467.448 162.616C466.776 163.168 465.888 164.32 465.456 165.112C463.92 164.128 462.648 162.832 461.664 161.296C460.464 162.808 458.976 164.08 457.128 165.136C456.888 164.56 456.168 163.456 455.64 162.832C455.592 163.768 455.376 164.296 454.68 164.656C453.96 165.04 452.928 165.088 451.56 165.088C451.464 164.392 451.128 163.384 450.792 162.736C451.56 162.784 452.376 162.784 452.64 162.76C452.904 162.76 453 162.688 453 162.448V161.392H448.92V165.088H446.304V153.16H455.64V153.328C455.904 152.92 456.144 152.488 456.384 152.056H444.84V149.68H447.336V147.664H445.2V145.312H447.336V142.96H449.928V145.312H452.016V142.96H454.632V145.312H456.792V147.664H454.632V149.68H456.672V151.432C457.728 149.008 458.328 145.888 458.688 142.672L461.496 143.056C461.304 144.4 461.088 145.744 460.824 147.04H467.208V149.68Z" fill="white"/>
<path d="M409.768 73.584V74.704H401.96V73.584H409.768ZM399.288 72.608L400.424 73.056C399.384 74.464 397.752 76.016 396.328 77.024C396.152 76.768 395.832 76.304 395.624 76.08C396.952 75.184 398.488 73.744 399.288 72.608ZM399.944 76.016L401.048 76.432C400.552 77.248 399.944 78.064 399.288 78.848V87.264H398.104V80.16C397.496 80.784 396.888 81.36 396.296 81.824C396.12 81.584 395.704 81.072 395.464 80.832C397.112 79.664 398.84 77.824 399.944 76.016ZM410.232 77.952V79.088H407.816V85.696C407.816 86.432 407.64 86.8 407.112 86.992C406.568 87.168 405.672 87.168 404.104 87.168C404.056 86.848 403.896 86.352 403.72 86.016C404.856 86.048 405.912 86.048 406.216 86.032C406.52 86.016 406.616 85.952 406.616 85.68V79.088H401.272V77.952H410.232ZM427.208 76.848L426.2 77.392C425.848 76.448 424.952 74.992 424.104 73.92L425.048 73.456C425.912 74.496 426.84 75.92 427.208 76.848ZM416.312 84.976L418.872 84.48L418.936 85.488C416.792 85.952 414.488 86.416 412.824 86.736L412.552 85.664C413.288 85.536 414.232 85.376 415.272 85.168V80.288H412.712V79.248H415.272V77.568H413.528V76.992C413.368 77.168 413.192 77.328 413.016 77.488C412.856 77.248 412.488 76.864 412.264 76.72C413.672 75.504 414.664 73.888 415.176 72.624H416.232C417.24 73.504 418.488 74.768 419.08 75.6L418.312 76.56C417.8 75.792 416.808 74.576 415.896 73.728C415.432 74.592 414.792 75.584 413.944 76.544H418.136V77.568H416.312V79.248H418.632V80.288H416.312V84.976ZM413.064 81.408L413.896 81.2C414.232 82.128 414.504 83.344 414.584 84.128L413.704 84.384C413.656 83.568 413.384 82.352 413.064 81.408ZM417.608 84.224L416.84 83.968C417.096 83.168 417.432 81.888 417.592 81.008L418.536 81.296C418.232 82.288 417.88 83.472 417.608 84.224ZM420.376 73.488L421.48 73.728C421.032 75.152 420.28 76.576 419.528 77.504C419.32 77.328 418.84 77.024 418.568 76.864C419.352 76.032 420.008 74.752 420.376 73.488ZM420.728 83.024H425.176V81.312H420.728V83.024ZM425.176 78.656H420.728V80.304H425.176V78.656ZM426.312 77.616V85.84C426.312 86.448 426.184 86.816 425.752 87.008C425.32 87.184 424.632 87.216 423.576 87.216C423.528 86.896 423.352 86.384 423.208 86.08C423.96 86.112 424.68 86.112 424.888 86.096C425.096 86.096 425.176 86.032 425.176 85.824V84.016H420.728V87.2H419.576V77.616H422.28V72.608H423.416V77.616H426.312ZM441.688 85.28V77.92H439.288V85.28H441.688ZM431.464 77.92V85.28H433.736V77.92H431.464ZM438.2 79.68V77.92H434.824V79.68H438.2ZM434.824 83.424V85.28H438.2V83.424H434.824ZM438.2 82.448V80.656H434.824V82.448H438.2ZM443.656 74.816H437.096C436.904 75.488 436.68 76.208 436.472 76.816H442.888V87.232H441.688V86.384H431.464V87.232H430.312V76.816H435.256C435.432 76.208 435.592 75.472 435.72 74.816H429.592V73.68H443.656V74.816Z" fill="white"/>
<path d="M602.936 120.808H599.024C598.568 121.504 598.064 122.128 597.56 122.632C597.08 122.2 596.072 121.48 595.472 121.12C596.696 120.064 597.728 118.432 598.304 116.728L600.8 117.328C600.656 117.736 600.488 118.168 600.296 118.576H602.936V116.992H605.744V118.576H611.552V120.808H605.744V122.344H610.832V124.504H605.744V126.328H612.728V128.632H595.88V126.328H602.936V124.504H597.92V122.344H602.936V120.808ZM598.544 114.424H606.272C605.24 114.064 604.064 113.68 602.792 113.296C601.424 113.728 599.96 114.112 598.544 114.424ZM605.144 110.536H599.336C600.464 110.8 601.64 111.112 602.816 111.424C603.656 111.16 604.448 110.848 605.144 110.536ZM612.92 114.424V116.728H595.472V118.456C595.472 121.624 595.04 126.352 592.808 129.376C592.352 128.848 591.176 127.912 590.576 127.576C592.496 124.888 592.688 121.096 592.688 118.432V114.424H595.688C595.448 113.992 595.136 113.512 594.92 113.224C596.36 113.008 597.944 112.72 599.504 112.36C598.232 112.024 596.984 111.712 595.808 111.448L597.032 110.536H592.52V108.304H600.512V106.696H603.368V108.304H611.768V110.536H607.88L608.408 110.824C607.616 111.328 606.68 111.808 605.648 112.24C606.992 112.648 608.216 113.056 609.224 113.416L608.024 114.424H612.92ZM630.2 113.584V110.344H621.8V113.584H630.2ZM633.104 107.608V116.296H619.04V107.608H633.104ZM622.016 121.024H618.44V125.152H622.016V121.024ZM615.752 129.088V118.288H624.872V128.968H622.016V127.888H618.44V129.088H615.752ZM629.648 125.152H633.464V121.024H629.648V125.152ZM626.912 118.288H636.344V128.992H633.464V127.888H629.648V129.088H626.912V118.288ZM661.352 112.912L658.88 114.16C658.448 112.72 657.248 110.488 656.144 108.832L658.448 107.728C659.576 109.312 660.848 111.448 661.352 112.912ZM641.912 112.6H646.856C646.16 111.592 645.128 110.32 644.144 109.384C643.568 110.392 642.824 111.496 641.912 112.6ZM645.032 119.152V125.128C646.16 124.936 647.336 124.744 648.488 124.552L648.632 126.952C645.488 127.552 642.08 128.128 639.56 128.56L639.008 126.016C640.016 125.896 641.24 125.704 642.56 125.512V119.152H639.296V116.728H642.56V114.976H640.352V114.232L640.184 114.4C639.824 113.824 639.008 112.864 638.432 112.504C640.424 110.8 641.792 108.544 642.56 106.696H644.84C646.28 107.872 648.104 109.6 648.968 110.872L647.456 112.912V114.976H645.032V116.728H648.152V119.152H645.032ZM639.44 120.544L641.312 120.064C641.72 121.36 642.104 123.064 642.224 124.168L640.256 124.72C640.184 123.568 639.824 121.864 639.44 120.544ZM646.976 124.408L645.272 123.904C645.608 122.8 646.016 121.048 646.16 119.848L648.32 120.376C647.84 121.792 647.384 123.376 646.976 124.408ZM652.136 122.152H657.464V120.52H652.136V122.152ZM657.464 116.704H652.136V118.192H657.464V116.704ZM660.2 114.208V126.04C660.2 127.36 659.96 128.128 659.096 128.584C658.256 129.04 657.104 129.088 655.496 129.088C655.424 128.296 655.016 127.096 654.632 126.328C655.616 126.4 656.696 126.376 657.032 126.376C657.344 126.376 657.464 126.28 657.464 125.992V124.504H652.136V129.064H649.4V114.208H650.288C649.736 113.8 648.704 113.152 648.104 112.84C649.112 111.616 649.952 109.696 650.408 107.872L653.024 108.472C652.448 110.584 651.44 112.792 650.432 114.208H653.336V106.672H656.096V114.208H660.2ZM679.424 123.592H668.912V126.04H679.424V123.592ZM666.08 129.088V121.336H682.4V129.088H679.424V128.272H668.912V129.088H666.08ZM668.744 116.992V118.24H673.016V116.992H668.744ZM673.016 112.192V111.136H668.744V112.192H673.016ZM673.016 115.168V114.04H668.744V115.168H673.016ZM675.8 118.24H684.344V120.328H666.008V114.568C665.528 115.12 665.024 115.624 664.544 116.08C664.136 115.504 663.152 114.28 662.576 113.752C664.664 112.024 666.704 109.288 667.928 106.576L670.616 107.44C670.352 107.992 670.088 108.568 669.776 109.12H673.472C673.832 108.304 674.192 107.392 674.408 106.672L677.384 107.344C677.072 107.944 676.76 108.568 676.448 109.12H683.432V111.136H675.8V112.192H682.184V114.04H675.8V115.168H682.208V116.992H675.8V118.24ZM600.632 156.136V153.856H612.296V156.136H605.528L605.216 157.24H611.552C611.552 157.24 611.504 157.96 611.456 158.32C611.072 161.8 610.64 163.48 609.92 164.152C609.368 164.728 608.744 164.92 607.88 164.992C607.16 165.04 605.912 165.04 604.64 164.992C604.592 164.224 604.28 163.216 603.8 162.52C605 162.616 606.224 162.64 606.752 162.64C607.16 162.64 607.424 162.616 607.688 162.424C608 162.112 608.288 161.248 608.528 159.52H604.52C604.424 159.856 604.304 160.144 604.208 160.432L601.592 159.976C602 158.92 602.456 157.48 602.84 156.136H600.632ZM604.352 150.28H608.552C607.952 149.392 607.448 148.408 607.016 147.4H606.032C605.576 148.408 605.024 149.368 604.352 150.28ZM594.224 145.936V149.152H597.008V145.936H594.224ZM613.064 147.4H609.872C610.808 149.032 612.08 150.472 613.52 151.336C612.92 151.864 612.08 152.824 611.648 153.544C610.856 153.016 610.136 152.32 609.488 151.552V152.584H603.2V151.624C602.48 152.344 601.664 153.016 600.728 153.616C600.392 152.968 599.6 151.984 599.024 151.528H597.296V154.048H599.768V156.472H597.296V160.072L600.344 159.376L600.632 161.776C597.368 162.616 593.888 163.456 591.272 164.104L590.72 161.488L591.728 161.296V153.184H593.936V160.816L594.896 160.6V151.528H591.872V143.584H599.504V151.144C601.088 150.088 602.216 148.792 603.008 147.4H600.032V144.88H604.064C604.28 144.136 604.448 143.392 604.544 142.648L607.328 142.912C607.208 143.584 607.064 144.232 606.896 144.88H613.064V147.4ZM631.424 159.592H620.912V162.04H631.424V159.592ZM618.08 165.088V157.336H634.4V165.088H631.424V164.272H620.912V165.088H618.08ZM620.744 152.992V154.24H625.016V152.992H620.744ZM625.016 148.192V147.136H620.744V148.192H625.016ZM625.016 151.168V150.04H620.744V151.168H625.016ZM627.8 154.24H636.344V156.328H618.008V150.568C617.528 151.12 617.024 151.624 616.544 152.08C616.136 151.504 615.152 150.28 614.576 149.752C616.664 148.024 618.704 145.288 619.928 142.576L622.616 143.44C622.352 143.992 622.088 144.568 621.776 145.12H625.472C625.832 144.304 626.192 143.392 626.408 142.672L629.384 143.344C629.072 143.944 628.76 144.568 628.448 145.12H635.432V147.136H627.8V148.192H634.184V150.04H627.8V151.168H634.208V152.992H627.8V154.24ZM651.56 151.912L653.336 150.424C655.904 152.272 659.6 155.032 661.328 156.928L658.904 159.112C657.416 157.336 654.152 154.6 651.56 152.608V165.04H648.44V153.328C646.256 155.656 643.688 157.744 640.808 159.232C640.352 158.464 639.464 157.288 638.84 156.64C643.208 154.6 646.952 150.88 649.184 147.208H639.608V144.28H660.416V147.208H652.952C652.544 147.952 652.064 148.696 651.56 149.416V151.912ZM669.056 149.608V151.12H679.136V149.608H669.056ZM669.056 145.984V147.472H679.136V145.984H669.056ZM670.688 154.864H683.96C683.96 154.864 683.912 155.632 683.864 155.992C683.36 161.176 682.808 163.36 682.016 164.152C681.44 164.776 680.816 164.992 680.072 165.064C679.4 165.136 678.272 165.136 677.072 165.112C677.048 164.392 676.76 163.36 676.328 162.688C677.336 162.784 678.272 162.784 678.704 162.784C679.136 162.784 679.352 162.736 679.592 162.496C680.048 162.064 680.528 160.6 680.864 157.36H678.8C677.552 160.576 675.512 163.432 673.304 165.256C672.824 164.776 671.696 163.888 671.048 163.504C673.064 162.064 674.768 159.88 675.848 157.36H673.784C672.008 160.336 669.32 162.904 666.632 164.56C666.176 163.984 665.12 162.976 664.52 162.52C666.872 161.344 669.056 159.496 670.568 157.36H668.48C667.304 158.488 666.008 159.496 664.76 160.264C664.28 159.736 663.2 158.68 662.6 158.248C664.784 157.096 666.896 155.368 668.36 153.4H666.248V143.68H682.04V153.4H671.696C671.384 153.904 671.048 154.384 670.688 154.864Z" fill="white"/>
<path d="M626.824 73.344L627.832 73.728C627.32 74.352 626.728 74.976 626.264 75.392L625.512 75.056C625.96 74.576 626.52 73.824 626.824 73.344ZM621.528 75.6L620.76 75.12C621.384 74.704 621.848 74 622.104 73.344L622.904 73.648C622.616 74.368 622.184 75.12 621.528 75.6ZM619.816 73.376L620.792 73.76C620.328 74.352 619.8 74.944 619.368 75.344L618.664 75.024C619.048 74.56 619.56 73.856 619.816 73.376ZM615.432 73.328L616.232 73.616C615.96 74.368 615.576 75.136 614.888 75.6L614.136 75.136C614.744 74.736 615.208 74.016 615.432 73.328ZM620.296 76.784L619.576 77.536C619.08 77.136 618.168 76.528 617.368 76.032C616.792 76.816 615.864 77.344 614.36 77.728C614.28 77.488 613.992 77.072 613.768 76.88C616.568 76.24 617.096 75.104 617.24 72.608H618.28C618.216 73.648 618.104 74.496 617.832 75.2C618.68 75.696 619.72 76.352 620.296 76.784ZM625.48 85.888V84.432H616.808V85.888H625.48ZM617.848 80.512V81.76H624.168V80.512H617.848ZM625.336 82.576H621.608C621.464 82.912 621.336 83.248 621.208 83.552H626.664V87.2H625.48V86.784H616.808V87.216H615.688V83.552H620.056C620.152 83.248 620.248 82.896 620.328 82.576H616.728V79.696H625.336V82.576ZM627.848 77.024L627.24 77.744H627.656V80.64H626.488V78.704H615.528V80.64H614.376V77.744H626.984C626.28 77.232 625.112 76.544 624.088 75.984C623.512 76.736 622.616 77.28 621.16 77.648C621.064 77.392 620.776 76.96 620.568 76.752C623.256 76.112 623.8 74.976 623.944 72.608H625.032C624.968 73.616 624.84 74.448 624.568 75.136C625.688 75.696 627.112 76.496 627.848 77.024ZM635.848 74.08V75.248H634.792V73.168H644.632V75.248H643.528V74.08H635.848ZM636.664 81.152H639.08V80.08H636.664V81.152ZM636.664 78.256V79.296H639.08V78.256H636.664ZM642.712 78.256H640.248V79.296H642.712V78.256ZM642.712 81.152V80.08H640.248V81.152H642.712ZM639.08 85.376V83.856H634.52V82.944H639.08V81.968H635.624V77.44H639.08V76.48H635.128V75.584H639.08V74.48H640.248V75.584H644.248V76.48H640.248V77.44H643.784V81.968H640.248V82.944H644.92V83.856H640.248V85.376H639.08ZM634.232 75.616L633.272 76.352C632.792 75.552 631.72 74.448 630.744 73.68L631.656 73.008C632.632 73.744 633.736 74.832 634.232 75.616ZM633.752 78.88V84.016C634.504 85.2 635.912 85.744 637.784 85.808C639.544 85.888 643.224 85.84 645.144 85.712C645 85.984 644.808 86.528 644.76 86.88C642.968 86.96 639.592 86.992 637.8 86.912C635.704 86.832 634.264 86.272 633.272 85.024C632.568 85.712 631.832 86.384 631.048 87.072L630.424 85.936C631.096 85.44 631.912 84.768 632.632 84.096V80H630.6V78.88H633.752ZM659.688 85.28V77.92H657.288V85.28H659.688ZM649.464 77.92V85.28H651.736V77.92H649.464ZM656.2 79.68V77.92H652.824V79.68H656.2ZM652.824 83.424V85.28H656.2V83.424H652.824ZM656.2 82.448V80.656H652.824V82.448H656.2ZM661.656 74.816H655.096C654.904 75.488 654.68 76.208 654.472 76.816H660.888V87.232H659.688V86.384H649.464V87.232H648.312V76.816H653.256C653.432 76.208 653.592 75.472 653.72 74.816H647.592V73.68H661.656V74.816Z" fill="white"/>
</g>
</svg>
