<svg width="375" height="358" viewBox="0 0 375 358" fill="none" xmlns="http://www.w3.org/2000/svg">
<g clip-path="url(#clip0_97_24655)">
<path d="M265 98.9996V300.373C265 305.076 262.931 309.541 259.343 312.581L251.806 318.967C247.68 322.462 242.067 323.637 236.886 322.09L138.929 292.845C132.547 290.94 128.013 285.281 127.545 278.637L111.031 44.0498C110.448 35.7653 116.3 28.4119 124.504 27.1208L134.661 25.5223C137.009 25.1528 139.409 25.311 141.688 25.9853L253.54 59.0828C260.337 61.094 265 67.3372 265 74.4252V98.9996Z" fill="#8FB4DF"/>
<path d="M256.087 77.7135V307.565C256.087 318.266 245.786 325.95 235.529 322.902L121.938 289.141C115.15 287.124 110.496 280.885 110.496 273.804V44.3599C110.496 33.6812 120.758 25.9994 131.004 29.008L244.595 62.3616C251.408 64.362 256.087 70.6131 256.087 77.7135Z" fill="#13CF36"/>
<path d="M256.087 77.7135V307.565C256.087 318.266 245.786 325.95 235.529 322.902L121.938 289.141C115.15 287.124 110.496 280.885 110.496 273.804V44.3599C110.496 33.6812 120.758 25.9994 131.004 29.008L244.595 62.3616C251.408 64.362 256.087 70.6131 256.087 77.7135Z" fill="#13CF36"/>
<path d="M255.081 78.5015V308.555C255.081 318.252 245.747 325.216 236.452 322.455L121.87 288.412C115.719 286.584 111.5 280.93 111.5 274.512V43.3714C111.5 33.6944 120.799 26.7329 130.084 29.4584L243.229 62.6694C250.255 64.7319 255.081 71.1786 255.081 78.5015Z" fill="white" stroke="#8FB4DF" stroke-width="3"/>
<path d="M240.736 112.058V234.121C240.736 244.817 230.443 252.502 220.188 249.461L137.3 224.889C130.507 222.876 125.848 216.634 125.848 209.549V87.782C125.848 77.1079 136.101 69.4268 146.345 72.427L229.233 96.7031C236.051 98.7 240.736 104.954 240.736 112.058Z" fill="#E9F0F9"/>
<path d="M168.93 55.5645L191.709 62.4747" stroke="#8FB4DF" stroke-width="4" stroke-linecap="round"/>
<path d="M227.145 128.347C224.169 101.633 203.09 96.584 193.678 91.871C186.918 87.4796 192.518 92.907 170.017 94.0213C141.891 95.4141 166.698 141.427 138.233 148.81C122.357 152.928 126.857 175.204 120.072 177.318C115.998 178.587 68.4379 186.235 97.4725 222.098C134.889 268.315 255.977 270.247 290.544 217.639C305.132 195.437 292.332 170.647 256.133 173.079C247.556 173.656 258.661 155.194 241.476 149.201C228.169 145.434 228.679 142.116 227.145 128.347Z" fill="#FF7E4B"/>
<path d="M205.063 204.233L190.366 193.976C212.515 183.981 238.615 190.086 254.033 208.868L288.478 250.829L295.744 259.965L281.5 274.33L205.063 204.233Z" fill="#FFD2B3"/>
<path d="M137.518 195.844C151.253 185.549 170.125 185.521 183.89 195.776L155.934 218.556L107.551 255.733C101.617 260.292 93.2279 259.771 87.9039 254.512C81.3935 248.08 82.1237 237.365 89.4463 231.876L137.518 195.844Z" fill="#FFD2B3"/>
<path d="M288.341 254.815C298.088 257.057 302.949 268.033 298.058 276.758C294.398 283.286 286.484 286.116 279.514 283.387L206.357 254.746L222.547 239.68L288.341 254.815Z" fill="#FFD2B3"/>
<path d="M250.23 246.034C251.353 246.026 261.788 247.671 268.321 250.515" stroke="#EB8356" stroke-width="3" stroke-linecap="round"/>
<path d="M357.215 107.887C356.374 107.466 355.402 107.418 354.401 107.75C352.322 108.44 350.092 110.821 348.436 114.12L345.183 120.607L327.471 123.113C326.82 123.205 326.161 123.684 325.873 124.261L324.678 126.643C324.382 127.232 324.385 127.867 324.685 128.386C324.985 128.904 325.535 129.223 326.193 129.26L341.075 130.097L335.982 143.336L330.948 144.049C330.302 144.139 329.637 144.619 329.348 145.197L328.586 146.712C328.291 147.301 328.294 147.937 328.594 148.455C328.895 148.973 329.444 149.292 330.1 149.328L336.18 149.667C336.211 149.674 336.274 149.706 336.279 149.704L340.209 154.403C340.715 155.008 341.456 155.241 342.141 155.014C342.594 154.864 342.974 154.523 343.211 154.051L343.969 152.538C344.262 151.952 344.248 151.143 343.934 150.57L341.496 146.103L349.062 134.106L358.628 145.543C359.134 146.148 359.875 146.383 360.561 146.155C361.014 146.005 361.394 145.663 361.63 145.193L362.824 142.813C363.118 142.227 363.104 141.418 362.79 140.844L354.211 125.14L357.466 118.653C360.016 113.57 359.916 109.243 357.215 107.887Z" fill="#8FB4DF"/>
<path d="M149.107 204.221C147.936 195.778 155.069 188.511 163.532 189.526L216.06 195.828C223.58 196.73 228.739 203.843 227.262 211.271L212.363 286.179C212.133 287.334 211.404 288.327 210.321 288.788C206.384 290.463 195.729 294.06 180.501 292C167.939 290.3 162.984 287.73 161.252 286.504C160.673 286.093 160.38 285.434 160.282 284.731L149.107 204.221Z" fill="#FFD2B3"/>
<path d="M157.281 184.916C157.411 184.498 157.798 184.214 158.236 184.214L169.522 184.214C170.159 184.214 170.634 184.802 170.499 185.425L165.199 209.957L149 211.5L157.281 184.916Z" fill="#5078F2"/>
<path d="M207.147 188.548C207.068 187.979 207.482 187.46 208.055 187.413L220.059 186.419C220.588 186.376 221.058 186.752 221.132 187.277L225.001 214.865L210.831 214.865L207.147 188.548Z" fill="#5078F2"/>
<path d="M175.852 174.761C175.414 162.464 188.185 154.093 199.286 159.401L203.744 189.11C203.915 190.25 204 191.403 203.827 192.544C203.287 196.114 201.094 204.015 192.247 204.234C185.388 204.404 180.832 199.694 178.458 196.321C176.99 194.234 176.455 191.69 176.364 189.139L175.852 174.761Z" fill="#FFD2B3"/>
<path d="M126.308 186.207C126.308 186.207 130.992 231.345 130.772 234.573C130.552 237.801 126.891 241.207 123.771 240.482C120.667 239.753 117.975 235.254 117.975 235.254L107.971 192.41C107.971 192.41 118.186 184.474 126.312 186.224L126.308 186.207Z" fill="#284EDB"/>
<path d="M127.26 158.142C133.808 157.543 139.752 161.289 142.591 166.881C143.55 168.772 144.155 170.869 144.317 173.125C144.599 177.036 143.484 180.73 141.398 183.677C138.738 187.451 134.137 190.347 129.574 190.39C115.546 190.522 80.3941 213.03 80.3941 213.03L75.3303 142.791C75.3303 142.791 112.802 159.481 127.26 158.142Z" fill="#7697FC"/>
<path d="M131.306 174.639C130.755 166.996 126.079 160.647 119.643 157.678C122.545 158.147 125.153 158.34 127.27 158.145C133.818 157.546 139.762 161.292 142.601 166.884C143.56 168.775 144.165 170.872 144.328 173.128C144.609 177.039 143.494 180.733 141.408 183.681C138.748 187.454 134.147 190.35 129.584 190.393C128.183 190.409 126.555 190.654 124.771 191.068C129.163 187.043 131.761 181.091 131.296 174.64L131.306 174.639Z" fill="#5078F2"/>
<path d="M76.321 214.466C63.465 215.199 51.6903 199.484 50.0213 179.366C48.3522 159.247 57.421 142.343 70.277 141.61C83.1329 140.876 94.9077 156.591 96.5767 176.71C98.2457 196.829 89.1769 213.733 76.321 214.466Z" fill="#4C78FF"/>
<path d="M66.8447 168.986L67.8988 183.607L95.8272 191.5C96.4102 188.486 97.1776 184.241 96.6539 176.978C96.258 171.485 94.9094 166.014 93.9004 163.756L66.8552 168.985L66.8447 168.986Z" fill="white"/>
<path d="M62.3738 176.55C62.6726 180.695 65.5075 183.863 68.6983 183.633C71.8891 183.403 74.2403 179.861 73.9415 175.716C73.6427 171.571 71.0908 168.24 67.9 168.471C64.7092 168.701 62.075 172.405 62.3738 176.55Z" fill="#00B8C5"/>
<path d="M134.855 227.044C133.403 229.157 130.514 229.693 128.401 228.242C126.381 226.855 125.788 224.136 127.046 222.034L128.76 219.168C129.439 218.033 129.833 216.75 129.909 215.429L130.451 205.959L136.133 209.289C140.23 212.104 141.27 217.706 138.455 221.803L134.855 227.044Z" fill="#FFCAA5"/>
<path d="M131.323 206.713C135.356 208.124 138.188 209.561 139.477 213.534C141.088 218.499 134.854 228.936 130.291 227.742C126.77 226.82 125.681 222.843 130.057 217.244" stroke="#EB8356" stroke-width="3" stroke-linecap="round"/>
<rect x="104.992" y="231.323" width="9" height="20" rx="4.5" transform="rotate(-91.323 104.992 231.323)" fill="#FFD2B3"/>
<rect x="106.582" y="238.214" width="6" height="14.914" rx="3" transform="rotate(-97.0319 106.582 238.214)" fill="#FFD2B3"/>
<rect x="102.785" y="222.371" width="9" height="21.1327" rx="4.5" transform="rotate(-91.323 102.785 222.371)" fill="#FFD2B3"/>
<path d="M109.619 213.211C106.847 213.275 104.56 211.057 104.539 208.284C104.516 205.161 107.348 202.793 110.417 203.367L118.309 204.844C120.141 205.187 121.516 206.715 121.664 208.573C121.852 210.936 120.015 212.971 117.646 213.026L109.619 213.211Z" fill="#FFD2B3"/>
<path d="M148.565 214.411C149.38 209.349 153.891 205.723 159.01 206.016L166.785 206.461C169.419 206.612 171.946 207.561 174.028 209.183L181.499 215L198.588 208.165C198.862 208.056 199.118 207.943 199.386 207.818C202.417 206.404 222.253 197.441 223.499 204.5C224.999 213 226.999 218.5 223.999 233.5C221.894 244.022 221.558 251.85 221.507 254.511C221.494 255.172 221.453 255.829 221.361 256.484L217.628 283.083C217.555 283.6 217.096 283.975 216.575 283.942L154.878 280.055C154.376 280.024 153.975 279.623 153.943 279.121L152.063 249.506C152.02 248.836 151.926 248.171 151.781 247.516L147.369 227.619C147.013 226.017 146.965 224.361 147.225 222.74L148.565 214.411Z" fill="#5078F2"/>
<rect width="10.6005" height="26.059" rx="5.30023" transform="matrix(-0.65904 0.752108 0.752108 0.65904 184.332 218.642)" fill="#FFCAA5"/>
<g filter="url(#filter0_i_97_24655)">
<rect x="163.562" y="224.31" width="79.351" height="41.444" rx="4" transform="rotate(11.9236 163.562 224.31)" fill="#00B8C5"/>
<path fill-rule="evenodd" clip-rule="evenodd" d="M168.539 242.135C174.113 243.312 179.586 239.747 180.763 234.174C180.881 233.615 180.951 233.058 180.976 232.505C181.007 231.835 181.612 231.299 182.268 231.438L223.188 240.079C223.851 240.219 224.186 240.966 223.932 241.594C223.708 242.148 223.53 242.73 223.402 243.336C222.225 248.909 225.789 254.382 231.363 255.559C231.783 255.648 232.071 256.052 231.982 256.471L230.082 265.467C229.973 265.986 229.44 266.295 228.921 266.186C224.028 265.153 219.214 267.772 217.314 272.197C217.113 272.665 216.62 272.955 216.121 272.849L175.106 264.189C174.602 264.082 174.267 263.609 174.279 263.094C174.398 258.222 171.037 253.805 166.096 252.762C166.044 252.751 166.01 252.699 166.021 252.647L168.194 242.356C168.227 242.2 168.383 242.102 168.539 242.135Z" fill="white"/>
<path d="M197.868 263.119L197.444 265.116C197.295 265.814 196.608 266.26 195.911 266.11C195.213 265.96 194.77 265.273 194.92 264.576L195.331 262.675C193.401 262.122 191.614 261.126 190.402 259.971C189.846 259.441 189.839 258.592 190.262 257.949C190.964 256.882 192.545 256.818 193.586 257.559C194.365 258.115 195.244 258.573 196.155 258.877L197.191 254.016C194.572 252.634 191.672 250.878 192.562 246.719C193.221 243.637 195.716 241.401 199.826 241.721L200.246 239.756C200.395 239.058 201.082 238.613 201.779 238.763C202.477 238.913 202.921 239.601 202.77 240.298L202.36 242.198C203.72 242.624 205 243.266 206.05 244.09C206.721 244.617 206.798 245.567 206.353 246.295C205.703 247.356 204.236 247.509 203.181 246.849C202.646 246.514 202.1 246.247 201.548 246.047L200.488 250.989C203.124 252.356 205.962 254.073 205.093 258.184C204.439 261.2 201.963 263.421 197.901 263.122L197.868 263.119ZM198.092 249.726L198.978 245.601C197.561 245.656 196.863 246.391 196.66 247.353C196.436 248.364 197.069 249.086 198.092 249.726ZM200.935 257.661C201.159 256.65 200.541 255.946 199.554 255.276L198.694 259.288C200.028 259.241 200.735 258.59 200.935 257.661Z" fill="#00B8C5"/>
</g>
<rect width="9" height="20" rx="4.5" transform="matrix(-0.980114 -0.198436 -0.198436 0.980114 223.664 224.934)" fill="#FFCAA5"/>
<rect width="6.88938" height="12" rx="3.44469" transform="matrix(-0.980114 -0.198436 -0.198436 0.980114 229.115 230.197)" fill="#FFCAA5"/>
<rect width="10.5006" height="24" rx="5.25028" transform="matrix(-0.980114 -0.198436 -0.198436 0.980114 215.373 221.426)" fill="#FFCAA5"/>
<rect width="10.6005" height="20" rx="5.30023" transform="matrix(-0.980114 -0.198436 -0.198436 0.980114 204.684 221.301)" fill="#FFCAA5"/>
<path d="M203.402 225.795L201.12 237.066" stroke="#EB8356" stroke-width="3" stroke-linecap="round"/>
<path d="M214.334 227.575L212.052 238.847" stroke="#EB8356" stroke-width="3" stroke-linecap="round"/>
<path d="M222.303 231.795L221.112 237.676" stroke="#EB8356" stroke-width="3" stroke-linecap="round"/>
<path d="M206.805 151.683C207.141 153.717 206.238 158.66 213.053 161.22C217.734 162.978 225.391 163.727 223.922 175.647" stroke="#EF5417" stroke-width="3" stroke-linecap="round"/>
<ellipse cx="180.774" cy="137.191" rx="30.0943" ry="37.6123" transform="rotate(4.59128 180.774 137.191)" fill="#FFD2B3"/>
<path d="M170.724 141.961L166.949 147.584C166.007 148.987 167.122 150.854 168.804 150.689L171.553 150.42" stroke="#EB8356" stroke-width="2" stroke-linecap="round"/>
<ellipse cx="17.7408" cy="17.7408" rx="17.7408" ry="17.7408" transform="matrix(-0.913179 0.407558 0.407559 0.913179 204.861 60.2087)" fill="#FF7E4B"/>
<path d="M140.818 123.323C138.459 105.61 154.627 89.2323 172.496 89.1199C173.597 89.113 174.613 89.1792 175.515 89.3344C178.919 89.9207 178.101 89.9977 181.553 90.1079C185.372 90.2297 185.256 90.3125 189.046 89.8247C193.902 89.1997 198.667 92.9614 202 96.5185C205.374 100.119 208.226 104.196 210.792 108.41C213.886 113.49 217.37 120.863 216.255 126.969C215.08 133.406 206.145 141.531 206.145 141.531C206.145 141.531 203.244 136.069 198.638 134.484C197.534 134.105 196.317 133.753 195.039 133.43C185.065 130.91 177.428 122.136 178.42 111.897C178.42 111.897 174.504 117.942 171.265 121.173C170.532 121.903 169.615 122.708 168.709 123.464C166.267 125.501 163.682 127.788 160.516 128.084C156.976 128.414 156.862 124.078 156.999 127.716C157.188 132.712 149.807 135.073 149.807 135.073C149.807 135.073 141.682 129.81 140.818 123.323Z" fill="#FF7E4B"/>
<path d="M177.371 157.68C174.991 159.02 173.081 158.952 172.055 158.751C171.703 158.682 171.343 158.946 171.38 159.303C171.581 161.29 172.369 163.636 174.974 164.017C175.029 164.025 175.087 164.027 175.142 164.024C178.312 163.837 178.877 159.958 178.035 157.875C177.93 157.616 177.615 157.543 177.371 157.68Z" stroke="#EB8356" stroke-width="2" stroke-linecap="round"/>
<ellipse cx="184.264" cy="140.135" rx="2.26499" ry="3.96373" transform="rotate(-5.59409 184.264 140.135)" fill="black"/>
<ellipse cx="159.885" cy="141.055" rx="2.26499" ry="3.96373" transform="rotate(-5.59409 159.885 141.055)" fill="black"/>
<path d="M191.656 72.2569C188.608 71.0376 186.661 72.4467 186.893 74.2057C187.452 78.441 198.96 75.7511 202.382 73.6212" stroke="#EF5417" stroke-width="3" stroke-linecap="round"/>
<path d="M171.857 102.984C169.706 109.369 166.699 114.165 159.262 113.967C155.521 113.867 153.849 110.168 154.52 107.641C155.191 105.114 159.085 103.386 161.496 106.877C165.201 112.241 157.556 117.649 155.697 118.516C150.975 120.717 144.129 119.545 146.398 113.186" stroke="#EF5417" stroke-width="3" stroke-linecap="round"/>
<ellipse cx="208.693" cy="138.202" rx="5.35461" ry="8.83753" transform="rotate(19.0995 208.693 138.202)" fill="#FFD2B3"/>
<path d="M180.336 175.915C183.867 176.08 189.888 176.009 197.734 168.732" stroke="#EB8356" stroke-width="3" stroke-linecap="round"/>
<circle cx="58.1845" cy="94.4805" r="25.1955" transform="rotate(-29.0193 58.1845 94.4805)" fill="#FE9F3A"/>
<path d="M65.8547 106.488L66.9504 108.832C67.3335 109.652 66.9784 110.626 66.158 111.008C65.3382 111.388 64.365 111.032 63.9852 110.212L62.9498 107.976C60.5746 108.889 58.0066 109.246 55.8989 109.003C54.9311 108.892 54.2761 108.037 54.2132 107.065C54.1088 105.449 55.6589 104.177 57.278 104.133C58.4901 104.1 59.7298 103.892 60.8831 103.504L58.2204 97.7962C54.5165 98.3968 50.2414 98.834 47.9664 93.948C46.2806 90.3264 47.0977 86.1598 51.4995 83.3452L50.4238 81.0371C50.0417 80.2173 50.3973 79.2431 51.2175 78.862C52.0377 78.481 53.0115 78.8377 53.3916 79.6584L54.4266 81.8937C56.1289 81.2861 57.913 80.9589 59.605 80.9909C60.6862 81.0113 61.4895 81.9137 61.5942 82.99C61.7467 84.559 60.3791 85.8343 58.8087 85.9717C58.0113 86.0414 57.2553 86.1884 56.5444 86.408L59.2447 92.2155C62.9553 91.586 67.137 91.1575 69.3966 95.979C71.038 99.5294 70.2276 103.667 65.8903 106.466L65.8547 106.488ZM55.8567 92.7677L53.6039 87.9173C52.2118 89.0558 52.0672 90.3322 52.5966 91.4608C53.1415 92.6539 54.3331 92.9007 55.8567 92.7677ZM64.7905 98.6242C64.2456 97.4311 63.0829 97.191 61.5728 97.2662L63.7658 101.981C65.0799 100.916 65.2978 99.7171 64.7905 98.6242Z" fill="white"/>
<path d="M67.3809 52L65.2487 64.0036" stroke="#FE9F3A" stroke-width="3" stroke-linecap="round"/>
<path d="M38.3535 53.9541L43.6427 64.7621" stroke="#FE9F3A" stroke-width="3" stroke-linecap="round"/>
<path d="M91.4434 71.5699L81.4698 77.585" stroke="#FE9F3A" stroke-width="3" stroke-linecap="round"/>
<path d="M34.9994 274C75.4992 293 77 300 148.499 300C233.787 300 291.234 247.5 291.529 212.882C291.704 192.358 285.573 176.982 271.924 179.205C261.943 180.83 263.178 191.317 270.894 197.175C288.624 210.637 301.178 197.133 309.96 188.396C322.77 174.607 323.166 172.79 332.511 158.301" stroke="#8FB4DF" stroke-width="3" stroke-linecap="round" stroke-dasharray="8 8"/>
<path d="M167 205.5C173 208.5 177.5 212 181.5 215.5" stroke="#2E58D7" stroke-width="3" stroke-linecap="round"/>
<path d="M210.5 205C197 206.5 186.5 212.5 182 215.5" stroke="#2E58D7" stroke-width="3" stroke-linecap="round"/>
<path d="M151.001 206C149.001 210 146.001 219.5 148.501 228.5" stroke="#2E58D7" stroke-width="3" stroke-linecap="round"/>
<path d="M117.861 237.81C111.999 239.782 104.982 239.839 105.621 235.274C105.92 233.138 108.872 232.005 115.312 230.991C101.854 232.063 102.722 224.069 108.118 222.535C108.935 222.303 111.407 222.273 114.597 222.019C110.105 222.308 103.093 222.434 102.736 217.948C102.378 213.463 108.779 211.949 113.763 211.552" stroke="#EB8356" stroke-width="3" stroke-linecap="round" stroke-linejoin="round"/>
</g>
<defs>
<filter id="filter0_i_97_24655" x="155.739" y="225.049" width="84.7229" height="55.4657" filterUnits="userSpaceOnUse" color-interpolation-filters="sRGB">
<feFlood flood-opacity="0" result="BackgroundImageFix"/>
<feBlend mode="normal" in="SourceGraphic" in2="BackgroundImageFix" result="shape"/>
<feColorMatrix in="SourceAlpha" type="matrix" values="0 0 0 0 0 0 0 0 0 0 0 0 0 0 0 0 0 0 127 0" result="hardAlpha"/>
<feOffset dx="-1" dy="-2"/>
<feComposite in2="hardAlpha" operator="arithmetic" k2="-1" k3="1"/>
<feColorMatrix type="matrix" values="0 0 0 0 0.0950753 0 0 0 0 0.648756 0 0 0 0 0.687874 0 0 0 1 0"/>
<feBlend mode="normal" in2="shape" result="effect1_innerShadow_97_24655"/>
</filter>
<clipPath id="clip0_97_24655">
<rect width="375" height="358" fill="white"/>
</clipPath>
</defs>
</svg>
