<svg width="375" height="358" viewBox="0 0 375 358" fill="none" xmlns="http://www.w3.org/2000/svg">
<g clip-path="url(#clip0_97_24508)">
<path d="M376 104L-8.34465e-07 236" stroke="#8FB4DF" stroke-width="3" stroke-dasharray="8 8"/>
<path d="M265 98.9996V300.373C265 305.076 262.931 309.541 259.343 312.581L251.806 318.967C247.68 322.462 242.067 323.637 236.886 322.09L138.929 292.845C132.547 290.94 128.013 285.281 127.545 278.637L111.031 44.0498C110.448 35.7653 116.3 28.4119 124.504 27.1208L134.661 25.5223C137.009 25.1528 139.409 25.311 141.688 25.9853L253.54 59.0828C260.337 61.094 265 67.3372 265 74.4252V98.9996Z" fill="#8FB4DF"/>
<path d="M256.087 77.7115V307.563C256.087 318.264 245.786 325.948 235.529 322.9L121.938 289.139C115.15 287.122 110.496 280.883 110.496 273.803V44.3579C110.496 33.6792 120.758 25.9975 131.004 29.006L244.595 62.3597C251.408 64.3601 256.087 70.6111 256.087 77.7115Z" fill="#13CF36"/>
<path d="M256.087 77.7115V307.563C256.087 318.264 245.786 325.948 235.529 322.9L121.938 289.139C115.15 287.122 110.496 280.883 110.496 273.803V44.3579C110.496 33.6792 120.758 25.9975 131.004 29.006L244.595 62.3597C251.408 64.3601 256.087 70.6111 256.087 77.7115Z" fill="#13CF36"/>
<path d="M255.081 78.5015V308.555C255.081 318.252 245.747 325.216 236.452 322.455L121.87 288.412C115.719 286.584 111.5 280.93 111.5 274.512V43.3714C111.5 33.6944 120.799 26.7329 130.084 29.4584L243.229 62.6694C250.255 64.7319 255.081 71.1786 255.081 78.5015Z" fill="white" stroke="#8FB4DF" stroke-width="3"/>
<path d="M240.736 112.056V234.119C240.736 244.815 230.443 252.5 220.188 249.46L137.3 224.887C130.507 222.874 125.848 216.632 125.848 209.547V87.7801C125.848 77.1059 136.101 69.4249 146.345 72.4251L229.233 96.7012C236.051 98.698 240.736 104.952 240.736 112.056Z" fill="#E9F0F9"/>
<path d="M168.93 55.5625L191.709 62.4728" stroke="#8FB4DF" stroke-width="4" stroke-linecap="round"/>
<path d="M139.926 185.763C142.884 181.069 147.377 177.544 152.641 175.79L184.604 165.136C192.815 162.399 201.413 161.003 210.068 161.003C219.614 161.003 229.083 162.701 238.035 166.016L270.385 177.998C275.514 179.897 279.501 184.026 281.221 189.219L303.5 256.503L194 271.003L98.6503 276.846L114.304 231.39C116.81 224.114 120.148 217.15 124.251 210.639L139.926 185.763Z" fill="#24C875"/>
<path d="M182 155L175.889 163.806L172 170H228.111C229.222 168.796 233.056 167.065 233.5 165C231.398 161.826 227.469 155.948 224.265 151.461C221.409 147.461 216.819 146.036 212 147L182 155Z" fill="#24C875"/>
<path d="M180.097 193.678C178.168 180.176 182.482 164.568 195.5 160.5C209.797 156.031 221.434 171.863 218.198 186.488L201.538 261.806C200.932 264.548 198.501 266.5 195.693 266.5C192.713 266.5 190.187 264.309 189.766 261.36L180.097 193.678Z" fill="#F5F5F5"/>
<path d="M182.127 161.476C181.426 157.572 181.703 153.555 182.934 149.784L194.477 114.422L217.683 156.638C218.901 158.855 219.776 161.345 219.061 163.771C218.092 167.062 215.279 171.856 207.296 175.449C197.179 180.003 189.9 176.851 186.43 174.535C184.829 173.467 183.961 171.683 183.621 169.789L182.127 161.476Z" fill="#F8C29D"/>
<ellipse cx="185.508" cy="121.629" rx="30.0943" ry="37.6123" transform="rotate(5.8258 185.508 121.629)" fill="#FFD2B3"/>
<path d="M222.494 83.9499C218.075 77.5354 202.145 75.4051 198.099 76.3906C201.458 95.2055 213.481 126.154 214.085 129.541C220.072 114.353 234.988 102.086 222.494 83.9499Z" fill="black"/>
<ellipse cx="187.278" cy="124.257" rx="2.26499" ry="3.96373" transform="rotate(-4.35957 187.278 124.257)" fill="black"/>
<ellipse cx="163.419" cy="123.866" rx="2.26499" ry="3.96373" transform="rotate(-4.35957 163.419 123.866)" fill="black"/>
<path d="M173.205 125.846L169.325 131.398C168.356 132.784 169.437 134.671 171.122 134.538L173.875 134.32" stroke="#EB8356" stroke-width="2" stroke-linecap="round" stroke-linejoin="round"/>
<path d="M159.657 95.6983L181.417 91.7045C183.008 100.621 191.771 108.797 199.738 112.515C206.112 115.489 216.505 114.716 220.793 115.656C222.785 113.18 223.465 104.663 220.286 91.8938C215.311 64.7863 186.827 68.2296 176.69 71.2412C159.435 78.4372 152.585 96.9963 159.657 95.6983Z" fill="black"/>
<path d="M180.846 106.031C184.085 119.72 201.89 118.969 209.791 117.364L208.585 95.496L201.954 85.9697L177.603 75.4004C175.982 74.5043 171.028 74.1721 164.181 80.0124C155.622 87.3127 154.632 114.259 156.607 110.386C158.875 105.94 160.415 99.1515 164.669 97.7368C166.625 97.0862 167.736 98.5058 169.346 99.8875C174.028 95.4705 179.058 98.4745 180.846 106.031Z" fill="black"/>
<path d="M204.585 69.3296C204.658 71.6943 209.657 75.5137 210.794 76.3215C209.544 78.5838 206.695 83.3757 205.299 84.4451C203.554 85.7818 219.296 90.2751 217.714 81.4173C214.341 70.8557 204.316 66.7031 204.585 69.3296Z" fill="black"/>
<path d="M155.514 121.958C142.059 94.1716 152.243 73.6097 171.028 76.6909C171.579 83.9278 161.995 96.8598 159.545 103.642C155.82 113.955 155.826 119.427 155.514 121.958Z" fill="black"/>
<path d="M146.425 106.803C147.552 94.2234 150.48 87.4579 152.696 84.5509L152.576 98.133C150.236 104.738 145.298 119.383 146.425 106.803Z" fill="black"/>
<path d="M202.697 114.928C201.678 111.476 201.125 110.453 198.125 110.502C196.768 109.023 196.054 106.135 196.028 104.535L195.972 101.035C198.461 100.328 203.837 98.8078 205.43 98.3819C207.422 97.8497 211.445 99.2848 216.969 100.696C221.388 101.824 222.202 104.778 222.057 106.114C222.426 108.275 222.341 112.589 221.567 114.202C220.6 116.218 219.26 118.661 218.744 117.669C218.228 116.677 216.712 115.702 214.212 115.742C211.712 115.783 209.235 117.227 205.897 127.282C205.11 129.655 204.284 120.305 202.697 114.928Z" fill="black"/>
<ellipse cx="213.399" cy="123.241" rx="5.35461" ry="8.83752" transform="rotate(20.334 213.399 123.241)" fill="#FFD2B3"/>
<path d="M232 165.171L219.5 150L201 262.5L228.736 202.108C230.55 198.157 228.877 193.479 224.968 191.576L217.211 187.8L227.081 183.681C230.06 182.438 232 179.526 232 176.298V165.171Z" fill="#24C875"/>
<path d="M167.538 175.744L168.999 173L177.499 162.502L179.999 163.001L180 174.501L189.999 264.501L165.182 203.693C163.395 199.313 165.778 194.347 170.313 193.001L177.613 190.834L170.351 186.282C166.793 184.052 165.565 179.45 167.538 175.744Z" fill="#24C875"/>
<path d="M311.805 175.105C311.04 175.103 310.339 175.538 310.003 176.226L302.444 191.662C301.55 193.488 301.127 195.92 301.213 198.51C301.298 201.101 301.925 203.516 302.942 205.295L310.13 217.84C310.537 218.55 311.334 218.941 312.144 218.827L326.462 216.812C330.686 216.215 335.65 212.643 337.515 208.834L345.063 193.417C345.4 192.73 345.315 191.911 344.844 191.308L332.856 175.939C332.478 175.455 331.899 175.171 331.286 175.169L311.805 175.105Z" fill="#FE9F3A"/>
<path d="M319.154 206.109L318.43 207.756C318.177 208.332 317.504 208.593 316.929 208.338C316.354 208.084 316.095 207.411 316.35 206.837L317.045 205.271C315.479 204.446 314.116 203.266 313.278 202.052C312.892 201.495 313.039 200.761 313.519 200.282C314.317 199.487 315.693 199.716 316.458 200.543C317.03 201.162 317.707 201.715 318.438 202.141L320.205 198.133C318.194 196.47 316.006 194.433 317.52 191.005C318.643 188.463 321.197 186.982 324.686 187.996L325.401 186.375C325.655 185.8 326.328 185.54 326.903 185.794C327.478 186.049 327.738 186.722 327.482 187.297L326.787 188.862C327.885 189.475 328.873 190.258 329.632 191.158C330.116 191.733 330.012 192.567 329.497 193.115C328.746 193.913 327.452 193.782 326.661 193.023C326.259 192.638 325.836 192.31 325.395 192.038L323.594 196.112C325.623 197.765 327.763 199.756 326.276 203.148C325.17 205.633 322.634 207.105 319.182 206.118L319.154 206.109ZM321.753 194.592L323.258 191.191C322.025 190.985 321.291 191.494 320.943 192.288C320.568 193.119 320.985 193.856 321.753 194.592ZM322.781 201.95C323.156 201.118 322.749 200.4 322.018 199.644L320.556 202.951C321.715 203.151 322.442 202.716 322.781 201.95Z" fill="white"/>
<path fill-rule="evenodd" clip-rule="evenodd" d="M102.225 112.089C84.192 114.733 67.4303 102.258 64.7863 84.2256C62.1423 66.193 74.6173 49.4313 92.6499 46.7873C110.682 44.1434 127.444 56.6183 130.088 74.6509C131.236 82.4769 129.535 90.0635 125.769 96.3606L129.908 104.047C130.626 105.38 129.661 106.996 128.147 106.996L115.606 106.996C111.695 109.578 107.169 111.364 102.225 112.089Z" fill="#284EDB"/>
<path d="M97.6317 79.8172C95.876 80.0746 94.3034 79.8713 92.914 79.2072C91.5407 78.5215 90.3966 77.4261 89.4817 75.9211C88.5856 74.4133 87.9716 72.5267 87.6394 70.2612C87.3072 67.9958 87.3539 66.0123 87.7793 64.3108C88.2237 62.6065 89.0066 61.2382 90.128 60.206C91.2655 59.1521 92.7121 58.4965 94.4678 58.239C96.2424 57.9788 97.8164 58.1916 99.1897 58.8773C100.56 59.5442 101.693 60.6315 102.59 62.1393C103.504 63.6443 104.128 65.5295 104.46 67.795C104.792 70.0604 104.736 72.0452 104.292 73.7496C103.866 75.4511 103.094 76.8274 101.976 77.8785C100.854 78.9108 99.4063 79.557 97.6317 79.8172ZM96.8843 74.72C97.8282 74.5816 98.5197 74.0366 98.9587 73.0852C99.4166 72.131 99.4947 70.625 99.193 68.5672C98.8913 66.5095 98.3842 65.0893 97.6716 64.3067C96.9779 63.5213 96.1591 63.1978 95.2152 63.3362C94.2902 63.4719 93.5987 64.0168 93.1408 64.971C92.7018 65.9225 92.6331 67.4271 92.9348 69.4848C93.2365 71.5426 93.7342 72.9641 94.4279 73.7495C95.1405 74.5321 95.9593 74.8556 96.8843 74.72Z" fill="white"/>
<path d="M91.9219 93.809L92.1067 95.0695L86.5521 95.8839L86.9502 98.5989C87.0741 99.4439 86.8914 99.8385 86.338 100.118C85.8006 100.409 84.8627 100.575 83.4339 100.77C83.3 100.436 82.9654 99.8906 82.7068 99.5748C83.8211 99.4539 84.9292 99.2914 85.2458 99.2308C85.5505 99.1861 85.6471 99.0729 85.6045 98.782L85.2085 96.0809L79.64 96.8974L79.4552 95.6369L85.0236 94.8204L84.7352 92.8534L80.1087 93.5318L79.9279 92.299L84.5545 91.6206L84.2783 89.7368C82.8144 90.0787 81.3187 90.3971 79.9278 90.6576C79.8673 90.3411 79.6239 89.8391 79.4586 89.5803C82.7053 88.9486 86.5587 88.0157 88.6282 87.0755L89.7383 87.9882C88.584 88.5111 87.1502 88.9619 85.5995 89.3874L85.8981 91.4236L90.6632 90.7249L90.8439 91.9578L86.0789 92.6564L86.3673 94.6234L91.9219 93.809ZM100.412 87.5409L100.323 86.9314L96.9155 87.4311L96.7875 86.5584L100.195 86.0588L100.096 85.38L101.356 85.1952L101.456 85.874L104.697 85.3987L104.825 86.2714L101.584 86.7466L101.673 87.3561L104.429 86.9519L104.551 87.7831L97.6669 88.7925L97.545 87.9613L100.412 87.5409ZM98.4534 90.0072L98.5997 91.0045L99.9018 90.8136L99.7555 89.8163L98.4534 90.0072ZM104.196 90.184L104.05 89.1867L102.928 89.3512L103.074 90.3485L104.196 90.184ZM100.885 90.6694L102.09 90.4927L101.944 89.4954L100.739 89.6721L100.885 90.6694ZM97.6549 91.992L97.265 89.3325L105.05 88.1911L105.44 90.8506L97.6549 91.992ZM98.1001 94.0634L97.2029 94.5062C97.1427 94.2887 97.0507 94.0474 96.9527 93.7647C94.4192 94.5323 94.0179 94.6902 93.7632 94.8832C93.6733 94.6558 93.4278 94.14 93.2467 93.8694C93.5254 93.7437 93.7675 93.3686 94.092 92.7833C94.2396 92.5353 94.5364 91.954 94.8525 91.2144C93.6815 91.5276 93.389 91.6553 93.2072 91.7669C93.1173 91.5395 92.86 91.0396 92.6927 90.767C92.9339 90.675 93.1011 90.3675 93.3013 89.8995C93.5195 89.4572 94.1329 87.7542 94.3845 86.1891L95.5299 86.4739C95.2141 87.7937 94.736 89.1656 94.2096 90.304L95.359 90.0364C95.5902 89.3941 95.8272 88.6943 96.0128 88.0304L97.0955 88.4659C96.5472 90.131 95.7794 91.8425 94.9433 93.2811L96.6007 92.8117C96.4289 92.4123 96.2413 92.0012 96.0618 91.6455L96.9138 91.28C97.3725 92.1891 97.8837 93.3593 98.1001 94.0634ZM94.0046 95.3714L95.0422 95.4032C95.0925 96.7117 95.0443 98.1196 94.8833 99.0488C94.6434 98.9566 94.1383 98.8892 93.865 98.8585C94.0536 97.9253 94.0566 96.5947 94.0046 95.3714ZM95.3803 95.297L96.2445 95.0146C96.5728 95.9994 96.9003 97.2673 97.0698 98.1339L96.1404 98.4541C95.9986 97.5835 95.681 96.2858 95.3803 95.297ZM96.6023 94.849L97.3989 94.4916C97.7778 95.2426 98.2646 96.2466 98.4888 96.9071L97.6567 97.3121C97.4326 96.6516 96.9991 95.6256 96.6023 94.849ZM99.7512 95.0948L99.8325 95.6488L104.362 94.9847L104.281 94.4306L99.7512 95.0948ZM99.5969 94.042L99.672 94.5545L104.202 93.8904L104.126 93.3779L99.5969 94.042ZM99.4446 93.0031L99.5177 93.5018L104.047 92.8377L103.974 92.339L99.4446 93.0031ZM105.657 95.5165L103.676 95.8069C104.71 96.009 105.81 96.2722 106.534 96.4775L106.141 97.4689C105.356 97.2302 104.116 96.8744 103.02 96.6389L103.33 95.8577L101.086 96.1867L101.951 96.7814C100.97 97.4206 99.701 98.1301 98.7842 98.6325C98.6507 98.3973 98.3861 98.04 98.1674 97.8032C98.9579 97.4043 100.09 96.7289 100.809 96.2273L98.7863 96.5238L98.1892 92.4514L105.06 91.444L105.657 95.5165ZM110.523 93.19L110.63 93.9241L117.099 92.9756L116.992 92.2415L110.523 93.19ZM113.931 87.9643L111.673 88.2953C111.528 88.6562 111.309 88.9995 110.976 89.3314L114.065 88.8785L113.931 87.9643ZM110.644 86.8756L108.996 87.1173C108.991 87.3727 108.986 87.6281 108.979 87.8697L110.586 87.6341C110.648 87.3844 110.655 87.1428 110.644 86.8756ZM111.604 85.2208L111.704 85.8995L113.588 85.6233L113.488 84.9446L111.604 85.2208ZM116.535 84.4977L114.707 84.7658L114.807 85.4446L116.635 85.1765L116.535 84.4977ZM113.813 87.1609L113.705 86.4267L111.822 86.7029C111.86 86.9661 111.867 87.2057 111.846 87.4493L113.813 87.1609ZM117.754 87.4037L115.15 87.7855L115.284 88.6998L116.752 88.4845C116.686 88.3244 116.595 88.1821 116.521 88.0656C116.901 88.0523 117.235 88.0174 117.374 87.9971C117.526 87.9748 117.607 87.9487 117.678 87.8534C117.724 87.7761 117.749 87.6591 117.754 87.4037ZM116.667 90.0252L116.563 89.3187L110.094 90.2672L110.198 90.9736L116.667 90.0252ZM116.882 91.4935L116.776 90.7732L110.308 91.7217L110.413 92.442L116.882 91.4935ZM118.515 93.5604L116.52 93.8529C117.881 94.0637 119.282 94.3535 120.194 94.5877L119.354 95.5174C118.391 95.22 116.736 94.8401 115.141 94.5787L115.592 93.989L111.922 94.5272L112.984 94.8242C111.957 95.6398 110.303 96.519 108.971 97.0822C108.739 96.8475 108.201 96.4594 107.905 96.2764C109.228 95.8419 110.73 95.183 111.631 94.5698L109.498 94.8826L108.876 90.6439C108.544 90.7917 108.182 90.9296 107.777 91.0598C107.623 90.7852 107.247 90.345 107.019 90.138C108.657 89.629 109.595 89.0811 110.108 88.5248L107.822 88.8599C107.879 88.1866 107.881 87.2382 107.853 86.4641L110.54 86.0701L110.441 85.3914L107.172 85.8707L107.054 85.0673L110.323 84.588L110.221 83.8954L111.385 83.7248L111.486 84.4174L113.37 84.1412L113.269 83.4486L114.488 83.2698L114.589 83.9624L117.595 83.5217L117.93 85.8073L114.924 86.248L115.032 86.9821L118.911 86.4135C118.911 86.4135 118.931 86.651 118.938 86.7915C118.97 87.5933 118.95 88.0349 118.789 88.2849C118.621 88.4934 118.384 88.6131 118.109 88.6676C118.028 88.6936 117.931 88.7078 117.806 88.7261L118.515 93.5604Z" fill="white"/>
<path d="M166.41 85.1238C160.655 83.7379 155.996 92.2553 155.804 95.2907" stroke="#2F2F2F" stroke-width="3" stroke-linecap="round"/>
<path d="M171.512 81.7732C175.531 76.839 184.165 77.058 189.767 78.4366C198.532 80.5936 204.37 88.5416 208.712 96.605" stroke="#2F2F2F" stroke-width="3" stroke-linecap="round"/>
<path d="M233.262 164.189C232.814 163.492 231.886 163.29 231.189 163.738C230.492 164.186 230.29 165.114 230.738 165.811L233.262 164.189ZM219.5 191L218.769 189.69C218.305 189.949 218.013 190.434 218 190.965C217.988 191.496 218.258 191.994 218.709 192.274L219.5 191ZM208.562 236.573C208.326 237.367 208.779 238.202 209.573 238.438C210.367 238.674 211.202 238.221 211.438 237.427L208.562 236.573ZM217.5 218.5L216.212 217.731H216.212L217.5 218.5ZM237.283 181.075L236.552 179.765L237.283 181.075ZM230.738 165.811L237.436 176.23L239.96 174.608L233.262 164.189L230.738 165.811ZM236.552 179.765L218.769 189.69L220.231 192.31L238.014 182.385L236.552 179.765ZM218.709 192.274L228.638 198.438L230.22 195.889L220.291 189.726L218.709 192.274ZM229.027 202.601C225.208 206.319 219.419 212.357 216.212 217.731L218.788 219.269C221.774 214.264 227.305 208.464 231.12 204.75L229.027 202.601ZM216.212 217.731C214.138 221.207 212.223 225.944 210.842 229.748C210.147 231.663 209.578 233.366 209.183 234.59C208.985 235.202 208.83 235.696 208.725 236.037C208.672 236.208 208.632 236.341 208.605 236.432C208.591 236.477 208.58 236.512 208.573 236.535C208.57 236.547 208.567 236.556 208.565 236.563C208.564 236.566 208.563 236.568 208.563 236.57C208.563 236.571 208.562 236.572 208.562 236.572C208.562 236.572 208.562 236.573 208.562 236.573C208.562 236.573 208.562 236.573 210 237C211.438 237.427 211.438 237.427 211.438 237.427C211.438 237.427 211.438 237.427 211.438 237.427C211.438 237.427 211.438 237.426 211.438 237.426C211.439 237.424 211.439 237.423 211.44 237.42C211.442 237.415 211.444 237.407 211.447 237.396C211.453 237.375 211.463 237.343 211.476 237.3C211.502 237.214 211.541 237.087 211.592 236.922C211.694 236.592 211.844 236.11 212.038 235.512C212.424 234.313 212.981 232.646 213.662 230.772C215.032 227 216.867 222.487 218.788 219.269L216.212 217.731ZM228.638 198.438C230.052 199.315 230.279 201.381 229.027 202.601L231.12 204.75C233.708 202.23 233.362 197.838 230.22 195.889L228.638 198.438ZM237.436 176.23C238.216 177.443 237.811 179.062 236.552 179.765L238.014 182.385C240.784 180.839 241.675 177.276 239.96 174.608L237.436 176.23Z" fill="#1B9D5B"/>
<path d="M172.258 174.317C172.709 173.623 172.512 172.694 171.817 172.242C171.123 171.791 170.194 171.988 169.742 172.683L172.258 174.317ZM174.5 191.5L175.265 192.79C175.688 192.539 175.962 192.096 175.996 191.605C176.031 191.113 175.822 190.636 175.437 190.329L174.5 191.5ZM180.524 245.77C180.673 246.585 181.455 247.125 182.27 246.976C183.085 246.827 183.625 246.045 183.476 245.23L180.524 245.77ZM173.5 218.5L172.16 219.173L173.5 218.5ZM169.742 172.683L165.218 179.643L167.733 181.278L172.258 174.317L169.742 172.683ZM166.393 186.936L173.563 192.671L175.437 190.329L168.267 184.593L166.393 186.936ZM173.735 190.21L164.12 195.908L165.649 198.489L175.265 192.79L173.735 190.21ZM162.473 204.001C165.313 207.92 169.663 214.206 172.16 219.173L174.84 217.827C172.224 212.62 167.744 206.162 164.903 202.241L162.473 204.001ZM172.16 219.173C174.892 224.611 176.986 231.245 178.401 236.566C179.106 239.217 179.638 241.524 179.993 243.166C180.171 243.987 180.304 244.641 180.393 245.089C180.437 245.312 180.471 245.484 180.492 245.599C180.503 245.657 180.512 245.701 180.517 245.729C180.52 245.743 180.522 245.754 180.523 245.761C180.523 245.764 180.524 245.767 180.524 245.768C180.524 245.769 180.524 245.769 180.524 245.77C180.524 245.77 180.524 245.77 180.524 245.77C180.524 245.77 180.524 245.77 182 245.5C183.476 245.23 183.475 245.23 183.475 245.23C183.475 245.23 183.475 245.229 183.475 245.229C183.475 245.228 183.475 245.227 183.475 245.226C183.474 245.224 183.474 245.22 183.473 245.216C183.471 245.208 183.469 245.195 183.466 245.179C183.46 245.147 183.451 245.1 183.44 245.039C183.416 244.917 183.382 244.737 183.336 244.506C183.244 244.042 183.107 243.371 182.926 242.532C182.562 240.853 182.02 238.5 181.3 235.795C179.866 230.403 177.71 223.537 174.84 217.827L172.16 219.173ZM164.12 195.908C161.277 197.592 160.559 201.36 162.473 204.001L164.903 202.241C164 200.996 164.361 199.252 165.649 198.489L164.12 195.908ZM165.218 179.643C163.676 182.015 164.185 185.169 166.393 186.936L168.267 184.593C167.264 183.79 167.032 182.356 167.733 181.278L165.218 179.643Z" fill="#1B9D5B"/>
<path d="M68.2559 187.437L88.9644 177.775L110.157 210.12C116.078 219.157 111.525 231.343 101.129 234.284L98.8834 234.919C90.9502 236.998 82.7749 232.517 80.2607 224.711L68.2559 187.437Z" fill="#FFD2B3"/>
<path d="M71.8033 198.013L79.9236 195.079L98.2277 188.856L91.2992 175.852C92.3803 165.256 88.1242 154.815 79.9431 147.994L78.8969 147.122L74.764 147.84L70.3303 148.609L64.9027 151.961L59.5843 169.286L50.2189 178.923C50.2189 178.923 46.5608 187.089 57.9267 188.243C70.8411 189.553 82.986 186.43 82.986 186.43L71.8033 198.013Z" fill="#FFD2B3"/>
<path d="M74.5495 129.078C72.1653 125.235 66.252 126.745 66.0009 131.26C65.9842 131.561 65.9969 131.862 66.0388 132.161L66.6567 136.554C67.393 141.791 69.6632 146.692 73.1812 150.64L89.7999 187.679C89.7999 187.679 97.3636 175.709 93.406 161.679C91.0463 153.314 86.5943 148.754 86.5943 148.754L80.6116 138.847L74.5495 129.078Z" fill="#FFD2B3"/>
<path d="M48.1319 152.29C53.6848 148.377 76.9573 145.859 81.4114 148.131C81.3879 153.708 52.9797 162.259 48.8801 161.552C44.7805 160.845 41.1907 157.182 48.1319 152.29Z" fill="#FFD2B3"/>
<path d="M59.8293 179.588C62.3625 179.424 64.2256 177.225 63.9712 174.7C63.7191 172.197 61.4822 170.327 58.975 170.523L48.6834 171.324C45.8502 171.545 43.9922 174.305 44.8425 177.03C45.4731 179.051 47.4214 180.394 49.5251 180.257L59.8293 179.588Z" fill="#FFD2B3"/>
<path d="M62.3143 185.2C63.9947 184.824 65.1079 183.261 64.9172 181.545C64.7229 179.796 63.2385 178.446 61.4753 178.413L55.0041 178.294C51.9108 178.237 49.8783 181.4 51.2009 184.212C52.0602 186.039 54.0803 187.039 56.0314 186.603L62.3143 185.2Z" fill="#FFD2B3"/>
<path d="M58.4893 172.321C61.1418 172.194 63.2584 169.98 63.2652 167.325C63.2722 164.611 61.0765 162.454 58.3647 162.512L46.6015 162.761C43.3975 162.829 40.9994 165.824 41.6449 168.95C42.1385 171.341 44.2809 172.997 46.7299 172.88L58.4893 172.321Z" fill="#FFD2B3"/>
<path d="M61.544 164.051C63.3945 164.036 65.1299 163.077 66.146 161.507C68.4649 157.924 66.0314 153.265 61.8106 153.207L49.6211 153.039C46.1995 152.992 43.4857 156.029 43.9212 159.418C44.2726 162.153 46.5859 164.168 49.348 164.147L61.544 164.051Z" fill="#FFD2B3"/>
<path d="M56.7205 161.663C58.3642 161.91 60.8968 162.099 63.92 160.35" stroke="#EB8356" stroke-width="3" stroke-linecap="round"/>
<path d="M63.725 160.421L62.7446 159.158C62.4009 159.434 62.224 159.882 62.2676 160.368C62.3111 160.853 62.5699 161.317 62.9656 161.62L63.725 160.421ZM64.4265 169.439L63.5005 168.135C62.9874 168.501 62.8196 169.218 63.0915 169.883C63.3634 170.548 64.0071 170.995 64.661 170.973L64.4265 169.439ZM64.0783 177.444L63.591 175.942C62.8403 176.117 62.4389 176.912 62.6876 177.732C62.9363 178.552 63.7438 179.096 64.5053 178.957L64.0783 177.444ZM69.8362 180.654L68.3741 180.534L69.8362 180.654ZM64.7452 183.329C63.9636 183.439 63.4978 184.21 63.7047 185.051C63.9117 185.891 64.713 186.484 65.4946 186.374L64.7452 183.329ZM56.4846 151.609C55.7324 151.816 55.3629 152.65 55.6593 153.473C55.9556 154.295 56.8057 154.794 57.5579 154.587L56.4846 151.609ZM60.3058 152.663L60.4278 154.196L60.3058 152.663ZM63.8324 155.894C64.0775 156.812 63.8569 157.595 63.4951 158.222C63.316 158.533 63.1157 158.779 62.9607 158.946C62.8841 159.028 62.8212 159.088 62.7815 159.125C62.7617 159.143 62.7479 159.155 62.7413 159.161C62.738 159.163 62.7365 159.165 62.737 159.164C62.7373 159.164 62.738 159.163 62.7393 159.162C62.7399 159.162 62.7407 159.161 62.7416 159.16C62.742 159.16 62.7425 159.16 62.743 159.159C62.7433 159.159 62.7437 159.159 62.7438 159.159C62.7442 159.158 62.7446 159.158 63.725 160.421C64.7054 161.684 64.7058 161.683 64.7063 161.683C64.7064 161.683 64.7069 161.682 64.7072 161.682C64.7079 161.682 64.7086 161.681 64.7093 161.68C64.7107 161.679 64.7123 161.678 64.7141 161.677C64.7175 161.674 64.7215 161.67 64.7261 161.667C64.7352 161.659 64.7466 161.65 64.7599 161.638C64.7865 161.615 64.8212 161.585 64.8626 161.547C64.9452 161.471 65.0554 161.365 65.1816 161.229C65.4322 160.96 65.7566 160.563 66.0533 160.048C66.6433 159.025 67.1798 157.43 66.6457 155.43L63.8324 155.894ZM63.725 160.421C62.9656 161.62 62.9651 161.62 62.9646 161.619C62.9644 161.619 62.9639 161.619 62.9636 161.618C62.9631 161.618 62.9626 161.618 62.9622 161.617C62.9615 161.617 62.9611 161.617 62.961 161.616C62.961 161.616 62.9624 161.618 62.9652 161.62C62.9707 161.624 62.9817 161.633 62.9977 161.646C63.0297 161.672 63.0812 161.714 63.1478 161.772C63.2817 161.888 63.4731 162.062 63.6889 162.283C64.1321 162.737 64.6216 163.331 64.9529 163.979C65.2759 164.61 65.4139 165.218 65.2976 165.813C65.18 166.415 64.7563 167.237 63.5005 168.135L65.3525 170.743C66.961 169.593 67.8818 168.265 68.1697 166.792C68.4589 165.312 68.0635 163.922 67.495 162.811C66.9349 161.715 66.1749 160.823 65.5915 160.225C65.294 159.92 65.0278 159.678 64.8324 159.509C64.7344 159.424 64.6533 159.356 64.5939 159.308C64.5642 159.284 64.5398 159.265 64.5214 159.25C64.5122 159.243 64.5044 159.237 64.4983 159.232C64.4952 159.23 64.4925 159.228 64.4901 159.226C64.489 159.225 64.4879 159.224 64.487 159.223C64.4865 159.223 64.4859 159.223 64.4856 159.222C64.485 159.222 64.4844 159.221 63.725 160.421ZM64.661 170.973C65.6791 170.938 66.2817 171.251 66.6013 171.546C66.9187 171.839 67.1197 172.26 67.1309 172.78C67.1528 173.801 66.3488 175.438 63.6512 175.93L64.5053 178.957C68.1067 178.3 70.1167 175.845 70.058 173.106C70.0288 171.746 69.4658 170.369 68.3693 169.358C67.275 168.348 65.8138 167.849 64.192 167.904L64.661 170.973ZM64.5655 178.945C65.5696 178.712 66.65 178.613 67.4062 178.855C67.7373 178.961 67.9183 179.105 68.034 179.262C68.155 179.425 68.3376 179.784 68.3741 180.534L71.2982 180.774C71.2389 179.555 70.9133 178.468 70.2611 177.585C69.6035 176.695 68.7463 176.192 67.9213 175.927C66.3654 175.428 64.6628 175.693 63.591 175.942L64.5655 178.945ZM68.3741 180.534C68.3941 180.944 68.1862 181.539 67.5132 182.133C66.859 182.712 65.8856 183.169 64.7452 183.329L65.4946 186.374C67.0821 186.151 68.5155 185.51 69.5618 184.585C70.5893 183.677 71.3756 182.365 71.2982 180.774L68.3741 180.534ZM66.6457 155.43C66.0765 153.3 64.6415 152.181 63.2741 151.656C62.0152 151.173 60.7228 151.155 60.1839 151.129L60.4278 154.196C61.0964 154.228 61.8811 154.252 62.5921 154.525C63.1946 154.756 63.6224 155.109 63.8324 155.894L66.6457 155.43ZM60.1839 151.129C59.3022 151.087 58.3628 151.218 57.6914 151.341C57.3453 151.404 57.0486 151.47 56.8373 151.52C56.7314 151.546 56.6461 151.567 56.586 151.582C56.5559 151.59 56.532 151.597 56.515 151.601C56.5064 151.603 56.4996 151.605 56.4945 151.607C56.492 151.607 56.4899 151.608 56.4882 151.608C56.4874 151.609 56.4867 151.609 56.4861 151.609C56.4858 151.609 56.4855 151.609 56.4852 151.609C56.4851 151.609 56.485 151.609 56.4849 151.609C56.4847 151.609 56.4846 151.609 57.0213 153.098C57.5579 154.587 57.5578 154.587 57.5577 154.587C57.5576 154.587 57.5575 154.587 57.5574 154.587C57.5573 154.587 57.5572 154.587 57.5571 154.587C57.557 154.587 57.5569 154.587 57.557 154.587C57.5571 154.587 57.5576 154.587 57.5586 154.587C57.5606 154.586 57.5642 154.585 57.5695 154.584C57.58 154.581 57.597 154.577 57.6199 154.571C57.6658 154.559 57.7352 154.541 57.8239 154.52C58.0019 154.478 58.2546 154.422 58.5484 154.368C59.1569 154.256 59.8598 154.169 60.4278 154.196L60.1839 151.129Z" fill="#EB8356"/>
<path d="M80.7217 177.257C73.2014 173.694 69.7813 156.48 74.685 150.313C72.8672 148.413 71.6681 147.067 70.8945 145.156" stroke="#EB8356" stroke-width="3" stroke-linecap="round" stroke-linejoin="round"/>
<path d="M57.3864 170.526C60.222 170.711 63.7218 170.073 65.5017 168.732" stroke="#EB8356" stroke-width="3" stroke-linecap="round"/>
<path d="M59.4282 177.968C61.8435 178.036 63.3986 177.752 66.4272 176.692" stroke="#EB8356" stroke-width="3" stroke-linecap="round"/>
<path d="M101.781 187.692C103.693 186.931 105.872 187.745 106.815 189.575L137.48 249.019L91.8475 265.995L71.4646 205.291C70.8344 203.414 71.6722 201.359 73.435 200.457L86.4705 193.789L101.781 187.692Z" fill="#24C875"/>
<path d="M101.857 185.347C103.668 184.63 105.732 185.322 106.745 186.986L113.396 197.91C114.597 199.883 113.882 202.461 111.836 203.533L77.2441 221.659C75.3012 222.677 72.9008 221.94 71.8633 220.008L63.8956 205.166C62.764 203.058 63.7236 200.434 65.9482 199.554L101.857 185.347Z" fill="#1B9D5B"/>
<path d="M118 210.501C121 217.001 123.29 222.708 130.5 238.501M151.5 202.001C153.999 210.001 153.999 218.501 153.999 228.501" stroke="#1B9D5B" stroke-width="3" stroke-linecap="round"/>
<rect x="151" y="264.381" width="12.0941" height="28.6582" rx="6.04707" transform="rotate(-50.4669 151 264.381)" fill="#FFD2B3"/>
<g filter="url(#filter0_i_97_24508)">
<path d="M165.084 235.433L161.568 236.506L161.568 308.082C161.568 311.599 159.271 314.703 155.908 315.732L70.5794 341.837C65.4376 343.41 60.239 339.564 60.239 334.187L60.2389 268L57.55 268.77C56.2721 269.136 54.9995 268.177 54.9995 266.848L54.9995 255.994C54.9995 255.108 55.5824 254.328 56.4319 254.077L163.932 222.26C165.214 221.881 166.5 222.841 166.5 224.178L166.5 233.52C166.5 234.4 165.925 235.176 165.084 235.433Z" fill="#E7E9F1"/>
</g>
<path d="M160 236L56.5 267.5" stroke="#D0D3E0" stroke-width="3" stroke-linecap="round"/>
<path fill-rule="evenodd" clip-rule="evenodd" d="M89.5028 272.834C78.6974 275.576 71.4321 286.048 72.9589 297.361C74.6016 309.534 85.8015 318.071 97.9744 316.428C110.147 314.785 118.684 303.585 117.041 291.412C116.992 291.052 116.935 290.695 116.87 290.342L95.4291 295.86L89.5028 272.834Z" fill="#00B8C5"/>
<path fill-rule="evenodd" clip-rule="evenodd" d="M120.305 284.104L99.1908 289.538L93.7578 268.428C105.375 265.675 117.106 272.602 120.305 284.104Z" fill="#284EDB"/>
<path d="M151.742 250L128.395 258.08" stroke="white" stroke-width="3" stroke-linecap="round"/>
<path d="M151.016 262.148L127.668 270.228" stroke="white" stroke-width="3" stroke-linecap="round"/>
<path d="M151.762 275.217L164.739 273.072L166.783 273.01C174.933 272.763 182.194 278.125 184.354 285.987C186.884 295.195 181.64 304.746 172.514 307.553L170.723 308.104L158.773 310.045L151.762 275.217Z" fill="#FFD2B3"/>
<rect width="10.1507" height="20" rx="5.07533" transform="matrix(-0.184018 -0.982923 -0.982923 0.184018 162.371 301.137)" fill="#FFD2B3"/>
<path d="M163.877 309.256C166.08 308.844 167.549 306.747 167.186 304.536C166.811 302.255 164.633 300.728 162.36 301.153L152.797 302.944C150.595 303.356 149.125 305.452 149.488 307.663C149.863 309.945 152.041 311.472 154.314 311.046L163.877 309.256Z" fill="#FFD2B3"/>
<rect width="9.40219" height="25.0629" rx="4.7011" transform="matrix(-0.184018 -0.982923 -0.982923 0.184018 162.543 291.184)" fill="#FFD2B3"/>
<rect width="10.6824" height="44.5676" rx="5.34122" transform="matrix(-0.184018 -0.982923 -0.982923 0.184018 170.809 280.074)" fill="#FFD2B3"/>
<path d="M155.352 282.926L143.119 285.255" stroke="#EB8356" stroke-width="3" stroke-linecap="round"/>
<path d="M157.891 291.418L144.777 294.107" stroke="#EB8356" stroke-width="3" stroke-linecap="round"/>
<path d="M161.93 299.395L149.384 302.396" stroke="#EB8356" stroke-width="3" stroke-linecap="round"/>
<path d="M169.504 271.059L217.026 261.016L230.425 292.265L174.934 301.593L169.504 271.059Z" fill="#FFD2B3"/>
<path d="M224.902 302.518C218.552 303.901 212.256 299.979 210.698 293.67L203.496 264.503L246.996 247.003L273.057 239.643C285.844 236.032 299.269 242.797 303.975 255.222C309.517 269.856 300.76 285.995 285.471 289.325L224.902 302.518Z" fill="#24C875"/>
<path d="M193.131 266.014C192.593 263.856 193.92 261.673 196.084 261.157L217.161 256.129L232.155 301.094L207.705 307.672C205.543 308.254 203.325 306.948 202.784 304.776L193.131 266.014Z" fill="#1B9D5B"/>
<path d="M243.262 249L254.454 252.998" stroke="#1B9D5B" stroke-width="3" stroke-linecap="round"/>
<path d="M238.499 217.502C239.394 222.421 242.287 243.734 242.889 248.185C242.954 248.666 242.676 249.105 242.213 249.253C237.782 250.666 215.804 257.676 207 260.502" stroke="#1B9D5B" stroke-width="3" stroke-linecap="round"/>
<path d="M163.324 266.986L163.153 269.001C163.078 269.876 162.442 270.6 161.584 270.786L136.443 276.24" stroke="#EB8356" stroke-width="3" stroke-linecap="round"/>
<path d="M183.238 138.241C179.841 140.84 175.7 141.501 170.446 142.306C170.307 142.327 170.159 142.369 170.082 142.486C169.013 144.1 178.75 151.541 182.091 149.713C185.548 147.821 185.915 136.192 183.238 138.241Z" stroke="#EB8356" stroke-width="2"/>
</g>
<defs>
<filter id="filter0_i_97_24508" x="54.9995" y="222.176" width="111.5" height="120.016" filterUnits="userSpaceOnUse" color-interpolation-filters="sRGB">
<feFlood flood-opacity="0" result="BackgroundImageFix"/>
<feBlend mode="normal" in="SourceGraphic" in2="BackgroundImageFix" result="shape"/>
<feColorMatrix in="SourceAlpha" type="matrix" values="0 0 0 0 0 0 0 0 0 0 0 0 0 0 0 0 0 0 127 0" result="hardAlpha"/>
<feOffset dx="-2" dy="-2"/>
<feComposite in2="hardAlpha" operator="arithmetic" k2="-1" k3="1"/>
<feColorMatrix type="matrix" values="0 0 0 0 0.815686 0 0 0 0 0.827451 0 0 0 0 0.878431 0 0 0 1 0"/>
<feBlend mode="normal" in2="shape" result="effect1_innerShadow_97_24508"/>
</filter>
<clipPath id="clip0_97_24508">
<rect width="375" height="358" fill="white"/>
</clipPath>
</defs>
</svg>
