<svg width="375" height="358" viewBox="0 0 375 358" fill="none" xmlns="http://www.w3.org/2000/svg">
<g clip-path="url(#clip0_97_24780)">
<path d="M-3.94531 87L416.257 250.801" stroke="#8FB4DF" stroke-width="3" stroke-dasharray="8 8"/>
<path d="M110 98.9996V300.373C110 305.076 112.069 309.541 115.657 312.581L123.194 318.967C127.32 322.462 132.933 323.637 138.114 322.09L236.071 292.845C242.453 290.94 246.987 285.281 247.455 278.637L263.969 44.0498C264.552 35.7653 258.7 28.4119 250.496 27.1208L240.339 25.5223C237.991 25.1528 235.591 25.311 233.312 25.9853L121.46 59.0828C114.663 61.094 110 67.3372 110 74.4252V98.9996Z" fill="#8FB4DF"/>
<path d="M118.913 77.7135V307.565C118.913 318.266 129.214 325.95 139.471 322.902L253.062 289.141C259.85 287.124 264.504 280.885 264.504 273.804V44.3599C264.504 33.6812 254.242 25.9994 243.996 29.008L130.405 62.3616C123.592 64.362 118.913 70.6131 118.913 77.7135Z" fill="#13CF36"/>
<path d="M118.913 77.7135V307.565C118.913 318.266 129.214 325.95 139.471 322.902L253.062 289.141C259.85 287.124 264.504 280.885 264.504 273.804V44.3599C264.504 33.6812 254.242 25.9994 243.996 29.008L130.405 62.3616C123.592 64.362 118.913 70.6131 118.913 77.7135Z" fill="#13CF36"/>
<path d="M119.919 78.5015V308.555C119.919 318.252 129.253 325.216 138.548 322.455L253.13 288.412C259.281 286.584 263.5 280.93 263.5 274.512V43.3714C263.5 33.6944 254.201 26.7329 244.916 29.4584L131.771 62.6694C124.745 64.7319 119.919 71.1786 119.919 78.5015Z" fill="white" stroke="#8FB4DF" stroke-width="3"/>
<path d="M134.264 112.058V234.121C134.264 244.817 144.557 252.502 154.812 249.461L237.7 224.889C244.493 222.876 249.152 216.634 249.152 209.549V87.782C249.152 77.1079 238.899 69.4268 228.655 72.427L145.767 96.7031C138.949 98.7 134.264 104.954 134.264 112.058Z" fill="#E9F0F9"/>
<path d="M206.07 55.5645L183.291 62.4747" stroke="#8FB4DF" stroke-width="4" stroke-linecap="round"/>
<circle cx="32.3842" cy="32.3842" r="32.3842" transform="matrix(-0.977993 -0.208637 -0.208637 0.977993 128.793 121.45)" fill="#24C875"/>
<path d="M80.0444 144.429C76.0334 142.928 74.588 139.246 76.3107 134.642C78.0334 130.038 81.5408 128.209 85.5518 129.71C89.5629 131.211 91.0082 134.893 89.2855 139.497C87.5628 144.101 84.0554 145.93 80.0444 144.429ZM75.0398 155.36C74.5864 155.19 74.5164 154.846 74.9041 154.553L100.136 136.002C100.402 135.823 100.663 135.762 100.942 135.867L104.918 137.354C105.372 137.524 105.442 137.868 105.054 138.161L79.8222 156.712C79.5565 156.891 79.295 156.952 79.016 156.847L75.0398 155.36ZM81.4408 140.697C82.5918 141.128 83.646 140.329 84.6118 137.748C85.5776 135.167 85.3064 133.873 84.1554 133.442C83.0044 133.011 81.9851 133.823 81.0193 136.404C80.0536 138.985 80.2899 140.266 81.4408 140.697ZM94.1971 162.925C90.1861 161.425 88.7407 157.743 90.4634 153.139C92.1861 148.535 95.6935 146.706 99.7045 148.207C103.716 149.708 105.161 153.39 103.438 157.994C101.716 162.597 98.2081 164.426 94.1971 162.925ZM95.5935 159.193C96.7445 159.624 97.7987 158.826 98.7645 156.245C99.7303 153.664 99.4591 152.369 98.3081 151.939C97.1571 151.508 96.1378 152.319 95.172 154.9C94.2063 157.481 94.4426 158.763 95.5935 159.193Z" fill="white"/>
<path d="M91.3829 267.564C88.4289 273.709 90.3059 281.088 95.837 285.074C102.031 289.538 110.654 288.247 115.27 282.166L146.23 241.377C146.652 240.822 147.002 240.216 147.271 239.573C148.817 235.883 147.501 231.615 144.146 229.437L127.379 218.551C122.768 215.558 116.607 216.836 113.568 221.416L91.3829 267.564Z" fill="#FFD2B3"/>
<path d="M167.794 157.616C169.1 154.292 172.451 152.236 176.006 152.577L218.772 156.69C220.842 156.889 222.754 157.886 224.101 159.471L227.311 163.246C231.59 168.28 228.269 176.038 221.673 176.415L171.47 179.287C165.644 179.62 161.434 173.806 163.567 168.375L167.794 157.616Z" fill="#FF6DC1"/>
<path d="M153.5 185.131C153.5 179.651 156.935 174.761 162.09 172.902L181.647 165.848C183.201 165.288 184.849 165.028 186.5 165.085L226.618 166.452C227.537 166.484 228.456 166.417 229.361 166.255L250.64 162.428C259.742 160.792 267.594 168.914 265.65 177.956L251.213 245.108C249.371 253.674 243.007 260.557 234.61 263.061L208 271L180.75 277.75L169.626 280.505C161.428 282.536 153.5 276.332 153.5 267.886V259V185.131Z" fill="black"/>
<path d="M222.271 193.027L249.733 181.866L257.473 224.018C257.823 225.924 258 227.858 258 229.797L258 264.87C258 265.819 257.333 266.637 256.403 266.829L234.414 271.364C230.749 272.12 227.163 273.216 223.703 274.64L217.566 277.165C215.711 277.928 213.854 275.683 214.874 273.956C220.423 264.561 230.111 245.28 228.905 226.883C228.022 213.42 222.271 193.027 222.271 193.027Z" fill="#FF6DC1"/>
<path d="M219.5 164.5L220.5 159.5L233.606 170.493C235.146 171.784 236.144 173.608 236.4 175.601L239.117 196.718C239.288 198.046 238.784 199.37 237.774 200.248L230.001 207.001L222.427 197.036C221.173 195.386 220.463 193.388 220.394 191.318L219.5 164.5Z" fill="#FF6DC1"/>
<path d="M226.5 265.273C226.5 264.395 227.073 263.62 227.912 263.362L241.098 259.304C242.384 258.908 243.686 259.87 243.686 261.216V311.234C243.686 312.112 243.114 312.887 242.275 313.146L229.088 317.203C227.802 317.599 226.5 316.637 226.5 315.291V265.273Z" fill="#284EDB"/>
<path d="M226.5 281.788L243.686 276.5V309.234C243.686 310.112 243.114 310.888 242.275 311.146L229.088 315.203C227.802 315.599 226.5 314.637 226.5 313.292V281.788Z" fill="#00B8C5"/>
<path d="M131.033 191.522C130.429 185.952 133.759 180.706 139.056 178.882L160.5 171.5L170.5 164L172 172.5L179.25 184.25L181.447 187.522C186.723 195.376 185.345 206.052 182.95 215.206C181.717 219.919 181.32 225.614 183 232C189.557 256.917 181.783 288.712 179.724 296.314C179.462 297.283 178.51 297.88 177.519 297.72L127.207 289.585C124.197 289.098 122.817 285.557 124.703 283.162L139 265L131.033 191.522Z" fill="#FF6DC1"/>
<path d="M300.521 43.8853C298.718 41.613 295.425 41.2082 293.125 42.9761C291.114 44.5222 290.477 47.2748 291.605 49.5471L304.147 74.8176C305.224 76.9876 307.173 78.5977 309.507 79.2461C312.092 79.9642 314.89 79.4052 317.017 77.7699C319.581 75.7993 320.867 72.5425 320.305 69.3582L319.576 65.2256C318.805 60.8571 316.21 57.0236 312.441 54.6842L307.598 51.678C306.434 50.9558 305.404 50.0381 304.553 48.9654L300.521 43.8853Z" fill="#FFD2B3"/>
<path d="M317.952 42.2507C314.82 41.461 311.528 42.7222 309.726 45.4031L304.21 61.1709C301.188 69.8102 305.185 79.3361 313.467 83.2322C321.702 87.1062 331.533 84.1696 336.294 76.4136L344.283 63.3992C346.192 60.289 345.385 56.2335 342.431 54.0905L330.457 45.4034L317.952 42.2507Z" fill="#FFD2B3"/>
<rect width="8.06724" height="28.1209" rx="4.03362" transform="matrix(-0.876021 -0.482274 0.470397 -0.882455 336.658 58.3804)" fill="#FFD2B3"/>
<rect width="7.51768" height="33.7832" rx="3.75884" transform="matrix(-0.715861 -0.698242 0.688639 -0.725104 332.023 75.0474)" fill="#FFD2B3"/>
<rect width="8.73982" height="35.6028" rx="4.36991" transform="matrix(-0.947954 -0.318409 0.306158 -0.951981 329.234 54.1407)" fill="#FFD2B3"/>
<rect width="8.68836" height="37.003" rx="4.34418" transform="matrix(-0.976315 -0.216352 0.205046 -0.978752 315.611 58.6201)" fill="#FFD2B3"/>
<path d="M306.835 73.3095C309.054 68.1819 314.573 65.3221 320.041 66.4666C326.626 67.8449 330.716 74.4556 329.01 80.9635L311.421 148.045C310.909 149.998 310.033 151.836 308.837 153.462L295.902 171.063C288.757 180.784 273.833 179.402 268.596 168.534L265.678 162.48C262.441 155.762 264.274 147.698 270.097 143.04L277.037 137.487C279.079 135.854 280.689 133.746 281.727 131.346L306.835 73.3095Z" fill="#FFD2B3"/>
<path d="M329.266 83.6901C331.367 84.3069 332.582 86.499 331.991 88.6078L330.822 92.779C330.23 94.891 328.047 96.1323 325.929 95.5617L300.214 88.6327C298.002 88.0366 296.742 85.7077 297.452 83.5295L298.981 78.845C299.652 76.7893 301.835 75.6389 303.91 76.2479L329.266 83.6901Z" fill="#555555"/>
<path d="M216.015 159.654L201.119 121.431L178.438 163.931C177.247 166.163 176.404 168.664 177.148 171.081C178.158 174.36 181.03 179.118 189.057 182.612C199.342 187.09 206.628 183.726 210.022 181.362C211.532 180.311 212.359 178.611 212.707 176.805L216.015 159.654Z" fill="#F8C29D"/>
<ellipse cx="30.0943" cy="37.6123" rx="30.0943" ry="37.6123" transform="matrix(-0.929534 0.368738 0.368738 0.929534 219.443 79.2461)" fill="#FFD2B3"/>
<path d="M225.693 140.327L225.332 139.395C225.679 139.26 226.072 139.33 226.352 139.575C226.632 139.821 226.752 140.201 226.665 140.563L225.693 140.327ZM209.978 138.585L209.541 139.484L209.046 139.244L208.985 138.697L209.978 138.585ZM214.352 150.673L214.226 151.665L214.16 151.657L214.097 151.64L214.352 150.673ZM226.054 141.26C222.106 142.787 215.574 142.42 209.541 139.484L210.416 137.686C216.09 140.446 222.033 140.671 225.332 139.395L226.054 141.26ZM208.985 138.697C208.989 138.733 208.999 138.802 209.026 138.886C209.05 138.96 209.113 139.124 209.269 139.279C209.456 139.466 209.733 139.589 210.042 139.566C210.302 139.547 210.479 139.433 210.556 139.377C210.703 139.269 210.778 139.149 210.787 139.135C210.811 139.098 210.825 139.07 210.829 139.064C210.837 139.046 210.821 139.078 210.784 139.191C210.718 139.393 210.624 139.735 210.532 140.181C210.349 141.074 210.186 142.322 210.249 143.631C210.312 144.945 210.599 146.256 211.257 147.331C211.899 148.379 212.927 149.261 214.608 149.707L214.097 151.64C211.918 151.063 210.463 149.863 209.552 148.376C208.658 146.916 208.323 145.24 208.251 143.727C208.178 142.207 208.366 140.786 208.573 139.778C208.677 139.273 208.789 138.856 208.883 138.569C208.927 138.436 208.979 138.29 209.039 138.172C209.055 138.139 209.08 138.091 209.114 138.039C209.134 138.009 209.218 137.878 209.373 137.764C209.453 137.706 209.634 137.59 209.896 137.571C210.209 137.548 210.488 137.672 210.678 137.861C210.837 138.018 210.901 138.187 210.927 138.265C210.956 138.354 210.967 138.429 210.972 138.474L208.985 138.697ZM214.479 149.681C216.565 149.948 218.616 149.49 220.383 148.057C222.165 146.611 223.75 144.098 224.721 140.092L226.665 140.563C225.625 144.851 223.865 147.808 221.643 149.61C219.405 151.425 216.791 151.993 214.226 151.665L214.479 149.681Z" fill="#EB8356"/>
<ellipse cx="2.26499" cy="3.96373" rx="2.26499" ry="3.96373" transform="matrix(-0.98009 0.198554 0.198554 0.98009 205.486 122.825)" fill="black"/>
<ellipse cx="2.26499" cy="3.96373" rx="2.26499" ry="3.96373" transform="matrix(-0.98009 0.198554 0.198554 0.98009 228.637 117.106)" fill="black"/>
<path d="M219.792 122.894L225.435 128.892C226.408 129.926 226.024 131.616 224.7 132.128L220.024 133.937" stroke="#EB8356" stroke-width="2" stroke-linecap="round"/>
<path d="M186.941 131.477C187.206 127.886 187.743 119.694 190.685 119.106C191.698 117.373 187.941 110.536 187.627 108.967L186.941 105.535C184.359 105.371 178.782 105.024 177.135 104.946C175.076 104.848 173.862 105.024 168.763 107.573C164.684 109.612 165.76 112.033 166.185 113.307C166.283 115.497 166.033 120.335 167.131 121.747C168.504 123.512 170.331 125.616 170.625 124.537C170.634 124.503 170.642 124.47 170.647 124.44C170.857 124.472 171.179 124.475 171.658 124.421C173.149 124.254 176.097 121.756 183.91 134.968C185.182 137.12 186.529 137.068 186.941 131.477Z" fill="black"/>
<path d="M178.172 137.623L174.582 137.02L181.989 144.742L178.172 137.623Z" fill="black"/>
<path d="M211.268 102.497C190.051 106.699 174.675 125.317 170.544 132.944C159.785 108.269 166.198 94.1869 170.226 89.2072C178 77.7697 202.399 71.009 217.561 81.2874C229.06 90.5403 235.198 107.507 234.989 116.757C230.998 103.397 217.435 101.914 211.268 102.497Z" fill="#222222"/>
<path d="M231.682 99.6654C205.737 88.7405 181.522 103.433 177.485 119.954L176.344 124.745C186.325 126.442 198.613 124.149 204.793 116.383C221.394 95.5226 223.268 98.1842 231.682 99.6654Z" fill="#555555"/>
<path d="M213.555 106.101C222.73 101.272 228.9 107.508 233.19 115.354C233.19 115.354 233.983 116.523 235.24 117.384C236.99 118.583 238.759 116.727 238.759 116.727C240.074 115.595 241.505 102.936 231.394 99.3314C221.327 95.7429 215.588 103.391 213.581 106.066L213.555 106.101Z" fill="#222222"/>
<path d="M176.851 89.9733C173.195 96.5307 172.051 101.013 172.449 104.555C172.732 107.084 174.976 112.706 180.083 118.793" stroke="#555555" stroke-width="3" stroke-linecap="round"/>
<path d="M189.403 80.7546C192.618 82.5025 199.715 85.3531 201.267 87.846C203.108 90.8022 204.072 94.9111 204.977 98.4992" stroke="#555555" stroke-width="3" stroke-linecap="round"/>
<path d="M205.885 79.6743C211.457 81.7132 213.494 82.5503 217.922 87.3811C220.136 89.7965 220.972 93.0767 221.418 97.0518" stroke="#555555" stroke-width="3" stroke-linecap="round"/>
<ellipse cx="5.35461" cy="8.83752" rx="5.35461" ry="8.83752" transform="matrix(-0.807516 0.589845 0.589846 0.807516 174.639 121.416)" fill="#FFD2B3"/>
<path d="M179.589 199.285C178.043 196.128 172.692 191.41 163.659 197.797C152.367 205.781 155.628 187.003 157.182 181.122" stroke="#FF44AF" stroke-width="3" stroke-linecap="round"/>
<path d="M181.594 153.077C179.261 153.577 166.822 148.232 170.057 163.077C172.001 172 178.834 183.667 179.501 185.5" stroke="#FF44AF" stroke-width="3" stroke-linecap="round"/>
<path d="M237 154L222.5 163.5L255 220L301.652 172.395C303.01 171.01 303.178 168.849 302.051 167.271L274.037 128.052C272.673 126.142 269.966 125.812 268.183 127.337L237 154Z" fill="#FF6DC1"/>
<path d="M105.993 216.81C115.882 204.063 133.413 182.449 133.413 182.449L168.726 218.552L148.253 267.122C147.39 269.171 145.022 270.122 142.981 269.24L91.5266 247.013C89.3311 246.064 88.4546 243.424 89.6848 241.373C93.1378 235.616 99.9339 224.62 105.993 216.81Z" fill="#FF6DC1"/>
<path d="M100.248 249.949L144.762 270.252C146.847 271.203 149.303 270.212 150.144 268.08L158.751 246.249" stroke="#FF44AF" stroke-width="3" stroke-linecap="round"/>
<path d="M224.299 196.934C225.107 193.662 226.35 191.1 229.384 190.881C237.19 190.318 235.298 197.46 238.378 196.743C242.733 195.73 241.173 182.943 236.255 176.458" stroke="#FF44AF" stroke-width="3" stroke-linecap="round"/>
<circle cx="324.317" cy="52.1707" r="20.927" transform="rotate(12.7023 324.317 52.1707)" fill="#284EDB"/>
<path d="M322.434 63.8547L321.818 65.9134C321.602 66.6332 320.843 67.0413 320.124 66.824C319.405 66.607 318.999 65.848 319.217 65.1296L319.811 63.171C317.834 62.4243 316.045 61.2259 314.872 59.9104C314.334 59.3065 314.4 58.4146 314.898 57.7773C315.727 56.7175 317.391 56.7859 318.419 57.6535C319.189 58.303 320.072 58.8594 321.002 59.2562L322.506 54.2462C319.878 52.5711 316.986 50.479 318.276 46.1925C319.233 43.0154 322.043 40.8841 326.327 41.5724L326.936 39.5468C327.153 38.8274 327.912 38.42 328.631 38.6372C329.35 38.8544 329.756 39.6138 329.538 40.3326L328.944 42.2905C330.335 42.8548 331.622 43.6381 332.654 44.5932C333.313 45.2036 333.312 46.207 332.782 46.9321C332.009 47.9892 330.456 48.0237 329.407 47.2408C328.874 46.8434 328.324 46.5166 327.762 46.2597L326.226 51.3527C328.874 53.0135 331.703 55.0594 330.439 59.2974C329.494 62.4057 326.704 64.5229 322.468 63.8607L322.434 63.8547ZM323.82 49.8222L325.105 45.57C323.612 45.5063 322.817 46.2177 322.521 47.21C322.2 48.2508 322.802 49.0625 323.82 49.8222ZM326.121 58.3912C326.443 57.3503 325.855 56.5588 324.877 55.7707L323.631 59.9057C325.034 59.9716 325.832 59.3491 326.121 58.3912Z" fill="white"/>
<path d="M206.971 209.687C207.94 209.348 209.492 209 210.564 209C215.777 209 220.001 213.224 220.001 218.436C220.001 220.271 219.474 221.974 218.58 223.423C216.915 220.751 213.951 218.973 210.564 218.973C209.483 218.973 207.93 219.33 206.971 219.659L194.223 223.949V213.977L206.971 209.687Z" fill="#555555"/>
<path d="M213.199 237.472C217.131 236.334 220.001 232.702 220.001 228.403C220.001 226.568 219.474 224.865 218.58 223.416C217.366 225.364 215.457 226.841 213.199 227.5L204.016 230.595C203.236 230.877 202.398 231.028 201.523 231.028C197.563 231.028 194.336 227.876 194.223 223.953V233.699C194.223 237.736 197.487 241 201.523 241C202.398 241 203.226 240.831 204.016 240.567L213.199 237.472Z" fill="#555555"/>
<path d="M213.199 227.497C215.457 226.848 217.366 225.371 218.58 223.414C216.915 220.742 213.951 218.964 210.564 218.964C209.483 218.964 207.93 219.321 206.971 219.65L194.223 223.941C194.345 227.873 197.563 231.015 201.523 231.015C202.398 231.015 203.236 230.865 204.016 230.583L213.199 227.497Z" fill="#303030"/>
<path d="M254.5 247.705C254.5 246.824 255.076 246.047 255.919 245.791L269.105 241.784C270.39 241.394 271.686 242.355 271.686 243.698V302.295C271.686 303.176 271.11 303.953 270.268 304.209L257.081 308.216C255.797 308.606 254.5 307.645 254.5 306.302V247.705Z" fill="#284EDB"/>
<path d="M254.5 261.222L271.686 257V302.724C271.686 303.601 271.114 304.376 270.276 304.635L257.089 308.701C255.803 309.098 254.5 308.136 254.5 306.79V261.222Z" fill="#00B8C5"/>
<path d="M282 259.75C282 258.827 282.631 258.024 283.528 257.806L296.714 254.601C297.973 254.295 299.186 255.249 299.186 256.544V294.499C299.186 295.388 298.599 296.171 297.745 296.419L284.559 300.256C283.279 300.628 282 299.668 282 298.335V259.75Z" fill="#284EDB"/>
<path d="M282 277.178L299.186 273V294.499C299.186 295.388 298.599 296.171 297.745 296.419L284.559 300.256C283.279 300.628 282 299.668 282 298.335V277.178Z" fill="#00B8C5"/>
<rect width="12.1579" height="28.356" rx="6.07894" transform="matrix(-0.518912 -0.854828 -0.854828 0.518912 115.482 291.128)" fill="#FFCAA5"/>
<rect width="8.10525" height="20.8137" rx="4.05262" transform="matrix(-0.518912 -0.854828 -0.854828 0.518912 115.072 300.859)" fill="#FFCAA5"/>
<rect width="12.1579" height="32.421" rx="6.07894" transform="matrix(-0.518912 -0.854828 -0.854828 0.518912 111.484 279.332)" fill="#FFCAA5"/>
<path d="M96.6567 274.112C100.071 272.039 101.129 267.573 99.0072 264.189C96.554 260.276 91.0924 259.676 87.8475 262.962L75.996 274.965C74.3883 276.594 74.07 279.097 75.2191 281.076C76.6451 283.532 79.8096 284.338 82.2372 282.865L96.6567 274.112Z" fill="#FFCAA5"/>
<path d="M95.2734 274.829L84.3906 281.557" stroke="#EB8356" stroke-width="3" stroke-linecap="round"/>
<path d="M101.512 285.261L90.6289 291.989" stroke="#EB8356" stroke-width="3" stroke-linecap="round"/>
<path d="M104.234 297.795L97.3058 302.001" stroke="#EB8356" stroke-width="3" stroke-linecap="round"/>
<path d="M99 262C100.644 262.684 104.031 264.974 104.426 268.667C104.919 271.231 113.305 276.359 111.825 282" stroke="#EB8356" stroke-width="3" stroke-linecap="round"/>
<path d="M315.325 242L323.151 256.5L305.5 260.75L315.325 242Z" fill="#2F374F"/>
<path d="M314.5 254.5V292.5L216 319" stroke="#2F374F" stroke-width="3"/>
<path d="M247.918 192.701C252.077 201.019 253.234 209.259 253.234 218.615" stroke="#FF44AF" stroke-width="3" stroke-linecap="round"/>
</g>
<defs>
<clipPath id="clip0_97_24780">
<rect width="375" height="358" fill="white"/>
</clipPath>
</defs>
</svg>
