<svg width="1440" height="352" viewBox="0 0 1440 352" fill="none" xmlns="http://www.w3.org/2000/svg">
<path fill-rule="evenodd" clip-rule="evenodd" d="M581.1 284.099C569.682 269.45 540.046 269.45 528.629 284.099C496.422 325.423 446.179 352 389.728 352C292.526 352 213.728 273.202 213.728 176C213.728 78.7979 292.526 0 389.728 0C446.179 0 496.422 26.5767 528.629 67.9005C540.046 82.5502 569.682 82.5502 581.1 67.9005C613.306 26.5767 663.549 0 720 0C776.451 0 826.694 26.5767 858.9 67.9005C870.318 82.5502 899.954 82.5501 911.371 67.9005C943.577 26.5767 993.821 0 1050.27 0C1147.47 0 1226.27 78.7979 1226.27 176C1226.27 273.202 1147.47 352 1050.27 352C993.821 352 943.577 325.423 911.371 284.099C899.954 269.45 870.318 269.45 858.9 284.099C826.694 325.423 776.451 352 720 352C663.549 352 613.306 325.423 581.1 284.099Z" fill="#3C4851"/>
<circle cx="38" cy="176" r="176" fill="#9FE991"/>
<circle cx="1402" cy="176" r="176" fill="#9FE991"/>
<path d="M324.848 133.2H338.348V137.304H324.848V133.2ZM336.764 133.2H337.232L337.916 133.056L340.94 133.38C340.436 137.628 339.536 142.884 338.744 147.096L334.676 146.664C335.576 142.416 336.44 136.692 336.764 133.632V133.2ZM337.484 142.416H342.812V146.268H336.296L337.484 142.416ZM341.696 142.416H342.524L343.28 142.272L346.016 143.208C344.072 155.304 338.456 162 330.392 165.024C329.852 163.98 328.484 162.144 327.62 161.352C335.288 158.832 340.184 153.396 341.696 143.208V142.416ZM331.436 137.916C332.84 147.384 336.008 157.5 346.88 161.424C346.016 162.252 344.648 164.124 344.072 165.276C333.02 160.596 329.78 149.688 328.304 139.932L331.436 137.916ZM315.992 134.604H324.308V155.088H315.992V151.092H320.42V138.6H315.992V134.604ZM313.724 134.604H317.54V157.968H313.724V134.604ZM327.656 135.324L332.048 135.468C331.832 146.232 331.004 159.228 322.76 165.276C322.148 164.448 320.636 162.9 319.736 162.252C327.368 156.852 327.728 145.152 327.656 135.324ZM352.64 133.56H361.712V159.588H352.64V155.808H357.68V137.34H352.64V133.56ZM352.712 140.976H360.092V144.612H352.712V140.976ZM352.712 148.356H360.092V151.992H352.712V148.356ZM350.372 133.56H354.332V162.54H350.372V133.56ZM370.388 131.436H374.6V144.504H370.388V131.436ZM370.748 149.616H374.24V155.736H370.748V149.616ZM363.26 133.956H381.692V137.124H363.26V133.956ZM364.232 138.528H380.864V141.444H364.232V138.528ZM366.32 154.728H378.848V158.112H366.32V154.728ZM362.396 142.992H382.844V146.268H362.396V142.992ZM364.304 147.78H378.344V151.2H368.228V165.132H364.304V147.78ZM376.976 147.78H380.936V161.136C380.936 162.9 380.648 163.944 379.424 164.592C378.236 165.168 376.652 165.204 374.492 165.204C374.312 164.16 373.808 162.576 373.268 161.532C374.564 161.604 375.968 161.604 376.4 161.604C376.832 161.568 376.976 161.424 376.976 161.064V147.78ZM409.844 152.748H413.768V160.2C413.768 161.172 413.84 161.316 414.38 161.316C414.596 161.316 415.532 161.316 415.784 161.316C416.396 161.316 416.504 160.848 416.612 157.284C417.332 157.932 419.024 158.544 420.068 158.796C419.708 163.692 418.7 164.952 416.252 164.952C415.604 164.952 414.272 164.952 413.696 164.952C410.528 164.952 409.844 163.728 409.844 160.236V152.748ZM405.56 142.2V144.612H413.444V142.2H405.56ZM405.56 147.852V150.264H413.444V147.852H405.56ZM405.56 136.62V138.996H413.444V136.62H405.56ZM401.6 133.2H417.584V153.684H401.6V133.2ZM404.048 152.712H408.152C407.648 158.328 406.244 162.684 399.944 165.24C399.512 164.232 398.36 162.684 397.496 161.892C402.752 160.056 403.616 156.852 404.048 152.712ZM386.624 138.096H397.64V141.984H386.624V138.096ZM391.304 150.372L395.516 145.332V165.276H391.304V150.372ZM391.304 131.472H395.516V139.932H391.304V131.472ZM395.444 146.124C396.596 147.024 400.376 150.588 401.276 151.488L398.648 155.088C397.352 153.18 394.508 149.868 392.996 148.32L395.444 146.124ZM396.164 138.096H396.992L397.748 137.952L400.124 139.5C397.568 146.52 392.42 152.856 387.308 156.24C386.948 155.088 385.904 152.964 385.292 152.136C389.9 149.472 394.364 144.18 396.164 138.888V138.096ZM433.1 152.244V153.432H445.664V152.244H433.1ZM433.1 155.556V156.78H445.664V155.556H433.1ZM433.1 148.968V150.156H445.664V148.968H433.1ZM428.996 146.736H449.912V158.976H428.996V146.736ZM441.056 157.824H445.268V160.596C445.268 161.46 445.556 161.568 446.996 161.568C447.644 161.568 450.452 161.568 451.352 161.568C452.504 161.568 452.72 161.172 452.9 158.724C453.728 159.3 455.348 159.84 456.428 160.02C456.032 163.8 454.916 164.808 451.784 164.808C450.848 164.808 447.32 164.808 446.456 164.808C442.136 164.808 441.056 163.836 441.056 160.596V157.824ZM433.136 158.004H437.312C436.412 162.252 433.928 164.304 424.46 165.24C424.172 164.304 423.308 162.792 422.624 162C430.688 161.532 432.416 160.524 433.136 158.004ZM423.812 142.956H455.348V148.392H451.388V145.656H427.592V148.392H423.812V142.956ZM426.98 132.948L431.696 133.92C431.624 134.208 431.372 134.352 430.796 134.46L431.336 144.36H427.592L426.98 132.948ZM448.364 132.552H452.216C452.108 136.404 451.856 141.192 451.568 144.18H447.68C448.04 141.12 448.292 136.332 448.364 132.552ZM443.936 132.552H449.192V135.072H443.936V132.552ZM433.748 131.436L436.052 133.2C434.18 134.208 431.876 135.036 430.112 135.576L428.24 133.992C429.932 133.38 432.344 132.192 433.748 131.436ZM428.816 136.188H434.828V138.456H428.816V136.188ZM428.816 139.536H434.936V141.84H428.816V139.536ZM444.368 136.188H450.416V138.456H444.368V136.188ZM444.296 139.536H450.38V141.84H444.296V139.536ZM440.948 131.688L443.252 132.336C441.848 134.424 439.328 136.404 436.988 137.592C436.628 137.16 435.764 136.296 435.224 135.9C437.492 134.856 439.76 133.38 440.948 131.688ZM436.268 133.668L437.888 132.228C439.652 133.128 441.848 134.532 442.964 135.612L441.308 137.196C440.264 136.152 438.104 134.604 436.268 133.668ZM441.164 137.124L443.504 137.772C442.028 140.04 439.436 142.092 437.024 143.424C436.628 142.956 435.728 142.092 435.188 141.696C437.564 140.58 439.904 138.96 441.164 137.124ZM436.232 139.032L437.852 137.592C439.796 138.636 442.208 140.256 443.432 141.48L441.704 143.064C440.552 141.84 438.212 140.148 436.232 139.032Z" fill="#FFFDF5"/>
<path d="M654.944 131.472L658.94 132.66C656.888 138.96 653.576 145.764 649.904 150.084C649.544 149.04 648.5 146.556 647.816 145.404C650.732 142.02 653.396 136.764 654.944 131.472ZM652.1 141.372L656.24 137.232L656.384 137.304V165.204H652.1V141.372ZM665.132 136.728V142.308H675.5V136.728H665.132ZM661.028 132.948H679.856V146.088H661.028V132.948ZM670.244 150.408H680.396V154.44H670.244V150.408ZM668.408 143.964H672.728V162.324L668.408 160.452V143.964ZM664.304 153.216C666.14 159.336 670.28 160.416 675.284 160.416C676.544 160.452 680.828 160.416 682.52 160.38C681.98 161.316 681.404 163.26 681.224 164.412H674.924C668.192 164.412 663.512 162.612 660.956 154.332L664.304 153.216ZM661.28 148.824L665.384 149.256C664.7 156.06 663.044 161.712 659.768 165.276C659.084 164.592 657.284 163.332 656.348 162.756C659.48 159.768 660.776 154.692 661.28 148.824ZM686.228 154.728H703.04V157.788H686.228V154.728ZM685.4 137.592H703.4V140.724H685.4V137.592ZM692.564 135.036H696.452V160.848H692.564V135.036ZM685.22 160.452C689.684 160.128 696.56 159.624 703.04 159.048L703.076 162.324C696.956 162.972 690.404 163.62 685.724 164.052L685.22 160.452ZM689.792 148.968V150.624H699.296V148.968H689.792ZM689.792 144.828V146.448H699.296V144.828H689.792ZM686.336 142.128H702.86V153.324H686.336V142.128ZM701.096 131.616L703.004 134.856C698.396 135.792 691.844 136.332 686.444 136.44C686.3 135.576 685.904 134.208 685.508 133.38C690.872 133.128 697.136 132.48 701.096 131.616ZM703.4 139.572H715.856V143.532H703.4V139.572ZM714.128 139.572H718.268C718.268 139.572 718.232 140.976 718.232 141.48C717.908 156.312 717.62 161.568 716.432 163.188C715.64 164.412 714.812 164.808 713.624 165.024C712.508 165.24 710.816 165.24 709.124 165.168C709.016 163.98 708.548 162.216 707.864 161.064C709.412 161.208 710.78 161.208 711.5 161.208C712.04 161.208 712.4 161.1 712.724 160.596C713.552 159.516 713.84 154.44 714.128 140.508V139.572ZM706.856 132.048H710.996C710.96 147.42 710.924 158.976 702.608 165.528C701.996 164.484 700.592 163.008 699.62 162.288C707.216 156.492 706.82 146.412 706.856 132.048ZM737.348 133.848H755.204V137.016H737.348V133.848ZM737.024 154.296H755.708V157.464H737.024V154.296ZM744.296 131.436H747.968V150.876H744.296V131.436ZM741.344 144.288V145.692H750.992V144.288H741.344ZM741.344 140.652V142.056H750.992V140.652H741.344ZM737.96 138.312H754.556V148.032H737.96V138.312ZM736.988 149.76C741.128 149.724 747.284 149.616 753.296 149.472L753.224 152.388C747.464 152.604 741.488 152.712 737.24 152.82L736.988 149.76ZM747.644 152.856H751.604V161.496C751.604 163.332 751.28 164.268 749.948 164.808C748.58 165.348 746.816 165.348 744.332 165.348C744.188 164.268 743.648 162.864 743.18 161.892C744.728 161.964 746.528 161.964 746.996 161.928C747.5 161.892 747.644 161.784 747.644 161.388V152.856ZM738.716 158.472L741.596 156.78C742.928 158.004 744.26 159.696 744.872 160.956L741.776 162.9C741.236 161.64 739.976 159.768 738.716 158.472ZM749.372 148.5L752.252 147.204C753.692 148.716 755.204 150.768 755.924 152.208L752.9 153.72C752.288 152.28 750.776 150.084 749.372 148.5ZM722.372 134.892H736.628V138.6H722.372V134.892ZM721.832 155.772H737.096V159.516H721.832V155.772ZM727.664 131.472H731.516V141.948H727.664V131.472ZM728.168 142.02H731.012V152.028H731.516V165.24H727.664V152.028H728.168V142.02ZM726.116 148.464V150.624H733.172V148.464H726.116ZM726.116 143.532V145.62H733.172V143.532H726.116ZM723.056 140.544H736.304V153.612H723.056V140.544ZM774.752 132.372H779.144V158.292C779.144 160.452 779.396 160.812 781.16 160.812C781.952 160.812 785.552 160.812 786.416 160.812C788.18 160.812 788.468 159.552 788.72 154.476C789.764 155.232 791.528 156.024 792.752 156.276C792.212 162.504 791.06 164.808 786.812 164.808C785.768 164.808 781.592 164.808 780.62 164.808C776.084 164.808 774.752 163.368 774.752 158.256V132.372ZM788.252 138.384L791.42 142.164C787.352 145.044 782.204 147.744 777.524 149.94C777.236 148.932 776.408 147.42 775.796 146.484C780.26 144.36 785.048 141.12 788.252 138.384ZM767.804 131.904L772.052 133.344C769.352 139.752 764.924 146.412 760.388 150.588C759.956 149.472 758.696 147.096 757.904 146.016C761.792 142.668 765.572 137.34 767.804 131.904ZM763.988 142.056L768.236 137.808L768.308 137.88V165.168H763.988V142.056Z" fill="#FFFDF5"/>
<path d="M990.56 153.288H1011.91V157.212H990.56V153.288ZM1001.79 142.704H1011.08V146.484H1001.79V142.704ZM1000.06 135.9H1004.31V155.196H1000.06V135.9ZM993.08 140.868H997.148V155.592H993.08V140.868ZM1008.49 131.508L1011.44 135C1006.04 136.512 998.696 137.448 992.396 137.952C992.252 136.944 991.676 135.36 991.244 134.424C997.328 133.848 1004.2 132.804 1008.49 131.508ZM978.572 133.416H986.384V137.196H978.572V133.416ZM985.448 133.416H986.024L986.672 133.236L989.696 134.172C987.824 138.42 985.016 144.144 982.604 148.68L978.68 147.564C981.128 143.1 984.08 137.088 985.448 133.884V133.416ZM982.46 143.748H988.256V147.528H982.316L982.46 143.748ZM986.672 143.748H987.464L988.184 143.676L990.776 144.288C989.696 155.232 986.528 162.036 981.452 165.456C980.804 164.592 979.148 163.08 978.212 162.504C983.108 159.516 985.88 153.756 986.672 144.54V143.748ZM982.712 149.364C985.628 158.832 992.288 160.308 1000.78 160.308C1002.94 160.308 1010.04 160.308 1012.66 160.2C1012.02 161.208 1011.26 163.188 1011.04 164.412H1000.64C990.272 164.412 983.108 162.288 979.328 150.552L982.712 149.364ZM1023.86 145.188H1046.97V148.788H1023.86V145.188ZM1022.89 151.236H1048.59V154.872H1022.89V151.236ZM1028.43 142.2H1032.39V152.928H1028.43V142.2ZM1026.63 152.568H1030.59V161.64H1026.63V152.568ZM1037.76 142.2H1041.79V152.892H1037.76V142.2ZM1018.78 132.984H1023.14V143.676C1023.14 150.012 1022.56 159.408 1018.78 165.348C1017.92 164.664 1015.98 163.548 1014.9 163.116C1018.5 157.572 1018.78 149.436 1018.78 143.676V132.984ZM1021.45 132.984H1046.65V142.812H1021.45V139.176H1042.29V136.62H1021.45V132.984ZM1022.92 160.812C1026.45 160.452 1031.74 159.732 1036.82 158.976L1037 162.684C1032.32 163.476 1027.28 164.196 1023.54 164.772L1022.92 160.812ZM1036.75 152.748C1038.66 157.392 1042.72 160.56 1048.99 161.712C1048.12 162.576 1046.97 164.196 1046.43 165.276C1039.63 163.584 1035.52 159.624 1033.18 153.504L1036.75 152.748ZM1044.06 154.404L1047.3 156.6C1045.35 158.004 1042.94 159.336 1041.1 160.2L1038.33 158.148C1040.13 157.212 1042.62 155.592 1044.06 154.404ZM1074.12 148.716H1077.39V159.372H1074.12V148.716ZM1066.23 139.176H1085.02V141.768H1066.23V139.176ZM1065.66 146.916H1085.49V149.652H1065.66V146.916ZM1070.08 137.232H1073.61V143.532H1078.11V137.232H1081.78V145.98H1070.08V137.232ZM1071.06 156.672V158.112H1080.52V156.672H1071.06ZM1071.06 153.252V154.656H1080.52V153.252H1071.06ZM1067.82 150.984H1083.91V160.344H1067.82V150.984ZM1076.67 161.748L1079.55 159.84C1081.78 160.92 1084.56 162.36 1086.1 163.44L1082.14 165.204C1080.96 164.232 1078.69 162.792 1076.67 161.748ZM1072.71 131.472H1076.71V135.972H1072.71V131.472ZM1064.07 134.46H1085.24V137.592H1064.07V134.46ZM1063.5 134.46H1067.02V145.08C1067.02 151.02 1066.52 159.66 1063.17 165.276C1062.49 164.7 1060.9 163.836 1060.04 163.476C1063.24 158.184 1063.5 150.516 1063.5 145.08V134.46ZM1071.63 159.804L1074.73 161.676C1072.93 163.116 1069.94 164.556 1067.53 165.24C1066.92 164.592 1065.8 163.512 1065.01 162.9C1067.42 162.216 1070.26 160.92 1071.63 159.804ZM1051.54 149.4C1054.35 148.752 1058.46 147.672 1062.45 146.556L1062.99 150.444C1059.43 151.524 1055.58 152.676 1052.48 153.54L1051.54 149.4ZM1052.16 138.276H1062.49V142.236H1052.16V138.276ZM1055.86 131.436H1059.72V160.776C1059.72 162.72 1059.39 163.8 1058.28 164.484C1057.23 165.132 1055.65 165.276 1053.38 165.276C1053.24 164.196 1052.77 162.468 1052.26 161.352C1053.56 161.388 1054.82 161.388 1055.25 161.388C1055.68 161.388 1055.86 161.244 1055.86 160.776V131.436ZM1108.06 149.796H1112.42V159.624C1112.42 160.848 1112.6 160.992 1113.79 160.992C1114.33 160.992 1116.42 160.992 1117.06 160.992C1118.25 160.992 1118.47 160.272 1118.61 155.196C1119.51 155.952 1121.42 156.672 1122.57 156.96C1122.14 163.404 1121.02 165.096 1117.46 165.096C1116.63 165.096 1113.93 165.096 1113.14 165.096C1109.07 165.096 1108.06 163.728 1108.06 159.66V149.796ZM1098.49 149.94H1103.06C1102.52 157.464 1100.94 162.576 1091.11 165.312C1090.64 164.16 1089.52 162.396 1088.59 161.532C1097.16 159.48 1098.02 155.736 1098.49 149.94ZM1108.71 141.3L1112.31 139.176C1115.44 141.876 1119.4 145.728 1121.24 148.464L1117.32 150.912C1115.7 148.212 1111.92 144.144 1108.71 141.3ZM1099.5 137.736L1104.25 139.068C1102.66 142.2 1100.79 145.62 1099.32 147.816L1095.68 146.556C1097.05 144.144 1098.67 140.472 1099.5 137.736ZM1090.93 144.828C1097.44 144.684 1107.56 144.36 1116.85 144.072L1116.67 148.068C1107.56 148.608 1097.66 149.04 1091.07 149.256L1090.93 144.828ZM1089.78 135.288H1121.38V139.356H1089.78V135.288ZM1103.28 131.436H1107.7V137.556H1103.28V131.436Z" fill="#FFFDF5"/>
<path d="M291.34 201.92H303.1V203.3H291.34V201.92ZM297.54 195.6H302.72V196.96H297.54V195.6ZM296.9 191.2H298.36V202.56H296.9V191.2ZM292.98 194.44H294.4V202.72H292.98V194.44ZM301.42 189.28L302.52 190.48C299.86 191.32 295.74 191.9 292.28 192.2C292.24 191.86 292.02 191.32 291.86 190.98C295.24 190.64 299.22 190.04 301.42 189.28ZM284.8 190.48H289.46V191.82H284.8V190.48ZM289.06 190.48H289.28L289.52 190.4L290.58 190.76C289.54 192.86 287.86 196.02 286.46 198.42L285.1 198.02C286.5 195.64 288.24 192.36 289.06 190.66V190.48ZM286.7 196.22H290.38V197.56H286.5L286.7 196.22ZM289.82 196.22H290.1L290.38 196.18L291.28 196.42C290.58 202.28 288.62 205.86 285.8 207.7C285.56 207.38 285 206.86 284.66 206.66C287.42 204.98 289.24 201.74 289.82 196.52V196.22ZM286.78 199.12C288.46 204.7 292.34 205.66 297.42 205.66C298.26 205.66 302.3 205.66 303.36 205.64C303.12 205.98 302.84 206.68 302.76 207.1H297.38C291.6 207.1 287.58 205.9 285.6 199.56L286.78 199.12ZM315.82 189.3H317.3V207.6H315.82V189.3ZM310.5 192.38H322.78V202.94H321.32V193.76H311.92V203.08H310.5V192.38ZM311.44 196.52H321.98V197.86H311.44V196.52ZM311.5 200.66H322.04V202.04H311.5V200.66ZM309.28 189.28L310.7 189.72C309.38 193.12 307.32 196.5 305.16 198.74C305 198.4 304.58 197.6 304.3 197.26C306.28 195.32 308.16 192.32 309.28 189.28ZM307.2 194.44L308.6 193.02L308.64 193.04V207.58H307.2V194.44ZM330.02 191.5V195.3H338.02V191.5H330.02ZM328.56 190.06H339.54V196.74H328.56V190.06ZM325.66 198.86H332.78V207.44H331.28V200.3H327.08V207.6H325.66V198.86ZM334.96 198.86H342.48V207.48H340.98V200.3H336.4V207.6H334.96V198.86ZM326.3 205.08H331.88V206.52H326.3V205.08ZM335.7 205.08H341.64V206.52H335.7V205.08ZM351.86 202.12H363.14V203.44H351.86V202.12ZM358.6 199.32H360.02V207.58H358.6V199.32ZM356.64 189.14L358.34 189.48C357.84 190.38 357.26 191.4 356.82 192.04L355.6 191.7C355.98 190.96 356.42 189.9 356.64 189.14ZM356.98 191.88H358.28V195.14C358.28 197.54 357.64 200.24 353.6 201.98C353.38 201.72 352.9 201.32 352.6 201.12C356.42 199.5 356.98 197.12 356.98 195.1V191.88ZM346.66 194.7H352.24V196.02H346.66V194.7ZM349.28 189.22H350.6V195.5H349.28V189.22ZM346.74 198.96H351.22V207.6H349.88V200.26H346.74V198.96ZM346.02 189.62H347.34V197.28C347.34 200.48 347.12 204.62 345.98 207.64C345.68 207.48 345.08 207.26 344.68 207.14C345.84 204.26 346.02 200.22 346.02 197.28V189.62ZM354.08 195.54V197.66H361.18V195.54H354.08ZM354.08 192.32V194.4H361.18V192.32H354.08ZM352.72 191.12H362.58V198.84H352.72V191.12ZM374.66 193.46H380.08V194.64H374.66V193.46ZM374.46 196.56H380.36V197.74H374.46V196.56ZM376.72 191.76H377.94V197.24H376.72V191.76ZM373 190.04H381.74V191.36H373V190.04ZM375.38 199.26H379.96V204.44H375.38V203.28H378.8V200.4H375.38V199.26ZM374.76 199.26H375.9V205.22H374.76V199.26ZM381.18 190.04H382.58V205.72C382.58 206.6 382.4 207.08 381.84 207.32C381.28 207.58 380.28 207.6 378.78 207.6C378.72 207.2 378.54 206.52 378.32 206.1C379.42 206.16 380.46 206.14 380.8 206.12C381.1 206.12 381.18 206.04 381.18 205.72V190.04ZM372.24 190.04H373.62V197.22C373.62 200.36 373.4 204.78 371.72 207.74C371.48 207.48 370.88 207.06 370.54 206.9C372.12 204.12 372.24 200.18 372.24 197.22V190.04ZM365.58 195.26H370.72V196.46H365.58V195.26ZM365.7 189.92H370.66V191.12H365.7V189.92ZM365.58 197.94H370.72V199.14H365.58V197.94ZM364.76 192.54H371.22V193.78H364.76V192.54ZM366.28 200.64H370.7V206.46H366.28V205.22H369.44V201.88H366.28V200.64ZM365.54 200.64H366.78V207.4H365.54V200.64ZM387.42 189.2H388.94V207.58H387.42V189.2ZM385.58 193L386.72 193.18C386.62 194.8 386.26 197.12 385.72 198.56L384.54 198.16C385.08 196.82 385.44 194.62 385.58 193ZM389.08 192.88L390.12 192.42C390.74 193.5 391.36 194.92 391.58 195.78L390.46 196.34C390.24 195.46 389.64 194 389.08 192.88ZM393.16 190.14L394.62 190.38C394.1 193.3 393.22 196.14 392.1 198.02C391.8 197.8 391.12 197.48 390.74 197.32C391.92 195.56 392.72 192.84 393.16 190.14ZM393.18 193.44H402.48V194.88H392.72L393.18 193.44ZM396.42 189.28H397.92V206.28H396.42V189.28ZM392.16 199.04H402.04V200.46H392.16V199.04ZM390.66 205.46H402.96V206.9H390.66V205.46ZM404.86 194.1H410.22V195.52H404.86V194.1ZM407 189.5H408.46V202.58H407V189.5ZM404.56 202.92C406.08 202.36 408.4 201.4 410.62 200.46L410.98 201.82C408.94 202.74 406.78 203.7 405.08 204.42L404.56 202.92ZM412.34 200.32H421.2V207.56H419.72V201.46H413.78V207.62H412.34V200.32ZM413.1 205.68H420.66V206.86H413.1V205.68ZM413.06 203.02H420.56V204.1H413.06V203.02ZM416.1 194.06H417.24V198.58H416.1V194.06ZM412.6 194.66V198.04H420.84V194.66H412.6ZM411.38 193.5H422.14V199.18H411.38V193.5ZM413.34 195.36L414.28 195.1C414.66 195.82 415.02 196.78 415.14 197.36L414.18 197.68C414.06 197.08 413.7 196.1 413.34 195.36ZM418.9 195.08L419.96 195.42C419.58 196.24 419.18 197.1 418.82 197.68L418 197.38C418.32 196.72 418.72 195.74 418.9 195.08ZM415.06 189.74H419.12V191.04H415.06V189.74ZM413.36 190.28L414.7 190.68C413.78 192.48 412.28 194.26 410.86 195.4C410.66 195.14 410.16 194.6 409.84 194.36C411.22 193.34 412.58 191.84 413.36 190.28ZM417.9 189.74H419.4C420.36 191.42 422.08 193.12 423.58 194.04C423.26 194.3 422.82 194.82 422.58 195.2C421.02 194.08 419.32 192.28 418.3 190.5H417.9V189.74ZM435.36 189.14L436.94 189.56C436.08 191.18 435.02 193.08 434.12 194.3L432.88 193.88C433.74 192.62 434.78 190.58 435.36 189.14ZM431.46 193.48C433.96 193.38 437.98 193.18 441.8 192.98L441.78 194.26C438.16 194.52 434.34 194.76 431.68 194.92L431.46 193.48ZM438.86 191.38L440.08 190.76C441.32 192 442.72 193.68 443.34 194.84L442.02 195.52C441.44 194.4 440.08 192.64 438.86 191.38ZM431.2 205.76C433.84 205.6 437.98 205.32 441.92 205L441.9 206.38C438.12 206.7 434.12 207.02 431.38 207.24L431.2 205.76ZM439.3 203.18L440.54 202.62C441.74 204 443.04 205.88 443.54 207.16L442.26 207.78C441.76 206.52 440.52 204.6 439.3 203.18ZM433.44 198V200.84H440.9V198H433.44ZM432.06 196.72H442.34V202.12H432.06V196.72ZM429.42 198.66H430.82C430.82 198.66 430.82 199.12 430.8 199.34C430.54 204.4 430.3 206.28 429.74 206.96C429.38 207.38 429.02 207.5 428.44 207.56C427.92 207.6 426.96 207.6 425.96 207.54C425.94 207.1 425.76 206.5 425.52 206.08C426.5 206.18 427.46 206.18 427.84 206.18C428.18 206.18 428.36 206.14 428.54 205.96C428.96 205.52 429.18 203.72 429.42 198.92V198.66ZM425.52 194.66H426.86C426.7 196.68 426.44 199.28 426.22 200.9L424.88 200.68C425.12 199.12 425.4 196.56 425.52 194.66ZM425.78 198.66H429.98V200H425.64L425.78 198.66ZM436.44 194.26H437.88V205.92L436.44 206V194.26ZM425.92 194.66H429.34V191.6H425.16V190.26H430.78V196.04H425.92V194.66ZM452.08 190.16H461.34V191.38H452.08V190.16ZM451.84 195.7H461.7V196.94H451.84V195.7ZM451.84 198.48H461.66V199.72H451.84V198.48ZM452.42 205.42H461.1V206.66H452.42V205.42ZM450.2 192.92H463.22V194.18H450.2V192.92ZM451.64 201.26H461.88V207.54H460.38V202.48H453.08V207.6H451.64V201.26ZM449.52 189.26L450.94 189.7C449.58 193.08 447.44 196.44 445.22 198.66C445.08 198.32 444.66 197.54 444.38 197.18C446.4 195.28 448.36 192.3 449.52 189.26ZM447.44 194.42L448.86 193L448.88 193.02V207.56H447.44V194.42ZM481.26 189.7L482.38 190.96C479.46 191.96 474.98 192.7 471.18 193.16C471.12 192.8 470.9 192.24 470.74 191.88C474.46 191.4 478.8 190.6 481.26 189.7ZM470.06 197.78H483.2V199.22H470.06V197.78ZM470.84 205.4H482.88V206.84H470.84V205.4ZM476.02 191.92H477.52V205.8H476.02V191.92ZM467.7 194.52L469.18 193.04L469.2 193.08V207.6H467.7V194.52ZM469.88 189.22L471.34 189.68C469.92 193.16 467.68 196.62 465.34 198.9C465.18 198.54 464.72 197.76 464.42 197.38C466.58 195.42 468.64 192.36 469.88 189.22ZM295.74 225.96H303.18V227.36H295.74V225.96ZM285.22 221.3H294.04V222.58H285.22V221.3ZM285 229.24H294.14V230.54H285V229.24ZM284.94 225.88H294.28V227.16H284.94V225.88ZM299.46 226.52H300.92V237.5H299.46V226.52ZM288.92 219.28H290.38V221.96H288.92V219.28ZM288.92 226.92H290.38V237.58H288.92V226.92ZM295.02 220.84L296.86 221.4C296.84 221.56 296.72 221.64 296.44 221.68V227.86C296.44 230.86 296.08 234.92 293.26 237.7C293.08 237.36 292.54 236.86 292.18 236.66C294.74 234.14 295.02 230.68 295.02 227.84V220.84ZM301.72 219.44L302.92 220.54C301.04 221.38 298.24 222.06 295.84 222.48C295.76 222.16 295.56 221.64 295.38 221.34C297.62 220.86 300.26 220.16 301.72 219.44ZM290.24 230.92C290.88 231.36 293.06 233.14 293.56 233.6L292.68 234.72C292.04 233.98 290.16 232.22 289.42 231.6L290.24 230.92ZM286.42 222.94L287.6 222.68C288.02 223.56 288.36 224.74 288.46 225.5L287.2 225.84C287.14 225.06 286.82 223.86 286.42 222.94ZM291.54 222.64L292.9 222.94C292.52 223.94 292.1 225.06 291.74 225.8L290.54 225.52C290.9 224.72 291.32 223.48 291.54 222.64ZM288.94 229.9L290.02 230.32C289 232.54 287.16 234.9 285.56 236.14C285.32 235.8 284.88 235.32 284.54 235.08C286.16 234.02 287.98 231.86 288.94 229.9ZM304.86 224.1H310.22V225.52H304.86V224.1ZM307 219.5H308.46V232.58H307V219.5ZM304.56 232.92C306.08 232.36 308.4 231.4 310.62 230.46L310.98 231.82C308.94 232.74 306.78 233.7 305.08 234.42L304.56 232.92ZM312.34 230.32H321.2V237.56H319.72V231.46H313.78V237.62H312.34V230.32ZM313.1 235.68H320.66V236.86H313.1V235.68ZM313.06 233.02H320.56V234.1H313.06V233.02ZM316.1 224.06H317.24V228.58H316.1V224.06ZM312.6 224.66V228.04H320.84V224.66H312.6ZM311.38 223.5H322.14V229.18H311.38V223.5ZM313.34 225.36L314.28 225.1C314.66 225.82 315.02 226.78 315.14 227.36L314.18 227.68C314.06 227.08 313.7 226.1 313.34 225.36ZM318.9 225.08L319.96 225.42C319.58 226.24 319.18 227.1 318.82 227.68L318 227.38C318.32 226.72 318.72 225.74 318.9 225.08ZM315.06 219.74H319.12V221.04H315.06V219.74ZM313.36 220.28L314.7 220.68C313.78 222.48 312.28 224.26 310.86 225.4C310.66 225.14 310.16 224.6 309.84 224.36C311.22 223.34 312.58 221.84 313.36 220.28ZM317.9 219.74H319.4C320.36 221.42 322.08 223.12 323.58 224.04C323.26 224.3 322.82 224.82 322.58 225.2C321.02 224.08 319.32 222.28 318.3 220.5H317.9V219.74ZM335.64 227.28H337.18V235C337.18 235.7 337.34 235.82 338.12 235.82C338.48 235.82 340.22 235.82 340.72 235.82C341.54 235.82 341.66 235.3 341.74 232.22C342.08 232.5 342.74 232.76 343.14 232.88C342.98 236.32 342.58 237.26 340.82 237.26C340.42 237.26 338.32 237.26 337.94 237.26C336.12 237.26 335.64 236.74 335.64 235V227.28ZM325.18 226.38H342.84V227.84H325.18V226.38ZM326.92 220.76H341.14V222.22H326.92V220.76ZM330.3 227.5H331.88C331.54 231.98 330.66 235.66 325.88 237.56C325.72 237.2 325.28 236.66 324.94 236.38C329.36 234.72 330 231.4 330.3 227.5ZM353.2 232.14H354.7V237.58H353.2V232.14ZM352.24 226.02L353.62 226.68C352.5 227.68 351.16 228.8 350.08 229.52L349.04 228.92C350.1 228.16 351.46 226.92 352.24 226.02ZM356.34 227.06L357.68 227.8C355.62 229.48 352.78 231.42 350.58 232.6L349.58 231.92C351.78 230.7 354.62 228.62 356.34 227.06ZM347.08 228.9L348.06 228.04C349.56 228.76 351.52 229.88 352.52 230.7L351.46 231.64C350.52 230.84 348.62 229.66 347.08 228.9ZM357.04 230.18L358.1 229.36C359.82 230.32 361.92 231.76 362.98 232.86L361.86 233.74C360.88 232.68 358.8 231.16 357.04 230.18ZM356.68 234.2L357.78 233.38C359.48 234.14 361.64 235.36 362.74 236.28L361.58 237.18C360.54 236.28 358.4 235 356.68 234.2ZM345.28 231.74C349.06 231.72 355.24 231.62 360.98 231.5L360.9 232.66C355.28 232.8 349.26 232.94 345.4 233L345.28 231.74ZM349.82 233.4L351.18 233.92C349.82 235.22 347.76 236.48 346.04 237.28C345.78 237 345.22 236.48 344.88 236.26C346.66 235.56 348.6 234.5 349.82 233.4ZM353.2 219.18H354.7V226.3H353.2V219.18ZM346.28 220.68H361.92V221.82H346.28V220.68ZM347.38 223.1H360.74V224.26H347.38V223.1ZM345.22 225.56H362.82V226.76H345.22V225.56ZM372.54 228.88H374.08C374.08 228.88 374.06 229.38 374.02 229.58C373.68 234.32 373.32 236.2 372.62 236.9C372.2 237.36 371.74 237.5 371 237.56C370.38 237.6 369.12 237.58 367.84 237.52C367.8 237.04 367.58 236.4 367.28 235.96C368.62 236.08 369.96 236.1 370.44 236.1C370.88 236.1 371.1 236.08 371.34 235.88C371.88 235.42 372.22 233.6 372.52 229.12L372.54 228.88ZM366.6 224.64H368.14C367.8 226.8 367.32 229.56 366.92 231.24L365.42 231C365.84 229.34 366.34 226.68 366.6 224.64ZM379.48 219.42H380.98V237.6H379.48V219.42ZM366.64 228.88H373V230.28H366.44L366.64 228.88ZM367.16 224.64H372.5V221.44H365.94V220.04H373.98V226.06H367.16V224.64ZM394.74 225.22H398.9V226.4H394.74V225.22ZM393.46 231.02H400.2V232.1H393.46V231.02ZM386.76 220.06H392.36V221.28H386.76V220.06ZM391.94 220.06H392.2L392.46 220L393.4 220.46C391.9 223.82 388.6 226.06 385.36 227.18C385.18 226.84 384.82 226.32 384.54 226.06C387.54 225.16 390.72 223.02 391.94 220.3V220.06ZM395.1 219.2C396.54 222.3 399.58 224.74 403.3 225.72C402.98 226.02 402.6 226.54 402.38 226.9C398.56 225.72 395.5 223.08 393.88 219.58L395.1 219.2ZM399.18 219.34L400.3 220.12C399.32 221.04 398.06 222 397.1 222.66L396.22 221.96C397.14 221.28 398.46 220.16 399.18 219.34ZM401.58 221.36L402.68 222.12C401.72 223.04 400.42 224 399.44 224.62L398.52 223.92C399.48 223.26 400.84 222.14 401.58 221.36ZM387.38 225.3H392.28V230.1H390.94V226.48H387.38V225.3ZM386.86 228.58H388.16C387.88 230.14 387.48 232.1 387.16 233.34L385.9 233.12C386.24 231.92 386.64 230.04 386.86 228.58ZM390.94 231.62H392.32C392.32 231.62 392.3 232.04 392.28 232.22C392.02 235.26 391.76 236.54 391.24 237.06C390.88 237.4 390.52 237.5 389.9 237.56C389.38 237.58 388.32 237.56 387.22 237.52C387.18 237.12 387.02 236.58 386.78 236.22C387.9 236.32 388.98 236.34 389.36 236.34C389.74 236.34 389.96 236.32 390.12 236.16C390.48 235.82 390.7 234.68 390.94 231.82V231.62ZM394.2 225.22H395.5V226.8C395.5 228.1 395.08 229.6 393.3 230.64C393.1 230.36 392.62 229.88 392.34 229.7C393.94 228.84 394.2 227.74 394.2 226.78V225.22ZM399.86 231.02H400.12L400.36 230.96L401.22 231.28C399.9 235 396.76 236.78 392.98 237.62C392.86 237.3 392.56 236.8 392.32 236.52C395.76 235.88 398.76 234.24 399.86 231.22V231.02ZM395.36 232.02C396.52 234.34 399.2 235.86 402.74 236.36C402.42 236.66 402.04 237.24 401.84 237.6C398.18 236.92 395.5 235.14 394.18 232.34L395.36 232.02ZM387.52 228.58H391.44V229.76H387.32L387.52 228.58ZM386.92 231.62H391.32V232.78H386.7L386.92 231.62ZM398.2 225.22H399.52V228.34C399.52 228.62 399.52 228.82 399.6 228.88C399.68 228.94 399.78 228.94 399.94 228.94C400.08 228.94 400.34 228.94 400.52 228.94C400.7 228.94 400.9 228.94 400.96 228.92C401.04 228.88 401.14 228.78 401.2 228.64C401.24 228.46 401.26 228.08 401.28 227.58C401.54 227.8 402.02 228.04 402.38 228.14C402.34 228.66 402.28 229.24 402.14 229.48C402.04 229.7 401.8 229.86 401.54 229.94C401.34 230.02 400.94 230.04 400.66 230.04C400.44 230.04 399.88 230.04 399.68 230.04C399.28 230.04 398.84 229.96 398.58 229.74C398.3 229.48 398.2 229.18 398.2 228.22V225.22ZM386.22 222.44L387.1 221.62C388.02 222.16 389.16 223 389.7 223.58L388.78 224.5C388.26 223.88 387.16 223.02 386.22 222.44ZM407.9 220.62H420.84V222.06H407.9V220.62ZM407.9 225.28H420.82V226.7H407.9V225.28ZM407.8 230.06H420.86V231.48H407.8V230.06ZM407.06 220.62H408.54V227.88C408.54 230.92 408.18 235.06 405.8 237.72C405.56 237.42 404.96 236.92 404.64 236.72C406.84 234.24 407.06 230.68 407.06 227.86V220.62ZM420.24 220.62H421.72V235.56C421.72 236.54 421.48 237 420.82 237.26C420.14 237.5 418.98 237.52 417.08 237.5C417.02 237.1 416.78 236.44 416.56 236.04C417.98 236.1 419.34 236.08 419.72 236.08C420.1 236.06 420.24 235.94 420.24 235.56V220.62ZM413.34 221.16H414.86V237.42H413.34V221.16ZM428.32 229.82H439.86V231.22H428.32V229.82ZM428.46 224.42H440.74V232.3H439.24V225.82H428.46V224.42ZM438.92 219.26L440.16 220.38C437.08 221.38 432.44 222.18 428.44 222.7C428.38 222.36 428.18 221.82 428 221.5C431.9 220.98 436.4 220.14 438.92 219.26ZM427.54 221.08L429.48 221.64C429.46 221.8 429.34 221.88 429.06 221.92V227.56C429.06 230.54 428.68 234.72 425.92 237.6C425.7 237.28 425.14 236.76 424.76 236.58C427.28 233.96 427.54 230.38 427.54 227.54V221.08ZM451.16 229.52H462.98V230.9H451.16V229.52ZM457.86 222.24H459.22V225.78C459.22 226.2 459.3 226.28 459.8 226.28C460.02 226.28 461.14 226.28 461.44 226.28C461.88 226.28 461.96 226.08 462 224.52C462.28 224.74 462.84 224.94 463.22 225.04C463.08 227 462.7 227.5 461.6 227.5C461.3 227.5 459.9 227.5 459.62 227.5C458.18 227.5 457.86 227.12 457.86 225.8V222.24ZM451.48 220.3H462.82V223.84H461.46V221.62H452.8V223.92H451.48V220.3ZM456.24 227.36H457.72V237.6H456.24V227.36ZM454.66 222.28H456.06C455.86 225.38 455.08 227.06 451.8 227.96C451.66 227.64 451.3 227.14 451.02 226.9C453.92 226.16 454.5 224.86 454.66 222.28ZM458.28 230.14C459.36 232.32 461.48 234.44 463.54 235.48C463.22 235.76 462.76 236.28 462.5 236.66C460.4 235.42 458.28 233.04 457.1 230.6L458.28 230.14ZM455.76 230.02L456.94 230.44C455.74 233.14 453.5 235.54 451.04 236.76C450.82 236.4 450.4 235.88 450.06 235.6C452.42 234.58 454.66 232.4 455.76 230.02ZM444.54 229.58C446.1 229.14 448.44 228.42 450.72 227.68L450.92 229.06C448.84 229.78 446.64 230.5 444.94 231.04L444.54 229.58ZM444.82 223.24H450.9V224.64H444.82V223.24ZM447.34 219.22H448.74V235.86C448.74 236.7 448.54 237.1 448.04 237.34C447.58 237.58 446.8 237.62 445.54 237.62C445.48 237.26 445.3 236.64 445.1 236.22C445.98 236.24 446.74 236.24 446.98 236.22C447.22 236.22 447.34 236.16 447.34 235.86V219.22ZM473.2 232.1H474.7V237.64H473.2V232.1ZM473.2 219.2H474.68V224.8H473.2V219.2ZM472.46 225.16L473.86 225.84C472.7 226.92 471.28 228.08 470.12 228.88L469.02 228.26C470.14 227.44 471.64 226.12 472.46 225.16ZM476.78 226.46L478.14 227.2C475.88 229.04 472.8 231.16 470.36 232.52L469.3 231.8C471.74 230.42 474.9 228.16 476.78 226.46ZM467.48 228.2L468.48 227.34C469.98 228.08 471.88 229.22 472.86 230.06L471.82 231.02C470.9 230.18 469.02 228.98 467.48 228.2ZM476.56 229.78L477.56 228.98C479.32 230.02 481.54 231.56 482.66 232.62L481.6 233.54C480.54 232.48 478.34 230.84 476.56 229.78ZM476.62 234.06L477.76 233.28C479.48 234.12 481.68 235.46 482.82 236.44L481.58 237.34C480.54 236.36 478.38 234.96 476.62 234.06ZM465.3 231.48C468.96 231.48 475 231.4 480.7 231.28L480.62 232.48C475.08 232.64 469.18 232.82 465.38 232.86L465.3 231.48ZM469.78 233.26L471.2 233.78C469.86 235.16 467.8 236.54 466.06 237.4C465.8 237.12 465.24 236.6 464.88 236.34C466.66 235.6 468.58 234.44 469.78 233.26ZM465.52 220.98H482.42V222.3H465.52V220.98ZM465.46 224.22H482.6V227.98H481.12V225.52H466.88V227.98H465.46V224.22Z" fill="white"/>
<path d="M613.28 192.76V195.64H611.78V191.38H619.18V189.26H620.72V191.38H628.32V195.64H626.78V192.76H613.28ZM623.5 198.28H617.78C617.22 199.36 616.64 200.44 616.1 201.4C617.58 201.84 619.16 202.38 620.72 202.96C622.04 201.8 622.96 200.28 623.5 198.28ZM628.82 198.28H625.2C624.58 200.52 623.58 202.24 622.24 203.56C624.44 204.46 626.46 205.44 627.86 206.32L626.78 207.56C625.4 206.62 623.3 205.58 620.98 204.6C618.86 206.12 616.06 207 612.56 207.56C612.42 207.22 611.96 206.54 611.66 206.22C614.86 205.82 617.42 205.14 619.38 203.96C618.06 203.44 616.72 202.96 615.46 202.58C615.28 202.88 615.12 203.16 614.96 203.42L613.46 203.02C614.22 201.76 615.16 200.04 616.08 198.28H611.2V196.88H616.82C617.38 195.74 617.94 194.64 618.4 193.66L619.92 194C619.5 194.9 619 195.88 618.5 196.88H628.82V198.28ZM636.96 199.06L634.78 199.78V205.8C634.78 206.6 634.6 207.02 634.1 207.26C633.62 207.48 632.86 207.54 631.62 207.52C631.56 207.18 631.38 206.56 631.18 206.16C632.04 206.18 632.82 206.18 633.06 206.16C633.3 206.16 633.4 206.1 633.4 205.8V200.22L631.02 201L630.64 199.56C631.4 199.36 632.36 199.06 633.4 198.74V194.64H630.9V193.28H633.4V189.28H634.78V193.28H636.92V194.64H634.78V198.32C635.44 198.12 636.1 197.9 636.76 197.68L636.96 199.06ZM640.48 192.66V189.26H641.8V197.64C641.8 201.62 641.36 205.12 637.74 207.54C637.52 207.26 637.02 206.78 636.7 206.54C638.56 205.32 639.52 203.82 640.02 202.1C638.9 202.54 637.78 202.92 636.8 203.28L636.22 201.98C637.32 201.7 638.78 201.24 640.3 200.74C640.42 199.92 640.46 199.06 640.48 198.16H637.34V196.82H640.48V194.02H637.2V192.66H640.48ZM649.12 201.14V202.5H645.3V207.5H643.88V189.26H645.3V192.66H648.78V194.02H645.3V196.82H648.58V198.16H645.3V201.14H649.12ZM664.1 194.2L663.88 194.14C664.2 193.6 664.58 192.78 664.82 192.14H659.9C660.28 192.74 660.62 193.56 660.74 194.1L660.38 194.2H664.1ZM664 201.84V200.12H660.84V201.84H664ZM658.56 192.32L659.26 192.14H656.08V190.94H661.6V189.26H663.06V190.94H668.86V192.14H665.78L666.3 192.28C665.94 192.96 665.56 193.66 665.24 194.2H668.16V203C668.16 203.72 668.02 204.1 667.5 204.34C666.98 204.54 666.16 204.56 664.98 204.56C664.92 204.2 664.72 203.64 664.52 203.28C665.42 203.32 666.2 203.32 666.46 203.3C666.7 203.3 666.76 203.22 666.76 203V195.38H662.96V196.72H665.96V197.74H662.96V199.18H665.1V202.78H660.84V203.54H659.76V199.18H661.82V197.74H658.84V196.72H661.82V195.38H658.16V204.58H656.8V194.2H659.4C659.24 193.62 658.9 192.88 658.56 192.32ZM655.54 193.02L654.34 193.94C653.74 192.94 652.4 191.56 651.18 190.6L652.32 189.76C653.54 190.68 654.92 192.04 655.54 193.02ZM654.94 197.1V203.52C655.88 205 657.64 205.68 659.98 205.76C662.18 205.86 666.78 205.8 669.18 205.64C669 205.98 668.76 206.66 668.7 207.1C666.46 207.2 662.24 207.24 660 207.14C657.38 207.04 655.58 206.34 654.34 204.78C653.46 205.64 652.54 206.48 651.56 207.34L650.78 205.92C651.62 205.3 652.64 204.46 653.54 203.62V198.5H651V197.1H654.94ZM684.92 191.88V190.8H675.02V191.88H684.92ZM684.92 193.84V192.74H675.02V193.84H684.92ZM686.38 189.9V194.74H673.6V189.9H686.38ZM688.92 195.56V196.7H671.12V195.56H688.92ZM674.62 201.66H679.26V200.52H674.62V201.66ZM674.62 198.52V199.64H679.26V198.52H674.62ZM685.52 199.64V198.52H680.68V199.64H685.52ZM685.52 201.66V200.52H680.68V201.66H685.52ZM680.68 205.88H689.02V207.04H671V205.88H679.26V204.72H672.66V203.68H679.26V202.58H673.24V197.6H686.98V202.58H680.68V203.68H687.4V204.72H680.68V205.88ZM694.88 191.68V195.6H705.48V191.68H694.88ZM700.86 201.48V205.54C701.92 205.76 703.08 205.84 704.34 205.84C704.96 205.84 708.36 205.84 709.2 205.82C708.98 206.18 708.74 206.84 708.66 207.26H704.26C700.02 207.26 696.96 206.5 695.06 203.04C694.4 204.82 693.42 206.44 692 207.54C691.76 207.24 691.26 206.74 690.96 206.54C693.32 204.72 694.28 201.36 694.56 198.5L696.14 198.68C696.02 199.5 695.86 200.34 695.64 201.18C696.44 203.28 697.7 204.48 699.36 205.12V197.02H693.42V190.24H707.02V197.02H700.86V200.1H707.56V201.48H700.86ZM714.8 189.18L716.12 189.46C715.22 191.34 713.8 193.3 711.72 194.84C711.52 194.54 711.1 194.08 710.8 193.88C712.76 192.56 714.12 190.72 714.8 189.18ZM715.8 196.62L717.14 196.9C716.06 198.98 714.32 201.08 711.68 202.68C711.5 202.34 711.1 201.84 710.82 201.64C713.3 200.28 714.98 198.32 715.8 196.62ZM714.4 191.14H718.34V192.38H713.4L714.4 191.14ZM717.8 191.14H718.04L718.28 191.08L719.14 191.54C717.86 195.4 714.94 197.84 711.88 199.12C711.72 198.76 711.4 198.26 711.14 198C713.98 196.94 716.74 194.58 717.8 191.4V191.14ZM715.34 198.36H718.84V199.64H714.26L715.34 198.36ZM718.52 198.36H718.76L719.02 198.3L719.88 198.72C718.58 203.64 715.32 206.34 711.58 207.62C711.42 207.26 711.12 206.7 710.84 206.4C714.32 205.36 717.44 202.78 718.52 198.62V198.36ZM712.84 194.56L713.8 193.84C714.58 194.32 715.56 195.08 716.04 195.62L715.06 196.44C714.58 195.88 713.62 195.1 712.84 194.56ZM713.58 202.14L714.56 201.4C715.36 201.9 716.36 202.7 716.84 203.28L715.82 204.1C715.36 203.52 714.4 202.7 713.58 202.14ZM721.98 189.26L723.36 189.6C722.54 192.46 721.2 195.2 719.68 196.98C719.46 196.74 718.88 196.26 718.56 196.06C720.08 194.42 721.28 191.88 721.98 189.26ZM727.24 192.18H728.62C728.62 192.18 728.62 192.74 728.6 192.96C728.44 202.54 728.28 205.62 727.64 206.52C727.28 207.08 726.86 207.26 726.26 207.34C725.68 207.4 724.76 207.38 723.86 207.34C723.82 206.92 723.66 206.3 723.42 205.9C724.42 205.98 725.32 205.98 725.7 205.98C726.04 206 726.2 205.92 726.38 205.66C726.9 205 727.08 201.72 727.24 192.52V192.18ZM721.68 195.74H725.66V202.82H721.68V201.58H724.42V197H721.68V195.74ZM720.9 195.74H722.14V204.36H720.9V195.74ZM721.46 192.18H727.78V193.52H721.46V192.18ZM736.28 191.58L735.42 192.76C734.68 192.06 733.14 191.1 731.88 190.52L732.68 189.44C733.96 189.98 735.52 190.86 736.28 191.58ZM735.3 196.78L734.46 198.02C733.68 197.34 732.12 196.44 730.82 195.9L731.64 194.78C732.9 195.28 734.5 196.12 735.3 196.78ZM734.8 199.84L735.94 200.76C734.98 202.88 733.72 205.36 732.66 207.24L731.38 206.3C732.36 204.74 733.76 202.12 734.8 199.84ZM742.66 193.84V196.08C742.66 196.84 742.64 197.62 742.58 198.38H746.04V193.84H742.66ZM749.14 199.76H743.6C744.58 202.86 746.46 205.2 749.3 206.3C748.96 206.58 748.48 207.16 748.28 207.56C745.3 206.28 743.38 203.74 742.3 200.32C741.7 203.08 740.16 205.64 736.42 207.56C736.16 207.26 735.62 206.74 735.26 206.5C738.92 204.68 740.34 202.32 740.88 199.76H736.18V198.38H741.1C741.18 197.62 741.2 196.84 741.2 196.06V193.84H737.26V192.46H741.2V189.3H742.66V192.46H747.48V198.38H749.14V199.76ZM754.82 192.3H753.84C753.26 193.18 752.62 193.98 751.96 194.6C751.68 194.38 751.08 193.96 750.74 193.78C752.02 192.66 753.22 190.92 753.88 189.2L755.28 189.56C755.08 190.06 754.86 190.54 754.6 191.02H759.72V192.3H756.3C756.68 192.94 757 193.66 757.16 194.14L755.86 194.62C755.68 194 755.24 193.08 754.82 192.3ZM760.88 199.2V201.08C762.46 202.84 765.62 204.7 769.26 205.5C768.96 205.82 768.54 206.42 768.32 206.8C765.26 205.98 762.6 204.34 760.88 202.72V207.52H759.32V202.68C757.36 204.6 754.62 206.12 751.86 206.88C751.68 206.5 751.26 205.94 750.92 205.64C754.22 204.88 757.56 203.1 759.32 200.92V199.2H754.4V203.04H752.86V197.9H759.32V196.36H751.42V195.04H759.32V194.38C759.02 194.14 758.64 193.86 758.36 193.74C759.72 192.66 760.92 190.98 761.54 189.2L763 189.54C762.8 190.06 762.58 190.54 762.34 191.02H768.76V192.3H764.64C765.06 192.94 765.42 193.62 765.6 194.12L764.3 194.58C764.08 193.96 763.6 193.06 763.1 192.3H761.58C761.22 192.82 760.82 193.34 760.44 193.78H760.88V195.04H768.5V196.36H760.88V197.9H767.36V201.58C767.36 202.3 767.22 202.6 766.7 202.82C766.2 203.02 765.4 203.02 764.28 203.02C764.2 202.64 763.96 202.18 763.78 201.84C764.58 201.88 765.36 201.86 765.58 201.86C765.82 201.86 765.88 201.78 765.88 201.58V199.2H760.88ZM777.36 197.98V193.8H773.16V197.98H777.36ZM773.16 204.1H777.36V199.3H773.16V204.1ZM774.84 189.22L776.44 189.52C776.1 190.5 775.74 191.6 775.4 192.46H778.72V205.44H773.16V207.02H771.8V192.46H774.04C774.34 191.5 774.7 190.16 774.84 189.22ZM788.5 192.4V193.16C788.18 202.28 787.92 205.36 787.12 206.34C786.68 206.9 786.22 207.08 785.54 207.14C784.84 207.22 783.7 207.18 782.58 207.12C782.54 206.68 782.36 206.08 782.08 205.66C783.38 205.78 784.58 205.78 785.04 205.78C785.44 205.78 785.66 205.74 785.86 205.48C786.52 204.78 786.82 201.74 787.08 193.78H782C781.44 195.12 780.82 196.34 780.12 197.28C779.86 197.04 779.22 196.64 778.9 196.44C780.24 194.68 781.32 191.92 781.96 189.18L783.38 189.52C783.14 190.5 782.86 191.46 782.52 192.4H788.5ZM785.34 201.4L784.08 202.18C783.48 200.98 782.14 199 781.04 197.56L782.2 196.88C783.32 198.3 784.7 200.22 785.34 201.4ZM801.84 191.84H799.72C799.22 192.46 798.64 193.04 797.94 193.58C797.66 193.3 797.18 192.98 796.82 192.84C798.32 191.8 799.32 190.46 799.84 189.26L801.18 189.48C800.98 189.9 800.76 190.3 800.5 190.72H807.34L807.58 190.66L808.58 190.96C808.02 191.98 807.28 193.1 806.58 193.8L805.38 193.38C805.8 192.98 806.24 192.42 806.6 191.84H803.4C803.84 193.38 804.96 194.82 809.06 195.44C808.78 195.72 808.44 196.28 808.3 196.64C804.9 196.04 803.44 194.76 802.7 193.32C801.92 194.8 800.44 195.74 797.6 196.3C797.48 195.98 797.14 195.5 796.9 195.24C800.16 194.66 801.36 193.66 801.84 191.84ZM795.1 201.96V203.36H805.12V201.96H795.1ZM795.1 199.62V201H805.12V199.62H795.1ZM795.1 197.32V198.66H805.12V197.32H795.1ZM793.66 204.34V196.32H806.6V204.34H793.66ZM796.82 191.24L796.16 192.4C795.24 191.86 793.4 191.16 791.98 190.72L792.64 189.7C794.02 190.08 795.86 190.74 796.82 191.24ZM796.58 193.42L796.76 194.58C794.96 195.16 793.08 195.74 791.58 196.22L791 194.92C792.44 194.58 794.54 193.98 796.58 193.42ZM797 204.54L798.34 205.18C796.72 206.12 794.22 207.04 792.24 207.58C791.98 207.3 791.48 206.72 791.14 206.46C793.18 206.04 795.58 205.34 797 204.54ZM801.66 205.36L802.88 204.6C805.04 205.3 807.42 206.16 808.88 206.82L807.24 207.56C806 206.92 803.84 206.08 801.66 205.36ZM817.52 189.96V191.16H811.84V189.96H817.52ZM818.24 192.58V193.8H810.84V192.58H818.24ZM817.56 195.28V196.46H811.76V195.28H817.56ZM811.76 199.12V197.92H817.56V199.12H811.76ZM816.3 201.82H813.04V205.18H816.3V201.82ZM817.58 206.38H813.04V207.3H811.74V200.6H817.58V206.38ZM818.5 190.28H827.12C827.04 198.74 826.98 205.58 828.36 205.9C828.52 205.94 828.68 204.46 828.74 202.78C829.02 203.14 829.42 203.66 829.68 203.84C829.44 207.14 828.78 207.82 827.78 207.42C825.54 206.74 825.6 200.2 825.6 191.68H822.42V195.88C822.42 196.26 822.42 196.66 822.4 197.06H824.94V198.46H822.34C822.12 201.62 821.32 204.9 818.6 207.56C818.38 207.28 817.86 206.76 817.54 206.54C819.92 204.16 820.68 201.26 820.92 198.46H818.28V197.06H820.98C821 196.66 821 196.26 821 195.86V191.68H818.5V190.28ZM639.22 222.46V224.48H637.86V221.2H642.5V219.24H644V221.2H648.8V224.2H647.4V222.46H639.22ZM631.84 230.6L633.06 230.82C632.78 232.7 632.34 234.6 631.7 235.88C631.48 235.72 630.9 235.46 630.62 235.36C631.24 234.14 631.62 232.34 631.84 230.6ZM635.7 230.84L636.74 230.52C637.24 231.68 637.62 233.16 637.74 234.14L636.62 234.48C636.56 233.48 636.16 231.98 635.7 230.84ZM640.14 223.86L641.46 224.18C641.16 225.2 640.78 226.3 640.3 227.38V237.52H639.04V229.76C638.7 230.28 638.34 230.78 637.94 231.22C637.76 230.96 637.4 230.48 637.14 230.26C637.34 230.04 637.52 229.78 637.7 229.52L636.86 229.88C636.82 229.62 636.74 229.32 636.66 229L635.12 229.1V237.52H633.84V229.18C632.74 229.26 631.7 229.32 630.8 229.38L630.66 228.04C631.1 228.02 631.6 228 632.12 227.98C632.5 227.48 632.9 226.92 633.3 226.3C632.72 225.4 631.72 224.24 630.8 223.38L631.6 222.46C631.8 222.64 632.02 222.86 632.22 223.06C632.86 221.92 633.58 220.38 633.98 219.28L635.26 219.76C634.58 221.14 633.74 222.78 633.02 223.88C633.42 224.32 633.78 224.76 634.06 225.14C634.84 223.9 635.56 222.6 636.08 221.54L637.3 222.08C636.22 223.94 634.74 226.22 633.46 227.9L636.22 227.74C635.98 227.14 635.7 226.52 635.42 225.96L636.46 225.56C637.08 226.68 637.7 228.16 637.94 229.16C638.96 227.56 639.74 225.54 640.14 223.86ZM647.2 231.6V229.14H643.1V231.6H647.2ZM643.1 235.42H647.2V232.8H643.1V235.42ZM648.94 225.9H645.84C645.66 226.58 645.48 227.3 645.3 227.92H648.48V237.4H647.2V236.62H643.1V237.5H641.84V227.92H643.94C644.1 227.3 644.26 226.56 644.38 225.9H641.46V224.68H648.94V225.9ZM668.94 220.14V221.52H658.82V220.14H668.94ZM666.66 228.52V225.02H661V228.52H666.66ZM668.1 223.7V229.86H659.62V223.7H668.1ZM665.86 235.36L664.6 235.04C665.12 233.86 665.7 231.9 666 230.54L667.48 230.88C666.98 232.4 666.36 234.26 665.86 235.36ZM662.58 234.9L661.24 235.24C661.12 234.08 660.68 232.32 660.22 230.98L661.48 230.66C662 232 662.44 233.74 662.58 234.9ZM659 233.64L658.04 234.86C657.54 234.06 656.34 232.56 655.44 231.5C654.88 233.64 653.82 235.78 651.82 237.44C651.66 237.14 651.1 236.58 650.82 236.4C653.46 234.18 654.28 231.24 654.52 228.62H650.94V227.24H654.6C654.6 227 654.6 226.76 654.6 226.54V223.22H653.44C653.02 224.42 652.54 225.48 652 226.34C651.72 226.14 651.08 225.78 650.72 225.62C651.82 224.1 652.56 221.74 652.94 219.36L654.36 219.62C654.22 220.38 654.04 221.14 653.84 221.86H658.62V223.22H656.02V226.54C656.02 226.76 656.02 227 656.02 227.24H658.86V228.62H655.94C655.9 229.08 655.84 229.54 655.76 230C656.56 230.84 658.52 233.06 659 233.64ZM657.94 235.7H669.12V237.1H657.94V235.7ZM685.84 224.84V223.98H678.94V224.84H685.84ZM685.84 226.52V225.62H678.94V226.52H685.84ZM685.84 228.22V227.32H678.94V228.22H685.84ZM677.54 223.16H681.2C681.28 222.84 681.36 222.48 681.44 222.16H675.96V221.08H679.32C679.1 220.58 678.76 220.02 678.42 219.58L679.62 219.28C680.08 219.78 680.52 220.54 680.74 221.08H684.1C684.48 220.54 684.98 219.76 685.22 219.24L686.62 219.56C686.26 220.12 685.86 220.64 685.52 221.08H688.92V222.16H682.84L682.48 223.16H687.28V229.04H677.54V223.16ZM675.4 222.14L674.34 223.06C673.82 222.28 672.68 221.2 671.66 220.48L672.66 219.68C673.66 220.36 674.84 221.38 675.4 222.14ZM674.4 234.36L675.42 233.5C676.48 234.14 677.76 235.1 678.4 235.8L677.32 236.74C676.74 236.02 675.48 235.02 674.4 234.36ZM684.66 231.1V232.32H689.02V233.48H684.66V235.94C684.66 236.72 684.5 237.1 683.88 237.3C683.26 237.52 682.24 237.52 680.6 237.52C680.52 237.14 680.32 236.62 680.1 236.26C681.38 236.3 682.5 236.28 682.82 236.26C683.16 236.26 683.24 236.18 683.24 235.92V233.48H671V232.32H683.24V231.1C681.68 231.12 680.18 231.1 679.18 231.06C677.1 231 675.58 230.48 674.58 229.26C673.6 229.94 672.62 230.6 671.56 231.28L670.96 230.04C671.8 229.62 672.8 229.04 673.72 228.44V225.62H671.08V224.46H675.08V228.22C675.84 229.38 677.34 229.88 679.16 229.94C681.46 230.02 686.62 229.96 689.16 229.82C689.02 230.12 688.82 230.64 688.76 231.02C687.72 231.06 686.22 231.1 684.66 231.1ZM696.72 227.88L696.56 226.48C697.24 226.46 698.02 226.44 698.86 226.42C699.44 225.48 700.04 224.24 700.46 223.2H696.32V221.86H701.6V219.28H703.1V221.86H708.96V223.2H702.16C701.62 224.24 700.98 225.4 700.38 226.36C702.08 226.3 703.96 226.22 705.82 226.16C705.3 225.58 704.72 225.02 704.18 224.54L705.34 223.88C706.74 225.1 708.34 226.82 709.06 228.04L707.84 228.76C707.6 228.36 707.28 227.88 706.88 227.38C703.22 227.56 699.4 227.76 696.72 227.88ZM696.28 221.58L695.42 222.76C694.68 222.04 693.14 221.1 691.88 220.52L692.68 219.44C693.96 219.98 695.52 220.86 696.28 221.58ZM695.3 226.78L694.46 228.02C693.68 227.34 692.12 226.44 690.82 225.9L691.64 224.78C692.9 225.28 694.5 226.12 695.3 226.78ZM694.96 229.84L696.08 230.76C695.1 232.88 693.78 235.38 692.68 237.24L691.42 236.3C692.42 234.74 693.88 232.12 694.96 229.84ZM698.12 230.72V228.66H699.48V230.76C699.48 232.96 699.14 235.56 696.48 237.48C696.26 237.2 695.76 236.74 695.42 236.5C697.86 234.82 698.12 232.56 698.12 230.72ZM701.6 236.66V228.78H702.92V236.66H701.6ZM706.94 236.02H707.5C707.68 236.02 707.84 236 707.94 235.92C708.02 235.86 708.1 235.7 708.14 235.38C708.18 235.06 708.2 234.34 708.22 233.4C708.46 233.6 708.9 233.82 709.26 233.94C709.24 234.82 709.18 235.86 709.06 236.22C708.96 236.6 708.8 236.84 708.52 237C708.32 237.14 707.92 237.22 707.58 237.22H706.6C706.22 237.22 705.78 237.12 705.5 236.88C705.22 236.6 705.12 236.3 705.12 235.1V228.66H706.5V235.24C706.5 235.64 706.5 235.84 706.6 235.94C706.68 236 706.8 236.02 706.94 236.02ZM724.62 228.18V229.46L726.76 229.42C726.48 229.12 726.18 228.8 725.88 228.54L726.58 228.18H724.62ZM720.9 227.26H723.32V226.02H720.9V227.26ZM720.9 223.9V225.12H723.32V223.9H720.9ZM727.18 223.9H724.62V225.12H727.18V223.9ZM727.18 227.26V226.02H724.62V227.26H727.18ZM719.12 230.68L719.02 229.54C720.18 229.52 721.68 229.52 723.32 229.48V228.18H719.68V222.98H723.32V221.9H719.22V220.72H723.32V219.28H724.62V220.72H728.9V221.9H724.62V222.98H728.42V228.18H727.02C727.92 228.94 728.8 229.96 729.26 230.66L728.22 231.3C728.08 231.06 727.88 230.76 727.64 230.46C724.5 230.56 721.32 230.64 719.12 230.68ZM720.18 233.8L721.18 233.2C721.98 233.86 722.78 234.82 723.16 235.5L722.06 236.22C721.7 235.5 720.92 234.48 720.18 233.8ZM712.66 228.18V230H714.52V228.18H712.66ZM712.66 225.34V227.12H714.52V225.34H712.66ZM717.44 227.12V225.34H715.58V227.12H717.44ZM717.44 230V228.18H715.58V230H717.44ZM726.72 230.78V231.84H729.14V233.02H726.72V236.08C726.72 236.8 726.56 237.16 726.02 237.34C725.44 237.56 724.58 237.56 723.26 237.56C723.2 237.18 723 236.68 722.82 236.32C723.82 236.36 724.72 236.36 725 236.34C725.28 236.32 725.34 236.28 725.34 236.06V233.02H719.08V234.06H715.7V237.54H714.38V234.06H710.84V232.74H714.38V231.12H711.56V224.22H714.38V222.74H711.1V221.44H714.38V219.28H715.7V221.44H718.8V222.74H715.7V224.22H718.58V231.12H715.7V232.74H719V231.84H725.34V230.78H726.72ZM736.3 219.58L737.72 220.06C737.12 221.48 736.36 222.9 735.5 224.22V237.48H734V226.32C733.16 227.38 732.28 228.34 731.4 229.14C731.24 228.78 730.78 228 730.5 227.64C732.78 225.74 734.98 222.72 736.3 219.58ZM742.54 235.84H746.44C747.54 235.84 747.72 235.12 747.86 232.22C748.24 232.48 748.84 232.76 749.28 232.86C749.04 236.1 748.6 237.24 746.54 237.24H742.44C740.36 237.24 739.72 236.64 739.72 234.46V219.74H741.22V227.18C743.44 225.94 745.72 224.38 747.2 223.04L748.26 224.32C746.38 225.84 743.7 227.36 741.22 228.68V234.48C741.22 235.6 741.44 235.84 742.54 235.84ZM757.36 227.98V223.8H753.16V227.98H757.36ZM753.16 234.1H757.36V229.3H753.16V234.1ZM754.84 219.22L756.44 219.52C756.1 220.5 755.74 221.6 755.4 222.46H758.72V235.44H753.16V237.02H751.8V222.46H754.04C754.34 221.5 754.7 220.16 754.84 219.22ZM768.5 222.4V223.16C768.18 232.28 767.92 235.36 767.12 236.34C766.68 236.9 766.22 237.08 765.54 237.14C764.84 237.22 763.7 237.18 762.58 237.12C762.54 236.68 762.36 236.08 762.08 235.66C763.38 235.78 764.58 235.78 765.04 235.78C765.44 235.78 765.66 235.74 765.86 235.48C766.52 234.78 766.82 231.74 767.08 223.78H762C761.44 225.12 760.82 226.34 760.12 227.28C759.86 227.04 759.22 226.64 758.9 226.44C760.24 224.68 761.32 221.92 761.96 219.18L763.38 219.52C763.14 220.5 762.86 221.46 762.52 222.4H768.5ZM765.34 231.4L764.08 232.18C763.48 230.98 762.14 229 761.04 227.56L762.2 226.88C763.32 228.3 764.7 230.22 765.34 231.4ZM776.72 227.88L776.56 226.48C777.24 226.46 778.02 226.44 778.86 226.42C779.44 225.48 780.04 224.24 780.46 223.2H776.32V221.86H781.6V219.28H783.1V221.86H788.96V223.2H782.16C781.62 224.24 780.98 225.4 780.38 226.36C782.08 226.3 783.96 226.22 785.82 226.16C785.3 225.58 784.72 225.02 784.18 224.54L785.34 223.88C786.74 225.1 788.34 226.82 789.06 228.04L787.84 228.76C787.6 228.36 787.28 227.88 786.88 227.38C783.22 227.56 779.4 227.76 776.72 227.88ZM776.28 221.58L775.42 222.76C774.68 222.04 773.14 221.1 771.88 220.52L772.68 219.44C773.96 219.98 775.52 220.86 776.28 221.58ZM775.3 226.78L774.46 228.02C773.68 227.34 772.12 226.44 770.82 225.9L771.64 224.78C772.9 225.28 774.5 226.12 775.3 226.78ZM774.96 229.84L776.08 230.76C775.1 232.88 773.78 235.38 772.68 237.24L771.42 236.3C772.42 234.74 773.88 232.12 774.96 229.84ZM778.12 230.72V228.66H779.48V230.76C779.48 232.96 779.14 235.56 776.48 237.48C776.26 237.2 775.76 236.74 775.42 236.5C777.86 234.82 778.12 232.56 778.12 230.72ZM781.6 236.66V228.78H782.92V236.66H781.6ZM786.94 236.02H787.5C787.68 236.02 787.84 236 787.94 235.92C788.02 235.86 788.1 235.7 788.14 235.38C788.18 235.06 788.2 234.34 788.22 233.4C788.46 233.6 788.9 233.82 789.26 233.94C789.24 234.82 789.18 235.86 789.06 236.22C788.96 236.6 788.8 236.84 788.52 237C788.32 237.14 787.92 237.22 787.58 237.22H786.6C786.22 237.22 785.78 237.12 785.5 236.88C785.22 236.6 785.12 236.3 785.12 235.1V228.66H786.5V235.24C786.5 235.64 786.5 235.84 786.6 235.94C786.68 236 786.8 236.02 786.94 236.02ZM806.62 225.06V221.4H800.62V225.06H806.62ZM808.08 220.1V226.34H799.26V220.1H808.08ZM798.46 230.22L797.56 231.4C797.24 230.84 796.42 229.74 795.74 228.92V237.48H794.3V228.64C793.48 230.66 792.42 232.66 791.4 233.88C791.26 233.46 790.9 232.88 790.66 232.52C791.92 231.12 793.3 228.54 794.1 226.26H791.04V224.86H794.3V221.82C793.32 222.02 792.3 222.18 791.38 222.32C791.3 221.98 791.1 221.5 790.92 221.16C793.16 220.8 795.78 220.22 797.24 219.56L798.28 220.68C797.56 220.98 796.68 221.26 795.74 221.48V224.86H798.24V226.26H795.74V227.48C796.36 228 798.06 229.76 798.46 230.22ZM804.34 235.66H809.2V237H797.62V235.66H802.86V233.08H798.98V231.78H802.86V229.4H798.52V228.08H808.76V229.4H804.34V231.78H808.32V233.08H804.34V235.66Z" fill="white"/>
<path d="M941.8 196.52L940.4 197.28C939.86 195.9 938.58 193.86 937.32 192.4L938.64 191.74C939.96 193.2 941.24 195.16 941.8 196.52ZM938.96 200.4L939.3 201.82C936.54 203.08 933.52 204.4 931.32 205.36L930.78 203.82C931.56 203.52 932.5 203.14 933.54 202.7L933.2 190.34L934.72 190.28L935.02 202.08C936.3 201.54 937.64 200.96 938.96 200.4ZM949.34 206.32L948.1 207.46C947.18 206.08 945.32 203.98 943.62 202.18C942.06 204.54 939.88 206.28 936.76 207.58C936.56 207.28 935.94 206.6 935.58 206.3C942.44 203.78 944.56 198.94 945.44 190.3L947.06 190.46C946.58 194.74 945.82 198.14 944.42 200.82C946.2 202.62 948.32 204.84 949.34 206.32ZM956.18 190.06L957.16 190.64C956.62 192.26 955.94 194.28 955.32 195.9C956.66 197.52 956.96 198.96 956.96 200.18C956.98 201.24 956.74 202.08 956.22 202.46C955.96 202.66 955.62 202.76 955.24 202.82C954.88 202.86 954.42 202.86 954 202.84C953.98 202.46 953.84 201.92 953.62 201.54C954.04 201.56 954.4 201.58 954.66 201.56C954.92 201.56 955.12 201.5 955.28 201.42C955.56 201.18 955.66 200.62 955.66 200.02C955.64 198.96 955.32 197.6 954 196.06C954.52 194.6 955.06 192.82 955.46 191.46H953.04V207.52H951.72V190.12H955.98L956.18 190.06ZM962.74 195.32L962.86 196.48C960.88 196.98 958.82 197.52 957.22 197.9L956.82 196.64C957.22 196.56 957.64 196.48 958.12 196.38V189.52H959.46V191.92H962.56V193.14H959.46V196.08C960.5 195.84 961.62 195.58 962.74 195.32ZM966.68 202.32V200.42H959.84V202.32H966.68ZM959.84 205.48H966.68V203.48H959.84V205.48ZM962.08 197.14L963.56 197.46C963.34 198.04 963.1 198.64 962.88 199.16H968.12V207.4H966.68V206.74H959.84V207.48H958.48V199.16H961.46C961.7 198.5 961.96 197.72 962.08 197.14ZM965.42 196.32H967.36C967.84 196.32 967.96 196.08 968 194.44C968.3 194.66 968.84 194.88 969.24 194.98C969.08 197.04 968.7 197.56 967.5 197.56H965.26C963.76 197.56 963.42 197.2 963.42 195.72V189.52H964.76V192.46C965.9 191.96 967.06 191.32 967.76 190.74L968.8 191.72C967.66 192.46 966.14 193.14 964.76 193.64V195.72C964.76 196.24 964.84 196.32 965.42 196.32ZM981.9 191.42V192.96C981.9 194.58 981.5 196.54 979.5 197.8C979.32 197.52 978.78 196.98 978.5 196.78C980.28 195.68 980.52 194.24 980.52 192.92V190.1H986.42V195C986.42 195.38 986.44 195.58 986.54 195.66C986.62 195.72 986.72 195.74 986.86 195.74H987.44C987.6 195.74 987.78 195.72 987.86 195.68C987.96 195.62 988.04 195.48 988.08 195.24C988.14 194.94 988.16 194.34 988.18 193.54C988.42 193.76 988.92 194 989.3 194.1C989.26 194.88 989.2 195.78 989.1 196.1C988.98 196.44 988.78 196.64 988.5 196.76C988.28 196.9 987.88 196.96 987.56 196.96H986.54C986.18 196.96 985.7 196.86 985.44 196.6C985.16 196.36 985.04 196.02 985.04 194.92V191.42H981.9ZM979.14 203.14L973.78 204.1V207.5H972.38V204.36L971 204.6L970.74 203.16L972.38 202.9V190.76L973.18 191.04C974.96 190.56 976.82 189.9 977.9 189.28L979.18 190.34C977.7 191.06 975.66 191.68 973.78 192.14V194.44H978.38V195.8H973.78V198.24H978.54V199.62H973.78V202.66C975.42 202.4 977.26 202.08 979.06 201.76L979.14 203.14ZM986.36 199.44H981.52C982.06 200.82 982.84 202.06 983.84 203.1C984.9 202.08 985.76 200.88 986.36 199.44ZM987.32 198.02L988.26 198.4C987.56 200.76 986.4 202.62 984.92 204.06C986.14 205.04 987.6 205.76 989.3 206.22C988.94 206.5 988.52 207.1 988.32 207.5C986.58 206.96 985.06 206.14 983.8 205.04C982.28 206.18 980.54 207 978.66 207.56C978.5 207.18 978.14 206.58 977.84 206.26C979.62 205.8 981.32 205.06 982.74 204C981.66 202.8 980.82 201.34 980.2 199.7L981.18 199.44H979.38V198.08H987.04L987.32 198.02ZM991.78 198.56L990.62 198.16C991.16 196.84 991.52 194.66 991.66 193.04L992.78 193.2C992.68 194.84 992.3 197.1 991.78 198.56ZM993.5 207.52V189.26H994.98V207.52H993.5ZM995.12 192.94L996.16 192.46C996.76 193.54 997.38 194.96 997.62 195.8L996.5 196.34C996.28 195.48 995.68 194.04 995.12 192.94ZM1003.9 205.42H1008.9V206.84H996.7V205.42H1002.42V200.42H998.18V199.04H1002.42V194.9H999.5C999.1 196.1 998.64 197.14 998.1 198C997.8 197.8 997.14 197.48 996.78 197.32C997.94 195.58 998.74 192.9 999.2 190.18L1000.64 190.42C1000.44 191.46 1000.2 192.5 999.92 193.48H1002.42V189.34H1003.9V193.48H1008.42V194.9H1003.9V199.04H1007.98V200.42H1003.9V205.42ZM1016.82 205.96L1015.46 207.12C1014.18 205.52 1012.46 203.82 1011.04 202.66L1012.34 201.52C1013.78 202.68 1015.58 204.5 1016.82 205.96ZM1040.14 193.68V192.18H1037.24V190.92H1040.14V189.28H1041.56V190.92H1044.6V189.28H1046.04V190.92H1048.82V192.18H1046.04V193.7H1044.6V192.18H1041.56V193.68H1040.14ZM1037.34 199.18L1036.4 200.28C1036.12 199.6 1035.5 198.32 1034.96 197.28V207.52H1033.54V198.54C1032.96 200.48 1032.22 202.3 1031.48 203.48C1031.32 203.04 1030.96 202.4 1030.7 202.04C1031.86 200.38 1033 197.2 1033.54 194.5H1031.08V193.1H1033.54V189.26H1034.96V193.1H1037.02V194.5H1034.96V195.28C1035.48 196.04 1036.98 198.56 1037.34 199.18ZM1039.44 197.66V199.08H1046.36V197.66H1039.44ZM1039.44 195.18V196.6H1046.36V195.18H1039.44ZM1048.8 203.12H1044.32C1045.3 204.72 1047 205.82 1049.26 206.3C1048.94 206.58 1048.52 207.14 1048.32 207.52C1045.76 206.82 1043.92 205.34 1042.92 203.16C1042.12 205.28 1040.52 206.68 1037.04 207.52C1036.92 207.2 1036.54 206.64 1036.28 206.36C1039.2 205.7 1040.62 204.64 1041.38 203.12H1036.8V201.86H1041.82C1041.94 201.36 1042.02 200.78 1042.1 200.2H1038.06V194.06H1047.78V200.2H1043.56C1043.5 200.78 1043.4 201.34 1043.3 201.86H1048.8V203.12ZM1051.88 200.6L1053.16 200.84C1052.88 202.72 1052.4 204.64 1051.74 205.92C1051.5 205.74 1050.9 205.46 1050.58 205.36C1051.24 204.14 1051.66 202.36 1051.88 200.6ZM1057.24 199.14L1055.52 199.24V207.56H1054.16V199.32L1050.9 199.48L1050.78 198.14C1051.18 198.14 1051.64 198.12 1052.1 198.1C1052.54 197.58 1053 196.96 1053.44 196.32C1052.84 195.42 1051.76 194.28 1050.82 193.44L1051.58 192.48C1051.78 192.64 1051.98 192.82 1052.18 193C1052.84 191.88 1053.54 190.38 1053.96 189.28L1055.28 189.78C1054.6 191.12 1053.76 192.72 1053 193.8C1053.48 194.28 1053.9 194.76 1054.22 195.18C1055.04 193.92 1055.8 192.62 1056.36 191.54L1057.64 192.1C1056.48 193.98 1054.88 196.34 1053.5 198.06C1054.5 198.02 1055.6 197.96 1056.7 197.92C1056.4 197.3 1056.06 196.68 1055.72 196.14L1056.82 195.66C1057.66 196.94 1058.52 198.64 1058.8 199.72L1057.62 200.28C1057.54 199.94 1057.42 199.56 1057.24 199.14ZM1056.22 200.88L1057.34 200.52C1057.92 201.74 1058.5 203.32 1058.68 204.36L1057.5 204.76C1057.32 203.72 1056.76 202.12 1056.22 200.88ZM1061.18 201.78V205.6H1066.26V201.78H1061.18ZM1066.26 191.74H1061.18V195.42H1066.26V191.74ZM1066.26 200.44V196.76H1061.18V200.44H1066.26ZM1067.72 205.6H1069.26V206.96H1057.62V205.6H1059.74V190.4H1067.72V205.6ZM1076.3 189.58L1077.72 190.06C1077.12 191.48 1076.36 192.9 1075.5 194.22V207.48H1074V196.32C1073.16 197.38 1072.28 198.34 1071.4 199.14C1071.24 198.78 1070.78 198 1070.5 197.64C1072.78 195.74 1074.98 192.72 1076.3 189.58ZM1082.54 205.84H1086.44C1087.54 205.84 1087.72 205.12 1087.86 202.22C1088.24 202.48 1088.84 202.76 1089.28 202.86C1089.04 206.1 1088.6 207.24 1086.54 207.24H1082.44C1080.36 207.24 1079.72 206.64 1079.72 204.46V189.74H1081.22V197.18C1083.44 195.94 1085.72 194.38 1087.2 193.04L1088.26 194.32C1086.38 195.84 1083.7 197.36 1081.22 198.68V204.48C1081.22 205.6 1081.44 205.84 1082.54 205.84ZM1097.64 189.96V191.16H1091.88V189.96H1097.64ZM1098.38 192.58V193.8H1090.84V192.58H1098.38ZM1096.38 201.82H1093.04V205.18H1096.38V201.82ZM1097.68 200.6V206.38H1093.04V207.3H1091.74V200.6H1097.68ZM1091.78 199.12V197.92H1097.7V199.12H1091.78ZM1091.78 196.46V195.28H1097.7V196.46H1091.78ZM1101.36 191.22V192.32C1101.36 194.04 1100.92 196.14 1098.8 197.54C1098.58 197.28 1098.02 196.76 1097.72 196.56C1099.64 195.34 1099.94 193.68 1099.94 192.3V189.9H1106.18V194.78C1106.18 195.22 1106.24 195.3 1106.56 195.3H1107.56C1107.92 195.3 1108 195.04 1108.04 193.12C1108.32 193.36 1108.9 193.58 1109.28 193.66C1109.16 196 1108.8 196.58 1107.74 196.58H1106.36C1105.14 196.58 1104.78 196.2 1104.78 194.78V191.22H1101.36ZM1107.12 197.8L1108.08 198.18C1107.4 200.64 1106.22 202.58 1104.7 204.08C1106 205.06 1107.54 205.8 1109.3 206.24C1108.98 206.54 1108.54 207.14 1108.34 207.5C1106.52 206.96 1104.94 206.14 1103.58 205.04C1102.1 206.18 1100.38 206.98 1098.56 207.52C1098.42 207.16 1098.04 206.52 1097.76 206.22C1099.46 205.78 1101.08 205.06 1102.48 204.02C1101.3 202.8 1100.36 201.34 1099.68 199.66L1101 199.26C1101.58 200.72 1102.46 202.02 1103.58 203.12C1104.7 202.06 1105.6 200.76 1106.2 199.22H1098.64V197.86H1106.86L1107.12 197.8ZM1117.98 189.96V191.16H1111.88V189.96H1117.98ZM1118.72 192.58V193.8H1110.84V192.58H1118.72ZM1116.58 201.82H1113.08V205.18H1116.58V201.82ZM1117.92 200.6V206.38H1113.08V207.3H1111.76V200.6H1117.92ZM1111.78 199.12V197.92H1117.98V199.12H1111.78ZM1111.78 196.46V195.28H1117.98V196.46H1111.78ZM1129.34 196.06V197.52H1124.86V207.52H1123.38V197.52H1118.7V196.06H1123.38V189.32H1124.86V196.06H1129.34ZM1145.72 196.94H1140.92C1141.64 199.92 1143.18 202 1145.92 202.94C1145.6 203.22 1145.2 203.76 1145 204.14C1142.44 203.12 1140.9 201.2 1140.02 198.4C1139.36 201.04 1137.96 202.98 1134.92 204.22C1134.76 203.86 1134.36 203.34 1134.04 203.08C1137.24 201.86 1138.42 199.82 1138.92 196.94H1134.28V195.6H1139.1C1139.2 194.64 1139.24 193.58 1139.28 192.46H1140.66C1140.62 193.58 1140.58 194.62 1140.48 195.6H1145.72V196.94ZM1133.18 205.2H1146.82V191.62H1133.18V205.2ZM1131.7 190.2H1148.34V207.52H1146.82V206.62H1133.18V207.52H1131.7V190.2ZM1154.66 207.06L1153.56 206.32C1154.66 205.52 1155.46 204.1 1155.84 202.78L1157.04 203.22C1156.58 204.62 1155.88 206.16 1154.66 207.06ZM1157.14 192.22L1158.4 192.6C1158.04 193.34 1157.6 194.06 1157.12 194.78V201.48H1155.84V196.48C1155.36 197.06 1154.86 197.6 1154.36 198.04C1154.2 197.86 1153.88 197.54 1153.62 197.32C1153.6 200.36 1153.3 204.62 1151.8 207.54C1151.58 207.28 1150.98 206.82 1150.68 206.66C1152.12 203.78 1152.24 199.7 1152.24 196.8V190.82H1159.82V189.28H1161.34V190.82H1168.98V192.06H1153.62V196.8V196.9C1155 195.68 1156.32 193.96 1157.14 192.22ZM1163.34 196.08V195H1160.86V196.08H1163.34ZM1163.34 198.04V196.94H1160.86V198.04H1163.34ZM1163.34 200.08V198.92H1160.86V200.08H1163.34ZM1159.58 201.08V196.42C1159.22 196.86 1158.88 197.26 1158.52 197.62C1158.28 197.42 1157.76 197 1157.46 196.8C1158.72 195.64 1159.92 193.9 1160.64 192.18L1161.9 192.54C1161.68 193.04 1161.44 193.54 1161.16 194.02H1163.42C1163.7 193.46 1164.04 192.78 1164.22 192.3L1165.54 192.68C1165.28 193.16 1165 193.62 1164.74 194.02H1168.32V195H1164.58V196.08H1167.82V196.94H1164.58V198.04H1167.82V198.92H1164.58V200.08H1168.64V201.08H1159.58ZM1163.56 203.22L1162.66 204.14C1161.94 203.48 1160.5 202.58 1159.3 202.02L1160.16 201.2C1161.36 201.7 1162.82 202.56 1163.56 203.22ZM1160.56 206.16H1163.52C1164.2 206.16 1164.34 205.96 1164.4 204.42C1164.68 204.64 1165.26 204.84 1165.6 204.92C1165.46 206.9 1165.04 207.36 1163.66 207.36H1160.46C1158.66 207.36 1158.24 207.02 1158.24 205.64V202.84H1159.58V205.62C1159.58 206.08 1159.72 206.16 1160.56 206.16ZM1165 203.16L1166.16 202.58C1167.32 203.72 1168.58 205.34 1169.12 206.44L1167.86 207.1C1167.36 206 1166.16 204.34 1165 203.16ZM973.6 222.2H967.88C967.48 222.5 967.06 222.78 966.62 223.06C967.92 223.72 969.34 224.58 970.16 225.3C971.52 224.4 972.72 223.36 973.6 222.2ZM974.8 220.86L975.74 221.46C973.18 226.08 967.32 228.88 962.08 230.02C961.94 229.62 961.64 229.04 961.36 228.72C963.86 228.26 966.56 227.34 968.88 226.06C968.02 225.32 966.62 224.44 965.38 223.8C964.5 224.28 963.56 224.72 962.54 225.14C962.32 224.78 961.84 224.28 961.52 224.04C965.1 222.78 967.7 220.9 969.08 219.24L970.74 219.6C970.34 220.06 969.9 220.5 969.42 220.94H974.54L974.8 220.86ZM976.62 229.16H970.88C970.34 229.56 969.76 229.94 969.14 230.3C970.5 231.06 972.04 232.1 972.94 232.92C974.46 231.92 975.74 230.68 976.62 229.16ZM977.72 227.82L978.68 228.36C976.18 234.14 969.98 236.62 963.52 237.56C963.4 237.18 963.1 236.54 962.86 236.22C965.98 235.84 969.06 235.04 971.62 233.7C970.7 232.84 969.16 231.76 967.78 231.02C966.76 231.52 965.66 232 964.46 232.42C964.26 232.1 963.84 231.56 963.54 231.3C967.72 229.98 970.74 227.92 972.3 226.02L973.94 226.4C973.5 226.9 973.02 227.4 972.48 227.88H977.44L977.72 227.82ZM992.02 219.8V220.66H987.74V219.8H992.02ZM992.66 222.04V222.46H986.92V221.52H992.66V221.88L993.26 221.2C993.4 221.3 993.54 221.4 993.68 221.5C994.18 220.82 994.76 219.9 995.08 219.24L996.16 219.7C995.62 220.54 994.96 221.46 994.42 222.1C994.74 222.36 995.02 222.64 995.26 222.9C995.88 222.16 996.46 221.42 996.88 220.8L997.96 221.36C997.02 222.48 995.84 223.8 994.76 224.84L997.14 224.8C996.88 224.44 996.58 224.1 996.3 223.8L997.14 223.3C997.92 224.12 998.8 225.22 999.2 225.94L998.32 226.52C998.2 226.3 998.04 226.04 997.86 225.76C997.3 225.8 996.74 225.84 996.18 225.86V230.58H995V225.92C994.08 225.96 993.2 225.98 992.44 226L992.3 224.86H993.42C993.76 224.52 994.14 224.14 994.52 223.72C994.02 223.18 993.3 222.54 992.66 222.04ZM996.76 227.12L997.68 226.7C998.28 227.58 998.9 228.74 999.14 229.48L998.18 229.96C997.94 229.22 997.34 228 996.76 227.12ZM993.34 226.74L994.4 226.98C994.14 228.12 993.66 229.32 993.14 230.1C992.92 229.96 992.44 229.7 992.16 229.6C992.72 228.82 993.1 227.78 993.34 226.74ZM992.08 223.3V224.16H987.7V223.3H992.08ZM987.7 225.86V225H992.08V225.86H987.7ZM981.04 224.86H982.2C982.54 224.52 982.9 224.12 983.26 223.7C982.74 223.1 981.96 222.38 981.3 221.82L981.98 221.06C982.14 221.18 982.32 221.32 982.48 221.46C982.96 220.78 983.5 219.88 983.8 219.24L984.86 219.7C984.34 220.54 983.74 221.42 983.18 222.08C983.46 222.36 983.74 222.62 983.96 222.86C984.5 222.2 985 221.5 985.38 220.94L986.44 221.5C985.58 222.58 984.48 223.84 983.48 224.84L985.7 224.8C985.46 224.48 985.22 224.16 984.98 223.88L985.82 223.42C986.48 224.16 987.22 225.18 987.54 225.86L986.66 226.4C986.58 226.22 986.46 226 986.34 225.78L984.82 225.86V230.58H983.66V225.92C982.76 225.96 981.92 225.98 981.16 226L981.04 224.86ZM985.24 227.04L986.16 226.68C986.58 227.38 987.02 228.28 987.18 228.86L986.22 229.28C986.06 228.66 985.64 227.72 985.24 227.04ZM982.06 226.74L983.18 226.98C982.88 228.18 982.42 229.48 981.86 230.3C981.66 230.14 981.18 229.86 980.88 229.74C981.46 228.92 981.82 227.8 982.06 226.74ZM993.3 232.32H986.16C987.16 233.12 988.48 233.8 990 234.38C991.3 233.82 992.44 233.16 993.3 232.32ZM988.76 227.6V229.08H991V227.6H988.76ZM998.44 232.32H995.14C994.24 233.38 993.08 234.24 991.7 234.94C994 235.62 996.6 236.08 999.22 236.3C998.94 236.62 998.6 237.18 998.42 237.56C995.48 237.24 992.56 236.64 990.02 235.7C987.52 236.66 984.58 237.22 981.62 237.6C981.5 237.26 981.12 236.62 980.88 236.32C983.5 236.08 986.08 235.66 988.32 234.98C987.08 234.4 985.98 233.72 985.06 232.96C984.2 233.58 983.28 234.12 982.36 234.54C982.14 234.3 981.66 233.76 981.32 233.52C983.56 232.62 985.74 231.14 986.86 229.34L987.68 229.58V226.74H992.12V229.92H988.08C987.8 230.34 987.5 230.72 987.16 231.1H998.44V232.32ZM1007.36 227.98V223.8H1003.16V227.98H1007.36ZM1003.16 234.1H1007.36V229.3H1003.16V234.1ZM1004.84 219.22L1006.44 219.52C1006.1 220.5 1005.74 221.6 1005.4 222.46H1008.72V235.44H1003.16V237.02H1001.8V222.46H1004.04C1004.34 221.5 1004.7 220.16 1004.84 219.22ZM1018.5 222.4V223.16C1018.18 232.28 1017.92 235.36 1017.12 236.34C1016.68 236.9 1016.22 237.08 1015.54 237.14C1014.84 237.22 1013.7 237.18 1012.58 237.12C1012.54 236.68 1012.36 236.08 1012.08 235.66C1013.38 235.78 1014.58 235.78 1015.04 235.78C1015.44 235.78 1015.66 235.74 1015.86 235.48C1016.52 234.78 1016.82 231.74 1017.08 223.78H1012C1011.44 225.12 1010.82 226.34 1010.12 227.28C1009.86 227.04 1009.22 226.64 1008.9 226.44C1010.24 224.68 1011.32 221.92 1011.96 219.18L1013.38 219.52C1013.14 220.5 1012.86 221.46 1012.52 222.4H1018.5ZM1015.34 231.4L1014.08 232.18C1013.48 230.98 1012.14 229 1011.04 227.56L1012.2 226.88C1013.32 228.3 1014.7 230.22 1015.34 231.4ZM1027.06 231.98L1027.32 233.4C1025.18 234.12 1022.9 234.9 1021.12 235.48L1020.78 233.98C1021.52 233.76 1022.44 233.48 1023.46 233.14V227.76H1021.18V226.36H1023.46V222.02H1020.98V220.62H1027.18V222.02H1024.88V226.36H1026.9V227.76H1024.88V232.7L1027.06 231.98ZM1029.52 225.22V227.78H1032.56V225.22H1029.52ZM1029.52 221.48V224H1032.56V221.48H1029.52ZM1036.9 224V221.48H1033.84V224H1036.9ZM1036.9 227.78V225.22H1033.84V227.78H1036.9ZM1033.96 235.52H1039.26V236.88H1026.38V235.52H1032.46V232.78H1027.92V231.42H1032.46V229.08H1028.16V220.18H1038.32V229.08H1033.96V231.42H1038.62V232.78H1033.96V235.52ZM1047.34 223.8V221.28H1043.2V223.8H1047.34ZM1047.34 227.52V224.98H1043.2V227.52H1047.34ZM1047.34 231.3V228.7H1043.2V231.3H1047.34ZM1048.78 220.04V232.5H1041.8V220.04H1048.78ZM1043.18 232.94L1044.6 233.3C1043.98 234.9 1042.96 236.52 1041.94 237.54C1041.68 237.3 1041.08 236.86 1040.74 236.66C1041.76 235.74 1042.66 234.36 1043.18 232.94ZM1046 233.5L1047.18 232.94C1048.04 233.92 1048.94 235.24 1049.36 236.12L1048.1 236.78C1047.68 235.88 1046.8 234.5 1046 233.5ZM1059.16 224V225.38H1056.6V235.66C1056.6 236.54 1056.38 236.98 1055.82 237.24C1055.26 237.48 1054.34 237.54 1052.82 237.54C1052.76 237.14 1052.52 236.48 1052.3 236.1C1053.42 236.12 1054.4 236.12 1054.7 236.1C1055.02 236.1 1055.14 236 1055.14 235.66V227.3C1053.8 230.2 1051.92 232.82 1049.98 234.38C1049.72 234.02 1049.28 233.52 1048.96 233.28C1051.2 231.7 1053.34 228.54 1054.6 225.38H1049.4V224H1055.14V219.34H1056.6V224H1059.16ZM1072.98 224.08H1067.1C1067.54 224.7 1067.94 225.54 1068.1 226.08L1067.46 226.22H1072.16L1071.96 226.16C1072.3 225.58 1072.7 224.76 1072.98 224.08ZM1078.72 232.78H1072.08C1073.9 234.22 1076.66 235.4 1079.22 235.94C1078.88 236.26 1078.42 236.84 1078.22 237.26C1075.54 236.5 1072.62 235 1070.7 233.16V237.52H1069.24V233.26C1067.32 235 1064.4 236.44 1061.78 237.2C1061.58 236.82 1061.14 236.26 1060.82 235.94C1063.3 235.38 1066.08 234.18 1067.88 232.78H1061.34V231.52H1069.24V230.04H1063.22V228.9H1069.24V227.44H1062.22V226.22H1066.58C1066.4 225.62 1066 224.82 1065.6 224.22L1066.3 224.08H1061.42V222.8H1064.6C1064.32 222 1063.62 220.8 1063.02 219.9L1064.28 219.48C1064.96 220.38 1065.68 221.62 1065.98 222.42L1064.96 222.8H1067.42V219.26H1068.8V222.8H1071.18V219.26H1072.58V222.8H1075L1074.26 222.56C1074.78 221.72 1075.42 220.42 1075.78 219.52L1077.3 219.92C1076.74 220.94 1076.1 222.04 1075.54 222.8H1078.64V224.08H1074.64C1074.24 224.84 1073.8 225.62 1073.4 226.22H1077.94V227.44H1070.7V228.9H1076.96V230.04H1070.7V231.52H1078.72V232.78ZM1095.76 222.62H1091.56C1092.1 223.58 1092.88 224.46 1093.82 225.2C1094.64 224.48 1095.3 223.64 1095.76 222.62ZM1087.76 231.3L1086.74 230.78C1087.12 229.96 1087.52 228.72 1087.82 227.56H1085.9V235.8C1085.9 236.56 1085.74 236.96 1085.24 237.22C1084.72 237.42 1083.94 237.44 1082.74 237.44C1082.68 237.08 1082.48 236.46 1082.28 236.08C1083.14 236.1 1083.92 236.1 1084.18 236.1C1084.42 236.08 1084.5 236.02 1084.5 235.8V229.38C1083.72 231.3 1082.68 233.18 1081.58 234.3C1081.42 233.88 1081.06 233.3 1080.8 232.92C1082.04 231.74 1083.28 229.6 1084.02 227.56H1081V226.26H1086.36C1085.32 225.38 1083.48 224.26 1081.92 223.58L1082.84 222.62C1083.46 222.88 1084.14 223.2 1084.78 223.54C1085.52 222.98 1086.28 222.26 1086.88 221.56H1081.22V220.26H1087.94L1088.2 220.2L1089.16 220.8C1088.38 222 1087.1 223.28 1085.9 224.2C1086.56 224.6 1087.16 225.02 1087.58 225.4L1086.82 226.26H1088.3L1088.52 226.18L1089.42 226.5C1089.32 226.84 1089.22 227.2 1089.12 227.56C1090.46 227.18 1091.68 226.68 1092.7 226.02C1091.9 225.3 1091.2 224.48 1090.64 223.58C1090.16 224.1 1089.68 224.6 1089.2 225C1088.92 224.76 1088.34 224.34 1087.98 224.14C1089.54 222.98 1090.98 221.16 1091.78 219.26L1093.2 219.64C1092.94 220.22 1092.62 220.8 1092.28 221.36H1098.92V222.62H1097.38C1096.82 223.98 1096 225.1 1094.98 226.02C1096.24 226.82 1097.72 227.42 1099.32 227.76C1099.02 228.08 1098.58 228.64 1098.38 229.04C1096.7 228.58 1095.16 227.86 1093.84 226.92C1092.58 227.8 1091.1 228.46 1089.48 228.96C1089.38 228.76 1089.16 228.46 1088.94 228.18C1088.6 229.34 1088.2 230.48 1087.76 231.3ZM1093.8 230.42H1098.48C1098.48 230.42 1098.46 230.82 1098.44 231.06C1098.08 234.78 1097.7 236.3 1097.12 236.88C1096.78 237.24 1096.4 237.34 1095.88 237.4C1095.4 237.42 1094.56 237.44 1093.66 237.38C1093.62 236.98 1093.48 236.38 1093.26 236C1094.12 236.08 1094.92 236.1 1095.24 236.1C1095.56 236.1 1095.72 236.08 1095.92 235.9C1096.3 235.52 1096.6 234.4 1096.9 231.66H1093.54C1092.84 234.2 1091.44 236.28 1088.24 237.52C1088.06 237.18 1087.66 236.64 1087.36 236.38C1090.12 235.38 1091.38 233.7 1092 231.66H1088.88V230.42H1092.32C1092.44 229.78 1092.52 229.12 1092.58 228.44H1094.08C1094.02 229.12 1093.92 229.78 1093.8 230.42ZM1103.62 231.58H1108.36C1108.36 231.58 1108.34 232 1108.3 232.18C1108.04 235.22 1107.78 236.46 1107.26 236.98C1106.92 237.32 1106.56 237.42 1105.94 237.46C1105.42 237.48 1104.38 237.48 1103.28 237.42C1103.26 237.04 1103.08 236.5 1102.84 236.16C1103.94 236.26 1105.02 236.28 1105.42 236.28C1105.78 236.28 1106 236.26 1106.16 236.1C1106.48 235.8 1106.68 234.88 1106.9 232.74H1103.36L1103.22 233.3L1101.98 233.08C1102.3 231.88 1102.7 230.02 1102.94 228.56H1106.96V226.5H1103.46V226.32C1102.8 226.66 1102.12 226.94 1101.44 227.18C1101.26 226.84 1100.9 226.34 1100.64 226.08C1101.96 225.68 1103.34 225.02 1104.54 224.2C1103.98 223.62 1103.06 222.94 1102.3 222.48L1103.16 221.64C1103.98 222.14 1104.96 222.86 1105.56 223.42C1106.3 222.8 1106.96 222.08 1107.46 221.32H1102.82V220.1H1108.24L1108.5 220.04L1109.42 220.52C1108.54 222.5 1107 224.1 1105.22 225.3H1108.3V230.08H1106.96V229.72H1103.98C1103.86 230.34 1103.74 230.98 1103.62 231.58ZM1115.42 232.06H1111.42C1111.86 232.94 1112.56 233.72 1113.44 234.36C1114.26 233.74 1114.94 232.98 1115.42 232.06ZM1116.34 230.92L1117.16 231.26C1116.6 232.84 1115.68 234.08 1114.54 235.04C1115.72 235.64 1117.12 236.08 1118.68 236.3C1118.36 236.58 1118 237.16 1117.8 237.52C1116.1 237.2 1114.62 236.64 1113.38 235.86C1112.1 236.64 1110.6 237.18 1109 237.54C1108.88 237.22 1108.58 236.72 1108.34 236.44C1109.78 236.16 1111.14 235.72 1112.32 235.08C1111.42 234.3 1110.7 233.38 1110.2 232.3L1111.02 232.06H1109.48V230.98H1116.1L1116.34 230.92ZM1117.52 221.4L1118.62 222.16C1117.8 222.92 1116.74 223.74 1115.84 224.32C1116.88 224.92 1118.02 225.4 1119.24 225.72C1118.92 226.02 1118.54 226.54 1118.32 226.9C1117.3 226.58 1116.36 226.18 1115.46 225.66V228.34C1115.46 228.6 1115.48 228.8 1115.56 228.86C1115.64 228.92 1115.74 228.92 1115.9 228.92H1116.48C1116.66 228.92 1116.84 228.92 1116.92 228.9C1117 228.86 1117.1 228.76 1117.16 228.62C1117.2 228.46 1117.22 228.08 1117.24 227.58C1117.48 227.8 1117.96 228.04 1118.32 228.14C1118.28 228.64 1118.22 229.24 1118.1 229.46C1117.98 229.68 1117.76 229.82 1117.5 229.92C1117.3 229.98 1116.9 230.02 1116.62 230.02H1115.64C1115.26 230.02 1114.82 229.94 1114.54 229.72C1114.3 229.48 1114.2 229.16 1114.2 228.22V226.42H1111.48V226.8C1111.48 228.1 1111.08 229.58 1109.32 230.6C1109.12 230.34 1108.62 229.86 1108.36 229.68C1109.94 228.82 1110.22 227.74 1110.22 226.76V225.22H1114.72C1112.62 223.84 1110.94 221.94 1109.9 219.64L1111.08 219.26C1111.48 220.14 1112 220.94 1112.64 221.68C1113.5 221.02 1114.52 220.08 1115.16 219.4L1116.26 220.18C1115.4 221 1114.28 221.86 1113.38 222.48C1113.84 222.92 1114.32 223.32 1114.84 223.68C1115.76 223.04 1116.86 222.08 1117.52 221.4ZM1129.4 228.2V230.24H1133.4V228.2H1129.4ZM1129.4 225.1V226.92H1133.4V225.1H1129.4ZM1124.36 221.52V223.8H1136.3V221.52H1124.36ZM1136.76 231.64L1137.88 232.42C1136.92 233.14 1135.72 233.9 1134.68 234.44C1135.9 235.34 1137.4 235.98 1139.14 236.32C1138.82 236.64 1138.42 237.18 1138.26 237.56C1134.66 236.66 1132.12 234.58 1130.78 231.52H1128.32V235.34C1129.66 235.12 1131.1 234.9 1132.54 234.66L1132.6 235.96C1129.86 236.42 1126.96 236.9 1124.88 237.26L1124.64 235.88C1125.3 235.8 1126.08 235.68 1126.94 235.54V231.52H1124.42V230.24H1128V228.2H1125.02V226.92H1128V225.1H1124.36V226.04C1124.36 229.44 1124.06 234.3 1122 237.54C1121.72 237.3 1121.06 236.92 1120.7 236.78C1122.7 233.64 1122.86 229.24 1122.86 226.04V220.22H1137.76V225.1H1134.78V226.92H1138.14V228.2H1134.78V230.24H1138.94V231.52H1132.16C1132.58 232.32 1133.12 233.04 1133.76 233.66C1134.78 233.08 1136 232.26 1136.76 231.64Z" fill="white"/>
</svg>
