<svg width="616" height="483" viewBox="0 0 616 483" fill="none" xmlns="http://www.w3.org/2000/svg">
<path d="M75.4001 105V59.4H26.3501V105H9.2501V0.75H26.3501V45.45H75.4001V0.75H92.5001V105H75.4001Z" fill="white"/>
<path d="M193.762 63.6C193.762 89.55 174.562 106.35 150.862 106.35C127.312 106.35 109.462 89.55 109.462 63.6C109.462 37.65 128.062 21 151.612 21C175.162 21 193.762 37.65 193.762 63.6ZM126.862 63.6C126.862 82.35 137.962 91.5 150.862 91.5C163.612 91.5 176.212 82.35 176.212 63.6C176.212 44.85 164.062 35.85 151.312 35.85C138.412 35.85 126.862 44.85 126.862 63.6Z" fill="white"/>
<path d="M226.716 105L200.916 22.35H218.316L235.566 88.8L253.116 22.35H270.966L287.766 88.5L304.866 22.35H321.666L296.016 105H278.016L261.366 43.95L244.716 105H226.716Z" fill="white"/>
<path d="M204.074 293V188.75H222.524L259.124 270.5L295.574 188.75H313.874V293H296.774V221.6L264.974 293H253.124L221.174 221.6V293H204.074Z" fill="white"/>
<path d="M336.35 293V210.35H353.45V293H336.35ZM345.05 199.4C338.9 199.4 334.1 194.6 334.1 188.45C334.1 182.3 338.9 177.5 345.05 177.5C351.05 177.5 355.85 182.3 355.85 188.45C355.85 194.6 351.05 199.4 345.05 199.4Z" fill="white"/>
<path d="M370.2 251.3C370.2 225.8 387.45 209 409.201 209C422.701 209 432.75 215.3 437.85 222.35V210.35H455.1V294.35C455.1 316.85 440.55 333.8 414.75 333.8C392.7 333.8 376.35 322.85 374.25 304.55H391.2C393.75 313.1 402.9 318.95 414.75 318.95C427.95 318.95 437.85 310.85 437.85 294.35V280.55C432.6 287.6 422.701 294.35 409.201 294.35C387.45 294.35 370.2 276.8 370.2 251.3ZM437.85 251.6C437.85 233.9 425.7 223.85 412.8 223.85C400.05 223.85 387.75 233.45 387.75 251.3C387.75 269.15 400.05 279.5 412.8 279.5C425.7 279.5 437.85 269.45 437.85 251.6Z" fill="white"/>
<path d="M477.561 293V182H494.661V219.95C500.361 213.05 509.661 209 520.311 209C538.761 209 553.161 221.15 553.161 244.25V293H536.211V246.8C536.211 231.65 527.961 223.85 515.511 223.85C502.911 223.85 494.661 231.65 494.661 246.8V293H477.561Z" fill="white"/>
<path d="M577.673 270.05V224.3H567.923V210.35H577.673V189.8H594.923V210.35H615.023V224.3H594.923V270.05C594.923 276.2 597.323 278.75 604.523 278.75H615.023V293H601.523C586.823 293 577.673 286.85 577.673 270.05Z" fill="white"/>
<path d="M30.4001 481.15L0.850098 376.75H19.0001L40.6001 461.65L64.0001 376.75H83.2001L104.95 461.2L126.7 376.75H145L114.1 481H94.7501L72.8501 402.1L49.6001 481L30.4001 481.15Z" fill="white"/>
<path d="M193.904 411.4C182.354 411.4 173.054 419.2 171.254 432.25H217.004C216.704 419.5 206.654 411.4 193.904 411.4ZM232.604 456.4C227.954 470.8 214.904 482.35 194.654 482.35C170.954 482.35 153.404 465.55 153.404 439.6C153.404 413.65 170.204 397 194.654 397C218.204 397 234.854 413.35 234.854 437.65C234.854 440.5 234.704 443.2 234.254 446.05H171.104C172.304 459.7 182.054 467.95 194.654 467.95C205.154 467.95 211.004 462.85 214.154 456.4H232.604Z" fill="white"/>
<path d="M246.432 406.15C246.282 388 259.332 375.25 279.732 375.25C299.832 375.25 313.482 387.1 313.482 406.6C313.482 427.75 298.482 437.05 278.382 437.05L277.782 448.9H262.932L262.182 425.35H267.132C284.082 425.35 297.132 422.35 297.132 406.6C297.132 396.1 290.682 389.65 279.882 389.65C269.232 389.65 262.482 395.65 262.482 406.15H246.432ZM280.932 471.1C280.932 477.25 276.132 482.05 270.132 482.05C263.982 482.05 259.182 477.25 259.182 471.1C259.182 464.95 263.982 460.15 270.132 460.15C276.132 460.15 280.932 464.95 280.932 471.1Z" fill="white"/>
</svg>
