<svg width="487" height="270" viewBox="0 0 487 270" fill="none" xmlns="http://www.w3.org/2000/svg">
<path d="M481.012 225.839L482.217 224.946L482.251 224.991L482.281 225.039L481.012 225.839ZM405.574 214.522L404.74 213.276L404.833 213.213L404.934 213.165L405.574 214.522ZM11.0499 96.1365L9.66376 95.5632L11.0499 96.1365ZM401.344 59.5818L402.066 58.2671L402.094 58.2824L402.121 58.2987L401.344 59.5818ZM313.923 248.095L313.531 246.647L313.552 246.641L313.573 246.636L313.923 248.095ZM2.81146 124.781L4.30615 124.655L2.81146 124.781ZM43.1948 39.3906L42.2867 38.1968L43.1948 39.3906ZM396.409 80.0997L397.5 79.0709L396.409 80.0997ZM445.048 157.744C444.755 158.519 443.89 158.91 443.115 158.617C442.34 158.324 441.949 157.459 442.242 156.684L445.048 157.744ZM439.211 166.933L482.217 224.946L479.807 226.732L436.801 168.72L439.211 166.933ZM482.281 225.039C483.669 227.24 484.702 229.119 485.396 230.702C486.079 232.261 486.485 233.65 486.5 234.838C486.515 236.096 486.078 237.257 484.988 237.979C484.017 238.622 482.786 238.732 481.613 238.651C479.242 238.487 476.006 237.448 472.331 235.998C468.609 234.53 464.256 232.566 459.59 230.435C450.219 226.156 439.553 221.191 429.779 217.967C424.896 216.356 420.294 215.201 416.235 214.776C412.158 214.349 408.77 214.675 406.213 215.879L404.934 213.165C408.193 211.63 412.208 211.338 416.547 211.792C420.904 212.248 425.732 213.473 430.719 215.118C440.685 218.405 451.523 223.454 460.836 227.706C465.512 229.842 469.795 231.773 473.432 233.208C477.116 234.66 479.961 235.53 481.82 235.658C482.762 235.723 483.184 235.575 483.332 235.477C483.359 235.459 483.506 235.398 483.5 234.875C483.492 234.281 483.271 233.327 482.648 231.906C482.037 230.51 481.087 228.771 479.743 226.639L482.281 225.039ZM406.408 215.769C379.152 234.003 336.355 246.256 288.738 251.791C241.083 257.331 188.415 256.164 141.301 247.418C94.2302 238.68 52.4906 222.337 26.9046 197.352C14.088 184.836 5.30475 170.129 1.97986 153.128C-1.34448 136.13 0.812225 116.963 9.66376 95.5632L12.436 96.7098C3.76297 117.678 1.73431 136.242 4.92407 152.552C8.11331 168.86 16.5437 183.041 29.0006 195.205C53.9618 219.581 95.009 235.773 141.848 244.468C188.644 253.155 241.008 254.319 288.392 248.811C335.813 243.298 378.061 231.124 404.74 213.276L406.408 215.769ZM9.66376 95.5632C27.5485 52.3243 77.3799 16.4338 146.723 4.62789C216.122 -7.1876 305.224 5.06766 402.066 58.2671L400.622 60.8965C304.288 7.97651 215.868 -4.10122 147.226 7.58533C78.5284 19.2815 29.8008 54.728 12.436 96.7098L9.66376 95.5632ZM402.121 58.2987C419.324 68.7164 436.48 82.4459 449.033 98.0599C461.576 113.661 469.635 131.292 468.319 149.454C467 167.671 456.279 186.05 432.053 203.163C407.851 220.26 370.057 236.184 314.273 249.554L313.573 246.636C369.182 233.309 406.561 217.498 430.322 200.713C454.059 183.945 464.091 166.298 465.327 149.237C466.567 132.122 458.982 115.224 446.695 99.9396C434.417 84.6676 417.557 71.1538 400.567 60.8649L402.121 58.2987ZM314.316 249.543C261.378 263.896 187.027 277.007 123.97 264.457C92.4152 258.176 63.5964 245.451 41.7277 223.15C19.8438 200.835 5.04315 169.056 1.31677 124.907L4.30615 124.655C7.98431 168.232 22.5558 199.315 43.8697 221.05C65.1988 242.8 93.4036 255.314 124.556 261.514C186.915 273.926 260.715 260.967 313.531 246.647L314.316 249.543ZM1.31677 124.907C0.245178 112.211 4.9679 94.7613 12.6187 78.4883C20.2769 62.1994 31.0205 46.7667 42.2867 38.1968L44.1029 40.5845C33.3752 48.7449 22.8881 63.6965 15.3336 79.7647C7.77158 95.8489 3.29956 112.729 4.30615 124.655L1.31677 124.907ZM42.2867 38.1968C78.0038 11.0276 144.607 -2.27696 213.18 2.88074C281.795 8.04159 352.872 31.7203 397.5 79.0709L395.317 81.1285C351.395 34.5271 281.161 11.0024 212.955 5.87229C144.707 0.73904 78.9778 14.0559 44.1029 40.5845L42.2867 38.1968ZM397.5 79.0709C404.879 86.8991 418.7 101.123 429.693 115.961C435.188 123.379 440.027 131.016 443.003 138.141C445.959 145.219 447.193 152.072 445.048 157.744L442.242 156.684C443.976 152.098 443.095 146.146 440.234 139.297C437.393 132.494 432.715 125.08 427.282 117.747C416.42 103.084 402.744 89.0088 395.317 81.1285L397.5 79.0709Z" fill="#2DE9F6"/>
<path d="M49.1002 107.26H46.8402C46.5002 108.74 46.1602 110.18 45.8202 111.54C46.4402 111.92 47.0802 112.32 47.7202 112.76C48.3802 111.22 48.8402 109.38 49.1002 107.26ZM50.0802 104.96L51.5402 105.2C51.3002 108.96 50.6802 111.86 49.6602 114.14C50.6002 114.88 51.4202 115.6 51.9602 116.24L50.5802 118.28C50.0802 117.64 49.3402 116.94 48.4802 116.2C47.4002 117.72 46.0402 118.88 44.3402 119.74C44.0402 119.14 43.4202 118.26 42.9402 117.78C44.4402 117.14 45.6802 116.12 46.6402 114.74C46.1802 114.4 45.7002 114.06 45.2402 113.74L45.0402 114.48L43.0402 113.52C43.5202 111.86 44.0802 109.6 44.6002 107.26H42.8402V105.02H45.0802C45.3602 103.64 45.6202 102.28 45.8202 101.06L48.1202 101.28C47.8802 102.46 47.6202 103.72 47.3402 105.02H49.6602L50.0802 104.96ZM54.7602 115.46H58.2802V105.34H54.7602V115.46ZM52.5002 103.1H60.6402V118.9H58.2802V117.72H54.7602V119.2H52.5002V103.1ZM66.9802 101.04L69.2202 101.76C68.7602 102.98 68.2202 104.2 67.5802 105.42V119.68H65.2002V109.22C64.7402 109.84 64.2602 110.4 63.8002 110.9C63.5802 110.32 62.9402 109.02 62.5202 108.42C64.2802 106.66 66.0002 103.86 66.9802 101.04ZM73.7202 109.28H71.5002V112.4H73.7202V109.28ZM75.9402 114.46H71.5002V115.76H69.2802V107.22H75.9402V114.46ZM81.3602 102.78V105.06H80.1602V116.92C80.1602 118.3 79.8602 118.94 79.0002 119.32C78.1602 119.68 76.8002 119.76 74.9402 119.76C74.8602 119.06 74.4802 118.02 74.1402 117.32C75.4402 117.38 76.8402 117.38 77.2402 117.38C77.6402 117.38 77.7602 117.26 77.7602 116.88V105.06H69.0402V102.78H81.3602ZM90.2202 110.02L89.9202 107.94C90.5402 107.92 91.2602 107.9 92.0202 107.86C92.3402 107.14 92.6802 106.28 92.9202 105.5H89.8202V103.42H94.4002V101.06H96.7402V103.42H101.32V105.5H95.4402C95.0802 106.26 94.6802 107.06 94.3202 107.76C95.3802 107.7 96.5202 107.64 97.6402 107.58C97.3802 107.22 97.1002 106.86 96.8202 106.54L98.6402 105.66C99.7202 106.9 100.96 108.58 101.46 109.76L99.5202 110.74C99.3802 110.36 99.1602 109.94 98.8802 109.48C95.8002 109.68 92.6002 109.88 90.2202 110.02ZM89.8402 111.66L88.6402 113.5C88.4202 112.92 88.0202 112.06 87.6002 111.22V119.72H85.4002V112.36C84.8802 113.86 84.2602 115.24 83.5802 116.2C83.3602 115.56 82.8602 114.64 82.5002 114.08C83.6602 112.5 84.7402 109.74 85.2602 107.36H82.9602V105.16H85.4002V101.06H87.6002V105.16H89.6002V107.36H87.6002V108.32C88.1402 109.02 89.5402 111.16 89.8402 111.66ZM91.0202 113.08V110.82H93.1002V113.14C93.1002 115.34 92.7602 118 90.1602 119.86C89.8402 119.38 89.1202 118.6 88.6602 118.26C90.7602 116.78 91.0202 114.76 91.0202 113.08ZM94.1002 118.92V111.02H96.1402V118.92H94.1002ZM99.5802 117.68H99.8602C99.9202 117.68 100.02 117.66 100.08 117.6C100.12 117.56 100.18 117.44 100.22 117.2C100.24 116.94 100.26 116.42 100.28 115.74C100.62 116.04 101.22 116.36 101.68 116.5C101.64 117.26 101.56 118.14 101.44 118.48C101.32 118.84 101.12 119.08 100.86 119.26C100.6 119.42 100.2 119.5 99.8402 119.5H98.9402C98.4802 119.5 97.9802 119.36 97.6602 119.04C97.3402 118.7 97.2202 118.3 97.2202 116.96V110.8H99.3602V116.98C99.3602 117.3 99.3602 117.5 99.4002 117.56C99.4202 117.64 99.5002 117.68 99.5802 117.68ZM109.18 113.5L109.58 115.74C107.38 116.52 104.98 117.28 103.06 117.9L102.52 115.48C103.22 115.3 104.04 115.08 104.96 114.82V110.12H102.94V107.94H104.96V104.42H102.76V102.2H109.36V104.42H107.22V107.94H109.02V110.12H107.22V114.12C107.88 113.92 108.54 113.72 109.18 113.5ZM112.26 107.46V109.18H114.32V107.46H112.26ZM112.26 103.92V105.6H114.32V103.92H112.26ZM118.3 105.6V103.92H116.32V105.6H118.3ZM118.3 109.18V107.46H116.32V109.18H118.3ZM116.54 116.96H121.46V119.12H108.6V116.96H114.12V115.06H109.98V112.92H114.12V111.2H110.12V101.9H120.56V111.2H116.54V112.92H120.78V115.06H116.54V116.96ZM128.72 103.84H126.18V105.2H128.72V103.84ZM126.18 108.56H128.72V107.16H126.18V108.56ZM131.94 116.02L129.82 117.02C129.72 116.72 129.58 116.36 129.42 116C127.24 116.7 124.98 117.4 123.18 117.94L122.58 115.58C122.98 115.48 123.42 115.36 123.9 115.24V101.68H131V110.74H126.18V114.64C126.9 114.44 127.66 114.22 128.42 114C128.08 113.38 127.7 112.76 127.32 112.22L129.34 111.36C130.4 112.82 131.46 114.72 131.94 116.02ZM134.94 108.54H136.34C136.7 107.12 136.96 105.58 137.16 103.88H134.94V108.54ZM138.48 117.4H139.18C139.48 117.4 139.56 117.04 139.62 114.7C140.06 115.06 141 115.44 141.6 115.58C141.4 118.66 140.88 119.48 139.42 119.48H138.08C136.34 119.48 135.94 118.8 135.94 116.74V115.36C134.7 117.18 133.08 118.66 131 119.8C130.62 119.36 129.62 118.46 129.04 118.06C132.34 116.5 134.38 114.1 135.64 110.78H131.5V108.54H132.74V103.88H131.8V101.66H141.02V103.88H139.6C139.38 105.56 139.12 107.1 138.78 108.54H141.32V110.78H138.16V116.72C138.16 117.32 138.2 117.4 138.48 117.4ZM156.34 110.64V109.36H149.12V110.64H156.34ZM149.12 113.92H156.34V112.62H149.12V113.92ZM160.9 105.7H150.2C149.96 106.24 149.7 106.76 149.4 107.28H158.66V117.16C158.66 118.34 158.44 118.98 157.62 119.34C156.84 119.72 155.7 119.74 154.08 119.74C153.98 119.08 153.66 118.08 153.36 117.44C154.38 117.5 155.54 117.5 155.88 117.5C156.22 117.48 156.34 117.38 156.34 117.1V115.9H149.12V119.72H146.76V111.02C145.96 111.9 145.1 112.7 144.12 113.36C143.78 112.84 143.02 111.98 142.56 111.54C144.68 110.12 146.34 108.02 147.54 105.7H143.16V103.46H148.54C148.86 102.64 149.12 101.84 149.32 101.04L151.78 101.6C151.58 102.22 151.38 102.84 151.14 103.46H160.9V105.7ZM165.68 115.58H168.86V111.66H165.68V115.58ZM168.86 109.6V106.36H165.68V109.6H168.86ZM175.22 104.14H180.84C180.84 104.14 180.84 104.94 180.82 105.22C180.56 114.16 180.34 117.34 179.52 118.4C178.96 119.14 178.4 119.36 177.6 119.5C176.84 119.6 175.64 119.58 174.46 119.54C174.42 118.88 174.1 117.88 173.68 117.22C174.96 117.34 176.14 117.34 176.66 117.34C177.06 117.34 177.28 117.26 177.54 117C178.12 116.36 178.38 113.36 178.6 106.3H174.32C173.8 107.5 173.18 108.6 172.56 109.46C172.24 109.16 171.56 108.7 171.02 108.34V117.68H165.68V119.14H163.52V104.28H165.78C166.04 103.28 166.28 102 166.36 101.06L168.96 101.42C168.62 102.42 168.26 103.42 167.92 104.28H171.02V107.52C172.18 105.84 173.14 103.42 173.72 101.08L176 101.6C175.78 102.46 175.52 103.3 175.22 104.14ZM177.52 113.26L175.5 114.5C174.94 113.3 173.7 111.34 172.72 109.88L174.58 108.82C175.58 110.2 176.9 112.1 177.52 113.26ZM199.1 102.46V104.76H184.9V102.46H199.1ZM196.44 117.18H198.24C198.9 117.18 199.02 116.66 199.12 113.78C199.64 114.2 200.66 114.62 201.32 114.78C201.08 118.36 200.48 119.4 198.44 119.4H196.04C193.78 119.4 193.2 118.64 193.2 116.3V110.18H190.2C189.84 114.34 188.92 117.76 184.14 119.7C183.86 119.1 183.2 118.22 182.66 117.76C186.82 116.2 187.38 113.5 187.62 110.18H183.1V107.86H200.94V110.18H195.66V116.3C195.66 117.06 195.78 117.18 196.44 117.18ZM206.88 101.14L209.14 101.86C208.6 103.28 207.94 104.74 207.18 106.12V119.72H204.92V109.66C204.52 110.16 204.12 110.66 203.72 111.1C203.5 110.5 202.84 109.22 202.44 108.62C204.2 106.82 205.9 103.98 206.88 101.14ZM221.26 110.7V113.02H216.14V119.74H213.74V113.02H208.34V110.7H213.74V107.26H211.3C210.94 108.24 210.5 109.14 210.06 109.84C209.62 109.52 208.58 108.96 208 108.7C209.08 107.14 209.9 104.6 210.36 102.16L212.66 102.64C212.5 103.42 212.3 104.18 212.08 104.94H213.74V101.32H216.14V104.94H220.32V107.26H216.14V110.7H221.26ZM238.06 107.8V104.62H235.2V107.8H238.06ZM240.42 102.58V109.84H232.96V102.58H240.42ZM229.76 105.1H227.74C227.3 107.7 226.34 109.72 224 111.06C223.74 110.5 223.08 109.64 222.58 109.26C224.34 108.28 225.1 106.92 225.46 105.1H223.06V103.04H225.72C225.76 102.42 225.78 101.78 225.8 101.08H228.08C228.06 101.76 228.02 102.4 227.98 103.04H232.12C232.12 103.04 232.1 103.62 232.08 103.9C231.92 107.46 231.74 109 231.26 109.58C230.86 110.04 230.46 110.22 229.9 110.3C229.44 110.38 228.64 110.38 227.78 110.36C227.72 109.7 227.48 108.84 227.16 108.26C227.84 108.34 228.44 108.34 228.72 108.34C228.98 108.36 229.14 108.3 229.3 108.12C229.52 107.86 229.66 107.06 229.76 105.1ZM240.86 113.88H234.64C236.32 115.36 238.88 116.64 241.36 117.28C240.86 117.76 240.12 118.68 239.78 119.28C237.38 118.5 235 117.02 233.2 115.28V119.76H230.72V115.28C228.94 117.08 226.58 118.62 224.2 119.46C223.84 118.88 223.14 118 222.66 117.54C225.12 116.84 227.72 115.44 229.36 113.88H223.06V111.78H230.72V110.34H233.2V111.78H240.86V113.88ZM249.88 111.96L248.66 113.66C248.4 113.04 247.96 112.1 247.52 111.2V119.72H245.36V112.24C244.84 113.78 244.22 115.18 243.54 116.18C243.32 115.52 242.84 114.62 242.5 114.08C243.62 112.52 244.68 109.74 245.18 107.38H242.96V105.18H245.36V101.06H247.52V105.18H249.52V107.38H247.52V108.32C248.08 109.1 249.56 111.4 249.88 111.96ZM256.42 114.86H258.2V113.9H256.42V114.86ZM252.58 113.9V114.86H254.28V113.9H252.58ZM254.28 111.5H252.58V112.36H254.28V111.5ZM258.2 111.5H256.42V112.36H258.2V111.5ZM254.26 106.58V107.42H256.46V106.58H254.26ZM254.26 104.16V104.98H256.46V104.16H254.26ZM261.48 114.86V116.6H260.4V117.46C260.4 118.46 260.2 118.96 259.54 119.28C258.88 119.58 257.94 119.6 256.68 119.6C256.58 119.04 256.32 118.26 256.06 117.72C256.8 117.76 257.62 117.74 257.86 117.74C258.12 117.74 258.2 117.68 258.2 117.44V116.6H252.58V119.58H250.44V116.6H249.22V114.86H250.44V109.86H254.28V109.1H249.58V107.42H252.06V106.58H250.42V104.98H252.06V104.16H250V102.52H252.06V101.06H254.26V102.52H256.46V101.06H258.68V102.52H260.92V104.16H258.68V104.98H260.6V106.58H258.68V107.42H261.28V109.1H256.42V109.86H260.4V114.86H261.48ZM265.88 120.76L265.24 119.14C266.8 118.64 267.7 117.78 267.82 116.72C267.76 116.74 267.68 116.74 267.6 116.74C266.6 116.74 265.7 116.1 265.7 114.96C265.7 113.84 266.6 113.16 267.66 113.16C269.08 113.16 269.82 114.22 269.82 115.9C269.82 118.18 268.36 120.02 265.88 120.76ZM291.02 106.94V116.54H292.94V106.94H291.02ZM295.32 116.54H301V119H283.04V116.54H288.68V106.94H283.42V104.6H287.48C287.14 103.76 286.6 102.7 286.04 101.9L288.16 101.08C288.9 102.08 289.62 103.38 289.94 104.28L289.18 104.6H294.06C294.72 103.6 295.46 102.14 295.88 101.04L298.54 101.74C297.94 102.76 297.32 103.78 296.74 104.6H300.58V106.94H295.32V116.54ZM284.22 109L286.36 108.44C287.22 110.36 287.92 112.86 288.12 114.54L285.82 115.12C285.68 113.46 285.02 110.92 284.22 109ZM297.8 115.1L295.64 114.54C296.34 112.88 297.12 110.26 297.5 108.3L300.08 108.88C299.38 111.08 298.52 113.52 297.8 115.1ZM307.3 106.3L308.78 106.84C308.06 111.94 306.38 116.06 304.14 118.22C303.78 117.68 302.94 116.76 302.42 116.4C304.22 114.78 305.52 111.92 306.18 108.54H303.1V106.4H306.9L307.3 106.3ZM313.1 112.82V114.1H316.68V116.06H313.1V117.16C313.1 118.42 312.84 119 312 119.36C311.16 119.72 309.94 119.76 308.26 119.76C308.14 119.12 307.74 118.14 307.4 117.52C308.58 117.58 309.86 117.58 310.22 117.58C310.6 117.56 310.72 117.46 310.72 117.12V116.06H307.26V114.1H310.72V112.82H308.26V110.94H310.72V109.66H308.74V107.8H310.72V105.54H311.96C312.64 105.16 313.32 104.72 313.92 104.26H305.78V102.12H316.34L316.84 102L318.44 103.16C317.08 104.64 315.12 106.16 313.1 107.14V107.8H315.22V109.66H313.1V110.94H315.7V112.82H313.1ZM319.42 106.24L321.3 107.72C320.38 108.82 319.32 110.08 318.38 111.02C319.1 113.22 320.12 115.06 321.56 116.24C320.98 116.7 320.18 117.62 319.8 118.28C317.08 115.74 315.84 111.34 315.14 106.24L317.24 105.9C317.38 106.84 317.54 107.76 317.72 108.66C318.38 107.86 319 106.98 319.42 106.24ZM340.8 103.88L338.94 105.16C338.5 104.38 337.4 103.14 336.54 102.3L338.28 101.14C339.16 101.94 340.28 103.08 340.8 103.88ZM332.9 116.26V116.7C333.54 116.18 334.16 115.6 334.72 114.94C334.16 112.84 333.82 110.16 333.66 107.24H329.26V108.12H332.92V109.78H329.26V110.56H332.64V115.48H329.24V116.26H332.9ZM325.54 113.58V114.32H327.34V113.58H325.54ZM325.54 111.72V112.46H327.34V111.72H325.54ZM329.06 112.46H330.9V111.72H329.06V112.46ZM329.06 114.32H330.9V113.58H329.06V114.32ZM338.36 108.1L340.48 108.76C339.68 111.26 338.6 113.48 337.24 115.36C337.68 116.66 338.2 117.42 338.8 117.42C339.2 117.42 339.4 116.46 339.5 114.14C340 114.68 340.8 115.18 341.38 115.4C341.06 118.88 340.34 119.74 338.58 119.74C337.3 119.74 336.32 118.86 335.58 117.36C334.7 118.26 333.74 119.08 332.68 119.78C332.34 119.18 331.68 118.46 331.1 117.98H329.24V119.76H327.16V117.98H323.24V116.26H327.16V115.48H323.88V110.56H327.12V109.78H323.52V108.12H327.12V107.24H322.98V105.28H327.08V104.22H323.86V102.42H327.08V101.08H329.36V102.42H332.56V104.22H329.36V105.28H333.56C333.5 103.9 333.48 102.5 333.48 101.08H335.88C335.84 102.52 335.86 103.92 335.9 105.28H341.08V107.24H335.98C336.1 109.14 336.28 110.88 336.54 112.36C337.28 111.08 337.9 109.64 338.36 108.1ZM360.96 111.34H354.36C356.1 113.56 358.82 115.68 361.48 116.84C360.92 117.32 360.16 118.28 359.76 118.9C357.4 117.68 355.08 115.68 353.26 113.4V119.76H350.72V113.52C348.9 115.72 346.56 117.66 344.22 118.88C343.82 118.28 343.04 117.32 342.48 116.82C345.14 115.68 347.86 113.56 349.62 111.34H343.14V108.98H350.72V106.42H344.64V104.06H350.72V101.08H353.26V104.06H359.52V106.42H353.26V108.98H360.96V111.34ZM366.64 106L368.96 106.44C368.76 107.18 368.52 107.92 368.24 108.6C368.96 109.22 369.72 109.9 370.18 110.36L368.58 112.02C368.28 111.64 367.78 111.14 367.24 110.62C366.58 111.7 365.82 112.64 364.94 113.36C364.56 112.94 363.62 112.16 363.1 111.8C364.86 110.54 366.08 108.44 366.64 106ZM380.92 111.18L379.26 112.84C378.7 112.22 377.68 111.34 376.68 110.52C376.28 111.18 375.84 111.76 375.34 112.24C375 111.96 374.34 111.52 373.78 111.22C375.56 113.58 378.42 115.7 381.42 116.8C380.84 117.3 380.06 118.32 379.66 118.98C377.24 117.86 374.98 116.06 373.18 113.92V119.74H370.68V114.04C368.88 116.14 366.64 117.88 364.26 118.98C363.88 118.4 363.1 117.44 362.58 116.94C365.82 115.68 368.94 113.2 370.68 110.5V105.88H363.4V103.54H370.68V101.08H373.18V103.54H380.72V105.88H373.18V110.36C373.28 110.52 373.38 110.66 373.48 110.82C374.76 109.68 375.6 107.9 376 106L378.32 106.42C378.14 107.16 377.92 107.88 377.66 108.56C378.8 109.44 380.18 110.5 380.92 111.18ZM384.42 102.98H399.58V105.38H384.42V102.98ZM385.8 109.36H398V111.78H385.8V109.36ZM383.3 116.1H400.66V118.54H383.3V116.1ZM48.4002 143.2H51.8602V140.16H48.4002V143.2ZM61.1602 143.2V145.48H54.3202V149.76H51.8602V145.48H42.8602V143.2H46.0202V137.94H51.8602V135.56H47.5802C46.7602 136.98 45.8002 138.26 44.8602 139.2C44.4002 138.8 43.3802 138 42.8002 137.66C44.6002 136.14 46.1402 133.58 47.0002 131L49.4202 131.62C49.2402 132.18 49.0202 132.72 48.7602 133.26H60.0602V135.56H54.3202V137.94H59.6002V140.16H54.3202V143.2H61.1602ZM74.3602 138.22L72.0202 139.46C71.5202 138.08 70.2402 135.98 69.0402 134.5L71.2002 133.42C72.5002 134.88 73.7602 136.84 74.3602 138.22ZM70.7002 141.76L71.2402 144.1C68.6002 145.28 65.6402 146.54 63.3802 147.48L62.5802 144.94C63.3402 144.68 64.2402 144.36 65.2402 143.96L64.8402 132.28L67.3202 132.18L67.6802 143C68.6802 142.58 69.7002 142.16 70.7002 141.76ZM81.5602 147.74L79.5202 149.72C78.7602 148.42 77.2602 146.58 75.7802 144.9C74.3202 146.98 72.3402 148.58 69.7002 149.76C69.3602 149.24 68.3802 148.16 67.8002 147.66C74.1402 145.26 76.2002 140.42 76.9402 132.2L79.5602 132.44C79.1402 136.54 78.4202 139.88 77.1202 142.6C78.7802 144.32 80.6402 146.34 81.5602 147.74ZM92.6402 146.36H101.1V148.76H82.9202V146.36H90.0802V131.3H92.6402V137.02H99.7002V139.44H92.6402V146.36ZM114.46 136.26H109.68C109.96 136.78 110.22 137.38 110.36 137.8L110.02 137.86H113.76C114 137.38 114.24 136.8 114.46 136.26ZM120.92 145.18H115.12C116.82 146.22 119.14 147 121.46 147.36C120.92 147.88 120.22 148.88 119.86 149.52C117.4 148.9 114.98 147.7 113.14 146.14V149.74H110.8V146.26C108.94 147.72 106.48 148.88 104.1 149.5C103.76 148.92 103.08 148 102.58 147.52C104.82 147.06 107.18 146.22 108.9 145.18H103.16V143.22H110.8V142.34H105.04V140.62H110.8V139.72H104.04V137.86H107.84C107.68 137.36 107.42 136.76 107.16 136.3L107.4 136.26H103.22V134.32H105.9C105.62 133.56 105.1 132.6 104.66 131.84L106.7 131.14C107.28 132 107.94 133.18 108.22 133.96L107.24 134.32H109.06V131.06H111.28V134.32H112.76V131.06H115V134.32H116.78L116.06 134.1C116.54 133.28 117.04 132.08 117.32 131.2L119.82 131.8C119.26 132.72 118.72 133.62 118.26 134.32H120.86V136.26H117.1C116.78 136.84 116.46 137.38 116.16 137.86H120.08V139.72H113.14V140.62H119.14V142.34H113.14V143.22H120.92V145.18ZM136.36 142.2H140.82C140.82 142.2 140.78 142.82 140.74 143.1C140.42 146.56 140.06 148.1 139.48 148.74C139.04 149.2 138.62 149.36 138.02 149.44C137.52 149.5 136.7 149.52 135.78 149.48C135.76 148.82 135.5 147.9 135.14 147.28C135.86 147.36 136.54 147.38 136.86 147.38C137.14 147.38 137.3 147.34 137.5 147.16C137.78 146.9 138.04 146.04 138.26 144.18H135.94C135.26 146.56 133.84 148.5 130.68 149.74C130.42 149.18 129.8 148.34 129.3 147.9C131.7 147.02 132.86 145.74 133.48 144.18H131.06V142.2H133.98C134.08 141.62 134.14 141.04 134.18 140.42H136.56C136.5 141.02 136.44 141.62 136.36 142.2ZM137.24 135.04H134.26C134.7 135.66 135.26 136.24 135.92 136.74C136.46 136.26 136.9 135.68 137.24 135.04ZM141.04 135.04H139.88C139.36 136.18 138.7 137.14 137.88 137.96C138.98 138.48 140.22 138.88 141.56 139.14C141.04 139.62 140.38 140.56 140.06 141.16C138.54 140.78 137.18 140.18 135.98 139.44C134.8 140.16 133.42 140.7 131.9 141.12C131.78 140.9 131.58 140.6 131.34 140.28C131.06 141.52 130.72 142.72 130.36 143.62L128.76 142.88C128.98 142.14 129.22 141.14 129.4 140.12H128.34V147.16C128.34 148.24 128.18 148.88 127.48 149.24C126.8 149.62 125.9 149.66 124.66 149.66C124.6 149 124.28 148.04 123.98 147.4C124.72 147.42 125.52 147.42 125.78 147.42C126.02 147.4 126.1 147.36 126.1 147.12V142.84C125.4 144.32 124.56 145.66 123.6 146.54C123.4 145.86 122.88 144.88 122.52 144.24C123.62 143.26 124.66 141.7 125.36 140.12H122.86V138.04H127.44C126.32 137.36 124.82 136.6 123.58 136.1L125.08 134.58C125.56 134.76 126.12 134.98 126.66 135.22C127.1 134.84 127.54 134.4 127.92 133.96H123.12V131.96H129.58L129.94 131.88L131.46 132.84C130.78 133.96 129.66 135.18 128.54 136.14C129.12 136.44 129.62 136.74 130 137.02L129.02 138.04H129.98L130.3 137.94L131.74 138.42L131.66 138.88C132.54 138.64 133.38 138.34 134.1 137.96C133.58 137.46 133.1 136.9 132.68 136.3C132.38 136.62 132.08 136.9 131.78 137.16C131.32 136.78 130.4 136.14 129.84 135.82C131.4 134.7 132.88 132.9 133.66 131.06L135.88 131.66C135.66 132.14 135.42 132.6 135.14 133.06H141.04V135.04ZM158.94 131.86L160.96 132.56C160.28 133.32 159.6 134.12 159.08 134.66L157.64 134.06C158.1 133.44 158.66 132.52 158.94 131.86ZM152.94 135.02L151.46 134.1C152.22 133.6 152.78 132.7 153.04 131.86L154.58 132.44C154.24 133.4 153.76 134.36 152.94 135.02ZM150.24 134.56L148.88 134C149.3 133.4 149.82 132.52 150.1 131.92L152 132.54C151.36 133.3 150.74 134.06 150.24 134.56ZM144.56 131.84L146.06 132.4C145.74 133.36 145.26 134.38 144.44 135.02L143 134.12C143.72 133.6 144.28 132.7 144.56 131.84ZM156.96 147.6V146.52H147.4V147.6H156.96ZM148.78 141.54V142.52H155.02V141.54H148.78ZM157.38 143.98H153.26C153.12 144.3 152.98 144.6 152.86 144.88H159.3V149.72H156.96V149.28H147.4V149.74H145.16V144.88H150.52C150.58 144.6 150.66 144.28 150.72 143.98H146.58V140.1H157.38V143.98ZM153.34 137.5H158.8C158.02 137 157 136.42 156.06 135.92C155.44 136.58 154.58 137.1 153.34 137.5ZM155.34 131.06H157.48C157.42 132.3 157.3 133.34 157 134.24C158.28 134.86 159.92 135.72 160.82 136.3L159.78 137.5H160.6V141.36H158.2V139.3H145.74V141.36H143.44V137.5H143.8C143.56 137.02 143.14 136.48 142.84 136.16C146.24 135.36 146.66 133.92 146.82 131.06H148.88C148.82 132.32 148.68 133.4 148.38 134.3C149.36 134.86 150.54 135.56 151.2 136.02L149.76 137.48C149.24 137.08 148.34 136.46 147.46 135.92C146.9 136.56 146.12 137.08 145.02 137.5H152.4C152.16 137 151.72 136.34 151.34 136C154.84 135.24 155.2 133.9 155.34 131.06ZM170.36 133.36V134.42H168.28V131.68H180.84V134.42H178.64V133.36H170.36ZM171.24 141.52H173.28V140.74H171.24V141.52ZM171.24 138.58V139.36H173.28V138.58H171.24ZM177.72 138.58H175.6V139.36H177.72V138.58ZM177.72 141.52V140.74H175.6V141.52H177.72ZM173.28 146.74V145.42H168.1V143.7H173.28V142.96H169.22V137.1H173.28V136.4H168.84V134.76H173.28V133.72H175.6V134.76H180.18V136.4H175.6V137.1H179.84V142.96H175.6V143.7H181.04V145.42H175.6V146.74H173.28ZM167.86 134.74L165.9 136.24C165.34 135.26 164.02 133.88 162.9 132.92L164.72 131.56C165.84 132.46 167.22 133.78 167.86 134.74ZM167.32 138.82V145.2C168.1 146.54 169.5 147.1 171.54 147.18C173.94 147.28 178.66 147.22 181.42 147C181.14 147.56 180.8 148.66 180.68 149.32C178.2 149.44 173.96 149.48 171.52 149.38C169.14 149.28 167.54 148.7 166.34 147.16C165.54 147.94 164.72 148.7 163.7 149.56L162.58 147.2C163.36 146.7 164.26 146.04 165.06 145.36V141H162.82V138.82H167.32ZM185.34 135.84V138.18H183.24V134.24H190.82V133.52H184.6V131.72H199.34V133.52H193.08V134.24H200.8V138.18H198.6V135.84H193.08V140.12H190.82V135.84H185.34ZM193.8 139.96V138.56H198.36V139.96H193.8ZM193.8 136.5H197.9V137.9H193.8V136.5ZM190.12 136.5V137.9H186.04V136.5H190.12ZM185.6 139.94V138.56H190.12V139.94H185.6ZM200.88 142.52H193.06C192.94 142.86 192.82 143.18 192.7 143.48H199.82V147.56C199.82 148.52 199.66 149.04 199.02 149.36C198.4 149.68 197.58 149.7 196.52 149.7C196.42 149.1 196.1 148.3 195.82 147.76C196.42 147.78 197.04 147.78 197.24 147.78C197.46 147.78 197.52 147.72 197.52 147.54V145.34H195.34V149.58H193.18V145.34H191.06V149.58H188.92V145.34H186.88V149.68H184.64V143.48H190.42C190.5 143.16 190.58 142.84 190.64 142.52H183.14V140.68H200.88V142.52ZM209.2 142.04L210 144.22C208.02 145.5 205.8 146.88 204.06 147.88L202.58 145.68C204.24 144.86 206.82 143.42 209.2 142.04ZM208.92 140.52L206.98 141.92C206.42 140.92 205.08 139.36 203.98 138.3L205.8 137.02C206.92 138.04 208.3 139.48 208.92 140.52ZM218.16 136.76L220.26 138.22C219.06 139.6 217.54 141.1 216.32 142.18C217.74 143.92 219.48 145.34 221.5 146.26C220.92 146.74 220.14 147.7 219.74 148.38C216.94 146.88 214.78 144.44 213.16 141.46V146.82C213.16 148.22 212.9 148.88 212.06 149.26C211.22 149.68 209.94 149.76 208.16 149.74C208.06 149.06 207.7 147.96 207.34 147.24C208.56 147.3 209.82 147.28 210.22 147.28C210.6 147.28 210.74 147.16 210.74 146.8V136.38H203.2V134.08H210.74V131.08H213.16V134.08H217.24C216.42 133.52 215.34 132.9 214.48 132.46L215.86 130.96C217.06 131.52 218.74 132.4 219.58 133.04L218.66 134.08H220.88V136.38H213.16V136.58C213.64 137.92 214.28 139.2 215.02 140.4C216.14 139.32 217.38 137.92 218.16 136.76ZM225.88 150.76L225.24 149.14C226.8 148.64 227.7 147.78 227.82 146.72C227.76 146.74 227.68 146.74 227.6 146.74C226.6 146.74 225.7 146.1 225.7 144.96C225.7 143.84 226.6 143.16 227.66 143.16C229.08 143.16 229.82 144.22 229.82 145.9C229.82 148.18 228.36 150.02 225.88 150.76ZM258.056 135.08H256.356V136.46H258.056V135.08ZM254.296 135.08H253.076C252.816 136.5 251.936 137.92 249.816 138.84C249.536 138.4 248.916 137.7 248.456 137.32C250.036 136.8 250.676 135.94 250.916 135.08H248.316V133.24H251.056V131.28H253.176V133.24H254.296V131.3L256.356 131.32V133.24H258.056V131.3H260.196V133.24H261.336V131.26H263.456V133.24H266.116V135.08H263.456V136.06C263.456 136.58 263.496 136.64 263.716 136.64H264.276C264.516 136.64 264.596 136.42 264.636 135.24C265.036 135.54 265.876 135.84 266.416 135.98C266.216 137.84 265.736 138.4 264.516 138.4H263.316C261.676 138.4 261.336 137.84 261.336 136.08V135.08H260.196V138.2H254.296V135.08ZM255.936 140.88H250.776V142.38H255.936V140.88ZM263.656 142.38V140.88H258.256V142.38H263.656ZM248.576 143.28V138.96H265.976V143.28H264.076V146.42C264.076 147.44 263.856 148.02 263.096 148.34C262.296 148.68 261.276 148.68 259.876 148.68C259.776 148.06 259.436 147.18 259.136 146.64C260.036 146.68 261.076 146.68 261.356 146.66C261.636 146.66 261.736 146.6 261.736 146.38V144.26H258.256V149.74H255.936V144.26H252.836V148.56H250.516V143.28H248.576ZM268.616 142.76L270.576 143.1C270.376 144.98 269.956 146.98 269.376 148.26C268.956 148 268.076 147.58 267.556 147.4C268.136 146.22 268.456 144.44 268.616 142.76ZM272.956 143.12L274.636 142.6C275.136 143.74 275.656 145.2 275.876 146.2L274.116 146.84C273.936 145.84 273.416 144.3 272.956 143.12ZM272.536 138.18L274.116 137.52C274.876 138.88 275.656 140.62 275.876 141.76L274.196 142.52C274.136 142.22 274.056 141.88 273.936 141.5L272.916 141.58V149.76H270.856V141.72L267.956 141.9L267.756 139.84L269.196 139.78C269.496 139.4 269.816 138.96 270.136 138.5C269.556 137.64 268.596 136.58 267.776 135.78L268.916 134.16C269.056 134.28 269.216 134.42 269.376 134.56C269.936 133.46 270.496 132.14 270.836 131.08L272.896 131.84C272.176 133.2 271.376 134.74 270.656 135.86C270.916 136.14 271.136 136.42 271.336 136.66C272.016 135.54 272.656 134.4 273.116 133.42L275.056 134.32C273.956 136.06 272.576 138.08 271.316 139.7L273.236 139.62C273.016 139.12 272.776 138.62 272.536 138.18ZM282.956 143.46H278.556V146.58H282.956V143.46ZM276.356 149.72V141.36H285.236V149.64H282.956V148.66H278.556V149.72H276.356ZM277.776 137.44H283.496C282.356 136.22 281.276 134.86 280.556 133.74C279.876 134.86 278.916 136.22 277.776 137.44ZM279.356 131.34H281.616C282.956 133.44 284.976 135.82 286.916 137.04C286.416 137.64 285.856 138.52 285.456 139.26C284.976 138.88 284.476 138.44 283.996 137.96V139.6H277.416V137.82C276.856 138.4 276.276 138.92 275.676 139.38C275.376 138.76 274.776 137.82 274.316 137.3C276.336 135.84 278.376 133.22 279.356 131.34ZM296.416 140.5H298.876V140.24V138.52H296.416V140.5ZM303.716 138.52H301.236V140.26V140.5H303.716V138.52ZM305.996 142.42H301.116C300.956 143.66 300.616 144.84 300.016 145.9C301.856 146.78 304.156 147.34 306.856 147.58C306.356 148.1 305.736 149.08 305.436 149.7C302.736 149.36 300.456 148.66 298.596 147.6C297.636 148.48 296.276 149.22 294.496 149.74C294.196 149.22 293.496 148.26 293.016 147.76C294.616 147.4 295.796 146.88 296.656 146.22C295.676 145.4 294.876 144.38 294.196 143.24L296.136 142.64C296.616 143.42 297.256 144.1 297.996 144.7C298.396 143.98 298.616 143.24 298.736 142.42H294.276V136.58H298.876V135.18H293.856V133.34C293.496 134.12 293.096 134.88 292.656 135.64V149.78H290.396V139.04C289.856 139.72 289.316 140.36 288.756 140.92C288.536 140.34 287.896 139.06 287.496 138.48C289.396 136.68 291.256 133.86 292.336 131.02L294.536 131.74C294.356 132.16 294.176 132.58 293.996 133.02H298.876V131.2H301.236V133.02H306.536V135.18H301.236V136.58H305.996V142.42ZM318.596 141.66H322.816V139.2H318.596V141.66ZM312.376 141.66H316.196V139.2H312.436V139.56C312.436 140.2 312.416 140.92 312.376 141.66ZM316.196 134.66H312.436V136.98H316.196V134.66ZM322.816 136.98V134.66H318.596V136.98H322.816ZM325.176 132.4V146.92C325.176 148.2 324.896 148.84 324.096 149.2C323.276 149.6 322.056 149.64 320.256 149.62C320.176 148.98 319.796 147.96 319.496 147.34C320.616 147.4 321.936 147.38 322.296 147.38C322.676 147.38 322.816 147.26 322.816 146.9V143.9H318.596V149.48H316.196V143.9H312.116C311.756 146.08 311.036 148.28 309.596 149.84C309.216 149.4 308.256 148.58 307.716 148.3C309.896 145.9 310.076 142.34 310.076 139.54V132.4H325.176ZM337.016 135.28V137.1H338.116C338.876 136.52 339.596 135.92 340.276 135.28H337.016ZM341.376 144.02V142.74H334.496V144.02H341.376ZM334.496 147.18H341.376V145.82H334.496V147.18ZM346.156 139.2H338.956C338.176 139.76 337.416 140.28 336.596 140.8H343.876V149.68H341.376V149.16H334.496V149.76H332.116V143.22C331.116 143.66 330.076 144.1 329.056 144.48C328.776 143.96 328.056 143 327.616 142.52C330.236 141.7 332.736 140.56 335.036 139.2H328.236V137.1H334.656V135.28H329.956V133.22H334.656V131.06H337.016V133.22H341.356V134.2C342.116 133.38 342.796 132.54 343.416 131.66L345.456 132.7C344.316 134.28 342.976 135.76 341.516 137.1H346.156V139.2ZM365.356 131.56V135.5H349.016V131.56H351.436V133.58H355.936V131.06H358.376V133.58H362.856V131.56H365.356ZM350.556 142.74V143.56H352.096V142.74H350.556ZM350.556 140.8V141.6H352.096V140.8H350.556ZM355.356 141.6V140.8H353.796V141.6H355.356ZM355.356 143.56V142.74H353.796V143.56H355.356ZM366.476 140.86V142.86H364.356V149.72H362.196V142.86H360.396C360.236 145.12 359.676 147.78 358.016 149.72C357.716 149.24 356.896 148.5 356.356 148.22C356.536 148 356.696 147.78 356.836 147.56H353.996V149.74H351.896V147.56H348.096V145.8H351.896V144.9H348.776V139.46H351.896V138.62H348.496V136.96H351.896V135.84H353.996V136.96H357.436V138.62H353.996V139.46H357.216V144.9H353.996V145.8H357.536V146.18C358.216 144.46 358.296 142.58 358.296 141.02V136.84L359.776 137.2C361.496 136.86 363.296 136.36 364.396 135.82L366.136 137.4C364.516 138.12 362.396 138.62 360.456 138.92V140.86H366.476ZM374.216 134.98H371.196C371.536 135.66 371.796 136.58 371.876 137.18L370.876 137.46H374.796L373.476 137.18C373.736 136.58 374.056 135.66 374.216 134.98ZM373.956 142.96V143.12C374.676 143.62 376.336 144.94 376.796 145.3L375.416 147C375.096 146.6 374.536 146 373.956 145.44V149.7H371.656V145.68C370.876 146.8 369.976 147.8 369.116 148.5C368.756 147.98 368.076 147.2 367.576 146.82C368.876 145.96 370.256 144.46 371.176 142.96H368.136V140.96H371.656V139.42H368.076V137.46H369.916C369.836 136.8 369.596 135.94 369.316 135.26L370.536 134.98H368.296V133.04H371.656V131.22H373.956V133.04H377.276V134.98H375.216L376.376 135.2C376.016 136.06 375.696 136.86 375.416 137.46H377.436V139.42H373.956V140.96H377.256V142.96H373.956ZM386.516 137.64V139.84H384.616V149.62H382.316V139.84H380.276C380.256 142.82 379.836 147.04 377.196 149.78C376.896 149.26 376.036 148.44 375.496 148.16C377.796 145.72 378.036 142.32 378.036 139.56V132.64L379.416 133.02C381.316 132.56 383.296 131.92 384.516 131.26L386.416 133C384.656 133.78 382.376 134.4 380.276 134.84V137.64H386.516ZM58.9402 165.1V164.24H58.0602V165.1H58.9402ZM58.9402 167.42V166.54H58.0602V167.42H58.9402ZM53.7802 166.54V167.42H54.6402V166.54H53.7802ZM53.7802 164.24V165.1H54.6402V164.24H53.7802ZM56.7802 166.54H55.9202V167.42H56.7802V166.54ZM55.9202 165.1H56.7802V164.24H55.9202V165.1ZM60.7802 162.74V168.94H52.0402V162.74H54.2602V161.08H55.9202V162.74H56.7802V161.08H58.4602V162.74H60.7802ZM49.8602 169.78V168.98H44.7202V169.78H49.8602ZM46.2002 174.74H48.3402V173.82H46.2002V174.74ZM48.3402 172.26V171.38H46.2002V172.26H48.3402ZM45.8602 163.36V167.36H46.5602V164.18H48.6602V163.36H45.8602ZM47.8202 167.36H48.6602V165.52H47.8202V167.36ZM51.6202 170.48H50.3602V177.74C50.3602 178.6 50.2402 179.1 49.7002 179.4C49.1802 179.72 48.5002 179.74 47.5602 179.74C47.4802 179.2 47.2402 178.44 47.0202 177.94C47.4802 177.96 47.9402 177.96 48.1202 177.96C48.3002 177.94 48.3402 177.88 48.3402 177.72V176.34H46.2002V179.74H44.2002V170.48H43.0202V167.36H44.1602V161.68H50.4402V167.36H51.6402V169.62H61.1602V171.2H51.6202V170.48ZM57.8002 175.74H54.7402C55.1402 176.38 55.5002 177.22 55.6402 177.82H57.0002C57.2802 177.2 57.6202 176.38 57.8002 175.74ZM54.2402 173.24V174.34H58.5002V173.24H54.2402ZM58.7802 177.82H61.3802V179.5H51.2002V177.82H53.7602C53.5802 177.28 53.3202 176.66 53.0202 176.18L54.2402 175.74H52.3202V171.84H60.5002V175.74H58.6202L59.8202 176.02C59.4602 176.66 59.1002 177.28 58.7802 177.82ZM73.7402 165.8H77.9602C77.1002 164.98 76.3202 164.04 75.8002 163.18C75.3202 164.04 74.6002 164.96 73.7402 165.8ZM73.2602 167.54V166.24C72.6202 166.82 71.9202 167.32 71.2202 167.72C71.0202 167.1 70.5602 166.24 70.1602 165.74C72.0402 164.76 73.8202 162.78 74.6802 161.08H76.8002C77.9802 162.98 79.7802 164.74 81.6002 165.56C81.1802 166.14 80.7202 167 80.4002 167.66C79.7802 167.3 79.1402 166.84 78.5202 166.32V167.54H73.2602ZM77.8002 169.9V171.8H79.0602V169.9H77.8002ZM76.2602 173.3V168.42H80.7202V173.3H76.2602ZM72.8002 169.9V171.8H73.9202V169.9H72.8002ZM71.2402 173.3V168.42H75.5402V173.3H71.2402ZM63.6402 178.64L62.4402 178.02C63.1002 176.96 63.2802 175.26 63.3402 173.54L64.6202 173.78C64.5402 175.62 64.3802 177.48 63.6402 178.64ZM64.8202 173.96L65.8202 173.84C66.0002 175.02 66.0402 176.54 66.0002 177.52L64.9202 177.64C65.0002 176.64 64.9602 175.14 64.8202 173.96ZM66.0402 173.82L67.0202 173.64C67.3002 174.68 67.5602 176 67.6002 176.88L66.6002 177.06C66.5602 176.2 66.3402 174.86 66.0402 173.82ZM65.3202 169.58V170.86H66.5602V169.58H65.3202ZM66.5602 163.64H65.3202V164.88H66.5602V163.64ZM66.5602 167.84V166.62H65.3202V167.84H66.5602ZM77.5002 173.62L79.4802 173.74C79.4002 174.5 79.2802 175.22 79.1002 175.86C79.9402 176.72 80.9602 177.84 81.4402 178.58L79.9402 179.74C79.6002 179.2 79.0002 178.44 78.3802 177.7C77.9202 178.54 77.3402 179.22 76.5602 179.78C76.3402 179.46 75.7202 178.88 75.2802 178.52L74.7202 179.12C74.4602 178.7 74.0002 178.12 73.5002 177.54C73.0402 178.46 72.4202 179.2 71.6002 179.8C71.3402 179.44 70.6602 178.76 70.2202 178.46C70.1402 178.72 70.0602 178.92 69.9602 179.04C69.6402 179.48 69.3002 179.66 68.8202 179.72C68.4402 179.8 67.7802 179.8 67.1202 179.8C67.0802 179.24 66.9202 178.5 66.6602 178.02C67.1602 178.08 67.5802 178.08 67.8402 178.08C68.0602 178.08 68.2002 178.04 68.3402 177.84C68.4802 177.64 68.5602 177.12 68.6402 176.02L68.1002 176.22C67.9802 175.52 67.6402 174.46 67.2602 173.64L68.1402 173.36C68.3402 173.76 68.5402 174.24 68.7002 174.7C68.7402 174.12 68.7602 173.44 68.7802 172.66H63.4602V161.78H70.4402V163.64H68.3602V164.88H70.0802V166.62H68.3602V167.84H70.1402V169.58H68.3602V170.86H70.6602C70.6602 170.86 70.6602 171.36 70.6402 171.62C70.5402 175.46 70.4602 177.46 70.2202 178.42C71.7402 177.42 72.3802 175.78 72.5602 173.64L74.5202 173.76C74.4402 174.46 74.3402 175.1 74.1802 175.72C74.8402 176.38 75.5602 177.16 75.9602 177.72C76.9202 176.72 77.3402 175.32 77.5002 173.62ZM85.6802 175.58H88.8602V171.66H85.6802V175.58ZM88.8602 169.6V166.36H85.6802V169.6H88.8602ZM95.2202 164.14H100.84C100.84 164.14 100.84 164.94 100.82 165.22C100.56 174.16 100.34 177.34 99.5202 178.4C98.9602 179.14 98.4002 179.36 97.6002 179.5C96.8402 179.6 95.6402 179.58 94.4602 179.54C94.4202 178.88 94.1002 177.88 93.6802 177.22C94.9602 177.34 96.1402 177.34 96.6602 177.34C97.0602 177.34 97.2802 177.26 97.5402 177C98.1202 176.36 98.3802 173.36 98.6002 166.3H94.3202C93.8002 167.5 93.1802 168.6 92.5602 169.46C92.2402 169.16 91.5602 168.7 91.0202 168.34V177.68H85.6802V179.14H83.5202V164.28H85.7802C86.0402 163.28 86.2802 162 86.3602 161.06L88.9602 161.42C88.6202 162.42 88.2602 163.42 87.9202 164.28H91.0202V167.52C92.1802 165.84 93.1402 163.42 93.7202 161.08L96.0002 161.6C95.7802 162.46 95.5202 163.3 95.2202 164.14ZM97.5202 173.26L95.5002 174.5C94.9402 173.3 93.7002 171.34 92.7202 169.88L94.5802 168.82C95.5802 170.2 96.9002 172.1 97.5202 173.26ZM113.156 163.72C115.102 163.72 116.536 164.073 117.456 164.78C118.389 165.487 118.856 166.56 118.856 168C118.856 168.653 118.729 169.227 118.476 169.72C118.236 170.2 117.909 170.613 117.496 170.96C117.096 171.293 116.662 171.567 116.196 171.78L120.396 178H117.036L113.636 172.52H112.016V178H108.996V163.72H113.156ZM112.936 166.2H112.016V170.06H112.996C113.996 170.06 114.709 169.893 115.136 169.56C115.576 169.227 115.796 168.733 115.796 168.08C115.796 167.4 115.562 166.92 115.096 166.64C114.629 166.347 113.909 166.2 112.936 166.2ZM123.459 162.8C123.899 162.8 124.279 162.907 124.599 163.12C124.919 163.32 125.079 163.7 125.079 164.26C125.079 164.807 124.919 165.187 124.599 165.4C124.279 165.613 123.899 165.72 123.459 165.72C123.005 165.72 122.619 165.613 122.299 165.4C121.992 165.187 121.839 164.807 121.839 164.26C121.839 163.7 121.992 163.32 122.299 163.12C122.619 162.907 123.005 162.8 123.459 162.8ZM124.939 167.08V178H121.959V167.08H124.939ZM132.492 178.2C130.866 178.2 129.606 177.753 128.712 176.86C127.832 175.967 127.392 174.547 127.392 172.6C127.392 171.267 127.619 170.18 128.072 169.34C128.526 168.5 129.152 167.88 129.952 167.48C130.766 167.08 131.699 166.88 132.752 166.88C133.499 166.88 134.146 166.953 134.692 167.1C135.252 167.247 135.739 167.42 136.152 167.62L135.272 169.92C134.806 169.733 134.366 169.58 133.952 169.46C133.552 169.34 133.152 169.28 132.752 169.28C131.206 169.28 130.432 170.38 130.432 172.58C130.432 173.673 130.632 174.48 131.032 175C131.446 175.52 132.019 175.78 132.752 175.78C133.379 175.78 133.932 175.7 134.412 175.54C134.892 175.367 135.359 175.133 135.812 174.84V177.38C135.359 177.673 134.879 177.88 134.372 178C133.879 178.133 133.252 178.2 132.492 178.2ZM141.306 162.8V165.9C141.306 166.447 141.286 166.967 141.246 167.46C141.219 167.94 141.193 168.28 141.166 168.48H141.326C141.673 167.92 142.119 167.513 142.666 167.26C143.213 167.007 143.819 166.88 144.486 166.88C145.659 166.88 146.606 167.2 147.326 167.84C148.046 168.467 148.406 169.48 148.406 170.88V178H145.426V171.62C145.426 170.047 144.839 169.26 143.666 169.26C142.773 169.26 142.153 169.573 141.806 170.2C141.473 170.813 141.306 171.7 141.306 172.86V178H138.326V162.8H141.306ZM155.95 166.86C157.417 166.86 158.537 167.18 159.31 167.82C160.097 168.447 160.49 169.413 160.49 170.72V178H158.41L157.83 176.52H157.75C157.284 177.107 156.79 177.533 156.27 177.8C155.75 178.067 155.037 178.2 154.13 178.2C153.157 178.2 152.35 177.92 151.71 177.36C151.07 176.8 150.75 175.927 150.75 174.74C150.75 173.58 151.157 172.727 151.97 172.18C152.784 171.633 154.004 171.327 155.63 171.26L157.53 171.2V170.72C157.53 170.147 157.377 169.727 157.07 169.46C156.777 169.193 156.364 169.06 155.83 169.06C155.297 169.06 154.777 169.14 154.27 169.3C153.764 169.447 153.257 169.633 152.75 169.86L151.77 167.84C152.344 167.547 152.99 167.313 153.71 167.14C154.43 166.953 155.177 166.86 155.95 166.86ZM157.53 172.94L156.37 172.98C155.41 173.007 154.744 173.18 154.37 173.5C153.997 173.82 153.81 174.24 153.81 174.76C153.81 175.213 153.944 175.54 154.21 175.74C154.477 175.927 154.824 176.02 155.25 176.02C155.89 176.02 156.43 175.833 156.87 175.46C157.31 175.073 157.53 174.533 157.53 173.84V172.94ZM169.641 166.88C169.787 166.88 169.961 166.887 170.161 166.9C170.361 166.913 170.521 166.933 170.641 166.96L170.421 169.76C170.314 169.733 170.174 169.713 170.001 169.7C169.827 169.673 169.674 169.66 169.541 169.66C169.034 169.66 168.547 169.753 168.081 169.94C167.614 170.113 167.234 170.4 166.941 170.8C166.661 171.2 166.521 171.747 166.521 172.44V178H163.541V167.08H165.801L166.241 168.92H166.381C166.701 168.36 167.141 167.88 167.701 167.48C168.261 167.08 168.907 166.88 169.641 166.88ZM177.223 175.82C177.556 175.82 177.876 175.793 178.183 175.74C178.489 175.673 178.796 175.587 179.103 175.48V177.7C178.783 177.847 178.383 177.967 177.903 178.06C177.436 178.153 176.923 178.2 176.363 178.2C175.709 178.2 175.123 178.093 174.603 177.88C174.096 177.667 173.689 177.3 173.383 176.78C173.089 176.26 172.943 175.527 172.943 174.58V169.32H171.523V168.06L173.163 167.06L174.023 164.76H175.923V167.08H178.983V169.32H175.923V174.58C175.923 174.993 176.043 175.307 176.283 175.52C176.523 175.72 176.836 175.82 177.223 175.82ZM195.47 178L194.43 174.6H189.23L188.19 178H184.93L189.97 163.66H193.67L198.73 178H195.47ZM193.71 172.06L192.67 168.74C192.603 168.513 192.517 168.227 192.41 167.88C192.303 167.533 192.197 167.18 192.09 166.82C191.983 166.46 191.897 166.147 191.83 165.88C191.763 166.147 191.67 166.48 191.55 166.88C191.443 167.267 191.337 167.64 191.23 168C191.137 168.347 191.063 168.593 191.01 168.74L189.99 172.06H193.71ZM205.099 163.72C206.939 163.72 208.279 164.12 209.119 164.92C209.972 165.707 210.399 166.793 210.399 168.18C210.399 169.02 210.225 169.8 209.879 170.52C209.532 171.24 208.952 171.82 208.139 172.26C207.339 172.7 206.245 172.92 204.859 172.92H203.559V178H200.539V163.72H205.099ZM204.939 166.2H203.559V170.44H204.559C205.412 170.44 206.085 170.273 206.579 169.94C207.085 169.593 207.339 169.04 207.339 168.28C207.339 166.893 206.539 166.2 204.939 166.2ZM217.657 163.72C219.497 163.72 220.837 164.12 221.677 164.92C222.53 165.707 222.957 166.793 222.957 168.18C222.957 169.02 222.784 169.8 222.437 170.52C222.09 171.24 221.51 171.82 220.697 172.26C219.897 172.7 218.804 172.92 217.417 172.92H216.117V178H213.097V163.72H217.657ZM217.497 166.2H216.117V170.44H217.117C217.97 170.44 218.644 170.273 219.137 169.94C219.644 169.593 219.897 169.04 219.897 168.28C219.897 166.893 219.097 166.2 217.497 166.2ZM232.336 172.86C231.916 169.72 236.156 169 236.156 167.06C236.156 165.86 235.196 165.18 233.636 165.18C232.396 165.18 231.416 165.72 230.436 166.76L228.796 165.24C230.056 163.76 231.816 162.8 233.956 162.8C236.856 162.8 238.976 164.14 238.976 166.8C238.976 169.74 234.616 170.08 234.916 172.86H232.336ZM233.636 178.18C232.616 178.18 231.876 177.46 231.876 176.42C231.876 175.36 232.636 174.64 233.636 174.64C234.656 174.64 235.396 175.36 235.396 176.42C235.396 177.46 234.656 178.18 233.636 178.18Z" fill="white"/>
</svg>
