<svg width="502" height="278" viewBox="0 0 502 278" fill="none" xmlns="http://www.w3.org/2000/svg">
<path d="M106.1 119.26H103.84C103.5 120.74 103.16 122.18 102.82 123.54C103.44 123.92 104.08 124.32 104.72 124.76C105.38 123.22 105.84 121.38 106.1 119.26ZM107.08 116.96L108.54 117.2C108.3 120.96 107.68 123.86 106.66 126.14C107.6 126.88 108.42 127.6 108.96 128.24L107.58 130.28C107.08 129.64 106.34 128.94 105.48 128.2C104.4 129.72 103.04 130.88 101.34 131.74C101.04 131.14 100.42 130.26 99.94 129.78C101.44 129.14 102.68 128.12 103.64 126.74C103.18 126.4 102.7 126.06 102.24 125.74L102.04 126.48L100.04 125.52C100.52 123.86 101.08 121.6 101.6 119.26H99.84V117.02H102.08C102.36 115.64 102.62 114.28 102.82 113.06L105.12 113.28C104.88 114.46 104.62 115.72 104.34 117.02H106.66L107.08 116.96ZM111.76 127.46H115.28V117.34H111.76V127.46ZM109.5 115.1H117.64V130.9H115.28V129.72H111.76V131.2H109.5V115.1ZM123.98 113.04L126.22 113.76C125.76 114.98 125.22 116.2 124.58 117.42V131.68H122.2V121.22C121.74 121.84 121.26 122.4 120.8 122.9C120.58 122.32 119.94 121.02 119.52 120.42C121.28 118.66 123 115.86 123.98 113.04ZM130.72 121.28H128.5V124.4H130.72V121.28ZM132.94 126.46H128.5V127.76H126.28V119.22H132.94V126.46ZM138.36 114.78V117.06H137.16V128.92C137.16 130.3 136.86 130.94 136 131.32C135.16 131.68 133.8 131.76 131.94 131.76C131.86 131.06 131.48 130.02 131.14 129.32C132.44 129.38 133.84 129.38 134.24 129.38C134.64 129.38 134.76 129.26 134.76 128.88V117.06H126.04V114.78H138.36ZM147.44 124L146.1 125.82C145.82 125.18 145.32 124.22 144.82 123.32V131.72H142.58V124.1C142 125.74 141.32 127.24 140.56 128.28C140.34 127.6 139.82 126.66 139.44 126.08C140.66 124.48 141.8 121.74 142.36 119.36H139.96V117.16H142.58V113.06H144.82V117.16H147.12V119.36H144.82V120.46C145.4 121.16 147.08 123.44 147.44 124ZM150.28 122.96V128.42C151.24 128.26 152.26 128.08 153.26 127.9C152.48 126.48 151.92 124.82 151.5 122.96H150.28ZM154.76 116.08H150.28V117.46H154.76V116.08ZM150.28 120.94H154.76V119.5H150.28V120.94ZM156.66 123.3L158.24 125.12C157.3 125.76 156.32 126.44 155.42 127.02C156.22 128.2 157.24 129.14 158.5 129.74C157.96 130.2 157.24 131.12 156.92 131.76C155.36 130.88 154.18 129.58 153.28 127.96L153.48 130.02C151.26 130.5 148.92 130.96 147.08 131.32L146.44 129.04C146.92 128.98 147.44 128.9 148.02 128.8V114.04H157.04V122.96H153.64C153.86 123.78 154.14 124.58 154.46 125.3C155.26 124.66 156.1 123.9 156.66 123.3ZM165.48 121.4L165.78 123.54C165.18 123.72 164.56 123.92 163.96 124.1V129.26C163.96 130.36 163.78 130.94 163.16 131.3C162.58 131.68 161.72 131.76 160.44 131.74C160.38 131.16 160.12 130.22 159.84 129.58C160.56 129.62 161.26 129.62 161.5 129.62C161.74 129.62 161.84 129.54 161.84 129.26V124.74C161.18 124.92 160.54 125.1 159.96 125.26L159.44 122.98C160.12 122.84 160.94 122.62 161.84 122.4V119.02H159.8V116.84H161.84V113.08H163.96V116.84H165.5V119.02H163.96V121.82L165.48 121.4ZM168.02 118.22V122.48C168.02 125.3 167.74 129.22 165.98 131.72C165.62 131.36 164.7 130.76 164.22 130.54C165.84 128.26 165.98 124.98 165.98 122.48V116.54H170.32V113.12H172.6V114.1H177.16V115.74H172.6V116.54H176.38L176.7 116.5L178.16 116.78C177.92 117.9 177.54 119.18 177.18 120.02L175.42 119.64C175.56 119.26 175.7 118.76 175.82 118.22H172.26V118.96L174.9 118.74L175.04 120L172.26 120.26V120.34C172.26 120.8 172.38 120.86 173.04 120.86H175.2C175.68 120.86 175.78 120.74 175.84 120.04C176.22 120.26 176.92 120.46 177.4 120.54C177.24 121.8 176.74 122.16 175.44 122.16H172.78C170.86 122.16 170.34 121.8 170.32 120.44L168.4 120.62L168.26 119.3L170.32 119.12V118.22H168.02ZM176.86 124.56L178.12 125.58C177.48 126.14 176.74 126.66 176.08 127.08C176.72 128.12 177.54 128.98 178.6 129.48C178.18 129.84 177.6 130.58 177.34 131.08C175.2 129.82 174.02 127.28 173.36 124.22C173.02 124.5 172.62 124.78 172.2 125.02C174.68 127.04 174.54 130.16 173.46 131.14C172.98 131.62 172.5 131.76 171.86 131.78C171.54 131.78 171.18 131.78 170.82 131.76C170.8 131.28 170.66 130.6 170.34 130.12C170.8 130.16 171.16 130.18 171.48 130.18C171.78 130.18 172 130.14 172.18 129.88C172.36 129.68 172.48 129.24 172.44 128.68C171.2 129.64 169.5 130.56 168.04 131.08C167.88 130.74 167.52 130.16 167.2 129.86C168.88 129.38 171 128.38 172.1 127.36C172.04 127.22 171.96 127.08 171.88 126.94C170.96 127.58 169.7 128.22 168.64 128.62C168.48 128.28 168.12 127.76 167.84 127.48C168.94 127.2 170.3 126.66 171.18 126.08C171.08 125.96 170.94 125.86 170.82 125.74C170.14 126.04 169.46 126.3 168.8 126.48C168.64 126.16 168.32 125.6 168.1 125.32C169.16 125.08 170.34 124.66 171.28 124.16H168.4V122.64H178.12V124.16H174.92C175.06 124.72 175.24 125.26 175.44 125.76C175.96 125.36 176.5 124.9 176.86 124.56ZM190.155 115.72C192.102 115.72 193.535 116.073 194.455 116.78C195.389 117.487 195.855 118.56 195.855 120C195.855 120.653 195.729 121.227 195.475 121.72C195.235 122.2 194.909 122.613 194.495 122.96C194.095 123.293 193.662 123.567 193.195 123.78L197.395 130H194.035L190.635 124.52H189.015V130H185.995V115.72H190.155ZM189.935 118.2H189.015V122.06H189.995C190.995 122.06 191.709 121.893 192.135 121.56C192.575 121.227 192.795 120.733 192.795 120.08C192.795 119.4 192.562 118.92 192.095 118.64C191.629 118.347 190.909 118.2 189.935 118.2ZM200.458 114.8C200.898 114.8 201.278 114.907 201.598 115.12C201.918 115.32 202.078 115.7 202.078 116.26C202.078 116.807 201.918 117.187 201.598 117.4C201.278 117.613 200.898 117.72 200.458 117.72C200.005 117.72 199.618 117.613 199.298 117.4C198.992 117.187 198.838 116.807 198.838 116.26C198.838 115.7 198.992 115.32 199.298 115.12C199.618 114.907 200.005 114.8 200.458 114.8ZM201.938 119.08V130H198.958V119.08H201.938ZM209.492 130.2C207.866 130.2 206.606 129.753 205.712 128.86C204.832 127.967 204.392 126.547 204.392 124.6C204.392 123.267 204.619 122.18 205.072 121.34C205.526 120.5 206.152 119.88 206.952 119.48C207.766 119.08 208.699 118.88 209.752 118.88C210.499 118.88 211.146 118.953 211.692 119.1C212.252 119.247 212.739 119.42 213.152 119.62L212.272 121.92C211.806 121.733 211.366 121.58 210.952 121.46C210.552 121.34 210.152 121.28 209.752 121.28C208.206 121.28 207.432 122.38 207.432 124.58C207.432 125.673 207.632 126.48 208.032 127C208.446 127.52 209.019 127.78 209.752 127.78C210.379 127.78 210.932 127.7 211.412 127.54C211.892 127.367 212.359 127.133 212.812 126.84V129.38C212.359 129.673 211.879 129.88 211.372 130C210.879 130.133 210.252 130.2 209.492 130.2ZM218.306 114.8V117.9C218.306 118.447 218.286 118.967 218.246 119.46C218.219 119.94 218.192 120.28 218.166 120.48H218.326C218.672 119.92 219.119 119.513 219.666 119.26C220.212 119.007 220.819 118.88 221.486 118.88C222.659 118.88 223.606 119.2 224.326 119.84C225.046 120.467 225.406 121.48 225.406 122.88V130H222.426V123.62C222.426 122.047 221.839 121.26 220.666 121.26C219.772 121.26 219.152 121.573 218.806 122.2C218.472 122.813 218.306 123.7 218.306 124.86V130H215.326V114.8H218.306ZM232.95 118.86C234.417 118.86 235.537 119.18 236.31 119.82C237.097 120.447 237.49 121.413 237.49 122.72V130H235.41L234.83 128.52H234.75C234.283 129.107 233.79 129.533 233.27 129.8C232.75 130.067 232.037 130.2 231.13 130.2C230.157 130.2 229.35 129.92 228.71 129.36C228.07 128.8 227.75 127.927 227.75 126.74C227.75 125.58 228.157 124.727 228.97 124.18C229.783 123.633 231.003 123.327 232.63 123.26L234.53 123.2V122.72C234.53 122.147 234.377 121.727 234.07 121.46C233.777 121.193 233.363 121.06 232.83 121.06C232.297 121.06 231.777 121.14 231.27 121.3C230.763 121.447 230.257 121.633 229.75 121.86L228.77 119.84C229.343 119.547 229.99 119.313 230.71 119.14C231.43 118.953 232.177 118.86 232.95 118.86ZM234.53 124.94L233.37 124.98C232.41 125.007 231.743 125.18 231.37 125.5C230.997 125.82 230.81 126.24 230.81 126.76C230.81 127.213 230.943 127.54 231.21 127.74C231.477 127.927 231.823 128.02 232.25 128.02C232.89 128.02 233.43 127.833 233.87 127.46C234.31 127.073 234.53 126.533 234.53 125.84V124.94ZM246.64 118.88C246.787 118.88 246.96 118.887 247.16 118.9C247.36 118.913 247.52 118.933 247.64 118.96L247.42 121.76C247.314 121.733 247.174 121.713 247 121.7C246.827 121.673 246.674 121.66 246.54 121.66C246.034 121.66 245.547 121.753 245.08 121.94C244.614 122.113 244.234 122.4 243.94 122.8C243.66 123.2 243.52 123.747 243.52 124.44V130H240.54V119.08H242.8L243.24 120.92H243.38C243.7 120.36 244.14 119.88 244.7 119.48C245.26 119.08 245.907 118.88 246.64 118.88ZM254.223 127.82C254.556 127.82 254.876 127.793 255.183 127.74C255.489 127.673 255.796 127.587 256.103 127.48V129.7C255.783 129.847 255.383 129.967 254.903 130.06C254.436 130.153 253.923 130.2 253.363 130.2C252.709 130.2 252.123 130.093 251.603 129.88C251.096 129.667 250.689 129.3 250.383 128.78C250.089 128.26 249.943 127.527 249.943 126.58V121.32H248.523V120.06L250.163 119.06L251.023 116.76H252.923V119.08H255.983V121.32H252.923V126.58C252.923 126.993 253.043 127.307 253.283 127.52C253.523 127.72 253.836 127.82 254.223 127.82ZM268.65 115.84H266.11V117.2H268.65V115.84ZM266.11 120.56H268.65V119.16H266.11V120.56ZM271.87 128.02L269.75 129.02C269.65 128.72 269.51 128.36 269.35 128C267.17 128.7 264.91 129.4 263.11 129.94L262.51 127.58C262.91 127.48 263.35 127.36 263.83 127.24V113.68H270.93V122.74H266.11V126.64C266.83 126.44 267.59 126.22 268.35 126C268.01 125.38 267.63 124.76 267.25 124.22L269.27 123.36C270.33 124.82 271.39 126.72 271.87 128.02ZM274.87 120.54H276.27C276.63 119.12 276.89 117.58 277.09 115.88H274.87V120.54ZM278.41 129.4H279.11C279.41 129.4 279.49 129.04 279.55 126.7C279.99 127.06 280.93 127.44 281.53 127.58C281.33 130.66 280.81 131.48 279.35 131.48H278.01C276.27 131.48 275.87 130.8 275.87 128.74V127.36C274.63 129.18 273.01 130.66 270.93 131.8C270.55 131.36 269.55 130.46 268.97 130.06C272.27 128.5 274.31 126.1 275.57 122.78H271.43V120.54H272.67V115.88H271.73V113.66H280.95V115.88H279.53C279.31 117.56 279.05 119.1 278.71 120.54H281.25V122.78H278.09V128.72C278.09 129.32 278.13 129.4 278.41 129.4ZM296.27 122.64V121.36H289.05V122.64H296.27ZM289.05 125.92H296.27V124.62H289.05V125.92ZM300.83 117.7H290.13C289.89 118.24 289.63 118.76 289.33 119.28H298.59V129.16C298.59 130.34 298.37 130.98 297.55 131.34C296.77 131.72 295.63 131.74 294.01 131.74C293.91 131.08 293.59 130.08 293.29 129.44C294.31 129.5 295.47 129.5 295.81 129.5C296.15 129.48 296.27 129.38 296.27 129.1V127.9H289.05V131.72H286.69V123.02C285.89 123.9 285.03 124.7 284.05 125.36C283.71 124.84 282.95 123.98 282.49 123.54C284.61 122.12 286.27 120.02 287.47 117.7H283.09V115.46H288.47C288.79 114.64 289.05 113.84 289.25 113.04L291.71 113.6C291.51 114.22 291.31 114.84 291.07 115.46H300.83V117.7ZM315.43 118.82V116.12H308.43V118.82H315.43ZM317.85 113.84V121.08H306.13V113.84H317.85ZM308.61 125.02H305.63V128.46H308.61V125.02ZM303.39 131.74V122.74H310.99V131.64H308.61V130.74H305.63V131.74H303.39ZM314.97 128.46H318.15V125.02H314.97V128.46ZM312.69 122.74H320.55V131.66H318.15V130.74H314.97V131.74H312.69V122.74ZM325.75 120.32V121C325.75 121.5 325.75 122.06 325.73 122.62H329.51V131.76H327.39V124.62H325.65C325.49 127.1 325.15 129.76 324.43 131.78C323.95 131.54 323.03 131.22 322.45 131.08C323.53 128.2 323.71 123.8 323.71 121V113.58H325.75V118.3H327.01V113.08H329.07V118.3H330.37V120.32H325.75ZM332.83 121.08H334.43C334.55 120.62 334.61 120.16 334.63 119.72H332.83V121.08ZM332.83 116.7V118.06H334.65V116.7H332.83ZM338.45 118.06V116.7H336.65V118.06H338.45ZM338.45 121.08V119.72H336.65C336.63 120.16 336.59 120.62 336.51 121.08H338.45ZM341.13 125.82V127.8H338.51V131.76H336.29V127.8H330.05V125.82H331.81C331.45 125.46 330.93 125.02 330.59 124.8C331.95 124.26 332.85 123.6 333.45 122.88H330.73V114.92H333.87C334.13 114.28 334.37 113.58 334.49 113.04L337.11 113.48C336.83 113.98 336.55 114.46 336.27 114.92H340.63V122.88H335.91C335.33 123.98 334.35 125.02 332.71 125.82H336.29V123.28H338.51V125.82H341.13ZM347.31 122.1L347.35 122.06C347.87 122.62 349.61 124.98 349.99 125.56L348.49 127.4C348.25 126.76 347.79 125.78 347.31 124.88V131.68H345.19V125.92C344.67 127.34 344.09 128.64 343.45 129.56C343.23 128.84 342.69 127.78 342.35 127.1C343.33 125.86 344.29 123.72 344.89 121.9H342.69V119.68H345.19V118.82L343.57 119.2C343.53 118 343.13 116.1 342.67 114.7L344.21 114.3C344.71 115.64 345.09 117.38 345.19 118.6V113.16H347.31V118.26C347.67 117.04 348.01 115.4 348.19 114.2L350.07 114.6C349.59 116.16 349.05 118.02 348.57 119.16L347.31 118.82V119.68H349.21V121.9H347.31V122.1ZM353.01 127.18H357.81V126.2H353.01V127.18ZM357.81 123.68H353.01V124.66H357.81V123.68ZM360.05 122V129.6C360.05 130.58 359.85 131.1 359.15 131.4C358.49 131.7 357.55 131.74 356.27 131.72C356.19 131.16 355.91 130.38 355.65 129.84C356.39 129.88 357.23 129.88 357.47 129.86C357.73 129.86 357.81 129.78 357.81 129.56V128.72H353.01V131.76H350.81V122H360.05ZM356.43 119.46H361.19V121.18H349.75V119.46H354.19V118.6H350.79V117.02H354.19V116.22H350.31V114.52H354.19V113.1H356.43V114.52H360.69V116.22H356.43V117.02H360.25V118.6H356.43V119.46ZM376.67 124.12H378.61V122.34H376.67V124.12ZM372.47 124.12H374.39V122.34H372.47V124.12ZM374.39 118.6H372.47V120.32H374.39V118.6ZM378.61 118.6H376.67V120.32H378.61V118.6ZM376.67 116.48H380.85V126.94H378.61V126.24H376.67V131.72H374.39V126.24H372.47V127.02H370.33V124.06L369.21 125.58C368.87 125.1 368.27 124.38 367.69 123.74V131.74H365.35V125.1C364.69 125.74 364.01 126.3 363.33 126.76C363.13 126.12 362.59 124.94 362.23 124.5C364.21 123.28 366.13 121.18 367.31 118.9H362.97V116.76H365.35V113.08H367.69V116.76H368.51L368.93 116.66L370.23 117.5C369.73 118.94 369.01 120.32 368.19 121.6C368.79 122.06 369.79 122.94 370.33 123.42V116.46H374.39V113.1H376.67V116.48ZM385.81 132.76L385.17 131.14C386.73 130.64 387.63 129.78 387.75 128.72C387.69 128.74 387.61 128.74 387.53 128.74C386.53 128.74 385.63 128.1 385.63 126.96C385.63 125.84 386.53 125.16 387.59 125.16C389.01 125.16 389.75 126.22 389.75 127.9C389.75 130.18 388.29 132.02 385.81 132.76ZM416.73 126.4H413.85C414.23 126.98 414.73 127.5 415.33 127.94C415.89 127.5 416.35 127 416.73 126.4ZM418.15 124.76L419.45 125.18C418.95 126.74 418.15 127.98 417.15 128.94C418.15 129.36 419.33 129.66 420.65 129.82C420.17 130.28 419.57 131.14 419.25 131.74C417.75 131.44 416.43 130.94 415.31 130.28C414.11 130.96 412.73 131.42 411.19 131.74C410.97 131.22 410.55 130.46 410.19 130.02C411.45 129.8 412.61 129.48 413.63 129C412.97 128.36 412.41 127.6 411.97 126.76L413.27 126.4H411.35V124.82H417.79L418.15 124.76ZM419.19 115.16L420.91 116.38C420.17 117.02 419.35 117.66 418.63 118.18C419.47 118.62 420.41 118.96 421.41 119.22C420.91 119.68 420.31 120.56 419.99 121.1C419.19 120.84 418.43 120.52 417.73 120.16V122C417.73 122.26 417.73 122.42 417.77 122.48C417.81 122.54 417.89 122.56 417.99 122.56H418.33C418.43 122.56 418.55 122.56 418.59 122.54C418.67 122.5 418.75 122.44 418.79 122.3C418.83 122.14 418.85 121.8 418.87 121.38C419.21 121.7 419.97 122.08 420.53 122.26C420.45 122.78 420.37 123.3 420.23 123.54C420.07 123.82 419.81 124 419.49 124.1C419.23 124.2 418.81 124.24 418.53 124.24H417.51C417.03 124.24 416.51 124.12 416.19 123.8C415.85 123.46 415.73 123.08 415.73 121.96V120.8H413.93C413.87 122.2 413.39 123.7 411.73 124.76C411.49 124.42 410.91 123.8 410.49 123.44V124.32H408.39V124.08H406.35C406.27 124.52 406.19 124.94 406.09 125.36H410.53C410.53 125.36 410.51 125.92 410.49 126.2C410.27 129.08 410.03 130.4 409.49 130.94C409.05 131.42 408.59 131.56 407.89 131.62C407.31 131.68 406.29 131.68 405.23 131.64C405.17 131.02 404.93 130.18 404.55 129.64C405.55 129.72 406.55 129.74 406.97 129.74C407.31 129.74 407.51 129.72 407.71 129.56C407.97 129.32 408.13 128.6 408.27 127.08H405.69L405.57 127.56L403.67 127.26C404.03 125.94 404.47 123.92 404.71 122.32H408.39V120.92H405.09V120.78C404.63 121 404.17 121.18 403.69 121.36C403.39 120.86 402.83 120.06 402.41 119.62C403.57 119.28 404.71 118.76 405.75 118.1C405.21 117.7 404.51 117.24 403.91 116.9L405.25 115.64C405.93 115.98 406.77 116.46 407.35 116.9C407.79 116.5 408.19 116.06 408.53 115.62H404.59V113.76H409.81L410.21 113.66L411.67 114.38C410.85 116.32 409.53 117.88 407.93 119.1H410.49V123.12C411.77 122.3 411.95 121.3 411.95 120.42V119.02H412.85V119H415.91C414.11 117.62 412.71 115.78 411.73 113.6L413.63 113.06C413.95 113.74 414.33 114.4 414.79 115C415.45 114.44 416.19 113.74 416.65 113.18L418.35 114.4C417.55 115.06 416.69 115.76 415.95 116.3C416.29 116.62 416.65 116.92 417.03 117.2C417.79 116.6 418.67 115.78 419.19 115.16ZM431.07 126V128.78C432.09 128.64 433.17 128.5 434.23 128.34C433.69 127.66 433.21 126.88 432.83 126H431.07ZM432.07 122.64V124H435.05V122.64H432.07ZM432.07 119.34V120.66H435.05V119.34H432.07ZM426.97 115.92V117.32H437.55V115.92H426.97ZM438.21 126H435.07C435.39 126.5 435.75 126.94 436.17 127.36C436.87 126.94 437.63 126.44 438.21 126ZM438.91 126L440.33 126.96C439.51 127.54 438.57 128.1 437.73 128.54C438.71 129.12 439.89 129.54 441.25 129.8C440.77 130.26 440.15 131.14 439.85 131.76C437.57 131.2 435.85 130.18 434.55 128.72L434.63 130.34C432.03 130.76 429.25 131.14 427.17 131.46L426.85 129.3C427.45 129.24 428.15 129.16 428.89 129.06V126H426.83V124H429.89V122.64H427.37V120.66H429.89V119.34H426.97V119.82C426.97 123.32 426.65 128.52 424.55 131.8C424.07 131.42 423.03 130.8 422.43 130.58C424.41 127.5 424.57 123 424.57 119.82V113.92H439.97V119.34H437.25V120.66H440.13V122.64H437.25V124H441.01V126H438.91ZM446.85 120.26H457.01C454.93 118.74 453.01 116.92 451.85 115.3C450.71 116.92 448.93 118.72 446.85 120.26ZM453.11 126.74V129.12H460.51V131.26H443.49V129.12H450.63V126.74H445.09V124.66H450.63V122.36H446.11V120.78C445.39 121.28 444.65 121.74 443.89 122.16C443.59 121.6 442.93 120.74 442.39 120.24C445.81 118.52 449.03 115.44 450.51 113H452.97C455.11 116.04 458.37 118.66 461.53 120C460.91 120.64 460.39 121.4 459.95 122.14C459.23 121.74 458.51 121.3 457.79 120.8V122.36H453.11V124.66H458.71V126.74H453.11ZM106.02 146.98H103C103.34 147.66 103.6 148.58 103.68 149.18L102.68 149.46H106.6L105.28 149.18C105.54 148.58 105.86 147.66 106.02 146.98ZM105.76 154.96V155.12C106.48 155.62 108.14 156.94 108.6 157.3L107.22 159C106.9 158.6 106.34 158 105.76 157.44V161.7H103.46V157.68C102.68 158.8 101.78 159.8 100.92 160.5C100.56 159.98 99.88 159.2 99.38 158.82C100.68 157.96 102.06 156.46 102.98 154.96H99.94V152.96H103.46V151.42H99.88V149.46H101.72C101.64 148.8 101.4 147.94 101.12 147.26L102.34 146.98H100.1V145.04H103.46V143.22H105.76V145.04H109.08V146.98H107.02L108.18 147.2C107.82 148.06 107.5 148.86 107.22 149.46H109.24V151.42H105.76V152.96H109.06V154.96H105.76ZM118.32 149.64V151.84H116.42V161.62H114.12V151.84H112.08C112.06 154.82 111.64 159.04 109 161.78C108.7 161.26 107.84 160.44 107.3 160.16C109.6 157.72 109.84 154.32 109.84 151.56V144.64L111.22 145.02C113.12 144.56 115.1 143.92 116.32 143.26L118.22 145C116.46 145.78 114.18 146.4 112.08 146.84V149.64H118.32ZM122.68 157.58H125.86V153.66H122.68V157.58ZM125.86 151.6V148.36H122.68V151.6H125.86ZM132.22 146.14H137.84C137.84 146.14 137.84 146.94 137.82 147.22C137.56 156.16 137.34 159.34 136.52 160.4C135.96 161.14 135.4 161.36 134.6 161.5C133.84 161.6 132.64 161.58 131.46 161.54C131.42 160.88 131.1 159.88 130.68 159.22C131.96 159.34 133.14 159.34 133.66 159.34C134.06 159.34 134.28 159.26 134.54 159C135.12 158.36 135.38 155.36 135.6 148.3H131.32C130.8 149.5 130.18 150.6 129.56 151.46C129.24 151.16 128.56 150.7 128.02 150.34V159.68H122.68V161.14H120.52V146.28H122.78C123.04 145.28 123.28 144 123.36 143.06L125.96 143.42C125.62 144.42 125.26 145.42 124.92 146.28H128.02V149.52C129.18 147.84 130.14 145.42 130.72 143.08L133 143.6C132.78 144.46 132.52 145.3 132.22 146.14ZM134.52 155.26L132.5 156.5C131.94 155.3 130.7 153.34 129.72 151.88L131.58 150.82C132.58 152.2 133.9 154.1 134.52 155.26ZM152.5 148.82V146.12H145.5V148.82H152.5ZM154.92 143.84V151.08H143.2V143.84H154.92ZM145.68 155.02H142.7V158.46H145.68V155.02ZM140.46 161.74V152.74H148.06V161.64H145.68V160.74H142.7V161.74H140.46ZM152.04 158.46H155.22V155.02H152.04V158.46ZM149.76 152.74H157.62V161.66H155.22V160.74H152.04V161.74H149.76V152.74ZM162.82 150.32V151C162.82 151.5 162.82 152.06 162.8 152.62H166.58V161.76H164.46V154.62H162.72C162.56 157.1 162.22 159.76 161.5 161.78C161.02 161.54 160.1 161.22 159.52 161.08C160.6 158.2 160.78 153.8 160.78 151V143.58H162.82V148.3H164.08V143.08H166.14V148.3H167.44V150.32H162.82ZM169.9 151.08H171.5C171.62 150.62 171.68 150.16 171.7 149.72H169.9V151.08ZM169.9 146.7V148.06H171.72V146.7H169.9ZM175.52 148.06V146.7H173.72V148.06H175.52ZM175.52 151.08V149.72H173.72C173.7 150.16 173.66 150.62 173.58 151.08H175.52ZM178.2 155.82V157.8H175.58V161.76H173.36V157.8H167.12V155.82H168.88C168.52 155.46 168 155.02 167.66 154.8C169.02 154.26 169.92 153.6 170.52 152.88H167.8V144.92H170.94C171.2 144.28 171.44 143.58 171.56 143.04L174.18 143.48C173.9 143.98 173.62 144.46 173.34 144.92H177.7V152.88H172.98C172.4 153.98 171.42 155.02 169.78 155.82H173.36V153.28H175.58V155.82H178.2ZM183.34 143.1L185.54 143.78C185.1 145.04 184.58 146.32 183.98 147.58V161.76H181.72V151.52C181.28 152.14 180.84 152.72 180.38 153.24C180.2 152.66 179.62 151.26 179.26 150.66C180.92 148.84 182.44 145.98 183.34 143.1ZM192.76 155.78V153.68H190.72V155.78H192.76ZM195.04 150.32H192.62V152.04H194.54V157.4H189V152.04H190.78V150.32H188.48V148.6H190.78V146.56H192.62V148.6H195.04V150.32ZM187.98 158.5H195.5V146.14H187.98V158.5ZM185.82 144.08H197.76V161.54H195.5V160.56H187.98V161.72H185.82V144.08ZM213.52 158.84H218.24V161.1H205.8V158.84H211.14V154.84H207.28V152.62H211.14V149.34H208.94C208.64 150.38 208.24 151.34 207.82 152.1C207.34 151.8 206.26 151.26 205.7 151.02C205.9 150.66 206.1 150.28 206.3 149.86L205.16 150.38C205.04 149.78 204.74 148.9 204.4 148.08V161.74H202.02V147.44C201.9 149.12 201.58 151.32 201.12 152.74L199.36 152.1C199.84 150.78 200.2 148.54 200.34 146.9L202.02 147.14V143.06H204.4V146.84L205.56 146.36C205.96 147.14 206.38 148.1 206.66 148.88C207.16 147.42 207.52 145.7 207.72 144L210.04 144.32C209.9 145.26 209.74 146.2 209.54 147.1H211.14V143.18H213.52V147.1H217.6V149.34H213.52V152.62H217.18V154.84H213.52V158.84ZM222.88 162.76L222.24 161.14C223.8 160.64 224.7 159.78 224.82 158.72C224.76 158.74 224.68 158.74 224.6 158.74C223.6 158.74 222.7 158.1 222.7 156.96C222.7 155.84 223.6 155.16 224.66 155.16C226.08 155.16 226.82 156.22 226.82 157.9C226.82 160.18 225.36 162.02 222.88 162.76ZM251.36 150.22L249.02 151.46C248.52 150.08 247.24 147.98 246.04 146.5L248.2 145.42C249.5 146.88 250.76 148.84 251.36 150.22ZM247.7 153.76L248.24 156.1C245.6 157.28 242.64 158.54 240.38 159.48L239.58 156.94C240.34 156.68 241.24 156.36 242.24 155.96L241.84 144.28L244.32 144.18L244.68 155C245.68 154.58 246.7 154.16 247.7 153.76ZM258.56 159.74L256.52 161.72C255.76 160.42 254.26 158.58 252.78 156.9C251.32 158.98 249.34 160.58 246.7 161.76C246.36 161.24 245.38 160.16 244.8 159.66C251.14 157.26 253.2 152.42 253.94 144.2L256.56 144.44C256.14 148.54 255.42 151.88 254.12 154.6C255.78 156.32 257.64 158.34 258.56 159.74ZM263.1 157.94H274.94V152.56H271.08V146.36H266.98V152.56H263.1V157.94ZM273.44 150.34H277.34V161.28H274.94V160.16H263.1V161.42H260.74V150.34H264.7V144.16H273.44V150.34ZM295.66 150.12V148.92H292.22V150.12H295.66ZM295.66 153.02V151.8H292.22V153.02H295.66ZM295.66 155.94V154.7H292.22V155.94H295.66ZM290.28 147.12H292.52C292.58 146.7 292.64 146.28 292.68 145.86H289.86V143.86H298.06V145.86H295.02C294.9 146.3 294.78 146.72 294.66 147.12H297.68V157.72H290.28V147.12ZM283.28 149.96L283.4 150C282.94 150.76 282.46 151.6 282.04 152.3C282.22 152.46 282.4 152.62 282.56 152.78C282.94 152.2 283.26 151.62 283.52 151.12L284.56 151.64L284.9 151.08C285.06 151.18 285.22 151.28 285.38 151.4C285.6 150.92 285.82 150.42 286 149.96H283.28ZM282.54 147.6V148.52H287.14V147.6H282.54ZM282.54 145.32V146.24H287.14V145.32H282.54ZM284.92 155.38L285.14 155.36C285.44 155 285.78 154.58 286.1 154.14C285.68 153.68 285.08 153.12 284.5 152.68C283.84 153.56 283.14 154.48 282.5 155.28L283.52 155.24C283.42 154.94 283.34 154.64 283.24 154.38L284.44 153.94C284.62 154.38 284.78 154.88 284.92 155.38ZM279.8 157L279.68 155.36C280.02 155.36 280.38 155.34 280.78 155.34C281.06 154.98 281.36 154.58 281.66 154.16C281.1 153.58 280.32 152.86 279.62 152.36L280.4 151.06C280.56 151.16 280.72 151.28 280.9 151.4C281.12 150.92 281.34 150.42 281.52 149.96H280.56V143.88H289.22V149.96H287.78L287.9 150C287.44 150.76 286.96 151.6 286.52 152.3C286.72 152.46 286.9 152.62 287.06 152.78C287.44 152.18 287.8 151.58 288.06 151.06L289.64 151.84C288.8 152.94 287.8 154.24 286.9 155.28L288.08 155.22C287.96 154.9 287.84 154.58 287.72 154.3L289 153.78C289.46 154.74 289.9 155.96 290.04 156.78L288.68 157.34C288.64 157.16 288.6 156.96 288.54 156.74C287.3 156.86 286.08 156.96 285 157.04L284.98 156.88L283.94 157.26C283.92 157.12 283.9 156.94 283.88 156.78C282.42 156.88 281.02 156.94 279.8 157ZM281.06 161.7L279.46 160.82C280.12 159.98 280.58 158.64 280.78 157.4L282.46 157.96C282.22 159.28 281.84 160.78 281.06 161.7ZM282.82 157.96L284.32 157.74C284.56 158.8 284.7 160.12 284.72 160.98L283.12 161.24C283.12 160.36 283 159 282.82 157.96ZM284.94 157.84L286.36 157.48C286.72 158.42 287.04 159.62 287.16 160.4L285.66 160.82C285.56 160.02 285.26 158.8 284.94 157.84ZM286.96 157.58L288.32 157.06C288.8 157.82 289.3 158.82 289.52 159.46L288.08 160.08C287.88 159.4 287.42 158.36 286.96 157.58ZM291.94 157.9L293.82 159.02C292.92 160.04 291.46 161.16 290.24 161.78C289.9 161.38 289.22 160.76 288.74 160.38C289.92 159.82 291.26 158.74 291.94 157.9ZM294.34 159.04L296.02 157.98C296.88 158.72 298.02 159.82 298.58 160.56L296.8 161.76C296.28 161 295.2 159.86 294.34 159.04ZM314.56 153.26H317.04V161.72H314.56V160.58H303.48V161.74H301.06V153.26H303.48V158.24H307.66V152.2H301.86V144.94H304.22V149.88H307.66V143.26H310.1V149.88H313.74V144.94H316.24V152.2H310.1V158.24H314.56V153.26ZM334.58 157.06H333.88C334.3 157.88 334.7 158.88 334.9 159.66C335.02 159.6 335.1 159.52 335.2 159.38C335.5 158.94 335.66 157.04 335.78 151.72H328.22C327.86 152.18 327.48 152.6 327.1 152.96H329.64V152.02H331.44V152.96H334.58V157.06ZM331.44 158.2L332.58 158.1C332.48 157.86 332.36 157.64 332.26 157.42L333.44 157.06H331.44V158.2ZM331.44 154.44V155.62H332.74V154.44H331.44ZM328.34 155.62H329.64V154.44H328.34V155.62ZM328.28 145.54V147.06H329.54V145.54H328.28ZM331.2 145.54V147.06H332.48V145.54H331.2ZM334.12 145.54V147.06H335.44V145.54H334.12ZM329.46 149.84H338C338 149.84 337.98 150.52 337.98 150.8C337.84 157.56 337.68 160.02 337.16 160.76C336.76 161.32 336.38 161.52 335.84 161.62C335.36 161.72 334.66 161.72 333.88 161.7C333.86 161.32 333.76 160.86 333.64 160.42L333.34 160.52C333.3 160.3 333.24 160.04 333.16 159.78C330.6 160.06 327.98 160.36 326.04 160.58L325.82 158.64C326.86 158.58 328.2 158.46 329.64 158.34V157.06H326.58V153.38C326.3 153.1 325.8 152.68 325.34 152.36C325.38 152.88 325.38 153.4 325.38 153.92C325.38 156.74 325.2 159.54 324.3 160.78C324.02 161.18 323.6 161.46 323.1 161.56C322.38 161.74 321.6 161.76 320.76 161.72C320.76 160.96 320.58 160.12 320.18 159.44C321.02 159.5 321.64 159.5 322 159.46C322.26 159.42 322.44 159.32 322.6 159.12C322.98 158.64 323.14 156.68 323.16 154.44C322.44 155.38 321.66 156.24 320.94 156.88C320.58 156.3 319.94 155.52 319.4 155.08C320.7 154.22 322.14 152.6 323.02 151.06C322.94 150.38 322.82 149.72 322.64 149.08C322.12 149.62 321.58 150.1 321.04 150.54C320.68 150.06 319.94 149.36 319.44 149C320.22 148.42 320.98 147.68 321.7 146.86C321.2 146.02 320.56 145.2 319.7 144.4L321.34 143.14C322.02 143.76 322.6 144.4 323.08 145.04C323.48 144.44 323.82 143.84 324.12 143.24L326.2 144.28C325.66 145.28 325.02 146.26 324.3 147.18C324.92 148.62 325.2 150.12 325.32 151.68C326.22 150.9 327.02 149.9 327.6 148.84H326.28V143.8H337.56V148.84H329.96C329.82 149.18 329.64 149.52 329.46 149.84ZM353.76 152.7V150.9H346.66V149.08H345.34V152.14L347.18 151.62L347.34 152.7H353.76ZM358.3 150.9H356.1V152.7H358.12V154.9H356.1V159.08C356.1 160.28 355.9 160.92 355.1 161.3C354.28 161.66 353.16 161.7 351.66 161.7C351.58 161.02 351.26 160 350.94 159.34C351.94 159.38 353.02 159.38 353.34 159.38C353.68 159.36 353.76 159.3 353.76 159.04V154.9H349.58C350.46 155.78 351.5 157 351.98 157.88L350.08 159.1C349.68 158.24 348.66 156.92 347.8 155.96L349.52 154.9H347.1V153.84C346.52 154.02 345.92 154.22 345.34 154.4V161.74H343.16V155.06C342.08 155.38 341.06 155.68 340.16 155.94L339.6 153.66C340.58 153.44 341.82 153.12 343.16 152.76V149.08H341.82C341.62 150.04 341.36 150.9 341.08 151.62C340.72 151.32 339.86 150.78 339.4 150.54C340.04 148.94 340.36 146.46 340.54 144.1L342.52 144.42C342.44 145.22 342.34 146.02 342.22 146.82H343.16V143.08H345.34V146.82H347V148.7H351.4V147H347.86V144.84H351.4V143.06H353.76V144.84H357.44V147H353.76V148.7H358.3V150.9ZM362.68 157.58H365.86V153.66H362.68V157.58ZM365.86 151.6V148.36H362.68V151.6H365.86ZM372.22 146.14H377.84C377.84 146.14 377.84 146.94 377.82 147.22C377.56 156.16 377.34 159.34 376.52 160.4C375.96 161.14 375.4 161.36 374.6 161.5C373.84 161.6 372.64 161.58 371.46 161.54C371.42 160.88 371.1 159.88 370.68 159.22C371.96 159.34 373.14 159.34 373.66 159.34C374.06 159.34 374.28 159.26 374.54 159C375.12 158.36 375.38 155.36 375.6 148.3H371.32C370.8 149.5 370.18 150.6 369.56 151.46C369.24 151.16 368.56 150.7 368.02 150.34V159.68H362.68V161.14H360.52V146.28H362.78C363.04 145.28 363.28 144 363.36 143.06L365.96 143.42C365.62 144.42 365.26 145.42 364.92 146.28H368.02V149.52C369.18 147.84 370.14 145.42 370.72 143.08L373 143.6C372.78 144.46 372.52 145.3 372.22 146.14ZM374.52 155.26L372.5 156.5C371.94 155.3 370.7 153.34 369.72 151.88L371.58 150.82C372.58 152.2 373.9 154.1 374.52 155.26ZM392.5 148.82V146.12H385.5V148.82H392.5ZM394.92 143.84V151.08H383.2V143.84H394.92ZM385.68 155.02H382.7V158.46H385.68V155.02ZM380.46 161.74V152.74H388.06V161.64H385.68V160.74H382.7V161.74H380.46ZM392.04 158.46H395.22V155.02H392.04V158.46ZM389.76 152.74H397.62V161.66H395.22V160.74H392.04V161.74H389.76V152.74ZM402.82 150.32V151C402.82 151.5 402.82 152.06 402.8 152.62H406.58V161.76H404.46V154.62H402.72C402.56 157.1 402.22 159.76 401.5 161.78C401.02 161.54 400.1 161.22 399.52 161.08C400.6 158.2 400.78 153.8 400.78 151V143.58H402.82V148.3H404.08V143.08H406.14V148.3H407.44V150.32H402.82ZM409.9 151.08H411.5C411.62 150.62 411.68 150.16 411.7 149.72H409.9V151.08ZM409.9 146.7V148.06H411.72V146.7H409.9ZM415.52 148.06V146.7H413.72V148.06H415.52ZM415.52 151.08V149.72H413.72C413.7 150.16 413.66 150.62 413.58 151.08H415.52ZM418.2 155.82V157.8H415.58V161.76H413.36V157.8H407.12V155.82H408.88C408.52 155.46 408 155.02 407.66 154.8C409.02 154.26 409.92 153.6 410.52 152.88H407.8V144.92H410.94C411.2 144.28 411.44 143.58 411.56 143.04L414.18 143.48C413.9 143.98 413.62 144.46 413.34 144.92H417.7V152.88H412.98C412.4 153.98 411.42 155.02 409.78 155.82H413.36V153.28H415.58V155.82H418.2ZM426.04 151.16V152.24C427.02 152.98 429 154.68 429.54 155.1L428.16 157.14C427.68 156.52 426.84 155.62 426.04 154.8V161.7H423.74V154.54C422.84 156.36 421.78 158.08 420.68 159.24C420.44 158.54 419.86 157.52 419.48 156.92C420.92 155.52 422.38 153.24 423.28 151.16H419.94V148.98H423.74V146.5C422.6 146.72 421.46 146.9 420.38 147.04C420.28 146.52 419.98 145.68 419.7 145.18C422.58 144.76 425.8 144 427.74 143.12L429.42 144.96C428.42 145.36 427.26 145.7 426.04 146V148.98H429.48V151.16H426.04ZM432.74 145.48V156.66H430.42V145.48H432.74ZM435.14 143.44H437.5V158.84C437.5 160.22 437.22 160.88 436.4 161.26C435.58 161.66 434.24 161.74 432.42 161.72C432.32 161.04 431.96 159.94 431.6 159.26C432.9 159.32 434.18 159.32 434.6 159.32C434.98 159.3 435.14 159.18 435.14 158.82V143.44ZM444.14 153.68H453.96C452.6 152.42 451.4 150.9 450.46 149.28H447.44C446.54 150.9 445.4 152.4 444.14 153.68ZM451.86 159H453.3V155.68H451.86V159ZM446.06 159V155.68H444.64V159H446.06ZM449.68 159V155.68H448.24V159H449.68ZM457.84 149.28H453.08C454.46 151.2 456.48 152.94 458.56 153.92C458 154.36 457.28 155.24 456.92 155.84C456.44 155.58 455.98 155.28 455.52 154.96V159H458.1V161.1H439.9V159H442.54V155.12C442.14 155.44 441.74 155.72 441.32 156C440.94 155.52 440.02 154.6 439.48 154.18C441.52 153.06 443.36 151.32 444.64 149.28H440.2V147.18H444.9C444.44 146.24 443.72 145.02 443.04 144.12L445.08 143.2C445.94 144.28 446.86 145.7 447.3 146.66L446.26 147.18H451.82L450.62 146.78C451.38 145.76 452.26 144.2 452.74 143.06L455.28 143.8C454.52 145.02 453.68 146.28 452.96 147.18H457.84V149.28ZM467.48 154.86C467.06 151.72 471.3 151 471.3 149.06C471.3 147.86 470.34 147.18 468.78 147.18C467.54 147.18 466.56 147.72 465.58 148.76L463.94 147.24C465.2 145.76 466.96 144.8 469.1 144.8C472 144.8 474.12 146.14 474.12 148.8C474.12 151.74 469.76 152.08 470.06 154.86H467.48ZM468.78 160.18C467.76 160.18 467.02 159.46 467.02 158.42C467.02 157.36 467.78 156.64 468.78 156.64C469.8 156.64 470.54 157.36 470.54 158.42C470.54 159.46 469.8 160.18 468.78 160.18Z" fill="white"/>
<path d="M6.11461 232.527L4.91039 231.633L4.87663 231.678L4.8464 231.726L6.11461 232.527ZM83.9485 220.872L84.7815 219.625L84.6882 219.563L84.5867 219.515L83.9485 220.872ZM491 98.9492L492.386 98.375L491 98.9492ZM88.3124 61.3023L87.5912 59.9871L87.5635 60.0023L87.5365 60.0186L88.3124 61.3023ZM178.509 255.448L178.901 254L178.88 253.994L178.858 253.989L178.509 255.448ZM499.5 128.449L498.005 128.323L499.5 128.449ZM457.834 40.5078L458.741 39.3132L457.834 40.5078ZM93.4043 82.4332L92.3137 81.4034L93.4043 82.4332ZM43.2652 162.383C43.5586 163.158 44.4245 163.548 45.1992 163.254C45.9739 162.961 46.3641 162.095 46.0707 161.32L43.2652 162.383ZM49.2823 171.887L4.91039 231.633L7.31883 233.421L51.6907 173.675L49.2823 171.887ZM4.8464 231.726C3.41501 233.992 2.34995 235.925 1.6354 237.553C0.931712 239.156 0.515428 240.58 0.500423 241.795C0.484534 243.082 0.931728 244.261 2.04021 244.993C3.02855 245.646 4.28456 245.76 5.49072 245.677C7.92919 245.509 11.2608 244.441 15.0527 242.949C18.8915 241.437 23.3821 239.415 28.1965 237.221C37.8636 232.814 48.871 227.699 58.9587 224.377C63.9989 222.718 68.7504 221.527 72.9436 221.089C77.1547 220.649 80.6604 220.984 83.3102 222.23L84.5867 219.515C81.2358 217.939 77.104 217.638 72.6318 218.105C68.1417 218.574 63.1642 219.834 58.0206 221.528C47.7407 224.912 36.5618 230.11 26.9521 234.491C22.1281 236.69 17.7076 238.679 13.9538 240.157C10.1532 241.653 7.21065 242.551 5.28444 242.684C4.30827 242.751 3.8593 242.6 3.69393 242.49C3.64869 242.46 3.49342 242.381 3.50019 241.832C3.50785 241.212 3.73936 240.224 4.38249 238.758C5.01474 237.318 5.9955 235.525 7.38283 233.328L4.8464 231.726ZM83.1155 222.12C111.227 240.892 155.374 253.51 204.5 259.21C253.664 264.915 307.999 263.714 356.604 254.707C405.165 245.709 448.219 228.88 474.608 203.157C487.826 190.273 496.883 175.135 500.311 157.636C503.739 140.139 501.516 120.408 492.386 98.375L489.614 99.5234C498.565 121.124 500.66 140.251 497.367 157.059C494.075 173.863 485.372 188.476 472.513 201.009C446.75 226.123 404.388 242.802 356.057 251.757C307.771 260.705 253.738 261.904 204.846 256.23C155.915 250.552 112.317 238.013 84.7815 219.625L83.1155 222.12ZM492.386 98.375C473.941 53.8626 422.544 16.9073 351.01 4.75051C279.421 -7.41584 187.5 5.20257 87.5912 59.9871L89.0336 62.6175C188.434 8.11184 279.674 -4.32979 350.508 7.70811C421.399 19.7556 471.69 56.2688 489.614 99.5234L492.386 98.375ZM87.5365 60.0186C69.791 70.7455 52.094 84.8818 39.1471 100.957C26.2102 117.02 17.9019 135.167 19.2581 153.857C20.6182 172.602 31.6698 191.519 56.657 209.138C81.6204 226.74 120.607 243.139 178.16 256.907L178.858 253.989C121.481 240.263 82.9082 223.977 58.3858 206.686C33.8869 189.412 23.5262 171.226 22.2502 153.64C20.9701 135.998 28.8018 118.585 41.4835 102.839C54.1551 87.1054 71.5554 73.1844 89.0884 62.586L87.5365 60.0186ZM178.118 256.896C232.734 271.677 309.437 285.178 374.484 272.255C407.034 265.788 436.758 252.686 459.313 229.728C481.883 206.754 497.151 174.036 500.995 128.576L498.005 128.323C494.21 173.211 479.172 205.233 457.173 227.625C435.158 250.034 406.048 262.925 373.899 269.312C309.549 282.097 233.396 268.749 178.901 254L178.118 256.896ZM500.995 128.576C502.099 115.511 497.23 97.5482 489.338 80.7918C481.438 64.0193 470.357 48.1328 458.741 39.3132L456.927 41.7025C468.004 50.113 478.828 65.5187 486.624 82.0702C494.427 98.6377 499.045 116.03 498.005 128.323L500.995 128.576ZM458.741 39.3132C421.904 11.3425 353.2 -2.35965 282.455 2.95174C211.669 8.26625 138.348 32.6498 92.3137 81.4034L94.4949 83.463C139.823 35.4575 212.301 11.2272 282.68 5.94332C353.101 0.656264 420.931 14.371 456.927 41.7025L458.741 39.3132ZM92.3137 81.4034C84.7004 89.4664 70.4426 104.112 59.1025 119.392C53.4335 127.03 48.4431 134.892 45.3752 142.225C42.3265 149.512 41.0586 156.557 43.2652 162.383L46.0707 161.32C44.2762 156.582 45.1903 150.44 48.1427 143.383C51.0759 136.372 55.9055 128.733 61.5115 121.18C72.7211 106.076 86.8326 91.578 94.4949 83.463L92.3137 81.4034Z" fill="#2DE9F6"/>
</svg>
