<svg width="840" height="480" viewBox="0 0 840 480" fill="none" xmlns="http://www.w3.org/2000/svg">
<path fill-rule="evenodd" clip-rule="evenodd" d="M503.333 0H336.667H320V16.6667V183.333V200H336.667H503.333H520V183.333V16.6667V0H503.333ZM503.333 16.6667H336.667V183.333H503.333V16.6667Z" fill="#DCE0E5" fill-opacity="0.2"/>
<circle cx="420" cy="99.9998" r="82.9167" stroke="white" stroke-width="0.833333"/>
<rect x="345.417" y="25.4167" width="149.167" height="149.167" rx="7.91667" stroke="white" stroke-width="0.833333"/>
<rect x="353.75" y="17.0832" width="132.5" height="165.833" rx="7.91667" stroke="white" stroke-width="0.833333"/>
<rect x="337.083" y="33.7502" width="165.833" height="132.5" rx="7.91667" stroke="white" stroke-width="0.833333"/>
<path fill-rule="evenodd" clip-rule="evenodd" d="M414.542 48.2646C421.291 38.5531 433.324 33.1602 445.703 35.4707C462.533 38.6119 473.63 54.8019 470.489 71.6321C468.814 80.6066 463.429 87.951 456.214 92.3756C456.989 95.0283 457.604 97.7495 458.046 100.528C468.293 95.1769 476.068 85.3444 478.353 73.0999C482.305 51.9264 468.344 31.5583 447.171 27.6065C430.658 24.5246 414.635 32.3373 406.507 45.9694C409.252 46.5691 411.934 47.338 414.542 48.2646Z" fill="#DCE0E5"/>
<circle cx="392.196" cy="111.112" r="55.5556" fill="#17B6C9"/>
<path fill-rule="evenodd" clip-rule="evenodd" d="M396.325 76.5015H388.334V84.776C382.983 85.446 378.9 87.3365 376.108 90.0457C373.149 92.9174 371.712 96.6415 371.712 100.588C371.712 105.981 374.055 109.45 377.465 111.776C380.577 113.898 384.565 115.061 388.334 115.997V128.486C383.41 127.832 378.685 125.895 375.565 123.349L374.519 122.495L370.405 131.728L370.984 132.229C374.796 135.527 381.459 137.822 388.334 138.406V146.501H396.325V138.294C401.711 137.595 405.827 135.706 408.645 133.007C411.633 130.146 413.092 126.439 413.092 122.487C413.092 117.086 410.705 113.634 407.258 111.33C404.115 109.228 400.094 108.083 396.325 107.15V94.5412C399.676 95.0603 403.162 96.2145 406.479 98.1551L407.509 98.7572L411.241 89.5623L410.525 89.0982C406.685 86.6092 401.499 85.0186 396.325 84.5918V76.5015ZM383.1 100.155C383.1 98.8175 383.547 97.6484 384.511 96.7133C385.324 95.9254 386.559 95.2522 388.334 94.8299V105.036C386.865 104.539 385.657 103.988 384.768 103.315C383.678 102.491 383.1 101.512 383.1 100.155ZM396.325 128.256V118.099C397.864 118.606 399.128 119.176 400.054 119.877C401.179 120.729 401.776 121.744 401.776 123.137C401.776 124.417 401.327 125.523 400.337 126.418C399.488 127.185 398.192 127.84 396.325 128.256Z" fill="#2A3342"/>
<path d="M481.094 110.557V160.557" stroke="#DCE0E5" stroke-width="8"/>
<path d="M500 145L480 165L460 145" stroke="#DCE0E5" stroke-width="8"/>
<path fill-rule="evenodd" clip-rule="evenodd" d="M417.3 277.761C403.584 277.994 392.536 289.186 392.536 302.958C392.536 316.875 403.819 328.158 417.736 328.158C431.654 328.158 442.936 316.875 442.936 302.958C442.936 300.624 442.619 298.364 442.025 296.219H439.021C439.693 298.345 440.056 300.609 440.056 302.958C440.056 305.806 439.522 308.53 438.55 311.035H429.223C429.614 308.632 429.825 306.058 429.825 303.382C429.825 300.887 429.641 298.481 429.3 296.219H426.385C426.745 298.447 426.945 300.855 426.945 303.382C426.945 306.096 426.715 308.672 426.302 311.035H410.203C409.791 308.672 409.56 306.096 409.56 303.382C409.56 299.341 410.071 295.605 410.933 292.424H417.3V289.544H411.864C412.115 288.888 412.382 288.267 412.663 287.684C414.236 284.426 415.934 282.928 417.3 282.46V277.761ZM399.895 289.544C403.298 285.025 408.378 281.84 414.21 280.915C412.014 282.61 410.135 285.647 408.802 289.544H399.895ZM398.053 292.424H407.958C407.141 295.708 406.68 299.434 406.68 303.382C406.68 306.058 406.892 308.632 407.282 311.035H397.496H396.923C395.95 308.53 395.416 305.806 395.416 302.958C395.416 299.148 396.371 295.561 398.053 292.424ZM398.287 313.915H407.854C408.962 318.6 410.786 322.426 413.031 324.781C406.706 323.424 401.376 319.386 398.287 313.915ZM437.186 313.915C434.317 318.996 429.515 322.841 423.778 324.45C425.883 322.076 427.593 318.387 428.651 313.915H437.186ZM410.821 313.915H425.685C425.187 315.85 424.562 317.59 423.842 319.081C421.877 323.151 419.716 324.474 418.253 324.474C416.789 324.474 414.629 323.151 412.663 319.081C411.944 317.59 411.318 315.85 410.821 313.915Z" fill="#DCE0E5"/>
<path fill-rule="evenodd" clip-rule="evenodd" d="M421.096 272.903C420.9 273.288 420.9 273.792 420.9 274.8V288.84C420.9 289.848 420.9 290.352 421.096 290.737C421.269 291.076 421.544 291.351 421.883 291.524C422.268 291.72 422.772 291.72 423.78 291.72H431.7L435.3 297.12L438.9 291.72H446.82C447.828 291.72 448.332 291.72 448.717 291.524C449.056 291.351 449.331 291.076 449.504 290.737C449.7 290.352 449.7 289.848 449.7 288.84V274.8C449.7 273.792 449.7 273.288 449.504 272.903C449.331 272.564 449.056 272.289 448.717 272.116C448.332 271.92 447.828 271.92 446.82 271.92H423.78C422.772 271.92 422.268 271.92 421.883 272.116C421.544 272.289 421.269 272.564 421.096 272.903Z" fill="#17B6C9"/>
<path d="M435.3 276.653L436.609 279.305L436.818 279.73L437.287 279.798L440.214 280.223L438.096 282.288L437.757 282.618L437.837 283.084L438.337 285.999L435.719 284.623L435.3 284.403L434.881 284.623L432.263 285.999L432.763 283.084L432.843 282.618L432.505 282.288L430.387 280.223L433.313 279.798L433.782 279.73L433.991 279.305L435.3 276.653Z" fill="#2A3342" stroke="#2A3342" stroke-width="1.8"/>
<rect x="204.6" y="310.8" width="10.8" height="18" rx="1.8" stroke="#DCE0E5" stroke-width="2.88" stroke-linecap="square"/>
<rect x="222.6" y="303.6" width="10.8" height="25.2" rx="1.8" stroke="#DCE0E5" stroke-width="2.88" stroke-linecap="square"/>
<rect x="240.6" y="296.4" width="10.8" height="32.4" rx="1.8" stroke="#DCE0E5" stroke-width="2.88" stroke-linecap="square"/>
<path d="M203.859 289.765L202.624 290.506L204.106 292.976L205.341 292.235L203.859 289.765ZM219.6 282L220.25 280.715C219.809 280.492 219.283 280.511 218.859 280.765L219.6 282ZM231.958 288.25L231.308 289.535C231.793 289.78 232.375 289.732 232.812 289.409L231.958 288.25ZM249.6 275.25L251.033 275.39L251.156 274.134L249.927 273.848L249.6 275.25ZM240.284 271.598L238.882 271.27L238.228 274.075L239.63 274.402L240.284 271.598ZM247.144 285.61L247.005 287.044L249.871 287.323L250.011 285.89L247.144 285.61ZM205.341 292.235L220.341 283.235L218.859 280.765L203.859 289.765L205.341 292.235ZM218.95 283.285L231.308 289.535L232.608 286.965L220.25 280.715L218.95 283.285ZM232.812 289.409L250.454 276.409L248.746 274.091L231.104 287.091L232.812 289.409ZM249.927 273.848L240.284 271.598L239.63 274.402L249.273 276.652L249.927 273.848ZM248.167 275.11L247.144 285.61L250.011 285.89L251.033 275.39L248.167 275.11Z" fill="#17B6C9"/>
<path fill-rule="evenodd" clip-rule="evenodd" d="M628.107 452.483C637.236 451.939 644.571 444.392 644.778 434.998C644.995 425.112 637.234 416.923 627.443 416.707C617.652 416.492 609.539 424.333 609.322 434.219C609.319 434.367 609.317 434.515 609.317 434.663C618.836 435.941 626.302 443.25 628.107 452.483Z" fill="#17B6C9"/>
<path fill-rule="evenodd" clip-rule="evenodd" d="M624.213 428.322H620.871V431.922H625.666V433.422H620.871V437.022H625.666V442.226H629.566V437.022H634.071V433.422H629.566V431.922H634.071V428.322H630.727L634.841 424.2L630.915 424.2L627.47 427.345L624.026 424.2L620.1 424.2L624.213 428.322Z" fill="#2A3342"/>
<path d="M624 456.45C624 466.598 615.773 474.825 605.625 474.825C595.477 474.825 587.25 466.598 587.25 456.45C587.25 446.302 595.477 438.075 605.625 438.075C615.773 438.075 624 446.302 624 456.45Z" fill="#17B6C9"/>
<path fill-rule="evenodd" clip-rule="evenodd" d="M615.156 462.66L615.525 462.229L612.711 459.549L612.299 460.001C611.223 461.183 609.913 461.743 608.377 461.743C605.312 461.743 603.141 459.619 603.141 456.6C603.141 453.581 605.312 451.457 608.377 451.457C609.914 451.457 611.225 452.018 612.302 453.18L612.712 453.621L615.527 450.974L615.156 450.54C613.507 448.612 611.042 447.6 608.237 447.6C602.915 447.6 598.887 451.366 598.887 456.6C598.887 461.833 602.914 465.6 608.213 465.6C611.041 465.6 613.507 464.588 615.156 462.66ZM612.741 460.405C612.741 460.404 612.741 460.404 612.741 460.404L614.701 462.271C613.342 463.861 611.363 464.795 609.035 464.971C611.363 464.794 613.341 463.861 614.701 462.271L612.741 460.405ZM607.77 448.209C607.924 448.202 608.079 448.199 608.236 448.199C610.897 448.199 613.184 449.155 614.701 450.929L612.741 452.772C612.741 452.772 612.741 452.773 612.741 452.773L614.701 450.929C613.184 449.155 610.897 448.199 608.237 448.199C608.08 448.199 607.924 448.202 607.77 448.209ZM607.994 450.869C604.81 451.042 602.542 453.368 602.542 456.6C602.542 459.961 604.993 462.341 608.377 462.341C608.483 462.341 608.588 462.339 608.692 462.334C608.588 462.339 608.482 462.341 608.376 462.341C604.992 462.341 602.542 459.961 602.542 456.6C602.542 453.367 604.809 451.042 607.994 450.869Z" fill="#2A3342"/>
<rect x="595.8" y="452.989" width="13.473" height="2.91916" fill="#2A3342"/>
<rect x="595.8" y="457.48" width="13.473" height="2.91916" fill="#2A3342"/>
<path d="M582.92 439.359C584.137 432.499 591.302 418.8 606.602 417" stroke="#DCE0E5" stroke-width="2.88" stroke-linejoin="round"/>
<path d="M596.7 412.5L607.5 416.1L600.3 426" stroke="#DCE0E5" stroke-width="2.88" stroke-linejoin="round"/>
<path d="M201 421V462C201 463.656 202.343 465 204 465H238C239.657 465 241 463.656 241 462V427.786C241 427.28 240.809 426.794 240.464 426.424L232.291 417.637C231.913 417.231 231.382 417 230.827 417H205C202.791 417 201 418.79 201 421Z" stroke="#DCE0E5" stroke-width="2.88" stroke-linecap="round"/>
<path d="M206.597 435.602H222.797" stroke="#DCE0E5" stroke-width="2.88"/>
<path d="M206.597 443.604H215.597" stroke="#DCE0E5" stroke-width="2.88"/>
<path d="M229.8 417.897V427.597C229.8 428.702 230.695 429.597 231.8 429.597H241.5" stroke="#DCE0E5" stroke-width="2.88"/>
<circle cx="238.8" cy="456.597" r="16.2" fill="#17B6C9"/>
<path fill-rule="evenodd" clip-rule="evenodd" d="M240.032 447.239H237.821V449.529C236.34 449.714 235.211 450.237 234.438 450.987C233.62 451.781 233.222 452.812 233.222 453.904C233.222 455.396 233.87 456.356 234.814 456.999C235.675 457.586 236.778 457.908 237.821 458.167V461.623C236.459 461.442 235.151 460.906 234.288 460.201L233.999 459.965L232.86 462.52L233.021 462.658C234.075 463.571 235.919 464.206 237.821 464.368V466.607H240.032V464.336C241.522 464.143 242.661 463.62 243.441 462.874C244.267 462.082 244.671 461.056 244.671 459.963C244.671 458.468 244.011 457.513 243.057 456.876C242.187 456.294 241.075 455.977 240.032 455.719V452.231C240.959 452.374 241.924 452.694 242.842 453.231L243.126 453.397L244.159 450.853L243.961 450.725C242.899 450.036 241.464 449.596 240.032 449.478V447.239ZM236.373 453.784C236.373 453.414 236.496 453.09 236.763 452.832C236.988 452.614 237.33 452.427 237.821 452.31V455.134C237.415 454.997 237.08 454.844 236.834 454.658C236.533 454.43 236.373 454.159 236.373 453.784ZM240.032 461.559V458.749C240.458 458.889 240.808 459.047 241.064 459.241C241.375 459.476 241.54 459.757 241.54 460.143C241.54 460.497 241.416 460.803 241.142 461.051C240.907 461.263 240.549 461.444 240.032 461.559Z" fill="#2A3342"/>
<g clip-path="url(#clip0_239_4824)">
<path d="M421.8 462H400.2C399.206 462 398.4 461.194 398.4 460.2V426C398.4 425.006 399.206 424.2 400.2 424.2H441.6C442.594 424.2 443.4 425.006 443.4 426V438.6" stroke="#DCE0E5" stroke-width="2.88" stroke-linecap="square"/>
<line x1="399.84" y1="433.56" x2="441.96" y2="433.56" stroke="#DCE0E5" stroke-width="2.88" stroke-linecap="square"/>
<line x1="411.36" y1="427.26" x2="411.36" y2="420.24" stroke="#DCE0E5" stroke-width="2.88" stroke-linecap="square"/>
<line x1="429.36" y1="427.26" x2="429.36" y2="420.24" stroke="#DCE0E5" stroke-width="2.88" stroke-linecap="square"/>
<path d="M433.28 466.385L446.878 452.777C447.389 452.265 447.644 452.01 447.74 451.715C447.824 451.455 447.824 451.176 447.74 450.917C447.644 450.622 447.388 450.366 446.877 449.855L445.234 448.211C444.722 447.7 444.466 447.444 444.172 447.348C443.912 447.264 443.633 447.264 443.374 447.348C443.079 447.444 442.823 447.7 442.312 448.212L428.702 461.832C428.504 462.031 428.404 462.13 428.325 462.243C428.255 462.344 428.196 462.452 428.15 462.566C428.099 462.694 428.07 462.831 428.012 463.107L426.961 468.081L431.975 467.083L431.975 467.083C432.257 467.027 432.398 466.999 432.529 466.948C432.646 466.902 432.757 466.843 432.86 466.771C432.975 466.69 433.077 466.589 433.28 466.385Z" fill="#17B6C9" stroke="#17B6C9" stroke-width="1.73863" stroke-miterlimit="10" stroke-linejoin="round"/>
<rect width="9.03931" height="4.75194" rx="1.29138" transform="matrix(0.707097 0.707117 -0.707097 0.707117 448.948 439.599)" fill="#17B6C9"/>
</g>
<rect x="630" y="273" width="54" height="36" rx="4" transform="rotate(90 630 273)" stroke="#DCE0E5" stroke-width="2.88"/>
<path d="M598.177 303.461V291.323H602.846C603.744 291.323 604.508 291.499 605.14 291.851C605.772 292.198 606.253 292.682 606.585 293.303C606.92 293.919 607.087 294.63 607.087 295.436C607.087 296.243 606.918 296.954 606.579 297.57C606.24 298.187 605.749 298.667 605.105 299.01C604.466 299.354 603.692 299.526 602.782 299.526H599.806V297.469H602.378C602.859 297.469 603.256 297.384 603.568 297.215C603.884 297.041 604.119 296.802 604.273 296.497C604.431 296.189 604.51 295.836 604.51 295.436C604.51 295.033 604.431 294.682 604.273 294.381C604.119 294.077 603.884 293.842 603.568 293.676C603.252 293.506 602.852 293.421 602.366 293.421H600.679V303.461H598.177Z" fill="#17B6C9"/>
<path d="M610.959 303.633C610.393 303.633 609.888 303.533 609.445 303.331C609.002 303.126 608.652 302.823 608.393 302.424C608.139 302.021 608.012 301.519 608.012 300.919C608.012 300.413 608.103 299.988 608.284 299.645C608.465 299.301 608.711 299.024 609.023 298.815C609.335 298.605 609.69 298.447 610.087 298.341C610.487 298.234 610.907 298.159 611.346 298.115C611.863 298.06 612.279 298.009 612.595 297.961C612.91 297.91 613.14 297.835 613.282 297.736C613.425 297.637 613.496 297.491 613.496 297.297V297.262C613.496 296.887 613.38 296.596 613.149 296.391C612.922 296.185 612.598 296.082 612.178 296.082C611.735 296.082 611.383 296.183 611.121 296.385C610.859 296.582 610.686 296.831 610.601 297.132L608.324 296.942C608.44 296.389 608.667 295.911 609.006 295.508C609.345 295.101 609.782 294.788 610.318 294.571C610.857 294.35 611.481 294.239 612.19 294.239C612.683 294.239 613.155 294.299 613.606 294.417C614.06 294.536 614.463 294.719 614.814 294.968C615.168 295.217 615.447 295.537 615.651 295.928C615.856 296.316 615.958 296.78 615.958 297.321V303.461H613.623V302.199H613.554C613.411 302.483 613.221 302.734 612.982 302.952C612.743 303.165 612.456 303.333 612.121 303.455C611.786 303.574 611.398 303.633 610.959 303.633ZM611.664 301.891C612.026 301.891 612.346 301.818 612.623 301.671C612.901 301.521 613.118 301.32 613.276 301.067C613.434 300.814 613.513 300.528 613.513 300.208V299.241C613.436 299.293 613.33 299.34 613.195 299.384C613.065 299.423 612.916 299.461 612.751 299.496C612.585 299.528 612.419 299.558 612.254 299.585C612.088 299.609 611.938 299.631 611.803 299.65C611.514 299.694 611.262 299.763 611.046 299.858C610.83 299.953 610.663 300.081 610.543 300.243C610.424 300.401 610.364 300.599 610.364 300.836C610.364 301.18 610.485 301.442 610.728 301.624C610.975 301.802 611.287 301.891 611.664 301.891Z" fill="#17B6C9"/>
<path d="M619.07 306.875C618.757 306.875 618.465 306.85 618.191 306.798C617.921 306.751 617.698 306.69 617.521 306.614L618.076 304.73C618.365 304.821 618.625 304.87 618.856 304.878C619.091 304.886 619.293 304.83 619.462 304.712C619.636 304.593 619.776 304.392 619.884 304.107L620.029 303.722L616.845 294.358H619.434L621.271 301.043H621.364L623.219 294.358H625.825L622.375 304.445C622.209 304.935 621.984 305.362 621.699 305.725C621.418 306.093 621.061 306.375 620.63 306.573C620.198 306.774 619.678 306.875 619.07 306.875Z" fill="#17B6C9"/>
<rect x="604.8" y="278.4" width="14.4" height="3.6" rx="1.8" fill="#DCE0E5"/>
<path d="M594 316.2H630" stroke="#DCE0E5" stroke-width="2.88"/>
<defs>
<clipPath id="clip0_239_4824">
<rect width="72" height="72" fill="white" transform="translate(384 408)"/>
</clipPath>
</defs>
</svg>
