<svg width="80" height="118" viewBox="0 0 80 118" fill="none" xmlns="http://www.w3.org/2000/svg">
<g clip-path="url(#clip0_2827_11501)">
<path d="M40 80C62.0914 80 80 62.0914 80 40C80 17.9086 62.0914 0 40 0C17.9086 0 0 17.9086 0 40C0 62.0914 17.9086 80 40 80Z" fill="white"/>
<rect x="31" y="31" width="6" height="18" fill="#0C1C24"/>
<rect x="43" y="31" width="6" height="18" fill="#0C1C24"/>
</g>
<path d="M20.248 104.288C20.248 104.885 20.104 105.445 19.816 105.968C19.5387 106.491 19.096 106.912 18.488 107.232C17.8907 107.552 17.1333 107.712 16.216 107.712H14.344V112H12.104V100.832H16.216C17.08 100.832 17.816 100.981 18.424 101.28C19.032 101.579 19.4853 101.989 19.784 102.512C20.0933 103.035 20.248 103.627 20.248 104.288ZM16.12 105.904C16.7387 105.904 17.1973 105.765 17.496 105.488C17.7947 105.2 17.944 104.8 17.944 104.288C17.944 103.2 17.336 102.656 16.12 102.656H14.344V105.904H16.12ZM30.2864 109.872H25.8384L25.1024 112H22.7504L26.7664 100.816H29.3744L33.3904 112H31.0224L30.2864 109.872ZM29.6784 108.08L28.0624 103.408L26.4464 108.08H29.6784ZM38.6995 100.832V107.744C38.6995 108.501 38.8968 109.083 39.2915 109.488C39.6862 109.883 40.2408 110.08 40.9555 110.08C41.6808 110.08 42.2408 109.883 42.6355 109.488C43.0302 109.083 43.2275 108.501 43.2275 107.744V100.832H45.4835V107.728C45.4835 108.677 45.2755 109.483 44.8595 110.144C44.4542 110.795 43.9048 111.285 43.2115 111.616C42.5288 111.947 41.7662 112.112 40.9235 112.112C40.0915 112.112 39.3342 111.947 38.6515 111.616C37.9795 111.285 37.4462 110.795 37.0515 110.144C36.6568 109.483 36.4595 108.677 36.4595 107.728V100.832H38.6995ZM53.1037 112.112C52.3251 112.112 51.6211 111.979 50.9917 111.712C50.3731 111.445 49.8824 111.061 49.5197 110.56C49.1571 110.059 48.9704 109.467 48.9597 108.784H51.3597C51.3917 109.243 51.5517 109.605 51.8397 109.872C52.1384 110.139 52.5437 110.272 53.0557 110.272C53.5784 110.272 53.9891 110.149 54.2877 109.904C54.5864 109.648 54.7357 109.317 54.7357 108.912C54.7357 108.581 54.6344 108.309 54.4317 108.096C54.2291 107.883 53.9731 107.717 53.6637 107.6C53.3651 107.472 52.9491 107.333 52.4157 107.184C51.6904 106.971 51.0984 106.763 50.6397 106.56C50.1917 106.347 49.8024 106.032 49.4717 105.616C49.1517 105.189 48.9917 104.624 48.9917 103.92C48.9917 103.259 49.1571 102.683 49.4877 102.192C49.8184 101.701 50.2824 101.328 50.8797 101.072C51.4771 100.805 52.1597 100.672 52.9277 100.672C54.0797 100.672 55.0131 100.955 55.7277 101.52C56.4531 102.075 56.8531 102.853 56.9277 103.856H54.4637C54.4424 103.472 54.2771 103.157 53.9677 102.912C53.6691 102.656 53.2691 102.528 52.7677 102.528C52.3304 102.528 51.9784 102.64 51.7117 102.864C51.4557 103.088 51.3277 103.413 51.3277 103.84C51.3277 104.139 51.4237 104.389 51.6157 104.592C51.8184 104.784 52.0637 104.944 52.3517 105.072C52.6504 105.189 53.0664 105.328 53.5997 105.488C54.3251 105.701 54.9171 105.915 55.3757 106.128C55.8344 106.341 56.2291 106.661 56.5597 107.088C56.8904 107.515 57.0557 108.075 57.0557 108.768C57.0557 109.365 56.9011 109.92 56.5917 110.432C56.2824 110.944 55.8291 111.355 55.2317 111.664C54.6344 111.963 53.9251 112.112 53.1037 112.112ZM62.8378 102.64V105.44H66.5978V107.216H62.8378V110.176H67.0778V112H60.5978V100.816H67.0778V102.64H62.8378Z" fill="white"/>
<defs>
<clipPath id="clip0_2827_11501">
<rect width="80" height="80" fill="white"/>
</clipPath>
</defs>
</svg>
