<svg width="840" height="387" viewBox="0 0 840 387" fill="none" xmlns="http://www.w3.org/2000/svg">
<path fill-rule="evenodd" clip-rule="evenodd" d="M267.382 276.187L267.225 275.929L347.278 226.989L279.526 210.619C276.034 209.778 273.863 209.263 272.206 208.994C271.532 208.833 270.835 208.791 270.146 208.87C269.192 209.101 268.335 209.627 267.695 210.373C267.308 210.949 267.027 211.591 266.867 212.267C266.341 213.86 265.815 216.035 264.975 219.533L255.383 259.436C253.592 266.881 252.372 271.96 251.812 275.693C251.503 277.144 251.423 278.635 251.577 280.111C251.912 280.747 252.389 281.297 252.972 281.717C253.555 282.137 254.227 282.416 254.935 282.533C256.387 282.228 257.781 281.695 259.065 280.952C261.27 279.819 263.957 278.261 267.382 276.187ZM518.107 122.65L546.537 105.249L546.862 105.048C552.984 101.303 558.055 98.2196 562.084 96.2014C566.114 94.1833 570.647 92.4118 575.516 93.1854C578.647 93.6898 581.615 94.9276 584.179 96.7979C586.742 98.6682 588.829 101.118 590.269 103.949C592.507 108.31 592.16 113.311 591.511 117.639C590.862 121.966 589.452 127.886 587.773 134.86L587.683 135.241L557.719 259.694V259.918C557.361 261.409 556.992 262.945 556.6 264.235C556.055 266.014 555.165 267.667 553.981 269.101C552.069 271.337 549.498 272.907 546.638 273.586C544.824 273.989 542.948 274.027 541.12 273.698C539.777 273.496 538.243 273.126 536.754 272.756H536.531L368.892 232.214L281.463 285.751L281.138 285.952C275.015 289.697 269.945 292.78 265.916 294.799C261.886 296.817 257.353 298.588 252.484 297.815C249.353 297.31 246.385 296.072 243.821 294.202C241.258 292.332 239.171 289.882 237.731 287.051C235.493 282.678 235.84 277.689 236.489 273.361C237.161 268.877 238.548 263.114 240.227 256.129L240.317 255.759L249.921 215.9L249.988 215.62C250.738 212.48 251.409 209.689 252.159 207.413C252.93 204.811 254.212 202.39 255.931 200.293C258.691 197.064 262.402 194.795 266.531 193.813C269.175 193.236 271.907 193.194 274.568 193.689C276.929 194.059 279.717 194.743 282.851 195.494L283.13 195.562L365.959 215.575L518.107 122.583V122.65ZM540.034 257.62L387.551 220.789L554.63 118.502C561.155 114.499 565.599 111.775 568.979 110.104C570.261 109.365 571.651 108.831 573.098 108.523C573.806 108.638 574.478 108.915 575.06 109.333C575.643 109.751 576.121 110.299 576.456 110.934C576.61 112.41 576.531 113.9 576.221 115.351C575.662 119.085 574.442 124.164 572.651 131.609L542.732 256.073C542.519 256.925 542.362 257.597 542.217 258.169L540.034 257.62Z" fill="#17B6C9"/>
<rect x="60.5" y="41.5" width="719" height="309" stroke="#48556C"/>
<path d="M61 92H779" stroke="#48556C"/>
<path d="M62 298H780" stroke="#48556C"/>
<path d="M236 40.999V350" stroke="#48556C"/>
<path d="M597 41V350.001" stroke="#48556C"/>
<path d="M549 298L609 41" stroke="#EDEFED" stroke-dasharray="6 6"/>
<path d="M231 298L291 41" stroke="#EDEFED" stroke-dasharray="6 6"/>
</svg>
