<svg width="337" height="268" viewBox="0 0 337 268" fill="none" xmlns="http://www.w3.org/2000/svg">
<path d="M8.432 44.9157H11.876V41.7357H8.432V44.9157ZM4.076 44.9157H7.508V41.7357H4.076V44.9157ZM8.432 40.8597H12.788V46.4757H11.876V45.7917H8.432V49.6797H7.508V45.7917H4.076V46.5357H3.2V40.8597H7.508V38.7237H8.432V40.8597ZM20.936 40.4997L19.964 40.8117C19.82 40.3197 19.436 39.5157 19.076 38.9277L20 38.6637C20.36 39.2277 20.768 39.9957 20.936 40.4997ZM22.508 41.7117H17.42C18.044 43.2357 18.908 44.6037 20.036 45.7317C21.104 44.6517 21.908 43.3317 22.508 41.7117ZM25.4 41.7117H23.516C22.832 43.6077 21.908 45.1197 20.708 46.3557C22.028 47.4717 23.648 48.3237 25.556 48.7917C25.34 48.9957 25.088 49.3677 24.944 49.6197C22.988 49.0677 21.356 48.1917 20.024 46.9917C18.68 48.1677 17.024 49.0317 15.032 49.6677C14.924 49.4517 14.66 49.0437 14.48 48.8397C16.46 48.2757 18.068 47.4597 19.376 46.3557C18.14 45.0837 17.192 43.5237 16.496 41.7117H14.648V40.8357H25.4V41.7117ZM34.4 40.8237V40.0197H33.32V40.8237H34.4ZM36.248 41.5077H35.072V42.9357H36.248V41.5077ZM33.32 41.5077V42.9357H34.4V41.5077H33.32ZM31.568 41.5077V42.9357H32.636V41.5077H31.568ZM32.636 40.8237V40.0197H30.548V39.2877H37.244V40.0197H35.072V40.8237H37.04V43.6197H30.824V40.8237H32.636ZM36.476 44.9637H31.34V44.2557H36.476V44.9637ZM30.632 44.6277L30.092 45.2637C29.936 44.8797 29.552 44.1597 29.228 43.5597V49.6797H28.412V43.6317C28.004 44.9997 27.464 46.3557 26.9 47.1957C26.804 46.9317 26.576 46.5477 26.42 46.3317C27.164 45.3477 27.92 43.4517 28.28 41.8677H26.732V41.0277H28.412V38.7237H29.228V41.0277H30.548V41.8677H29.228V42.4797C29.528 42.8757 30.44 44.2917 30.632 44.6277ZM31.772 46.9317L32.564 47.1597C32.12 47.9757 31.436 48.8037 30.812 49.3437C30.656 49.2117 30.332 48.9837 30.116 48.8757C30.776 48.3837 31.388 47.6517 31.772 46.9317ZM37.292 46.5237H34.244V49.6797H33.44V46.5237H30.572V45.7917H37.292V46.5237ZM35.096 47.2917L35.744 46.9197C36.368 47.5317 37.052 48.3357 37.376 48.8877L36.68 49.3077C36.368 48.7437 35.708 47.9037 35.096 47.2917ZM45.344 41.6037V40.7157H43.172V41.6037H45.344ZM45.344 43.0917V42.2037H43.172V43.0917H45.344ZM45.344 44.6277V43.7037H43.172V44.6277H45.344ZM42.308 45.8757V41.6277C42.068 41.8917 41.852 42.1317 41.612 42.3357C41.444 42.1797 41.108 41.9037 40.892 41.7717C41.852 41.0157 42.728 39.8517 43.256 38.6637L44.096 38.9157C43.916 39.2877 43.712 39.6597 43.496 40.0197H45.44C45.308 39.6957 45.128 39.3237 44.96 39.0237L45.812 38.7837C46.04 39.1677 46.28 39.6597 46.424 40.0197H48.848V40.7157H46.184V41.6037H48.452V42.2037H46.184V43.0917H48.488V43.7037H46.184V44.6277H49.028V45.3597H43.172V45.8757H42.308ZM39.476 45.9117L38.852 45.2277C39.488 44.6517 40.424 43.6797 41.192 42.7797L41.672 43.3677C41 44.2077 40.196 45.1437 39.476 45.9117ZM41.792 39.7077L41.324 40.3917C40.892 40.0917 40.076 39.6717 39.416 39.4077L39.86 38.7957C40.52 39.0237 41.36 39.4077 41.792 39.7077ZM40.868 41.6637L40.412 42.3477C40.004 42.0717 39.164 41.6757 38.516 41.4357L38.972 40.8237C39.596 41.0277 40.436 41.3877 40.868 41.6637ZM49.376 46.5357V47.3517H44.42V49.7037H43.52V47.3517H38.672V46.5357H43.52V45.6717H44.42V46.5357H49.376ZM51.872 40.8357V42.4317H50.996V39.9837H55.724C55.556 39.6357 55.328 39.2397 55.1 38.9277L55.952 38.6397C56.264 39.0477 56.588 39.5757 56.756 39.9837H60.992V42.4317H60.08V40.8357H51.872ZM61.112 45.1557V46.0077H56.456V48.5877C56.456 49.1157 56.324 49.3797 55.904 49.5117C55.484 49.6557 54.86 49.6677 53.864 49.6677C53.792 49.4157 53.612 49.0197 53.456 48.7917C54.272 48.8157 55.04 48.8157 55.244 48.8037C55.472 48.7917 55.532 48.7437 55.532 48.5757V46.0077H50.852V45.1557H55.532V44.4117C56.228 44.0757 57.02 43.5357 57.62 43.0077H52.82V42.1677H58.52L58.712 42.1197L59.324 42.5757C58.568 43.3557 57.5 44.1597 56.456 44.7117V45.1557H61.112Z" fill="#A2AAA4"/>
<path d="M12.57 68.6676V67.1555H9.588V68.6676H12.57ZM12.57 71.2716V69.7315H9.588V71.2716H12.57ZM5.262 69.7315V71.2716H8.328V69.7315H5.262ZM5.262 67.1555V68.6676H8.328V67.1555H5.262ZM13.858 66.0216V72.4056H4.03V66.0216H13.858ZM11.086 74.4356L10.162 75.3316C9.588 74.7156 8.37 73.8616 7.348 73.3156L8.202 72.5036C9.224 73.0076 10.456 73.8196 11.086 74.4356ZM3.834 77.5156L2.672 76.8716C3.344 76.0316 3.862 74.7156 4.17 73.5956L5.332 74.0296C4.996 75.1636 4.506 76.5916 3.834 77.5156ZM8.202 76.8016H10.582C11.226 76.8016 11.324 76.5776 11.408 75.0936C11.688 75.3036 12.248 75.4996 12.598 75.5836C12.43 77.5156 12.038 77.9776 10.68 77.9776H8.076C6.438 77.9776 6.018 77.6136 6.018 76.3396V73.7916H7.334V76.3396C7.334 76.7316 7.474 76.8016 8.202 76.8016ZM12.276 73.9596L13.438 73.4696C14.222 74.5196 15.048 75.9056 15.342 76.8716L14.082 77.4036C13.816 76.4656 13.046 75.0376 12.276 73.9596ZM20.298 66.9595L19.5 67.9955C18.982 67.5895 17.946 66.9316 17.204 66.4696L17.974 65.5455C18.688 65.9516 19.752 66.5675 20.298 66.9595ZM19.626 70.6136L18.842 71.6496C18.324 71.2716 17.288 70.6276 16.532 70.1936L17.288 69.2695C18.016 69.6476 19.066 70.2356 19.626 70.6136ZM18.828 72.8675L19.864 73.5956C19.318 75.0656 18.604 76.7456 17.96 78.0756L16.784 77.3616C17.372 76.2696 18.212 74.4776 18.828 72.8675ZM21.978 67.2815V69.9275C21.978 72.3636 21.726 75.9056 20.088 78.2156C19.864 78.0056 19.304 77.6696 18.996 77.5296C20.564 75.3456 20.704 72.1956 20.704 69.9275V66.1055H29.272V67.2815H21.978ZM23.028 74.2816L24.19 74.6036C23.742 75.6116 23.07 76.7456 22.496 77.4456C22.258 77.2776 21.754 76.9696 21.46 76.8156C22.062 76.1576 22.664 75.1776 23.028 74.2816ZM23.812 71.6075V72.6296H27.592V71.6075H23.812ZM23.812 69.6755V70.6836H27.592V69.6755H23.812ZM28.81 73.5956H26.248V76.9696C26.248 77.5576 26.15 77.8796 25.73 78.0476C25.324 78.2436 24.708 78.2576 23.798 78.2436C23.756 77.9216 23.588 77.4456 23.462 77.1236C24.05 77.1516 24.624 77.1376 24.792 77.1376C24.96 77.1376 25.016 77.0816 25.016 76.9276V73.5956H22.65V68.6955H24.652C24.792 68.2615 24.946 67.7435 25.03 67.3655L26.486 67.6316C26.304 68.0095 26.108 68.3595 25.94 68.6955H28.81V73.5956ZM26.948 74.5756L28.068 74.1556C28.586 74.9956 29.244 76.1296 29.552 76.8156L28.362 77.3336C28.068 76.6336 27.452 75.4576 26.948 74.5756ZM38.918 69.6755L38.106 69.3535C38.428 68.7795 38.834 67.8695 39.044 67.2396L40.038 67.6035C39.674 68.3315 39.268 69.1435 38.918 69.6755ZM33.976 67.5615L34.816 67.2675C35.208 67.8835 35.558 68.6955 35.67 69.2416L34.788 69.5776C34.69 69.0455 34.354 68.1915 33.976 67.5615ZM33.402 69.8296H36.328V66.9735H33.402V69.8296ZM40.5 69.8296V66.9735H37.63V69.8296H40.5ZM43.188 73.9036V75.0516H30.826V73.9036H36.328V72.8816H31.946V71.8456H36.328V70.9076H32.17V65.9095H41.816V70.9076H37.63V71.8456H42.054V72.8816H37.63V73.9036H43.188ZM32.016 78.2996L30.784 77.7536C31.386 77.2356 31.96 76.2976 32.296 75.4296L33.556 75.7516C33.22 76.6616 32.66 77.6696 32.016 78.2996ZM34.69 75.8636L35.908 75.7656C36.076 76.4936 36.202 77.4456 36.202 78.0196L34.914 78.1736C34.914 77.5996 34.844 76.6196 34.69 75.8636ZM37.518 75.9056L38.75 75.6536C39.058 76.3536 39.394 77.2916 39.506 77.8796L38.218 78.1876C38.106 77.5996 37.812 76.6336 37.518 75.9056ZM40.304 75.8356L41.508 75.4296C42.152 76.1576 42.936 77.1376 43.3 77.8096L42.012 78.2996C41.69 77.6416 40.948 76.5916 40.304 75.8356ZM55.956 68.1775V67.3375H55.004V68.1775H55.956ZM55.956 69.8715V69.0175H55.004V69.8715H55.956ZM51.546 69.0175V69.8715H52.47V69.0175H51.546ZM51.546 67.3375V68.1775H52.47V67.3375H51.546ZM54.178 69.0175H53.296V69.8715H54.178V69.0175ZM53.296 68.1775H54.178V67.3375H53.296V68.1775ZM56.978 66.4555V70.7675H50.552V66.4555H52.274V65.4195H53.296V66.4555H54.136V65.4195H55.172V66.4555H56.978ZM57.314 71.3835L57.3 72.3495H50.3V71.3835H57.314ZM46.478 73.3716V74.0576C46.478 74.5196 46.464 75.0236 46.408 75.5416C46.968 75.3176 47.682 74.9536 48.438 74.5756V72.3356H46.478V73.3016L46.996 72.7556C47.528 73.0915 48.13 73.5256 48.424 73.8336L47.836 74.5056C47.542 74.1976 46.954 73.6936 46.478 73.3716ZM46.324 66.8335V69.7736H47.038V67.5756H48.494V66.8335H46.324ZM47.752 69.7736H48.494V68.3595H47.752V69.7736ZM49.152 71.4395V70.6836H45.694V71.4395H49.152ZM50.146 71.8315H49.53V77.0396C49.53 77.5576 49.432 77.8236 49.096 78.0056C48.76 78.1736 48.27 78.1876 47.514 78.1876C47.458 77.8936 47.304 77.4736 47.164 77.2076C47.668 77.2216 48.102 77.2216 48.256 77.2076C48.396 77.2076 48.438 77.1656 48.438 77.0256V75.4296C47.864 75.7936 47.304 76.1296 46.786 76.4516L46.394 75.6676C46.268 76.6056 46.044 77.5716 45.54 78.3136C45.358 78.1036 44.882 77.7676 44.63 77.6556C45.344 76.5916 45.414 75.1636 45.414 74.0436V71.8315H44.728V69.7736H45.302V65.8675H49.572V69.7736H50.146V71.8315ZM54.934 75.5696H52.54C52.764 76.0316 53.002 76.6056 53.142 77.0256H54.374C54.584 76.5636 54.808 75.9756 54.934 75.5696ZM52.05 73.7636V74.7436H55.466V73.7636H52.05ZM55.452 77.0256H57.44V78.0056H50.146V77.0256H51.994C51.868 76.6476 51.714 76.2136 51.56 75.8496L52.498 75.5696H50.916V72.9236H56.684V75.5696H55.046L56.11 75.8636C55.872 76.2556 55.662 76.6616 55.452 77.0256Z" fill="white"/>
<path d="M156.4 31.06H155.22C154.6 31.9 153.96 32.66 153.3 33.26H157.22C156.76 32.76 156.14 32.16 155.66 31.72L156.4 31.06ZM158.2 35.3V34.64H155.04V35.3H158.2ZM155.04 37.26H158.2V36.58H155.04V37.26ZM160.34 38.62H155.04V46.72H152.9V33.26H153.1C152.74 32.84 152.02 32.1 151.62 31.74C152.82 30.8 153.96 29.34 154.62 27.88L156.72 28.5C156.6 28.74 156.48 29 156.34 29.24H160.76V31.06H157.76C158.28 31.5 158.8 32 159.1 32.34L158.1 33.26H160.34V38.62ZM162.08 33.26H166.02C165.54 32.76 164.86 32.18 164.34 31.78L165.2 31.04H163.78C163.24 31.9 162.66 32.66 162.08 33.26ZM163.66 35.3H166.9V34.64H163.66V35.3ZM163.66 37.26H166.9V36.58H163.66V37.26ZM159.36 43.68H162.66V42.82H159.36V43.68ZM162.66 40.7H159.36V41.54H162.66V40.7ZM170.18 29.24V31.04H166.56C167.1 31.48 167.66 31.94 168 32.3L166.9 33.26H169.12V44.34C169.12 45.44 168.9 46.02 168.18 46.34C167.48 46.7 166.42 46.74 164.94 46.72C164.88 46.22 164.66 45.54 164.44 44.98H159.36V45.68H157.22V39.38H164.76V44.66C165.52 44.7 166.26 44.68 166.5 44.68C166.8 44.68 166.9 44.6 166.9 44.3V38.62H161.52V33.26H162C161.58 32.88 160.74 32.2 160.26 31.92C161.38 30.94 162.34 29.42 162.86 27.88L165.02 28.42C164.92 28.7 164.82 28.96 164.7 29.24H170.18ZM186.6 31.42V30.26H183.74V31.42H186.6ZM188.82 28.84V32.84H181.64V28.84H188.82ZM178.2 31.42V30.26H175.4V31.42H178.2ZM180.42 28.84V32.84H173.28V28.84H180.42ZM176.32 39.3H179.7V38.22H176.32V39.3ZM176.32 35.46V36.52H179.7V35.46H176.32ZM185.74 36.52V35.46H182.14V36.52H185.74ZM185.74 39.3V38.22H182.14V39.3H185.74ZM189.92 42.16V44.2H182.14V46.74H179.7V44.2H172.1V42.16H179.7V41.12H174V33.62H188.18V41.12H182.14V42.16H189.92ZM202.28 43.84H210.04V46.18H192.06V43.84H199.78V39.82H194.36V37.52H199.78V34H195.64C195.06 35.1 194.44 36.12 193.78 36.9C193.3 36.52 192.24 35.8 191.64 35.48C193.2 33.8 194.5 31.04 195.18 28.32L197.64 28.86C197.36 29.82 197.04 30.76 196.7 31.68H199.78V28.08H202.28V31.68H209.02V34H202.28V37.52H208.26V39.82H202.28V43.84ZM217.76 30.32L216.34 32.24C215.56 31.64 213.86 30.7 212.7 30.04L214.04 28.32C215.16 28.88 216.9 29.76 217.76 30.32ZM216.8 35.72L215.48 37.7C214.66 37.12 212.94 36.18 211.76 35.54L213.04 33.78C214.14 34.32 215.92 35.18 216.8 35.72ZM214.04 46.52L212.04 44.9C213.1 43.4 214.64 40.92 215.84 38.6L217.58 40.2C216.52 42.3 215.26 44.58 214.04 46.52ZM227.02 43.76V40.82H221.02V43.76H227.02ZM230.28 36.14H225.2V38.66H229.28V46.64H227.02V45.92H221.02V46.74H218.86V38.66H222.94V36.14H217.62V33.86H222.94V31.52C221.64 31.72 220.3 31.86 219.06 31.98C218.96 31.4 218.64 30.48 218.36 29.94C221.76 29.6 225.52 28.94 227.72 28.06L229.54 29.94C228.26 30.42 226.76 30.82 225.2 31.12V33.86H230.28V36.14ZM163.92 73.88L163.88 73.96C164.22 75.7 164.68 77.34 165.3 78.78C165.88 77.36 166.28 75.74 166.54 73.88H163.92ZM170.38 73.88H168.88C168.46 76.78 167.76 79.24 166.68 81.26C167.68 82.7 168.96 83.82 170.62 84.58C170.08 85.06 169.34 85.98 168.98 86.62C167.46 85.82 166.24 84.74 165.24 83.4C164.14 84.76 162.76 85.88 161 86.78C160.8 86.26 160.12 85.2 159.68 84.7C161.52 83.86 162.92 82.72 163.96 81.28C163.34 80.04 162.88 78.66 162.46 77.16C162.12 77.78 161.76 78.3 161.36 78.8C161.08 78.42 160.48 77.76 159.96 77.26C159.86 82.82 159.76 84.98 159.26 85.66C158.86 86.22 158.5 86.42 157.92 86.54C157.4 86.62 156.62 86.64 155.78 86.62C155.72 85.96 155.5 85.06 155.16 84.46C155.8 84.5 156.38 84.52 156.7 84.52C156.94 84.52 157.1 84.46 157.26 84.22C157.52 83.78 157.64 82.1 157.72 77.42H156.04C156.02 80.58 155.58 83.9 153.1 86.64C152.72 86.12 151.94 85.48 151.36 85.08C153.5 82.6 153.8 79.74 153.8 77.16V73.3H151.84V71.1H155.7C155.54 70.34 155.18 69.3 154.88 68.5L156.98 68C157.34 68.82 157.74 69.92 157.94 70.62L156.3 71.1H160.66V73.3H156.04V75.26H160C160 75.26 160 75.94 159.98 76.22V76.38C161.44 74.36 162.36 71.28 162.84 68.06L165.26 68.44C165.08 69.54 164.86 70.64 164.58 71.68H170.38V73.88ZM189.88 75.88H182.84C184.16 79.78 186.58 82.92 190.32 84.44C189.72 84.94 188.94 86 188.56 86.68C184.94 84.98 182.62 82.06 181.06 78.2C179.98 81.54 177.82 84.66 173.58 86.7C173.2 86.04 172.5 85.18 171.8 84.68C176.38 82.64 178.28 79.32 179.06 75.88H172.18V73.42H179.46C179.66 71.54 179.64 69.72 179.66 68.08H182.26C182.24 69.72 182.22 71.56 182.02 73.42H189.88V75.88ZM195.78 68.14L198.04 68.84C197.52 70.22 196.88 71.62 196.14 72.94V86.7H193.86V76.48C193.42 77.08 192.96 77.62 192.52 78.1C192.3 77.5 191.64 76.2 191.24 75.62C193.04 73.82 194.78 70.98 195.78 68.14ZM199.48 76.96L201.8 77.44C201.22 79.98 200.2 82.5 199.08 84.12C198.62 83.74 197.62 83.14 197.04 82.84C198.18 81.44 199.02 79.18 199.48 76.96ZM207.8 73.84H205.12V84.08C205.12 85.22 204.92 85.88 204.2 86.28C203.5 86.66 202.54 86.76 201.26 86.76C201.16 86.06 200.8 85 200.44 84.36C201.28 84.38 202.12 84.38 202.4 84.38C202.66 84.38 202.76 84.3 202.76 84.04V73.84H200.44C199.88 75 199.22 76.06 198.56 76.9C198.14 76.48 197.18 75.7 196.64 75.34C198.16 73.64 199.36 70.88 200.04 68.14L202.36 68.66C202.1 69.68 201.78 70.66 201.42 71.64H208.3L208.68 71.56L210.36 71.88C210.12 73.5 209.78 75.36 209.5 76.52L207.48 76.18C207.58 75.56 207.7 74.72 207.8 73.84ZM205.84 77.48L207.96 76.76C209 78.82 209.86 81.48 210.14 83.28L207.86 84.06C207.64 82.28 206.8 79.54 205.84 77.48ZM214.68 82.58H217.86V78.66H214.68V82.58ZM217.86 76.6V73.36H214.68V76.6H217.86ZM224.22 71.14H229.84C229.84 71.14 229.84 71.94 229.82 72.22C229.56 81.16 229.34 84.34 228.52 85.4C227.96 86.14 227.4 86.36 226.6 86.5C225.84 86.6 224.64 86.58 223.46 86.54C223.42 85.88 223.1 84.88 222.68 84.22C223.96 84.34 225.14 84.34 225.66 84.34C226.06 84.34 226.28 84.26 226.54 84C227.12 83.36 227.38 80.36 227.6 73.3H223.32C222.8 74.5 222.18 75.6 221.56 76.46C221.24 76.16 220.56 75.7 220.02 75.34V84.68H214.68V86.14H212.52V71.28H214.78C215.04 70.28 215.28 69 215.36 68.06L217.96 68.42C217.62 69.42 217.26 70.42 216.92 71.28H220.02V74.52C221.18 72.84 222.14 70.42 222.72 68.08L225 68.6C224.78 69.46 224.52 70.3 224.22 71.14ZM226.52 80.26L224.5 81.5C223.94 80.3 222.7 78.34 221.72 76.88L223.58 75.82C224.58 77.2 225.9 79.1 226.52 80.26ZM237.8 72.54V70.72H234.96V72.54H237.8ZM237.8 76.16V74.3H234.96V76.16H237.8ZM237.8 79.78V77.92H234.96V79.78H237.8ZM240.12 68.84V81.68H232.72V68.84H240.12ZM233.96 81.84L236.22 82.4C235.58 84.06 234.46 85.74 233.36 86.76C232.94 86.36 232 85.72 231.46 85.42C232.52 84.54 233.46 83.18 233.96 81.84ZM236.66 82.64L238.58 81.8C239.46 82.78 240.36 84.08 240.78 85L238.78 86.02C238.4 85.08 237.5 83.68 236.66 82.64ZM250.36 72.76V74.96H248.2V84.04C248.2 85.24 247.96 85.88 247.28 86.26C246.58 86.64 245.6 86.76 244.14 86.76C244.04 86.1 243.68 85.06 243.34 84.42C244.26 84.46 245.14 84.46 245.44 84.46C245.74 84.44 245.86 84.34 245.86 84.04V77.94C244.68 80.22 243.22 82.22 241.64 83.6C241.24 83.06 240.52 82.26 240.02 81.86C242.02 80.36 243.88 77.68 245.04 74.96H240.64V72.76H245.86V68.12H248.2V72.76H250.36ZM259.76 81.06H255.8V82.04H259.76V81.06ZM266.18 82.04V81.06H262.08V82.04H266.18ZM262.08 84.5H266.18V83.52H262.08V84.5ZM255.8 84.5H259.76V83.52H255.8V84.5ZM253.54 86.78V79.34H268.54V86.74H266.18V86.22H255.8V86.78H253.54ZM257.18 76.1V77.08H264.58V76.1H257.18ZM255 78.6V74.54H266.9V78.6H255ZM255.5 72.24H266.44V73.84H255.5V72.24ZM262.58 69.46H269.56V73.82H267.18V71.46H254.76V73.82H252.5V69.46H259.7C259.54 69.06 259.36 68.64 259.22 68.3L261.8 67.8C262.08 68.32 262.38 68.94 262.58 69.46Z" fill="white"/>
<path d="M10.076 127.713V126.549H8.276V125.769H10.076V124.581H10.964V125.769H13.136V126.549H10.964V127.713H10.076ZM5.168 127.737V126.561H2.936V125.781H5.168V124.581H6.044V125.781H7.688V126.561H6.044V127.737H5.168ZM8.168 132.969L8.6 132.345C10.196 132.993 12.32 134.049 13.376 134.781L12.932 135.525C11.888 134.781 9.8 133.677 8.168 132.969ZM8.384 129.057V130.413C8.384 130.677 8.372 130.953 8.336 131.229H11.228V129.057H8.384ZM4.82 131.229H7.448C7.484 130.953 7.496 130.677 7.496 130.413V129.057H4.82V131.229ZM12.116 131.229H13.388V132.057H8.168C7.724 133.473 6.452 134.721 3.032 135.549C2.936 135.357 2.696 135.009 2.504 134.817C5.564 134.133 6.752 133.149 7.232 132.057H2.612V131.229H3.956V128.265H7.496V127.101H8.384V128.265H12.116V131.229ZM20.036 134.685L20.012 134.709C21.116 134.109 21.932 133.329 22.496 132.297C22.112 131.361 21.836 130.293 21.608 129.129C21.404 129.633 21.188 130.077 20.948 130.461C20.84 130.341 20.588 130.125 20.408 129.969V131.085H17.696C17.576 131.337 17.444 131.589 17.312 131.853H18.824V131.769V131.373H19.556V131.781V131.853H20.756V132.501H19.484C19.388 132.993 19.136 133.509 18.584 133.989C19.136 134.229 19.652 134.481 20.036 134.685ZM18.728 132.501H16.94C16.784 132.753 16.64 132.993 16.496 133.221C16.928 133.353 17.384 133.509 17.828 133.689C18.356 133.305 18.608 132.885 18.728 132.501ZM15.872 129.717V130.509H17.36V129.717H15.872ZM19.616 129.717H18.068V130.509H19.616V129.717ZM23.768 127.737H22.124L22.064 127.881C22.256 129.165 22.532 130.353 22.94 131.397C23.348 130.365 23.612 129.165 23.768 127.737ZM16.088 128.001H17.36V127.233H16.088V128.001ZM17.36 125.973H16.088V126.633H17.36V125.973ZM19.436 125.973H18.068V126.633H19.436V125.973ZM18.068 128.001H19.436V127.233H18.068V128.001ZM25.472 127.737H24.56C24.344 129.585 23.96 131.097 23.348 132.333C23.888 133.413 24.62 134.277 25.568 134.793C25.388 134.949 25.124 135.249 24.992 135.477C24.116 134.937 23.432 134.121 22.892 133.125C22.232 134.133 21.344 134.925 20.156 135.549C20.084 135.393 19.892 135.129 19.748 134.949L19.46 135.213C19.064 134.985 18.524 134.709 17.924 134.469C17.24 134.865 16.256 135.225 14.864 135.525C14.804 135.345 14.624 135.081 14.48 134.925C15.62 134.697 16.472 134.421 17.096 134.121C16.532 133.905 15.944 133.701 15.392 133.557C15.62 133.269 15.872 132.885 16.124 132.501H14.576V131.853H16.496C16.64 131.589 16.76 131.337 16.88 131.085H15.104V129.153H17.36V128.625H15.392V127.269H14.564V126.597H15.392V125.349H17.36V124.569H18.068V125.349H20.168V126.597H20.852V127.269H20.168V128.625H18.068V129.153H20.408V129.789C21.2 128.481 21.764 126.525 22.1 124.569L22.88 124.725C22.736 125.457 22.556 126.213 22.364 126.933H25.472V127.737ZM34.4 126.669V125.865H33.32V126.669H34.4ZM36.248 127.353H35.072V128.781H36.248V127.353ZM33.32 127.353V128.781H34.4V127.353H33.32ZM31.568 127.353V128.781H32.636V127.353H31.568ZM32.636 126.669V125.865H30.548V125.133H37.244V125.865H35.072V126.669H37.04V129.465H30.824V126.669H32.636ZM36.476 130.809H31.34V130.101H36.476V130.809ZM30.632 130.473L30.092 131.109C29.936 130.725 29.552 130.005 29.228 129.405V135.525H28.412V129.477C28.004 130.845 27.464 132.201 26.9 133.041C26.804 132.777 26.576 132.393 26.42 132.177C27.164 131.193 27.92 129.297 28.28 127.713H26.732V126.873H28.412V124.569H29.228V126.873H30.548V127.713H29.228V128.325C29.528 128.721 30.44 130.137 30.632 130.473ZM31.772 132.777L32.564 133.005C32.12 133.821 31.436 134.649 30.812 135.189C30.656 135.057 30.332 134.829 30.116 134.721C30.776 134.229 31.388 133.497 31.772 132.777ZM37.292 132.369H34.244V135.525H33.44V132.369H30.572V131.637H37.292V132.369ZM35.096 133.137L35.744 132.765C36.368 133.377 37.052 134.181 37.376 134.733L36.68 135.153C36.368 134.589 35.708 133.749 35.096 133.137ZM45.344 127.449V126.561H43.172V127.449H45.344ZM45.344 128.937V128.049H43.172V128.937H45.344ZM45.344 130.473V129.549H43.172V130.473H45.344ZM42.308 131.721V127.473C42.068 127.737 41.852 127.977 41.612 128.181C41.444 128.025 41.108 127.749 40.892 127.617C41.852 126.861 42.728 125.697 43.256 124.509L44.096 124.761C43.916 125.133 43.712 125.505 43.496 125.865H45.44C45.308 125.541 45.128 125.169 44.96 124.869L45.812 124.629C46.04 125.013 46.28 125.505 46.424 125.865H48.848V126.561H46.184V127.449H48.452V128.049H46.184V128.937H48.488V129.549H46.184V130.473H49.028V131.205H43.172V131.721H42.308ZM39.476 131.757L38.852 131.073C39.488 130.497 40.424 129.525 41.192 128.625L41.672 129.213C41 130.053 40.196 130.989 39.476 131.757ZM41.792 125.553L41.324 126.237C40.892 125.937 40.076 125.517 39.416 125.253L39.86 124.641C40.52 124.869 41.36 125.253 41.792 125.553ZM40.868 127.509L40.412 128.193C40.004 127.917 39.164 127.521 38.516 127.281L38.972 126.669C39.596 126.873 40.436 127.233 40.868 127.509ZM49.376 132.381V133.197H44.42V135.549H43.52V133.197H38.672V132.381H43.52V131.517H44.42V132.381H49.376ZM51.872 126.681V128.277H50.996V125.829H55.724C55.556 125.481 55.328 125.085 55.1 124.773L55.952 124.485C56.264 124.893 56.588 125.421 56.756 125.829H60.992V128.277H60.08V126.681H51.872ZM61.112 131.001V131.853H56.456V134.433C56.456 134.961 56.324 135.225 55.904 135.357C55.484 135.501 54.86 135.513 53.864 135.513C53.792 135.261 53.612 134.865 53.456 134.637C54.272 134.661 55.04 134.661 55.244 134.649C55.472 134.637 55.532 134.589 55.532 134.421V131.853H50.852V131.001H55.532V130.257C56.228 129.921 57.02 129.381 57.62 128.853H52.82V128.013H58.52L58.712 127.965L59.324 128.421C58.568 129.201 57.5 130.005 56.456 130.557V131.001H61.112Z" fill="#A2AAA4"/>
<path d="M14.208 160.997H12.08L12.066 155.117L9.182 159.961H8.16L5.29 155.243V160.997H3.162V151.197H5.038L8.706 157.287L12.318 151.197H14.18L14.208 160.997ZM19.9631 161.109C17.5691 161.109 15.8191 159.499 15.8191 157.231C15.8191 154.963 17.5691 153.353 19.9631 153.353C22.3571 153.353 24.0931 154.963 24.0931 157.231C24.0931 159.499 22.3571 161.109 19.9631 161.109ZM19.9631 159.317C21.0551 159.317 21.8811 158.533 21.8811 157.231C21.8811 155.929 21.0551 155.145 19.9631 155.145C18.8711 155.145 18.0311 155.929 18.0311 157.231C18.0311 158.533 18.8711 159.317 19.9631 159.317ZM30.1309 153.353C31.9089 153.353 33.2529 154.389 33.2529 156.685V160.997H31.0689V157.021C31.0689 155.803 30.5089 155.243 29.5429 155.243C28.4929 155.243 27.7369 155.887 27.7369 157.273V160.997H25.5529V153.465H27.6389V154.347C28.2269 153.703 29.1089 153.353 30.1309 153.353ZM39.5026 159.093L40.0906 160.633C39.6426 160.955 38.9846 161.109 38.3126 161.109C36.5346 161.109 35.4986 160.199 35.4986 158.407V155.313H34.3366V153.633H35.4986V151.799H37.6826V153.633H39.5586V155.313H37.6826V158.379C37.6826 159.023 38.0326 159.373 38.6206 159.373C38.9426 159.373 39.2646 159.275 39.5026 159.093ZM43.8506 161.109C42.5766 161.109 41.2886 160.759 40.5886 160.297L41.3166 158.729C41.9886 159.163 43.0106 159.457 43.9346 159.457C44.9426 159.457 45.3206 159.191 45.3206 158.771C45.3206 157.539 40.7706 158.799 40.7706 155.789C40.7706 154.361 42.0586 153.353 44.2566 153.353C45.2926 153.353 46.4406 153.591 47.1546 154.011L46.4266 155.565C45.6846 155.145 44.9426 155.005 44.2566 155.005C43.2766 155.005 42.8566 155.313 42.8566 155.705C42.8566 156.993 47.4066 155.747 47.4066 158.715C47.4066 160.115 46.1046 161.109 43.8506 161.109ZM56.1321 157.259C56.1321 157.427 56.1041 157.665 56.0901 157.847H50.3921C50.6021 158.785 51.4001 159.359 52.5481 159.359C53.3461 159.359 53.9201 159.121 54.4381 158.631L55.6001 159.891C54.9001 160.689 53.8501 161.109 52.4921 161.109C49.8881 161.109 48.1941 159.471 48.1941 157.231C48.1941 154.977 49.9161 153.353 52.2121 153.353C54.4241 153.353 56.1321 154.837 56.1321 157.259ZM52.2261 155.005C51.2321 155.005 50.5181 155.607 50.3641 156.573H54.0741C53.9201 155.621 53.2061 155.005 52.2261 155.005ZM59.6721 154.459C60.2041 153.731 61.1001 153.353 62.2621 153.353V155.369C62.0801 155.355 61.9401 155.341 61.7721 155.341C60.5681 155.341 59.7701 155.999 59.7701 157.441V160.997H57.5861V153.465H59.6721V154.459ZM65.6467 154.459C66.1787 153.731 67.0747 153.353 68.2367 153.353V155.369C68.0547 155.355 67.9147 155.341 67.7467 155.341C66.5427 155.341 65.7447 155.999 65.7447 157.441V160.997H63.5607V153.465H65.6467V154.459ZM72.5323 153.353C74.8283 153.353 76.1583 154.417 76.1583 156.699V160.997H74.1143V160.059C73.7083 160.745 72.9243 161.109 71.8183 161.109C70.0543 161.109 69.0043 160.129 69.0043 158.827C69.0043 157.497 69.9423 156.573 72.2383 156.573H73.9743C73.9743 155.635 73.4143 155.089 72.2383 155.089C71.4403 155.089 70.6143 155.355 70.0683 155.789L69.2843 154.263C70.1103 153.675 71.3283 153.353 72.5323 153.353ZM72.3643 159.639C73.0923 159.639 73.7223 159.303 73.9743 158.617V157.847H72.4763C71.4543 157.847 71.1323 158.225 71.1323 158.729C71.1323 159.275 71.5943 159.639 72.3643 159.639ZM82.405 159.093L82.993 160.633C82.545 160.955 81.887 161.109 81.215 161.109C79.437 161.109 78.401 160.199 78.401 158.407V155.313H77.239V153.633H78.401V151.799H80.585V153.633H82.461V155.313H80.585V158.379C80.585 159.023 80.935 159.373 81.523 159.373C81.845 159.373 82.167 159.275 82.405 159.093Z" fill="white"/>
<path d="M162.908 146L161.792 143.3H155.942L154.826 146H151.838L157.454 133.4H160.334L165.968 146H162.908ZM156.878 141.086H160.874L158.876 136.262L156.878 141.086ZM167.077 146V132.644H169.885V146H167.077ZM172.491 146V132.644H175.299V146H172.491ZM184.407 134.966C183.363 134.966 182.661 134.282 182.661 133.4C182.661 132.518 183.363 131.834 184.407 131.834C185.451 131.834 186.153 132.482 186.153 133.346C186.153 134.282 185.451 134.966 184.407 134.966ZM183.003 146V136.316H185.811V146H183.003ZM194.303 136.172C196.589 136.172 198.317 137.504 198.317 140.456V146H195.509V140.888C195.509 139.322 194.789 138.602 193.547 138.602C192.197 138.602 191.225 139.43 191.225 141.212V146H188.417V136.316H191.099V137.45C191.855 136.622 192.989 136.172 194.303 136.172ZM217.318 146H214.186L211.756 142.49H211.612H209.074V146H206.158V133.4H211.612C214.978 133.4 217.084 135.146 217.084 137.972C217.084 139.862 216.13 141.248 214.492 141.95L217.318 146ZM214.132 137.972C214.132 136.586 213.232 135.776 211.45 135.776H209.074V140.168H211.45C213.232 140.168 214.132 139.34 214.132 137.972ZM220.6 134.966C219.556 134.966 218.854 134.282 218.854 133.4C218.854 132.518 219.556 131.834 220.6 131.834C221.644 131.834 222.346 132.482 222.346 133.346C222.346 134.282 221.644 134.966 220.6 134.966ZM219.196 146V136.316H222.004V146H219.196ZM229.29 146.144C226.14 146.144 223.89 144.074 223.89 141.158C223.89 138.242 226.14 136.172 229.29 136.172C231.324 136.172 232.926 137.054 233.628 138.638L231.45 139.808C230.928 138.89 230.154 138.476 229.272 138.476C227.85 138.476 226.734 139.466 226.734 141.158C226.734 142.85 227.85 143.84 229.272 143.84C230.154 143.84 230.928 143.444 231.45 142.508L233.628 143.696C232.926 145.244 231.324 146.144 229.29 146.144ZM241.061 136.172C243.347 136.172 245.075 137.504 245.075 140.456V146H242.267V140.888C242.267 139.322 241.547 138.602 240.305 138.602C238.955 138.602 237.983 139.43 237.983 141.212V146H235.175V132.644H237.983V137.324C238.739 136.568 239.819 136.172 241.061 136.172ZM251.526 136.172C254.478 136.172 256.188 137.54 256.188 140.474V146H253.56V144.794C253.038 145.676 252.03 146.144 250.608 146.144C248.34 146.144 246.99 144.884 246.99 143.21C246.99 141.5 248.196 140.312 251.148 140.312H253.38C253.38 139.106 252.66 138.404 251.148 138.404C250.122 138.404 249.06 138.746 248.358 139.304L247.35 137.342C248.412 136.586 249.978 136.172 251.526 136.172ZM251.31 144.254C252.246 144.254 253.056 143.822 253.38 142.94V141.95H251.454C250.14 141.95 249.726 142.436 249.726 143.084C249.726 143.786 250.32 144.254 251.31 144.254ZM261.412 137.594C262.096 136.658 263.248 136.172 264.742 136.172V138.764C264.508 138.746 264.328 138.728 264.112 138.728C262.564 138.728 261.538 139.574 261.538 141.428V146H258.73V136.316H261.412V137.594ZM272.235 143.552L272.991 145.532C272.415 145.946 271.569 146.144 270.705 146.144C268.419 146.144 267.087 144.974 267.087 142.67V138.692H265.593V136.532H267.087V134.174H269.895V136.532H272.307V138.692H269.895V142.634C269.895 143.462 270.345 143.912 271.101 143.912C271.515 143.912 271.929 143.786 272.235 143.552Z" fill="white"/>
<path d="M13.388 210.897V211.773H8.468V214.437C8.468 215.073 8.276 215.337 7.832 215.481C7.388 215.625 6.62 215.649 5.36 215.637C5.288 215.385 5.12 214.989 4.976 214.749C5.984 214.785 6.92 214.773 7.196 214.761C7.46 214.761 7.568 214.677 7.568 214.425V211.773H2.636V210.897H7.568V208.953H3.44V208.101H7.568V206.253C6.248 206.397 4.892 206.481 3.656 206.541C3.62 206.301 3.512 205.953 3.428 205.749C6.26 205.617 9.74 205.305 11.54 204.741L12.212 205.449C11.192 205.761 9.884 205.989 8.468 206.157V208.101H12.716V208.953H8.468V210.897H13.388ZM16.808 215.373L16.088 215.025C16.568 214.485 16.976 213.585 17.204 212.901L17.912 213.189C17.66 213.897 17.288 214.797 16.808 215.373ZM18.428 213.081L19.124 212.997C19.364 213.657 19.556 214.533 19.556 215.073L18.824 215.181C18.836 214.629 18.656 213.753 18.428 213.081ZM19.928 213.081L20.576 212.901C20.948 213.465 21.284 214.221 21.392 214.713L20.708 214.929C20.6 214.437 20.288 213.657 19.928 213.081ZM18.14 211.797H24.728C24.728 211.797 24.716 212.049 24.704 212.169C24.572 214.209 24.44 215.037 24.14 215.337C23.948 215.565 23.72 215.637 23.396 215.649C23.096 215.685 22.52 215.673 21.932 215.637C21.908 215.397 21.824 215.073 21.68 214.857C22.268 214.905 22.808 214.917 23.012 214.905C23.216 214.917 23.324 214.905 23.42 214.809C23.588 214.617 23.708 214.017 23.816 212.529H17.36C16.676 213.093 15.884 213.561 15.092 213.921C14.984 213.741 14.72 213.381 14.564 213.213C15.788 212.733 17.024 211.965 17.78 211.029H16.364V207.645C17.348 207.441 18.488 207.141 19.16 206.865L19.712 207.429C18.992 207.705 18.044 207.933 17.168 208.113V208.917H19.496V209.553H17.168V210.369H22.808V209.553H20.528V208.917H22.808V208.125H20.324V207.465H23.624V211.029H18.764C18.584 211.293 18.38 211.557 18.14 211.797ZM23.072 214.089L22.448 214.413C22.268 214.017 21.836 213.453 21.44 213.057L22.028 212.781C22.436 213.153 22.892 213.705 23.072 214.089ZM20.552 205.701H25.076V207.801H24.224V206.481H15.764V207.801H14.936V205.701H19.52C19.4 205.425 19.256 205.161 19.124 204.921L20.012 204.669C20.204 204.981 20.408 205.377 20.552 205.701ZM33.62 209.133V207.153H31.04V206.373H33.62V204.717H34.496V206.373H37.184V207.153H34.496V209.133H36.944V209.901H31.304V209.133H33.62ZM29.684 208.617H28.388C28.256 209.613 27.884 210.357 26.936 210.825C26.84 210.633 26.612 210.369 26.432 210.249C27.152 209.913 27.452 209.361 27.572 208.617H26.708V207.897H29.684V207.189H27.272V204.921H28.052V206.445H29.684V204.717H30.524V210.597H29.684V208.617ZM36.044 212.001L36.704 212.469C36.068 212.913 35.276 213.345 34.58 213.681C35.408 214.257 36.416 214.665 37.556 214.905C37.376 215.073 37.136 215.409 37.04 215.625C34.688 215.049 32.924 213.741 31.94 211.797H31.904C31.4 212.205 30.764 212.589 30.056 212.925V214.617L32.864 214.041C32.84 214.257 32.828 214.569 32.828 214.749C29.588 215.493 29.204 215.601 28.964 215.733C28.904 215.541 28.736 215.193 28.604 215.025C28.832 214.929 29.18 214.665 29.18 214.137V213.297C28.448 213.585 27.692 213.813 26.984 213.957C26.888 213.765 26.66 213.465 26.492 213.297C27.944 213.021 29.576 212.481 30.704 211.797H26.66V211.089H31.652C31.532 210.837 31.388 210.549 31.256 210.321L32.108 210.069C32.312 210.381 32.516 210.765 32.66 211.089H37.352V211.797H32.804C33.116 212.325 33.512 212.805 34.004 213.237C34.7 212.877 35.528 212.385 36.044 212.001ZM43.1 206.421L42.692 207.105C42.308 206.781 41.6 206.289 40.976 205.893C40.364 206.709 39.608 207.441 38.84 207.969C38.78 207.789 38.564 207.369 38.432 207.189C39.38 206.589 40.364 205.641 40.904 204.633L41.624 204.873C41.564 205.017 41.48 205.149 41.396 205.293C41.996 205.653 42.716 206.121 43.1 206.421ZM40.052 207.609V206.961H42.08V207.609H40.052ZM41.852 209.013H40.004V209.961H41.852V209.013ZM40.004 211.665H41.852V210.633H40.004V211.665ZM41.204 212.841L41.828 212.589C42.26 213.345 42.824 214.389 43.064 214.977L42.404 215.313C42.308 215.049 42.164 214.725 41.984 214.365C39.632 215.325 39.308 215.505 39.092 215.661C39.044 215.469 38.912 215.085 38.78 214.905C38.96 214.833 39.212 214.665 39.212 214.233V208.329H42.644V212.349H40.004V214.401L41.672 213.753C41.528 213.429 41.36 213.129 41.204 212.841ZM49.364 207.129H46.772V208.833H48.956V213.237C48.956 213.621 48.896 213.849 48.632 213.981C48.392 214.113 48.032 214.125 47.468 214.125C47.456 213.897 47.336 213.573 47.228 213.369C47.576 213.381 47.9 213.381 47.984 213.381C48.104 213.369 48.14 213.345 48.14 213.237V209.637H46.772V215.673H45.92V209.637H44.504V214.209H43.712V208.833H45.92V207.129H44.504C44.192 207.897 43.82 208.569 43.4 209.109C43.268 208.965 42.908 208.701 42.716 208.581C43.496 207.657 44.084 206.205 44.384 204.717L45.224 204.861C45.104 205.365 44.96 205.845 44.804 206.313H49.364V207.129ZM51.872 206.829V208.425H50.996V205.977H55.724C55.556 205.629 55.328 205.233 55.1 204.921L55.952 204.633C56.264 205.041 56.588 205.569 56.756 205.977H60.992V208.425H60.08V206.829H51.872ZM61.112 211.149V212.001H56.456V214.581C56.456 215.109 56.324 215.373 55.904 215.505C55.484 215.649 54.86 215.661 53.864 215.661C53.792 215.409 53.612 215.013 53.456 214.785C54.272 214.809 55.04 214.809 55.244 214.797C55.472 214.785 55.532 214.737 55.532 214.569V212.001H50.852V211.149H55.532V210.405C56.228 210.069 57.02 209.529 57.62 209.001H52.82V208.161H58.52L58.712 208.113L59.324 208.569C58.568 209.349 57.5 210.153 56.456 210.705V211.149H61.112Z" fill="#A2AAA4"/>
<path d="M13.628 235.165C14.348 234.661 15.122 234.049 15.374 233.167C15.482 232.807 15.5 232.375 15.338 232.015C15.158 231.637 14.798 231.367 14.42 231.205C13.502 230.827 12.422 230.881 11.468 231.061C10.442 231.259 9.47 231.619 8.498 231.997C7.85 232.267 7.22 232.537 6.608 232.843C6.356 233.473 6.104 234.103 5.852 234.715C4.376 238.477 2.954 242.257 1.586 246.055C1.496 246.289 1.262 246.451 1.01 246.379C0.776 246.307 0.596 246.037 0.686 245.803C1.064 244.741 1.46 243.679 1.838 242.617C2.972 239.575 4.142 236.551 5.33 233.545C3.836 234.409 2.45 235.453 1.244 236.695C0.83 237.127 0.164 236.461 0.596 236.029C2.108 234.463 3.926 233.185 5.87 232.177C5.996 231.889 6.104 231.601 6.212 231.313C6.32 231.079 6.518 230.917 6.788 230.989C7.022 231.061 7.22 231.331 7.112 231.565V231.583C7.832 231.259 8.552 230.971 9.272 230.719C10.37 230.341 11.504 230.017 12.656 229.999C13.718 229.981 14.96 230.197 15.734 230.989C16.508 231.781 16.526 232.951 16.094 233.905C15.644 234.877 14.744 235.525 13.898 236.101C12.98 236.713 12.026 237.289 11.036 237.793C9.182 238.765 7.22 239.521 5.204 240.097C5.69 240.997 6.194 241.915 6.752 242.779C7.904 244.597 9.38 246.289 11.378 247.225C13.16 248.053 15.356 248.251 17.102 247.207C17.606 246.901 18.074 247.711 17.57 248.017C16.49 248.647 15.248 248.917 14.006 248.845C11.702 248.701 9.614 247.567 8.03 245.929C6.32 244.201 5.168 242.023 4.052 239.881C3.8 239.413 4.394 238.999 4.736 239.251C6.896 238.675 8.984 237.847 10.964 236.785C11.882 236.281 12.764 235.759 13.628 235.165ZM21.7159 240.817C22.0039 240.349 22.4899 240.835 22.2559 241.213C21.3919 242.599 16.2799 246.181 16.9279 241.933C16.9459 241.897 16.9459 241.879 16.9639 241.843C16.9279 241.861 16.9099 241.897 16.8919 241.915C16.3699 242.599 15.7579 243.193 15.0559 243.679C14.3359 244.147 13.2739 244.471 12.7519 243.787C12.2299 243.175 12.4819 242.167 12.6979 241.411C12.9499 240.511 13.3279 239.647 13.8319 238.819C14.1739 238.297 14.9119 238.765 14.5879 239.305C14.1019 240.061 13.7599 240.889 13.5259 241.735C13.4539 242.095 13.1479 243.067 13.6159 243.229C13.8499 243.319 14.1739 243.157 14.4079 243.031C14.6959 242.869 14.9479 242.671 15.2179 242.455C16.2799 241.519 16.9999 240.259 17.7019 239.053C17.8279 238.837 18.1159 238.783 18.3139 238.855C18.5299 238.945 18.5839 239.179 18.5119 239.413C18.3139 240.169 18.1159 240.943 17.9359 241.699C17.2339 244.723 21.3739 241.411 21.7159 240.817ZM29.803 240.259C30.523 238.261 30.379 237.757 29.857 237.775C28.471 237.829 26.887 241.591 26.149 243.103C25.951 243.499 25.357 243.139 25.357 242.779C25.357 242.419 24.979 239.575 24.565 239.611C24.295 239.629 24.079 239.953 23.917 240.169C23.035 241.357 22.315 242.689 21.775 244.075C21.667 244.309 21.451 244.471 21.199 244.399C20.965 244.327 20.785 244.057 20.875 243.823C21.379 242.311 21.721 240.745 21.883 239.161C21.919 238.909 22.081 238.693 22.351 238.693C22.585 238.693 22.855 238.909 22.819 239.161C22.783 239.557 22.729 239.953 22.675 240.331C22.783 240.169 22.891 239.989 23.017 239.827C23.413 239.269 23.899 238.657 24.655 238.675C25.843 238.729 25.933 240.313 26.059 241.285C26.959 239.557 28.687 236.551 30.253 236.587C31.243 236.605 31.783 237.649 30.595 240.547C29.983 242.023 30.019 243.859 32.179 242.635C33.133 242.095 34.105 241.177 34.267 240.817C34.483 240.331 35.275 240.601 34.951 241.213C34.663 241.771 33.655 242.689 32.575 243.319C29.605 245.083 28.615 243.589 29.803 240.259ZM42.9992 240.277C43.5932 240.295 43.5932 241.231 42.9992 241.213C42.0452 241.177 41.1092 241.231 40.1732 241.393C39.2012 242.257 37.8512 242.743 36.5732 242.851C36.2312 242.869 36.0692 242.527 36.1232 242.257C36.2132 241.663 36.7892 241.393 37.2932 241.213C37.8872 240.979 38.4992 240.799 39.1112 240.637C39.3272 240.601 39.5252 240.565 39.7412 240.511C39.9752 240.277 40.1732 240.007 40.2992 239.683C40.4972 239.197 40.4072 238.657 39.9572 238.351C39.5432 238.081 39.0032 238.045 38.5352 238.207C37.9232 238.405 37.4372 238.891 37.0412 239.395C36.5732 239.971 36.1772 240.619 35.8352 241.267C35.0792 242.635 34.5392 244.075 33.9812 245.533C33.3692 247.117 32.7752 248.701 32.1992 250.303C32.1092 250.537 31.8932 250.699 31.6232 250.627C31.3892 250.573 31.2272 250.303 31.2992 250.051C31.6232 249.115 31.9292 248.161 32.2352 247.207C33.3332 243.859 34.9532 238.423 35.9432 235.039C36.1052 234.463 37.0052 234.715 36.8432 235.291C36.5912 236.173 35.7272 239.143 35.4572 240.043C35.5832 239.827 35.7272 239.611 35.8712 239.413C36.7172 238.171 37.9592 236.929 39.5972 237.235C40.2632 237.343 40.8752 237.757 41.1632 238.369C41.4512 239.017 41.3432 239.719 41.0192 240.331C41.6852 240.277 42.3332 240.259 42.9992 240.277ZM46.467 240.817C46.683 240.331 47.493 240.691 47.259 241.141C46.809 242.185 46.017 243.265 45.063 244.003C44.451 244.453 43.155 245.101 42.669 244.039C42.471 243.607 42.471 242.887 42.579 242.131C42.723 241.033 43.065 239.827 43.317 239.161C43.407 238.927 43.623 238.765 43.893 238.837C44.109 238.909 44.307 239.179 44.217 239.413C43.983 240.007 43.533 241.267 43.407 242.329C43.227 243.535 43.425 244.057 44.505 243.229C45.261 242.563 46.035 241.861 46.467 240.817ZM44.217 237.253C44.109 237.235 44.001 237.145 43.947 237.037C43.875 236.929 43.857 236.803 43.893 236.677C44.001 236.335 44.091 235.993 44.181 235.651C44.217 235.543 44.307 235.453 44.397 235.381C44.505 235.309 44.649 235.309 44.757 235.327C44.883 235.363 44.991 235.453 45.045 235.543C45.099 235.651 45.117 235.795 45.081 235.903C44.991 236.245 44.901 236.587 44.793 236.929C44.757 237.055 44.685 237.145 44.577 237.217C44.469 237.271 44.343 237.289 44.217 237.253Z" fill="white"/>
<path d="M163.628 201.017C164.348 200.513 165.122 199.901 165.374 199.019C165.482 198.659 165.5 198.227 165.338 197.867C165.158 197.489 164.798 197.219 164.42 197.057C163.502 196.679 162.422 196.733 161.468 196.913C160.442 197.111 159.47 197.471 158.498 197.849C157.85 198.119 157.22 198.389 156.608 198.695C156.356 199.325 156.104 199.955 155.852 200.567C154.376 204.329 152.954 208.109 151.586 211.907C151.496 212.141 151.262 212.303 151.01 212.231C150.776 212.159 150.596 211.889 150.686 211.655C151.064 210.593 151.46 209.531 151.838 208.469C152.972 205.427 154.142 202.403 155.33 199.397C153.836 200.261 152.45 201.305 151.244 202.547C150.83 202.979 150.164 202.313 150.596 201.881C152.108 200.315 153.926 199.037 155.87 198.029C155.996 197.741 156.104 197.453 156.212 197.165C156.32 196.931 156.518 196.769 156.788 196.841C157.022 196.913 157.22 197.183 157.112 197.417V197.435C157.832 197.111 158.552 196.823 159.272 196.571C160.37 196.193 161.504 195.869 162.656 195.851C163.718 195.833 164.96 196.049 165.734 196.841C166.508 197.633 166.526 198.803 166.094 199.757C165.644 200.729 164.744 201.377 163.898 201.953C162.98 202.565 162.026 203.141 161.036 203.645C159.182 204.617 157.22 205.373 155.204 205.949C155.69 206.849 156.194 207.767 156.752 208.631C157.904 210.449 159.38 212.141 161.378 213.077C163.16 213.905 165.356 214.103 167.102 213.059C167.606 212.753 168.074 213.563 167.57 213.869C166.49 214.499 165.248 214.769 164.006 214.697C161.702 214.553 159.614 213.419 158.03 211.781C156.32 210.053 155.168 207.875 154.052 205.733C153.8 205.265 154.394 204.851 154.736 205.103C156.896 204.527 158.984 203.699 160.964 202.637C161.882 202.133 162.764 201.611 163.628 201.017ZM166.514 206.669C166.73 206.183 167.54 206.543 167.306 206.993C166.856 208.037 166.064 209.117 165.11 209.855C164.498 210.305 163.202 210.953 162.716 209.891C162.518 209.459 162.518 208.739 162.626 207.983C162.77 206.885 163.112 205.679 163.364 205.013C163.454 204.779 163.67 204.617 163.94 204.689C164.156 204.761 164.354 205.031 164.264 205.265C164.03 205.859 163.58 207.119 163.454 208.181C163.274 209.387 163.472 209.909 164.552 209.081C165.308 208.415 166.082 207.713 166.514 206.669ZM164.264 203.105C164.156 203.087 164.048 202.997 163.994 202.889C163.922 202.781 163.904 202.655 163.94 202.529C164.048 202.187 164.138 201.845 164.228 201.503C164.264 201.395 164.354 201.305 164.444 201.233C164.552 201.161 164.696 201.161 164.804 201.179C164.93 201.215 165.038 201.305 165.092 201.395C165.146 201.503 165.164 201.647 165.128 201.755C165.038 202.097 164.948 202.439 164.84 202.781C164.804 202.907 164.732 202.997 164.624 203.069C164.516 203.123 164.39 203.141 164.264 203.105ZM168.533 205.463C167.921 205.913 166.517 207.785 167.147 208.649C167.345 208.901 167.669 208.955 167.975 208.937C168.677 208.919 169.415 208.577 170.045 208.253C170.711 207.875 171.863 206.993 172.385 206.435C172.781 205.985 173.447 206.651 173.051 207.101C172.295 207.911 170.819 208.955 169.793 209.387C168.947 209.765 167.885 210.107 166.985 209.675C164.717 208.559 166.877 204.995 168.497 204.419C169.361 204.113 170.423 204.203 171.053 204.941C171.215 205.121 171.233 205.409 171.053 205.589C170.873 205.769 170.549 205.787 170.387 205.589C169.901 205.031 169.109 205.049 168.533 205.463ZM180.471 206.579C180.831 206.129 181.407 206.615 181.065 207.155C180.453 208.127 176.565 210.827 175.935 208.217C175.809 207.695 175.791 207.137 175.809 206.579C175.809 205.409 175.071 206.417 174.693 206.885C173.433 208.379 172.425 210.107 171.759 211.943C171.543 212.501 170.715 212.285 170.859 211.691C171.147 210.449 171.489 209.225 171.831 208.019C173.073 203.681 174.603 199.451 176.133 195.203C176.205 194.969 176.439 194.807 176.709 194.879C176.925 194.951 177.105 195.221 177.033 195.455C176.601 196.643 176.169 197.849 175.737 199.037C174.729 201.917 173.757 204.797 172.893 207.713C173.289 207.155 173.703 206.597 174.153 206.075C174.459 205.715 174.783 205.355 175.215 205.175C175.683 204.959 176.241 204.995 176.547 205.445C176.853 205.877 176.727 206.453 176.727 206.939C176.655 210.089 179.787 207.425 180.471 206.579ZM185.53 210.413C184.594 210.377 184.486 209.333 184.558 208.595C184.594 208.271 184.648 207.929 184.72 207.623C184.684 207.659 184.63 207.713 184.594 207.749C184.126 208.199 183.622 208.613 183.1 208.991C182.596 209.351 182.074 209.729 181.48 209.945C180.886 210.161 180.148 210.107 179.68 209.639C179.194 209.135 179.266 208.415 179.572 207.857C180.076 206.813 181.246 205.949 182.326 205.391C183.424 204.797 184.666 204.473 185.908 204.455C185.944 204.455 185.98 204.455 186.016 204.473C186.124 204.293 186.214 204.131 186.322 203.969C186.61 203.429 187.402 203.897 187.114 204.437C186.736 205.121 186.358 205.805 186.052 206.525C185.8 207.137 185.584 207.803 185.512 208.451C185.134 210.845 188.68 207.425 189.094 206.723C189.31 206.363 189.526 206.273 189.742 206.417C189.94 206.579 189.958 206.867 189.832 207.083C189.202 208.073 186.88 210.485 185.53 210.413ZM182.002 208.613C183.316 207.767 184.468 206.687 185.386 205.427C184.414 205.517 183.46 205.823 182.596 206.291C181.768 206.759 180.832 207.443 180.364 208.325C180.184 208.685 180.22 209.081 180.706 209.135C181.174 209.189 181.642 208.847 182.002 208.613ZM193.872 203.897C194.25 204.077 194.43 204.473 194.394 204.869C194.376 205.301 194.214 205.715 194.106 206.129C193.998 206.597 193.872 207.047 193.746 207.515C193.602 208.091 192.702 207.857 192.846 207.263C192.972 206.813 193.08 206.363 193.206 205.931C193.512 204.707 193.458 204.635 192.342 205.427C191.838 205.823 191.37 206.255 190.938 206.723C190.218 207.515 189.606 208.415 189.156 209.387C189.048 209.621 188.94 209.855 188.832 210.089C188.616 210.575 187.788 210.215 187.986 209.729C188.85 208.127 189.498 205.805 189.93 203.915C190.074 203.321 190.974 203.573 190.83 204.149C190.704 204.761 190.542 205.373 190.362 205.985C191.028 205.265 191.784 204.635 192.612 204.113C192.972 203.879 193.44 203.699 193.872 203.897ZM200.114 207.191C199.538 208.019 198.476 209.333 197.594 210.035C197.108 210.431 196.586 210.737 196.136 210.647C195.794 210.593 195.506 210.341 195.344 210.035C194.678 208.847 195.29 206.309 195.65 204.941C196.1 203.123 196.73 201.359 197.396 199.631C196.334 199.739 195.254 199.865 194.192 199.991C193.94 200.009 193.724 199.739 193.724 199.523C193.724 199.253 193.94 199.073 194.192 199.055L197.774 198.641C198.386 197.129 199.034 195.617 199.736 194.141C199.844 193.907 200.186 193.853 200.384 193.979C200.618 194.105 200.654 194.375 200.546 194.609C199.934 195.905 199.358 197.201 198.836 198.533L203.534 198.011C203.786 197.975 204.002 198.245 204.002 198.479C204.002 198.749 203.786 198.911 203.534 198.947L198.44 199.505C198.368 199.721 198.278 199.955 198.188 200.171C197.558 201.827 196.964 203.501 196.532 205.229C196.316 206.075 196.154 206.921 196.064 207.785C195.794 209.711 196.406 209.729 197.162 209.135C197.99 208.487 198.764 207.515 199.394 206.597C199.538 206.399 199.862 206.399 200.042 206.543C200.258 206.705 200.258 206.993 200.114 207.191Z" fill="white"/>
<path d="M151.316 251.097C151.136 251.673 150.236 251.421 150.416 250.845C150.758 249.783 151.118 248.739 151.496 247.695C152.846 244.041 154.43 240.477 156.248 237.021C156.464 236.625 157.148 236.787 157.112 237.255C156.968 239.415 157.022 241.575 157.31 243.717C157.76 247.785 159.272 246.453 161.288 244.653C163.52 242.583 165.626 238.641 167.984 235.959C168.254 235.653 169.01 236.139 168.92 236.517C167.408 240.675 165.32 247.425 163.808 252.897C163.646 253.473 162.746 253.221 162.908 252.645C164.24 247.677 165.806 243.051 167.318 238.173C165.734 240.441 163.772 243.483 161.9 245.265C161.504 245.643 161.09 246.021 160.622 246.381C159.956 246.885 159.146 247.479 158.282 247.335C156.662 247.065 156.482 244.635 156.338 243.339C156.176 242.007 156.104 240.675 156.104 239.343C155.942 239.703 155.762 240.045 155.6 240.387C153.926 243.861 152.504 247.443 151.316 251.097ZM171.872 250.413C170.936 250.377 170.828 249.333 170.9 248.595C170.936 248.271 170.99 247.929 171.062 247.623C171.026 247.659 170.972 247.713 170.936 247.749C170.468 248.199 169.964 248.613 169.442 248.991C168.938 249.351 168.416 249.729 167.822 249.945C167.228 250.161 166.49 250.107 166.022 249.639C165.536 249.135 165.608 248.415 165.914 247.857C166.418 246.813 167.588 245.949 168.668 245.391C169.766 244.797 171.008 244.473 172.25 244.455C172.286 244.455 172.322 244.455 172.358 244.473C172.466 244.293 172.556 244.131 172.664 243.969C172.952 243.429 173.744 243.897 173.456 244.437C173.078 245.121 172.7 245.805 172.394 246.525C172.142 247.137 171.926 247.803 171.854 248.451C171.476 250.845 175.022 247.425 175.436 246.723C175.652 246.363 175.868 246.273 176.084 246.417C176.282 246.579 176.3 246.867 176.174 247.083C175.544 248.073 173.222 250.485 171.872 250.413ZM168.344 248.613C169.658 247.767 170.81 246.687 171.728 245.427C170.756 245.517 169.802 245.823 168.938 246.291C168.11 246.759 167.174 247.443 166.706 248.325C166.526 248.685 166.562 249.081 167.048 249.135C167.516 249.189 167.984 248.847 168.344 248.613ZM183.903 246.705C184.209 246.201 184.965 246.543 184.677 247.065C183.687 248.901 180.429 251.295 178.719 249.171C178.323 248.667 177.981 248.127 177.495 247.695C176.649 249.999 175.785 252.303 174.867 254.607C174.777 254.841 174.561 255.003 174.309 254.931C174.075 254.859 173.877 254.589 173.967 254.355C174.561 252.861 175.137 251.367 175.695 249.873C176.037 248.973 176.361 248.073 176.685 247.155C176.415 247.029 176.127 246.921 175.821 246.831C175.443 246.741 175.353 246.165 175.713 245.985C176.271 245.697 176.829 245.409 177.405 245.139C178.701 241.395 179.907 237.597 180.987 233.799C181.149 233.205 182.049 233.457 181.887 234.033C181.455 235.581 180.987 237.111 180.519 238.641C179.907 240.639 179.259 242.619 178.575 244.599C179.889 244.005 181.221 243.447 182.571 242.943C182.823 242.853 183.093 243.051 183.147 243.267C183.219 243.537 183.057 243.753 182.823 243.843C181.239 244.437 179.673 245.085 178.161 245.823C178.035 246.129 177.927 246.453 177.819 246.759C177.963 246.867 178.089 246.975 178.215 247.083C178.503 247.335 178.755 247.641 178.971 247.947C179.187 248.253 179.385 248.541 179.655 248.793C180.915 249.963 183.255 247.749 183.903 246.705ZM190.075 247.047C189.427 247.821 186.043 250.989 183.919 249.621C183.343 249.243 183.271 248.505 183.379 247.893C183.577 246.687 184.423 245.589 185.467 244.977C185.953 244.707 186.547 244.473 187.123 244.653C187.825 244.869 188.023 245.643 187.609 246.237C186.853 247.317 185.557 248.055 184.297 248.379C184.279 248.397 184.279 248.397 184.261 248.397C184.279 249.207 185.611 249.189 186.925 248.469C188.059 247.857 189.211 246.633 189.409 246.399C189.571 246.201 189.895 246.219 190.075 246.399C190.255 246.579 190.237 246.867 190.075 247.047ZM185.395 246.183C185.035 246.489 184.765 246.867 184.549 247.281C184.549 247.299 184.531 247.317 184.531 247.335C184.927 247.191 185.305 247.011 185.665 246.777C185.881 246.633 186.079 246.471 186.277 246.309C186.475 246.111 186.727 245.913 186.853 245.661C186.871 245.625 186.889 245.571 186.907 245.553C186.889 245.553 186.871 245.553 186.853 245.553C186.745 245.517 186.565 245.535 186.439 245.553C186.061 245.661 185.683 245.913 185.395 246.183ZM198.365 246.669C198.581 246.183 199.391 246.543 199.157 246.993C198.707 248.037 197.915 249.117 196.961 249.855C196.349 250.305 195.053 250.953 194.567 249.891C194.369 249.459 194.369 248.739 194.477 247.983C194.621 246.885 194.963 245.679 195.215 245.013C195.305 244.779 195.521 244.617 195.791 244.689C196.007 244.761 196.205 245.031 196.115 245.265C195.881 245.859 195.431 247.119 195.305 248.181C195.125 249.387 195.323 249.909 196.403 249.081C197.159 248.415 197.933 247.713 198.365 246.669ZM196.115 243.105C196.007 243.087 195.899 242.997 195.845 242.889C195.773 242.781 195.755 242.655 195.791 242.529C195.899 242.187 195.989 241.845 196.079 241.503C196.115 241.395 196.205 241.305 196.295 241.233C196.403 241.161 196.547 241.161 196.655 241.179C196.781 241.215 196.889 241.305 196.943 241.395C196.997 241.503 197.015 241.647 196.979 241.755C196.889 242.097 196.799 242.439 196.691 242.781C196.655 242.907 196.583 242.997 196.475 243.069C196.367 243.123 196.241 243.141 196.115 243.105ZM203.085 247.191C202.509 248.019 201.447 249.333 200.565 250.035C200.079 250.431 199.557 250.737 199.107 250.647C198.765 250.593 198.477 250.341 198.315 250.035C197.649 248.847 198.261 246.309 198.621 244.941C199.071 243.123 199.701 241.359 200.367 239.631C199.305 239.739 198.225 239.865 197.163 239.991C196.911 240.009 196.695 239.739 196.695 239.523C196.695 239.253 196.911 239.073 197.163 239.055L200.745 238.641C201.357 237.129 202.005 235.617 202.707 234.141C202.815 233.907 203.157 233.853 203.355 233.979C203.589 234.105 203.625 234.375 203.517 234.609C202.905 235.905 202.329 237.201 201.807 238.533L206.505 238.011C206.757 237.975 206.973 238.245 206.973 238.479C206.973 238.749 206.757 238.911 206.505 238.947L201.411 239.505C201.339 239.721 201.249 239.955 201.159 240.171C200.529 241.827 199.935 243.501 199.503 245.229C199.287 246.075 199.125 246.921 199.035 247.785C198.765 249.711 199.377 249.729 200.133 249.135C200.961 248.487 201.735 247.515 202.365 246.597C202.509 246.399 202.833 246.399 203.013 246.543C203.229 246.705 203.229 246.993 203.085 247.191ZM218.897 248.289C218.663 249.063 218.123 249.711 217.529 250.251C216.917 250.791 216.179 251.187 215.441 251.511C214.649 251.889 213.857 252.159 213.029 252.357C212.219 252.537 211.373 252.645 210.563 252.645C209.699 252.663 208.835 252.645 208.043 252.357C207.305 252.141 206.657 251.637 206.405 250.863C206.153 250.125 206.279 249.261 206.891 248.775C207.377 248.397 207.935 249.171 207.449 249.567C207.269 249.711 207.197 249.927 207.215 250.143C207.233 251.817 209.699 251.745 210.761 251.691C212.399 251.619 214.037 251.169 215.513 250.413C216.197 250.071 216.863 249.639 217.367 249.063C217.817 248.559 218.177 247.911 218.087 247.191C217.997 246.543 217.475 246.093 216.953 245.805C216.269 245.445 215.477 245.283 214.739 245.139C213.011 244.815 211.103 244.671 209.591 243.645C208.853 243.177 208.421 242.385 208.493 241.467C208.583 240.639 209.087 239.865 209.627 239.289C211.769 236.967 214.883 235.761 217.943 235.941C218.663 235.995 219.437 236.067 220.121 236.337C220.733 236.571 221.399 237.039 221.579 237.723C221.831 238.605 221.183 239.343 220.625 239.955C220.013 240.639 219.329 241.197 218.609 241.701C218.105 242.061 217.547 241.251 218.051 240.927C218.393 240.693 218.735 240.423 219.059 240.153C219.383 239.865 219.689 239.577 219.977 239.253C220.229 238.983 220.571 238.677 220.679 238.317C220.751 238.065 220.661 237.867 220.517 237.705C220.301 237.489 220.013 237.345 219.743 237.219C219.113 236.985 218.357 236.931 217.655 236.895C216.935 236.859 216.197 236.949 215.495 237.075C214.037 237.363 212.669 237.975 211.499 238.875C210.887 239.325 210.311 239.865 209.879 240.495C209.501 241.053 209.213 241.827 209.645 242.439C209.879 242.745 210.221 242.925 210.545 243.087C210.923 243.285 211.337 243.447 211.769 243.573C212.615 243.807 213.497 243.933 214.361 244.095C215.819 244.329 217.691 244.635 218.609 246.003C219.041 246.687 219.131 247.497 218.897 248.289ZM223.977 246.669C224.193 246.183 225.003 246.543 224.769 246.993C224.319 248.037 223.527 249.117 222.573 249.855C221.961 250.305 220.665 250.953 220.179 249.891C219.981 249.459 219.981 248.739 220.089 247.983C220.233 246.885 220.575 245.679 220.827 245.013C220.917 244.779 221.133 244.617 221.403 244.689C221.619 244.761 221.817 245.031 221.727 245.265C221.493 245.859 221.043 247.119 220.917 248.181C220.737 249.387 220.935 249.909 222.015 249.081C222.771 248.415 223.545 247.713 223.977 246.669ZM221.727 243.105C221.619 243.087 221.511 242.997 221.457 242.889C221.385 242.781 221.367 242.655 221.403 242.529C221.511 242.187 221.601 241.845 221.691 241.503C221.727 241.395 221.817 241.305 221.907 241.233C222.015 241.161 222.159 241.161 222.267 241.179C222.393 241.215 222.501 241.305 222.555 241.395C222.609 241.503 222.627 241.647 222.591 241.755C222.501 242.097 222.411 242.439 222.303 242.781C222.267 242.907 222.195 242.997 222.087 243.069C221.979 243.123 221.853 243.141 221.727 243.105ZM232.08 246.111C232.8 244.113 232.656 243.609 232.134 243.627C230.748 243.681 229.164 247.443 228.426 248.955C228.228 249.351 227.634 248.991 227.634 248.631C227.634 248.271 227.256 245.427 226.842 245.463C226.572 245.481 226.356 245.805 226.194 246.021C225.312 247.209 224.592 248.541 224.052 249.927C223.944 250.161 223.728 250.323 223.476 250.251C223.242 250.179 223.062 249.909 223.152 249.675C223.656 248.163 223.998 246.597 224.16 245.013C224.196 244.761 224.358 244.545 224.628 244.545C224.862 244.545 225.132 244.761 225.096 245.013C225.06 245.409 225.006 245.805 224.952 246.183C225.06 246.021 225.168 245.841 225.294 245.679C225.69 245.121 226.176 244.509 226.932 244.527C228.12 244.581 228.21 246.165 228.336 247.137C229.236 245.409 230.964 242.403 232.53 242.439C233.52 242.457 234.06 243.501 232.872 246.399C232.26 247.875 232.296 249.711 234.456 248.487C235.41 247.947 236.382 247.029 236.544 246.669C236.76 246.183 237.552 246.453 237.228 247.065C236.94 247.623 235.932 248.541 234.852 249.171C231.882 250.935 230.892 249.441 232.08 246.111ZM245.277 246.129C245.871 246.147 245.871 247.083 245.277 247.065C244.323 247.029 243.387 247.083 242.451 247.245C241.479 248.109 240.129 248.595 238.851 248.703C238.509 248.721 238.347 248.379 238.401 248.109C238.491 247.515 239.067 247.245 239.571 247.065C240.165 246.831 240.777 246.651 241.389 246.489C241.605 246.453 241.803 246.417 242.019 246.363C242.253 246.129 242.451 245.859 242.577 245.535C242.775 245.049 242.685 244.509 242.235 244.203C241.821 243.933 241.281 243.897 240.813 244.059C240.201 244.257 239.715 244.743 239.319 245.247C238.851 245.823 238.455 246.471 238.113 247.119C237.357 248.487 236.817 249.927 236.259 251.385C235.647 252.969 235.053 254.553 234.477 256.155C234.387 256.389 234.171 256.551 233.901 256.479C233.667 256.425 233.505 256.155 233.577 255.903C233.901 254.967 234.207 254.013 234.513 253.059C235.611 249.711 237.231 244.275 238.221 240.891C238.383 240.315 239.283 240.567 239.121 241.143C238.869 242.025 238.005 244.995 237.735 245.895C237.861 245.679 238.005 245.463 238.149 245.265C238.995 244.023 240.237 242.781 241.875 243.087C242.541 243.195 243.153 243.609 243.441 244.221C243.729 244.869 243.621 245.571 243.297 246.183C243.963 246.129 244.611 246.111 245.277 246.129ZM249.536 246.669C249.77 246.255 250.454 246.579 250.256 247.047C249.644 248.505 244.73 253.023 244.784 248.775C244.802 248.001 244.964 246.921 245.144 246.183C246.08 241.989 246.944 239.703 248.402 235.095C248.582 234.537 249.482 234.771 249.302 235.347C248.366 238.335 247.34 241.251 246.44 244.473C246.116 245.661 245.846 246.849 245.666 248.037C245.252 250.809 248.384 248.757 249.536 246.669ZM255.729 247.047C255.081 247.821 251.697 250.989 249.573 249.621C248.997 249.243 248.925 248.505 249.033 247.893C249.231 246.687 250.077 245.589 251.121 244.977C251.607 244.707 252.201 244.473 252.777 244.653C253.479 244.869 253.677 245.643 253.263 246.237C252.507 247.317 251.211 248.055 249.951 248.379C249.933 248.397 249.933 248.397 249.915 248.397C249.933 249.207 251.265 249.189 252.579 248.469C253.713 247.857 254.865 246.633 255.063 246.399C255.225 246.201 255.549 246.219 255.729 246.399C255.909 246.579 255.891 246.867 255.729 247.047ZM251.049 246.183C250.689 246.489 250.419 246.867 250.203 247.281C250.203 247.299 250.185 247.317 250.185 247.335C250.581 247.191 250.959 247.011 251.319 246.777C251.535 246.633 251.733 246.471 251.931 246.309C252.129 246.111 252.381 245.913 252.507 245.661C252.525 245.625 252.543 245.571 252.561 245.553C252.543 245.553 252.525 245.553 252.507 245.553C252.399 245.517 252.219 245.535 252.093 245.553C251.715 245.661 251.337 245.913 251.049 246.183Z" fill="white"/>
</svg>
