<svg width="848" height="624" viewBox="0 0 848 624" fill="none" xmlns="http://www.w3.org/2000/svg">
<path opacity="0.8" d="M15.72 80.58H21.46V75.28H15.72V80.58ZM8.46 80.58H14.18V75.28H8.46V80.58ZM15.72 73.82H22.98V83.18H21.46V82.04H15.72V88.52H14.18V82.04H8.46V83.28H7V73.82H14.18V70.26H15.72V73.82ZM36.56 73.22L34.94 73.74C34.7 72.92 34.06 71.58 33.46 70.6L35 70.16C35.6 71.1 36.28 72.38 36.56 73.22ZM39.18 75.24H30.7C31.74 77.78 33.18 80.06 35.06 81.94C36.84 80.14 38.18 77.94 39.18 75.24ZM44 75.24H40.86C39.72 78.4 38.18 80.92 36.18 82.98C38.38 84.84 41.08 86.26 44.26 87.04C43.9 87.38 43.48 88 43.24 88.42C39.98 87.5 37.26 86.04 35.04 84.04C32.8 86 30.04 87.44 26.72 88.5C26.54 88.14 26.1 87.46 25.8 87.12C29.1 86.18 31.78 84.82 33.96 82.98C31.9 80.86 30.32 78.26 29.16 75.24H26.08V73.78H44V75.24ZM59 73.76V72.42H57.2V73.76H59ZM62.08 74.9H60.12V77.28H62.08V74.9ZM57.2 74.9V77.28H59V74.9H57.2ZM54.28 74.9V77.28H56.06V74.9H54.28ZM56.06 73.76V72.42H52.58V71.2H63.74V72.42H60.12V73.76H63.4V78.42H53.04V73.76H56.06ZM62.46 80.66H53.9V79.48H62.46V80.66ZM52.72 80.1L51.82 81.16C51.56 80.52 50.92 79.32 50.38 78.32V88.52H49.02V78.44C48.34 80.72 47.44 82.98 46.5 84.38C46.34 83.94 45.96 83.3 45.7 82.94C46.94 81.3 48.2 78.14 48.8 75.5H46.22V74.1H49.02V70.26H50.38V74.1H52.58V75.5H50.38V76.52C50.88 77.18 52.4 79.54 52.72 80.1ZM54.62 83.94L55.94 84.32C55.2 85.68 54.06 87.06 53.02 87.96C52.76 87.74 52.22 87.36 51.86 87.18C52.96 86.36 53.98 85.14 54.62 83.94ZM63.82 83.26H58.74V88.52H57.4V83.26H52.62V82.04H63.82V83.26ZM60.16 84.54L61.24 83.92C62.28 84.94 63.42 86.28 63.96 87.2L62.8 87.9C62.28 86.96 61.18 85.56 60.16 84.54ZM77.24 75.06V73.58H73.62V75.06H77.24ZM77.24 77.54V76.06H73.62V77.54H77.24ZM77.24 80.1V78.56H73.62V80.1H77.24ZM72.18 82.18V75.1C71.78 75.54 71.42 75.94 71.02 76.28C70.74 76.02 70.18 75.56 69.82 75.34C71.42 74.08 72.88 72.14 73.76 70.16L75.16 70.58C74.86 71.2 74.52 71.82 74.16 72.42H77.4C77.18 71.88 76.88 71.26 76.6 70.76L78.02 70.36C78.4 71 78.8 71.82 79.04 72.42H83.08V73.58H78.64V75.06H82.42V76.06H78.64V77.54H82.48V78.56H78.64V80.1H83.38V81.32H73.62V82.18H72.18ZM67.46 82.24L66.42 81.1C67.48 80.14 69.04 78.52 70.32 77.02L71.12 78C70 79.4 68.66 80.96 67.46 82.24ZM71.32 71.9L70.54 73.04C69.82 72.54 68.46 71.84 67.36 71.4L68.1 70.38C69.2 70.76 70.6 71.4 71.32 71.9ZM69.78 75.16L69.02 76.3C68.34 75.84 66.94 75.18 65.86 74.78L66.62 73.76C67.66 74.1 69.06 74.7 69.78 75.16ZM83.96 83.28V84.64H75.7V88.56H74.2V84.64H66.12V83.28H74.2V81.84H75.7V83.28H83.96ZM88.12 73.78V76.44H86.66V72.36H94.54C94.26 71.78 93.88 71.12 93.5 70.6L94.92 70.12C95.44 70.8 95.98 71.68 96.26 72.36H103.32V76.44H101.8V73.78H88.12ZM103.52 80.98V82.4H95.76V86.7C95.76 87.58 95.54 88.02 94.84 88.24C94.14 88.48 93.1 88.5 91.44 88.5C91.32 88.08 91.02 87.42 90.76 87.04C92.12 87.08 93.4 87.08 93.74 87.06C94.12 87.04 94.22 86.96 94.22 86.68V82.4H86.42V80.98H94.22V79.74C95.38 79.18 96.7 78.28 97.7 77.4H89.7V76H99.2L99.52 75.92L100.54 76.68C99.28 77.98 97.5 79.32 95.76 80.24V80.98H103.52Z" fill="white"/>
<path d="M29.16 133.608V130.152H22.344V133.608H29.16ZM29.16 139.56V136.04H22.344V139.56H29.16ZM12.456 136.04V139.56H19.464V136.04H12.456ZM12.456 130.152V133.608H19.464V130.152H12.456ZM32.104 127.56V142.152H9.64V127.56H32.104ZM25.768 146.792L23.656 148.84C22.344 147.432 19.56 145.48 17.224 144.232L19.176 142.376C21.512 143.528 24.328 145.384 25.768 146.792ZM9.192 153.832L6.536 152.36C8.072 150.44 9.256 147.432 9.96 144.872L12.616 145.864C11.848 148.456 10.728 151.72 9.192 153.832ZM19.176 152.2H24.616C26.088 152.2 26.312 151.688 26.504 148.296C27.144 148.776 28.424 149.224 29.224 149.416C28.84 153.832 27.944 154.888 24.84 154.888H18.888C15.144 154.888 14.184 154.056 14.184 151.144V145.32H17.192V151.144C17.192 152.04 17.512 152.2 19.176 152.2ZM28.488 145.704L31.144 144.584C32.936 146.984 34.824 150.152 35.496 152.36L32.616 153.576C32.008 151.432 30.248 148.168 28.488 145.704ZM46.824 129.704L45 132.072C43.816 131.144 41.448 129.64 39.752 128.584L41.512 126.472C43.144 127.4 45.576 128.808 46.824 129.704ZM45.288 138.056L43.496 140.424C42.312 139.56 39.944 138.088 38.216 137.096L39.944 134.984C41.608 135.848 44.008 137.192 45.288 138.056ZM43.464 143.208L45.832 144.872C44.584 148.232 42.952 152.072 41.48 155.112L38.792 153.48C40.136 150.984 42.056 146.888 43.464 143.208ZM50.664 130.44V136.488C50.664 142.056 50.088 150.152 46.344 155.432C45.832 154.952 44.552 154.184 43.848 153.864C47.432 148.872 47.752 141.672 47.752 136.488V127.752H67.336V130.44H50.664ZM53.064 146.44L55.72 147.176C54.696 149.48 53.16 152.072 51.848 153.672C51.304 153.288 50.152 152.584 49.48 152.232C50.856 150.728 52.232 148.488 53.064 146.44ZM54.856 140.328V142.664H63.496V140.328H54.856ZM54.856 135.912V138.216H63.496V135.912H54.856ZM66.28 144.872H60.424V152.584C60.424 153.928 60.2 154.664 59.24 155.048C58.312 155.496 56.904 155.528 54.824 155.496C54.728 154.76 54.344 153.672 54.056 152.936C55.4 153 56.712 152.968 57.096 152.968C57.48 152.968 57.608 152.84 57.608 152.488V144.872H52.2V133.672H56.776C57.096 132.68 57.448 131.496 57.64 130.632L60.968 131.24C60.552 132.104 60.104 132.904 59.72 133.672H66.28V144.872ZM62.024 147.112L64.584 146.152C65.768 148.072 67.272 150.664 67.976 152.232L65.256 153.416C64.584 151.816 63.176 149.128 62.024 147.112ZM89.384 135.912L87.528 135.176C88.264 133.864 89.192 131.784 89.672 130.344L91.944 131.176C91.112 132.84 90.184 134.696 89.384 135.912ZM78.088 131.08L80.008 130.408C80.904 131.816 81.704 133.672 81.96 134.92L79.944 135.688C79.72 134.472 78.952 132.52 78.088 131.08ZM76.776 136.264H83.464V129.736H76.776V136.264ZM93 136.264V129.736H86.44V136.264H93ZM99.144 145.576V148.2H70.888V145.576H83.464V143.24H73.448V140.872H83.464V138.728H73.96V127.304H96.008V138.728H86.44V140.872H96.552V143.24H86.44V145.576H99.144ZM73.608 155.624L70.792 154.376C72.168 153.192 73.48 151.048 74.248 149.064L77.128 149.8C76.36 151.88 75.08 154.184 73.608 155.624ZM79.72 150.056L82.504 149.832C82.888 151.496 83.176 153.672 83.176 154.984L80.232 155.336C80.232 154.024 80.072 151.784 79.72 150.056ZM86.184 150.152L89 149.576C89.704 151.176 90.472 153.32 90.728 154.664L87.784 155.368C87.528 154.024 86.856 151.816 86.184 150.152ZM92.552 149.992L95.304 149.064C96.776 150.728 98.568 152.968 99.4 154.504L96.456 155.624C95.72 154.12 94.024 151.72 92.552 149.992ZM128.328 132.488V130.568H126.152V132.488H128.328ZM128.328 136.36V134.408H126.152V136.36H128.328ZM118.248 134.408V136.36H120.36V134.408H118.248ZM118.248 130.568V132.488H120.36V130.568H118.248ZM124.264 134.408H122.248V136.36H124.264V134.408ZM122.248 132.488H124.264V130.568H122.248V132.488ZM130.664 128.552V138.408H115.976V128.552H119.912V126.184H122.248V128.552H124.168V126.184H126.536V128.552H130.664ZM131.432 139.816L131.4 142.024H115.4V139.816H131.432ZM106.664 144.36V145.928C106.664 146.984 106.632 148.136 106.504 149.32C107.784 148.808 109.416 147.976 111.144 147.112V141.992H106.664V144.2L107.848 142.952C109.064 143.72 110.44 144.712 111.112 145.416L109.768 146.952C109.096 146.248 107.752 145.096 106.664 144.36ZM106.312 129.416V136.136H107.944V131.112H111.272V129.416H106.312ZM109.576 136.136H111.272V132.904H109.576V136.136ZM112.776 139.944V138.216H104.872V139.944H112.776ZM115.048 140.84H113.64V152.744C113.64 153.928 113.416 154.536 112.648 154.952C111.88 155.336 110.76 155.368 109.032 155.368C108.904 154.696 108.552 153.736 108.232 153.128C109.384 153.16 110.376 153.16 110.728 153.128C111.048 153.128 111.144 153.032 111.144 152.712V149.064C109.832 149.896 108.552 150.664 107.368 151.4L106.472 149.608C106.184 151.752 105.672 153.96 104.52 155.656C104.104 155.176 103.016 154.408 102.44 154.152C104.072 151.72 104.232 148.456 104.232 145.896V140.84H102.664V136.136H103.976V127.208H113.736V136.136H115.048V140.84ZM125.992 149.384H120.52C121.032 150.44 121.576 151.752 121.896 152.712H124.712C125.192 151.656 125.704 150.312 125.992 149.384ZM119.4 145.256V147.496H127.208V145.256H119.4ZM127.176 152.712H131.72V154.952H115.048V152.712H119.272C118.984 151.848 118.632 150.856 118.28 150.024L120.424 149.384H116.808V143.336H129.992V149.384H126.248L128.68 150.056C128.136 150.952 127.656 151.88 127.176 152.712Z" fill="white"/>
<path d="M346.592 53.938H343.878C342.452 55.87 340.98 57.618 339.462 58.998H348.478C347.42 57.848 345.994 56.468 344.89 55.456L346.592 53.938ZM350.732 63.69V62.172H343.464V63.69H350.732ZM343.464 68.198H350.732V66.634H343.464V68.198ZM355.654 71.326H343.464V89.956H338.542V58.998H339.002C338.174 58.032 336.518 56.33 335.598 55.502C338.358 53.34 340.98 49.982 342.498 46.624L347.328 48.05C347.052 48.602 346.776 49.2 346.454 49.752H356.62V53.938H349.72C350.916 54.95 352.112 56.1 352.802 56.882L350.502 58.998H355.654V71.326ZM359.656 58.998H368.718C367.614 57.848 366.05 56.514 364.854 55.594L366.832 53.892H363.566C362.324 55.87 360.99 57.618 359.656 58.998ZM363.29 63.69H370.742V62.172H363.29V63.69ZM363.29 68.198H370.742V66.634H363.29V68.198ZM353.4 82.964H360.99V80.986H353.4V82.964ZM360.99 76.11H353.4V78.042H360.99V76.11ZM378.286 49.752V53.892H369.96C371.202 54.904 372.49 55.962 373.272 56.79L370.742 58.998H375.848V84.482C375.848 87.012 375.342 88.346 373.686 89.082C372.076 89.91 369.638 90.002 366.234 89.956C366.096 88.806 365.59 87.242 365.084 85.954H353.4V87.564H348.478V73.074H365.82V85.218C367.568 85.31 369.27 85.264 369.822 85.264C370.512 85.264 370.742 85.08 370.742 84.39V71.326H358.368V58.998H359.472C358.506 58.124 356.574 56.56 355.47 55.916C358.046 53.662 360.254 50.166 361.45 46.624L366.418 47.866C366.188 48.51 365.958 49.108 365.682 49.752H378.286ZM416.052 54.766V52.098H409.474V54.766H416.052ZM421.158 48.832V58.032H404.644V48.832H421.158ZM396.732 54.766V52.098H390.292V54.766H396.732ZM401.838 48.832V58.032H385.416V48.832H401.838ZM392.408 72.89H400.182V70.406H392.408V72.89ZM392.408 64.058V66.496H400.182V64.058H392.408ZM414.074 66.496V64.058H405.794V66.496H414.074ZM414.074 72.89V70.406H405.794V72.89H414.074ZM423.688 79.468V84.16H405.794V90.002H400.182V84.16H382.702V79.468H400.182V77.076H387.072V59.826H419.686V77.076H405.794V79.468H423.688ZM452.116 83.332H469.964V88.714H428.61V83.332H446.366V74.086H433.9V68.796H446.366V60.7H436.844C435.51 63.23 434.084 65.576 432.566 67.37C431.462 66.496 429.024 64.84 427.644 64.104C431.232 60.24 434.222 53.892 435.786 47.636L441.444 48.878C440.8 51.086 440.064 53.248 439.282 55.364H446.366V47.084H452.116V55.364H467.618V60.7H452.116V68.796H465.87V74.086H452.116V83.332ZM487.72 52.236L484.454 56.652C482.66 55.272 478.75 53.11 476.082 51.592L479.164 47.636C481.74 48.924 485.742 50.948 487.72 52.236ZM485.512 64.656L482.476 69.21C480.59 67.876 476.634 65.714 473.92 64.242L476.864 60.194C479.394 61.436 483.488 63.414 485.512 64.656ZM479.164 89.496L474.564 85.77C477.002 82.32 480.544 76.616 483.304 71.28L487.306 74.96C484.868 79.79 481.97 85.034 479.164 89.496ZM509.018 83.148V76.386H495.218V83.148H509.018ZM516.516 65.622H504.832V71.418H514.216V89.772H509.018V88.116H495.218V90.002H490.25V71.418H499.634V65.622H487.398V60.378H499.634V54.996C496.644 55.456 493.562 55.778 490.71 56.054C490.48 54.72 489.744 52.604 489.1 51.362C496.92 50.58 505.568 49.062 510.628 47.038L514.814 51.362C511.87 52.466 508.42 53.386 504.832 54.076V60.378H516.516V65.622Z" fill="white"/>
<path d="M363.716 160.424L363.624 160.608C364.406 164.61 365.464 168.382 366.89 171.694C368.224 168.428 369.144 164.702 369.742 160.424H363.716ZM378.574 160.424H375.124C374.158 167.094 372.548 172.752 370.064 177.398C372.364 180.71 375.308 183.286 379.126 185.034C377.884 186.138 376.182 188.254 375.354 189.726C371.858 187.886 369.052 185.402 366.752 182.32C364.222 185.448 361.048 188.024 357 190.094C356.54 188.898 354.976 186.46 353.964 185.31C358.196 183.378 361.416 180.756 363.808 177.444C362.382 174.592 361.324 171.418 360.358 167.968C359.576 169.394 358.748 170.59 357.828 171.74C357.184 170.866 355.804 169.348 354.608 168.198C354.378 180.986 354.148 185.954 352.998 187.518C352.078 188.806 351.25 189.266 349.916 189.542C348.72 189.726 346.926 189.772 344.994 189.726C344.856 188.208 344.35 186.138 343.568 184.758C345.04 184.85 346.374 184.896 347.11 184.896C347.662 184.896 348.03 184.758 348.398 184.206C348.996 183.194 349.272 179.33 349.456 168.566H345.592C345.546 175.834 344.534 183.47 338.83 189.772C337.956 188.576 336.162 187.104 334.828 186.184C339.75 180.48 340.44 173.902 340.44 167.968V159.09H335.932V154.03H344.81C344.442 152.282 343.614 149.89 342.924 148.05L347.754 146.9C348.582 148.786 349.502 151.316 349.962 152.926L346.19 154.03H356.218V159.09H345.592V163.598H354.7C354.7 163.598 354.7 165.162 354.654 165.806V166.174C358.012 161.528 360.128 154.444 361.232 147.038L366.798 147.912C366.384 150.442 365.878 152.972 365.234 155.364H378.574V160.424ZM423.424 165.024H407.232C410.268 173.994 415.834 181.216 424.436 184.712C423.056 185.862 421.262 188.3 420.388 189.864C412.062 185.954 406.726 179.238 403.138 170.36C400.654 178.042 395.686 185.218 385.934 189.91C385.06 188.392 383.45 186.414 381.84 185.264C392.374 180.572 396.744 172.936 398.538 165.024H382.714V159.366H399.458C399.918 155.042 399.872 150.856 399.918 147.084H405.898C405.852 150.856 405.806 155.088 405.346 159.366H423.424V165.024ZM436.994 147.222L442.192 148.832C440.996 152.006 439.524 155.226 437.822 158.262V189.91H432.578V166.404C431.566 167.784 430.508 169.026 429.496 170.13C428.99 168.75 427.472 165.76 426.552 164.426C430.692 160.286 434.694 153.754 436.994 147.222ZM445.504 167.508L450.84 168.612C449.506 174.454 447.16 180.25 444.584 183.976C443.526 183.102 441.226 181.722 439.892 181.032C442.514 177.812 444.446 172.614 445.504 167.508ZM464.64 160.332H458.476V183.884C458.476 186.506 458.016 188.024 456.36 188.944C454.75 189.818 452.542 190.048 449.598 190.048C449.368 188.438 448.54 186 447.712 184.528C449.644 184.574 451.576 184.574 452.22 184.574C452.818 184.574 453.048 184.39 453.048 183.792V160.332H447.712C446.424 163 444.906 165.438 443.388 167.37C442.422 166.404 440.214 164.61 438.972 163.782C442.468 159.872 445.228 153.524 446.792 147.222L452.128 148.418C451.53 150.764 450.794 153.018 449.966 155.272H465.79L466.664 155.088L470.528 155.824C469.976 159.55 469.194 163.828 468.55 166.496L463.904 165.714C464.134 164.288 464.41 162.356 464.64 160.332ZM460.132 168.704L465.008 167.048C467.4 171.786 469.378 177.904 470.022 182.044L464.778 183.838C464.272 179.744 462.34 173.442 460.132 168.704ZM480.464 180.434H487.778V171.418H480.464V180.434ZM487.778 166.68V159.228H480.464V166.68H487.778ZM502.406 154.122H515.332C515.332 154.122 515.332 155.962 515.286 156.606C514.688 177.168 514.182 184.482 512.296 186.92C511.008 188.622 509.72 189.128 507.88 189.45C506.132 189.68 503.372 189.634 500.658 189.542C500.566 188.024 499.83 185.724 498.864 184.206C501.808 184.482 504.522 184.482 505.718 184.482C506.638 184.482 507.144 184.298 507.742 183.7C509.076 182.228 509.674 175.328 510.18 159.09H500.336C499.14 161.85 497.714 164.38 496.288 166.358C495.552 165.668 493.988 164.61 492.746 163.782V185.264H480.464V188.622H475.496V154.444H480.694C481.292 152.144 481.844 149.2 482.028 147.038L488.008 147.866C487.226 150.166 486.398 152.466 485.616 154.444H492.746V161.896C495.414 158.032 497.622 152.466 498.956 147.084L504.2 148.28C503.694 150.258 503.096 152.19 502.406 154.122ZM507.696 175.098L503.05 177.95C501.762 175.19 498.91 170.682 496.656 167.324L500.934 164.886C503.234 168.06 506.27 172.43 507.696 175.098ZM533.64 157.342V153.156H527.108V157.342H533.64ZM533.64 165.668V161.39H527.108V165.668H533.64ZM533.64 173.994V169.716H527.108V173.994H533.64ZM538.976 148.832V178.364H521.956V148.832H538.976ZM524.808 178.732L530.006 180.02C528.534 183.838 525.958 187.702 523.428 190.048C522.462 189.128 520.3 187.656 519.058 186.966C521.496 184.942 523.658 181.814 524.808 178.732ZM531.018 180.572L535.434 178.64C537.458 180.894 539.528 183.884 540.494 186L535.894 188.346C535.02 186.184 532.95 182.964 531.018 180.572ZM562.528 157.848V162.908H557.56V183.792C557.56 186.552 557.008 188.024 555.444 188.898C553.834 189.772 551.58 190.048 548.222 190.048C547.992 188.53 547.164 186.138 546.382 184.666C548.498 184.758 550.522 184.758 551.212 184.758C551.902 184.712 552.178 184.482 552.178 183.792V169.762C549.464 175.006 546.106 179.606 542.472 182.78C541.552 181.538 539.896 179.698 538.746 178.778C543.346 175.328 547.624 169.164 550.292 162.908H540.172V157.848H552.178V147.176H557.56V157.848H562.528ZM584.148 176.938H575.04V179.192H584.148V176.938ZM598.914 179.192V176.938H589.484V179.192H598.914ZM589.484 184.85H598.914V182.596H589.484V184.85ZM575.04 184.85H584.148V182.596H575.04V184.85ZM569.842 190.094V172.982H604.342V190.002H598.914V188.806H575.04V190.094H569.842ZM578.214 165.53V167.784H595.234V165.53H578.214ZM573.2 171.28V161.942H600.57V171.28H573.2ZM574.35 156.652H599.512V160.332H574.35V156.652ZM590.634 150.258H606.688V160.286H601.214V154.858H572.648V160.286H567.45V150.258H584.01C583.642 149.338 583.228 148.372 582.906 147.59L588.84 146.44C589.484 147.636 590.174 149.062 590.634 150.258Z" fill="white"/>
<path opacity="0.8" d="M18.46 282.5V280.56H15.46V279.26H18.46V277.28H19.94V279.26H23.56V280.56H19.94V282.5H18.46ZM10.28 282.54V280.58H6.56V279.28H10.28V277.28H11.74V279.28H14.48V280.58H11.74V282.54H10.28ZM15.28 291.26L16 290.22C18.66 291.3 22.2 293.06 23.96 294.28L23.22 295.52C21.48 294.28 18 292.44 15.28 291.26ZM15.64 284.74V287C15.64 287.44 15.62 287.9 15.56 288.36H20.38V284.74H15.64ZM9.7 288.36H14.08C14.14 287.9 14.16 287.44 14.16 287V284.74H9.7V288.36ZM21.86 288.36H23.98V289.74H15.28C14.54 292.1 12.42 294.18 6.72 295.56C6.56 295.24 6.16 294.66 5.84 294.34C10.94 293.2 12.92 291.56 13.72 289.74H6.02V288.36H8.26V283.42H14.16V281.48H15.64V283.42H21.86V288.36ZM35.06 294.12L35.02 294.16C36.86 293.16 38.22 291.86 39.16 290.14C38.52 288.58 38.06 286.8 37.68 284.86C37.34 285.7 36.98 286.44 36.58 287.08C36.4 286.88 35.98 286.52 35.68 286.26V288.12H31.16C30.96 288.54 30.74 288.96 30.52 289.4H33.04V289.26V288.6H34.26V289.28V289.4H36.26V290.48H34.14C33.98 291.3 33.56 292.16 32.64 292.96C33.56 293.36 34.42 293.78 35.06 294.12ZM32.88 290.48H29.9C29.64 290.9 29.4 291.3 29.16 291.68C29.88 291.9 30.64 292.16 31.38 292.46C32.26 291.82 32.68 291.12 32.88 290.48ZM28.12 285.84V287.16H30.6V285.84H28.12ZM34.36 285.84H31.78V287.16H34.36V285.84ZM41.28 282.54H38.54L38.44 282.78C38.76 284.92 39.22 286.9 39.9 288.64C40.58 286.92 41.02 284.92 41.28 282.54ZM28.48 282.98H30.6V281.7H28.48V282.98ZM30.6 279.6H28.48V280.7H30.6V279.6ZM34.06 279.6H31.78V280.7H34.06V279.6ZM31.78 282.98H34.06V281.7H31.78V282.98ZM44.12 282.54H42.6C42.24 285.62 41.6 288.14 40.58 290.2C41.48 292 42.7 293.44 44.28 294.3C43.98 294.56 43.54 295.06 43.32 295.44C41.86 294.54 40.72 293.18 39.82 291.52C38.72 293.2 37.24 294.52 35.26 295.56C35.14 295.3 34.82 294.86 34.58 294.56L34.1 295C33.44 294.62 32.54 294.16 31.54 293.76C30.4 294.42 28.76 295.02 26.44 295.52C26.34 295.22 26.04 294.78 25.8 294.52C27.7 294.14 29.12 293.68 30.16 293.18C29.22 292.82 28.24 292.48 27.32 292.24C27.7 291.76 28.12 291.12 28.54 290.48H25.96V289.4H29.16C29.4 288.96 29.6 288.54 29.8 288.12H26.84V284.9H30.6V284.02H27.32V281.76H25.94V280.64H27.32V278.56H30.6V277.26H31.78V278.56H35.28V280.64H36.42V281.76H35.28V284.02H31.78V284.9H35.68V285.96C37 283.78 37.94 280.52 38.5 277.26L39.8 277.52C39.56 278.74 39.26 280 38.94 281.2H44.12V282.54ZM59 280.76V279.42H57.2V280.76H59ZM62.08 281.9H60.12V284.28H62.08V281.9ZM57.2 281.9V284.28H59V281.9H57.2ZM54.28 281.9V284.28H56.06V281.9H54.28ZM56.06 280.76V279.42H52.58V278.2H63.74V279.42H60.12V280.76H63.4V285.42H53.04V280.76H56.06ZM62.46 287.66H53.9V286.48H62.46V287.66ZM52.72 287.1L51.82 288.16C51.56 287.52 50.92 286.32 50.38 285.32V295.52H49.02V285.44C48.34 287.72 47.44 289.98 46.5 291.38C46.34 290.94 45.96 290.3 45.7 289.94C46.94 288.3 48.2 285.14 48.8 282.5H46.22V281.1H49.02V277.26H50.38V281.1H52.58V282.5H50.38V283.52C50.88 284.18 52.4 286.54 52.72 287.1ZM54.62 290.94L55.94 291.32C55.2 292.68 54.06 294.06 53.02 294.96C52.76 294.74 52.22 294.36 51.86 294.18C52.96 293.36 53.98 292.14 54.62 290.94ZM63.82 290.26H58.74V295.52H57.4V290.26H52.62V289.04H63.82V290.26ZM60.16 291.54L61.24 290.92C62.28 291.94 63.42 293.28 63.96 294.2L62.8 294.9C62.28 293.96 61.18 292.56 60.16 291.54ZM77.24 282.06V280.58H73.62V282.06H77.24ZM77.24 284.54V283.06H73.62V284.54H77.24ZM77.24 287.1V285.56H73.62V287.1H77.24ZM72.18 289.18V282.1C71.78 282.54 71.42 282.94 71.02 283.28C70.74 283.02 70.18 282.56 69.82 282.34C71.42 281.08 72.88 279.14 73.76 277.16L75.16 277.58C74.86 278.2 74.52 278.82 74.16 279.42H77.4C77.18 278.88 76.88 278.26 76.6 277.76L78.02 277.36C78.4 278 78.8 278.82 79.04 279.42H83.08V280.58H78.64V282.06H82.42V283.06H78.64V284.54H82.48V285.56H78.64V287.1H83.38V288.32H73.62V289.18H72.18ZM67.46 289.24L66.42 288.1C67.48 287.14 69.04 285.52 70.32 284.02L71.12 285C70 286.4 68.66 287.96 67.46 289.24ZM71.32 278.9L70.54 280.04C69.82 279.54 68.46 278.84 67.36 278.4L68.1 277.38C69.2 277.76 70.6 278.4 71.32 278.9ZM69.78 282.16L69.02 283.3C68.34 282.84 66.94 282.18 65.86 281.78L66.62 280.76C67.66 281.1 69.06 281.7 69.78 282.16ZM83.96 290.28V291.64H75.7V295.56H74.2V291.64H66.12V290.28H74.2V288.84H75.7V290.28H83.96ZM88.12 280.78V283.44H86.66V279.36H94.54C94.26 278.78 93.88 278.12 93.5 277.6L94.92 277.12C95.44 277.8 95.98 278.68 96.26 279.36H103.32V283.44H101.8V280.78H88.12ZM103.52 287.98V289.4H95.76V293.7C95.76 294.58 95.54 295.02 94.84 295.24C94.14 295.48 93.1 295.5 91.44 295.5C91.32 295.08 91.02 294.42 90.76 294.04C92.12 294.08 93.4 294.08 93.74 294.06C94.12 294.04 94.22 293.96 94.22 293.68V289.4H86.42V287.98H94.22V286.74C95.38 286.18 96.7 285.28 97.7 284.4H89.7V283H99.2L99.52 282.92L100.54 283.68C99.28 284.98 97.5 286.32 95.76 287.24V287.98H103.52Z" fill="white"/>
<path d="M32.904 354H28.04L28.008 340.56L21.416 351.632H19.08L12.52 340.848V354H7.656V331.6H11.944L20.328 345.52L28.584 331.6H32.84L32.904 354ZM46.0585 354.256C40.5865 354.256 36.5865 350.576 36.5865 345.392C36.5865 340.208 40.5865 336.528 46.0585 336.528C51.5305 336.528 55.4985 340.208 55.4985 345.392C55.4985 350.576 51.5305 354.256 46.0585 354.256ZM46.0585 350.16C48.5545 350.16 50.4425 348.368 50.4425 345.392C50.4425 342.416 48.5545 340.624 46.0585 340.624C43.5625 340.624 41.6425 342.416 41.6425 345.392C41.6425 348.368 43.5625 350.16 46.0585 350.16ZM69.2993 336.528C73.3633 336.528 76.4353 338.896 76.4353 344.144V354H71.4433V344.912C71.4433 342.128 70.1633 340.848 67.9553 340.848C65.5553 340.848 63.8273 342.32 63.8273 345.488V354H58.8353V336.784H63.6033V338.8C64.9473 337.328 66.9633 336.528 69.2993 336.528ZM90.7203 349.648L92.0643 353.168C91.0403 353.904 89.5363 354.256 88.0003 354.256C83.9363 354.256 81.5683 352.176 81.5683 348.08V341.008H78.9123V337.168H81.5683V332.976H86.5603V337.168H90.8483V341.008H86.5603V348.016C86.5603 349.488 87.3603 350.288 88.7043 350.288C89.4403 350.288 90.1763 350.064 90.7203 349.648ZM100.659 354.256C97.7465 354.256 94.8025 353.456 93.2025 352.4L94.8665 348.816C96.4025 349.808 98.7385 350.48 100.851 350.48C103.155 350.48 104.019 349.872 104.019 348.912C104.019 346.096 93.6185 348.976 93.6185 342.096C93.6185 338.832 96.5625 336.528 101.587 336.528C103.955 336.528 106.579 337.072 108.211 338.032L106.547 341.584C104.851 340.624 103.155 340.304 101.587 340.304C99.3465 340.304 98.3865 341.008 98.3865 341.904C98.3865 344.848 108.787 342 108.787 348.784C108.787 351.984 105.811 354.256 100.659 354.256ZM128.731 345.456C128.731 345.84 128.667 346.384 128.635 346.8H115.611C116.091 348.944 117.915 350.256 120.539 350.256C122.363 350.256 123.675 349.712 124.859 348.592L127.515 351.472C125.915 353.296 123.515 354.256 120.411 354.256C114.459 354.256 110.587 350.512 110.587 345.392C110.587 340.24 114.523 336.528 119.771 336.528C124.827 336.528 128.731 339.92 128.731 345.456ZM119.803 340.304C117.531 340.304 115.899 341.68 115.547 343.888H124.027C123.675 341.712 122.043 340.304 119.803 340.304ZM136.822 339.056C138.038 337.392 140.086 336.528 142.742 336.528V341.136C142.326 341.104 142.006 341.072 141.622 341.072C138.87 341.072 137.046 342.576 137.046 345.872V354H132.054V336.784H136.822V339.056ZM150.478 339.056C151.694 337.392 153.742 336.528 156.398 336.528V341.136C155.982 341.104 155.662 341.072 155.278 341.072C152.526 341.072 150.702 342.576 150.702 345.872V354H145.71V336.784H150.478V339.056ZM166.217 336.528C171.465 336.528 174.505 338.96 174.505 344.176V354H169.833V351.856C168.905 353.424 167.113 354.256 164.585 354.256C160.553 354.256 158.153 352.016 158.153 349.04C158.153 346 160.297 343.888 165.545 343.888H169.513C169.513 341.744 168.233 340.496 165.545 340.496C163.721 340.496 161.833 341.104 160.585 342.096L158.793 338.608C160.681 337.264 163.465 336.528 166.217 336.528ZM165.833 350.896C167.497 350.896 168.937 350.128 169.513 348.56V346.8H166.089C163.753 346.8 163.017 347.664 163.017 348.816C163.017 350.064 164.073 350.896 165.833 350.896ZM188.783 349.648L190.127 353.168C189.103 353.904 187.599 354.256 186.063 354.256C181.999 354.256 179.631 352.176 179.631 348.08V341.008H176.975V337.168H179.631V332.976H184.623V337.168H188.911V341.008H184.623V348.016C184.623 349.488 185.423 350.288 186.767 350.288C187.503 350.288 188.239 350.064 188.783 349.648Z" fill="white"/>
<path d="M363.26 337L360.284 329.8H344.684L341.708 337H333.74L348.716 303.4H356.396L371.42 337H363.26ZM347.18 323.896H357.836L352.508 311.032L347.18 323.896ZM374.378 337V301.384H381.866V337H374.378ZM388.815 337V301.384H396.303V337H388.815ZM420.591 307.576C417.807 307.576 415.935 305.752 415.935 303.4C415.935 301.048 417.807 299.224 420.591 299.224C423.375 299.224 425.247 300.952 425.247 303.256C425.247 305.752 423.375 307.576 420.591 307.576ZM416.847 337V311.176H424.335V337H416.847ZM446.98 310.792C453.076 310.792 457.684 314.344 457.684 322.216V337H450.196V323.368C450.196 319.192 448.276 317.272 444.964 317.272C441.364 317.272 438.772 319.48 438.772 324.232V337H431.284V311.176H438.436V314.2C440.452 311.992 443.476 310.792 446.98 310.792ZM508.353 337H500.001L493.521 327.64H493.137H486.369V337H478.593V303.4H493.137C502.113 303.4 507.729 308.056 507.729 315.592C507.729 320.632 505.185 324.328 500.817 326.2L508.353 337ZM499.857 315.592C499.857 311.896 497.457 309.736 492.705 309.736H486.369V321.448H492.705C497.457 321.448 499.857 319.24 499.857 315.592ZM517.106 307.576C514.322 307.576 512.45 305.752 512.45 303.4C512.45 301.048 514.322 299.224 517.106 299.224C519.89 299.224 521.762 300.952 521.762 303.256C521.762 305.752 519.89 307.576 517.106 307.576ZM513.362 337V311.176H520.85V337H513.362ZM540.28 337.384C531.88 337.384 525.88 331.864 525.88 324.088C525.88 316.312 531.88 310.792 540.28 310.792C545.704 310.792 549.976 313.144 551.848 317.368L546.04 320.488C544.648 318.04 542.584 316.936 540.232 316.936C536.44 316.936 533.464 319.576 533.464 324.088C533.464 328.6 536.44 331.24 540.232 331.24C542.584 331.24 544.648 330.184 546.04 327.688L551.848 330.856C549.976 334.984 545.704 337.384 540.28 337.384ZM571.668 310.792C577.764 310.792 582.372 314.344 582.372 322.216V337H574.884V323.368C574.884 319.192 572.964 317.272 569.652 317.272C566.052 317.272 563.46 319.48 563.46 324.232V337H555.972V301.384H563.46V313.864C565.476 311.848 568.356 310.792 571.668 310.792ZM599.575 310.792C607.447 310.792 612.007 314.44 612.007 322.264V337H604.999V333.784C603.607 336.136 600.919 337.384 597.127 337.384C591.079 337.384 587.479 334.024 587.479 329.56C587.479 325 590.695 321.832 598.567 321.832H604.519C604.519 318.616 602.599 316.744 598.567 316.744C595.831 316.744 592.999 317.656 591.127 319.144L588.439 313.912C591.271 311.896 595.447 310.792 599.575 310.792ZM598.999 332.344C601.495 332.344 603.655 331.192 604.519 328.84V326.2H599.383C595.879 326.2 594.775 327.496 594.775 329.224C594.775 331.096 596.359 332.344 598.999 332.344ZM625.936 314.584C627.76 312.088 630.832 310.792 634.816 310.792V317.704C634.192 317.656 633.712 317.608 633.136 317.608C629.008 317.608 626.272 319.864 626.272 324.808V337H618.784V311.176H625.936V314.584ZM654.799 330.472L656.815 335.752C655.279 336.856 653.023 337.384 650.719 337.384C644.623 337.384 641.071 334.264 641.071 328.12V317.512H637.087V311.752H641.071V305.464H648.559V311.752H654.991V317.512H648.559V328.024C648.559 330.232 649.759 331.432 651.775 331.432C652.879 331.432 653.983 331.096 654.799 330.472Z" fill="white"/>
<path opacity="0.8" d="M23.98 482.56V484.02H15.78V488.46C15.78 489.52 15.46 489.96 14.72 490.2C13.98 490.44 12.7 490.48 10.6 490.46C10.48 490.04 10.2 489.38 9.96 488.98C11.64 489.04 13.2 489.02 13.66 489C14.1 489 14.28 488.86 14.28 488.44V484.02H6.06V482.56H14.28V479.32H7.4V477.9H14.28V474.82C12.08 475.06 9.82 475.2 7.76 475.3C7.7 474.9 7.52 474.32 7.38 473.98C12.1 473.76 17.9 473.24 20.9 472.3L22.02 473.48C20.32 474 18.14 474.38 15.78 474.66V477.9H22.86V479.32H15.78V482.56H23.98ZM29.68 490.02L28.48 489.44C29.28 488.54 29.96 487.04 30.34 485.9L31.52 486.38C31.1 487.56 30.48 489.06 29.68 490.02ZM32.38 486.2L33.54 486.06C33.94 487.16 34.26 488.62 34.26 489.52L33.04 489.7C33.06 488.78 32.76 487.32 32.38 486.2ZM34.88 486.2L35.96 485.9C36.58 486.84 37.14 488.1 37.32 488.92L36.18 489.28C36 488.46 35.48 487.16 34.88 486.2ZM31.9 484.06H42.88C42.88 484.06 42.86 484.48 42.84 484.68C42.62 488.08 42.4 489.46 41.9 489.96C41.58 490.34 41.2 490.46 40.66 490.48C40.16 490.54 39.2 490.52 38.22 490.46C38.18 490.06 38.04 489.52 37.8 489.16C38.78 489.24 39.68 489.26 40.02 489.24C40.36 489.26 40.54 489.24 40.7 489.08C40.98 488.76 41.18 487.76 41.36 485.28H30.6C29.46 486.22 28.14 487 26.82 487.6C26.64 487.3 26.2 486.7 25.94 486.42C27.98 485.62 30.04 484.34 31.3 482.78H28.94V477.14C30.58 476.8 32.48 476.3 33.6 475.84L34.52 476.78C33.32 477.24 31.74 477.62 30.28 477.92V479.26H34.16V480.32H30.28V481.68H39.68V480.32H35.88V479.26H39.68V477.94H35.54V476.84H41.04V482.78H32.94C32.64 483.22 32.3 483.66 31.9 484.06ZM40.12 487.88L39.08 488.42C38.78 487.76 38.06 486.82 37.4 486.16L38.38 485.7C39.06 486.32 39.82 487.24 40.12 487.88ZM35.92 473.9H43.46V477.4H42.04V475.2H27.94V477.4H26.56V473.9H34.2C34 473.44 33.76 473 33.54 472.6L35.02 472.18C35.34 472.7 35.68 473.36 35.92 473.9ZM57.7 479.62V476.32H53.4V475.02H57.7V472.26H59.16V475.02H63.64V476.32H59.16V479.62H63.24V480.9H53.84V479.62H57.7ZM51.14 478.76H48.98C48.76 480.42 48.14 481.66 46.56 482.44C46.4 482.12 46.02 481.68 45.72 481.48C46.92 480.92 47.42 480 47.62 478.76H46.18V477.56H51.14V476.38H47.12V472.6H48.42V475.14H51.14V472.26H52.54V482.06H51.14V478.76ZM61.74 484.4L62.84 485.18C61.78 485.92 60.46 486.64 59.3 487.2C60.68 488.16 62.36 488.84 64.26 489.24C63.96 489.52 63.56 490.08 63.4 490.44C59.48 489.48 56.54 487.3 54.9 484.06H54.84C54 484.74 52.94 485.38 51.76 485.94V488.76L56.44 487.8C56.4 488.16 56.38 488.68 56.38 488.98C50.98 490.22 50.34 490.4 49.94 490.62C49.84 490.3 49.56 489.72 49.34 489.44C49.72 489.28 50.3 488.84 50.3 487.96V486.56C49.08 487.04 47.82 487.42 46.64 487.66C46.48 487.34 46.1 486.84 45.82 486.56C48.24 486.1 50.96 485.2 52.84 484.06H46.1V482.88H54.42C54.22 482.46 53.98 481.98 53.76 481.6L55.18 481.18C55.52 481.7 55.86 482.34 56.1 482.88H63.92V484.06H56.34C56.86 484.94 57.52 485.74 58.34 486.46C59.5 485.86 60.88 485.04 61.74 484.4ZM73.5 475.1L72.82 476.24C72.18 475.7 71 474.88 69.96 474.22C68.94 475.58 67.68 476.8 66.4 477.68C66.3 477.38 65.94 476.68 65.72 476.38C67.3 475.38 68.94 473.8 69.84 472.12L71.04 472.52C70.94 472.76 70.8 472.98 70.66 473.22C71.66 473.82 72.86 474.6 73.5 475.1ZM68.42 477.08V476H71.8V477.08H68.42ZM71.42 479.42H68.34V481H71.42V479.42ZM68.34 483.84H71.42V482.12H68.34V483.84ZM70.34 485.8L71.38 485.38C72.1 486.64 73.04 488.38 73.44 489.36L72.34 489.92C72.18 489.48 71.94 488.94 71.64 488.34C67.72 489.94 67.18 490.24 66.82 490.5C66.74 490.18 66.52 489.54 66.3 489.24C66.6 489.12 67.02 488.84 67.02 488.12V478.28H72.74V484.98H68.34V488.4L71.12 487.32C70.88 486.78 70.6 486.28 70.34 485.8ZM83.94 476.28H79.62V479.12H83.26V486.46C83.26 487.1 83.16 487.48 82.72 487.7C82.32 487.92 81.72 487.94 80.78 487.94C80.76 487.56 80.56 487.02 80.38 486.68C80.96 486.7 81.5 486.7 81.64 486.7C81.84 486.68 81.9 486.64 81.9 486.46V480.46H79.62V490.52H78.2V480.46H75.84V488.08H74.52V479.12H78.2V476.28H75.84C75.32 477.56 74.7 478.68 74 479.58C73.78 479.34 73.18 478.9 72.86 478.7C74.16 477.16 75.14 474.74 75.64 472.26L77.04 472.5C76.84 473.34 76.6 474.14 76.34 474.92H83.94V476.28ZM88.12 475.78V478.44H86.66V474.36H94.54C94.26 473.78 93.88 473.12 93.5 472.6L94.92 472.12C95.44 472.8 95.98 473.68 96.26 474.36H103.32V478.44H101.8V475.78H88.12ZM103.52 482.98V484.4H95.76V488.7C95.76 489.58 95.54 490.02 94.84 490.24C94.14 490.48 93.1 490.5 91.44 490.5C91.32 490.08 91.02 489.42 90.76 489.04C92.12 489.08 93.4 489.08 93.74 489.06C94.12 489.04 94.22 488.96 94.22 488.68V484.4H86.42V482.98H94.22V481.74C95.38 481.18 96.7 480.28 97.7 479.4H89.7V478H99.2L99.52 477.92L100.54 478.68C99.28 479.98 97.5 481.32 95.76 482.24V482.98H103.52Z" fill="white"/>
<path d="M30.84 534.6C32.44 533.48 34.16 532.12 34.72 530.16C34.96 529.36 35 528.4 34.64 527.6C34.24 526.76 33.44 526.16 32.6 525.8C30.56 524.96 28.16 525.08 26.04 525.48C23.76 525.92 21.6 526.72 19.44 527.56C18 528.16 16.6 528.76 15.24 529.44C14.68 530.84 14.12 532.24 13.56 533.6C10.28 541.96 7.12 550.36 4.08 558.8C3.88 559.32 3.36 559.68 2.8 559.52C2.28 559.36 1.88 558.76 2.08 558.24C2.92 555.88 3.8 553.52 4.64 551.16C7.16 544.4 9.76 537.68 12.4 531C9.08 532.92 6 535.24 3.32 538C2.4 538.96 0.92 537.48 1.88 536.52C5.24 533.04 9.28 530.2 13.6 527.96C13.88 527.32 14.12 526.68 14.36 526.04C14.6 525.52 15.04 525.16 15.64 525.32C16.16 525.48 16.6 526.08 16.36 526.6V526.64C17.96 525.92 19.56 525.28 21.16 524.72C23.6 523.88 26.12 523.16 28.68 523.12C31.04 523.08 33.8 523.56 35.52 525.32C37.24 527.08 37.28 529.68 36.32 531.8C35.32 533.96 33.32 535.4 31.44 536.68C29.4 538.04 27.28 539.32 25.08 540.44C20.96 542.6 16.6 544.28 12.12 545.56C13.2 547.56 14.32 549.6 15.56 551.52C18.12 555.56 21.4 559.32 25.84 561.4C29.8 563.24 34.68 563.68 38.56 561.36C39.68 560.68 40.72 562.48 39.6 563.16C37.2 564.56 34.44 565.16 31.68 565C26.56 564.68 21.92 562.16 18.4 558.52C14.6 554.68 12.04 549.84 9.56 545.08C9 544.04 10.32 543.12 11.08 543.68C15.88 542.4 20.52 540.56 24.92 538.2C26.96 537.08 28.92 535.92 30.84 534.6ZM48.8131 547.16C49.4531 546.12 50.5331 547.2 50.0131 548.04C48.0931 551.12 36.7331 559.08 38.1731 549.64C38.2131 549.56 38.2131 549.52 38.2531 549.44C38.1731 549.48 38.1331 549.56 38.0931 549.6C36.9331 551.12 35.5731 552.44 34.0131 553.52C32.4131 554.56 30.0531 555.28 28.8931 553.76C27.7331 552.4 28.2931 550.16 28.7731 548.48C29.3331 546.48 30.1731 544.56 31.2931 542.72C32.0531 541.56 33.6931 542.6 32.9731 543.8C31.8931 545.48 31.1331 547.32 30.6131 549.2C30.4531 550 29.7731 552.16 30.8131 552.52C31.3331 552.72 32.0531 552.36 32.5731 552.08C33.2131 551.72 33.7731 551.28 34.3731 550.8C36.7331 548.72 38.3331 545.92 39.8931 543.24C40.1731 542.76 40.8131 542.64 41.2531 542.8C41.7331 543 41.8531 543.52 41.6931 544.04C41.2531 545.72 40.8131 547.44 40.4131 549.12C38.8531 555.84 48.0531 548.48 48.8131 547.16ZM66.7844 545.92C68.3844 541.48 68.0644 540.36 66.9044 540.4C63.8244 540.52 60.3044 548.88 58.6644 552.24C58.2244 553.12 56.9044 552.32 56.9044 551.52C56.9044 550.72 56.0644 544.4 55.1444 544.48C54.5444 544.52 54.0644 545.24 53.7044 545.72C51.7444 548.36 50.1444 551.32 48.9444 554.4C48.7044 554.92 48.2244 555.28 47.6644 555.12C47.1444 554.96 46.7444 554.36 46.9444 553.84C48.0644 550.48 48.8244 547 49.1844 543.48C49.2644 542.92 49.6244 542.44 50.2244 542.44C50.7444 542.44 51.3444 542.92 51.2644 543.48C51.1844 544.36 51.0644 545.24 50.9444 546.08C51.1844 545.72 51.4244 545.32 51.7044 544.96C52.5844 543.72 53.6644 542.36 55.3444 542.4C57.9844 542.52 58.1844 546.04 58.4644 548.2C60.4644 544.36 64.3044 537.68 67.7844 537.76C69.9844 537.8 71.1844 540.12 68.5444 546.56C67.1844 549.84 67.2644 553.92 72.0644 551.2C74.1844 550 76.3444 547.96 76.7044 547.16C77.1844 546.08 78.9444 546.68 78.2244 548.04C77.5844 549.28 75.3444 551.32 72.9444 552.72C66.3444 556.64 64.1444 553.32 66.7844 545.92ZM96.1094 545.96C97.4294 546 97.4294 548.08 96.1094 548.04C93.9894 547.96 91.9094 548.08 89.8294 548.44C87.6694 550.36 84.6694 551.44 81.8294 551.68C81.0694 551.72 80.7094 550.96 80.8294 550.36C81.0294 549.04 82.3094 548.44 83.4294 548.04C84.7494 547.52 86.1094 547.12 87.4694 546.76C87.9494 546.68 88.3894 546.6 88.8694 546.48C89.3894 545.96 89.8294 545.36 90.1094 544.64C90.5494 543.56 90.3494 542.36 89.3494 541.68C88.4294 541.08 87.2294 541 86.1894 541.36C84.8294 541.8 83.7494 542.88 82.8694 544C81.8294 545.28 80.9494 546.72 80.1894 548.16C78.5094 551.2 77.3094 554.4 76.0694 557.64C74.7094 561.16 73.3894 564.68 72.1094 568.24C71.9094 568.76 71.4294 569.12 70.8294 568.96C70.3094 568.84 69.9494 568.24 70.1094 567.68C70.8294 565.6 71.5094 563.48 72.1894 561.36C74.6294 553.92 78.2294 541.84 80.4294 534.32C80.7894 533.04 82.7894 533.6 82.4294 534.88C81.8694 536.84 79.9494 543.44 79.3494 545.44C79.6294 544.96 79.9494 544.48 80.2694 544.04C82.1494 541.28 84.9094 538.52 88.5494 539.2C90.0294 539.44 91.3894 540.36 92.0294 541.72C92.6694 543.16 92.4294 544.72 91.7094 546.08C93.1894 545.96 94.6294 545.92 96.1094 545.96ZM103.816 547.16C104.296 546.08 106.096 546.88 105.576 547.88C104.576 550.2 102.816 552.6 100.696 554.24C99.3356 555.24 96.4556 556.68 95.3756 554.32C94.9356 553.36 94.9356 551.76 95.1756 550.08C95.4956 547.64 96.2556 544.96 96.8156 543.48C97.0156 542.96 97.4956 542.6 98.0956 542.76C98.5756 542.92 99.0156 543.52 98.8156 544.04C98.2956 545.36 97.2956 548.16 97.0156 550.52C96.6156 553.2 97.0556 554.36 99.4556 552.52C101.136 551.04 102.856 549.48 103.816 547.16ZM98.8156 539.24C98.5756 539.2 98.3356 539 98.2156 538.76C98.0556 538.52 98.0156 538.24 98.0956 537.96C98.3356 537.2 98.5356 536.44 98.7356 535.68C98.8156 535.44 99.0156 535.24 99.2156 535.08C99.4556 534.92 99.7756 534.92 100.016 534.96C100.296 535.04 100.536 535.24 100.656 535.44C100.776 535.68 100.816 536 100.736 536.24C100.536 537 100.336 537.76 100.096 538.52C100.016 538.8 99.8556 539 99.6156 539.16C99.3756 539.28 99.0956 539.32 98.8156 539.24Z" fill="white"/>
<path d="M363.716 457.94C365.556 456.652 367.534 455.088 368.178 452.834C368.454 451.914 368.5 450.81 368.086 449.89C367.626 448.924 366.706 448.234 365.74 447.82C363.394 446.854 360.634 446.992 358.196 447.452C355.574 447.958 353.09 448.878 350.606 449.844C348.95 450.534 347.34 451.224 345.776 452.006C345.132 453.616 344.488 455.226 343.844 456.79C340.072 466.404 336.438 476.064 332.942 485.77C332.712 486.368 332.114 486.782 331.47 486.598C330.872 486.414 330.412 485.724 330.642 485.126C331.608 482.412 332.62 479.698 333.586 476.984C336.484 469.21 339.474 461.482 342.51 453.8C338.692 456.008 335.15 458.676 332.068 461.85C331.01 462.954 329.308 461.252 330.412 460.148C334.276 456.146 338.922 452.88 343.89 450.304C344.212 449.568 344.488 448.832 344.764 448.096C345.04 447.498 345.546 447.084 346.236 447.268C346.834 447.452 347.34 448.142 347.064 448.74V448.786C348.904 447.958 350.744 447.222 352.584 446.578C355.39 445.612 358.288 444.784 361.232 444.738C363.946 444.692 367.12 445.244 369.098 447.268C371.076 449.292 371.122 452.282 370.018 454.72C368.868 457.204 366.568 458.86 364.406 460.332C362.06 461.896 359.622 463.368 357.092 464.656C352.354 467.14 347.34 469.072 342.188 470.544C343.43 472.844 344.718 475.19 346.144 477.398C349.088 482.044 352.86 486.368 357.966 488.76C362.52 490.876 368.132 491.382 372.594 488.714C373.882 487.932 375.078 490.002 373.79 490.784C371.03 492.394 367.856 493.084 364.682 492.9C358.794 492.532 353.458 489.634 349.41 485.448C345.04 481.032 342.096 475.466 339.244 469.992C338.6 468.796 340.118 467.738 340.992 468.382C346.512 466.91 351.848 464.794 356.908 462.08C359.254 460.792 361.508 459.458 363.716 457.94ZM371.091 472.384C371.643 471.142 373.713 472.062 373.115 473.212C371.965 475.88 369.941 478.64 367.503 480.526C365.939 481.676 362.627 483.332 361.385 480.618C360.879 479.514 360.879 477.674 361.155 475.742C361.523 472.936 362.397 469.854 363.041 468.152C363.271 467.554 363.823 467.14 364.513 467.324C365.065 467.508 365.571 468.198 365.341 468.796C364.743 470.314 363.593 473.534 363.271 476.248C362.811 479.33 363.317 480.664 366.077 478.548C368.009 476.846 369.987 475.052 371.091 472.384ZM365.341 463.276C365.065 463.23 364.789 463 364.651 462.724C364.467 462.448 364.421 462.126 364.513 461.804C364.789 460.93 365.019 460.056 365.249 459.182C365.341 458.906 365.571 458.676 365.801 458.492C366.077 458.308 366.445 458.308 366.721 458.354C367.043 458.446 367.319 458.676 367.457 458.906C367.595 459.182 367.641 459.55 367.549 459.826C367.319 460.7 367.089 461.574 366.813 462.448C366.721 462.77 366.537 463 366.261 463.184C365.985 463.322 365.663 463.368 365.341 463.276ZM376.252 469.302C374.688 470.452 371.1 475.236 372.71 477.444C373.216 478.088 374.044 478.226 374.826 478.18C376.62 478.134 378.506 477.26 380.116 476.432C381.818 475.466 384.762 473.212 386.096 471.786C387.108 470.636 388.81 472.338 387.798 473.488C385.866 475.558 382.094 478.226 379.472 479.33C377.31 480.296 374.596 481.17 372.296 480.066C366.5 477.214 372.02 468.106 376.16 466.634C378.368 465.852 381.082 466.082 382.692 467.968C383.106 468.428 383.152 469.164 382.692 469.624C382.232 470.084 381.404 470.13 380.99 469.624C379.748 468.198 377.724 468.244 376.252 469.302ZM406.758 472.154C407.678 471.004 409.15 472.246 408.276 473.626C406.712 476.11 396.776 483.01 395.166 476.34C394.844 475.006 394.798 473.58 394.844 472.154C394.844 469.164 392.958 471.74 391.992 472.936C388.772 476.754 386.196 481.17 384.494 485.862C383.942 487.288 381.826 486.736 382.194 485.218C382.93 482.044 383.804 478.916 384.678 475.834C387.852 464.748 391.762 453.938 395.672 443.082C395.856 442.484 396.454 442.07 397.144 442.254C397.696 442.438 398.156 443.128 397.972 443.726C396.868 446.762 395.764 449.844 394.66 452.88C392.084 460.24 389.6 467.6 387.392 475.052C388.404 473.626 389.462 472.2 390.612 470.866C391.394 469.946 392.222 469.026 393.326 468.566C394.522 468.014 395.948 468.106 396.73 469.256C397.512 470.36 397.19 471.832 397.19 473.074C397.006 481.124 405.01 474.316 406.758 472.154ZM419.689 481.952C417.297 481.86 417.021 479.192 417.205 477.306C417.297 476.478 417.435 475.604 417.619 474.822C417.527 474.914 417.389 475.052 417.297 475.144C416.101 476.294 414.813 477.352 413.479 478.318C412.191 479.238 410.857 480.204 409.339 480.756C407.821 481.308 405.935 481.17 404.739 479.974C403.497 478.686 403.681 476.846 404.463 475.42C405.751 472.752 408.741 470.544 411.501 469.118C414.307 467.6 417.481 466.772 420.655 466.726C420.747 466.726 420.839 466.726 420.931 466.772C421.207 466.312 421.437 465.898 421.713 465.484C422.449 464.104 424.473 465.3 423.737 466.68C422.771 468.428 421.805 470.176 421.023 472.016C420.379 473.58 419.827 475.282 419.643 476.938C418.677 483.056 427.739 474.316 428.797 472.522C429.349 471.602 429.901 471.372 430.453 471.74C430.959 472.154 431.005 472.89 430.683 473.442C429.073 475.972 423.139 482.136 419.689 481.952ZM410.673 477.352C414.031 475.19 416.975 472.43 419.321 469.21C416.837 469.44 414.399 470.222 412.191 471.418C410.075 472.614 407.683 474.362 406.487 476.616C406.027 477.536 406.119 478.548 407.361 478.686C408.557 478.824 409.753 477.95 410.673 477.352ZM441.005 465.3C441.971 465.76 442.431 466.772 442.339 467.784C442.293 468.888 441.879 469.946 441.603 471.004C441.327 472.2 441.005 473.35 440.683 474.546C440.315 476.018 438.015 475.42 438.383 473.902C438.705 472.752 438.981 471.602 439.303 470.498C440.085 467.37 439.947 467.186 437.095 469.21C435.807 470.222 434.611 471.326 433.507 472.522C431.667 474.546 430.103 476.846 428.953 479.33C428.677 479.928 428.401 480.526 428.125 481.124C427.573 482.366 425.457 481.446 425.963 480.204C428.171 476.11 429.827 470.176 430.931 465.346C431.299 463.828 433.599 464.472 433.231 465.944C432.909 467.508 432.495 469.072 432.035 470.636C433.737 468.796 435.669 467.186 437.785 465.852C438.705 465.254 439.901 464.794 441.005 465.3ZM456.959 473.718C455.487 475.834 452.773 479.192 450.519 480.986C449.277 481.998 447.943 482.78 446.793 482.55C445.919 482.412 445.183 481.768 444.769 480.986C443.067 477.95 444.631 471.464 445.551 467.968C446.701 463.322 448.311 458.814 450.013 454.398C447.299 454.674 444.539 454.996 441.825 455.318C441.181 455.364 440.629 454.674 440.629 454.122C440.629 453.432 441.181 452.972 441.825 452.926L450.979 451.868C452.543 448.004 454.199 444.14 455.993 440.368C456.269 439.77 457.143 439.632 457.649 439.954C458.247 440.276 458.339 440.966 458.063 441.564C456.499 444.876 455.027 448.188 453.693 451.592L465.699 450.258C466.343 450.166 466.895 450.856 466.895 451.454C466.895 452.144 466.343 452.558 465.699 452.65L452.681 454.076C452.497 454.628 452.267 455.226 452.037 455.778C450.427 460.01 448.909 464.288 447.805 468.704C447.253 470.866 446.839 473.028 446.609 475.236C445.919 480.158 447.483 480.204 449.415 478.686C451.531 477.03 453.509 474.546 455.119 472.2C455.487 471.694 456.315 471.694 456.775 472.062C457.327 472.476 457.327 473.212 456.959 473.718Z" fill="white"/>
<path d="M332.252 583.7C331.792 585.172 329.492 584.528 329.952 583.056C330.826 580.342 331.746 577.674 332.712 575.006C336.162 565.668 340.21 556.56 344.856 547.728C345.408 546.716 347.156 547.13 347.064 548.326C346.696 553.846 346.834 559.366 347.57 564.84C348.72 575.236 352.584 571.832 357.736 567.232C363.44 561.942 368.822 551.868 374.848 545.014C375.538 544.232 377.47 545.474 377.24 546.44C373.376 557.066 368.04 574.316 364.176 588.3C363.762 589.772 361.462 589.128 361.876 587.656C365.28 574.96 369.282 563.138 373.146 550.672C369.098 556.468 364.084 564.242 359.3 568.796C358.288 569.762 357.23 570.728 356.034 571.648C354.332 572.936 352.262 574.454 350.054 574.086C345.914 573.396 345.454 567.186 345.086 563.874C344.672 560.47 344.488 557.066 344.488 553.662C344.074 554.582 343.614 555.456 343.2 556.33C338.922 565.208 335.288 574.362 332.252 583.7ZM384.784 581.952C382.392 581.86 382.116 579.192 382.3 577.306C382.392 576.478 382.53 575.604 382.714 574.822C382.622 574.914 382.484 575.052 382.392 575.144C381.196 576.294 379.908 577.352 378.574 578.318C377.286 579.238 375.952 580.204 374.434 580.756C372.916 581.308 371.03 581.17 369.834 579.974C368.592 578.686 368.776 576.846 369.558 575.42C370.846 572.752 373.836 570.544 376.596 569.118C379.402 567.6 382.576 566.772 385.75 566.726C385.842 566.726 385.934 566.726 386.026 566.772C386.302 566.312 386.532 565.898 386.808 565.484C387.544 564.104 389.568 565.3 388.832 566.68C387.866 568.428 386.9 570.176 386.118 572.016C385.474 573.58 384.922 575.282 384.738 576.938C383.772 583.056 392.834 574.316 393.892 572.522C394.444 571.602 394.996 571.372 395.548 571.74C396.054 572.154 396.1 572.89 395.778 573.442C394.168 575.972 388.234 582.136 384.784 581.952ZM375.768 577.352C379.126 575.19 382.07 572.43 384.416 569.21C381.932 569.44 379.494 570.222 377.286 571.418C375.17 572.614 372.778 574.362 371.582 576.616C371.122 577.536 371.214 578.548 372.456 578.686C373.652 578.824 374.848 577.95 375.768 577.352ZM415.531 572.476C416.313 571.188 418.245 572.062 417.509 573.396C414.979 578.088 406.653 584.206 402.283 578.778C401.271 577.49 400.397 576.11 399.155 575.006C396.993 580.894 394.785 586.782 392.439 592.67C392.209 593.268 391.657 593.682 391.013 593.498C390.415 593.314 389.909 592.624 390.139 592.026C391.657 588.208 393.129 584.39 394.555 580.572C395.429 578.272 396.257 575.972 397.085 573.626C396.395 573.304 395.659 573.028 394.877 572.798C393.911 572.568 393.681 571.096 394.601 570.636C396.027 569.9 397.453 569.164 398.925 568.474C402.237 558.906 405.319 549.2 408.079 539.494C408.493 537.976 410.793 538.62 410.379 540.092C409.275 544.048 408.079 547.958 406.883 551.868C405.319 556.974 403.663 562.034 401.915 567.094C405.273 565.576 408.677 564.15 412.127 562.862C412.771 562.632 413.461 563.138 413.599 563.69C413.783 564.38 413.369 564.932 412.771 565.162C408.723 566.68 404.721 568.336 400.857 570.222C400.535 571.004 400.259 571.832 399.983 572.614C400.351 572.89 400.673 573.166 400.995 573.442C401.731 574.086 402.375 574.868 402.927 575.65C403.479 576.432 403.985 577.168 404.675 577.812C407.895 580.802 413.875 575.144 415.531 572.476ZM431.303 573.35C429.647 575.328 420.999 583.424 415.571 579.928C414.099 578.962 413.915 577.076 414.191 575.512C414.697 572.43 416.859 569.624 419.527 568.06C420.769 567.37 422.287 566.772 423.759 567.232C425.553 567.784 426.059 569.762 425.001 571.28C423.069 574.04 419.757 575.926 416.537 576.754C416.491 576.8 416.491 576.8 416.445 576.8C416.491 578.87 419.895 578.824 423.253 576.984C426.151 575.42 429.095 572.292 429.601 571.694C430.015 571.188 430.843 571.234 431.303 571.694C431.763 572.154 431.717 572.89 431.303 573.35ZM419.343 571.142C418.423 571.924 417.733 572.89 417.181 573.948C417.181 573.994 417.135 574.04 417.135 574.086C418.147 573.718 419.113 573.258 420.033 572.66C420.585 572.292 421.091 571.878 421.597 571.464C422.103 570.958 422.747 570.452 423.069 569.808C423.115 569.716 423.161 569.578 423.207 569.532C423.161 569.532 423.115 569.532 423.069 569.532C422.793 569.44 422.333 569.486 422.011 569.532C421.045 569.808 420.079 570.452 419.343 571.142ZM452.49 572.384C453.042 571.142 455.112 572.062 454.514 573.212C453.364 575.88 451.34 578.64 448.902 580.526C447.338 581.676 444.026 583.332 442.784 580.618C442.278 579.514 442.278 577.674 442.554 575.742C442.922 572.936 443.796 569.854 444.44 568.152C444.67 567.554 445.222 567.14 445.912 567.324C446.464 567.508 446.97 568.198 446.74 568.796C446.142 570.314 444.992 573.534 444.67 576.248C444.21 579.33 444.716 580.664 447.476 578.548C449.408 576.846 451.386 575.052 452.49 572.384ZM446.74 563.276C446.464 563.23 446.188 563 446.05 562.724C445.866 562.448 445.82 562.126 445.912 561.804C446.188 560.93 446.418 560.056 446.648 559.182C446.74 558.906 446.97 558.676 447.2 558.492C447.476 558.308 447.844 558.308 448.12 558.354C448.442 558.446 448.718 558.676 448.856 558.906C448.994 559.182 449.04 559.55 448.948 559.826C448.718 560.7 448.488 561.574 448.212 562.448C448.12 562.77 447.936 563 447.66 563.184C447.384 563.322 447.062 563.368 446.74 563.276ZM464.551 573.718C463.079 575.834 460.365 579.192 458.111 580.986C456.869 581.998 455.535 582.78 454.385 582.55C453.511 582.412 452.775 581.768 452.361 580.986C450.659 577.95 452.223 571.464 453.143 567.968C454.293 563.322 455.903 558.814 457.605 554.398C454.891 554.674 452.131 554.996 449.417 555.318C448.773 555.364 448.221 554.674 448.221 554.122C448.221 553.432 448.773 552.972 449.417 552.926L458.571 551.868C460.135 548.004 461.791 544.14 463.585 540.368C463.861 539.77 464.735 539.632 465.241 539.954C465.839 540.276 465.931 540.966 465.655 541.564C464.091 544.876 462.619 548.188 461.285 551.592L473.291 550.258C473.935 550.166 474.487 550.856 474.487 551.454C474.487 552.144 473.935 552.558 473.291 552.65L460.273 554.076C460.089 554.628 459.859 555.226 459.629 555.778C458.019 560.01 456.501 564.288 455.397 568.704C454.845 570.866 454.431 573.028 454.201 575.236C453.511 580.158 455.075 580.204 457.007 578.686C459.123 577.03 461.101 574.546 462.711 572.2C463.079 571.694 463.907 571.694 464.367 572.062C464.919 572.476 464.919 573.212 464.551 573.718ZM504.959 576.524C504.361 578.502 502.981 580.158 501.463 581.538C499.899 582.918 498.013 583.93 496.127 584.758C494.103 585.724 492.079 586.414 489.963 586.92C487.893 587.38 485.731 587.656 483.661 587.656C481.453 587.702 479.245 587.656 477.221 586.92C475.335 586.368 473.679 585.08 473.035 583.102C472.391 581.216 472.713 579.008 474.277 577.766C475.519 576.8 476.945 578.778 475.703 579.79C475.243 580.158 475.059 580.71 475.105 581.262C475.151 585.54 481.453 585.356 484.167 585.218C488.353 585.034 492.539 583.884 496.311 581.952C498.059 581.078 499.761 579.974 501.049 578.502C502.199 577.214 503.119 575.558 502.889 573.718C502.659 572.062 501.325 570.912 499.991 570.176C498.243 569.256 496.219 568.842 494.333 568.474C489.917 567.646 485.041 567.278 481.177 564.656C479.291 563.46 478.187 561.436 478.371 559.09C478.601 556.974 479.889 554.996 481.269 553.524C486.743 547.59 494.701 544.508 502.521 544.968C504.361 545.106 506.339 545.29 508.087 545.98C509.651 546.578 511.353 547.774 511.813 549.522C512.457 551.776 510.801 553.662 509.375 555.226C507.811 556.974 506.063 558.4 504.223 559.688C502.935 560.608 501.509 558.538 502.797 557.71C503.671 557.112 504.545 556.422 505.373 555.732C506.201 554.996 506.983 554.26 507.719 553.432C508.363 552.742 509.237 551.96 509.513 551.04C509.697 550.396 509.467 549.89 509.099 549.476C508.547 548.924 507.811 548.556 507.121 548.234C505.511 547.636 503.579 547.498 501.785 547.406C499.945 547.314 498.059 547.544 496.265 547.866C492.539 548.602 489.043 550.166 486.053 552.466C484.489 553.616 483.017 554.996 481.913 556.606C480.947 558.032 480.211 560.01 481.315 561.574C481.913 562.356 482.787 562.816 483.615 563.23C484.581 563.736 485.639 564.15 486.743 564.472C488.905 565.07 491.159 565.392 493.367 565.806C497.093 566.404 501.877 567.186 504.223 570.682C505.327 572.43 505.557 574.5 504.959 576.524ZM517.941 572.384C518.493 571.142 520.563 572.062 519.965 573.212C518.815 575.88 516.791 578.64 514.353 580.526C512.789 581.676 509.477 583.332 508.235 580.618C507.729 579.514 507.729 577.674 508.005 575.742C508.373 572.936 509.247 569.854 509.891 568.152C510.121 567.554 510.673 567.14 511.363 567.324C511.915 567.508 512.421 568.198 512.191 568.796C511.593 570.314 510.443 573.534 510.121 576.248C509.661 579.33 510.167 580.664 512.927 578.548C514.859 576.846 516.837 575.052 517.941 572.384ZM512.191 563.276C511.915 563.23 511.639 563 511.501 562.724C511.317 562.448 511.271 562.126 511.363 561.804C511.639 560.93 511.869 560.056 512.099 559.182C512.191 558.906 512.421 558.676 512.651 558.492C512.927 558.308 513.295 558.308 513.571 558.354C513.893 558.446 514.169 558.676 514.307 558.906C514.445 559.182 514.491 559.55 514.399 559.826C514.169 560.7 513.939 561.574 513.663 562.448C513.571 562.77 513.387 563 513.111 563.184C512.835 563.322 512.513 563.368 512.191 563.276ZM538.65 570.958C540.49 565.852 540.122 564.564 538.788 564.61C535.246 564.748 531.198 574.362 529.312 578.226C528.806 579.238 527.288 578.318 527.288 577.398C527.288 576.478 526.322 569.21 525.264 569.302C524.574 569.348 524.022 570.176 523.608 570.728C521.354 573.764 519.514 577.168 518.134 580.71C517.858 581.308 517.306 581.722 516.662 581.538C516.064 581.354 515.604 580.664 515.834 580.066C517.122 576.202 517.996 572.2 518.41 568.152C518.502 567.508 518.916 566.956 519.606 566.956C520.204 566.956 520.894 567.508 520.802 568.152C520.71 569.164 520.572 570.176 520.434 571.142C520.71 570.728 520.986 570.268 521.308 569.854C522.32 568.428 523.562 566.864 525.494 566.91C528.53 567.048 528.76 571.096 529.082 573.58C531.382 569.164 535.798 561.482 539.8 561.574C542.33 561.62 543.71 564.288 540.674 571.694C539.11 575.466 539.202 580.158 544.722 577.03C547.16 575.65 549.644 573.304 550.058 572.384C550.61 571.142 552.634 571.832 551.806 573.396C551.07 574.822 548.494 577.168 545.734 578.778C538.144 583.286 535.614 579.468 538.65 570.958ZM572.373 571.004C573.891 571.05 573.891 573.442 572.373 573.396C569.935 573.304 567.543 573.442 565.151 573.856C562.667 576.064 559.217 577.306 555.951 577.582C555.077 577.628 554.663 576.754 554.801 576.064C555.031 574.546 556.503 573.856 557.791 573.396C559.309 572.798 560.873 572.338 562.437 571.924C562.989 571.832 563.495 571.74 564.047 571.602C564.645 571.004 565.151 570.314 565.473 569.486C565.979 568.244 565.749 566.864 564.599 566.082C563.541 565.392 562.161 565.3 560.965 565.714C559.401 566.22 558.159 567.462 557.147 568.75C555.951 570.222 554.939 571.878 554.065 573.534C552.133 577.03 550.753 580.71 549.327 584.436C547.763 588.484 546.245 592.532 544.773 596.626C544.543 597.224 543.991 597.638 543.301 597.454C542.703 597.316 542.289 596.626 542.473 595.982C543.301 593.59 544.083 591.152 544.865 588.714C547.671 580.158 551.811 566.266 554.341 557.618C554.755 556.146 557.055 556.79 556.641 558.262C555.997 560.516 553.789 568.106 553.099 570.406C553.421 569.854 553.789 569.302 554.157 568.796C556.319 565.622 559.493 562.448 563.679 563.23C565.381 563.506 566.945 564.564 567.681 566.128C568.417 567.784 568.141 569.578 567.313 571.142C569.015 571.004 570.671 570.958 572.373 571.004ZM583.26 572.384C583.858 571.326 585.606 572.154 585.1 573.35C583.536 577.076 570.978 588.622 571.116 577.766C571.162 575.788 571.576 573.028 572.036 571.142C574.428 560.424 576.636 554.582 580.362 542.806C580.822 541.38 583.122 541.978 582.662 543.45C580.27 551.086 577.648 558.538 575.348 566.772C574.52 569.808 573.83 572.844 573.37 575.88C572.312 582.964 580.316 577.72 583.26 572.384ZM599.086 573.35C597.43 575.328 588.782 583.424 583.354 579.928C581.882 578.962 581.698 577.076 581.974 575.512C582.48 572.43 584.642 569.624 587.31 568.06C588.552 567.37 590.07 566.772 591.542 567.232C593.336 567.784 593.842 569.762 592.784 571.28C590.852 574.04 587.54 575.926 584.32 576.754C584.274 576.8 584.274 576.8 584.228 576.8C584.274 578.87 587.678 578.824 591.036 576.984C593.934 575.42 596.878 572.292 597.384 571.694C597.798 571.188 598.626 571.234 599.086 571.694C599.546 572.154 599.5 572.89 599.086 573.35ZM587.126 571.142C586.206 571.924 585.516 572.89 584.964 573.948C584.964 573.994 584.918 574.04 584.918 574.086C585.93 573.718 586.896 573.258 587.816 572.66C588.368 572.292 588.874 571.878 589.38 571.464C589.886 570.958 590.53 570.452 590.852 569.808C590.898 569.716 590.944 569.578 590.99 569.532C590.944 569.532 590.898 569.532 590.852 569.532C590.576 569.44 590.116 569.486 589.794 569.532C588.828 569.808 587.862 570.452 587.126 571.142Z" fill="white"/>
</svg>
