<svg width="74" height="62" viewBox="0 0 74 62" fill="none" xmlns="http://www.w3.org/2000/svg">
<path d="M70.5136 24.6845L70.4105 25.6792L70.4946 25.6879L70.5789 25.6824L70.5136 24.6845ZM49.1875 1H50.1875V0H49.1875V1ZM72.8981 24.6067H73.8981V23.6067H72.8981V24.6067ZM72.8981 24.8103H71.8981V25.8103H72.8981V24.8103ZM72.9964 24.8103H73.9964V23.8103H72.9964V24.8103ZM72.9964 24.8126H71.9964V25.8105L72.9943 25.8126L72.9964 24.8126ZM73.0001 24.8126H74.0001V23.8147L73.0022 23.8126L73.0001 24.8126ZM73.0001 36.8126V37.8126H74.0001V36.8126H73.0001ZM72.5904 36.8103L72.6016 35.8103H72.5904V36.8103ZM69.763 36.8103V35.8103H69.6978L69.6331 35.8188L69.763 36.8103ZM49.0854 60.4193V61.4193H50.0854V60.4193H49.0854ZM37.0854 60.4193H36.0854V61.4193H37.0854V60.4193ZM45.9605 36.8103L46.7125 37.4694L48.1667 35.8103H45.9605V36.8103ZM1 36.8103H0V37.8103H1V36.8103ZM1 24.8103V23.8103H0V24.8103H1ZM46.2387 24.8103V25.8103H48.4686L46.9854 24.1452L46.2387 24.8103ZM37.1875 1V0H36.1875V1H37.1875ZM70.6166 23.6898C59.1559 22.5022 50.1875 12.8382 50.1875 1H48.1875C48.1875 13.8767 57.9442 24.3873 70.4105 25.6792L70.6166 23.6898ZM72.8981 23.6067C72.0748 23.6067 71.2579 23.6336 70.4482 23.6866L70.5789 25.6824C71.3451 25.6322 72.1184 25.6067 72.8981 25.6067V23.6067ZM73.8981 24.8103V24.6067H71.8981V24.8103H73.8981ZM72.8981 25.8103H72.9964V23.8103H72.8981V25.8103ZM71.9964 24.8103V24.8126H73.9964V24.8103H71.9964ZM73.0022 23.8126L72.9985 23.8126L72.9943 25.8126L72.998 25.8126L73.0022 23.8126ZM74.0001 36.8126V24.8126H72.0001V36.8126H74.0001ZM72.5791 37.8102C72.7193 37.8118 72.8596 37.8126 73.0001 37.8126V35.8126C72.8671 35.8126 72.7342 35.8119 72.6016 35.8104L72.5791 37.8102ZM72.5904 35.8103H69.763V37.8103H72.5904V35.8103ZM50.0854 60.4193C50.0854 48.856 58.6793 39.2706 69.8929 37.8018L69.6331 35.8188C57.4327 37.4168 48.0854 47.843 48.0854 60.4193H50.0854ZM37.0854 61.4193H49.0854V59.4193H37.0854V61.4193ZM45.2085 36.1512C39.5234 42.6374 36.0854 51.1371 36.0854 60.4193H38.0854C38.0854 51.6396 41.3354 43.6043 46.7125 37.4694L45.2085 36.1512ZM45.9605 35.8103H1V37.8103H45.9605V35.8103ZM2 36.8103V24.8103H0V36.8103H2ZM1 25.8103H46.2387V23.8103H1V25.8103ZM36.1875 1C36.1875 10.416 39.7083 18.9822 45.492 25.4754L46.9854 24.1452C41.5157 18.0044 38.1875 9.90735 38.1875 1H36.1875ZM49.1875 0H37.1875V2H49.1875V0Z" fill="#0C1C24"/>
</svg>
