<svg width="2440" height="156" viewBox="0 0 2440 156" fill="none" xmlns="http://www.w3.org/2000/svg">
<mask id="path-1-outside-1_2059_6986" maskUnits="userSpaceOnUse" x="0" y="0" width="2440" height="156" fill="black">
<rect fill="white" width="2440" height="156"/>
<path d="M35.0454 12.1919C46.1439 12.1919 55.8426 14.3307 64.1414 18.6085C72.5403 22.7868 78.9894 28.8553 83.4888 36.814C88.0882 44.6731 90.3879 53.8753 90.3879 64.4205C90.3879 74.9658 88.0882 84.1182 83.4888 91.8779C78.9894 99.6376 72.5403 105.607 64.1414 109.785C55.8426 113.864 46.1439 115.903 35.0454 115.903H1V12.1919H35.0454ZM35.0454 102.025C47.2437 102.025 56.5925 98.7423 63.0916 92.1764C69.5907 85.6105 72.8403 76.3585 72.8403 64.4205C72.8403 52.3831 69.5907 42.9819 63.0916 36.2171C56.5925 29.4522 47.2437 26.0698 35.0454 26.0698H18.0977V102.025H35.0454Z"/>
<path d="M183.073 72.7771C183.073 75.8611 182.873 78.6466 182.473 81.1337H119.332C119.832 87.6996 122.281 92.9722 126.681 96.9516C131.08 100.931 136.479 102.921 142.878 102.921C152.077 102.921 158.576 99.0905 162.376 91.4302H180.823C178.324 98.991 173.774 105.209 167.175 110.083C160.676 114.859 152.577 117.246 142.878 117.246C134.979 117.246 127.88 115.505 121.581 112.023C115.382 108.442 110.483 103.468 106.883 97.1008C103.384 90.6344 101.634 83.1731 101.634 74.7171C101.634 66.261 103.334 58.8495 106.733 52.4826C110.233 46.0162 115.082 41.042 121.281 37.5601C127.58 34.0782 134.78 32.3372 142.878 32.3372C150.677 32.3372 157.626 34.0284 163.726 37.4109C169.825 40.7933 174.574 45.5685 177.974 51.7364C181.373 57.8049 183.073 64.8185 183.073 72.7771ZM165.225 67.405C165.125 61.1376 162.876 56.1137 158.476 52.3333C154.077 48.553 148.628 46.6628 142.129 46.6628C136.229 46.6628 131.18 48.553 126.981 52.3333C122.781 56.0142 120.281 61.0381 119.482 67.405H165.225Z"/>
<path d="M194.2 74.4186C194.2 66.1615 195.899 58.8495 199.299 52.4826C202.798 46.1156 207.498 41.1912 213.397 37.7093C219.396 34.1279 226.045 32.3372 233.344 32.3372C238.744 32.3372 244.043 33.531 249.242 35.9186C254.541 38.2067 258.741 41.2907 261.84 45.1705V5.47675H279.088V115.903H261.84V103.517C259.041 107.497 255.141 110.78 250.142 113.366C245.243 115.953 239.593 117.246 233.194 117.246C225.995 117.246 219.396 115.455 213.397 111.874C207.498 108.193 202.798 103.12 199.299 96.6531C195.899 90.0872 194.2 82.6757 194.2 74.4186ZM261.84 74.7171C261.84 69.0465 260.641 64.1221 258.241 59.9438C255.941 55.7655 252.892 52.582 249.092 50.3934C245.293 48.2048 241.193 47.1105 236.794 47.1105C232.394 47.1105 228.295 48.2048 224.495 50.3934C220.696 52.4826 217.596 55.6163 215.197 59.7946C212.897 63.8734 211.747 68.7481 211.747 74.4186C211.747 80.0892 212.897 85.0633 215.197 89.3411C217.596 93.6189 220.696 96.9018 224.495 99.1899C228.395 101.379 232.494 102.473 236.794 102.473C241.193 102.473 245.293 101.379 249.092 99.1899C252.892 97.0013 255.941 93.8178 258.241 89.6395C260.641 85.3618 261.84 80.3876 261.84 74.7171Z"/>
<path d="M310.244 22.7868C307.144 22.7868 304.545 21.7423 302.445 19.6531C300.345 17.564 299.295 14.9774 299.295 11.8934C299.295 8.80943 300.345 6.22287 302.445 4.13372C304.545 2.04457 307.144 1 310.244 1C313.244 1 315.793 2.04457 317.893 4.13372C319.993 6.22287 321.043 8.80943 321.043 11.8934C321.043 14.9774 319.993 17.564 317.893 19.6531C315.793 21.7423 313.244 22.7868 310.244 22.7868ZM318.643 33.6802V115.903H301.545V33.6802H318.643Z"/>
<path d="M335.391 74.7171C335.391 66.261 337.091 58.8495 340.491 52.4826C343.99 46.0162 348.79 41.042 354.889 37.5601C360.988 34.0782 367.987 32.3372 375.886 32.3372C385.884 32.3372 394.133 34.7248 400.633 39.5C407.232 44.1757 411.681 50.8908 413.981 59.6454H395.533C394.033 55.5665 391.634 52.3831 388.334 50.095C385.035 47.8069 380.885 46.6628 375.886 46.6628C368.887 46.6628 363.288 49.1499 359.088 54.124C354.989 58.9987 352.939 65.8631 352.939 74.7171C352.939 83.5711 354.989 90.4851 359.088 95.4593C363.288 100.433 368.887 102.921 375.886 102.921C385.784 102.921 392.334 98.593 395.533 89.938H413.981C411.581 98.2946 407.082 104.96 400.483 109.934C393.883 114.809 385.685 117.246 375.886 117.246C367.987 117.246 360.988 115.505 354.889 112.023C348.79 108.442 343.99 103.468 340.491 97.1008C337.091 90.6344 335.391 83.1731 335.391 74.7171Z"/>
<path d="M425.321 74.4186C425.321 66.1615 427.02 58.8495 430.42 52.4826C433.919 46.1156 438.619 41.1912 444.518 37.7093C450.517 34.1279 457.116 32.3372 464.315 32.3372C470.814 32.3372 476.464 33.6305 481.263 36.2171C486.162 38.7041 490.062 41.8379 492.961 45.6182V33.6802H510.209V115.903H492.961V103.667C490.062 107.547 486.112 110.78 481.113 113.366C476.114 115.953 470.414 117.246 464.015 117.246C456.916 117.246 450.417 115.455 444.518 111.874C438.619 108.193 433.919 103.12 430.42 96.6531C427.02 90.0872 425.321 82.6757 425.321 74.4186ZM492.961 74.7171C492.961 69.0465 491.762 64.1221 489.362 59.9438C487.062 55.7655 484.013 52.582 480.213 50.3934C476.414 48.2048 472.314 47.1105 467.915 47.1105C463.515 47.1105 459.416 48.2048 455.616 50.3934C451.817 52.4826 448.717 55.6163 446.318 59.7946C444.018 63.8734 442.868 68.7481 442.868 74.4186C442.868 80.0892 444.018 85.0633 446.318 89.3411C448.717 93.6189 451.817 96.9018 455.616 99.1899C459.516 101.379 463.615 102.473 467.915 102.473C472.314 102.473 476.414 101.379 480.213 99.1899C484.013 97.0013 487.062 93.8178 489.362 89.6395C491.762 85.3618 492.961 80.3876 492.961 74.7171Z"/>
<path d="M552.613 47.5581V93.0717C552.613 96.1557 553.313 98.3941 554.713 99.7868C556.213 101.08 558.713 101.727 562.212 101.727H572.711V115.903H559.213C551.514 115.903 545.614 114.112 541.515 110.531C537.415 106.95 535.366 101.13 535.366 93.0717V47.5581H525.617V33.6802H535.366V13.2364H552.613V33.6802H572.711V47.5581H552.613Z"/>
<path d="M597.168 22.7868C594.068 22.7868 591.469 21.7423 589.369 19.6531C587.269 17.564 586.219 14.9774 586.219 11.8934C586.219 8.80943 587.269 6.22287 589.369 4.13372C591.469 2.04457 594.068 1 597.168 1C600.168 1 602.717 2.04457 604.817 4.13372C606.917 6.22287 607.966 8.80943 607.966 11.8934C607.966 14.9774 606.917 17.564 604.817 19.6531C602.717 21.7423 600.168 22.7868 597.168 22.7868ZM605.567 33.6802V115.903H588.469V33.6802H605.567Z"/>
<path d="M663.86 117.246C656.061 117.246 649.012 115.505 642.713 112.023C636.413 108.442 631.464 103.468 627.865 97.1008C624.265 90.6344 622.465 83.1731 622.465 74.7171C622.465 66.3605 624.315 58.949 628.015 52.4826C631.714 46.0162 636.763 41.042 643.162 37.5601C649.562 34.0782 656.711 32.3372 664.61 32.3372C672.508 32.3372 679.658 34.0782 686.057 37.5601C692.456 41.042 697.505 46.0162 701.205 52.4826C704.904 58.949 706.754 66.3605 706.754 74.7171C706.754 83.0737 704.854 90.4851 701.055 96.9516C697.255 103.418 692.056 108.442 685.457 112.023C678.958 115.505 671.759 117.246 663.86 117.246ZM663.86 102.473C668.259 102.473 672.359 101.428 676.158 99.3391C680.057 97.25 683.207 94.1163 685.607 89.938C688.006 85.7597 689.206 80.6861 689.206 74.7171C689.206 68.7481 688.056 63.7242 685.757 59.6454C683.457 55.4671 680.407 52.3333 676.608 50.2442C672.808 48.155 668.709 47.1105 664.31 47.1105C659.91 47.1105 655.811 48.155 652.011 50.2442C648.312 52.3333 645.362 55.4671 643.162 59.6454C640.963 63.7242 639.863 68.7481 639.863 74.7171C639.863 83.5711 642.113 90.4354 646.612 95.3101C651.211 100.085 656.961 102.473 663.86 102.473Z"/>
<path d="M765.35 32.3372C771.849 32.3372 777.648 33.6802 782.748 36.3663C787.947 39.0523 791.997 43.0317 794.896 48.3043C797.796 53.5769 799.246 59.9438 799.246 67.405V115.903H782.298V69.9419C782.298 62.5801 780.448 56.9593 776.749 53.0795C773.049 49.1001 768 47.1105 761.601 47.1105C755.202 47.1105 750.102 49.1001 746.303 53.0795C742.603 56.9593 740.754 62.5801 740.754 69.9419V115.903H723.656V33.6802H740.754V43.0814C743.553 39.699 747.103 37.0627 751.402 35.1725C755.802 33.2823 760.451 32.3372 765.35 32.3372Z"/>
<path d="M877.112 45.9167C880.012 41.9373 883.961 38.7041 888.96 36.2171C894.06 33.6305 899.709 32.3372 905.908 32.3372C913.207 32.3372 919.806 34.0782 925.705 37.5601C931.605 41.042 936.254 46.0162 939.654 52.4826C943.053 58.8495 944.753 66.1615 944.753 74.4186C944.753 82.6757 943.053 90.0872 939.654 96.6531C936.254 103.12 931.555 108.193 925.555 111.874C919.656 115.455 913.107 117.246 905.908 117.246C899.509 117.246 893.81 116.003 888.81 113.516C883.911 111.028 880.012 107.845 877.112 103.965V115.903H860.014V5.47675H877.112V45.9167ZM927.355 74.4186C927.355 68.7481 926.155 63.8734 923.756 59.7946C921.456 55.6163 918.356 52.4826 914.457 50.3934C910.657 48.2048 906.558 47.1105 902.159 47.1105C897.859 47.1105 893.76 48.2048 889.86 50.3934C886.061 52.582 882.961 55.7655 880.562 59.9438C878.262 64.1221 877.112 69.0465 877.112 74.7171C877.112 80.3876 878.262 85.3618 880.562 89.6395C882.961 93.8178 886.061 97.0013 889.86 99.1899C893.76 101.379 897.859 102.473 902.159 102.473C906.558 102.473 910.657 101.379 914.457 99.1899C918.356 96.9018 921.456 93.6189 923.756 89.3411C926.155 85.0633 927.355 80.0892 927.355 74.4186Z"/>
<path d="M1037.4 72.7771C1037.4 75.8611 1037.2 78.6466 1036.8 81.1337H973.659C974.159 87.6996 976.609 92.9722 981.008 96.9516C985.407 100.931 990.807 102.921 997.206 102.921C1006.4 102.921 1012.9 99.0905 1016.7 91.4302H1035.15C1032.65 98.991 1028.1 105.209 1021.5 110.083C1015 114.859 1006.9 117.246 997.206 117.246C989.307 117.246 982.208 115.505 975.909 112.023C969.71 108.442 964.81 103.468 961.211 97.1008C957.711 90.6344 955.961 83.1731 955.961 74.7171C955.961 66.261 957.661 58.8495 961.061 52.4826C964.56 46.0162 969.41 41.042 975.609 37.5601C981.908 34.0782 989.107 32.3372 997.206 32.3372C1005 32.3372 1011.95 34.0284 1018.05 37.4109C1024.15 40.7933 1028.9 45.5685 1032.3 51.7364C1035.7 57.8049 1037.4 64.8185 1037.4 72.7771ZM1019.55 67.405C1019.45 61.1376 1017.2 56.1137 1012.8 52.3333C1008.4 48.553 1002.96 46.6628 996.456 46.6628C990.557 46.6628 985.507 48.553 981.308 52.3333C977.109 56.0142 974.609 61.0381 973.809 67.405H1019.55Z"/>
<path d="M1128.62 33.6802L1077.92 154.552H1060.23L1077.02 114.56L1044.48 33.6802H1063.53L1086.77 96.3547L1110.92 33.6802H1128.62Z"/>
<path d="M1177.36 117.246C1169.57 117.246 1162.52 115.505 1156.22 112.023C1149.92 108.442 1144.97 103.468 1141.37 97.1008C1137.77 90.6344 1135.97 83.1731 1135.97 74.7171C1135.97 66.3605 1137.82 58.949 1141.52 52.4826C1145.22 46.0162 1150.27 41.042 1156.67 37.5601C1163.07 34.0782 1170.22 32.3372 1178.11 32.3372C1186.01 32.3372 1193.16 34.0782 1199.56 37.5601C1205.96 41.042 1211.01 46.0162 1214.71 52.4826C1218.41 58.949 1220.26 66.3605 1220.26 74.7171C1220.26 83.0737 1218.36 90.4851 1214.56 96.9516C1210.76 103.418 1205.56 108.442 1198.96 112.023C1192.46 115.505 1185.26 117.246 1177.36 117.246ZM1177.36 102.473C1181.76 102.473 1185.86 101.428 1189.66 99.3391C1193.56 97.25 1196.71 94.1163 1199.11 89.938C1201.51 85.7597 1202.71 80.6861 1202.71 74.7171C1202.71 68.7481 1201.56 63.7242 1199.26 59.6454C1196.96 55.4671 1193.91 52.3333 1190.11 50.2442C1186.31 48.155 1182.21 47.1105 1177.81 47.1105C1173.41 47.1105 1169.32 48.155 1165.52 50.2442C1161.82 52.3333 1158.87 55.4671 1156.67 59.6454C1154.47 63.7242 1153.37 68.7481 1153.37 74.7171C1153.37 83.5711 1155.62 90.4354 1160.12 95.3101C1164.72 100.085 1170.47 102.473 1177.36 102.473Z"/>
<path d="M1278.85 32.3372C1285.35 32.3372 1291.15 33.6802 1296.25 36.3663C1301.45 39.0523 1305.5 43.0317 1308.4 48.3043C1311.3 53.5769 1312.75 59.9438 1312.75 67.405V115.903H1295.8V69.9419C1295.8 62.5801 1293.95 56.9593 1290.25 53.0795C1286.55 49.1001 1281.5 47.1105 1275.11 47.1105C1268.71 47.1105 1263.61 49.1001 1259.81 53.0795C1256.11 56.9593 1254.26 62.5801 1254.26 69.9419V115.903H1237.16V33.6802H1254.26V43.0814C1257.06 39.699 1260.61 37.0627 1264.91 35.1725C1269.31 33.2823 1273.96 32.3372 1278.85 32.3372Z"/>
<path d="M1328.86 74.4186C1328.86 66.1615 1330.56 58.8495 1333.96 52.4826C1337.46 46.1156 1342.16 41.1912 1348.06 37.7093C1354.06 34.1279 1360.71 32.3372 1368 32.3372C1373.4 32.3372 1378.7 33.531 1383.9 35.9186C1389.2 38.2067 1393.4 41.2907 1396.5 45.1705V5.47675H1413.75V115.903H1396.5V103.517C1393.7 107.497 1389.8 110.78 1384.8 113.366C1379.9 115.953 1374.25 117.246 1367.85 117.246C1360.66 117.246 1354.06 115.455 1348.06 111.874C1342.16 108.193 1337.46 103.12 1333.96 96.6531C1330.56 90.0872 1328.86 82.6757 1328.86 74.4186ZM1396.5 74.7171C1396.5 69.0465 1395.3 64.1221 1392.9 59.9438C1390.6 55.7655 1387.55 52.582 1383.75 50.3934C1379.95 48.2048 1375.85 47.1105 1371.45 47.1105C1367.05 47.1105 1362.96 48.2048 1359.16 50.3934C1355.36 52.4826 1352.26 55.6163 1349.86 59.7946C1347.56 63.8734 1346.41 68.7481 1346.41 74.4186C1346.41 80.0892 1347.56 85.0633 1349.86 89.3411C1352.26 93.6189 1355.36 96.9018 1359.16 99.1899C1363.06 101.379 1367.15 102.473 1371.45 102.473C1375.85 102.473 1379.95 101.379 1383.75 99.1899C1387.55 97.0013 1390.6 93.8178 1392.9 89.6395C1395.3 85.3618 1396.5 80.3876 1396.5 74.7171Z"/>
<path d="M1495.11 47.5581V93.0717C1495.11 96.1557 1495.81 98.3941 1497.21 99.7868C1498.71 101.08 1501.21 101.727 1504.71 101.727H1515.21V115.903H1501.71C1494.01 115.903 1488.11 114.112 1484.01 110.531C1479.91 106.95 1477.86 101.13 1477.86 93.0717V47.5581H1468.12V33.6802H1477.86V13.2364H1495.11V33.6802H1515.21V47.5581H1495.11Z"/>
<path d="M1573.71 32.3372C1580.01 32.3372 1585.61 33.6802 1590.51 36.3663C1595.51 39.0523 1599.41 43.0317 1602.21 48.3043C1605.11 53.5769 1606.56 59.9438 1606.56 67.405V115.903H1589.61V69.9419C1589.61 62.5801 1587.76 56.9593 1584.06 53.0795C1580.36 49.1001 1575.31 47.1105 1568.91 47.1105C1562.51 47.1105 1557.41 49.1001 1553.62 53.0795C1549.92 56.9593 1548.07 62.5801 1548.07 69.9419V115.903H1530.97V5.47675H1548.07V43.2306C1550.97 39.7487 1554.61 37.0627 1559.01 35.1725C1563.51 33.2823 1568.41 32.3372 1573.71 32.3372Z"/>
<path d="M1704.11 72.7771C1704.11 75.8611 1703.91 78.6466 1703.51 81.1337H1640.37C1640.87 87.6996 1643.32 92.9722 1647.71 96.9516C1652.11 100.931 1657.51 102.921 1663.91 102.921C1673.11 102.921 1679.61 99.0905 1683.41 91.4302H1701.86C1699.36 98.991 1694.81 105.209 1688.21 110.083C1681.71 114.859 1673.61 117.246 1663.91 117.246C1656.01 117.246 1648.91 115.505 1642.62 112.023C1636.42 108.442 1631.52 103.468 1627.92 97.1008C1624.42 90.6344 1622.67 83.1731 1622.67 74.7171C1622.67 66.261 1624.37 58.8495 1627.77 52.4826C1631.27 46.0162 1636.12 41.042 1642.32 37.5601C1648.61 34.0782 1655.81 32.3372 1663.91 32.3372C1671.71 32.3372 1678.66 34.0284 1684.76 37.4109C1690.86 40.7933 1695.61 45.5685 1699.01 51.7364C1702.41 57.8049 1704.11 64.8185 1704.11 72.7771ZM1686.26 67.405C1686.16 61.1376 1683.91 56.1137 1679.51 52.3333C1675.11 48.553 1669.66 46.6628 1663.16 46.6628C1657.26 46.6628 1652.21 48.553 1648.01 52.3333C1643.81 56.0142 1641.32 61.0381 1640.52 67.405H1686.26Z"/>
<path d="M1835.63 72.7771C1835.63 75.8611 1835.43 78.6466 1835.03 81.1337H1771.89C1772.39 87.6996 1774.84 92.9722 1779.24 96.9516C1783.64 100.931 1789.04 102.921 1795.44 102.921C1804.64 102.921 1811.14 99.0905 1814.93 91.4302H1833.38C1830.88 98.991 1826.33 105.209 1819.73 110.083C1813.24 114.859 1805.14 117.246 1795.44 117.246C1787.54 117.246 1780.44 115.505 1774.14 112.023C1767.94 108.442 1763.04 103.468 1759.44 97.1008C1755.94 90.6344 1754.19 83.1731 1754.19 74.7171C1754.19 66.261 1755.89 58.8495 1759.29 52.4826C1762.79 46.0162 1767.64 41.042 1773.84 37.5601C1780.14 34.0782 1787.34 32.3372 1795.44 32.3372C1803.24 32.3372 1810.19 34.0284 1816.28 37.4109C1822.38 40.7933 1827.13 45.5685 1830.53 51.7364C1833.93 57.8049 1835.63 64.8185 1835.63 72.7771ZM1817.78 67.405C1817.68 61.1376 1815.43 56.1137 1811.04 52.3333C1806.64 48.553 1801.19 46.6628 1794.69 46.6628C1788.79 46.6628 1783.74 48.553 1779.54 52.3333C1775.34 56.0142 1772.84 61.0381 1772.04 67.405H1817.78Z"/>
<path d="M1887.85 74.2694L1914.55 115.903H1895.2L1877.35 87.9981L1860.56 115.903H1842.71L1869.41 75.4632L1842.71 33.6802H1862.06L1879.9 61.5853L1896.7 33.6802H1914.55L1887.85 74.2694Z"/>
<path d="M1944.4 45.7674C1947.3 41.9871 1951.25 38.8036 1956.25 36.2171C1961.25 33.6305 1966.9 32.3372 1973.19 32.3372C1980.39 32.3372 1986.94 34.1279 1992.84 37.7093C1998.84 41.1912 2003.54 46.1156 2006.94 52.4826C2010.34 58.8495 2012.04 66.1615 2012.04 74.4186C2012.04 82.6757 2010.34 90.0872 2006.94 96.6531C2003.54 103.12 1998.84 108.193 1992.84 111.874C1986.94 115.455 1980.39 117.246 1973.19 117.246C1966.9 117.246 1961.3 116.003 1956.4 113.516C1951.5 110.929 1947.5 107.745 1944.4 103.965V155H1927.3V33.6802H1944.4V45.7674ZM1994.64 74.4186C1994.64 68.7481 1993.44 63.8734 1991.04 59.7946C1988.74 55.6163 1985.64 52.4826 1981.74 50.3934C1977.94 48.2048 1973.84 47.1105 1969.45 47.1105C1965.15 47.1105 1961.05 48.2048 1957.15 50.3934C1953.35 52.582 1950.25 55.7655 1947.85 59.9438C1945.55 64.1221 1944.4 69.0465 1944.4 74.7171C1944.4 80.3876 1945.55 85.3618 1947.85 89.6395C1950.25 93.8178 1953.35 97.0013 1957.15 99.1899C1961.05 101.379 1965.15 102.473 1969.45 102.473C1973.84 102.473 1977.94 101.379 1981.74 99.1899C1985.64 96.9018 1988.74 93.6189 1991.04 89.3411C1993.44 85.0633 1994.64 80.0892 1994.64 74.4186Z"/>
<path d="M2104.69 72.7771C2104.69 75.8611 2104.49 78.6466 2104.09 81.1337H2040.95C2041.45 87.6996 2043.9 92.9722 2048.29 96.9516C2052.69 100.931 2058.09 102.921 2064.49 102.921C2073.69 102.921 2080.19 99.0905 2083.99 91.4302H2102.44C2099.94 98.991 2095.39 105.209 2088.79 110.083C2082.29 114.859 2074.19 117.246 2064.49 117.246C2056.59 117.246 2049.49 115.505 2043.2 112.023C2037 108.442 2032.1 103.468 2028.5 97.1008C2025 90.6344 2023.25 83.1731 2023.25 74.7171C2023.25 66.261 2024.95 58.8495 2028.35 52.4826C2031.85 46.0162 2036.7 41.042 2042.9 37.5601C2049.19 34.0782 2056.39 32.3372 2064.49 32.3372C2072.29 32.3372 2079.24 34.0284 2085.34 37.4109C2091.44 40.7933 2096.19 45.5685 2099.59 51.7364C2102.99 57.8049 2104.69 64.8185 2104.69 72.7771ZM2086.84 67.405C2086.74 61.1376 2084.49 56.1137 2080.09 52.3333C2075.69 48.553 2070.24 46.6628 2063.74 46.6628C2057.84 46.6628 2052.79 48.553 2048.59 52.3333C2044.4 56.0142 2041.9 61.0381 2041.1 67.405H2086.84Z"/>
<path d="M2115.81 74.7171C2115.81 66.261 2117.51 58.8495 2120.91 52.4826C2124.41 46.0162 2129.21 41.042 2135.31 37.5601C2141.41 34.0782 2148.41 32.3372 2156.31 32.3372C2166.31 32.3372 2174.56 34.7248 2181.05 39.5C2187.65 44.1757 2192.1 50.8908 2194.4 59.6454H2175.96C2174.46 55.5665 2172.06 52.3831 2168.76 50.095C2165.46 47.8069 2161.31 46.6628 2156.31 46.6628C2149.31 46.6628 2143.71 49.1499 2139.51 54.124C2135.41 58.9987 2133.36 65.8631 2133.36 74.7171C2133.36 83.5711 2135.41 90.4851 2139.51 95.4593C2143.71 100.433 2149.31 102.921 2156.31 102.921C2166.21 102.921 2172.76 98.593 2175.96 89.938H2194.4C2192 98.2946 2187.5 104.96 2180.91 109.934C2174.31 114.809 2166.11 117.246 2156.31 117.246C2148.41 117.246 2141.41 115.505 2135.31 112.023C2129.21 108.442 2124.41 103.468 2120.91 97.1008C2117.51 90.6344 2115.81 83.1731 2115.81 74.7171Z"/>
<path d="M2231.39 47.5581V93.0717C2231.39 96.1557 2232.09 98.3941 2233.49 99.7868C2234.99 101.08 2237.49 101.727 2240.99 101.727H2251.49V115.903H2237.99C2230.29 115.903 2224.39 114.112 2220.29 110.531C2216.19 106.95 2214.14 101.13 2214.14 93.0717V47.5581H2204.39V33.6802H2214.14V13.2364H2231.39V33.6802H2251.49V47.5581H2231.39Z"/>
<path d="M2342.98 72.7771C2342.98 75.8611 2342.78 78.6466 2342.39 81.1337H2279.24C2279.74 87.6996 2282.19 92.9722 2286.59 96.9516C2290.99 100.931 2296.39 102.921 2302.79 102.921C2311.99 102.921 2318.49 99.0905 2322.29 91.4302H2340.74C2338.24 98.991 2333.69 105.209 2327.09 110.083C2320.59 114.859 2312.49 117.246 2302.79 117.246C2294.89 117.246 2287.79 115.505 2281.49 112.023C2275.29 108.442 2270.39 103.468 2266.8 97.1008C2263.3 90.6344 2261.55 83.1731 2261.55 74.7171C2261.55 66.261 2263.25 58.8495 2266.65 52.4826C2270.14 46.0162 2274.99 41.042 2281.19 37.5601C2287.49 34.0782 2294.69 32.3372 2302.79 32.3372C2310.59 32.3372 2317.54 34.0284 2323.64 37.4109C2329.74 40.7933 2334.49 45.5685 2337.89 51.7364C2341.29 57.8049 2342.98 64.8185 2342.98 72.7771ZM2325.14 67.405C2325.04 61.1376 2322.79 56.1137 2318.39 52.3333C2313.99 48.553 2308.54 46.6628 2302.04 46.6628C2296.14 46.6628 2291.09 48.553 2286.89 52.3333C2282.69 56.0142 2280.19 61.0381 2279.39 67.405H2325.14Z"/>
<path d="M2354.11 74.4186C2354.11 66.1615 2355.81 58.8495 2359.21 52.4826C2362.71 46.1156 2367.41 41.1912 2373.31 37.7093C2379.31 34.1279 2385.96 32.3372 2393.26 32.3372C2398.66 32.3372 2403.96 33.531 2409.15 35.9186C2414.45 38.2067 2418.65 41.2907 2421.75 45.1705V5.47675H2439V115.903H2421.75V103.517C2418.95 107.497 2415.05 110.78 2410.05 113.366C2405.15 115.953 2399.51 117.246 2393.11 117.246C2385.91 117.246 2379.31 115.455 2373.31 111.874C2367.41 108.193 2362.71 103.12 2359.21 96.6531C2355.81 90.0872 2354.11 82.6757 2354.11 74.4186ZM2421.75 74.7171C2421.75 69.0465 2420.55 64.1221 2418.15 59.9438C2415.85 55.7655 2412.8 52.582 2409 50.3934C2405.2 48.2048 2401.11 47.1105 2396.71 47.1105C2392.31 47.1105 2388.21 48.2048 2384.41 50.3934C2380.61 52.4826 2377.51 55.6163 2375.11 59.7946C2372.81 63.8734 2371.66 68.7481 2371.66 74.4186C2371.66 80.0892 2372.81 85.0633 2375.11 89.3411C2377.51 93.6189 2380.61 96.9018 2384.41 99.1899C2388.31 101.379 2392.41 102.473 2396.71 102.473C2401.11 102.473 2405.2 101.379 2409 99.1899C2412.8 97.0013 2415.85 93.8178 2418.15 89.6395C2420.55 85.3618 2421.75 80.3876 2421.75 74.7171Z"/>
</mask>
<path d="M35.0454 12.1919C46.1439 12.1919 55.8426 14.3307 64.1414 18.6085C72.5403 22.7868 78.9894 28.8553 83.4888 36.814C88.0882 44.6731 90.3879 53.8753 90.3879 64.4205C90.3879 74.9658 88.0882 84.1182 83.4888 91.8779C78.9894 99.6376 72.5403 105.607 64.1414 109.785C55.8426 113.864 46.1439 115.903 35.0454 115.903H1V12.1919H35.0454ZM35.0454 102.025C47.2437 102.025 56.5925 98.7423 63.0916 92.1764C69.5907 85.6105 72.8403 76.3585 72.8403 64.4205C72.8403 52.3831 69.5907 42.9819 63.0916 36.2171C56.5925 29.4522 47.2437 26.0698 35.0454 26.0698H18.0977V102.025H35.0454Z" stroke="white" stroke-width="2" mask="url(#path-1-outside-1_2059_6986)"/>
<path d="M183.073 72.7771C183.073 75.8611 182.873 78.6466 182.473 81.1337H119.332C119.832 87.6996 122.281 92.9722 126.681 96.9516C131.08 100.931 136.479 102.921 142.878 102.921C152.077 102.921 158.576 99.0905 162.376 91.4302H180.823C178.324 98.991 173.774 105.209 167.175 110.083C160.676 114.859 152.577 117.246 142.878 117.246C134.979 117.246 127.88 115.505 121.581 112.023C115.382 108.442 110.483 103.468 106.883 97.1008C103.384 90.6344 101.634 83.1731 101.634 74.7171C101.634 66.261 103.334 58.8495 106.733 52.4826C110.233 46.0162 115.082 41.042 121.281 37.5601C127.58 34.0782 134.78 32.3372 142.878 32.3372C150.677 32.3372 157.626 34.0284 163.726 37.4109C169.825 40.7933 174.574 45.5685 177.974 51.7364C181.373 57.8049 183.073 64.8185 183.073 72.7771ZM165.225 67.405C165.125 61.1376 162.876 56.1137 158.476 52.3333C154.077 48.553 148.628 46.6628 142.129 46.6628C136.229 46.6628 131.18 48.553 126.981 52.3333C122.781 56.0142 120.281 61.0381 119.482 67.405H165.225Z" stroke="white" stroke-width="2" mask="url(#path-1-outside-1_2059_6986)"/>
<path d="M194.2 74.4186C194.2 66.1615 195.899 58.8495 199.299 52.4826C202.798 46.1156 207.498 41.1912 213.397 37.7093C219.396 34.1279 226.045 32.3372 233.344 32.3372C238.744 32.3372 244.043 33.531 249.242 35.9186C254.541 38.2067 258.741 41.2907 261.84 45.1705V5.47675H279.088V115.903H261.84V103.517C259.041 107.497 255.141 110.78 250.142 113.366C245.243 115.953 239.593 117.246 233.194 117.246C225.995 117.246 219.396 115.455 213.397 111.874C207.498 108.193 202.798 103.12 199.299 96.6531C195.899 90.0872 194.2 82.6757 194.2 74.4186ZM261.84 74.7171C261.84 69.0465 260.641 64.1221 258.241 59.9438C255.941 55.7655 252.892 52.582 249.092 50.3934C245.293 48.2048 241.193 47.1105 236.794 47.1105C232.394 47.1105 228.295 48.2048 224.495 50.3934C220.696 52.4826 217.596 55.6163 215.197 59.7946C212.897 63.8734 211.747 68.7481 211.747 74.4186C211.747 80.0892 212.897 85.0633 215.197 89.3411C217.596 93.6189 220.696 96.9018 224.495 99.1899C228.395 101.379 232.494 102.473 236.794 102.473C241.193 102.473 245.293 101.379 249.092 99.1899C252.892 97.0013 255.941 93.8178 258.241 89.6395C260.641 85.3618 261.84 80.3876 261.84 74.7171Z" stroke="white" stroke-width="2" mask="url(#path-1-outside-1_2059_6986)"/>
<path d="M310.244 22.7868C307.144 22.7868 304.545 21.7423 302.445 19.6531C300.345 17.564 299.295 14.9774 299.295 11.8934C299.295 8.80943 300.345 6.22287 302.445 4.13372C304.545 2.04457 307.144 1 310.244 1C313.244 1 315.793 2.04457 317.893 4.13372C319.993 6.22287 321.043 8.80943 321.043 11.8934C321.043 14.9774 319.993 17.564 317.893 19.6531C315.793 21.7423 313.244 22.7868 310.244 22.7868ZM318.643 33.6802V115.903H301.545V33.6802H318.643Z" stroke="white" stroke-width="2" mask="url(#path-1-outside-1_2059_6986)"/>
<path d="M335.391 74.7171C335.391 66.261 337.091 58.8495 340.491 52.4826C343.99 46.0162 348.79 41.042 354.889 37.5601C360.988 34.0782 367.987 32.3372 375.886 32.3372C385.884 32.3372 394.133 34.7248 400.633 39.5C407.232 44.1757 411.681 50.8908 413.981 59.6454H395.533C394.033 55.5665 391.634 52.3831 388.334 50.095C385.035 47.8069 380.885 46.6628 375.886 46.6628C368.887 46.6628 363.288 49.1499 359.088 54.124C354.989 58.9987 352.939 65.8631 352.939 74.7171C352.939 83.5711 354.989 90.4851 359.088 95.4593C363.288 100.433 368.887 102.921 375.886 102.921C385.784 102.921 392.334 98.593 395.533 89.938H413.981C411.581 98.2946 407.082 104.96 400.483 109.934C393.883 114.809 385.685 117.246 375.886 117.246C367.987 117.246 360.988 115.505 354.889 112.023C348.79 108.442 343.99 103.468 340.491 97.1008C337.091 90.6344 335.391 83.1731 335.391 74.7171Z" stroke="white" stroke-width="2" mask="url(#path-1-outside-1_2059_6986)"/>
<path d="M425.321 74.4186C425.321 66.1615 427.02 58.8495 430.42 52.4826C433.919 46.1156 438.619 41.1912 444.518 37.7093C450.517 34.1279 457.116 32.3372 464.315 32.3372C470.814 32.3372 476.464 33.6305 481.263 36.2171C486.162 38.7041 490.062 41.8379 492.961 45.6182V33.6802H510.209V115.903H492.961V103.667C490.062 107.547 486.112 110.78 481.113 113.366C476.114 115.953 470.414 117.246 464.015 117.246C456.916 117.246 450.417 115.455 444.518 111.874C438.619 108.193 433.919 103.12 430.42 96.6531C427.02 90.0872 425.321 82.6757 425.321 74.4186ZM492.961 74.7171C492.961 69.0465 491.762 64.1221 489.362 59.9438C487.062 55.7655 484.013 52.582 480.213 50.3934C476.414 48.2048 472.314 47.1105 467.915 47.1105C463.515 47.1105 459.416 48.2048 455.616 50.3934C451.817 52.4826 448.717 55.6163 446.318 59.7946C444.018 63.8734 442.868 68.7481 442.868 74.4186C442.868 80.0892 444.018 85.0633 446.318 89.3411C448.717 93.6189 451.817 96.9018 455.616 99.1899C459.516 101.379 463.615 102.473 467.915 102.473C472.314 102.473 476.414 101.379 480.213 99.1899C484.013 97.0013 487.062 93.8178 489.362 89.6395C491.762 85.3618 492.961 80.3876 492.961 74.7171Z" stroke="white" stroke-width="2" mask="url(#path-1-outside-1_2059_6986)"/>
<path d="M552.613 47.5581V93.0717C552.613 96.1557 553.313 98.3941 554.713 99.7868C556.213 101.08 558.713 101.727 562.212 101.727H572.711V115.903H559.213C551.514 115.903 545.614 114.112 541.515 110.531C537.415 106.95 535.366 101.13 535.366 93.0717V47.5581H525.617V33.6802H535.366V13.2364H552.613V33.6802H572.711V47.5581H552.613Z" stroke="white" stroke-width="2" mask="url(#path-1-outside-1_2059_6986)"/>
<path d="M597.168 22.7868C594.068 22.7868 591.469 21.7423 589.369 19.6531C587.269 17.564 586.219 14.9774 586.219 11.8934C586.219 8.80943 587.269 6.22287 589.369 4.13372C591.469 2.04457 594.068 1 597.168 1C600.168 1 602.717 2.04457 604.817 4.13372C606.917 6.22287 607.966 8.80943 607.966 11.8934C607.966 14.9774 606.917 17.564 604.817 19.6531C602.717 21.7423 600.168 22.7868 597.168 22.7868ZM605.567 33.6802V115.903H588.469V33.6802H605.567Z" stroke="white" stroke-width="2" mask="url(#path-1-outside-1_2059_6986)"/>
<path d="M663.86 117.246C656.061 117.246 649.012 115.505 642.713 112.023C636.413 108.442 631.464 103.468 627.865 97.1008C624.265 90.6344 622.465 83.1731 622.465 74.7171C622.465 66.3605 624.315 58.949 628.015 52.4826C631.714 46.0162 636.763 41.042 643.162 37.5601C649.562 34.0782 656.711 32.3372 664.61 32.3372C672.508 32.3372 679.658 34.0782 686.057 37.5601C692.456 41.042 697.505 46.0162 701.205 52.4826C704.904 58.949 706.754 66.3605 706.754 74.7171C706.754 83.0737 704.854 90.4851 701.055 96.9516C697.255 103.418 692.056 108.442 685.457 112.023C678.958 115.505 671.759 117.246 663.86 117.246ZM663.86 102.473C668.259 102.473 672.359 101.428 676.158 99.3391C680.057 97.25 683.207 94.1163 685.607 89.938C688.006 85.7597 689.206 80.6861 689.206 74.7171C689.206 68.7481 688.056 63.7242 685.757 59.6454C683.457 55.4671 680.407 52.3333 676.608 50.2442C672.808 48.155 668.709 47.1105 664.31 47.1105C659.91 47.1105 655.811 48.155 652.011 50.2442C648.312 52.3333 645.362 55.4671 643.162 59.6454C640.963 63.7242 639.863 68.7481 639.863 74.7171C639.863 83.5711 642.113 90.4354 646.612 95.3101C651.211 100.085 656.961 102.473 663.86 102.473Z" stroke="white" stroke-width="2" mask="url(#path-1-outside-1_2059_6986)"/>
<path d="M765.35 32.3372C771.849 32.3372 777.648 33.6802 782.748 36.3663C787.947 39.0523 791.997 43.0317 794.896 48.3043C797.796 53.5769 799.246 59.9438 799.246 67.405V115.903H782.298V69.9419C782.298 62.5801 780.448 56.9593 776.749 53.0795C773.049 49.1001 768 47.1105 761.601 47.1105C755.202 47.1105 750.102 49.1001 746.303 53.0795C742.603 56.9593 740.754 62.5801 740.754 69.9419V115.903H723.656V33.6802H740.754V43.0814C743.553 39.699 747.103 37.0627 751.402 35.1725C755.802 33.2823 760.451 32.3372 765.35 32.3372Z" stroke="white" stroke-width="2" mask="url(#path-1-outside-1_2059_6986)"/>
<path d="M877.112 45.9167C880.012 41.9373 883.961 38.7041 888.96 36.2171C894.06 33.6305 899.709 32.3372 905.908 32.3372C913.207 32.3372 919.806 34.0782 925.705 37.5601C931.605 41.042 936.254 46.0162 939.654 52.4826C943.053 58.8495 944.753 66.1615 944.753 74.4186C944.753 82.6757 943.053 90.0872 939.654 96.6531C936.254 103.12 931.555 108.193 925.555 111.874C919.656 115.455 913.107 117.246 905.908 117.246C899.509 117.246 893.81 116.003 888.81 113.516C883.911 111.028 880.012 107.845 877.112 103.965V115.903H860.014V5.47675H877.112V45.9167ZM927.355 74.4186C927.355 68.7481 926.155 63.8734 923.756 59.7946C921.456 55.6163 918.356 52.4826 914.457 50.3934C910.657 48.2048 906.558 47.1105 902.159 47.1105C897.859 47.1105 893.76 48.2048 889.86 50.3934C886.061 52.582 882.961 55.7655 880.562 59.9438C878.262 64.1221 877.112 69.0465 877.112 74.7171C877.112 80.3876 878.262 85.3618 880.562 89.6395C882.961 93.8178 886.061 97.0013 889.86 99.1899C893.76 101.379 897.859 102.473 902.159 102.473C906.558 102.473 910.657 101.379 914.457 99.1899C918.356 96.9018 921.456 93.6189 923.756 89.3411C926.155 85.0633 927.355 80.0892 927.355 74.4186Z" stroke="white" stroke-width="2" mask="url(#path-1-outside-1_2059_6986)"/>
<path d="M1037.4 72.7771C1037.4 75.8611 1037.2 78.6466 1036.8 81.1337H973.659C974.159 87.6996 976.609 92.9722 981.008 96.9516C985.407 100.931 990.807 102.921 997.206 102.921C1006.4 102.921 1012.9 99.0905 1016.7 91.4302H1035.15C1032.65 98.991 1028.1 105.209 1021.5 110.083C1015 114.859 1006.9 117.246 997.206 117.246C989.307 117.246 982.208 115.505 975.909 112.023C969.71 108.442 964.81 103.468 961.211 97.1008C957.711 90.6344 955.961 83.1731 955.961 74.7171C955.961 66.261 957.661 58.8495 961.061 52.4826C964.56 46.0162 969.41 41.042 975.609 37.5601C981.908 34.0782 989.107 32.3372 997.206 32.3372C1005 32.3372 1011.95 34.0284 1018.05 37.4109C1024.15 40.7933 1028.9 45.5685 1032.3 51.7364C1035.7 57.8049 1037.4 64.8185 1037.4 72.7771ZM1019.55 67.405C1019.45 61.1376 1017.2 56.1137 1012.8 52.3333C1008.4 48.553 1002.96 46.6628 996.456 46.6628C990.557 46.6628 985.507 48.553 981.308 52.3333C977.109 56.0142 974.609 61.0381 973.809 67.405H1019.55Z" stroke="white" stroke-width="2" mask="url(#path-1-outside-1_2059_6986)"/>
<path d="M1128.62 33.6802L1077.92 154.552H1060.23L1077.02 114.56L1044.48 33.6802H1063.53L1086.77 96.3547L1110.92 33.6802H1128.62Z" stroke="white" stroke-width="2" mask="url(#path-1-outside-1_2059_6986)"/>
<path d="M1177.36 117.246C1169.57 117.246 1162.52 115.505 1156.22 112.023C1149.92 108.442 1144.97 103.468 1141.37 97.1008C1137.77 90.6344 1135.97 83.1731 1135.97 74.7171C1135.97 66.3605 1137.82 58.949 1141.52 52.4826C1145.22 46.0162 1150.27 41.042 1156.67 37.5601C1163.07 34.0782 1170.22 32.3372 1178.11 32.3372C1186.01 32.3372 1193.16 34.0782 1199.56 37.5601C1205.96 41.042 1211.01 46.0162 1214.71 52.4826C1218.41 58.949 1220.26 66.3605 1220.26 74.7171C1220.26 83.0737 1218.36 90.4851 1214.56 96.9516C1210.76 103.418 1205.56 108.442 1198.96 112.023C1192.46 115.505 1185.26 117.246 1177.36 117.246ZM1177.36 102.473C1181.76 102.473 1185.86 101.428 1189.66 99.3391C1193.56 97.25 1196.71 94.1163 1199.11 89.938C1201.51 85.7597 1202.71 80.6861 1202.71 74.7171C1202.71 68.7481 1201.56 63.7242 1199.26 59.6454C1196.96 55.4671 1193.91 52.3333 1190.11 50.2442C1186.31 48.155 1182.21 47.1105 1177.81 47.1105C1173.41 47.1105 1169.32 48.155 1165.52 50.2442C1161.82 52.3333 1158.87 55.4671 1156.67 59.6454C1154.47 63.7242 1153.37 68.7481 1153.37 74.7171C1153.37 83.5711 1155.62 90.4354 1160.12 95.3101C1164.72 100.085 1170.47 102.473 1177.36 102.473Z" stroke="white" stroke-width="2" mask="url(#path-1-outside-1_2059_6986)"/>
<path d="M1278.85 32.3372C1285.35 32.3372 1291.15 33.6802 1296.25 36.3663C1301.45 39.0523 1305.5 43.0317 1308.4 48.3043C1311.3 53.5769 1312.75 59.9438 1312.75 67.405V115.903H1295.8V69.9419C1295.8 62.5801 1293.95 56.9593 1290.25 53.0795C1286.55 49.1001 1281.5 47.1105 1275.11 47.1105C1268.71 47.1105 1263.61 49.1001 1259.81 53.0795C1256.11 56.9593 1254.26 62.5801 1254.26 69.9419V115.903H1237.16V33.6802H1254.26V43.0814C1257.06 39.699 1260.61 37.0627 1264.91 35.1725C1269.31 33.2823 1273.96 32.3372 1278.85 32.3372Z" stroke="white" stroke-width="2" mask="url(#path-1-outside-1_2059_6986)"/>
<path d="M1328.86 74.4186C1328.86 66.1615 1330.56 58.8495 1333.96 52.4826C1337.46 46.1156 1342.16 41.1912 1348.06 37.7093C1354.06 34.1279 1360.71 32.3372 1368 32.3372C1373.4 32.3372 1378.7 33.531 1383.9 35.9186C1389.2 38.2067 1393.4 41.2907 1396.5 45.1705V5.47675H1413.75V115.903H1396.5V103.517C1393.7 107.497 1389.8 110.78 1384.8 113.366C1379.9 115.953 1374.25 117.246 1367.85 117.246C1360.66 117.246 1354.06 115.455 1348.06 111.874C1342.16 108.193 1337.46 103.12 1333.96 96.6531C1330.56 90.0872 1328.86 82.6757 1328.86 74.4186ZM1396.5 74.7171C1396.5 69.0465 1395.3 64.1221 1392.9 59.9438C1390.6 55.7655 1387.55 52.582 1383.75 50.3934C1379.95 48.2048 1375.85 47.1105 1371.45 47.1105C1367.05 47.1105 1362.96 48.2048 1359.16 50.3934C1355.36 52.4826 1352.26 55.6163 1349.86 59.7946C1347.56 63.8734 1346.41 68.7481 1346.41 74.4186C1346.41 80.0892 1347.56 85.0633 1349.86 89.3411C1352.26 93.6189 1355.36 96.9018 1359.16 99.1899C1363.06 101.379 1367.15 102.473 1371.45 102.473C1375.85 102.473 1379.95 101.379 1383.75 99.1899C1387.55 97.0013 1390.6 93.8178 1392.9 89.6395C1395.3 85.3618 1396.5 80.3876 1396.5 74.7171Z" stroke="white" stroke-width="2" mask="url(#path-1-outside-1_2059_6986)"/>
<path d="M1495.11 47.5581V93.0717C1495.11 96.1557 1495.81 98.3941 1497.21 99.7868C1498.71 101.08 1501.21 101.727 1504.71 101.727H1515.21V115.903H1501.71C1494.01 115.903 1488.11 114.112 1484.01 110.531C1479.91 106.95 1477.86 101.13 1477.86 93.0717V47.5581H1468.12V33.6802H1477.86V13.2364H1495.11V33.6802H1515.21V47.5581H1495.11Z" stroke="white" stroke-width="2" mask="url(#path-1-outside-1_2059_6986)"/>
<path d="M1573.71 32.3372C1580.01 32.3372 1585.61 33.6802 1590.51 36.3663C1595.51 39.0523 1599.41 43.0317 1602.21 48.3043C1605.11 53.5769 1606.56 59.9438 1606.56 67.405V115.903H1589.61V69.9419C1589.61 62.5801 1587.76 56.9593 1584.06 53.0795C1580.36 49.1001 1575.31 47.1105 1568.91 47.1105C1562.51 47.1105 1557.41 49.1001 1553.62 53.0795C1549.92 56.9593 1548.07 62.5801 1548.07 69.9419V115.903H1530.97V5.47675H1548.07V43.2306C1550.97 39.7487 1554.61 37.0627 1559.01 35.1725C1563.51 33.2823 1568.41 32.3372 1573.71 32.3372Z" stroke="white" stroke-width="2" mask="url(#path-1-outside-1_2059_6986)"/>
<path d="M1704.11 72.7771C1704.11 75.8611 1703.91 78.6466 1703.51 81.1337H1640.37C1640.87 87.6996 1643.32 92.9722 1647.71 96.9516C1652.11 100.931 1657.51 102.921 1663.91 102.921C1673.11 102.921 1679.61 99.0905 1683.41 91.4302H1701.86C1699.36 98.991 1694.81 105.209 1688.21 110.083C1681.71 114.859 1673.61 117.246 1663.91 117.246C1656.01 117.246 1648.91 115.505 1642.62 112.023C1636.42 108.442 1631.52 103.468 1627.92 97.1008C1624.42 90.6344 1622.67 83.1731 1622.67 74.7171C1622.67 66.261 1624.37 58.8495 1627.77 52.4826C1631.27 46.0162 1636.12 41.042 1642.32 37.5601C1648.61 34.0782 1655.81 32.3372 1663.91 32.3372C1671.71 32.3372 1678.66 34.0284 1684.76 37.4109C1690.86 40.7933 1695.61 45.5685 1699.01 51.7364C1702.41 57.8049 1704.11 64.8185 1704.11 72.7771ZM1686.26 67.405C1686.16 61.1376 1683.91 56.1137 1679.51 52.3333C1675.11 48.553 1669.66 46.6628 1663.16 46.6628C1657.26 46.6628 1652.21 48.553 1648.01 52.3333C1643.81 56.0142 1641.32 61.0381 1640.52 67.405H1686.26Z" stroke="white" stroke-width="2" mask="url(#path-1-outside-1_2059_6986)"/>
<path d="M1835.63 72.7771C1835.63 75.8611 1835.43 78.6466 1835.03 81.1337H1771.89C1772.39 87.6996 1774.84 92.9722 1779.24 96.9516C1783.64 100.931 1789.04 102.921 1795.44 102.921C1804.64 102.921 1811.14 99.0905 1814.93 91.4302H1833.38C1830.88 98.991 1826.33 105.209 1819.73 110.083C1813.24 114.859 1805.14 117.246 1795.44 117.246C1787.54 117.246 1780.44 115.505 1774.14 112.023C1767.94 108.442 1763.04 103.468 1759.44 97.1008C1755.94 90.6344 1754.19 83.1731 1754.19 74.7171C1754.19 66.261 1755.89 58.8495 1759.29 52.4826C1762.79 46.0162 1767.64 41.042 1773.84 37.5601C1780.14 34.0782 1787.34 32.3372 1795.44 32.3372C1803.24 32.3372 1810.19 34.0284 1816.28 37.4109C1822.38 40.7933 1827.13 45.5685 1830.53 51.7364C1833.93 57.8049 1835.63 64.8185 1835.63 72.7771ZM1817.78 67.405C1817.68 61.1376 1815.43 56.1137 1811.04 52.3333C1806.64 48.553 1801.19 46.6628 1794.69 46.6628C1788.79 46.6628 1783.74 48.553 1779.54 52.3333C1775.34 56.0142 1772.84 61.0381 1772.04 67.405H1817.78Z" stroke="white" stroke-width="2" mask="url(#path-1-outside-1_2059_6986)"/>
<path d="M1887.85 74.2694L1914.55 115.903H1895.2L1877.35 87.9981L1860.56 115.903H1842.71L1869.41 75.4632L1842.71 33.6802H1862.06L1879.9 61.5853L1896.7 33.6802H1914.55L1887.85 74.2694Z" stroke="white" stroke-width="2" mask="url(#path-1-outside-1_2059_6986)"/>
<path d="M1944.4 45.7674C1947.3 41.9871 1951.25 38.8036 1956.25 36.2171C1961.25 33.6305 1966.9 32.3372 1973.19 32.3372C1980.39 32.3372 1986.94 34.1279 1992.84 37.7093C1998.84 41.1912 2003.54 46.1156 2006.94 52.4826C2010.34 58.8495 2012.04 66.1615 2012.04 74.4186C2012.04 82.6757 2010.34 90.0872 2006.94 96.6531C2003.54 103.12 1998.84 108.193 1992.84 111.874C1986.94 115.455 1980.39 117.246 1973.19 117.246C1966.9 117.246 1961.3 116.003 1956.4 113.516C1951.5 110.929 1947.5 107.745 1944.4 103.965V155H1927.3V33.6802H1944.4V45.7674ZM1994.64 74.4186C1994.64 68.7481 1993.44 63.8734 1991.04 59.7946C1988.74 55.6163 1985.64 52.4826 1981.74 50.3934C1977.94 48.2048 1973.84 47.1105 1969.45 47.1105C1965.15 47.1105 1961.05 48.2048 1957.15 50.3934C1953.35 52.582 1950.25 55.7655 1947.85 59.9438C1945.55 64.1221 1944.4 69.0465 1944.4 74.7171C1944.4 80.3876 1945.55 85.3618 1947.85 89.6395C1950.25 93.8178 1953.35 97.0013 1957.15 99.1899C1961.05 101.379 1965.15 102.473 1969.45 102.473C1973.84 102.473 1977.94 101.379 1981.74 99.1899C1985.64 96.9018 1988.74 93.6189 1991.04 89.3411C1993.44 85.0633 1994.64 80.0892 1994.64 74.4186Z" stroke="white" stroke-width="2" mask="url(#path-1-outside-1_2059_6986)"/>
<path d="M2104.69 72.7771C2104.69 75.8611 2104.49 78.6466 2104.09 81.1337H2040.95C2041.45 87.6996 2043.9 92.9722 2048.29 96.9516C2052.69 100.931 2058.09 102.921 2064.49 102.921C2073.69 102.921 2080.19 99.0905 2083.99 91.4302H2102.44C2099.94 98.991 2095.39 105.209 2088.79 110.083C2082.29 114.859 2074.19 117.246 2064.49 117.246C2056.59 117.246 2049.49 115.505 2043.2 112.023C2037 108.442 2032.1 103.468 2028.5 97.1008C2025 90.6344 2023.25 83.1731 2023.25 74.7171C2023.25 66.261 2024.95 58.8495 2028.35 52.4826C2031.85 46.0162 2036.7 41.042 2042.9 37.5601C2049.19 34.0782 2056.39 32.3372 2064.49 32.3372C2072.29 32.3372 2079.24 34.0284 2085.34 37.4109C2091.44 40.7933 2096.19 45.5685 2099.59 51.7364C2102.99 57.8049 2104.69 64.8185 2104.69 72.7771ZM2086.84 67.405C2086.74 61.1376 2084.49 56.1137 2080.09 52.3333C2075.69 48.553 2070.24 46.6628 2063.74 46.6628C2057.84 46.6628 2052.79 48.553 2048.59 52.3333C2044.4 56.0142 2041.9 61.0381 2041.1 67.405H2086.84Z" stroke="white" stroke-width="2" mask="url(#path-1-outside-1_2059_6986)"/>
<path d="M2115.81 74.7171C2115.81 66.261 2117.51 58.8495 2120.91 52.4826C2124.41 46.0162 2129.21 41.042 2135.31 37.5601C2141.41 34.0782 2148.41 32.3372 2156.31 32.3372C2166.31 32.3372 2174.56 34.7248 2181.05 39.5C2187.65 44.1757 2192.1 50.8908 2194.4 59.6454H2175.96C2174.46 55.5665 2172.06 52.3831 2168.76 50.095C2165.46 47.8069 2161.31 46.6628 2156.31 46.6628C2149.31 46.6628 2143.71 49.1499 2139.51 54.124C2135.41 58.9987 2133.36 65.8631 2133.36 74.7171C2133.36 83.5711 2135.41 90.4851 2139.51 95.4593C2143.71 100.433 2149.31 102.921 2156.31 102.921C2166.21 102.921 2172.76 98.593 2175.96 89.938H2194.4C2192 98.2946 2187.5 104.96 2180.91 109.934C2174.31 114.809 2166.11 117.246 2156.31 117.246C2148.41 117.246 2141.41 115.505 2135.31 112.023C2129.21 108.442 2124.41 103.468 2120.91 97.1008C2117.51 90.6344 2115.81 83.1731 2115.81 74.7171Z" stroke="white" stroke-width="2" mask="url(#path-1-outside-1_2059_6986)"/>
<path d="M2231.39 47.5581V93.0717C2231.39 96.1557 2232.09 98.3941 2233.49 99.7868C2234.99 101.08 2237.49 101.727 2240.99 101.727H2251.49V115.903H2237.99C2230.29 115.903 2224.39 114.112 2220.29 110.531C2216.19 106.95 2214.14 101.13 2214.14 93.0717V47.5581H2204.39V33.6802H2214.14V13.2364H2231.39V33.6802H2251.49V47.5581H2231.39Z" stroke="white" stroke-width="2" mask="url(#path-1-outside-1_2059_6986)"/>
<path d="M2342.98 72.7771C2342.98 75.8611 2342.78 78.6466 2342.39 81.1337H2279.24C2279.74 87.6996 2282.19 92.9722 2286.59 96.9516C2290.99 100.931 2296.39 102.921 2302.79 102.921C2311.99 102.921 2318.49 99.0905 2322.29 91.4302H2340.74C2338.24 98.991 2333.69 105.209 2327.09 110.083C2320.59 114.859 2312.49 117.246 2302.79 117.246C2294.89 117.246 2287.79 115.505 2281.49 112.023C2275.29 108.442 2270.39 103.468 2266.8 97.1008C2263.3 90.6344 2261.55 83.1731 2261.55 74.7171C2261.55 66.261 2263.25 58.8495 2266.65 52.4826C2270.14 46.0162 2274.99 41.042 2281.19 37.5601C2287.49 34.0782 2294.69 32.3372 2302.79 32.3372C2310.59 32.3372 2317.54 34.0284 2323.64 37.4109C2329.74 40.7933 2334.49 45.5685 2337.89 51.7364C2341.29 57.8049 2342.98 64.8185 2342.98 72.7771ZM2325.14 67.405C2325.04 61.1376 2322.79 56.1137 2318.39 52.3333C2313.99 48.553 2308.54 46.6628 2302.04 46.6628C2296.14 46.6628 2291.09 48.553 2286.89 52.3333C2282.69 56.0142 2280.19 61.0381 2279.39 67.405H2325.14Z" stroke="white" stroke-width="2" mask="url(#path-1-outside-1_2059_6986)"/>
<path d="M2354.11 74.4186C2354.11 66.1615 2355.81 58.8495 2359.21 52.4826C2362.71 46.1156 2367.41 41.1912 2373.31 37.7093C2379.31 34.1279 2385.96 32.3372 2393.26 32.3372C2398.66 32.3372 2403.96 33.531 2409.15 35.9186C2414.45 38.2067 2418.65 41.2907 2421.75 45.1705V5.47675H2439V115.903H2421.75V103.517C2418.95 107.497 2415.05 110.78 2410.05 113.366C2405.15 115.953 2399.51 117.246 2393.11 117.246C2385.91 117.246 2379.31 115.455 2373.31 111.874C2367.41 108.193 2362.71 103.12 2359.21 96.6531C2355.81 90.0872 2354.11 82.6757 2354.11 74.4186ZM2421.75 74.7171C2421.75 69.0465 2420.55 64.1221 2418.15 59.9438C2415.85 55.7655 2412.8 52.582 2409 50.3934C2405.2 48.2048 2401.11 47.1105 2396.71 47.1105C2392.31 47.1105 2388.21 48.2048 2384.41 50.3934C2380.61 52.4826 2377.51 55.6163 2375.11 59.7946C2372.81 63.8734 2371.66 68.7481 2371.66 74.4186C2371.66 80.0892 2372.81 85.0633 2375.11 89.3411C2377.51 93.6189 2380.61 96.9018 2384.41 99.1899C2388.31 101.379 2392.41 102.473 2396.71 102.473C2401.11 102.473 2405.2 101.379 2409 99.1899C2412.8 97.0013 2415.85 93.8178 2418.15 89.6395C2420.55 85.3618 2421.75 80.3876 2421.75 74.7171Z" stroke="white" stroke-width="2" mask="url(#path-1-outside-1_2059_6986)"/>
</svg>
