<svg width="150" height="40" viewBox="0 0 150 40" fill="none" xmlns="http://www.w3.org/2000/svg">
<g clip-path="url(#clip0_2480_8309)">
<mask id="mask0_2480_8309" style="mask-type:alpha" maskUnits="userSpaceOnUse" x="0" y="0" width="150" height="40">
<rect width="150" height="40" fill="#D9D9D9"/>
</mask>
<g mask="url(#mask0_2480_8309)">
<path d="M89.7452 12.0688C83.1563 12.0688 77.8159 17.4097 77.8159 24.0003C77.8159 30.5885 83.1563 35.9315 89.7451 35.9315C96.3359 35.9315 101.678 30.5885 101.678 24.0003C101.678 17.4097 96.3359 12.0688 89.7452 12.0688ZM89.7452 29.7077C86.5942 29.7077 84.0379 27.1522 84.0379 24.0003C84.0379 20.8485 86.5942 18.2909 89.7452 18.2909C92.898 18.2909 95.4543 20.8485 95.4543 24.0003C95.4543 27.1522 92.8979 29.7077 89.7452 29.7077Z" fill="#2E2E2E"/>
<path d="M23.2561 12.3579H18.9366C17.0864 12.3579 16.2098 12.8257 15.143 13.6718L6.54299 22.0754V12.8783C6.54299 12.5884 6.30473 12.3501 6.01422 12.3501H0.528662C0.238264 12.3501 0 12.5884 0 12.8783V35.4725C0 35.7637 0.238264 36.0002 0.528662 36.0002H6.01422C6.30461 36.0002 6.54299 35.7637 6.54299 35.4725V26.0934L15.4064 34.8648C16.3099 35.5794 17.3872 35.9454 18.814 35.9454H23.0249C24.3917 35.9454 23.8866 35.1586 23.8866 35.1586L12.8954 24.1653L23.9248 13.1319C23.9248 13.1319 24.6229 12.3579 23.256 12.3579H23.2561Z" fill="#2E2E2E"/>
<path d="M48.7128 12.3579H44.3933C42.5412 12.3579 41.6657 12.8257 40.5989 13.6718L32.1682 21.9092V12.8783C32.1682 12.5884 31.93 12.3501 31.6396 12.3501H26.1541C25.8628 12.3501 25.6245 12.5884 25.6245 12.8783V35.4725C25.6245 35.7637 25.8628 36.0002 26.154 36.0002H31.6396C31.93 36.0002 32.1683 35.7637 32.1683 35.4725V26.262L40.8614 34.8648C41.7657 35.5793 42.842 35.9454 44.2698 35.9454H48.4807C49.8467 35.9454 49.3433 35.1586 49.3433 35.1586L38.3504 24.1653L49.3806 13.1319C49.3806 13.1319 50.0797 12.358 48.7129 12.358L48.7128 12.3579Z" fill="#2E2E2E"/>
<path d="M125.702 35.0859L116.99 24.1147L125.45 13.1313C125.45 13.1313 126.149 12.3574 124.782 12.3574H121.24C119.513 12.3574 118.489 12.5218 117.64 13.5635L113.397 19.5721L108.824 13.4921C107.973 12.4492 106.989 12.3574 105.241 12.3574H101.732C100.365 12.3574 101.031 13.1314 101.031 13.1314L109.732 24.1147L101.139 35.158C101.139 35.158 100.635 35.9448 102.004 35.9448H105.189C106.267 35.9448 107.942 36.0222 108.966 34.9964C108.982 34.9798 111.265 31.6261 113.397 28.8543C115.55 31.5845 117.858 34.8712 117.877 34.8867C118.901 35.9136 120.701 35.9448 121.781 35.9448H124.732C126.099 35.9448 125.702 35.0859 125.702 35.0859H125.702Z" fill="#2E2E2E"/>
<path d="M63.5649 12.3738C61.3733 12.5477 59.4804 13.5843 57.9163 15.0705V4.35725C57.9163 4.08034 57.7041 3.93286 57.4441 4.02981L51.8472 6.12525C51.5872 6.22174 51.375 6.52918 51.375 6.8078V35.3966C51.3751 35.5306 51.4284 35.6592 51.5231 35.754C51.6178 35.8489 51.7463 35.9023 51.8803 35.9026H57.412C57.6624 35.9026 57.8613 35.7148 57.8997 35.4766V25.3671H57.9066C57.905 25.3131 57.8997 25.9957 57.8997 25.94C57.8997 22.7081 59.9751 19.2572 63.7439 18.1477C66.9593 17.1986 69.7034 19.5355 69.7034 22.7677C69.7034 25.9975 66.9593 29.4579 63.7439 29.851C62.4971 30.0023 61.4524 29.911 60.6046 29.6128V35.8634H63.6483C70.7642 35.8634 75.6924 30.7135 75.8472 24.0692C76.0141 16.8591 70.9172 11.7887 63.5648 12.3738H63.5649Z" fill="#2E2E2E"/>
</g>
</g>
<defs>
<clipPath id="clip0_2480_8309">
<rect width="150" height="40" fill="white"/>
</clipPath>
</defs>
</svg>
