<svg width="90" height="118" viewBox="0 0 90 118" fill="none" xmlns="http://www.w3.org/2000/svg">
<g clip-path="url(#clip0_2660_11197)">
<path d="M45 80C67.0914 80 85 62.0914 85 40C85 17.9086 67.0914 0 45 0C22.9086 0 5 17.9086 5 40C5 62.0914 22.9086 80 45 80Z" fill="white"/>
<path d="M57 40L39 50.3923L39 29.6077L57 40Z" fill="#0C1C24"/>
</g>
<path d="M9.248 104.288C9.248 104.885 9.104 105.445 8.816 105.968C8.53867 106.491 8.096 106.912 7.488 107.232C6.89067 107.552 6.13333 107.712 5.216 107.712H3.344V112H1.104V100.832H5.216C6.08 100.832 6.816 100.981 7.424 101.28C8.032 101.579 8.48533 101.989 8.784 102.512C9.09333 103.035 9.248 103.627 9.248 104.288ZM5.12 105.904C5.73867 105.904 6.19733 105.765 6.496 105.488C6.79467 105.2 6.944 104.8 6.944 104.288C6.944 103.2 6.336 102.656 5.12 102.656H3.344V105.904H5.12ZM14.6784 110.224H18.3584V112H12.4384V100.832H14.6784V110.224ZM28.2301 109.872H23.7821L23.0461 112H20.6941L24.7101 100.816H27.3181L31.3341 112H28.9661L28.2301 109.872ZM27.6221 108.08L26.0061 103.408L24.3901 108.08H27.6221ZM43.3152 100.832L39.5392 108.112V112H37.2992V108.112L33.5072 100.832H36.0352L38.4352 105.936L40.8192 100.832H43.3152ZM57.3796 112L54.9156 107.648H53.8596V112H51.6196V100.832H55.8116C56.6756 100.832 57.4116 100.987 58.0196 101.296C58.6276 101.595 59.081 102.005 59.3796 102.528C59.689 103.04 59.8436 103.616 59.8436 104.256C59.8436 104.992 59.6303 105.659 59.2036 106.256C58.777 106.843 58.1423 107.248 57.2996 107.472L59.9716 112H57.3796ZM53.8596 105.968H55.7316C56.3396 105.968 56.793 105.824 57.0916 105.536C57.3903 105.237 57.5396 104.827 57.5396 104.304C57.5396 103.792 57.3903 103.397 57.0916 103.12C56.793 102.832 56.3396 102.688 55.7316 102.688H53.8596V105.968ZM65.7096 102.64V105.44H69.4696V107.216H65.7096V110.176H69.9496V112H63.4696V100.816H69.9496V102.64H65.7096ZM75.8252 102.64V105.44H79.5852V107.216H75.8252V110.176H80.0652V112H73.5852V100.816H80.0652V102.64H75.8252ZM85.9409 110.224H89.6209V112H83.7009V100.832H85.9409V110.224Z" fill="white"/>
<defs>
<clipPath id="clip0_2660_11197">
<rect width="80" height="80" fill="white" transform="translate(5)"/>
</clipPath>
</defs>
</svg>
