<svg width="65" height="79" viewBox="0 0 65 79" fill="none" xmlns="http://www.w3.org/2000/svg">
<path d="M31.7603 56.0279C47.232 56.0279 59.7743 43.4856 59.7743 28.014C59.7743 12.5423 47.232 0 31.7603 0C16.2886 0 3.74634 12.5423 3.74634 28.014C3.74634 43.4856 16.2886 56.0279 31.7603 56.0279Z" fill="white"/>
<path d="M25.4573 21.7108H38.0636V34.3171H25.4573V21.7108Z" fill="#0C1C24"/>
<path d="M3.71816 78.5175C3.17283 78.5175 2.67978 78.4242 2.23903 78.2374C1.80574 78.0506 1.46211 77.7817 1.20811 77.4306C0.95412 77.0795 0.823388 76.6649 0.815918 76.1868H2.49676C2.51917 76.508 2.63122 76.762 2.83292 76.9488C3.04209 77.1355 3.32597 77.2289 3.68455 77.2289C4.0506 77.2289 4.33821 77.143 4.54738 76.9712C4.75655 76.7919 4.86113 76.5603 4.86113 76.2764C4.86113 76.0448 4.79017 75.8543 4.64823 75.7049C4.50629 75.5555 4.327 75.4397 4.11036 75.3576C3.90119 75.2679 3.60984 75.1708 3.23632 75.0662C2.72834 74.9168 2.31373 74.7711 1.9925 74.6292C1.67875 74.4798 1.40608 74.2594 1.1745 73.9681C0.950385 73.6692 0.838329 73.2733 0.838329 72.7803C0.838329 72.3171 0.95412 71.9137 1.1857 71.5701C1.41728 71.2264 1.74225 70.965 2.16059 70.7857C2.57893 70.5989 3.05704 70.5055 3.5949 70.5055C4.40171 70.5055 5.05536 70.7035 5.55588 71.0994C6.06387 71.4879 6.34401 72.0332 6.3963 72.7355H4.67064C4.6557 72.4665 4.53991 72.2461 4.32327 72.0743C4.1141 71.895 3.83396 71.8054 3.48285 71.8054C3.17656 71.8054 2.93004 71.8838 2.74328 72.0407C2.56399 72.1976 2.47434 72.4254 2.47434 72.7242C2.47434 72.9334 2.54158 73.109 2.67605 73.2509C2.81798 73.3854 2.9898 73.4974 3.1915 73.5871C3.40067 73.6692 3.69202 73.7664 4.06554 73.8784C4.57352 74.0278 4.98813 74.1772 5.30936 74.3266C5.63058 74.4761 5.90699 74.7002 6.13857 74.999C6.37015 75.2978 6.48594 75.69 6.48594 76.1756C6.48594 76.5939 6.37762 76.9824 6.16098 77.3409C5.94434 77.6995 5.62685 77.9871 5.20851 78.2038C4.79017 78.4129 4.29338 78.5175 3.71816 78.5175Z" fill="white"/>
<path d="M14.2892 70.6176V71.8838H12.205V78.4391H10.6362V71.8838H8.55197V70.6176H14.2892Z" fill="white"/>
<path d="M20.185 78.5175C19.4529 78.5175 18.7806 78.3457 18.168 78.0021C17.5555 77.6584 17.0699 77.1841 16.7113 76.579C16.3527 75.9664 16.1734 75.2754 16.1734 74.5059C16.1734 73.744 16.3527 73.0604 16.7113 72.4553C17.0699 71.8427 17.5555 71.3646 18.168 71.021C18.7806 70.6774 19.4529 70.5055 20.185 70.5055C20.9246 70.5055 21.5969 70.6774 22.202 71.021C22.8146 71.3646 23.2964 71.8427 23.6476 72.4553C24.0061 73.0604 24.1854 73.744 24.1854 74.5059C24.1854 75.2754 24.0061 75.9664 23.6476 76.579C23.2964 77.1841 22.8146 77.6584 22.202 78.0021C21.5895 78.3457 20.9171 78.5175 20.185 78.5175ZM20.185 77.1168C20.6557 77.1168 21.0703 77.0122 21.4289 76.8031C21.7874 76.5864 22.0676 76.2802 22.2693 75.8842C22.471 75.4883 22.5718 75.0289 22.5718 74.5059C22.5718 73.983 22.471 73.5273 22.2693 73.1389C22.0676 72.7429 21.7874 72.4404 21.4289 72.2312C21.0703 72.022 20.6557 71.9174 20.185 71.9174C19.7144 71.9174 19.2961 72.022 18.93 72.2312C18.5714 72.4404 18.2913 72.7429 18.0896 73.1389C17.8879 73.5273 17.787 73.983 17.787 74.5059C17.787 75.0289 17.8879 75.4883 18.0896 75.8842C18.2913 76.2802 18.5714 76.5864 18.93 76.8031C19.2961 77.0122 19.7144 77.1168 20.185 77.1168Z" fill="white"/>
<path d="M32.1768 73.038C32.1768 73.4563 32.0759 73.8485 31.8742 74.2146C31.68 74.5806 31.37 74.8757 30.9441 75.0998C30.5258 75.3239 29.9954 75.436 29.353 75.436H28.0419V78.4391H26.4731V70.6176H29.353C29.9581 70.6176 30.4735 70.7222 30.8993 70.9314C31.3251 71.1405 31.6426 71.4281 31.8518 71.7942C32.0684 72.1602 32.1768 72.5748 32.1768 73.038ZM29.2857 74.1698C29.719 74.1698 30.0402 74.0727 30.2494 73.8784C30.4586 73.6767 30.5632 73.3966 30.5632 73.038C30.5632 72.276 30.1373 71.895 29.2857 71.895H28.0419V74.1698H29.2857Z" fill="white"/>
<path d="M42.2358 78.4391L40.5101 75.3912H39.7706V78.4391H38.2018V70.6176H41.1376C41.7427 70.6176 42.2582 70.7259 42.684 70.9426C43.1098 71.1517 43.4273 71.4393 43.6365 71.8054C43.8531 72.164 43.9614 72.5674 43.9614 73.0156C43.9614 73.531 43.812 73.9979 43.5132 74.4163C43.2144 74.8272 42.7699 75.111 42.1798 75.2679L44.0511 78.4391H42.2358ZM39.7706 74.2146H41.0816C41.5074 74.2146 41.8249 74.1137 42.0341 73.912C42.2433 73.7029 42.3478 73.4153 42.3478 73.0492C42.3478 72.6906 42.2433 72.4142 42.0341 72.22C41.8249 72.0183 41.5074 71.9174 41.0816 71.9174H39.7706V74.2146Z" fill="white"/>
<path d="M48.0697 71.8838V73.8448H50.703V75.0886H48.0697V77.1617H51.0392V78.4391H46.5009V70.6064H51.0392V71.8838H48.0697Z" fill="white"/>
<path d="M55.1542 71.8838V73.8448H57.7875V75.0886H55.1542V77.1617H58.1236V78.4391H53.5854V70.6064H58.1236V71.8838H55.1542Z" fill="white"/>
<path d="M62.2386 77.1953H64.8159V78.4391H60.6699V70.6176H62.2386V77.1953Z" fill="white"/>
</svg>
