<svg width="150" height="40" viewBox="0 0 150 40" fill="none" xmlns="http://www.w3.org/2000/svg">
<g clip-path="url(#clip0_2480_8954)">
<path d="M36.8197 15.053C35.5391 15.061 34.2585 15.053 32.9789 15.084C32.6164 15.092 32.6752 14.8838 32.6752 14.6716C32.6752 12.3603 32.66 10.049 32.6883 7.7377C32.6934 7.28225 32.5598 7.19817 32.1275 7.20017C27.9637 7.21719 23.801 7.20017 19.6372 7.21318C17.0932 7.22019 14.946 8.87383 14.3396 11.2562C13.8081 13.3433 14.7283 15.6245 16.5961 16.8738C17.3584 17.3833 18.2158 17.6746 19.0763 17.9609C20.5307 18.4351 21.922 19.081 23.2199 19.8848C27.4717 22.5714 27.9627 26.8407 26.2225 30.4092C24.3658 34.213 21.1496 36.224 16.9018 36.3792C13.064 36.5193 9.21611 36.4052 5.37325 36.4252C4.95111 36.4252 4.96832 36.225 4.96832 35.9397C4.97338 30.6515 4.96832 25.3642 4.98249 20.076C4.98249 19.6435 4.88834 19.5204 4.43684 19.5314C3.08941 19.5645 1.73995 19.5384 0.387461 19.5474C0.133363 19.5474 -0.00735458 19.5264 -0.00634223 19.2101C0.00918037 13.8401 0.0169521 8.46977 0.0169521 3.0991C0.118186 3.02402 0.243718 3.05005 0.359125 3.05005C3.18255 3.05005 6.00699 3.05005 8.83142 3.04404C9.12298 3.04404 9.3376 3.08909 9.3376 3.42842C9.33152 4.65364 9.40643 5.87986 9.29609 7.10308C9.13816 7.37234 8.86382 7.32529 8.61985 7.3273C7.45768 7.33631 6.29145 7.3273 5.13232 7.3273C4.53605 7.3273 4.4986 7.36534 4.49759 7.94791C4.49759 10.1254 4.49759 12.3029 4.49759 14.4804C4.49759 15.081 4.53302 15.118 5.16472 15.12C6.17706 15.12 7.18941 15.12 8.20175 15.12C9.43681 15.12 9.45605 15.1381 9.45605 16.3342V31.1039C9.45605 31.2531 9.46516 31.4042 9.45605 31.5524C9.42871 31.9257 9.57753 32.0959 9.9774 32.0939C12.0021 32.0839 14.0268 32.194 16.0413 32.0589C18.1976 31.9137 20.0907 31.0579 21.4736 29.3432C23.0498 27.3922 22.6236 24.8327 20.5372 23.4233C19.4094 22.6615 18.1349 22.2221 16.8634 21.7867C15.3216 21.2591 13.8739 20.5584 12.6793 19.4393C10.9958 17.8598 10.113 15.8878 9.81643 13.6406C9.47325 11.038 10.0938 8.69266 11.7207 6.61559C12.9729 5.014 14.5947 3.93392 16.5343 3.29529C17.1154 3.1031 17.7259 3.12512 18.3141 3H18.9215C19.0946 3.1001 19.2849 3.04905 19.4661 3.04905C25.0745 3.04905 30.6829 3.04905 36.2913 3.04905C36.8713 3.04905 36.8723 3.04905 36.8723 3.6006C36.8723 7.25489 36.8723 10.9099 36.8723 14.5655C36.8744 14.7307 36.9149 14.9018 36.8197 15.053Z" fill="#0C0C0C"/>
<path d="M150.001 17.7668C149.26 17.7728 148.517 17.8098 147.779 17.7728C147.283 17.7488 147.122 17.8659 147.127 18.3924C147.155 21.4835 147.141 24.5745 147.141 27.6656C147.141 28.8828 146.785 29.4134 145.622 29.8498C144.306 30.3453 142.941 30.2662 141.583 30.097C140.784 29.9969 139.999 29.8017 139.203 29.6736C138.923 29.6286 138.851 29.5014 138.86 29.2422C138.876 28.7107 138.891 28.1771 138.86 27.6476C138.833 27.2472 138.961 27.1541 139.333 27.2832C140.274 27.5961 141.247 27.8026 142.235 27.8989C142.854 27.9752 143.481 27.93 144.082 27.7657C144.515 27.6426 144.728 27.3863 144.727 26.9379C144.727 24.013 144.718 21.0881 144.734 18.1632C144.734 17.7898 144.555 17.7758 144.27 17.7768C141.794 17.7828 139.318 17.7618 136.841 17.7948C136.305 17.8018 136.175 17.6387 136.221 17.1542C136.254 16.723 136.254 16.29 136.221 15.8589C136.201 15.5216 136.335 15.4405 136.656 15.4445C138.02 15.4585 139.384 15.4445 140.749 15.4505C143.831 15.4552 146.914 15.4612 149.997 15.4685L150.001 17.7668Z" fill="#0C0C0C"/>
<path d="M36.8201 15.0531C36.8201 11.2493 36.811 7.44556 36.8293 3.64178C36.8293 3.19934 36.7078 3.08723 36.2644 3.08823C30.6742 3.10291 25.0837 3.10492 19.4929 3.09424C19.3015 3.09424 19.0879 3.17632 18.9209 2.99414H36.9234C36.9234 6.84797 36.9187 10.7011 36.9092 14.5536C36.9082 14.7218 37.0186 14.922 36.8201 15.0531Z" fill="white"/>
<path d="M9.31167 3C9.31167 4.24424 9.31167 5.48847 9.29851 6.7317C9.29851 6.88085 9.39266 7.06303 9.20942 7.18215C9.20942 5.98696 9.19222 4.79178 9.2155 3.59659C9.22259 3.2052 9.10819 3.08908 8.70933 3.09609C5.81504 3.11311 2.92075 3.1061 0.0264549 3.1071L0.0102539 3.007L9.31167 3Z" fill="white"/>
<path d="M110.848 22.4253C110.818 22.5254 110.792 22.6165 110.756 22.7096C110.42 23.6105 110.074 24.5114 109.751 25.4123C109.656 25.6806 109.549 25.7416 109.285 25.6125C108.881 25.4053 108.476 25.2191 108.055 25.0369C107.864 24.9529 107.82 24.8628 107.911 24.6586C108.302 23.7604 108.635 22.8386 108.909 21.8988C108.988 21.6356 109.087 21.5915 109.333 21.6926C109.751 21.8648 110.181 22.0079 110.606 22.1671C110.727 22.2101 110.877 22.2392 110.848 22.4253Z" fill="white"/>
<path d="M123.318 28.5425C122.042 27.7957 120.867 26.8908 119.823 25.8498C119.588 25.6116 119.592 25.4914 119.862 25.2842C120.914 24.4803 121.904 23.599 122.823 22.6476C123.067 22.3914 123.15 22.1992 122.823 21.9299C122.49 21.648 122.183 21.3378 121.906 21.003C121.665 20.7187 121.515 20.7727 121.281 21.02C120.481 21.8507 119.63 22.6325 118.734 23.3613C118.499 23.5615 118.402 23.5615 118.309 23.2352C118.086 22.4182 117.926 21.5856 117.831 20.7447C117.79 20.4294 117.905 20.3443 118.214 20.3513C119.241 20.3683 120.27 20.3603 121.297 20.3513C121.986 20.3513 122.179 20.1661 122.179 19.5025C122.179 16.4775 122.179 13.4521 122.179 10.4265C122.179 9.80786 121.991 9.60065 121.375 9.59865C118.393 9.5913 115.41 9.5913 112.427 9.59865C111.82 9.59865 111.649 9.79083 111.642 10.3844C111.634 11.0241 111.642 11.6647 111.642 12.4104C110.582 11.6417 109.579 10.975 108.65 10.2213C107.956 9.6597 107.233 9.37843 106.342 9.48754C106.076 9.52057 105.885 9.56962 105.7 9.78783C104.793 10.8413 103.735 11.7591 102.562 12.5125C102.231 12.7237 101.643 12.8248 101.627 13.1612C101.613 13.4615 102.052 13.7978 102.309 14.1031C102.78 14.6627 103.204 15.1922 103.118 16.027C103.024 16.96 102.986 16.8278 103.928 16.8518C104.41 16.8659 105.042 16.6366 105.334 16.9519C105.627 17.2673 105.381 17.8749 105.426 18.3533C105.458 18.6957 105.308 18.7718 104.991 18.7648C104.181 18.7467 103.372 18.7718 102.562 18.7527C102.244 18.7447 102.157 18.8528 102.167 19.1531C102.189 19.5836 102.189 20.018 102.167 20.4484C102.151 20.7617 102.237 20.8959 102.584 20.8849C103.341 20.8618 104.102 20.9029 104.858 20.8678C105.293 20.8488 105.437 20.9589 105.429 21.4134C105.4 23.092 105.418 24.7707 105.418 26.4504C105.418 27.2292 105.418 27.2312 104.655 27.3733C104.325 27.4354 103.994 27.4984 103.66 27.5385C101.912 27.7447 101.93 27.7387 102.206 29.4824C102.275 29.9118 102.417 29.9829 102.814 29.8988C105.101 29.4223 107.395 28.9809 109.678 28.4924C110.078 28.4063 110.177 28.5325 110.252 28.8608C110.361 29.3302 110.523 29.7867 110.625 30.2562C110.683 30.5204 110.812 30.5755 111.049 30.5274C113.228 30.087 115.378 29.5535 117.447 28.7337C117.695 28.6336 117.786 28.5214 117.684 28.2502C117.503 27.7677 117.339 27.2782 117.204 26.7817C117.118 26.4654 116.977 26.4604 116.704 26.5635C115.95 26.8468 115.179 27.087 114.425 27.3713C114.02 27.5255 113.899 27.4364 113.903 27.0019C113.922 25.1731 113.911 23.3443 113.911 21.5155C113.911 20.2732 113.911 20.2803 115.195 20.3503C115.431 20.3633 115.506 20.4324 115.527 20.6636C115.576 21.1922 115.648 21.7197 115.739 22.2422C116.363 25.8138 118.484 28.3353 121.5 30.2321C121.675 30.3423 121.789 30.3322 121.942 30.2081C122.509 29.7397 123.085 29.2812 123.705 28.7817C123.544 28.6826 123.43 28.6115 123.318 28.5425ZM111.639 27.5495C111.639 27.8248 111.715 28.1501 111.264 28.1501L110.876 28.1341C110.768 27.5134 110.651 26.8938 110.552 26.2712C110.508 25.9859 110.342 26.033 110.147 26.085C109.482 26.2642 108.814 26.4324 108.15 26.6145C107.859 26.6936 107.705 26.6926 107.711 26.3022C107.733 24.6406 107.73 22.9779 107.711 21.3153C107.711 20.9629 107.813 20.8578 108.168 20.8698C108.892 20.8939 109.617 20.8698 110.342 20.8829C110.652 20.8899 110.758 20.7828 110.746 20.4825C110.726 20.035 110.723 19.5816 110.746 19.1371C110.765 18.8158 110.629 18.7457 110.334 18.7527C109.592 18.7688 108.85 18.7427 108.107 18.7648C107.788 18.7748 107.695 18.6647 107.715 18.3644C107.744 17.8859 107.563 17.2693 107.802 16.963C108.058 16.6336 108.713 16.8629 109.193 16.8518C109.879 16.8318 109.888 16.8519 109.877 16.1862C109.868 15.7067 110.079 15.0851 109.797 14.7848C109.484 14.4615 108.839 14.6847 108.34 14.6847C106.822 14.6697 105.303 14.6797 103.801 14.6797C103.757 14.6176 103.772 14.5796 103.819 14.5506C104.944 13.8455 105.962 12.9854 106.841 11.996C106.999 11.8209 107.098 11.8118 107.284 11.969C108.08 12.6357 108.904 13.2703 109.693 13.946C109.972 14.1832 110.138 14.1892 110.372 13.8879C110.736 13.4184 111.148 12.987 111.547 12.5256C111.695 12.6747 111.635 12.8138 111.635 12.935C111.64 17.8071 111.641 22.6786 111.639 27.5495ZM113.914 13.5886C113.937 13.1882 113.924 12.7878 113.914 12.3874C113.904 11.987 114.097 11.7728 114.522 11.7728C116.106 11.7728 117.69 11.7788 119.28 11.7728C119.714 11.7728 119.887 11.973 119.874 12.3854C119.861 12.7858 119.854 13.1862 119.874 13.5866C119.892 13.8869 119.79 13.987 119.476 13.981C118.617 13.962 117.755 13.975 116.897 13.975C116.04 13.975 115.176 13.964 114.319 13.975C114.015 13.984 113.891 13.9029 113.914 13.5886ZM114.225 18.1932C114.016 18.1932 113.915 18.1231 113.921 17.9059C113.928 17.4054 113.931 16.9049 113.921 16.4114C113.915 16.1301 114.072 16.0881 114.306 16.0901C115.182 16.0961 116.057 16.0901 116.938 16.0901C117.779 16.0901 118.622 16.1041 119.463 16.0831C119.799 16.0751 119.909 16.1832 119.885 16.5095C119.859 16.8899 119.885 17.2733 119.873 17.6556C119.862 17.987 119.686 18.1832 119.335 18.1842C117.621 18.1852 115.921 18.1842 114.218 18.1892L114.225 18.1932Z" fill="#0C0C0C"/>
<path d="M26.8765 36.3861C28.7645 34.8135 30.0735 32.9997 30.8398 30.8426C32.9182 24.9948 31.0342 20.0509 25.5999 16.4783C24.4693 15.7513 23.2269 15.2104 21.9211 14.8767C21.612 14.7964 21.3078 14.6988 21.01 14.5844C19.8225 14.118 19.2566 13.123 19.5431 12.0279C19.8154 10.9869 20.8379 10.3853 22.0618 10.5144C23.8888 10.7192 25.6594 11.2672 27.2784 12.129C32.006 14.5904 34.9722 18.4192 35.8368 23.6094C36.5272 27.7495 35.8145 31.7175 33.2745 35.2329C32.6671 36.0688 32 36.5062 30.8935 36.4091C29.6119 36.299 28.312 36.3861 26.8765 36.3861Z" fill="#0C0C0C"/>
<path d="M66.8786 20.2682C66.8786 19.4604 66.6761 19.2622 65.8663 19.2612C63.2207 19.2612 60.5758 19.2612 57.9315 19.2612H50.0464C49.1859 19.2612 48.9794 19.4614 48.9784 20.3233C48.9784 21.8028 48.9784 23.2819 48.9784 24.7607C48.9784 26.3062 48.9905 27.8528 48.9692 29.3983C48.9692 29.7787 49.0847 29.8988 49.4582 29.8688C49.8945 29.8387 50.3339 29.8688 50.7743 29.8608C51.5841 29.8538 51.5062 29.9398 51.4667 29.1791C51.4414 28.7016 51.6297 28.6456 52.0437 28.6476C55.9018 28.6616 59.7598 28.6556 63.6179 28.6556C64.3984 28.6556 64.4146 28.6556 64.4105 29.4454C64.4105 29.7707 64.5118 29.8828 64.8408 29.8678C65.3465 29.8376 65.8536 29.8376 66.3593 29.8678C66.7855 29.8988 66.8928 29.7527 66.8898 29.3402C66.8715 26.3182 66.8806 23.2932 66.8786 20.2682ZM63.9702 26.3523C61.9455 26.3373 59.9208 26.3443 57.9032 26.3443C55.9311 26.3443 53.955 26.3363 51.9881 26.3523C51.6115 26.3523 51.4616 26.2852 51.4717 25.8688C51.5021 24.6396 51.5102 23.4074 51.4717 22.1791C51.4535 21.6336 51.735 21.5785 52.149 21.5845C54.0387 21.5885 55.9264 21.5885 57.8121 21.5845C59.7693 21.5845 61.7241 21.5845 63.6766 21.5845C64.3721 21.5845 64.4227 21.6366 64.4227 22.3183C64.4227 23.5195 64.4095 24.7126 64.4308 25.9088C64.4348 26.2642 64.3164 26.3543 63.9702 26.3523Z" fill="#0C0C0C"/>
<path d="M93.752 24.0026C93.752 25.9315 93.7439 27.8595 93.7591 29.7884C93.7591 30.1377 93.6579 30.2568 93.3056 30.2358C92.8514 30.2008 92.3951 30.2008 91.9409 30.2358C91.4641 30.2789 91.3193 30.1457 91.3224 29.6472C91.3457 25.8735 91.3224 22.0997 91.3457 18.326C91.3457 17.8805 91.2444 17.7064 90.7707 17.7494C90.283 17.7829 89.7935 17.7829 89.3058 17.7494C88.9758 17.7334 88.8755 17.8425 88.8755 18.1708C88.8755 19.1838 88.8668 20.1972 88.8492 21.2109C88.8077 24.1618 87.6648 26.6643 85.8345 28.9185C85.5601 29.2558 85.2554 29.5692 84.9912 29.9125C84.8039 30.1567 84.6632 30.1788 84.4354 29.9565C84.0163 29.5481 83.581 29.1557 83.1305 28.7784C82.8825 28.5782 82.8683 28.446 83.1042 28.2048C83.9474 27.3439 84.729 26.429 85.3536 25.394C86.2647 23.8925 86.5482 22.2299 86.5603 20.5182C86.5826 17.2599 86.5664 14.0007 86.5664 10.7425C86.5664 9.89661 86.6788 9.78751 87.518 9.7815C89.7408 9.78105 91.9605 9.61778 94.159 9.29301C94.6105 9.22295 94.8676 9.29301 94.9688 9.7855C95.0614 10.2086 95.202 10.6199 95.3879 11.0117C95.5773 11.4301 95.3879 11.5232 95.0245 11.5673C93.2529 11.7855 91.4813 11.9747 89.6925 11.9917C88.8887 11.9987 88.8887 12.0047 88.8826 12.8055C88.8826 13.5372 88.9079 14.27 88.8735 14.9997C88.8533 15.4121 89.0082 15.4922 89.3908 15.4892C91.3143 15.4721 93.2377 15.4792 95.1541 15.4822C95.8759 15.4822 95.7797 15.4001 95.7878 16.1308C95.7878 16.5632 95.7747 16.9957 95.7878 17.4321C95.799 17.6994 95.6967 17.7814 95.4365 17.7694C95.0498 17.7534 94.6591 17.7925 94.2744 17.7584C93.8603 17.7214 93.7307 17.8475 93.7368 18.2729C93.7682 20.1788 93.752 22.0907 93.752 24.0026Z" fill="#0C0C0C"/>
<path d="M78.3809 16.7399C79.1635 16.7399 79.947 16.7399 80.7296 16.7399C80.9756 16.7399 81.0262 16.5497 81.1011 16.3895C81.5516 15.4246 81.996 14.4546 82.2967 13.4316C82.3807 13.1433 82.4667 13.0452 82.7735 13.1763C83.2209 13.3685 83.6846 13.5287 84.1452 13.6768C84.4266 13.7679 84.5056 13.8921 84.4074 14.1874C84.1732 14.9328 83.8919 15.663 83.5651 16.3735C83.4325 16.6498 83.4781 16.7559 83.8081 16.7429C84.2799 16.7229 84.7516 16.7429 85.2254 16.7359C85.442 16.7359 85.5767 16.7759 85.5706 17.0362C85.5574 17.5517 85.5544 18.0672 85.5706 18.5827C85.5807 18.895 85.3853 18.877 85.1748 18.877C84.1128 18.877 83.0488 18.893 81.9899 18.867C81.6063 18.858 81.506 18.9671 81.5111 19.3425C81.5253 20.4496 81.5111 20.4496 82.654 20.4496C83.4801 20.4496 84.3062 20.4606 85.1312 20.4436C85.443 20.4376 85.5959 20.4986 85.5736 20.844C85.5483 21.2924 85.5483 21.7419 85.5736 22.1903C85.5888 22.4976 85.4724 22.5907 85.1687 22.5907C84.3143 22.5747 83.4588 22.5847 82.4354 22.5847C82.7391 22.885 82.9476 23.0852 83.1501 23.2854C83.7403 23.879 84.3224 24.4796 84.9207 25.0652C85.1231 25.2654 85.1818 25.4015 84.9207 25.6137C84.518 25.9446 84.1325 26.2954 83.7656 26.6647C83.5631 26.8649 83.4437 26.8649 83.2594 26.6337C82.7213 25.9385 82.1401 25.2769 81.5192 24.6528V28.2163C81.5192 28.7648 81.507 29.3174 81.5243 29.8619C81.5344 30.1432 81.4412 30.2453 81.1517 30.2343C80.6634 30.2098 80.1741 30.2098 79.6858 30.2343C79.3133 30.2583 79.1938 30.1502 79.1999 29.7678C79.2222 28.2884 79.209 26.8079 79.209 25.3274V24.8269C78.7231 25.4555 78.3101 26.0061 77.8778 26.5426C77.3676 27.1621 76.8213 27.7517 76.2418 28.3084C76.0323 28.5156 75.8825 28.5246 75.6435 28.3614C75.1212 28.0041 74.5775 27.6778 74.0137 27.3194C75.6466 25.918 77.1287 24.4495 78.3333 22.5867H76.6124C76.09 22.5867 75.5666 22.5717 75.0453 22.5927C74.7304 22.6057 74.6322 22.4926 74.6474 22.1923C74.6719 21.7589 74.6719 21.3244 74.6474 20.891C74.6251 20.5487 74.7274 20.4316 75.0918 20.4386C76.3066 20.4596 77.5214 20.4336 78.7363 20.4546C79.1017 20.4606 79.2313 20.3785 79.2262 19.9911C79.2121 18.873 79.2313 18.873 78.0914 18.873C77.1135 18.873 76.1355 18.864 75.1556 18.879C74.858 18.879 74.7294 18.8129 74.7507 18.4936C74.776 18.0292 74.7719 17.5617 74.7507 17.0972C74.7385 16.808 74.8519 16.7249 75.1303 16.7319C75.7711 16.7479 76.4119 16.7269 77.0537 16.7409C77.3514 16.7479 77.402 16.6588 77.2896 16.3955C76.997 15.7049 76.7055 15.0142 76.2894 14.3856C76.1163 14.1233 76.1517 13.9852 76.4463 13.864C76.8776 13.6788 77.2987 13.4636 77.7128 13.2434C77.9395 13.1213 78.0711 13.1523 78.1967 13.3796C78.6393 14.183 79.0387 15.009 79.3933 15.854C79.4945 16.0832 79.4125 16.1803 79.2009 16.2604C78.9134 16.3705 78.635 16.5047 78.3536 16.6278C78.3607 16.6648 78.3718 16.7018 78.3809 16.7399Z" fill="#0C0C0C"/>
<path d="M52.337 15.3284L63.2571 14.7278C62.7753 14.2793 62.3723 13.8939 61.9583 13.5266C61.5108 13.1262 61.0654 12.7158 60.5937 12.3404C60.3304 12.1312 60.3679 12.0021 60.5937 11.7999C61.0158 11.4195 61.4238 11.0211 61.8206 10.6137C61.9968 10.4335 62.1101 10.4255 62.3065 10.5977C64.3009 12.3394 66.2415 14.1362 68.0617 16.0571C68.3715 16.3844 68.6691 16.7257 68.985 17.0481C69.1723 17.2383 69.2057 17.3744 68.9647 17.5606C68.4879 17.9299 68.0253 18.3183 67.5748 18.7187C67.3804 18.8909 67.2771 18.8338 67.1283 18.6687C66.6606 18.1452 66.1707 17.6407 65.704 17.1161C65.6375 17.032 65.5502 16.9662 65.4506 16.9252C65.3509 16.8842 65.2422 16.8693 65.135 16.8819C62.9018 17.0401 60.6682 17.1935 58.4343 17.3424C56.7883 17.4525 55.1419 17.5592 53.4951 17.6627C51.6638 17.7768 49.8304 17.8739 48.0011 18.011C47.6681 18.036 47.5547 17.955 47.4899 17.6537C47.3735 17.1191 47.2378 16.5866 47.0768 16.0631C46.9695 15.7157 47.1042 15.6066 47.4261 15.6036C47.6114 15.6036 47.8017 15.5596 47.9809 15.5896C48.7513 15.7167 49.2048 15.3414 49.6391 14.7538C50.9693 12.952 52.2631 11.1302 53.3999 9.20427C53.6338 8.80988 53.8049 8.78986 54.146 9.05613C54.5302 9.35259 54.9363 9.62027 55.3608 9.85692C55.6959 10.0461 55.7384 10.2093 55.535 10.5456C54.6482 12.0181 53.6905 13.4435 52.6812 14.8369C52.586 14.966 52.4949 15.1011 52.337 15.3284Z" fill="#0C0C0C"/>
<path d="M131.418 21.8325C130.965 22.2069 130.608 22.5022 130.246 22.8005C130.087 22.9336 129.955 22.9736 129.769 22.8115C129.303 22.4051 128.821 22.0107 128.335 21.6313C128.155 21.4892 128.148 21.4031 128.335 21.2589C130.38 19.7003 132.04 17.7019 133.188 15.4151C133.289 15.2229 133.375 15.1799 133.57 15.281C134.105 15.5583 134.644 15.8325 135.19 16.0818C135.442 16.1979 135.392 16.315 135.284 16.4992C134.87 17.1829 134.48 17.8816 134.054 18.5573C133.89 18.806 133.805 19.0973 133.81 19.3941C133.818 22.7324 133.804 26.0717 133.827 29.404C133.827 29.8605 133.697 29.9756 133.264 29.9416C132.792 29.9083 132.319 29.9083 131.847 29.9416C131.481 29.9656 131.399 29.8284 131.4 29.4891C131.415 27.1137 131.408 24.7384 131.408 22.364L131.418 21.8325Z" fill="#0C0C0C"/>
<path d="M143.179 10.0941C145.065 10.0941 146.95 10.1021 148.835 10.0861C149.191 10.0861 149.306 10.1862 149.286 10.5355C149.255 10.9998 149.255 11.4657 149.286 11.9299C149.318 12.3483 149.166 12.4625 148.748 12.4605C145.415 12.4454 142.082 12.4515 138.749 12.4515C138.329 12.4515 137.906 12.4374 137.486 12.4515C137.176 12.4665 137.025 12.3974 137.046 12.045C137.074 11.5309 137.074 11.0157 137.046 10.5015C137.03 10.1732 137.141 10.0791 137.471 10.0821C139.374 10.1011 141.276 10.0941 143.179 10.0941Z" fill="#0C0C0C"/>
<path d="M80.2332 12.8868C78.651 12.8868 77.0676 12.8768 75.4854 12.8948C75.13 12.8948 75.0116 12.7947 75.0338 12.4474C75.0587 11.9996 75.0587 11.5508 75.0338 11.103C75.0197 10.8027 75.127 10.7026 75.4388 10.7026C76.5665 10.7176 77.6953 10.6936 78.823 10.7176C79.2158 10.7257 79.3464 10.6175 79.3363 10.2171C79.315 9.30024 79.3363 9.29924 80.2646 9.29924C80.3659 9.29924 80.4671 9.29924 80.5683 9.29924C80.9348 9.32026 81.3853 9.15609 81.6465 9.3703C81.9077 9.58452 81.7356 10.027 81.7335 10.3713C81.7335 10.6876 81.8955 10.7136 82.1445 10.7116C83.1043 10.7046 84.068 10.7227 85.0237 10.7016C85.3739 10.6936 85.5035 10.7927 85.4782 11.1471C85.4483 11.5613 85.4483 11.9771 85.4782 12.3913C85.5076 12.7757 85.3942 12.9028 84.9832 12.8918C83.3988 12.8728 81.8155 12.8868 80.2332 12.8868Z" fill="#0C0C0C"/>
<path d="M128.398 15.0241C128.923 14.4806 129.452 13.971 129.936 13.4225C130.942 12.2788 131.753 10.9813 132.338 9.58069C132.453 9.30841 132.565 9.22734 132.859 9.36247C133.376 9.60071 133.911 9.8019 134.443 10.0081C134.637 10.0832 134.698 10.1703 134.602 10.3765C133.598 12.5326 132.394 14.5556 130.614 16.1953C130.456 16.3414 130.333 16.3894 130.14 16.2493C129.569 15.8359 128.989 15.4385 128.398 15.0241Z" fill="#0C0C0C"/>
<path d="M104.827 25.8258C104.897 26.077 104.711 26.093 104.575 26.1261C104.055 26.2602 103.531 26.3773 103.012 26.5145C102.775 26.5775 102.692 26.5055 102.642 26.2702C102.363 24.9689 102.05 23.6847 101.567 22.4434C101.488 22.2432 101.548 22.1431 101.751 22.0931C102.14 21.988 102.524 21.8699 102.91 21.7547C103.619 21.5465 103.619 21.5465 103.869 22.2482C104.287 23.4127 104.608 24.6093 104.827 25.8258Z" fill="#0C0C0C"/>
<path d="M110.848 22.4253C110.818 22.5254 110.792 22.6165 110.756 22.7096C110.42 23.6105 110.074 24.5114 109.751 25.4123C109.656 25.6806 109.549 25.7416 109.285 25.6125C108.881 25.4053 108.476 25.2191 108.055 25.0369C107.864 24.9529 107.82 24.8628 107.911 24.6586C108.302 23.7604 108.635 22.8386 108.909 21.8988C108.988 21.6356 109.087 21.5915 109.333 21.6926C109.751 21.8648 110.181 22.0079 110.606 22.1671C110.727 22.2101 110.877 22.2392 110.848 22.4253Z" fill="white"/>
<path d="M111.264 28.1552C111.203 28.1855 111.136 28.1999 111.068 28.1971C111 28.1943 110.934 28.1743 110.876 28.1392L111.264 28.1552Z" fill="white"/>
<path d="M111.264 28.1552C111.089 28.3284 110.837 28.1832 110.612 28.3864C110.655 28.1542 110.77 28.1522 110.876 28.1392L111.264 28.1552Z" fill="white"/>
<path d="M110.848 22.4253C110.818 22.5254 110.792 22.6165 110.756 22.7096C110.42 23.6105 110.074 24.5114 109.751 25.4123C109.656 25.6806 109.549 25.7416 109.285 25.6125C108.881 25.4053 108.476 25.2191 108.055 25.0369C107.864 24.9529 107.82 24.8628 107.911 24.6586C108.302 23.7604 108.635 22.8386 108.909 21.8988C108.988 21.6356 109.087 21.5915 109.333 21.6926C109.751 21.8648 110.181 22.0079 110.606 22.1671C110.727 22.2101 110.877 22.2392 110.848 22.4253Z" fill="#0C0C0C"/>
</g>
<defs>
<clipPath id="clip0_2480_8954">
<rect width="150" height="33.4532" fill="white" transform="translate(0 3)"/>
</clipPath>
</defs>
</svg>
