<svg width="290" height="290" viewBox="0 0 290 290" fill="none" xmlns="http://www.w3.org/2000/svg">
<path d="M82.1253 272.88L78.8293 284H76.7653L74.4293 275.584L71.9493 284L69.9013 284.016L66.7493 272.88H68.6853L70.9893 281.936L73.4853 272.88H75.5333L77.8533 281.888L80.1733 272.88H82.1253ZM93.3097 279.376C93.3097 279.707 93.2884 280.005 93.2457 280.272H86.5097C86.563 280.976 86.8244 281.541 87.2937 281.968C87.763 282.395 88.339 282.608 89.0217 282.608C90.003 282.608 90.6964 282.197 91.1017 281.376H93.0697C92.803 282.187 92.3177 282.853 91.6137 283.376C90.9204 283.888 90.0564 284.144 89.0217 284.144C88.179 284.144 87.4217 283.957 86.7497 283.584C86.0884 283.2 85.5657 282.667 85.1817 281.984C84.8084 281.291 84.6217 280.491 84.6217 279.584C84.6217 278.677 84.803 277.883 85.1657 277.2C85.539 276.507 86.0564 275.973 86.7177 275.6C87.3897 275.227 88.1577 275.04 89.0217 275.04C89.8537 275.04 90.595 275.221 91.2457 275.584C91.8964 275.947 92.403 276.459 92.7657 277.12C93.1284 277.771 93.3097 278.523 93.3097 279.376ZM91.4057 278.8C91.395 278.128 91.155 277.589 90.6857 277.184C90.2164 276.779 89.635 276.576 88.9417 276.576C88.3124 276.576 87.7737 276.779 87.3257 277.184C86.8777 277.579 86.611 278.117 86.5257 278.8H91.4057ZM101.853 279.552C101.853 278.667 102.034 277.883 102.397 277.2C102.77 276.517 103.272 275.989 103.901 275.616C104.541 275.232 105.25 275.04 106.029 275.04C106.605 275.04 107.17 275.168 107.725 275.424C108.29 275.669 108.738 276 109.069 276.416V272.16H110.909V284H109.069V282.672C108.77 283.099 108.354 283.451 107.821 283.728C107.298 284.005 106.696 284.144 106.013 284.144C105.245 284.144 104.541 283.952 103.901 283.568C103.272 283.173 102.77 282.629 102.397 281.936C102.034 281.232 101.853 280.437 101.853 279.552ZM109.069 279.584C109.069 278.976 108.941 278.448 108.685 278C108.44 277.552 108.114 277.211 107.709 276.976C107.304 276.741 106.866 276.624 106.397 276.624C105.928 276.624 105.49 276.741 105.085 276.976C104.68 277.2 104.349 277.536 104.093 277.984C103.848 278.421 103.725 278.944 103.725 279.552C103.725 280.16 103.848 280.693 104.093 281.152C104.349 281.611 104.68 281.963 105.085 282.208C105.501 282.443 105.938 282.56 106.397 282.56C106.866 282.56 107.304 282.443 107.709 282.208C108.114 281.973 108.44 281.632 108.685 281.184C108.941 280.725 109.069 280.192 109.069 279.584ZM122.985 279.376C122.985 279.707 122.963 280.005 122.921 280.272H116.185C116.238 280.976 116.499 281.541 116.969 281.968C117.438 282.395 118.014 282.608 118.697 282.608C119.678 282.608 120.371 282.197 120.777 281.376H122.745C122.478 282.187 121.993 282.853 121.289 283.376C120.595 283.888 119.731 284.144 118.697 284.144C117.854 284.144 117.097 283.957 116.425 283.584C115.763 283.2 115.241 282.667 114.857 281.984C114.483 281.291 114.297 280.491 114.297 279.584C114.297 278.677 114.478 277.883 114.841 277.2C115.214 276.507 115.731 275.973 116.393 275.6C117.065 275.227 117.833 275.04 118.697 275.04C119.529 275.04 120.27 275.221 120.921 275.584C121.571 275.947 122.078 276.459 122.441 277.12C122.803 277.771 122.985 278.523 122.985 279.376ZM121.081 278.8C121.07 278.128 120.83 277.589 120.361 277.184C119.891 276.779 119.31 276.576 118.617 276.576C117.987 276.576 117.449 276.779 117.001 277.184C116.553 277.579 116.286 278.117 116.201 278.8H121.081ZM128.204 272.16V284H126.38V272.16H128.204ZM133.126 274.016C132.796 274.016 132.518 273.904 132.294 273.68C132.07 273.456 131.958 273.179 131.958 272.848C131.958 272.517 132.07 272.24 132.294 272.016C132.518 271.792 132.796 271.68 133.126 271.68C133.446 271.68 133.718 271.792 133.942 272.016C134.166 272.24 134.278 272.517 134.278 272.848C134.278 273.179 134.166 273.456 133.942 273.68C133.718 273.904 133.446 274.016 133.126 274.016ZM134.022 275.184V284H132.198V275.184H134.022ZM141.425 282.368L143.921 275.184H145.857L142.497 284H140.321L136.977 275.184H138.929L141.425 282.368ZM156.916 279.376C156.916 279.707 156.895 280.005 156.852 280.272H150.116C150.169 280.976 150.431 281.541 150.9 281.968C151.369 282.395 151.945 282.608 152.628 282.608C153.609 282.608 154.303 282.197 154.708 281.376H156.676C156.409 282.187 155.924 282.853 155.22 283.376C154.527 283.888 153.663 284.144 152.628 284.144C151.785 284.144 151.028 283.957 150.356 283.584C149.695 283.2 149.172 282.667 148.788 281.984C148.415 281.291 148.228 280.491 148.228 279.584C148.228 278.677 148.409 277.883 148.772 277.2C149.145 276.507 149.663 275.973 150.324 275.6C150.996 275.227 151.764 275.04 152.628 275.04C153.46 275.04 154.201 275.221 154.852 275.584C155.503 275.947 156.009 276.459 156.372 277.12C156.735 277.771 156.916 278.523 156.916 279.376ZM155.012 278.8C155.001 278.128 154.761 277.589 154.292 277.184C153.823 276.779 153.241 276.576 152.548 276.576C151.919 276.576 151.38 276.779 150.932 277.184C150.484 277.579 150.217 278.117 150.132 278.8H155.012ZM162.135 276.464C162.402 276.016 162.754 275.669 163.191 275.424C163.639 275.168 164.167 275.04 164.775 275.04V276.928H164.311C163.596 276.928 163.052 277.109 162.679 277.472C162.316 277.835 162.135 278.464 162.135 279.36V284H160.311V275.184H162.135V276.464ZM177.216 282.368L179.712 275.184H181.648L178.288 284H176.112L172.768 275.184H174.72L177.216 282.368ZM184.019 279.552C184.019 278.667 184.2 277.883 184.563 277.2C184.936 276.517 185.437 275.989 186.067 275.616C186.707 275.232 187.411 275.04 188.179 275.04C188.872 275.04 189.475 275.179 189.987 275.456C190.509 275.723 190.925 276.059 191.235 276.464V275.184H193.075V284H191.235V282.688C190.925 283.104 190.504 283.451 189.971 283.728C189.437 284.005 188.829 284.144 188.147 284.144C187.389 284.144 186.696 283.952 186.067 283.568C185.437 283.173 184.936 282.629 184.563 281.936C184.2 281.232 184.019 280.437 184.019 279.552ZM191.235 279.584C191.235 278.976 191.107 278.448 190.851 278C190.605 277.552 190.28 277.211 189.875 276.976C189.469 276.741 189.032 276.624 188.563 276.624C188.093 276.624 187.656 276.741 187.251 276.976C186.845 277.2 186.515 277.536 186.259 277.984C186.013 278.421 185.891 278.944 185.891 279.552C185.891 280.16 186.013 280.693 186.259 281.152C186.515 281.611 186.845 281.963 187.251 282.208C187.667 282.443 188.104 282.56 188.563 282.56C189.032 282.56 189.469 282.443 189.875 282.208C190.28 281.973 190.605 281.632 190.851 281.184C191.107 280.725 191.235 280.192 191.235 279.584ZM198.894 272.16V284H197.07V272.16H198.894ZM210.873 275.184V284H209.049V282.96C208.761 283.323 208.382 283.611 207.913 283.824C207.454 284.027 206.964 284.128 206.441 284.128C205.748 284.128 205.124 283.984 204.569 283.696C204.025 283.408 203.593 282.981 203.273 282.416C202.964 281.851 202.809 281.168 202.809 280.368V275.184H204.617V280.096C204.617 280.885 204.814 281.493 205.209 281.92C205.604 282.336 206.142 282.544 206.825 282.544C207.508 282.544 208.046 282.336 208.441 281.92C208.846 281.493 209.049 280.885 209.049 280.096V275.184H210.873ZM222.96 279.376C222.96 279.707 222.938 280.005 222.896 280.272H216.16C216.213 280.976 216.474 281.541 216.944 281.968C217.413 282.395 217.989 282.608 218.672 282.608C219.653 282.608 220.346 282.197 220.752 281.376H222.72C222.453 282.187 221.968 282.853 221.264 283.376C220.57 283.888 219.706 284.144 218.672 284.144C217.829 284.144 217.072 283.957 216.4 283.584C215.738 283.2 215.216 282.667 214.832 281.984C214.458 281.291 214.272 280.491 214.272 279.584C214.272 278.677 214.453 277.883 214.816 277.2C215.189 276.507 215.706 275.973 216.368 275.6C217.04 275.227 217.808 275.04 218.672 275.04C219.504 275.04 220.245 275.221 220.896 275.584C221.546 275.947 222.053 276.459 222.416 277.12C222.778 277.771 222.96 278.523 222.96 279.376ZM221.056 278.8C221.045 278.128 220.805 277.589 220.336 277.184C219.866 276.779 219.285 276.576 218.592 276.576C217.962 276.576 217.424 276.779 216.976 277.184C216.528 277.579 216.261 278.117 216.176 278.8H221.056Z" fill="#FFFBF7"/>
<circle cx="111.5" cy="91.5" r="73" stroke="#FFFBF7" stroke-opacity="0.3" stroke-dasharray="3 3"/>
<circle cx="180" cy="90" r="71.5" stroke="#FFFBF7"/>
<circle cx="111.5" cy="158.5" r="73" stroke="#FFFBF7"/>
<circle cx="180" cy="160" r="71.5" stroke="#FFFBF7" stroke-opacity="0.3" stroke-dasharray="3 3"/>
<path d="M125 123.5C136.323 123.5 145.5 132.677 145.5 144C145.5 132.677 154.677 123.5 166 123.5C154.677 123.5 145.5 114.323 145.5 103C145.5 114.323 136.323 123.5 125 123.5Z" fill="#FFFBF7"/>
</svg>
