<svg width="290" height="290" viewBox="0 0 290 290" fill="none" xmlns="http://www.w3.org/2000/svg">
<g clip-path="url(#clip0_1547_6520)">
<circle cx="145" cy="125" r="114.5" stroke="#FFFBF7"/>
<circle cx="145" cy="10" r="9.5" stroke="#FFFBF7"/>
<path d="M148 164L198.229 251H97.7705L148 164Z" fill="#FFFBF7"/>
<path d="M68.5378 272.88L65.2418 284H63.1778L60.8418 275.584L58.3618 284L56.3138 284.016L53.1618 272.88H55.0978L57.4018 281.936L59.8978 272.88H61.9458L64.2658 281.888L66.5858 272.88H68.5378ZM79.7222 279.376C79.7222 279.707 79.7009 280.005 79.6582 280.272H72.9222C72.9755 280.976 73.2369 281.541 73.7062 281.968C74.1755 282.395 74.7515 282.608 75.4342 282.608C76.4155 282.608 77.1089 282.197 77.5142 281.376H79.4822C79.2155 282.187 78.7302 282.853 78.0262 283.376C77.3329 283.888 76.4689 284.144 75.4342 284.144C74.5915 284.144 73.8342 283.957 73.1622 283.584C72.5009 283.2 71.9782 282.667 71.5942 281.984C71.2209 281.291 71.0342 280.491 71.0342 279.584C71.0342 278.677 71.2155 277.883 71.5782 277.2C71.9515 276.507 72.4689 275.973 73.1302 275.6C73.8022 275.227 74.5702 275.04 75.4342 275.04C76.2662 275.04 77.0075 275.221 77.6582 275.584C78.3089 275.947 78.8155 276.459 79.1782 277.12C79.5409 277.771 79.7222 278.523 79.7222 279.376ZM77.8182 278.8C77.8075 278.128 77.5675 277.589 77.0982 277.184C76.6289 276.779 76.0475 276.576 75.3542 276.576C74.7249 276.576 74.1862 276.779 73.7382 277.184C73.2902 277.579 73.0235 278.117 72.9382 278.8H77.8182ZM90.6974 276.496C91.0068 276.069 91.4281 275.723 91.9614 275.456C92.5054 275.179 93.1081 275.04 93.7694 275.04C94.5481 275.04 95.2521 275.227 95.8814 275.6C96.5108 275.973 97.0068 276.507 97.3694 277.2C97.7321 277.883 97.9134 278.667 97.9134 279.552C97.9134 280.437 97.7321 281.232 97.3694 281.936C97.0068 282.629 96.5054 283.173 95.8654 283.568C95.2361 283.952 94.5374 284.144 93.7694 284.144C93.0868 284.144 92.4788 284.011 91.9454 283.744C91.4228 283.477 91.0068 283.136 90.6974 282.72V284H88.8734V272.16H90.6974V276.496ZM96.0574 279.552C96.0574 278.944 95.9294 278.421 95.6734 277.984C95.4281 277.536 95.0974 277.2 94.6814 276.976C94.2761 276.741 93.8388 276.624 93.3694 276.624C92.9108 276.624 92.4734 276.741 92.0574 276.976C91.6521 277.211 91.3214 277.552 91.0654 278C90.8201 278.448 90.6974 278.976 90.6974 279.584C90.6974 280.192 90.8201 280.725 91.0654 281.184C91.3214 281.632 91.6521 281.973 92.0574 282.208C92.4734 282.443 92.9108 282.56 93.3694 282.56C93.8388 282.56 94.2761 282.443 94.6814 282.208C95.0974 281.963 95.4281 281.611 95.6734 281.152C95.9294 280.693 96.0574 280.16 96.0574 279.552ZM109.301 275.184V284H107.477V282.96C107.189 283.323 106.811 283.611 106.341 283.824C105.883 284.027 105.392 284.128 104.869 284.128C104.176 284.128 103.552 283.984 102.997 283.696C102.453 283.408 102.021 282.981 101.701 282.416C101.392 281.851 101.237 281.168 101.237 280.368V275.184H103.045V280.096C103.045 280.885 103.243 281.493 103.637 281.92C104.032 282.336 104.571 282.544 105.253 282.544C105.936 282.544 106.475 282.336 106.869 281.92C107.275 281.493 107.477 280.885 107.477 280.096V275.184H109.301ZM114.236 274.016C113.905 274.016 113.628 273.904 113.404 273.68C113.18 273.456 113.068 273.179 113.068 272.848C113.068 272.517 113.18 272.24 113.404 272.016C113.628 271.792 113.905 271.68 114.236 271.68C114.556 271.68 114.828 271.792 115.052 272.016C115.276 272.24 115.388 272.517 115.388 272.848C115.388 273.179 115.276 273.456 115.052 273.68C114.828 273.904 114.556 274.016 114.236 274.016ZM115.132 275.184V284H113.308V275.184H115.132ZM120.951 272.16V284H119.127V272.16H120.951ZM124.337 279.552C124.337 278.667 124.519 277.883 124.881 277.2C125.255 276.517 125.756 275.989 126.385 275.616C127.025 275.232 127.735 275.04 128.513 275.04C129.089 275.04 129.655 275.168 130.209 275.424C130.775 275.669 131.223 276 131.553 276.416V272.16H133.393V284H131.553V282.672C131.255 283.099 130.839 283.451 130.305 283.728C129.783 284.005 129.18 284.144 128.497 284.144C127.729 284.144 127.025 283.952 126.385 283.568C125.756 283.173 125.255 282.629 124.881 281.936C124.519 281.232 124.337 280.437 124.337 279.552ZM131.553 279.584C131.553 278.976 131.425 278.448 131.169 278C130.924 277.552 130.599 277.211 130.193 276.976C129.788 276.741 129.351 276.624 128.881 276.624C128.412 276.624 127.975 276.741 127.569 276.976C127.164 277.2 126.833 277.536 126.577 277.984C126.332 278.421 126.209 278.944 126.209 279.552C126.209 280.16 126.332 280.693 126.577 281.152C126.833 281.611 127.164 281.963 127.569 282.208C127.985 282.443 128.423 282.56 128.881 282.56C129.351 282.56 129.788 282.443 130.193 282.208C130.599 281.973 130.924 281.632 131.169 281.184C131.425 280.725 131.553 280.192 131.553 279.584ZM146.345 284.144C145.652 284.144 145.028 284.021 144.473 283.776C143.929 283.52 143.497 283.179 143.177 282.752C142.857 282.315 142.687 281.829 142.665 281.296H144.553C144.585 281.669 144.761 281.984 145.081 282.24C145.412 282.485 145.823 282.608 146.313 282.608C146.825 282.608 147.22 282.512 147.497 282.32C147.785 282.117 147.929 281.861 147.929 281.552C147.929 281.221 147.769 280.976 147.449 280.816C147.14 280.656 146.644 280.48 145.961 280.288C145.3 280.107 144.761 279.931 144.345 279.76C143.929 279.589 143.567 279.328 143.257 278.976C142.959 278.624 142.809 278.16 142.809 277.584C142.809 277.115 142.948 276.688 143.225 276.304C143.503 275.909 143.897 275.6 144.409 275.376C144.932 275.152 145.529 275.04 146.201 275.04C147.204 275.04 148.009 275.296 148.617 275.808C149.236 276.309 149.567 276.997 149.609 277.872H147.785C147.753 277.477 147.593 277.163 147.305 276.928C147.017 276.693 146.628 276.576 146.137 276.576C145.657 276.576 145.289 276.667 145.033 276.848C144.777 277.029 144.649 277.269 144.649 277.568C144.649 277.803 144.735 278 144.905 278.16C145.076 278.32 145.284 278.448 145.529 278.544C145.775 278.629 146.137 278.741 146.617 278.88C147.257 279.051 147.78 279.227 148.185 279.408C148.601 279.579 148.959 279.835 149.257 280.176C149.556 280.517 149.711 280.971 149.721 281.536C149.721 282.037 149.583 282.485 149.305 282.88C149.028 283.275 148.633 283.584 148.121 283.808C147.62 284.032 147.028 284.144 146.345 284.144ZM155.42 276.672V281.552C155.42 281.883 155.495 282.123 155.644 282.272C155.804 282.411 156.071 282.48 156.444 282.48H157.564V284H156.124C155.303 284 154.674 283.808 154.236 283.424C153.799 283.04 153.58 282.416 153.58 281.552V276.672H152.54V275.184H153.58V272.992H155.42V275.184H157.564V276.672H155.42ZM162.669 276.464C162.936 276.016 163.288 275.669 163.725 275.424C164.173 275.168 164.701 275.04 165.309 275.04V276.928H164.845C164.131 276.928 163.587 277.109 163.213 277.472C162.851 277.835 162.669 278.464 162.669 279.36V284H160.845V275.184H162.669V276.464ZM167.978 279.552C167.978 278.667 168.159 277.883 168.522 277.2C168.895 276.517 169.397 275.989 170.026 275.616C170.666 275.232 171.37 275.04 172.138 275.04C172.831 275.04 173.434 275.179 173.946 275.456C174.469 275.723 174.885 276.059 175.194 276.464V275.184H177.034V284H175.194V282.688C174.885 283.104 174.463 283.451 173.93 283.728C173.397 284.005 172.789 284.144 172.106 284.144C171.349 284.144 170.655 283.952 170.026 283.568C169.397 283.173 168.895 282.629 168.522 281.936C168.159 281.232 167.978 280.437 167.978 279.552ZM175.194 279.584C175.194 278.976 175.066 278.448 174.81 278C174.565 277.552 174.239 277.211 173.834 276.976C173.429 276.741 172.991 276.624 172.522 276.624C172.053 276.624 171.615 276.741 171.21 276.976C170.805 277.2 170.474 277.536 170.218 277.984C169.973 278.421 169.85 278.944 169.85 279.552C169.85 280.16 169.973 280.693 170.218 281.152C170.474 281.611 170.805 281.963 171.21 282.208C171.626 282.443 172.063 282.56 172.522 282.56C172.991 282.56 173.429 282.443 173.834 282.208C174.239 281.973 174.565 281.632 174.81 281.184C175.066 280.725 175.194 280.192 175.194 279.584ZM183.158 276.672V281.552C183.158 281.883 183.232 282.123 183.382 282.272C183.542 282.411 183.808 282.48 184.182 282.48H185.302V284H183.862C183.04 284 182.411 283.808 181.974 283.424C181.536 283.04 181.318 282.416 181.318 281.552V276.672H180.278V275.184H181.318V272.992H183.158V275.184H185.302V276.672H183.158ZM196.663 279.376C196.663 279.707 196.641 280.005 196.599 280.272H189.863C189.916 280.976 190.177 281.541 190.647 281.968C191.116 282.395 191.692 282.608 192.375 282.608C193.356 282.608 194.049 282.197 194.455 281.376H196.423C196.156 282.187 195.671 282.853 194.967 283.376C194.273 283.888 193.409 284.144 192.375 284.144C191.532 284.144 190.775 283.957 190.103 283.584C189.441 283.2 188.919 282.667 188.535 281.984C188.161 281.291 187.975 280.491 187.975 279.584C187.975 278.677 188.156 277.883 188.519 277.2C188.892 276.507 189.409 275.973 190.071 275.6C190.743 275.227 191.511 275.04 192.375 275.04C193.207 275.04 193.948 275.221 194.599 275.584C195.249 275.947 195.756 276.459 196.119 277.12C196.481 277.771 196.663 278.523 196.663 279.376ZM194.759 278.8C194.748 278.128 194.508 277.589 194.039 277.184C193.569 276.779 192.988 276.576 192.295 276.576C191.665 276.576 191.127 276.779 190.679 277.184C190.231 277.579 189.964 278.117 189.879 278.8H194.759ZM203.61 275.04C204.292 275.04 204.895 275.179 205.418 275.456C205.951 275.723 206.367 276.059 206.666 276.464V275.184H208.506V284.144C208.506 284.955 208.335 285.675 207.994 286.304C207.652 286.944 207.156 287.445 206.506 287.808C205.866 288.171 205.098 288.352 204.202 288.352C203.007 288.352 202.015 288.069 201.226 287.504C200.436 286.949 199.988 286.192 199.882 285.232H201.69C201.828 285.691 202.122 286.059 202.57 286.336C203.028 286.624 203.572 286.768 204.202 286.768C204.938 286.768 205.53 286.544 205.978 286.096C206.436 285.648 206.666 284.997 206.666 284.144V282.672C206.356 283.088 205.935 283.44 205.402 283.728C204.879 284.005 204.282 284.144 203.61 284.144C202.842 284.144 202.138 283.952 201.498 283.568C200.868 283.173 200.367 282.629 199.994 281.936C199.631 281.232 199.45 280.437 199.45 279.552C199.45 278.667 199.631 277.883 199.994 277.2C200.367 276.517 200.868 275.989 201.498 275.616C202.138 275.232 202.842 275.04 203.61 275.04ZM206.666 279.584C206.666 278.976 206.538 278.448 206.282 278C206.036 277.552 205.711 277.211 205.306 276.976C204.9 276.741 204.463 276.624 203.994 276.624C203.524 276.624 203.087 276.741 202.682 276.976C202.276 277.2 201.946 277.536 201.69 277.984C201.444 278.421 201.322 278.944 201.322 279.552C201.322 280.16 201.444 280.693 201.69 281.152C201.946 281.611 202.276 281.963 202.682 282.208C203.098 282.443 203.535 282.56 203.994 282.56C204.463 282.56 204.9 282.443 205.306 282.208C205.711 281.973 206.036 281.632 206.282 281.184C206.538 280.725 206.666 280.192 206.666 279.584ZM213.43 274.016C213.099 274.016 212.822 273.904 212.598 273.68C212.374 273.456 212.262 273.179 212.262 272.848C212.262 272.517 212.374 272.24 212.598 272.016C212.822 271.792 213.099 271.68 213.43 271.68C213.75 271.68 214.022 271.792 214.246 272.016C214.47 272.24 214.582 272.517 214.582 272.848C214.582 273.179 214.47 273.456 214.246 273.68C214.022 273.904 213.75 274.016 213.43 274.016ZM214.326 275.184V284H212.502V275.184H214.326ZM226.4 279.376C226.4 279.707 226.379 280.005 226.336 280.272H219.6C219.654 280.976 219.915 281.541 220.384 281.968C220.854 282.395 221.43 282.608 222.112 282.608C223.094 282.608 223.787 282.197 224.192 281.376H226.16C225.894 282.187 225.408 282.853 224.704 283.376C224.011 283.888 223.147 284.144 222.112 284.144C221.27 284.144 220.512 283.957 219.84 283.584C219.179 283.2 218.656 282.667 218.272 281.984C217.899 281.291 217.712 280.491 217.712 279.584C217.712 278.677 217.894 277.883 218.256 277.2C218.63 276.507 219.147 275.973 219.808 275.6C220.48 275.227 221.248 275.04 222.112 275.04C222.944 275.04 223.686 275.221 224.336 275.584C224.987 275.947 225.494 276.459 225.856 277.12C226.219 277.771 226.4 278.523 226.4 279.376ZM224.496 278.8C224.486 278.128 224.246 277.589 223.776 277.184C223.307 276.779 222.726 276.576 222.032 276.576C221.403 276.576 220.864 276.779 220.416 277.184C219.968 277.579 219.702 278.117 219.616 278.8H224.496ZM232.995 284.144C232.302 284.144 231.678 284.021 231.123 283.776C230.579 283.52 230.147 283.179 229.827 282.752C229.507 282.315 229.337 281.829 229.315 281.296H231.203C231.235 281.669 231.411 281.984 231.731 282.24C232.062 282.485 232.473 282.608 232.963 282.608C233.475 282.608 233.87 282.512 234.147 282.32C234.435 282.117 234.579 281.861 234.579 281.552C234.579 281.221 234.419 280.976 234.099 280.816C233.79 280.656 233.294 280.48 232.611 280.288C231.95 280.107 231.411 279.931 230.995 279.76C230.579 279.589 230.217 279.328 229.907 278.976C229.609 278.624 229.459 278.16 229.459 277.584C229.459 277.115 229.598 276.688 229.875 276.304C230.153 275.909 230.547 275.6 231.059 275.376C231.582 275.152 232.179 275.04 232.851 275.04C233.854 275.04 234.659 275.296 235.267 275.808C235.886 276.309 236.217 276.997 236.259 277.872H234.435C234.403 277.477 234.243 277.163 233.955 276.928C233.667 276.693 233.278 276.576 232.787 276.576C232.307 276.576 231.939 276.667 231.683 276.848C231.427 277.029 231.299 277.269 231.299 277.568C231.299 277.803 231.385 278 231.555 278.16C231.726 278.32 231.934 278.448 232.179 278.544C232.425 278.629 232.787 278.741 233.267 278.88C233.907 279.051 234.43 279.227 234.835 279.408C235.251 279.579 235.609 279.835 235.907 280.176C236.206 280.517 236.361 280.971 236.371 281.536C236.371 282.037 236.233 282.485 235.955 282.88C235.678 283.275 235.283 283.584 234.771 283.808C234.27 284.032 233.678 284.144 232.995 284.144Z" fill="#FFFBF7"/>
</g>
<defs>
<clipPath id="clip0_1547_6520">
<rect width="290" height="290" fill="white"/>
</clipPath>
</defs>
</svg>
