<svg width="400" height="250" viewBox="0 0 400 250" fill="none" xmlns="http://www.w3.org/2000/svg">
<path d="M247.994 72.4073L255.498 34.4207L284.105 49.4277L247.994 72.4073Z" fill="#040D12"/>
<path d="M247.994 72.4073L255.498 34.4207L284.105 49.4277L247.994 72.4073Z" fill="#EF562E"/>
<path d="M227.359 3L394.313 27.3865L293.015 81.7871L227.359 3Z" fill="#040D12"/>
<path d="M227.359 3L394.313 27.3865L293.015 81.7871L227.359 3Z" fill="#EF562E"/>
<path d="M227.359 3L394.313 27.3865L293.015 81.7871L227.359 3Z" fill="#FF7754"/>
<path d="M351.165 33.9529H254.557L248.93 73.3464" stroke="#FFFBF7" stroke-width="2"/>
<path d="M228.298 3.93713L293.954 81.7863" stroke="#FFFBF7" stroke-width="2"/>
<path d="M6 246.866C6 129.277 101.324 33.9529 218.913 33.9529" stroke="#FFFBF7"/>
<path d="M214.163 75.2217C163.174 90.9325 124.534 127.8 104.911 173.219" stroke="#FFFBF7"/>
</svg>
