<svg width="1716" height="352" viewBox="0 0 1716 352" fill="none" xmlns="http://www.w3.org/2000/svg">
<path fill-rule="evenodd" clip-rule="evenodd" d="M719.112 284.116C707.72 269.502 678.28 269.502 666.888 284.116C634.681 325.43 584.443 352 528 352C430.798 352 352 273.202 352 176C352 78.7979 430.798 0 528 0C584.443 0 634.681 26.5697 666.888 67.8842C678.28 82.4977 707.72 82.4976 719.112 67.8842C751.319 26.5697 801.557 0 858 0C914.443 0 964.681 26.5697 996.888 67.8842C1008.28 82.4976 1037.72 82.4976 1049.11 67.8842C1081.32 26.5697 1131.56 0 1188 0C1285.2 0 1364 78.7979 1364 176C1364 273.202 1285.2 352 1188 352C1131.56 352 1081.32 325.43 1049.11 284.116C1037.72 269.502 1008.28 269.502 996.888 284.116C964.681 325.43 914.443 352 858 352C801.557 352 751.319 325.43 719.112 284.116Z" fill="#E73523"/>
<circle cx="176" cy="176" r="176" fill="#E7E7E7"/>
<circle cx="1540" cy="176" r="176" fill="#E7E7E7"/>
<path d="M466.372 140.736V149.484H470.512V144.732H484.192V149.484H488.548V140.736H466.372ZM476.884 148.872V162.3C476.884 166.368 477.712 167.7 481.312 167.7C481.96 167.7 484.012 167.7 484.696 167.7C487.792 167.7 488.836 165.972 489.196 159.996C488.08 159.672 486.28 158.952 485.416 158.232C485.308 162.948 485.164 163.74 484.264 163.74C483.868 163.74 482.392 163.74 482.032 163.74C481.204 163.74 481.096 163.56 481.096 162.264V148.872H476.884ZM474.472 134.4C474.4 147 474.868 158.7 464.536 164.928C465.652 165.72 466.984 167.16 467.632 168.24C478.612 161.148 478.684 148.044 478.756 134.4H474.472ZM457.48 138C459.46 139.152 462.376 140.916 463.744 141.96L466.12 138.432C464.644 137.46 461.692 135.84 459.784 134.868L457.48 138ZM455.644 147.972C457.696 149.088 460.684 150.816 462.088 151.86L464.356 148.296C462.844 147.288 459.856 145.704 457.84 144.768L455.644 147.972ZM456.616 164.892L460.036 167.808C462.088 164.316 464.284 160.212 466.084 156.396L463.132 153.552C461.08 157.692 458.416 162.192 456.616 164.892ZM492.796 137.82C494.632 138.936 496.9 140.592 497.908 141.816L500.5 138.576C499.384 137.388 497.08 135.876 495.244 134.94L492.796 137.82ZM491.932 147.36C493.768 148.332 496.108 149.952 497.152 151.032L499.672 147.756C498.52 146.64 496.144 145.236 494.308 144.372L491.932 147.36ZM492.112 165.756L495.82 167.556C496.972 164.136 498.196 159.924 499.096 156.108L495.748 154.236C494.704 158.376 493.228 162.948 492.112 165.756ZM513.712 150.312V153.84H522.856V150.312H513.712ZM504.172 149.412V152.652H513.28V149.412H504.172ZM503.704 156.504V159.816H513.856V156.504H503.704ZM515.62 135.588V139.116H521.92V135.588H515.62ZM521.38 150.312V150.96C520.048 158.16 516.016 163.344 510.652 165.576C511.408 166.224 512.344 167.484 512.848 168.348C519.076 165.396 523.432 160.104 525.16 150.96L522.748 150.168L522.064 150.312H521.38ZM517.096 153.696L514.108 154.452C515.908 160.572 519.112 165.648 523.864 168.276C524.476 167.268 525.628 165.828 526.492 165.072C521.992 163.02 518.68 158.7 517.096 153.696ZM514.324 135.588V140.916C514.324 143.22 514.144 145.956 512.344 148.044C513.1 148.44 514.612 149.628 515.152 150.312C517.312 147.828 517.744 143.94 517.744 140.988V135.588H514.324ZM519.616 135.588V144.552C519.616 146.748 519.796 147.396 520.3 147.972C520.804 148.512 521.596 148.764 522.352 148.764C522.748 148.764 523.288 148.764 523.756 148.764C524.26 148.764 524.908 148.656 525.304 148.404C525.736 148.152 526.06 147.72 526.24 147.18C526.492 146.64 526.6 145.308 526.672 144.12C525.88 143.868 524.908 143.364 524.332 142.896C524.332 143.904 524.296 144.696 524.188 145.056C524.152 145.38 524.08 145.596 524.008 145.668C523.936 145.74 523.828 145.74 523.72 145.74C523.612 145.74 523.504 145.74 523.432 145.74C523.288 145.74 523.216 145.704 523.144 145.596C523.108 145.452 523.144 145.092 523.144 144.48V135.588H519.616ZM502.156 135.66V139.116H509.248V141.24H502.156V144.768H512.884V135.66H502.156ZM508.996 160.968C509.896 162.048 510.796 163.632 511.192 164.64L513.892 162.984C513.46 162.012 512.524 160.536 511.552 159.492L508.996 160.968ZM500.572 135.66V148.584C500.572 153.768 500.356 160.716 497.656 165.504C498.484 165.864 499.996 166.872 500.644 167.484C503.56 162.3 503.992 154.2 503.992 148.548V135.66H500.572ZM505.36 145.704V157.836H507.916V145.704H505.36ZM509.32 145.704V157.836H511.876V145.704H509.32ZM505.288 159.78C504.748 161.868 503.56 164.712 502.228 166.224C503.02 166.692 504.28 167.592 504.928 168.168C506.26 166.584 507.664 163.524 508.42 161.148L505.288 159.78ZM543.592 137.064V147.072H547.804V137.064H543.592ZM543.592 158.664V168.24H547.876V158.664H543.592ZM542.368 147.216C540.892 148.764 538.408 150.852 536.392 152.148L539.308 153.804C541.324 152.616 543.988 150.816 546.256 149.016L542.368 147.216ZM550.612 149.052C547.048 151.896 541.144 155.46 536.5 157.62L539.164 159.528C543.808 157.512 549.784 154.236 554.32 151.14L550.612 149.052ZM532.54 152.364C535.276 153.84 538.768 156.108 540.424 157.656L543.664 155.172C541.828 153.552 538.264 151.428 535.564 150.096L532.54 152.364ZM550.684 155.424C553.636 157.188 557.2 159.924 558.892 161.796L562.24 159.6C560.404 157.692 556.696 155.1 553.816 153.444L550.684 155.424ZM550.072 162.876C552.916 164.316 556.624 166.548 558.388 168.024L561.772 165.576C559.756 164.1 555.94 161.976 553.24 160.68L550.072 162.876ZM530.092 157.368L530.236 160.788C537.184 160.716 547.912 160.464 557.884 160.176L558.1 157.044C547.984 157.224 537.004 157.368 530.092 157.368ZM537.472 160.968C535.6 162.624 532.36 164.208 529.372 165.216C530.308 165.9 531.82 167.304 532.54 168.096C535.528 166.764 539.092 164.64 541.36 162.444L537.472 160.968ZM536.464 143.724H555.184V145.596H536.464V143.724ZM536.464 138.792H555.184V140.628H536.464V138.792ZM532.432 135.516V148.872H559.432V135.516H532.432ZM570.988 137.784V168.204H575.2V137.784H570.988ZM566.128 144.264V148.296H578.764V144.264H566.128ZM571.348 146.172C570.232 150.168 567.712 155.388 565.228 158.268C565.876 159.348 566.848 161.148 567.244 162.408C569.98 158.844 572.5 152.436 573.868 147.288L571.348 146.172ZM576.568 134.796C573.904 135.948 569.584 136.92 565.696 137.46C566.164 138.396 566.74 139.872 566.884 140.772C570.988 140.34 575.848 139.476 579.448 138.144L576.568 134.796ZM574.84 149.16L572.968 150.852C574.084 152.364 576.244 155.64 577.072 157.368L579.556 153.984C578.872 153.156 575.74 149.916 574.84 149.16ZM586.72 134.436V145.956H591.004V134.436H586.72ZM579.664 136.092V138.72H598.528V136.092H579.664ZM580.312 139.944V142.428H597.7V139.944H580.312ZM578.548 143.652V146.352H599.248V143.652H578.548ZM584.668 154.2H593.416V155.748H584.668V154.2ZM584.668 158.196H593.416V159.744H584.668V158.196ZM584.668 150.24H593.416V151.716H584.668V150.24ZM580.78 147.576V162.408H597.484V147.576H580.78ZM590.068 164.064C592.192 165.396 594.676 167.196 596.044 168.276L599.788 166.26C598.168 165.108 595.288 163.38 592.948 161.976L590.068 164.064ZM584.812 161.796C583.084 163.2 579.664 164.892 576.784 165.72C577.612 166.44 578.8 167.628 579.448 168.42C582.364 167.484 585.964 165.72 588.16 164.028L584.812 161.796Z" fill="#FFFDF5"/>
<path d="M805.372 147.18V168.24H809.728V147.18H805.372ZM795.904 151.68V155.604H819.052V151.68H795.904ZM810.556 153.408L807.316 154.596C809.548 159.384 813.256 164.244 817.036 166.944C817.756 165.864 819.124 164.316 820.096 163.488C816.352 161.328 812.536 157.332 810.556 153.408ZM804.796 153.084C802.708 157.188 798.712 161.292 794.608 163.416C795.544 164.244 796.912 165.792 797.596 166.836C801.844 164.136 805.84 159.348 808.18 154.272L804.796 153.084ZM802.384 139.8H812.968V144.624H802.384V139.8ZM798.28 136.02V148.44H817.288V136.02H798.28ZM793.564 134.508C791.656 139.656 788.416 144.768 785.068 148.008C785.788 149.052 786.976 151.428 787.336 152.436C791.332 148.368 795.184 141.924 797.596 135.804L793.564 134.508ZM790.108 144.48V168.132H794.212V140.412L794.176 140.376L790.108 144.48ZM835.648 138.54V142.428H854.476V138.54H835.648ZM834.424 152.364V156.288H855.772V152.364H834.424ZM834.1 145.596V149.52H856.06V145.596H834.1ZM843.028 134.58V147.612H847.132V134.58H843.028ZM847.708 148.836V163.632C847.708 164.1 847.564 164.244 846.988 164.244C846.448 164.28 844.576 164.28 842.956 164.172C843.46 165.324 844 167.052 844.144 168.24C846.772 168.24 848.68 168.204 850.012 167.556C851.416 166.944 851.812 165.864 851.812 163.704V148.836H847.708ZM836.404 158.34C837.916 160.284 839.572 162.984 840.184 164.712L843.856 162.552C843.136 160.824 841.336 158.268 839.824 156.432L836.404 158.34ZM821.86 152.688L822.832 156.864C826.036 155.928 830.104 154.776 833.884 153.624L833.344 149.736C829.168 150.888 824.812 152.04 821.86 152.688ZM822.436 141.276V145.236H833.56V141.276H822.436ZM826.504 134.472V163.416C826.504 163.92 826.36 164.064 825.928 164.064C825.496 164.064 824.236 164.064 822.94 163.992C823.444 165.18 823.948 166.944 824.056 168.024C826.36 168.06 827.944 167.88 829.024 167.232C830.14 166.548 830.5 165.432 830.5 163.452V134.472H826.504ZM872.728 137.208V141.276H889.18V137.208H872.728ZM887.632 137.208V138.252C887.344 155.28 886.984 161.832 885.904 163.092C885.508 163.632 885.148 163.812 884.536 163.812C883.672 163.812 882.016 163.812 880.108 163.632C880.864 164.928 881.404 166.872 881.476 168.096C883.42 168.168 885.4 168.204 886.732 167.952C888.064 167.664 889 167.196 889.936 165.756C891.304 163.812 891.664 157.476 892.024 139.404C892.06 138.828 892.06 137.208 892.06 137.208H887.632ZM877.984 139.08C877.804 149.016 877.804 159.24 869.776 164.892C870.928 165.684 872.26 167.124 873.016 168.276C881.656 161.724 882.16 150.24 882.412 139.08H877.984ZM864.16 153.012V168.24H868.408V147.936L864.16 153.012ZM859.48 140.844V144.696H870.244V140.844H859.48ZM864.16 134.472V142.932H868.408V134.472H864.16ZM867.976 150.276L865.708 152.256C867.22 153.804 870.172 157.296 871.468 159.204L874.024 155.892C873.088 154.956 869.164 151.212 867.976 150.276ZM869.056 140.844V141.672C867.22 146.892 862.828 152.688 858.472 155.712C859.156 156.468 860.308 158.592 860.704 159.672C865.42 155.964 870.46 149.196 873.052 142.248L870.64 140.628L869.884 140.844H869.056ZM872.188 147.684C871.468 149.088 870.028 151.176 869.02 152.4L871 154.128C872.116 153.084 873.412 151.428 874.96 149.988L872.188 147.684ZM910.276 134.436V152.364H914.56V134.436H910.276ZM896.956 137.424V141.204H928.204V137.424H896.956ZM904.156 146.892H921.04V150.636H904.156V146.892ZM900.124 143.364V154.164H925.324V143.364H900.124ZM909.772 152.076C906.82 155.028 900.916 157.656 895.516 158.916C896.344 159.708 897.496 161.184 898.072 162.156C903.724 160.608 909.7 157.476 913.264 153.66L909.772 152.076ZM915.46 152.076L911.716 152.976C914.488 160.68 919.132 165.9 927.016 168.276C927.592 167.124 928.78 165.432 929.716 164.568C922.372 162.768 917.656 158.304 915.46 152.076ZM924.892 153.696C922.984 155.46 919.816 157.692 917.512 158.988L920.392 161.508C922.732 160.32 925.828 158.376 928.348 156.54L924.892 153.696ZM900.196 163.704L900.844 167.7C904.984 167.088 910.672 166.26 915.964 165.432L915.784 161.652C910.132 162.444 904.192 163.272 900.196 163.704ZM904.3 158.448V165.9H908.44V156.108L907 155.712L904.3 158.448Z" fill="#FFFDF5"/>
<path d="M1117.98 143.832V168.204H1121.91V143.832H1117.98ZM1125.58 154.92V166.332H1129.43V154.92H1125.58ZM1127.31 154.92V157.332H1135.44V162.696H1127.31V165.072H1139.22V154.92H1127.31ZM1120.07 143.832V146.352H1127.6V151.068H1120.07V153.552H1131.48V143.832H1120.07ZM1120.11 147.54V149.844H1128.71V147.54H1120.11ZM1127.31 158.808V161.148H1137.17V158.808H1127.31ZM1135.98 147.54V149.844H1144.8V147.54H1135.98ZM1144.3 143.832H1133.61V153.552H1144.3V151.068H1137.5V146.352H1144.3V143.832ZM1143.33 143.832V163.848C1143.33 164.352 1143.15 164.496 1142.61 164.532C1142.07 164.532 1140.23 164.568 1138.61 164.46C1139.12 165.504 1139.66 167.124 1139.8 168.204C1142.46 168.24 1144.37 168.168 1145.67 167.556C1146.96 166.944 1147.36 165.9 1147.36 163.884V143.832H1143.33ZM1120.54 136.992V140.232H1131.88V136.992H1120.54ZM1135.01 136.992V140.232H1148.84V136.992H1135.01ZM1120.68 134.148C1119.57 136.848 1117.55 139.584 1115.36 141.348C1116.33 141.888 1118.06 143.004 1118.88 143.688C1121.01 141.672 1123.31 138.432 1124.72 135.228L1120.68 134.148ZM1135.41 134.148C1134.33 136.884 1132.24 139.584 1129.9 141.312C1130.94 141.744 1132.78 142.716 1133.68 143.328C1135.84 141.42 1138.18 138.324 1139.51 135.156L1135.41 134.148ZM1121.87 139.692C1122.66 140.916 1123.53 142.572 1123.85 143.616L1127.6 142.572C1127.2 141.492 1126.26 139.908 1125.44 138.756L1121.87 139.692ZM1138 139.692C1139.01 140.916 1140.09 142.608 1140.56 143.688L1144.41 142.608C1143.87 141.492 1142.68 139.836 1141.67 138.684L1138 139.692ZM1166.73 146.46V168.24H1171.23V146.46H1166.73ZM1160.68 152.832H1177.71V154.776H1160.68V152.832ZM1160.68 147.828H1177.71V149.736H1160.68V147.828ZM1156.43 144.516V158.088H1182.14V144.516H1156.43ZM1153.05 159.96V163.668H1185.3V159.96H1153.05ZM1158.99 138.432H1164.06V140.52H1158.99V138.432ZM1155.14 135.84V143.076H1168.1V135.84H1155.14ZM1174.07 138.432H1179.26V140.52H1174.07V138.432ZM1170.26 135.84V143.076H1183.29V135.84H1170.26ZM1203.99 144.84V160.176H1207.84V144.84H1203.99ZM1217.27 144.84V159.6H1221.2V144.84H1217.27ZM1210.5 134.508V162.3C1210.5 165.468 1210.9 166.296 1211.76 166.98C1212.52 167.592 1213.78 167.88 1214.79 167.88C1215.54 167.88 1217.09 167.88 1217.88 167.88C1218.71 167.88 1219.76 167.736 1220.48 167.484C1221.3 167.196 1221.84 166.692 1222.2 165.9C1222.56 165.144 1222.82 163.56 1222.89 162.12C1221.56 161.724 1220.12 161.004 1219.18 160.212C1219.14 161.616 1219.04 162.732 1218.93 163.236C1218.82 163.704 1218.6 163.884 1218.39 163.992C1218.14 164.028 1217.81 164.064 1217.42 164.064C1216.95 164.064 1216.16 164.064 1215.8 164.064C1215.4 164.064 1215.11 164.028 1214.9 163.884C1214.64 163.704 1214.57 163.2 1214.57 162.372V134.508H1210.5ZM1218.96 136.704C1215 138.18 1208.24 139.188 1202.26 139.62C1202.69 140.52 1203.23 142.104 1203.38 143.076C1209.6 142.68 1216.98 141.744 1222.06 139.944L1218.96 136.704ZM1205.97 154.344V158.232H1219.14V154.344H1205.97ZM1194.34 134.472C1193.51 136.992 1191.96 140.448 1190.67 142.572L1193.55 143.832C1194.95 141.816 1196.61 138.612 1198.08 135.876L1194.34 134.472ZM1198.48 138.72C1196.61 142.608 1193.3 147.9 1190.63 151.176L1193.12 152.58C1195.85 149.448 1199.38 144.444 1201.97 140.304L1198.48 138.72ZM1188.8 143.004C1190.63 144.732 1192.83 147.252 1193.69 148.98L1195.92 145.632C1194.99 143.976 1192.76 141.708 1190.85 140.052L1188.8 143.004ZM1197.4 147.324C1198.77 149.808 1199.99 153.084 1200.39 155.172L1203.45 153.804C1203.02 151.716 1201.65 148.548 1200.24 146.136L1197.4 147.324ZM1188.76 150.312L1189.12 154.092C1192.61 153.84 1197.22 153.552 1201.65 153.228L1201.68 149.808C1196.93 150.024 1192.07 150.204 1188.76 150.312ZM1198.19 156.288C1198.98 158.412 1199.92 161.184 1200.28 162.984L1203.45 161.868C1203.05 160.068 1202.12 157.368 1201.22 155.316L1198.19 156.288ZM1190.31 155.604C1190.02 158.664 1189.44 161.868 1188.4 163.992C1189.3 164.352 1190.92 165.108 1191.68 165.576C1192.72 163.272 1193.51 159.672 1193.87 156.216L1190.31 155.604ZM1194.34 152.22V168.276H1198.12V152.22H1194.34ZM1247.01 134.4V139.872H1251.33V134.4H1247.01ZM1240.2 138.396V142.356H1258.56V138.396H1240.2ZM1247.01 153.228V168.24H1251.33V153.228H1247.01ZM1239.16 155.208V159.24H1259.64V155.208H1239.16ZM1243.12 142.572C1242.33 146.568 1240.71 150.204 1238.15 152.436C1239.05 152.976 1240.6 154.236 1241.25 154.956C1243.95 152.256 1245.93 147.972 1246.9 143.22L1243.12 142.572ZM1243.12 148.728C1244.38 149.736 1245.96 151.212 1246.72 152.148L1248.88 149.268C1248.09 148.368 1246.47 147.036 1245.21 146.136L1243.12 148.728ZM1252.62 142.572C1251.8 146.136 1250.07 149.376 1247.55 151.392C1248.34 152.04 1249.67 153.552 1250.25 154.272C1253.09 151.752 1255.25 147.756 1256.4 143.292L1252.62 142.572ZM1251.47 148.872C1253.52 150.564 1256.15 152.976 1257.38 154.524L1259.75 151.572C1258.46 150.096 1255.76 147.864 1253.74 146.316L1251.47 148.872ZM1230.99 134.4V168.204H1234.98V134.4H1230.99ZM1225.91 146.712V150.744H1239.41V146.712H1225.91ZM1230.74 148.656C1229.76 152.292 1227.53 157.08 1225.3 159.78C1225.98 160.968 1226.96 162.876 1227.39 164.208C1230.02 160.824 1232.25 154.632 1233.47 149.772L1230.74 148.656ZM1234.62 151.176L1232.54 153.12C1233.76 154.704 1236.14 158.196 1237.14 160.104L1239.74 156.612C1238.98 155.712 1235.63 152.04 1234.62 151.176ZM1225.88 137.532C1226.7 140.088 1227.39 143.472 1227.42 145.704L1230.66 144.84C1230.52 142.644 1229.84 139.332 1228.86 136.776L1225.88 137.532ZM1236.75 136.524C1236.35 139.044 1235.49 142.572 1234.73 144.804L1237.54 145.56C1238.44 143.508 1239.56 140.196 1240.49 137.352L1236.75 136.524Z" fill="#FFFDF5"/>
<path d="M426.42 191.6V192.92H436.42V191.6H426.42ZM425.56 195.48V196.82H437.28V195.48H425.56ZM425.66 199.1V200.44H437.06V199.1H425.66ZM430.62 189.2V196.3H432.1V189.2H430.62ZM433.26 196.62V205.8C433.26 206.1 433.16 206.18 432.82 206.2C432.5 206.22 431.38 206.22 430.14 206.18C430.36 206.58 430.6 207.18 430.66 207.58C432.26 207.58 433.28 207.56 433.9 207.34C434.52 207.12 434.72 206.68 434.72 205.82V196.62H433.26ZM426.88 201.84C427.9 202.88 428.98 204.38 429.42 205.36L430.72 204.56C430.24 203.58 429.12 202.16 428.08 201.12L426.88 201.84ZM420.22 190.52V191.88H423.82V202.3H420.22V203.66H425.22V190.52H420.22ZM420.28 196.34V197.68H424.48V196.34H420.28ZM419.5 190.52V205.3H420.92V190.52H419.5ZM444.94 201.46V202.62H451V201.46H444.94ZM444.88 198.44V199.62H450.28V204.58H444.88V205.74H451.7V198.44H444.88ZM444.22 198.44V206.76H445.6V198.44H444.22ZM440.54 192.9V194H446.1V192.9H440.54ZM449.76 192.9V194H455.42V192.9H449.76ZM454.8 190.06V205.62C454.8 205.96 454.68 206.08 454.32 206.08C453.96 206.1 452.74 206.12 451.52 206.06C451.74 206.48 451.98 207.18 452.04 207.6C453.72 207.6 454.8 207.58 455.44 207.34C456.08 207.08 456.3 206.58 456.3 205.62V190.06H454.8ZM440.66 190.06V191.22H445.64V195.78H440.66V196.94H447.06V190.06H440.66ZM455.54 190.06H448.86V196.96H455.54V195.82H450.3V191.22H455.54V190.06ZM439.8 190.06V207.62H441.28V190.06H439.8ZM468.74 195.22V196.4H472.9V195.22H468.74ZM467.46 201.02V202.1H474.2V201.02H467.46ZM460.76 190.06V191.28H466.36V190.06H460.76ZM465.94 190.06V190.3C464.72 193.02 461.54 195.16 458.54 196.06C458.82 196.32 459.18 196.84 459.36 197.18C462.6 196.06 465.9 193.82 467.4 190.46L466.46 190L466.2 190.06H465.94ZM469.1 189.2L467.88 189.58C469.5 193.08 472.56 195.72 476.38 196.9C476.6 196.54 476.98 196.02 477.3 195.72C473.58 194.74 470.54 192.3 469.1 189.2ZM473.18 189.34C472.46 190.16 471.14 191.28 470.22 191.96L471.1 192.66C472.06 192 473.32 191.04 474.3 190.12L473.18 189.34ZM475.58 191.36C474.84 192.14 473.48 193.26 472.52 193.92L473.44 194.62C474.42 194 475.72 193.04 476.68 192.12L475.58 191.36ZM461.38 195.3V196.48H464.94V200.1H466.28V195.3H461.38ZM460.86 198.58C460.64 200.04 460.24 201.92 459.9 203.12L461.16 203.34C461.48 202.1 461.88 200.14 462.16 198.58H460.86ZM464.94 201.62V201.82C464.7 204.68 464.48 205.82 464.12 206.16C463.96 206.32 463.74 206.34 463.36 206.34C462.98 206.34 461.9 206.32 460.78 206.22C461.02 206.58 461.18 207.12 461.22 207.52C462.32 207.56 463.38 207.58 463.9 207.56C464.52 207.5 464.88 207.4 465.24 207.06C465.76 206.54 466.02 205.26 466.28 202.22C466.3 202.04 466.32 201.62 466.32 201.62H464.94ZM468.2 195.22V196.78C468.2 197.74 467.94 198.84 466.34 199.7C466.62 199.88 467.1 200.36 467.3 200.64C469.08 199.6 469.5 198.1 469.5 196.8V195.22H468.2ZM473.86 201.02V201.22C472.76 204.24 469.76 205.88 466.32 206.52C466.56 206.8 466.86 207.3 466.98 207.62C470.76 206.78 473.9 205 475.22 201.28L474.36 200.96L474.12 201.02H473.86ZM469.36 202.02L468.18 202.34C469.5 205.14 472.18 206.92 475.84 207.6C476.04 207.24 476.42 206.66 476.74 206.36C473.2 205.86 470.52 204.34 469.36 202.02ZM461.52 198.58L461.32 199.76H465.44V198.58H461.52ZM460.92 201.62L460.7 202.78H465.32V201.62H460.92ZM472.2 195.22V198.22C472.2 199.18 472.3 199.48 472.58 199.74C472.84 199.96 473.28 200.04 473.68 200.04C473.88 200.04 474.44 200.04 474.66 200.04C474.94 200.04 475.34 200.02 475.54 199.94C475.8 199.86 476.04 199.7 476.14 199.48C476.28 199.24 476.34 198.66 476.38 198.14C476.02 198.04 475.54 197.8 475.28 197.58C475.26 198.08 475.24 198.46 475.2 198.64C475.14 198.78 475.04 198.88 474.96 198.92C474.9 198.94 474.7 198.94 474.52 198.94C474.34 198.94 474.08 198.94 473.94 198.94C473.78 198.94 473.68 198.94 473.6 198.88C473.52 198.82 473.52 198.62 473.52 198.34V195.22H472.2ZM460.22 192.44C461.16 193.02 462.26 193.88 462.78 194.5L463.7 193.58C463.16 193 462.02 192.16 461.1 191.62L460.22 192.44ZM490.44 189.2V195.66H491.84V189.2H490.44ZM487.44 202.18V203.5H497.16V202.18H487.44ZM487.74 191.36V192.64H494.38V191.36H487.74ZM487.12 194.88V196.18H496.92V194.88H487.12ZM488.4 198.08V199.3H495.32V198.08H488.4ZM491.6 200.68V205.88C491.6 206.1 491.52 206.16 491.26 206.16C491.02 206.18 490.14 206.18 489.2 206.16C489.4 206.54 489.58 207.1 489.64 207.48C490.98 207.5 491.82 207.48 492.36 207.26C492.92 207.04 493.04 206.64 493.04 205.9V200.68H491.6ZM494.72 198.08V198.34C494.06 199.12 492.76 200.1 491.6 200.68C491.84 200.88 492.22 201.26 492.4 201.52C493.8 200.84 495.32 199.78 496.34 198.66L495.4 198L495.08 198.08H494.72ZM495.62 190.02C493.66 194.5 490.42 198.28 486.46 200.58C486.78 200.84 487.3 201.36 487.52 201.62C491.44 199.12 494.8 195.2 496.94 190.44L495.62 190.02ZM479.4 193.84V207.52H480.52V195.12H485.24V207.24H486.4V193.84H479.4ZM479.9 201.68V202.8H485.92V201.68H479.9ZM479.9 204.88V206.1H485.92V204.88H479.9ZM478.98 190.08V191.36H486.74V190.08H478.98ZM481.3 190.52V194.84H482.34V190.52H481.3ZM483.34 190.52V194.84H484.4V190.52H483.34ZM481.52 194.68V196.64C481.52 197.7 481.36 199.02 480.38 200.06C480.56 200.16 480.9 200.42 481.02 200.58C482.1 199.46 482.34 197.84 482.34 196.66V194.68H481.52ZM483.34 194.68V198.48C483.34 199.42 483.56 199.58 484.3 199.58C484.42 199.58 484.92 199.58 485.06 199.58C485.58 199.58 485.84 199.4 485.94 199C485.68 198.94 485.36 198.84 485.2 198.68C485.16 198.72 485.1 198.74 484.9 198.74C484.78 198.74 484.44 198.74 484.36 198.74C484.16 198.74 484.14 198.7 484.14 198.48V194.68H483.34ZM508.9 194.6V196H517.2V194.6H508.9ZM498.84 193.46V194.74H509.12V193.46H498.84ZM499.56 197.84V199.1H508.38V197.84H499.56ZM500.1 201.14V202.4H507.98V201.14H500.1ZM513.62 189.34V205.76C513.62 206.1 513.48 206.22 513.14 206.22C512.82 206.24 511.72 206.24 510.52 206.2C510.72 206.6 510.98 207.24 511.06 207.62C512.68 207.64 513.66 207.6 514.26 207.34C514.82 207.1 515.06 206.68 515.06 205.76V189.34H513.62ZM509.54 198.02C510.34 199.5 511.1 201.42 511.3 202.62L512.64 202.14C512.44 200.92 511.66 199.04 510.8 197.58L509.54 198.02ZM499.04 190.26C499.66 191.22 500.24 192.5 500.44 193.34L501.6 192.8C501.38 191.98 500.78 190.74 500.12 189.8L499.04 190.26ZM500.5 195.18C500.98 196.02 501.42 197.18 501.54 197.9L502.8 197.44C502.66 196.72 502.2 195.62 501.7 194.78L500.5 195.18ZM501.98 189.3V194.08H503.2V189.3H501.98ZM503.26 198.24V205.46H504.68V198.24H503.26ZM504.74 189.3V194.08H505.98V189.3H504.74ZM498.9 205.32L499.12 206.74C501.68 206.38 505.44 205.88 508.96 205.36L508.92 204.04C505.26 204.54 501.4 205.02 498.9 205.32ZM507.88 189.68C507.54 190.64 506.84 192.06 506.3 192.9L507.34 193.36C507.9 192.54 508.62 191.28 509.22 190.2L507.88 189.68ZM506.18 194.74C505.94 195.56 505.44 196.78 505.04 197.52L506.24 197.86C506.64 197.16 507.14 196.1 507.56 195.12L506.18 194.74ZM527.52 199.84V207.62H528.96V201.22H534.86V207.5H536.36V199.84H527.52ZM535.48 189.52C533.46 190.18 529.86 190.68 526.84 190.96C527.02 191.32 527.22 191.88 527.28 192.22C530.4 191.98 534.12 191.5 536.56 190.78L535.48 189.52ZM531.06 191.06V200.54H532.58V191.06H531.06ZM526.34 195.04V196.46H537.28V195.04H526.34ZM528.46 205.24V206.6H535.6V205.24H528.46ZM519.7 195.38V196.56H525.56V195.38H519.7ZM519.82 189.92V191.12H525.54V189.92H519.82ZM519.7 198.1V199.3H525.56V198.1H519.7ZM518.76 192.6V193.84H526.22V192.6H518.76ZM520.46 200.84V202.1H524.3V205.44H520.46V206.68H525.62V200.84H520.46ZM519.68 200.84V207.6H520.98V200.84H519.68ZM541.14 208.14C543.24 207.42 544.6 205.78 544.6 203.62C544.6 202.22 544 201.3 542.88 201.3C542.08 201.3 541.36 201.8 541.36 202.74C541.36 203.7 542.04 204.18 542.86 204.18C543.24 204.18 543.64 204.08 543.92 203.72L542.84 202.2L543.22 203.9C543.22 205.4 542.32 206.42 540.68 207.1L541.14 208.14ZM570.44 193.86V196.1H571.84V193.86H570.44ZM567.32 193.42V194.46H575V193.42H567.32ZM565.56 199.54V200.48H574.82V199.54H565.56ZM574.66 199.46V200.54H577.1V199.46H574.66ZM565.86 195.62V196.64H576.72V195.62H565.86ZM566.64 197.54V198.52H574.16V201.58H566.58V202.56H575.5V197.54H566.64ZM568.08 203.48V205.92C568.08 207.24 568.48 207.56 570.12 207.56C570.46 207.56 572.58 207.56 572.94 207.56C574.1 207.56 574.5 207.18 574.62 205.66C574.26 205.58 573.74 205.4 573.46 205.2C573.4 206.26 573.3 206.4 572.78 206.4C572.32 206.4 570.58 206.4 570.26 206.4C569.54 206.4 569.42 206.32 569.42 205.92V203.48H568.08ZM566.26 203.58C565.96 204.68 565.36 206.04 564.62 206.86L565.78 207.44C566.54 206.56 567.06 205.16 567.42 204L566.26 203.58ZM569.4 203.06C570.28 203.52 571.3 204.32 571.8 204.9L572.64 204.08C572.12 203.52 571.1 202.76 570.22 202.32L569.4 203.06ZM573.78 203.88C574.8 204.9 575.8 206.34 576.22 207.34L577.4 206.7C576.94 205.72 575.94 204.34 574.88 203.36L573.78 203.88ZM574.84 189.34C573.06 189.74 569.84 190.1 567.12 190.26C567.26 190.54 567.42 190.96 567.48 191.26C570.3 191.1 573.62 190.78 575.9 190.26L574.84 189.34ZM566.76 189.98C566.36 191.36 565.68 192.76 564.82 193.72C565.16 193.88 565.74 194.24 565.98 194.42C566.82 193.4 567.6 191.84 568.08 190.28L566.76 189.98ZM569.98 191.4C570.2 192.02 570.38 192.8 570.42 193.34L571.66 193.04C571.62 192.54 571.4 191.76 571.14 191.18L569.98 191.4ZM573.64 191.08C574.54 192 575.52 193.3 575.94 194.18L577.04 193.52C576.58 192.68 575.62 191.44 574.66 190.54L573.64 191.08ZM561.58 190.86V207.62H563V190.86H561.58ZM558.9 194.96V196.34H565.2V194.96H558.9ZM561.64 195.5C561.06 197.94 559.72 201.06 558.48 202.7C558.72 203.04 559.08 203.64 559.24 204.06C560.58 202.18 561.9 198.62 562.56 195.86L561.64 195.5ZM564.28 189.6C563.04 190.2 560.76 190.7 558.82 191.02C559 191.34 559.2 191.82 559.26 192.12C561.3 191.86 563.7 191.36 565.32 190.68L564.28 189.6ZM562.94 196.92L562.28 197.52C562.8 198.18 564.16 200.14 564.56 200.98L565.42 199.86C565.06 199.38 563.4 197.38 562.94 196.92ZM591.16 189.36V205.24H592.56V189.36H591.16ZM586.88 193.64V194.8H597.36V193.64H586.88ZM587.32 201.8V202.96H596.98V201.8H587.32ZM587.92 199.06V200.22H596.42V199.06H587.92ZM583.38 190.86V192.12H586.28V190.86H583.38ZM584.14 196.48V197.64H586.7V196.48H584.14ZM585.96 190.86V191.04C585.3 192.68 583.92 195.96 582.82 198.28L584.08 198.58C585.16 196.24 586.52 193.14 587.34 191.06L586.38 190.8L586.14 190.86H585.96ZM586.3 196.48V196.72C585.9 201.48 584.52 204.86 582.36 206.44C582.66 206.72 583.04 207.22 583.22 207.54C585.7 205.6 587.12 202.14 587.6 196.6L586.8 196.44L586.56 196.48H586.3ZM584.22 199.26L583.06 199.62C584.38 205.82 587.02 207.24 591.8 207.24H596.9C596.98 206.84 597.2 206.2 597.42 205.86C596.56 205.88 592.5 205.88 591.86 205.88C587.78 205.88 585.3 204.68 584.22 199.26ZM588.24 190.96V192.12H594.86V196.36H588.24V197.54H596.16V190.96H588.24ZM582.34 189.32C581.48 192.26 580.04 195.14 578.4 197.04C578.64 197.42 579.02 198.24 579.16 198.58C581 196.36 582.66 193 583.7 189.7L582.34 189.32ZM580.92 194.38V207.56H582.26V193.08L582.24 193.06L580.92 194.38ZM606.26 191.8V193.18H616.24V191.8H606.26ZM605.46 199.32V200.72H617.06V199.32H605.46ZM605.22 195.72V197.1H617.2V195.72H605.22ZM610.52 189.3V196.44H611.94V189.3H610.52ZM613.16 196.8V205.78C613.16 206.06 613.08 206.14 612.76 206.16C612.46 206.18 611.42 206.18 610.3 206.14C610.48 206.56 610.68 207.16 610.74 207.58C612.24 207.58 613.22 207.58 613.8 207.34C614.4 207.12 614.6 206.7 614.6 205.8V196.8H613.16ZM606.94 201.94C607.82 203.02 608.78 204.52 609.14 205.5L610.4 204.72C609.98 203.76 608.98 202.32 608.1 201.26L606.94 201.94ZM598.54 199.84L598.94 201.3C600.64 200.74 602.88 200.02 604.98 199.32L604.78 197.94C602.48 198.68 600.12 199.4 598.54 199.84ZM598.82 193.24V194.64H604.92V193.24H598.82ZM601.4 189.22V205.8C601.4 206.08 601.3 206.16 601.06 206.16C600.82 206.18 600.06 206.18 599.18 206.14C599.38 206.56 599.56 207.18 599.62 207.54C600.88 207.56 601.66 207.5 602.12 207.28C602.62 207.04 602.82 206.62 602.82 205.8V189.22H601.4ZM628.18 201.42H634.64V202.32H628.18V201.42ZM628.18 203.12H634.64V204.04H628.18V203.12ZM628.18 199.76H634.64V200.64H628.18V199.76ZM626.86 198.88V204.9H636V198.88H626.86ZM632.26 205.68C633.66 206.26 635.16 207.06 636 207.64L637.3 206.84C636.34 206.22 634.68 205.46 633.22 204.88L632.26 205.68ZM630.54 189.2V192.94H632.02V189.2H630.54ZM625.68 190.42V191.44H636.94V190.42H625.68ZM626.62 192.38V193.34H636.28V192.38H626.62ZM627.46 195.02H635.32V197.12H627.46V195.02ZM626.24 194.14V198H636.58V194.14H626.24ZM629.76 194.56C629.66 195.58 629.16 195.98 627.54 196.2C627.74 196.36 628 196.68 628.08 196.9C629.98 196.54 630.62 195.92 630.76 194.56H629.76ZM631.94 194.5V195.44C631.94 196.34 632.22 196.52 633.42 196.52C633.62 196.52 634.96 196.52 635.18 196.52C635.9 196.52 636.22 196.38 636.3 195.96C636 195.9 635.62 195.82 635.4 195.7C635.34 195.8 635.28 195.82 635 195.82C634.74 195.82 633.72 195.82 633.54 195.82C633.12 195.82 633.06 195.78 633.06 195.46V194.5H631.94ZM629.12 204.88C628.18 205.56 626.3 206.3 624.72 206.7C625.02 206.94 625.48 207.34 625.72 207.62C627.24 207.22 629.16 206.44 630.36 205.62L629.12 204.88ZM621.88 189.22C621.38 190.54 620.42 192.5 619.7 193.66L620.72 194.08C621.48 192.96 622.44 191.16 623.18 189.68L621.88 189.22ZM623.96 191.5C622.98 193.6 621.24 196.58 619.86 198.36L620.78 198.84C622.18 197.12 623.94 194.26 625.22 192.04L623.96 191.5ZM618.78 193.42C619.82 194.4 620.98 195.8 621.46 196.74L622.3 195.62C621.82 194.72 620.62 193.4 619.58 192.44L618.78 193.42ZM623.18 195.96C623.92 197.3 624.62 199.04 624.84 200.14L625.96 199.68C625.74 198.6 625 196.9 624.24 195.58L623.18 195.96ZM618.72 198.14L618.88 199.44C620.58 199.34 622.78 199.22 625 199.06V197.86C622.64 197.96 620.34 198.08 618.72 198.14ZM623.7 200.88C624.12 201.92 624.5 203.28 624.62 204.18L625.74 203.8C625.58 202.94 625.18 201.6 624.76 200.58L623.7 200.88ZM619.72 200.64C619.52 202.38 619.16 204.18 618.52 205.4C618.84 205.52 619.42 205.78 619.66 205.96C620.26 204.68 620.7 202.74 620.96 200.86L619.72 200.64ZM621.82 198.64V207.6H623.1V198.64H621.82ZM480.62 222.42V223.76H485.3V234.14H480.62V235.5H486.7V222.42H480.62ZM479.72 222.42V237.1H481.12V222.42H479.72ZM480.52 227.98V229.32H486.04V227.98H480.52ZM482.78 219.16C482.62 220.2 482.24 221.72 481.9 222.68L483.1 222.98C483.5 222.08 484 220.7 484.4 219.46L482.78 219.16ZM489.54 222.36V223.76H495.68V222.36H489.54ZM495.16 222.36V222.68C494.88 231.5 494.56 234.82 493.9 235.54C493.68 235.8 493.44 235.86 493.04 235.86C492.58 235.86 491.38 235.84 490.08 235.74C490.36 236.14 490.54 236.76 490.58 237.2C491.7 237.26 492.88 237.3 493.56 237.22C494.26 237.16 494.72 236.98 495.16 236.4C495.96 235.42 496.24 232.32 496.56 223.14C496.56 222.92 496.56 222.36 496.56 222.36H495.16ZM489.96 219.12C489.32 221.9 488.22 224.66 486.86 226.42C487.22 226.62 487.84 227.04 488.1 227.28C489.48 225.38 490.66 222.44 491.4 219.46L489.96 219.12ZM489.04 227.56C490.14 229.02 491.48 231 492.08 232.22L493.36 231.42C492.72 230.24 491.34 228.3 490.2 226.88L489.04 227.56ZM507.2 219.2V222.08H508.74V219.2H507.2ZM504.84 222.38C504.5 225.26 503.58 226.9 499.28 227.74C499.58 228.02 499.94 228.58 500.08 228.94C504.82 227.92 506.02 225.88 506.42 222.38H504.84ZM509.4 222.4V226.1C509.4 227.5 509.84 227.9 511.58 227.9C511.94 227.9 514.08 227.9 514.44 227.9C515.74 227.9 516.16 227.44 516.3 225.68C515.9 225.6 515.32 225.4 515.02 225.18C514.94 226.46 514.84 226.64 514.28 226.64C513.84 226.64 512.08 226.64 511.74 226.64C511 226.64 510.88 226.58 510.88 226.1V222.4H509.4ZM499.54 221.24V224.86H501.04V222.6H515.02V224.6H516.58V221.24H499.54ZM499.12 230.22V231.62H516.88V230.22H499.12ZM507.08 227.62C506.72 232.42 505.84 235.12 498.84 236.3C499.14 236.62 499.52 237.24 499.64 237.62C507.08 236.26 508.22 233.08 508.68 227.62H507.08ZM509.08 230.66L507.68 230.92C508.88 234.98 511.38 236.92 516.24 237.6C516.44 237.16 516.86 236.5 517.22 236.14C512.56 235.68 510.08 234.02 509.08 230.66ZM519.02 220.28V221.66H525.74V220.28H519.02ZM520.98 226.44V227.78H523.92V233.74H520.98V235.08H525.26V226.44H520.98ZM521.6 220.94C521.06 224.28 520.1 227.4 518.54 229.44C518.8 229.84 519.16 230.7 519.24 231.06C521.12 228.66 522.3 225.02 523.04 221.24L521.6 220.94ZM520.34 226.44V236.7H521.66V226.44H520.34ZM527.44 222.3V223.66H535.82V222.3H527.44ZM535.46 222.3V222.54C535.24 223.74 534.86 225.22 534.5 226.14L535.68 226.46C536.1 225.46 536.56 223.86 536.88 222.5L535.92 222.24L535.7 222.3H535.46ZM530.88 219.22V227.7H532.24V219.22H530.88ZM526.76 222.3V227.44C526.76 230.26 526.58 234.1 524.78 236.84C525.1 236.98 525.7 237.36 525.92 237.58C527.8 234.7 528.1 230.42 528.1 227.44V222.3H526.76ZM527.56 227.02V228.34H535.04V227.02H527.56ZM534.8 227.02V227.28C533.72 231.8 530.56 235.06 527.1 236.4C527.4 236.68 527.78 237.22 527.94 237.56C531.66 235.92 534.92 232.56 536.18 227.3L535.32 226.96L535.06 227.02H534.8ZM529.16 227.88L527.92 228.22C529.44 232.64 532.24 235.98 536.24 237.58C536.44 237.2 536.88 236.64 537.18 236.38C533.3 235.02 530.5 231.86 529.16 227.88ZM542.9 227.1H538.92V228.5H541.46V234.18H542.9V227.1ZM542.9 233.58H541.6C540.66 234.44 539.58 235.34 538.7 235.98L539.48 237.44C540.48 236.56 541.4 235.7 542.28 234.84C543.52 236.42 545.34 237.12 547.98 237.22C550.22 237.32 554.5 237.28 556.76 237.18C556.82 236.74 557.06 236.04 557.24 235.7C554.82 235.86 550.2 235.92 547.98 235.82C545.6 235.74 543.84 235.06 542.9 233.58ZM539.1 220.54C540.32 221.52 541.7 222.92 542.26 223.92L543.5 222.98C542.88 222 541.48 220.62 540.24 219.72L539.1 220.54ZM551.82 219.4C551.5 220.5 550.88 222.06 550.34 223.08L551.58 223.44C552.14 222.5 552.86 221.04 553.44 219.76L551.82 219.4ZM547.06 222.34H546.72L545.6 223.48V233.16H547.06V223.64H556.46V222.34H547.06ZM546.38 225.74V227H555.96V225.74H546.38ZM546.38 229.1V230.38H555.92V229.1H546.38ZM545.6 232.56V233.86H556.8V232.56H545.6ZM550.56 222.94V233.06H552V222.94H550.56ZM547.36 219.26C546.34 221.8 544.62 224.18 542.68 225.72C543.02 225.98 543.58 226.56 543.82 226.86C545.8 225.16 547.68 222.52 548.84 219.68L547.36 219.26ZM567.26 226.56V231.32C567.26 231.54 567.18 231.6 566.9 231.62C566.6 231.64 565.62 231.64 564.56 231.6C564.76 232 564.98 232.54 565.04 232.94C566.46 232.94 567.4 232.94 568 232.72C568.6 232.5 568.76 232.12 568.76 231.34V226.56H567.26ZM563.26 227.38C562.26 228.88 560.62 230.36 559.04 231.32C559.42 231.56 560.04 232.04 560.34 232.32C561.88 231.26 563.64 229.58 564.8 227.9L563.26 227.38ZM573.34 227.94C571.62 232.98 567.74 235.36 560.52 236.24C560.84 236.6 561.14 237.2 561.3 237.64C568.8 236.56 572.92 233.94 574.84 228.46L573.34 227.94ZM559.06 225.26V226.7H576.94V225.26H559.06ZM568.14 221.58V222.98H574.92V221.58H568.14ZM567.24 219.22V226.1H568.78V219.22H567.24ZM562.06 220.76V226.02H563.58V220.76H562.06Z" fill="white"/>
<path d="M757.24 193.96V200.3H758.66V193.96H757.24ZM757.24 201.12V206.42H758.66V201.12H757.24ZM751.72 200.48V207.56H753.14V201.6H762.94V207.5H764.42V200.48H751.72ZM749.2 196.64V197.92H766.78V196.64H749.2ZM752.54 203.16V204.16H763.64V203.16H752.54ZM752.54 205.8V206.92H763.64V205.8H752.54ZM763 192.76C760.42 193.22 755.76 193.48 751.98 193.56C752.12 193.86 752.28 194.34 752.32 194.64C756.12 194.62 760.86 194.32 763.82 193.84L763 192.76ZM756.34 196.88C754.66 198.68 751.38 200.38 748.56 201.16C748.88 201.44 749.32 201.98 749.52 202.34C752.32 201.4 755.66 199.5 757.48 197.44L756.34 196.88ZM759.54 196.86L758.44 197.36C760.22 199.44 763.44 201.24 766.38 202.06C766.6 201.7 767 201.16 767.32 200.88C764.36 200.2 761.14 198.64 759.54 196.86ZM752.28 194.94C752.7 195.58 753.1 196.44 753.24 197.02L754.62 196.64C754.46 196.06 754.02 195.24 753.56 194.64L752.28 194.94ZM762.34 194.4C762.1 195.06 761.62 196.06 761.24 196.68L762.4 197.1C762.82 196.52 763.34 195.68 763.84 194.84L762.34 194.4ZM757.24 189.22V191.72H758.74V189.22H757.24ZM749.54 190.8V194.4H750.94V192.1H765V194.4H766.48V190.8H749.54ZM782.1 201.06V205.62C782.1 207.04 782.42 207.46 783.82 207.46C784.1 207.46 785.4 207.46 785.7 207.46C786.84 207.46 787.22 206.84 787.36 204.32C786.98 204.22 786.4 204.02 786.12 203.78C786.06 205.9 785.98 206.18 785.52 206.18C785.26 206.18 784.22 206.18 784.02 206.18C783.56 206.18 783.48 206.1 783.48 205.62V201.06H782.1ZM778.84 194.76H784.4V196.88H778.84V194.76ZM778.84 198.06H784.4V200.2H778.84V198.06ZM778.84 191.48H784.4V193.56H778.84V191.48ZM777.44 190.24V201.44H785.84V190.24H777.44ZM779.08 201.02C778.8 203.58 778.06 205.46 775.08 206.46C775.38 206.74 775.8 207.28 775.96 207.62C779.28 206.36 780.2 204.14 780.54 201.02H779.08ZM769.1 192.96V194.34H775.34V192.96H769.1ZM772.02 198.94V207.6H773.48V197.18L772.02 198.94ZM772.02 189.22V193.64H773.48V189.22H772.02ZM773.48 197.38L772.6 198.18C773.4 198.9 775.22 200.82 775.9 201.72L776.82 200.46C776.3 199.94 774.12 197.9 773.48 197.38ZM774.84 192.96V193.28C773.68 196.32 770.96 199.36 768.38 200.96C768.62 201.22 769 201.92 769.14 202.3C771.88 200.46 774.82 197.12 776.24 193.46L775.4 192.9L775.14 192.96H774.84ZM792.26 196.38V197.78H803.88V196.38H792.26ZM792.26 200.72V202.12H803.88V200.72H792.26ZM792.26 205.1V206.5H803.88V205.1H792.26ZM791.24 191.94V207.62H792.76V193.38H803.48V207.52H805.04V191.94H791.24ZM797.1 189.18C796.9 190.16 796.46 191.56 796.1 192.5L797.44 192.76C797.88 191.9 798.4 190.6 798.84 189.4L797.1 189.18ZM811.82 196.92V198.4H823.62V196.92H811.82ZM810.8 190.4V191.92H823V199.66H824.58V190.4H810.8ZM811.04 196.92V204.4C811.04 206.66 812.08 207.18 815.3 207.18C816.04 207.18 822.12 207.18 822.88 207.18C826.12 207.18 826.78 206.22 827.12 202.64C826.68 202.54 826.02 202.28 825.6 202.02C825.36 205.1 825.04 205.68 822.9 205.68C821.54 205.68 816.3 205.68 815.24 205.68C813.04 205.68 812.58 205.44 812.58 204.38V196.92H811.04ZM831.14 208.14C833.24 207.42 834.6 205.78 834.6 203.62C834.6 202.22 834 201.3 832.88 201.3C832.08 201.3 831.36 201.8 831.36 202.74C831.36 203.7 832.04 204.18 832.86 204.18C833.24 204.18 833.64 204.08 833.92 203.72L832.84 202.2L833.22 203.9C833.22 205.4 832.32 206.42 830.68 207.1L831.14 208.14ZM852.52 193.04V194.14H857.4V193.04H852.52ZM852.32 205.6V206.74H858.56V205.6H852.32ZM851.42 197.52V198.52H858.1V197.52H851.42ZM850.78 195.24V198.5C850.78 200.8 850.52 203.94 848.66 206.22C848.94 206.4 849.48 206.88 849.68 207.16C851.72 204.68 852.1 201.06 852.1 198.54V195.24H850.78ZM851.52 195.24V196.36H857.38V199.7H851.48V200.82H858.74V195.24H851.52ZM851.78 202.06V207.58H853.08V203.2H857.7V207.44H859.04V202.06H851.78ZM860.38 191.62V202.7H861.82V191.62H860.38ZM864.88 189.58V205.64C864.88 206 864.74 206.12 864.36 206.12C864 206.14 862.8 206.16 861.44 206.1C861.66 206.54 861.9 207.22 861.96 207.6C863.76 207.62 864.84 207.58 865.46 207.32C866.08 207.08 866.34 206.64 866.34 205.62V189.58H864.88ZM853.94 189.4C852.96 191.04 851.14 193.08 848.66 194.56C848.96 194.78 849.42 195.26 849.62 195.6C852.26 193.88 854.1 191.78 855.24 190.16V189.72H854.76V189.4H853.94ZM854.22 189.4V190.46H854.52C855.98 191.52 857.8 193.28 858.74 194.32L859.74 193.2C858.72 192.14 856.82 190.52 855.3 189.4H854.22ZM879.74 195.96V197.36H887.18V195.96H879.74ZM869.22 191.3V192.58H878.04V191.3H869.22ZM869 199.24V200.54H878.14V199.24H869ZM868.94 195.88V197.16H878.28V195.88H868.94ZM883.46 196.52V207.5H884.92V196.52H883.46ZM872.92 189.28V191.96H874.38V189.28H872.92ZM872.92 196.92V207.58H874.38V196.92H872.92ZM879.02 190.84V197.84C879.02 200.68 878.74 204.14 876.18 206.66C876.54 206.86 877.08 207.36 877.26 207.7C880.08 204.92 880.44 200.86 880.44 197.86V191.68C880.72 191.64 880.84 191.56 880.86 191.4L879.02 190.84ZM885.72 189.44C884.26 190.16 881.62 190.86 879.38 191.34C879.56 191.64 879.76 192.16 879.84 192.48C882.24 192.06 885.04 191.38 886.92 190.54L885.72 189.44ZM874.24 200.92L873.42 201.6C874.16 202.22 876.04 203.98 876.68 204.72L877.56 203.6C877.06 203.14 874.88 201.36 874.24 200.92ZM870.42 192.94C870.82 193.86 871.14 195.06 871.2 195.84L872.46 195.5C872.36 194.74 872.02 193.56 871.6 192.68L870.42 192.94ZM875.54 192.64C875.32 193.48 874.9 194.72 874.54 195.52L875.74 195.8C876.1 195.06 876.52 193.94 876.9 192.94L875.54 192.64ZM872.94 199.9C871.98 201.86 870.16 204.02 868.54 205.08C868.88 205.32 869.32 205.8 869.56 206.14C871.16 204.9 873 202.54 874.02 200.32L872.94 199.9ZM890.62 192.42V193.76H895.3V204.14H890.62V205.5H896.7V192.42H890.62ZM889.72 192.42V207.1H891.12V192.42H889.72ZM890.52 197.98V199.32H896.04V197.98H890.52ZM892.78 189.16C892.62 190.2 892.24 191.72 891.9 192.68L893.1 192.98C893.5 192.08 894 190.7 894.4 189.46L892.78 189.16ZM899.54 192.36V193.76H905.68V192.36H899.54ZM905.16 192.36V192.68C904.88 201.5 904.56 204.82 903.9 205.54C903.68 205.8 903.44 205.86 903.04 205.86C902.58 205.86 901.38 205.84 900.08 205.74C900.36 206.14 900.54 206.76 900.58 207.2C901.7 207.26 902.88 207.3 903.56 207.22C904.26 207.16 904.72 206.98 905.16 206.4C905.96 205.42 906.24 202.32 906.56 193.14C906.56 192.92 906.56 192.36 906.56 192.36H905.16ZM899.96 189.12C899.32 191.9 898.22 194.66 896.86 196.42C897.22 196.62 897.84 197.04 898.1 197.28C899.48 195.38 900.66 192.44 901.4 189.46L899.96 189.12ZM899.04 197.56C900.14 199.02 901.48 201 902.08 202.22L903.36 201.42C902.72 200.24 901.34 198.3 900.2 196.88L899.04 197.56ZM912.9 197.1H908.92V198.5H911.46V204.18H912.9V197.1ZM912.9 203.58H911.6C910.66 204.44 909.58 205.34 908.7 205.98L909.48 207.44C910.48 206.56 911.4 205.7 912.28 204.84C913.52 206.42 915.34 207.12 917.98 207.22C920.22 207.32 924.5 207.28 926.76 207.18C926.82 206.74 927.06 206.04 927.24 205.7C924.82 205.86 920.2 205.92 917.98 205.82C915.6 205.74 913.84 205.06 912.9 203.58ZM909.1 190.54C910.32 191.52 911.7 192.92 912.26 193.92L913.5 192.98C912.88 192 911.48 190.62 910.24 189.72L909.1 190.54ZM914.84 196.1V204.78H916.18V197.3H925.66V196.1H914.84ZM919.68 192.72V196.6H920.82V193.78H923.88V192.72H919.68ZM916.4 189.9V196.5H917.74V191.08H923.28V196.5H924.64V189.9H916.4ZM918.54 198.58V199.66H921.9V201.78H918.54V202.82H923.06V198.58H918.54ZM924.82 196.1V203.3C924.82 203.5 924.74 203.56 924.52 203.58C924.3 203.58 923.54 203.58 922.7 203.56C922.88 203.9 923.06 204.42 923.12 204.78C924.3 204.78 925.08 204.78 925.56 204.56C926.08 204.36 926.2 203.98 926.2 203.3V196.1H924.82ZM917.86 198.58V203.62H919.02V198.58H917.86ZM940.88 198.64V206.64H942.36V198.64H940.88ZM936.48 198.1V199.42H946.82V198.1H936.48ZM935.62 205.74V207.08H947.26V205.74H935.62ZM936.96 201.82V203.12H946.36V201.82H936.96ZM938.64 191.34H944.66V195.04H938.64V191.34ZM937.24 190.04V196.34H946.12V190.04H937.24ZM932.24 190.86V207.56H933.7V190.86H932.24ZM928.96 194.84V196.26H936.22V194.84H928.96ZM932.32 195.38C931.6 197.86 930 200.98 928.56 202.58C928.82 202.92 929.18 203.54 929.32 203.96C930.86 202.1 932.46 198.6 933.26 195.78L932.32 195.38ZM935.2 189.5C933.74 190.18 931.1 190.74 928.84 191.12C929.02 191.46 929.22 191.94 929.3 192.28C931.62 191.96 934.42 191.4 936.26 190.66L935.2 189.5ZM933.64 197.42L932.94 198.02C933.56 198.72 935.06 200.62 935.54 201.44L936.42 200.26C936.02 199.76 934.14 197.86 933.64 197.42ZM949.92 192.78V202.3H951.42V194.26H964.48V202.2H966.04V192.78H949.92ZM950.72 199.58V201.04H965.38V199.58H950.72ZM957.16 189.2V207.58H958.72V189.2H957.16ZM759.38 220.62V222.14H776.6V220.62H759.38ZM769.18 226.44C771.56 228.06 774.56 230.4 775.96 231.94L777.18 230.8C775.7 229.26 772.64 227 770.3 225.48L769.18 226.44ZM768.8 221.14C766.94 224.9 763.22 228.74 758.88 230.92C759.18 231.24 759.66 231.84 759.9 232.22C764.42 229.84 768.16 225.88 770.44 221.74L768.8 221.14ZM767.16 225.14V237.58H768.78V223.54L767.16 225.14ZM781.94 227.3V237.62H783.46V228.44H793.12V227.3H781.94ZM792.68 227.3V235.92C792.68 236.2 792.58 236.3 792.24 236.32C791.92 236.34 790.76 236.34 789.58 236.28C789.78 236.66 790.02 237.22 790.08 237.62C791.7 237.62 792.74 237.62 793.36 237.4C794 237.18 794.2 236.78 794.2 235.94V227.3H792.68ZM783.04 230.14V231.26H793.18V230.14H783.04ZM779.58 220.94V222.16H785.46V220.94H779.58ZM779.08 224.86L779.3 226.14C781.06 225.82 783.3 225.4 785.52 224.96L785.46 223.82C783.08 224.22 780.7 224.62 779.08 224.86ZM783.04 233.04V234.16H793.24V233.04H783.04ZM784.58 219.2V226.62H786.08V219.2H784.58ZM795.04 220.1C793.76 220.76 791.54 221.48 789.62 221.98C789.78 222.26 789.98 222.74 790.06 223.04C792.06 222.58 794.42 221.9 796.08 221.18L795.04 220.1ZM788.98 219.2V224.48C788.98 226.04 789.46 226.46 791.4 226.46C791.78 226.46 794.36 226.46 794.8 226.46C796.28 226.46 796.72 225.92 796.88 223.98C796.48 223.88 795.88 223.68 795.54 223.44C795.48 224.92 795.34 225.14 794.66 225.14C794.1 225.14 791.94 225.14 791.56 225.14C790.66 225.14 790.5 225.06 790.5 224.5V219.2H788.98ZM799.12 231.86V233.08H816.88V231.86H799.12ZM799.12 226.78V227.96H816.88V226.78H799.12ZM799.16 220.78V222H816.92V220.78H799.16ZM807.18 230.42V237.6H808.7V230.42H807.18ZM807.2 225.38V229.98H808.66V225.38H807.2ZM807.22 219.2V221.48H808.76V219.2H807.22ZM806.6 232.32C804.9 234.04 801.6 235.56 798.74 236.22C799.06 236.52 799.48 237.06 799.68 237.42C802.5 236.58 805.84 234.84 807.66 232.84L806.6 232.32ZM809.3 232.34L808.24 232.88C810.06 234.84 813.42 236.54 816.3 237.32C816.52 236.96 816.94 236.4 817.28 236.12C814.32 235.48 810.98 234.04 809.3 232.34ZM802.2 225.52V230.62H813.82V225.52H812.36V229.46H803.58V225.52H802.2ZM804.98 221.26C804.48 222.12 803.52 223.36 802.8 224.14L804 224.58C804.78 223.86 805.72 222.76 806.5 221.72L804.98 221.26ZM810.16 222.62C811.98 223.38 814.2 224.68 815.38 225.6L816.34 224.7C815.16 223.84 812.92 222.58 811.1 221.84L810.16 222.62ZM799.9 223.8L799.98 225.06C803.64 224.98 809.12 224.84 814.26 224.66L814.32 223.58C809.04 223.7 803.42 223.78 799.9 223.8ZM821.64 219.26V237.58H823V219.26H821.64ZM818.8 225.92V227.34H825.24V225.92H818.8ZM821.56 226.66C821.02 228.98 819.76 232.02 818.58 233.58C818.84 234 819.22 234.66 819.38 235.12C820.64 233.28 821.88 229.76 822.5 227.08L821.56 226.66ZM822.96 227.72L822.22 228.3C822.78 229.16 824.18 231.64 824.6 232.68L825.6 231.52C825.22 230.88 823.46 228.3 822.96 227.72ZM819.02 220.76C819.54 222.14 820 223.98 820.12 225.16L821.22 224.88C821.08 223.7 820.62 221.9 820.04 220.5L819.02 220.76ZM824.56 220.42C824.28 221.78 823.72 223.74 823.28 224.92L824.2 225.22C824.72 224.1 825.32 222.22 825.82 220.74L824.56 220.42ZM826.5 220.84V221.98H836.68V220.84H826.5ZM827 223.22V224.32H836.24V223.22H827ZM825.94 225.68V226.84H837.18V225.68H825.94ZM830.7 219.22V226.32H832.14V219.22H830.7ZM827.2 228.06V237.58H828.62V229.2H834.9V228.06H827.2ZM834.44 228.06V236.06C834.44 236.28 834.38 236.36 834.12 236.36C833.86 236.36 833.04 236.36 832.14 236.34C832.32 236.7 832.5 237.22 832.58 237.58C833.82 237.58 834.66 237.58 835.18 237.38C835.72 237.16 835.86 236.78 835.86 236.06V228.06H834.44ZM827.96 230.68V231.76H835.02V230.68H827.96ZM827.96 233.26V234.34H835.02V233.26H827.96ZM847.32 226.62V227.94H856.08V226.62H847.32ZM847.28 230.58V231.94H856.3V230.58H847.28ZM850.86 219.2V237.6H852.3V219.2H850.86ZM846.56 222.68V232.8H847.96V224.04H855.36V232.7H856.78V222.68H846.56ZM839.1 222.96V224.34H845.14V222.96H839.1ZM841.84 219.22V223.64H843.3V219.22H841.84ZM843.46 227.5L842.6 228.26C843.24 228.88 844.82 230.52 845.4 231.26L846.28 230.04C845.84 229.6 844 227.9 843.46 227.5ZM844.6 222.96V223.28C843.48 226.3 840.86 229.34 838.36 230.96C838.62 231.22 839 231.92 839.14 232.3C841.8 230.44 844.64 227.08 846.02 223.44L845.18 222.9L844.92 222.96H844.6ZM841.84 228.98V237.58H843.3V227.18L841.84 228.98ZM871.08 220.46V221.8H874.78V220.46H871.08ZM866.46 221.44V222.72H870.68V221.44H866.46ZM871.28 224.16V225.42H874.74V224.16H871.28ZM871.24 227.9V229.16H874.64V227.9H871.24ZM861.38 224.16V225.42H864.78V224.16H861.38ZM861.46 227.88V229.16H864.8V227.88H861.46ZM860.58 220.6L860.98 232.22H862.34L861.98 221.38C862.22 221.34 862.32 221.26 862.36 221.14L860.58 220.6ZM873.96 220.46C873.98 224.14 873.82 229.24 873.6 232.18H875.02C875.22 229.3 875.34 224.22 875.36 220.46H873.96ZM864.26 219.4C863.46 219.94 862.12 220.66 860.96 221.2C861.12 221.5 861.36 221.98 861.44 222.24C862.72 221.76 864.22 221.12 865.44 220.48L864.26 219.4ZM865.8 226.9V232.1H867.04V226.9H865.8ZM865.82 219.38V226.02H869.72V224.8H867.12V219.38H865.82ZM868.98 224.8V232.08H870.28V224.8H868.98ZM858.88 231.58V232.98H877.14V231.58H858.88ZM869.86 234.26C872 235.32 874.28 236.68 875.62 237.66L877.02 236.64C875.56 235.64 873.14 234.3 870.92 233.26L869.86 234.26ZM864.62 233.3C863.38 234.4 860.98 235.78 859.04 236.58C859.4 236.86 859.92 237.34 860.18 237.64C862.08 236.8 864.44 235.44 866.02 234.2L864.62 233.3ZM886.56 226.16H894.76V227.42H886.56V226.16ZM886.56 224H894.76V225.24H886.56V224ZM885.18 223.06V228.38H896.2V223.06H885.18ZM884.2 229.68L884.34 230.9C887.28 230.84 891.54 230.7 895.6 230.58L895.64 229.5C891.46 229.6 887.04 229.68 884.2 229.68ZM893.12 228.58C894.26 229.42 895.6 230.64 896.24 231.44L897.32 230.76C896.66 229.96 895.28 228.78 894.14 227.98L893.12 228.58ZM889.88 219.36V230.24L891.34 230.12V219.36H889.88ZM883.8 231.96V233.18H897.2V231.96H883.8ZM892.92 230.24V236C892.92 236.26 892.84 236.34 892.54 236.34C892.2 236.38 891.18 236.38 889.96 236.34C890.14 236.72 890.34 237.24 890.42 237.62C891.96 237.62 892.96 237.64 893.58 237.42C894.2 237.22 894.38 236.84 894.38 236.02V230.24H892.92ZM885.94 233.88C886.88 234.68 887.96 235.84 888.44 236.6L889.62 235.78C889.08 235.04 887.98 233.94 887.04 233.18L885.94 233.88ZM884.36 220.76V221.92H897V220.76H884.36ZM883.28 219.28C882.16 222.32 880.28 225.32 878.3 227.26C878.58 227.6 879 228.4 879.16 228.74C881.32 226.5 883.38 223.12 884.7 219.72L883.28 219.28ZM881.2 224.44V237.58H882.64V223.04L882.6 223.02L881.2 224.44ZM907.14 223.68V235.78C907.14 236.12 907.02 236.22 906.64 236.24C906.26 236.26 904.98 236.28 903.58 236.22C903.8 236.64 904.06 237.24 904.14 237.66C905.88 237.66 907.04 237.64 907.72 237.4C908.4 237.16 908.64 236.74 908.64 235.8V223.68H907.14ZM901.64 220.34V221.7H913.08V220.34H901.64ZM912.6 220.34V220.62C911.54 221.78 909.36 223.24 907.42 224.04C907.68 224.28 908.08 224.7 908.28 225C910.46 224.08 912.82 222.54 914.34 221L913.3 220.26L912.98 220.34H912.6ZM904.64 226.04V227.28H911.4V226.04H904.64ZM899.16 224.64V226.02H903.64V224.64H899.16ZM904.24 229.22V230.46H911.72V229.22H904.24ZM903.1 232.5V233.76H912.88V232.5H903.1ZM915.9 224.48C915.04 225.72 913.54 227.42 912.46 228.4L913.42 229.24C914.52 228.26 915.98 226.74 917.08 225.46L915.9 224.48ZM912.72 224.02L911.34 224.24C912.12 229.3 913.56 233.62 916.3 235.94C916.56 235.52 917.08 234.96 917.44 234.66C914.84 232.7 913.4 228.58 912.72 224.02ZM903.1 224.64V224.98C902.46 229.38 900.78 232.92 898.54 234.82C898.88 235.04 899.44 235.6 899.68 235.92C901.98 233.84 903.84 229.98 904.62 224.94L903.68 224.58L903.4 224.64H903.1ZM927.5 225.22H934.94V227.8H927.5V225.22ZM927.5 221.44H934.94V223.98H927.5V221.44ZM926.14 220.14V229.1H936.38V220.14H926.14ZM925.88 231.44V232.82H936.66V231.44H925.88ZM924.34 235.58V236.94H937.32V235.58H924.34ZM918.9 220.56V221.98H925.14V220.56H918.9ZM919.12 226.34V227.76H924.86V226.34H919.12ZM918.7 234L919.06 235.54C920.84 234.94 923.12 234.18 925.3 233.44L925.04 232C922.72 232.78 920.32 233.56 918.7 234ZM921.4 221.12V233.8L922.84 233.52V221.12H921.4ZM930.56 220.76V228.46H930.46V236.2H931.98V228.46H931.88V220.76H930.56ZM944.1 231.48V235.36C944.1 236.92 944.6 237.34 946.6 237.34C947 237.34 949.7 237.34 950.1 237.34C951.8 237.34 952.22 236.72 952.42 234.12C952 234.02 951.38 233.8 951.04 233.54C950.96 235.7 950.84 235.98 949.98 235.98C949.38 235.98 947.16 235.98 946.72 235.98C945.76 235.98 945.58 235.88 945.58 235.36V231.48H944.1ZM945.1 230.24C946.56 230.92 948.22 232.08 949 233L950 231.92C949.2 231 947.5 229.9 946.02 229.24L945.1 230.24ZM952.06 231.96C953.58 233.36 955.14 235.34 955.76 236.7L957.12 235.88C956.46 234.48 954.82 232.58 953.3 231.22L952.06 231.96ZM941.6 231.4C941.16 233.16 940.28 234.98 938.82 236.02L940.04 236.88C941.64 235.72 942.46 233.72 942.94 231.84L941.6 231.4ZM941.48 226.24V227.54H952.84V226.24H941.48ZM944.32 223.56V224.78H951.6V223.56H944.32ZM947.88 220.56C949.8 222.68 953.34 224.82 956.3 225.96C956.52 225.54 956.88 224.98 957.22 224.6C954.14 223.62 950.74 221.6 948.56 219.24H947.02C945.4 221.3 942.12 223.56 938.76 224.82C939.06 225.16 939.42 225.74 939.6 226.1C942.9 224.76 946.18 222.56 947.88 220.56ZM952.4 226.24V226.52C951.84 227.76 950.66 229.58 949.62 230.7C949.98 230.86 950.48 231.18 950.78 231.4C951.86 230.2 953.2 228.34 953.96 226.78L952.96 226.16L952.7 226.24H952.4Z" fill="white"/>
<path d="M1084.04 201.14V205.34C1084.04 206.92 1084.56 207.36 1086.66 207.36C1087.08 207.36 1090.04 207.36 1090.5 207.36C1092.26 207.36 1092.7 206.72 1092.9 204.12C1092.48 204.02 1091.86 203.8 1091.54 203.54C1091.44 205.7 1091.28 206 1090.38 206C1089.72 206 1087.26 206 1086.76 206C1085.7 206 1085.52 205.88 1085.52 205.34V201.14H1084.04ZM1085.36 200.24C1086.76 201 1088.32 202.24 1089.04 203.2L1090.16 202.24C1089.42 201.28 1087.82 200.1 1086.4 199.36L1085.36 200.24ZM1092.3 201.76C1093.82 203.2 1095.32 205.2 1095.86 206.62L1097.24 205.9C1096.64 204.44 1095.08 202.5 1093.56 201.12L1092.3 201.76ZM1081.44 201.24C1081.08 203.08 1080.24 204.86 1078.78 205.88L1080.02 206.7C1081.6 205.56 1082.34 203.6 1082.78 201.64L1081.44 201.24ZM1080.62 191.62V199.02H1082.08V192.98H1093.84V198.88H1095.34V191.62H1080.62ZM1081.5 196.74V198.1H1094.54V196.74H1081.5ZM1087.16 189.22V200.1H1088.66V189.22H1087.16ZM1098.88 192.48V193.88H1107.4V192.48H1098.88ZM1101.84 196.64V198.02H1105.46V196.64H1101.84ZM1102.42 189.24V192.98H1103.9V189.24H1102.42ZM1111.9 190.94C1112.84 193.48 1114.6 196.24 1116.62 197.88C1116.82 197.42 1117.14 196.82 1117.42 196.42C1115.5 195.04 1113.66 192.16 1112.62 189.22H1111.08C1110.3 191.94 1108.56 194.96 1106.56 196.54C1106.82 196.9 1107.16 197.5 1107.32 197.9C1109.36 196.24 1111.08 193.38 1111.9 190.94ZM1101.06 193.3C1101.02 198.66 1100.86 203.8 1098.58 206.62C1098.96 206.88 1099.48 207.34 1099.72 207.68C1102.2 204.54 1102.44 199.1 1102.54 193.3H1101.06ZM1105 196.64V196.94C1104.88 203.32 1104.72 205.52 1104.36 206C1104.2 206.22 1104.04 206.28 1103.74 206.26C1103.42 206.26 1102.68 206.26 1101.84 206.2C1102.08 206.58 1102.22 207.16 1102.26 207.56C1103.1 207.62 1103.94 207.62 1104.42 207.58C1104.96 207.5 1105.3 207.36 1105.62 206.92C1106.14 206.22 1106.26 203.98 1106.4 197.34C1106.42 197.12 1106.42 196.64 1106.42 196.64H1105ZM1109.74 197.86C1111.1 198.74 1112.68 200.04 1113.42 200.98L1114.46 199.92C1113.7 199 1112.08 197.76 1110.72 196.92L1109.74 197.86ZM1108.12 203.28C1110.56 204.42 1113.48 206.26 1114.9 207.62L1115.86 206.3C1114.42 204.96 1111.44 203.2 1109.02 202.14L1108.12 203.28ZM1122.26 196.38V197.78H1133.88V196.38H1122.26ZM1122.26 200.72V202.12H1133.88V200.72H1122.26ZM1122.26 205.1V206.5H1133.88V205.1H1122.26ZM1121.24 191.94V207.62H1122.76V193.38H1133.48V207.52H1135.04V191.94H1121.24ZM1127.1 189.18C1126.9 190.16 1126.46 191.56 1126.1 192.5L1127.44 192.76C1127.88 191.9 1128.4 190.6 1128.84 189.4L1127.1 189.18ZM1141.82 196.92V198.4H1153.62V196.92H1141.82ZM1140.8 190.4V191.92H1153V199.66H1154.58V190.4H1140.8ZM1141.04 196.92V204.4C1141.04 206.66 1142.08 207.18 1145.3 207.18C1146.04 207.18 1152.12 207.18 1152.88 207.18C1156.12 207.18 1156.78 206.22 1157.12 202.64C1156.68 202.54 1156.02 202.28 1155.6 202.02C1155.36 205.1 1155.04 205.68 1152.9 205.68C1151.54 205.68 1146.3 205.68 1145.24 205.68C1143.04 205.68 1142.58 205.44 1142.58 204.38V196.92H1141.04ZM1160.62 192.42V193.76H1165.3V204.14H1160.62V205.5H1166.7V192.42H1160.62ZM1159.72 192.42V207.1H1161.12V192.42H1159.72ZM1160.52 197.98V199.32H1166.04V197.98H1160.52ZM1162.78 189.16C1162.62 190.2 1162.24 191.72 1161.9 192.68L1163.1 192.98C1163.5 192.08 1164 190.7 1164.4 189.46L1162.78 189.16ZM1169.54 192.36V193.76H1175.68V192.36H1169.54ZM1175.16 192.36V192.68C1174.88 201.5 1174.56 204.82 1173.9 205.54C1173.68 205.8 1173.44 205.86 1173.04 205.86C1172.58 205.86 1171.38 205.84 1170.08 205.74C1170.36 206.14 1170.54 206.76 1170.58 207.2C1171.7 207.26 1172.88 207.3 1173.56 207.22C1174.26 207.16 1174.72 206.98 1175.16 206.4C1175.96 205.42 1176.24 202.32 1176.56 193.14C1176.56 192.92 1176.56 192.36 1176.56 192.36H1175.16ZM1169.96 189.12C1169.32 191.9 1168.22 194.66 1166.86 196.42C1167.22 196.62 1167.84 197.04 1168.1 197.28C1169.48 195.38 1170.66 192.44 1171.4 189.46L1169.96 189.12ZM1169.04 197.56C1170.14 199.02 1171.48 201 1172.08 202.22L1173.36 201.42C1172.72 200.24 1171.34 198.3 1170.2 196.88L1169.04 197.56ZM1180.38 189.96V191.3H1183.72V189.96H1180.38ZM1179.78 189.96V197.08C1179.78 200 1179.7 204.06 1178.64 206.94C1178.96 207.06 1179.52 207.4 1179.76 207.62C1180.88 204.6 1181.04 200.14 1181.04 197.06V189.96H1179.78ZM1182.88 189.96V206C1182.88 206.24 1182.8 206.3 1182.6 206.3C1182.42 206.3 1181.84 206.32 1181.18 206.28C1181.36 206.64 1181.54 207.26 1181.6 207.58C1182.56 207.58 1183.16 207.56 1183.6 207.34C1184 207.1 1184.14 206.7 1184.14 206V189.96H1182.88ZM1191.84 189.96V207.62H1193.14V191.28H1196.04V189.96H1191.84ZM1195.34 189.96V202.42C1195.34 202.62 1195.26 202.68 1195.08 202.7C1194.9 202.7 1194.34 202.7 1193.68 202.68C1193.88 203.04 1194.1 203.64 1194.16 204.02C1195.12 204.02 1195.68 203.98 1196.1 203.74C1196.54 203.5 1196.64 203.06 1196.64 202.44V189.96H1195.34ZM1180.38 194.7V196.04H1183.68V194.7H1180.38ZM1180.36 199.52V200.86H1183.68V199.52H1180.36ZM1186.34 205.02V206.28H1189.88V205.02H1186.34ZM1188.42 190.02C1189.2 191.36 1189.96 193.18 1190.24 194.3L1191.38 193.76C1191.1 192.66 1190.28 190.9 1189.5 189.56L1188.42 190.02ZM1185.6 199.6V207.44H1186.86V200.9H1189.3V207.16H1190.58V199.6H1185.6ZM1186.38 189.64C1185.94 191.22 1185.18 192.8 1184.28 193.88C1184.56 194.08 1185.04 194.48 1185.24 194.7C1186.16 193.52 1187.04 191.7 1187.58 189.94L1186.38 189.64ZM1187.38 194.32C1186.78 196 1185.66 198.2 1184.12 199.9C1184.42 200.08 1184.86 200.46 1185.06 200.76C1186.76 198.84 1187.86 196.6 1188.54 195V194.62H1188.12V194.32H1187.38ZM1187.6 194.32V195.22H1187.82C1188.92 196.52 1190.12 198.6 1190.68 199.8L1191.72 198.84C1191.14 197.64 1189.8 195.7 1188.66 194.32H1187.6ZM1207.26 196.56V201.32C1207.26 201.54 1207.18 201.6 1206.9 201.62C1206.6 201.64 1205.62 201.64 1204.56 201.6C1204.76 202 1204.98 202.54 1205.04 202.94C1206.46 202.94 1207.4 202.94 1208 202.72C1208.6 202.5 1208.76 202.12 1208.76 201.34V196.56H1207.26ZM1203.26 197.38C1202.26 198.88 1200.62 200.36 1199.04 201.32C1199.42 201.56 1200.04 202.04 1200.34 202.32C1201.88 201.26 1203.64 199.58 1204.8 197.9L1203.26 197.38ZM1213.34 197.94C1211.62 202.98 1207.74 205.36 1200.52 206.24C1200.84 206.6 1201.14 207.2 1201.3 207.64C1208.8 206.56 1212.92 203.94 1214.84 198.46L1213.34 197.94ZM1199.06 195.26V196.7H1216.94V195.26H1199.06ZM1208.14 191.58V192.98H1214.92V191.58H1208.14ZM1207.24 189.22V196.1H1208.78V189.22H1207.24ZM1202.06 190.76V196.02H1203.58V190.76H1202.06ZM1221.14 208.14C1223.24 207.42 1224.6 205.78 1224.6 203.62C1224.6 202.22 1224 201.3 1222.88 201.3C1222.08 201.3 1221.36 201.8 1221.36 202.74C1221.36 203.7 1222.04 204.18 1222.86 204.18C1223.24 204.18 1223.64 204.08 1223.92 203.72L1222.84 202.2L1223.22 203.9C1223.22 205.4 1222.32 206.42 1220.68 207.1L1221.14 208.14ZM1239.38 190.62V192.14H1256.6V190.62H1239.38ZM1249.18 196.44C1251.56 198.06 1254.56 200.4 1255.96 201.94L1257.18 200.8C1255.7 199.26 1252.64 197 1250.3 195.48L1249.18 196.44ZM1248.8 191.14C1246.94 194.9 1243.22 198.74 1238.88 200.92C1239.18 201.24 1239.66 201.84 1239.9 202.22C1244.42 199.84 1248.16 195.88 1250.44 191.74L1248.8 191.14ZM1247.16 195.14V207.58H1248.78V193.54L1247.16 195.14ZM1261.94 197.68V207.58H1263.38V198.84H1272.8V207.5H1274.32V197.68H1261.94ZM1262.64 200.4V201.48H1273.58V200.4H1262.64ZM1259.3 190.88V192.18H1276.68V190.88H1259.3ZM1262.64 203.06V204.12H1273.58V203.06H1262.64ZM1262.64 205.74V206.9H1273.58V205.74H1262.64ZM1267.22 189.22V191.8H1268.7V189.22H1267.22ZM1261.28 191.64V193.94C1261.28 195.6 1262 196.18 1264.28 196.18C1264.96 196.18 1271.24 196.18 1272.4 196.18C1273.7 196.18 1275.16 196.16 1275.66 196.04C1275.6 195.72 1275.52 195.18 1275.46 194.72C1274.8 194.84 1273.2 194.88 1272.24 194.88C1271.06 194.88 1265.26 194.88 1264.18 194.88C1263.04 194.88 1262.78 194.64 1262.78 193.96V191.64H1261.28ZM1282.18 195.18V196.6H1293.76V195.18H1282.18ZM1282.18 199.92V201.34H1293.76V199.92H1282.18ZM1282.18 204.68V206.14H1293.76V204.68H1282.18ZM1281.14 190.44V207.5H1282.64V191.92H1293.16V207.5H1294.72V190.44H1281.14ZM1153.22 227.1H1148.96V228.5H1151.76V234.18H1153.22V227.1ZM1153.22 233.52H1151.86C1150.84 234.38 1149.66 235.26 1148.7 235.9L1149.5 237.44C1150.58 236.56 1151.6 235.7 1152.56 234.84C1153.84 236.42 1155.64 237.12 1158.24 237.22C1160.46 237.3 1164.6 237.26 1166.8 237.18C1166.86 236.72 1167.12 236 1167.28 235.64C1164.92 235.8 1160.42 235.86 1158.24 235.78C1155.94 235.68 1154.16 235 1153.22 233.52ZM1149.18 220.6C1150.48 221.48 1151.98 222.84 1152.62 223.8L1153.8 222.82C1153.1 221.84 1151.6 220.54 1150.28 219.7L1149.18 220.6ZM1156.18 221.3V222.56H1163.6V225.26H1156.18V226.54H1165.06V221.3H1156.18ZM1159.44 219.14C1159.28 219.92 1158.92 221.04 1158.62 221.8L1160 222.1C1160.34 221.42 1160.78 220.4 1161.16 219.42L1159.44 219.14ZM1155.46 221.3V234.14H1156.92V221.3H1155.46ZM1156.26 228.44V229.72H1164.38V232.84H1156.26V234.14H1165.86V228.44H1156.26ZM1169.28 222.56V224.02H1186.78V222.56H1169.28ZM1178.6 223.86L1177.42 224.22C1179.06 229.48 1182 234.06 1186.26 236.14C1186.5 235.7 1187 235.12 1187.36 234.82C1183.18 233 1180.1 228.66 1178.6 223.86ZM1184.6 224.84C1183.52 226.32 1181.66 228.26 1180.3 229.4L1181.36 230.22C1182.76 229.08 1184.58 227.3 1185.9 225.78L1184.6 224.84ZM1180.6 220.22C1181.88 220.9 1183.48 221.9 1184.26 222.6L1185.22 221.52C1184.38 220.86 1182.74 219.92 1181.52 219.28L1180.6 220.22ZM1170.36 225.98C1171.6 227.08 1172.98 228.68 1173.58 229.72L1174.8 228.86C1174.18 227.8 1172.74 226.28 1171.52 225.22L1170.36 225.98ZM1177.18 219.26V235.58C1177.18 235.96 1177.04 236.06 1176.68 236.08C1176.28 236.1 1174.98 236.1 1173.58 236.06C1173.82 236.52 1174.06 237.22 1174.14 237.64C1175.9 237.64 1177.1 237.62 1177.78 237.34C1178.44 237.1 1178.72 236.64 1178.72 235.58V219.26H1177.18ZM1168.74 234.32L1169.66 235.66C1171.44 234.66 1173.8 233.26 1175.96 231.92L1175.48 230.58C1173.04 232 1170.42 233.46 1168.74 234.32ZM1198.9 226.56C1198.26 228.08 1197.22 229.6 1196.06 230.6C1196.38 230.78 1196.92 231.16 1197.18 231.38C1198.34 230.28 1199.5 228.6 1200.2 226.9L1198.9 226.56ZM1199.02 227.92L1198.28 229.02H1205.8V227.92H1199.02ZM1205.42 227.92V228.14C1205.22 231.86 1205 233.24 1204.68 233.6C1204.54 233.78 1204.38 233.8 1204.1 233.8C1203.84 233.8 1203.18 233.78 1202.42 233.72C1202.58 234 1202.72 234.48 1202.74 234.78C1203.52 234.82 1204.28 234.84 1204.68 234.8C1205.16 234.78 1205.5 234.66 1205.78 234.32C1206.26 233.82 1206.48 232.38 1206.7 228.48C1206.72 228.28 1206.74 227.92 1206.74 227.92H1205.42ZM1200.22 229.64V231.6C1200.22 232.54 1199.78 233.72 1196.84 234.32C1197.1 234.54 1197.4 234.9 1197.52 235.14C1200.78 234.34 1201.34 232.96 1201.34 231.62V229.64H1200.22ZM1197.68 230.04V232.8H1203.96V230.04H1202.86V231.8H1198.74V230.04H1197.68ZM1199.08 219.1C1198.46 220.66 1197.4 222.18 1196.2 223.18C1196.54 223.38 1197.08 223.76 1197.34 223.96C1198.5 222.86 1199.66 221.16 1200.38 219.42L1199.08 219.1ZM1199.16 220.42L1198.44 221.52H1205.78V220.42H1199.16ZM1205.36 220.42V220.64C1205.16 224.16 1204.94 225.46 1204.64 225.8C1204.5 225.96 1204.36 226 1204.08 226C1203.82 226 1203.16 225.98 1202.44 225.92C1202.6 226.18 1202.72 226.62 1202.74 226.92C1203.52 226.98 1204.26 226.98 1204.64 226.96C1205.14 226.92 1205.46 226.82 1205.74 226.48C1206.18 225.98 1206.42 224.64 1206.62 220.96C1206.64 220.78 1206.66 220.42 1206.66 220.42H1205.36ZM1200.38 222.1V224.2C1200.38 225.1 1199.86 226.1 1197.02 226.62C1197.26 226.82 1197.5 227.16 1197.62 227.42C1200.8 226.72 1201.42 225.5 1201.42 224.2V222.1H1200.38ZM1197.88 222.48V225.12H1203.98V222.48H1202.92V224.16H1198.92V222.48H1197.88ZM1189.48 221.64V222.96H1196.28V221.64H1189.48ZM1188.96 225.32V226.68H1196.78V225.32H1188.96ZM1193.2 229.22V230.56H1196.54V229.22H1193.2ZM1192.28 219.2V226.16H1193.64V219.2H1192.28ZM1192.7 226.24V235.28H1194.04V226.24H1192.7ZM1191.1 230.6L1190 230.98C1191.38 236.02 1193.86 237.08 1199.24 237.08H1206.68C1206.78 236.64 1207.04 235.96 1207.3 235.6C1206.08 235.66 1200.16 235.64 1199.24 235.64C1194.6 235.64 1192.24 234.8 1191.1 230.6ZM1189.96 228.26C1190.02 230.92 1189.88 234.28 1188.46 236.7C1188.78 236.84 1189.24 237.26 1189.46 237.56C1191.06 234.9 1191.24 231.3 1191.2 228.32L1189.96 228.26ZM1212.88 225.54V229.62L1214.24 229.52V225.54H1212.88ZM1209.06 222.46V223.52H1218.14V222.46H1209.06ZM1209.88 220.36V221.38H1217.3V220.36H1209.88ZM1212.88 219.2V223.12H1214.24V219.2H1212.88ZM1208.94 229.26L1209.02 230.42C1211.3 230.24 1214.54 230 1217.68 229.74V228.68C1214.44 228.92 1211.12 229.16 1208.94 229.26ZM1211.64 223.18C1211.46 224.44 1210.42 225.08 1208.96 225.38C1209.2 225.62 1209.48 226.1 1209.58 226.34C1211.34 225.86 1212.58 224.9 1212.8 223.22L1211.64 223.18ZM1214.26 222.94V224.42C1214.26 225.46 1214.52 225.7 1215.64 225.7C1215.84 225.7 1216.72 225.7 1216.94 225.7C1217.72 225.7 1218.04 225.42 1218.12 224.42C1217.8 224.38 1217.36 224.24 1217.12 224.08C1217.08 224.7 1217.04 224.8 1216.74 224.8C1216.56 224.8 1215.94 224.8 1215.78 224.8C1215.48 224.8 1215.44 224.76 1215.44 224.42V222.94H1214.26ZM1209.82 226.66V227.66H1217.38V226.66H1209.82ZM1210.22 231.68V232.88H1224.3V231.68H1210.22ZM1223.92 231.68V231.9C1223.66 234.64 1223.36 235.8 1222.96 236.14C1222.78 236.28 1222.58 236.3 1222.18 236.3C1221.78 236.3 1220.62 236.28 1219.48 236.18C1219.74 236.56 1219.9 237.14 1219.94 237.54C1221.08 237.6 1222.2 237.62 1222.76 237.58C1223.4 237.54 1223.8 237.44 1224.2 237.08C1224.74 236.56 1225.08 235.28 1225.38 232.34C1225.42 232.12 1225.46 231.68 1225.46 231.68H1223.92ZM1217.1 230.46C1216.6 233.82 1215.28 235.64 1209.12 236.42C1209.38 236.72 1209.72 237.3 1209.82 237.66C1216.42 236.7 1218.04 234.48 1218.64 230.46H1217.1ZM1218.24 225.08C1219.96 225.94 1222 227.3 1222.98 228.3L1223.68 227.2C1222.68 226.22 1220.62 224.94 1218.92 224.14L1218.24 225.08ZM1218.6 221.6V222.86H1224.64V221.6H1218.6ZM1224.06 221.6C1224.1 226.92 1224.1 230.68 1226.12 230.68C1227.14 230.68 1227.38 229.86 1227.5 227.7C1227.24 227.52 1226.86 227.2 1226.6 226.88C1226.58 228.32 1226.48 229.38 1226.22 229.38C1225.42 229.38 1225.42 226.06 1225.44 221.6H1224.06ZM1220.88 219.2C1220.78 224.32 1220.54 227.52 1217.7 229.32C1217.98 229.54 1218.4 230 1218.58 230.3C1221.7 228.26 1222.08 224.74 1222.18 219.2H1220.88Z" fill="white"/>
</svg>
