<svg width="335" height="274" viewBox="0 0 335 274" fill="none" xmlns="http://www.w3.org/2000/svg">
<path d="M33.6145 48.496C33.6145 41.968 35.1185 36.112 38.1265 30.928C41.1985 25.744 45.3265 21.712 50.5105 18.832C55.7585 15.888 61.4865 14.416 67.6945 14.416C74.7985 14.416 81.1025 16.176 86.6065 19.696C92.1745 23.152 96.2065 28.08 98.7025 34.48H85.5505C83.8225 30.96 81.4225 28.336 78.3505 26.608C75.2785 24.88 71.7265 24.016 67.6945 24.016C63.2785 24.016 59.3425 25.008 55.8865 26.992C52.4305 28.976 49.7105 31.824 47.7265 35.536C45.8065 39.248 44.8465 43.568 44.8465 48.496C44.8465 53.424 45.8065 57.744 47.7265 61.456C49.7105 65.168 52.4305 68.048 55.8865 70.096C59.3425 72.08 63.2785 73.072 67.6945 73.072C71.7265 73.072 75.2785 72.208 78.3505 70.48C81.4225 68.752 83.8225 66.128 85.5505 62.608H98.7025C96.2065 69.008 92.1745 73.936 86.6065 77.392C81.1025 80.848 74.7985 82.576 67.6945 82.576C61.4225 82.576 55.6945 81.136 50.5105 78.256C45.3265 75.312 41.1985 71.248 38.1265 66.064C35.1185 60.88 33.6145 55.024 33.6145 48.496ZM122.457 36.784C124.057 34.096 126.169 32.016 128.793 30.544C131.481 29.008 134.649 28.24 138.297 28.24V39.568H135.513C131.225 39.568 127.961 40.656 125.721 42.832C123.545 45.008 122.457 48.784 122.457 54.16V82H111.513V29.104H122.457V36.784ZM171.3 82.864C166.308 82.864 161.796 81.744 157.764 79.504C153.732 77.2 150.564 74 148.26 69.904C145.956 65.744 144.804 60.944 144.804 55.504C144.804 50.128 145.988 45.36 148.356 41.2C150.724 37.04 153.956 33.84 158.052 31.6C162.148 29.36 166.724 28.24 171.78 28.24C176.836 28.24 181.412 29.36 185.508 31.6C189.604 33.84 192.836 37.04 195.204 41.2C197.572 45.36 198.756 50.128 198.756 55.504C198.756 60.88 197.54 65.648 195.108 69.808C192.676 73.968 189.348 77.2 185.124 79.504C180.964 81.744 176.356 82.864 171.3 82.864ZM171.3 73.36C174.116 73.36 176.74 72.688 179.172 71.344C181.668 70 183.684 67.984 185.22 65.296C186.756 62.608 187.524 59.344 187.524 55.504C187.524 51.664 186.788 48.432 185.316 45.808C183.844 43.12 181.892 41.104 179.46 39.76C177.028 38.416 174.404 37.744 171.588 37.744C168.772 37.744 166.148 38.416 163.716 39.76C161.348 41.104 159.46 43.12 158.052 45.808C156.644 48.432 155.94 51.664 155.94 55.504C155.94 61.2 157.38 65.616 160.26 68.752C163.204 71.824 166.884 73.36 171.3 73.36ZM228.775 82.864C224.615 82.864 220.871 82.128 217.543 80.656C214.279 79.12 211.687 77.072 209.767 74.512C207.847 71.888 206.823 68.976 206.695 65.776H218.023C218.215 68.016 219.271 69.904 221.191 71.44C223.175 72.912 225.639 73.648 228.583 73.648C231.655 73.648 234.023 73.072 235.687 71.92C237.415 70.704 238.279 69.168 238.279 67.312C238.279 65.328 237.319 63.856 235.399 62.896C233.543 61.936 230.567 60.88 226.471 59.728C222.503 58.64 219.271 57.584 216.775 56.56C214.279 55.536 212.103 53.968 210.247 51.856C208.455 49.744 207.559 46.96 207.559 43.504C207.559 40.688 208.391 38.128 210.055 35.824C211.719 33.456 214.087 31.6 217.159 30.256C220.295 28.912 223.879 28.24 227.911 28.24C233.927 28.24 238.759 29.776 242.407 32.848C246.119 35.856 248.103 39.984 248.359 45.232H237.415C237.223 42.864 236.263 40.976 234.535 39.568C232.807 38.16 230.471 37.456 227.527 37.456C224.647 37.456 222.439 38 220.903 39.088C219.367 40.176 218.599 41.616 218.599 43.408C218.599 44.816 219.111 46 220.135 46.96C221.159 47.92 222.407 48.688 223.879 49.264C225.351 49.776 227.527 50.448 230.407 51.28C234.247 52.304 237.383 53.36 239.815 54.448C242.311 55.472 244.455 57.008 246.247 59.056C248.039 61.104 248.967 63.824 249.031 67.216C249.031 70.224 248.199 72.912 246.535 75.28C244.871 77.648 242.503 79.504 239.431 80.848C236.423 82.192 232.871 82.864 228.775 82.864ZM280.056 82.864C275.896 82.864 272.152 82.128 268.824 80.656C265.56 79.12 262.968 77.072 261.048 74.512C259.128 71.888 258.104 68.976 257.976 65.776H269.304C269.496 68.016 270.552 69.904 272.472 71.44C274.456 72.912 276.92 73.648 279.864 73.648C282.936 73.648 285.304 73.072 286.968 71.92C288.696 70.704 289.56 69.168 289.56 67.312C289.56 65.328 288.6 63.856 286.68 62.896C284.824 61.936 281.848 60.88 277.752 59.728C273.784 58.64 270.552 57.584 268.056 56.56C265.56 55.536 263.384 53.968 261.528 51.856C259.736 49.744 258.84 46.96 258.84 43.504C258.84 40.688 259.672 38.128 261.336 35.824C263 33.456 265.368 31.6 268.44 30.256C271.576 28.912 275.16 28.24 279.192 28.24C285.208 28.24 290.04 29.776 293.688 32.848C297.4 35.856 299.384 39.984 299.64 45.232H288.696C288.504 42.864 287.544 40.976 285.816 39.568C284.088 38.16 281.752 37.456 278.808 37.456C275.928 37.456 273.72 38 272.184 39.088C270.648 40.176 269.88 41.616 269.88 43.408C269.88 44.816 270.392 46 271.416 46.96C272.44 47.92 273.688 48.688 275.16 49.264C276.632 49.776 278.808 50.448 281.688 51.28C285.528 52.304 288.664 53.36 291.096 54.448C293.592 55.472 295.736 57.008 297.528 59.056C299.32 61.104 300.248 63.824 300.312 67.216C300.312 70.224 299.48 72.912 297.816 75.28C296.152 77.648 293.784 79.504 290.712 80.848C287.704 82.192 284.152 82.864 280.056 82.864Z" fill="white"/>
<path d="M118.945 193.28V202.208H101.185V260H90.2406V202.208H72.3846V193.28H118.945ZM126.38 233.312C126.38 228 127.468 223.296 129.644 219.2C131.884 215.104 134.892 211.936 138.668 209.696C142.508 207.392 146.732 206.24 151.34 206.24C155.5 206.24 159.116 207.072 162.188 208.736C165.324 210.336 167.82 212.352 169.676 214.784V207.104H180.716V260H169.676V252.128C167.82 254.624 165.292 256.704 162.092 258.368C158.892 260.032 155.244 260.864 151.148 260.864C146.604 260.864 142.444 259.712 138.668 257.408C134.892 255.04 131.884 251.776 129.644 247.616C127.468 243.392 126.38 238.624 126.38 233.312ZM169.676 233.504C169.676 229.856 168.908 226.688 167.372 224C165.9 221.312 163.948 219.264 161.516 217.856C159.084 216.448 156.46 215.744 153.644 215.744C150.828 215.744 148.204 216.448 145.772 217.856C143.34 219.2 141.356 221.216 139.82 223.904C138.348 226.528 137.612 229.664 137.612 233.312C137.612 236.96 138.348 240.16 139.82 242.912C141.356 245.664 143.34 247.776 145.772 249.248C148.268 250.656 150.892 251.36 153.644 251.36C156.46 251.36 159.084 250.656 161.516 249.248C163.948 247.84 165.9 245.792 167.372 243.104C168.908 240.352 169.676 237.152 169.676 233.504ZM206.035 188.96V260H195.091V188.96H206.035ZM241.331 233.6L265.715 260H250.931L231.347 237.248V260H220.403V188.96H231.347V230.24L250.547 207.104H265.715L241.331 233.6Z" fill="white"/>
<line x1="190.335" y1="109.335" x2="145.08" y2="154.589" stroke="white" stroke-width="2"/>
<line x1="188.92" y1="154.589" x2="143.666" y2="109.334" stroke="white" stroke-width="2"/>
</svg>
