<svg width="850" height="113" viewBox="0 0 850 113" fill="none" xmlns="http://www.w3.org/2000/svg">
<path d="M0.888855 58.65C0.888855 48.45 3.23886 39.3 7.93886 31.2C12.7389 23.1 19.1888 16.8 27.2888 12.3C35.4888 7.69999 44.4388 5.39999 54.1388 5.39999C65.2388 5.39999 75.0889 8.14999 83.6889 13.65C92.3889 19.05 98.6889 26.75 102.589 36.75H82.0389C79.3389 31.25 75.5889 27.15 70.7889 24.45C65.9889 21.75 60.4388 20.4 54.1388 20.4C47.2388 20.4 41.0889 21.95 35.6889 25.05C30.2889 28.15 26.0389 32.6 22.9389 38.4C19.9389 44.2 18.4389 50.95 18.4389 58.65C18.4389 66.35 19.9389 73.1 22.9389 78.9C26.0389 84.7 30.2889 89.2 35.6889 92.4C41.0889 95.5 47.2388 97.05 54.1388 97.05C60.4388 97.05 65.9889 95.7 70.7889 93C75.5889 90.3 79.3389 86.2 82.0389 80.7H102.589C98.6889 90.7 92.3889 98.4 83.6889 103.8C75.0889 109.2 65.2388 111.9 54.1388 111.9C44.3388 111.9 35.3888 109.65 27.2888 105.15C19.1888 100.55 12.7389 94.2 7.93886 86.1C3.23886 78 0.888855 68.85 0.888855 58.65Z" fill="white"/>
<path d="M139.704 40.35C142.204 36.15 145.504 32.9 149.604 30.6C153.804 28.2 158.754 27 164.454 27V44.7H160.104C153.404 44.7 148.304 46.4 144.804 49.8C141.404 53.2 139.704 59.1 139.704 67.5V111H122.604V28.35H139.704V40.35Z" fill="white"/>
<path d="M216.023 112.35C208.223 112.35 201.173 110.6 194.873 107.1C188.573 103.5 183.623 98.5 180.023 92.1C176.423 85.6 174.623 78.1 174.623 69.6C174.623 61.2 176.473 53.75 180.173 47.25C183.873 40.75 188.923 35.75 195.323 32.25C201.723 28.75 208.873 27 216.773 27C224.673 27 231.823 28.75 238.223 32.25C244.623 35.75 249.673 40.75 253.373 47.25C257.073 53.75 258.923 61.2 258.923 69.6C258.923 78 257.023 85.45 253.223 91.95C249.423 98.45 244.223 103.5 237.623 107.1C231.123 110.6 223.923 112.35 216.023 112.35ZM216.023 97.5C220.423 97.5 224.523 96.45 228.323 94.35C232.223 92.25 235.373 89.1 237.773 84.9C240.173 80.7 241.373 75.6 241.373 69.6C241.373 63.6 240.223 58.55 237.923 54.45C235.623 50.25 232.573 47.1 228.773 45C224.973 42.9 220.873 41.85 216.473 41.85C212.073 41.85 207.973 42.9 204.173 45C200.473 47.1 197.523 50.25 195.323 54.45C193.123 58.55 192.023 63.6 192.023 69.6C192.023 78.5 194.273 85.4 198.773 90.3C203.373 95.1 209.123 97.5 216.023 97.5Z" fill="white"/>
<path d="M305.827 112.35C299.327 112.35 293.477 111.2 288.277 108.9C283.177 106.5 279.127 103.3 276.127 99.3C273.127 95.2 271.527 90.65 271.327 85.65H289.027C289.327 89.15 290.977 92.1 293.977 94.5C297.077 96.8 300.927 97.95 305.527 97.95C310.327 97.95 314.027 97.05 316.627 95.25C319.327 93.35 320.677 90.95 320.677 88.05C320.677 84.95 319.177 82.65 316.177 81.15C313.277 79.65 308.627 78 302.227 76.2C296.027 74.5 290.977 72.85 287.077 71.25C283.177 69.65 279.777 67.2 276.877 63.9C274.077 60.6 272.677 56.25 272.677 50.85C272.677 46.45 273.977 42.45 276.577 38.85C279.177 35.15 282.877 32.25 287.677 30.15C292.577 28.05 298.177 27 304.477 27C313.877 27 321.427 29.4 327.127 34.2C332.927 38.9 336.027 45.35 336.427 53.55H319.327C319.027 49.85 317.527 46.9 314.827 44.7C312.127 42.5 308.477 41.4 303.877 41.4C299.377 41.4 295.927 42.25 293.527 43.95C291.127 45.65 289.927 47.9 289.927 50.7C289.927 52.9 290.727 54.75 292.327 56.25C293.927 57.75 295.877 58.95 298.177 59.85C300.477 60.65 303.877 61.7 308.377 63C314.377 64.6 319.277 66.25 323.077 67.95C326.977 69.55 330.327 71.95 333.127 75.15C335.927 78.35 337.377 82.6 337.477 87.9C337.477 92.6 336.177 96.8 333.577 100.5C330.977 104.2 327.277 107.1 322.477 109.2C317.777 111.3 312.227 112.35 305.827 112.35Z" fill="white"/>
<path d="M385.954 112.35C379.454 112.35 373.604 111.2 368.404 108.9C363.304 106.5 359.254 103.3 356.254 99.3C353.254 95.2 351.654 90.65 351.454 85.65H369.154C369.454 89.15 371.104 92.1 374.104 94.5C377.204 96.8 381.054 97.95 385.654 97.95C390.454 97.95 394.154 97.05 396.754 95.25C399.454 93.35 400.804 90.95 400.804 88.05C400.804 84.95 399.304 82.65 396.304 81.15C393.404 79.65 388.754 78 382.354 76.2C376.154 74.5 371.104 72.85 367.204 71.25C363.304 69.65 359.904 67.2 357.004 63.9C354.204 60.6 352.804 56.25 352.804 50.85C352.804 46.45 354.104 42.45 356.704 38.85C359.304 35.15 363.004 32.25 367.804 30.15C372.704 28.05 378.304 27 384.604 27C394.004 27 401.554 29.4 407.254 34.2C413.054 38.9 416.154 45.35 416.554 53.55H399.454C399.154 49.85 397.654 46.9 394.954 44.7C392.254 42.5 388.604 41.4 384.004 41.4C379.504 41.4 376.054 42.25 373.654 43.95C371.254 45.65 370.054 47.9 370.054 50.7C370.054 52.9 370.854 54.75 372.454 56.25C374.054 57.75 376.004 58.95 378.304 59.85C380.604 60.65 384.004 61.7 388.504 63C394.504 64.6 399.404 66.25 403.204 67.95C407.104 69.55 410.454 71.95 413.254 75.15C416.054 78.35 417.504 82.6 417.604 87.9C417.604 92.6 416.304 96.8 413.704 100.5C411.104 104.2 407.404 107.1 402.604 109.2C397.904 111.3 392.354 112.35 385.954 112.35Z" fill="white"/>
<path d="M620.326 6.74999V20.7H592.576V111H575.476V20.7H547.576V6.74999H620.326Z" fill="white"/>
<path d="M631.944 69.3C631.944 61 633.644 53.65 637.044 47.25C640.544 40.85 645.244 35.9 651.144 32.4C657.144 28.8 663.744 27 670.944 27C677.444 27 683.094 28.3 687.894 30.9C692.794 33.4 696.694 36.55 699.594 40.35V28.35H716.844V111H699.594V98.7C696.694 102.6 692.744 105.85 687.744 108.45C682.744 111.05 677.044 112.35 670.644 112.35C663.544 112.35 657.044 110.55 651.144 106.95C645.244 103.25 640.544 98.15 637.044 91.65C633.644 85.05 631.944 77.6 631.944 69.3ZM699.594 69.6C699.594 63.9 698.394 58.95 695.994 54.75C693.694 50.55 690.644 47.35 686.844 45.15C683.044 42.95 678.944 41.85 674.544 41.85C670.144 41.85 666.044 42.95 662.244 45.15C658.444 47.25 655.344 50.4 652.944 54.6C650.644 58.7 649.494 63.6 649.494 69.3C649.494 75 650.644 80 652.944 84.3C655.344 88.6 658.444 91.9 662.244 94.2C666.144 96.4 670.244 97.5 674.544 97.5C678.944 97.5 683.044 96.4 686.844 94.2C690.644 92 693.694 88.8 695.994 84.6C698.394 80.3 699.594 75.3 699.594 69.6Z" fill="white"/>
<path d="M756.404 0V111H739.304V0H756.404Z" fill="white"/>
<path d="M811.554 69.75L849.655 111H826.554L795.954 75.45V111H778.854V0H795.954V64.5L825.954 28.35H849.655L811.554 69.75Z" fill="white"/>
<line x1="507.335" y1="43.0797" x2="462.08" y2="88.3345" stroke="white" stroke-width="2"/>
<line x1="505.921" y1="88.3344" x2="460.666" y2="43.0796" stroke="white" stroke-width="2"/>
</svg>
