<svg width="1716" height="352" viewBox="0 0 1716 352" fill="none" xmlns="http://www.w3.org/2000/svg">
<path fill-rule="evenodd" clip-rule="evenodd" d="M719.1 284.099C707.682 269.45 678.046 269.45 666.629 284.099C634.422 325.423 584.179 352 527.728 352C430.526 352 351.728 273.202 351.728 176C351.728 78.7979 430.526 0 527.728 0C584.179 0 634.422 26.5767 666.629 67.9005C678.046 82.5502 707.682 82.5502 719.1 67.9005C751.306 26.5767 801.549 0 858 0C914.451 0 964.694 26.5767 996.9 67.9005C1008.32 82.5502 1037.95 82.5501 1049.37 67.9005C1081.58 26.5767 1131.82 0 1188.27 0C1285.47 0 1364.27 78.7979 1364.27 176C1364.27 273.202 1285.47 352 1188.27 352C1131.82 352 1081.58 325.423 1049.37 284.099C1037.95 269.45 1008.32 269.45 996.9 284.099C964.694 325.423 914.451 352 858 352C801.549 352 751.306 325.423 719.1 284.099Z" fill="#3C4851"/>
<circle cx="176" cy="176" r="176" fill="#E73523"/>
<circle cx="1540" cy="176" r="176" fill="#E73523"/>
<path d="M428.812 143.184H438.568V144.948H428.812V143.184ZM428.812 138.612H438.568V140.412H428.812V138.612ZM424.852 135.552V148.044H442.708V135.552H424.852ZM423.088 149.7V153.192H444.544V149.7H423.088ZM431.62 151.608V164.496L435.688 166.26V151.608H431.62ZM428.308 157.98L425.716 158.844C428.02 166.476 432.196 167.772 438.028 167.772H444.328C444.472 166.656 444.976 164.856 445.516 163.956C443.932 164.028 439.432 164.028 438.208 164.028C433.78 164.028 430.108 163.344 428.308 157.98ZM434.572 156.36V159.744H442.6V156.36H434.572ZM425.248 154.272C424.708 159.204 423.196 163.2 420.208 165.612C421.108 166.188 422.728 167.484 423.376 168.168C426.544 165.252 428.38 160.608 429.136 154.74L425.248 154.272ZM410.992 152.688L411.928 156.864C415.168 155.964 419.236 154.776 423.016 153.624L422.44 149.736C418.3 150.888 413.944 152.076 410.992 152.688ZM411.352 141.276V145.236H422.8V141.276H411.352ZM415.24 134.472V163.164C415.24 163.668 415.096 163.812 414.664 163.812C414.232 163.812 412.972 163.812 411.676 163.776C412.18 164.928 412.684 166.692 412.792 167.772C415.096 167.772 416.68 167.628 417.76 166.944C418.876 166.296 419.2 165.18 419.2 163.2V134.472H415.24ZM456.208 139.692V149.664C456.208 155.208 455.344 161.076 448.036 164.964C449.044 165.684 450.556 167.268 451.204 168.276C459.484 163.704 460.564 156.504 460.564 149.736V139.692H456.208ZM469.708 134.976V168.204H474.1V134.976H469.708ZM448.396 148.692V152.832H481.444V148.692H448.396ZM464.092 134.616C460.276 136.848 454.264 138.936 448.648 140.232C449.224 141.168 449.908 142.752 450.124 143.796C455.884 142.5 462.328 140.664 467.152 138.252L464.092 134.616ZM499.696 136.488V140.592H517.3V136.488H499.696ZM508.84 147.684V163.128C508.84 163.668 508.624 163.812 507.94 163.848C507.292 163.848 504.916 163.848 502.864 163.74C503.44 165 504.016 166.872 504.16 168.132C507.4 168.132 509.668 168.096 511.216 167.448C512.8 166.764 513.268 165.54 513.268 163.236V147.684H508.84ZM498.148 146.46V150.564H518.236V146.46H498.148ZM490.084 150.708V168.276H494.404V147.144L493.864 146.928L490.084 150.708ZM494.152 142.284C491.776 146.352 487.852 150.528 484.18 153.12C485.044 153.984 486.52 155.928 487.132 156.828C490.984 153.66 495.412 148.62 498.256 143.832L494.152 142.284ZM492.784 134.436C491.02 136.956 487.564 140.196 484.576 142.14C485.296 143.004 486.412 144.696 486.988 145.668C490.408 143.292 494.296 139.548 496.924 136.128L492.784 134.436ZM522.448 157.728V160.788H539.26V157.728H522.448ZM521.62 140.592V143.724H539.62V140.592H521.62ZM528.784 138.036V163.848H532.672V138.036H528.784ZM521.44 163.452L521.944 167.052C526.624 166.62 533.176 165.972 539.296 165.324L539.26 162.048C532.78 162.624 525.904 163.128 521.44 163.452ZM526.012 151.968H535.516V153.624H526.012V151.968ZM526.012 147.828H535.516V149.448H526.012V147.828ZM522.556 145.128V156.324H539.08V145.128H522.556ZM537.316 134.616C533.356 135.48 527.092 136.128 521.728 136.38C522.124 137.208 522.52 138.576 522.664 139.44C528.064 139.332 534.616 138.792 539.224 137.856L537.316 134.616ZM539.62 142.572V146.532H552.076V142.572H539.62ZM550.348 142.572V143.508C550.06 157.44 549.772 162.516 548.944 163.596C548.62 164.1 548.26 164.208 547.72 164.208C547 164.208 545.632 164.208 544.084 164.064C544.768 165.216 545.236 166.98 545.344 168.168C547.036 168.24 548.728 168.24 549.844 168.024C551.032 167.808 551.86 167.412 552.652 166.188C553.84 164.568 554.128 159.312 554.452 144.48C554.452 143.976 554.488 142.572 554.488 142.572H550.348ZM543.076 135.048C543.04 149.412 543.436 159.492 535.84 165.288C536.812 166.008 538.216 167.484 538.828 168.528C547.144 161.976 547.18 150.42 547.216 135.048H543.076ZM574.396 149.916V152.832H591.676V149.916H574.396ZM573.604 164.784V167.808H592.036V164.784H573.604ZM579.148 134.436V139.368H582.172V134.436H579.148ZM583.72 134.436V139.368H586.744V134.436H583.72ZM579.112 156.468H586.816V158.484H579.112V156.468ZM575.656 153.948V161.004H590.452V153.948H575.656ZM578.284 144.336H587.644V145.956H578.284V144.336ZM578.284 140.16H587.644V141.78H578.284V140.16ZM575.152 137.46V148.692H590.956V137.46H575.152ZM576.916 161.796C577.708 163.092 578.356 164.892 578.572 166.044L581.668 164.856C581.416 163.668 580.696 161.976 579.832 160.752L576.916 161.796ZM585.664 160.68C585.304 161.94 584.584 163.776 583.972 165.036L586.672 165.864C587.356 164.748 588.292 163.128 589.228 161.508L585.664 160.68ZM563.02 154.704V157.548H570.904V154.704H563.02ZM563.02 159.168V162.084H570.904V159.168H563.02ZM560.968 150.24V168.276H564.568V153.12H570.688V150.24H560.968ZM568.456 150.24V164.568C568.456 164.892 568.348 165 568.024 165C567.736 165 566.872 165 566.044 164.964C566.476 165.864 566.908 167.268 567.016 168.24C568.744 168.24 569.968 168.204 570.904 167.628C571.876 167.088 572.092 166.188 572.092 164.64V150.24H568.456ZM560.86 135.552V147.18H563.956V138.612H568.996V147.18H572.236V135.552H560.86ZM558.772 145.848V151.5H561.868V148.764H571.192V151.5H574.432V145.848H558.772ZM565.18 140.088V146.82H567.52V142.5H571.156V140.088H565.18ZM579.832 138.684V147.36H582.172V138.684H579.832ZM583.72 138.684V147.36H586.06V138.684H583.72ZM614.068 143.004V146.172H623.572V143.004H614.068ZM613.204 150.456H615.256V153.876H613.204V150.456ZM610.432 147.756V156.576H618.208V147.756H610.432ZM622.312 150.456H624.58V153.876H622.312V150.456ZM619.504 147.756V156.576H627.568V147.756H619.504ZM612.772 157.224C612.448 161.076 611.332 164.1 608.524 165.9C609.316 166.44 610.612 167.736 611.08 168.384C614.32 166.044 615.832 162.372 616.336 157.404L612.772 157.224ZM612.916 162.516C614.248 163.92 615.94 165.864 616.696 167.16L619 164.676C618.244 163.488 616.48 161.688 615.148 160.356L612.916 162.516ZM621.736 157.188C621.376 161.04 620.224 164.028 617.452 165.828C618.244 166.404 619.576 167.7 620.044 168.348C623.284 166.008 624.832 162.336 625.336 157.368L621.736 157.188ZM621.628 162.66C623.248 164.388 625.228 166.728 626.128 168.24L628.864 166.152C627.892 164.712 625.84 162.408 624.22 160.824L621.628 162.66ZM618.676 138.288C620.476 141.24 623.824 144.588 626.992 146.388C627.532 145.2 628.396 143.616 629.188 142.572C625.876 141.096 622.636 137.856 620.476 134.508H616.624C615.076 137.532 611.872 141.132 608.452 142.896C609.136 143.832 610 145.416 610.396 146.496C613.78 144.552 616.984 141.168 618.676 138.288ZM598.48 141.312V144.516H608.308V141.312H598.48ZM598.48 146.712V149.88H608.416V146.712H598.48ZM596.356 152.148V155.424H607.372V152.148H596.356ZM601.936 137.784V154.02H605.212V137.784H601.936ZM603.196 157.224C603.88 158.7 604.528 160.608 604.744 161.904L606.436 161.292C606.184 160.032 605.5 158.124 604.78 156.72L603.196 157.224ZM601 157.548C601.54 159.384 601.936 161.832 602.008 163.416L603.844 163.056C603.772 161.508 603.304 159.096 602.728 157.224L601 157.548ZM598.768 157.8C599.02 159.924 599.092 162.624 598.948 164.46L600.928 164.208C601 162.444 600.928 159.744 600.604 157.584L598.768 157.8ZM596.104 157.044C595.996 160.14 595.636 163.236 594.448 165.108L596.644 166.26C597.976 164.172 598.3 160.788 598.444 157.476L596.104 157.044ZM596.356 135.732V154.056H599.74V139.116H608.956V135.732H596.356ZM605.968 152.148V152.76C605.788 161.22 605.608 164.136 605.14 164.784C604.888 165.18 604.636 165.252 604.24 165.252C603.808 165.252 603.052 165.252 602.116 165.108C602.548 166.008 602.872 167.376 602.944 168.348C604.132 168.384 605.32 168.348 606.04 168.24C606.904 168.096 607.516 167.808 608.092 166.98C608.884 165.9 609.1 162.516 609.316 153.552C609.352 153.084 609.352 152.148 609.352 152.148H605.968Z" fill="#FFFDF5"/>
<path d="M749.044 137.892C751.528 138.648 754.948 139.944 756.604 140.844L758.548 137.568C756.748 136.704 753.328 135.552 750.916 134.976L749.044 137.892ZM747.46 144.012L749.08 147.756C751.78 147 755.092 146.028 758.224 145.092L757.828 141.708C754.012 142.572 750.124 143.508 747.46 144.012ZM763.408 136.848L760.996 139.872H777.232V136.848H763.408ZM776.224 136.848V137.316C775.612 138.864 774.532 140.736 773.56 141.888L776.908 142.896C778.096 141.564 779.392 139.404 780.328 137.424L777.484 136.704L776.836 136.848H776.224ZM767.08 138.108C766.54 141.744 765.136 143.832 758.188 144.912C758.908 145.668 759.808 147.108 760.168 147.972C768.232 146.352 770.248 143.256 770.968 138.108H767.08ZM770.716 139.044L767.26 139.368C768.196 143.184 769.96 147.108 778.96 148.548C779.356 147.468 780.292 145.848 781.084 144.984C772.912 144.048 771.328 141.708 770.716 139.044ZM763.3 134.436C762.328 136.524 760.564 138.936 757.936 140.736C758.944 141.132 760.42 142.032 761.176 142.788C763.912 140.556 765.676 137.928 767.08 135.048L763.3 134.436ZM756.532 154.02H772.192V155.568H756.532V154.02ZM756.532 158.016H772.192V159.6H756.532V158.016ZM756.532 150.06H772.192V151.572H756.532V150.06ZM752.356 147.468V162.156H776.548V147.468H752.356ZM766.216 164.028C769.852 165.396 773.56 167.124 775.576 168.348L780.616 166.404C778.06 165.144 773.596 163.344 769.816 161.976L766.216 164.028ZM758.224 161.868C755.776 163.236 751.492 164.496 747.676 165.216C748.648 165.936 750.124 167.52 750.88 168.384C754.552 167.34 759.232 165.54 762.184 163.632L758.224 161.868ZM798.04 135.84V139.944H812.008V135.84H798.04ZM797.644 147.936V151.968H809.056V147.936H797.644ZM801.568 138.576V147.648C801.568 153.408 801.028 160.14 795.88 165.216C796.888 165.864 798.364 167.34 799.048 168.276C805.024 162.444 805.672 154.524 805.672 147.684V138.576H801.568ZM809.776 135.84C809.812 151.14 809.524 166.332 813.844 167.952C816.148 168.96 818.056 167.736 818.632 162.084C818.02 161.436 816.94 159.708 816.256 158.592C816.184 161.076 815.932 163.596 815.716 163.524C813.988 163.02 813.844 148.116 814.204 135.84H809.776ZM785.692 145.488V148.728H796.564V145.488H785.692ZM785.8 135.552V138.828H796.456V135.552H785.8ZM785.692 150.384V153.66H796.564V150.384H785.692ZM783.964 140.412V143.832H797.752V140.412H783.964ZM787.564 155.388V158.808H792.928V162.912H787.564V166.332H796.6V155.388H787.564ZM785.62 155.388V167.772H789.256V155.388H785.62ZM821.44 153.84V157.62H853.66V153.84H821.44ZM835.3 151.248V168.312H839.836V151.248H835.3ZM834.148 156.288C831.34 159.672 825.904 162.768 820.684 164.244C821.584 165.108 822.88 166.728 823.492 167.772C828.856 165.828 834.256 162.048 837.496 157.692L834.148 156.288ZM840.952 156.144L837.496 157.656C840.808 161.904 846.28 165.576 851.68 167.412C852.328 166.332 853.624 164.676 854.56 163.812C849.232 162.408 843.76 159.456 840.952 156.144ZM821.476 138V141.744H835.48V138H821.476ZM833.716 138V138.612C833.5 144.48 833.248 146.64 832.744 147.216C832.456 147.54 832.168 147.612 831.7 147.612C831.16 147.612 830.08 147.576 828.856 147.468C829.468 148.476 829.9 150.096 829.972 151.248C831.52 151.32 832.996 151.284 833.824 151.14C834.832 150.996 835.588 150.708 836.308 149.88C837.136 148.8 837.46 145.992 837.748 139.548C837.784 139.044 837.82 138 837.82 138H833.716ZM826.372 134.436C826.192 141.528 825.796 146.388 820.576 149.268C821.512 149.988 822.664 151.536 823.168 152.544C829.36 149.016 830.224 142.86 830.512 134.436H826.372ZM843.436 140.88H848.548V146.64H843.436V140.88ZM839.404 137.172V150.348H852.868V137.172H839.404ZM871.48 141.528V144.408H889.912V141.528H871.48ZM869.968 145.956V149.016H891.136V145.956H869.968ZM869.356 159.384V162.552H891.532V159.384H869.356ZM873.604 154.884V157.692H887.356V154.884H873.604ZM870.724 137.064V140.052H890.488V137.064H870.724ZM874.432 134.436V147.324H878.428V134.436H874.432ZM878.464 147.684V160.752H882.352V147.684H878.464ZM882.388 134.436V147.288H886.42V134.436H882.388ZM871.48 150.348V167.988H875.404V153.336H887.14V150.348H871.48ZM885.556 150.348V164.064C885.556 164.496 885.412 164.604 884.944 164.64C884.512 164.64 883 164.676 881.668 164.604C882.136 165.54 882.64 166.98 882.784 167.988C885.088 167.988 886.78 167.952 888.004 167.412C889.192 166.836 889.552 165.9 889.552 164.136V150.348H885.556ZM857.944 141.888V145.884H869.86V141.888H857.944ZM862.336 134.436V168.24H866.26V134.436H862.336ZM862.264 144.624C861.436 149.196 859.42 154.848 857.116 157.98C857.728 158.988 858.664 160.644 859.024 161.796C861.58 158.088 863.632 151.14 864.676 145.452L862.264 144.624ZM866.08 147.324L864.28 149.088C865.288 150.852 867.448 155.064 868.276 157.26L870.508 154.164C869.896 153.084 866.908 148.368 866.08 147.324ZM904.96 135.876V138.972H927.136V135.876H904.96ZM909.208 143.4V145.164H922.78V143.4H909.208ZM909.208 146.28V148.044H922.78V146.28H909.208ZM907.012 140.232V150.24H910.864V142.356H920.872V150.24H924.904V140.232H907.012ZM903.736 149.196V154.344H907.372V151.608H924.112V154.344H927.964V149.196H903.736ZM908.272 152.22C907.408 153.48 906.004 154.92 904.564 155.712L907.12 157.8C908.632 156.72 910 155.1 910.972 153.696L908.272 152.22ZM910.54 152.184V154.02C910.54 156.504 911.368 157.152 914.608 157.152C915.328 157.152 918.064 157.152 918.784 157.152C920.908 157.152 921.736 156.576 922.024 154.488C921.196 154.344 919.936 153.984 919.324 153.66C919.18 154.668 919 154.884 918.316 154.884C917.704 154.884 915.544 154.884 915.112 154.884C914.14 154.884 913.96 154.776 913.96 154.02V152.184H910.54ZM913.384 151.5C914.608 152.364 915.976 153.66 916.588 154.632L919.18 153.084C918.532 152.112 917.092 150.888 915.832 150.06L913.384 151.5ZM920.692 153.444C922.06 154.704 923.644 156.504 924.328 157.692L927.1 156.216C926.38 154.956 924.688 153.264 923.32 152.076L920.692 153.444ZM912.232 156.108C910.504 157.872 907.408 159.636 903.16 160.86C903.916 161.4 905.032 162.624 905.536 163.488C910.144 161.724 913.456 159.672 916.012 156.936L912.232 156.108ZM921.196 158.232V158.844C919.108 162.048 912.592 164.352 903.232 165.288C903.952 166.116 904.852 167.448 905.248 168.384C915.184 167.052 922.204 164.244 925.3 159.492L922.708 158.088L921.988 158.232H921.196ZM911.008 159.528L907.588 160.68C911.404 165.252 917.884 167.52 926.128 168.312C926.596 167.268 927.604 165.72 928.396 164.892C920.62 164.46 914.068 162.84 911.008 159.528ZM911.548 158.232L909.136 160.644H922.204V158.232H911.548ZM913.528 137.316C913.42 138.396 913.06 139.944 912.772 141.132L916.48 141.744C916.948 140.736 917.56 139.368 918.208 137.82L913.528 137.316ZM900.604 134.508C899.056 139.764 896.392 145.056 893.476 148.44C894.16 149.592 895.204 152.04 895.564 153.12C899.236 148.8 902.548 141.96 904.6 135.66L900.604 134.508ZM897.76 144.372V168.204H901.864V140.484L901.756 140.412L897.76 144.372ZM946.972 135.372V161.256C946.972 166.368 948.304 167.808 952.84 167.808C953.812 167.808 957.988 167.808 959.032 167.808C963.28 167.808 964.432 165.504 964.972 159.276C963.748 159.024 961.984 158.232 960.94 157.476C960.688 162.552 960.4 163.812 958.636 163.812C957.772 163.812 954.172 163.812 953.38 163.812C951.616 163.812 951.364 163.452 951.364 161.292V135.372H946.972ZM960.472 141.384C957.268 144.12 952.48 147.36 948.016 149.484C948.628 150.42 949.456 151.932 949.744 152.94C954.424 150.744 959.572 148.044 963.64 145.164L960.472 141.384ZM940.024 134.904C937.792 140.34 934.012 145.668 930.124 149.016C930.916 150.096 932.176 152.472 932.608 153.588C937.144 149.412 941.572 142.752 944.272 136.344L940.024 134.904ZM936.208 145.056V168.168H940.528V140.88L940.456 140.808L936.208 145.056Z" fill="#FFFDF5"/>
<path d="M1089.43 141.456V144.768H1112.98V141.456H1089.43ZM1091.52 151.14V154.236H1110.56V151.14H1091.52ZM1089.94 155.892V159.312H1112.18V155.892H1089.94ZM1098.54 134.724V162.228H1102.75V134.724H1098.54ZM1091.92 136.74V140.016H1106.03V146.28H1091.74V149.556H1110.28V136.74H1091.92ZM1079.35 136.416V140.196H1086.95V136.416H1079.35ZM1085.47 136.416V136.884C1084.21 140.052 1081.62 145.992 1079.42 150.42L1083.35 151.428C1085.44 146.928 1087.96 141.312 1089.58 137.064L1086.66 136.272L1086.01 136.416H1085.47ZM1083.02 146.604L1082.88 150.384H1088.28V146.604H1083.02ZM1086.55 146.604V147.396C1085.87 156.54 1083.49 162.372 1079.03 165.468C1079.96 166.008 1081.62 167.556 1082.27 168.384C1086.95 164.856 1089.72 157.944 1090.62 147.072L1088.1 146.532L1087.38 146.604H1086.55ZM1083.24 152.436L1079.86 153.624C1083.6 165.252 1090.69 167.376 1101.13 167.376H1111.75C1112 166.116 1112.76 164.136 1113.41 163.164C1110.78 163.272 1103.44 163.272 1101.24 163.272C1092.74 163.236 1086.16 161.76 1083.24 152.436ZM1117.73 140.736V144.984H1148.26V140.736H1117.73ZM1116.54 162.516V166.836H1149.34V162.516H1116.54ZM1130.58 134.436V143.112H1135.12V134.436H1130.58ZM1138.72 146.244C1137.89 151.572 1136.12 158.556 1134.43 162.948L1138.64 163.884C1140.34 159.636 1142.28 153.048 1143.68 147.108L1138.72 146.244ZM1122.37 147.432C1123.92 151.824 1125.22 157.656 1125.47 161.4L1129.9 160.212C1129.54 156.396 1128.2 150.816 1126.48 146.352L1122.37 147.432ZM1169.06 135.48V139.764C1169.06 142.212 1168.7 145.092 1165.43 147.252C1166.29 147.792 1168.02 149.232 1168.63 150.024C1172.41 147.432 1173.17 143.256 1173.17 139.872V135.48H1169.06ZM1177.16 135.48V143.616C1177.16 147.216 1178.03 148.332 1180.91 148.332C1181.48 148.332 1182.46 148.332 1183.03 148.332C1185.41 148.332 1186.42 147.072 1186.78 142.572C1185.7 142.32 1184 141.672 1183.25 141.06C1183.18 144.192 1183.03 144.66 1182.6 144.66C1182.38 144.66 1181.84 144.66 1181.66 144.66C1181.27 144.66 1181.23 144.552 1181.23 143.544V135.48H1177.16ZM1172.48 153.84L1168.67 155.064C1171.76 161.508 1176.84 166.08 1184.04 168.204C1184.62 167.124 1185.88 165.36 1186.85 164.496C1180.08 162.84 1174.93 158.952 1172.48 153.84ZM1180.55 149.952V150.6C1178.68 157.908 1172.95 162.588 1165.46 164.424C1166.26 165.324 1167.34 167.124 1167.77 168.204C1176.19 165.648 1182.42 160.464 1184.9 150.816L1182.1 149.808L1181.34 149.952H1180.55ZM1167.34 149.952V153.84H1182.24V149.952H1167.34ZM1170.72 135.48V139.26H1179.36V135.48H1170.72ZM1154.45 145.488V148.728H1165.57V145.488H1154.45ZM1154.56 135.552V138.828H1165.5V135.552H1154.56ZM1154.45 150.384V153.66H1165.57V150.384H1154.45ZM1152.68 140.412V143.832H1166.87V140.412H1152.68ZM1156.43 155.388V158.808H1161.83V162.912H1156.43V166.332H1165.54V155.388H1156.43ZM1154.34 155.388V167.772H1157.98V155.388H1154.34ZM1204.06 146.532V150.816H1223.57V146.532H1204.06ZM1211.65 134.58V168.24H1216.04V134.58H1211.65ZM1191.17 145.488V148.728H1202.8V145.488H1191.17ZM1191.38 135.552V138.828H1202.87V135.552H1191.38ZM1191.17 150.384V153.66H1202.8V150.384H1191.17ZM1189.4 140.412V143.832H1204.24V140.412H1189.4ZM1193.15 155.388V158.808H1198.91V162.912H1193.15V166.332H1202.69V155.388H1193.15ZM1191.06 155.388V167.772H1194.8V155.388H1191.06ZM1233.9 158.448C1232.06 160.788 1228.9 163.272 1225.94 164.784C1227.1 165.468 1228.97 166.908 1229.87 167.772C1232.68 165.936 1236.17 162.948 1238.4 160.14L1233.9 158.448ZM1247.33 160.716C1250.28 162.732 1253.99 165.72 1255.64 167.664L1259.57 164.892C1257.66 162.912 1253.81 160.104 1250.96 158.268L1247.33 160.716ZM1229.36 145.884C1232.46 147.756 1236.28 150.636 1238.04 152.652L1241.28 149.52C1239.34 147.504 1235.34 144.804 1232.35 143.112L1229.36 145.884ZM1248.08 150.348C1251.04 152.976 1254.67 156.72 1256.26 159.168L1260.14 156.612C1258.34 154.128 1254.56 150.564 1251.61 148.116L1248.08 150.348ZM1240.67 155.244V168.24H1245.28V155.244H1240.67ZM1226.7 153.264L1227.13 157.584C1234.48 157.404 1245.46 157.08 1255.68 156.612L1255.9 152.724C1245.53 152.94 1234.01 153.192 1226.7 153.264ZM1248.19 140.736C1244.38 145.164 1238.15 150.6 1233.22 153.876L1236.64 156.108C1241.5 152.868 1247.72 147.756 1252.4 142.968L1248.19 140.736ZM1239.08 138.252C1237.5 140.664 1234.76 143.724 1232.64 145.596L1236.17 147.504C1238.29 145.74 1241.06 142.932 1243.33 140.304L1239.08 138.252ZM1254.13 134.76C1247.69 136.092 1237.1 136.812 1227.82 136.992C1228.21 138 1228.72 139.764 1228.82 140.88C1238.18 140.772 1249.2 140.052 1257.19 138.432L1254.13 134.76ZM1283.72 134.436V140.376H1288.12V134.436H1283.72ZM1281.6 141.132C1281.06 143.472 1279.91 146.676 1278.94 148.728L1282.5 149.88C1283.58 148.008 1284.91 145.056 1286.1 142.356L1281.6 141.132ZM1288.15 144.624C1290.2 147.252 1292.44 150.816 1293.34 153.084L1296.94 151.104C1295.93 148.8 1293.52 145.38 1291.46 142.896L1288.15 144.624ZM1276.34 138.648V142.5H1296.18V138.648H1276.34ZM1276.56 147.792L1276.92 151.68C1281.24 151.356 1287.22 150.888 1292.83 150.384V146.676C1286.96 147.144 1280.7 147.576 1276.56 147.792ZM1287 152.688V163.056C1287 166.764 1287.68 168.024 1290.85 168.024C1291.46 168.024 1292.65 168.024 1293.26 168.024C1295.86 168.024 1296.83 166.584 1297.19 161.364C1296.11 161.076 1294.38 160.428 1293.59 159.744C1293.48 163.632 1293.37 164.208 1292.83 164.208C1292.58 164.208 1291.82 164.208 1291.61 164.208C1291.1 164.208 1291.03 164.1 1291.03 163.056V152.688H1287ZM1268.28 134.472C1267.45 136.992 1265.9 140.448 1264.61 142.572L1267.49 143.832C1268.89 141.816 1270.55 138.612 1272.02 135.876L1268.28 134.472ZM1272.42 138.72C1270.55 142.608 1267.24 147.9 1264.57 151.176L1267.06 152.58C1269.79 149.448 1273.32 144.444 1275.91 140.304L1272.42 138.72ZM1262.74 143.004C1264.57 144.732 1266.77 147.252 1267.63 148.98L1269.86 145.632C1268.93 143.976 1266.7 141.708 1264.79 140.052L1262.74 143.004ZM1271.34 147.324C1272.71 149.808 1273.93 153.084 1274.33 155.172L1277.39 153.804C1276.96 151.716 1275.59 148.548 1274.18 146.136L1271.34 147.324ZM1262.7 150.312L1263.06 154.092C1266.55 153.84 1271.16 153.552 1275.59 153.228L1275.62 149.808C1270.87 150.024 1266.01 150.204 1262.7 150.312ZM1272.13 156.288C1272.92 158.412 1273.86 161.184 1274.22 162.984L1277.39 161.868C1276.99 160.068 1276.06 157.368 1275.16 155.316L1272.13 156.288ZM1264.25 155.604C1263.96 158.664 1263.38 161.868 1262.34 163.992C1263.24 164.352 1264.86 165.108 1265.62 165.576C1266.66 163.272 1267.45 159.672 1267.81 156.216L1264.25 155.604ZM1268.28 152.22V168.276H1272.06V152.22H1268.28ZM1280.34 152.688C1280.12 158.952 1279.66 162.84 1274.18 165.108C1275.08 165.864 1276.16 167.34 1276.63 168.348C1283.18 165.468 1284.16 160.356 1284.44 152.688H1280.34Z" fill="#FFFDF5"/>
<path d="M423.04 205.74V206.98H440.98V205.74H423.04ZM423.14 192.76V194H440.86V192.76H423.14ZM424.52 202.82V204.02H439.7V202.82H424.52ZM431.16 190.74V206.34H432.66V190.74H431.16ZM438.12 189.32C434.96 189.9 429.3 190.26 424.64 190.38C424.78 190.7 424.96 191.22 424.96 191.58C429.64 191.48 435.34 191.14 438.92 190.48L438.12 189.32ZM426.62 198.8H437.44V200.34H426.62V198.8ZM426.62 196.28H437.44V197.8H426.62V196.28ZM425.16 195.2V201.42H438.96V195.2H425.16ZM453.74 195.96V197.36H461.18V195.96H453.74ZM443.22 191.3V192.58H452.04V191.3H443.22ZM443 199.24V200.54H452.14V199.24H443ZM442.94 195.88V197.16H452.28V195.88H442.94ZM457.46 196.52V207.5H458.92V196.52H457.46ZM446.92 189.28V191.96H448.38V189.28H446.92ZM446.92 196.92V207.58H448.38V196.92H446.92ZM453.02 190.84V197.84C453.02 200.68 452.74 204.14 450.18 206.66C450.54 206.86 451.08 207.36 451.26 207.7C454.08 204.92 454.44 200.86 454.44 197.86V191.68C454.72 191.64 454.84 191.56 454.86 191.4L453.02 190.84ZM459.72 189.44C458.26 190.16 455.62 190.86 453.38 191.34C453.56 191.64 453.76 192.16 453.84 192.48C456.24 192.06 459.04 191.38 460.92 190.54L459.72 189.44ZM448.24 200.92L447.42 201.6C448.16 202.22 450.04 203.98 450.68 204.72L451.56 203.6C451.06 203.14 448.88 201.36 448.24 200.92ZM444.42 192.94C444.82 193.86 445.14 195.06 445.2 195.84L446.46 195.5C446.36 194.74 446.02 193.56 445.6 192.68L444.42 192.94ZM449.54 192.64C449.32 193.48 448.9 194.72 448.54 195.52L449.74 195.8C450.1 195.06 450.52 193.94 450.9 192.94L449.54 192.64ZM446.94 199.9C445.98 201.86 444.16 204.02 442.54 205.08C442.88 205.32 443.32 205.8 443.56 206.14C445.16 204.9 447 202.54 448.02 200.32L446.94 199.9ZM468.26 193.44V194.66H481.2V193.44H468.26ZM469.44 198.84V199.98H479.88V198.84H469.44ZM468.54 201.58V202.82H480.76V201.58H468.54ZM473.8 189.36V204.94H475.26V189.36H473.8ZM469.7 190.82V192.02H478.22V196.14H469.56V197.34H479.7V190.82H469.7ZM462.82 190.48V191.82H467.14V190.48H462.82ZM466.6 190.48V190.66C465.86 192.34 464.32 195.58 463.08 197.92L464.44 198.3C465.66 195.92 467.16 192.82 468.08 190.72L467.06 190.4L466.82 190.48H466.6ZM464.64 196.18L464.46 197.52H467.92V196.18H464.64ZM467.3 196.18V196.48C466.8 201.64 465.2 204.9 462.66 206.6C463 206.8 463.56 207.34 463.8 207.64C466.4 205.76 468.14 202.18 468.74 196.36L467.88 196.14L467.6 196.18H467.3ZM464.7 199.12L463.5 199.58C465.44 205.86 469.3 207.08 475.08 207.08H480.72C480.82 206.64 481.1 205.96 481.34 205.62C480.28 205.64 475.96 205.64 475.12 205.64C470.04 205.64 466.32 204.64 464.7 199.12ZM490.32 193.28V194.38H500.48V193.28H490.32ZM489.46 195.76V196.9H501.18V195.76H489.46ZM489.12 203.14V204.32H501.42V203.14H489.12ZM491.22 200.6V201.68H499.28V200.6H491.22ZM489.94 190.86V191.98H500.78V190.86H489.94ZM492.24 189.2V196.32H493.64V189.2H492.24ZM494.52 196.46V203.66H495.9V196.46H494.52ZM496.86 189.2V196.26H498.28V189.2H496.86ZM490.46 198.1V207.56H491.86V199.22H499.28V198.1H490.46ZM498.72 198.1V206C498.72 206.24 498.64 206.32 498.38 206.34C498.12 206.34 497.24 206.36 496.26 206.32C496.44 206.68 496.64 207.2 496.7 207.54C498.02 207.54 498.9 207.54 499.44 207.32C499.96 207.12 500.12 206.74 500.12 206.02V198.1H498.72ZM483.02 193.54V194.96H489.52V193.54H483.02ZM485.84 189.2V207.58H487.22V189.2H485.84ZM485.8 194.38C485.24 197.24 483.94 200.72 482.62 202.52C482.86 202.84 483.22 203.42 483.38 203.8C484.78 201.8 486.1 197.86 486.72 194.7L485.8 194.38ZM487.12 196.2L486.44 196.84C486.96 197.64 488.34 199.98 488.78 200.98L489.62 199.86C489.26 199.28 487.58 196.76 487.12 196.2ZM503.92 190.68C505.32 191.12 507.18 191.84 508.12 192.36L508.78 191.2C507.82 190.7 505.96 190.02 504.58 189.66L503.92 190.68ZM502.92 194.9L503.5 196.22C505.02 195.76 506.9 195.14 508.72 194.56L508.56 193.38C506.48 193.96 504.36 194.56 502.92 194.9ZM511.5 190.68L510.62 191.82H519.54V190.68H511.5ZM519.14 190.68V190.9C518.74 191.74 518.06 192.74 517.42 193.36L518.62 193.78C519.34 193.08 520.08 191.96 520.64 190.92L519.64 190.62L519.38 190.68H519.14ZM513.98 191.08C513.64 193.36 512.56 194.6 508.86 195.22C509.12 195.48 509.44 195.98 509.58 196.3C513.66 195.48 514.94 193.92 515.36 191.08H513.98ZM515.3 191.44L514.08 191.56C514.6 193.66 515.6 195.82 520.34 196.64C520.5 196.26 520.84 195.72 521.12 195.42C516.68 194.78 515.7 193.14 515.3 191.44ZM511.82 189.2C511.3 190.4 510.28 191.78 508.78 192.8C509.14 192.96 509.66 193.28 509.92 193.56C511.48 192.36 512.5 190.88 513.18 189.42L511.82 189.2ZM507.06 199.66H517.14V201.02H507.06V199.66ZM507.06 202H517.14V203.4H507.06V202ZM507.06 197.32H517.14V198.68H507.06V197.32ZM505.6 196.32V204.4H518.64V196.32H505.6ZM513.66 205.42C515.84 206.14 518.02 207 519.28 207.66L520.94 206.9C519.5 206.22 517.08 205.34 514.88 204.66L513.66 205.42ZM508.96 204.62C507.52 205.4 505.12 206.1 503.06 206.54C503.4 206.8 503.92 207.38 504.16 207.68C506.16 207.12 508.7 206.2 510.32 205.24L508.96 204.62ZM530.46 190.22V191.66H538.4V190.22H530.46ZM530.26 197.04V198.46H536.96V197.04H530.26ZM532.98 191.04V195.88C532.98 199.4 532.68 203.44 529.48 206.62C529.84 206.84 530.36 207.34 530.6 207.66C534.06 204.22 534.42 199.8 534.42 195.88V191.04H532.98ZM537.64 190.22C537.66 199.46 537.46 206.78 539.82 207.52C540.84 207.92 541.5 207.22 541.74 203.9C541.5 203.7 541.08 203.2 540.8 202.84C540.74 204.52 540.58 206 540.42 205.96C539.02 205.64 539.08 198.74 539.18 190.22H537.64ZM523.7 195.26V196.46H529.56V195.26H523.7ZM523.76 189.92V191.12H529.48V189.92H523.76ZM523.7 197.94V199.14H529.56V197.94H523.7ZM522.76 192.54V193.78H530.22V192.54H522.76ZM524.36 200.64V201.88H528.24V205.22H524.36V206.48H529.56V200.64H524.36ZM523.68 200.64V207.4H524.98V200.64H523.68ZM550.02 197.06V205.1H551.42V198.42H559.42V197.06H550.02ZM558.9 197.06V203.24C558.9 203.46 558.84 203.52 558.6 203.54C558.36 203.54 557.62 203.54 556.72 203.52C556.92 203.92 557.1 204.48 557.14 204.86C558.36 204.86 559.18 204.86 559.7 204.62C560.22 204.4 560.34 203.98 560.34 203.26V197.06H558.9ZM547.86 192.3V193.68H561.22V192.3H547.86ZM554.32 194.48V207.6H555.78V194.48H554.32ZM552.88 189.14C551.78 193.44 549.82 197.14 546.96 199.42C547.28 199.7 547.82 200.32 548.02 200.62C550.98 198.06 553.08 194.1 554.32 189.42L552.88 189.14ZM547.28 189.28C546.16 192.32 544.28 195.32 542.3 197.26C542.58 197.6 543 198.4 543.16 198.74C545.32 196.5 547.38 193.12 548.7 189.72L547.28 189.28ZM545.2 194.44V207.58H546.64V193.04L546.6 193.02L545.2 194.44ZM565.94 190.26V191.56H577.36V194.1H565.94V195.4H578.86V190.26H565.94ZM565.04 190.26V195.04C565.04 198.28 564.82 202.88 562.54 206.14C562.88 206.3 563.52 206.8 563.76 207.1C566.16 203.64 566.52 198.5 566.52 195.04V190.26H565.04ZM565.96 197.14V198.48H579.24V197.14H565.96ZM568.96 200.04V201.3H574.38V203.98H568.96V205.22H575.8V200.04H568.96ZM568.16 200.04V206.4H569.54V200.04H568.16ZM578.74 197.14V197.42C578.54 203.32 578.26 205.46 577.82 205.96C577.64 206.18 577.44 206.24 577.06 206.24C576.7 206.24 575.72 206.22 574.64 206.12C574.88 206.52 575.04 207.12 575.08 207.54C576.14 207.6 577.18 207.6 577.76 207.56C578.36 207.5 578.76 207.36 579.12 206.9C579.74 206.18 579.96 203.96 580.24 197.82C580.24 197.62 580.24 197.14 580.24 197.14H578.74ZM585.14 208.14C587.24 207.42 588.6 205.78 588.6 203.62C588.6 202.22 588 201.3 586.88 201.3C586.08 201.3 585.36 201.8 585.36 202.74C585.36 203.7 586.04 204.18 586.86 204.18C587.24 204.18 587.64 204.08 587.92 203.72L586.84 202.2L587.22 203.9C587.22 205.4 586.32 206.42 584.68 207.1L585.14 208.14ZM609.48 190.6V191.76H620.98V190.6H609.48ZM609.86 197.04V198.06H620.72V197.04H609.86ZM610.2 199.1V200.1H620.36V199.1H610.2ZM609.24 201.22V202.34H621.1V201.22H609.24ZM614.38 189.2V191.18H615.9V189.2H614.38ZM612.3 195.94V201.72H613.66V195.94H612.3ZM616.68 195.94V201.72H618.04V195.94H616.68ZM614.24 201.5C613.14 202.62 610.92 203.48 608.92 204.02C609.16 204.24 609.54 204.76 609.68 205.02C611.74 204.34 614.12 203.26 615.38 201.86L614.24 201.5ZM616.22 201.7L615.08 201.96C615.98 204.7 617.84 206.74 620.54 207.64C620.72 207.3 621.1 206.82 621.4 206.56C618.84 205.86 617.02 204.02 616.22 201.7ZM619.98 202.66C619.24 203.18 617.94 203.94 617.04 204.36L617.76 205.1C618.68 204.7 619.9 204.1 620.8 203.44L619.98 202.66ZM611.4 193.5H613.52V195.04H611.4V193.5ZM610.26 192.56V195.96H614.72V192.56H610.26ZM616.94 193.5H619.12V195.04H616.94V193.5ZM615.78 192.56V195.96H620.32V192.56H615.78ZM603.58 195.26V196.46H608.72V195.26H603.58ZM603.7 189.92V191.12H608.66V189.92H603.7ZM603.58 197.94V199.14H608.72V197.94H603.58ZM602.76 192.54V193.78H609.22V192.54H602.76ZM604.28 200.64V201.88H607.44V205.22H604.28V206.46H608.7V200.64H604.28ZM603.54 200.64V207.4H604.78V200.64H603.54ZM610.1 206.24L610.48 207.46C612.24 207.14 614.5 206.74 616.7 206.32L616.62 205.2C614.22 205.6 611.78 206 610.1 206.24ZM611.96 203.46V206.46H613.26V202.96L612.68 202.74L611.96 203.46ZM453.92 220.68C455.32 221.12 457.18 221.84 458.12 222.36L458.78 221.2C457.82 220.7 455.96 220.02 454.58 219.66L453.92 220.68ZM452.92 224.9L453.5 226.22C455.02 225.76 456.9 225.14 458.72 224.56L458.56 223.38C456.48 223.96 454.36 224.56 452.92 224.9ZM461.5 220.68L460.62 221.82H469.54V220.68H461.5ZM469.14 220.68V220.9C468.74 221.74 468.06 222.74 467.42 223.36L468.62 223.78C469.34 223.08 470.08 221.96 470.64 220.92L469.64 220.62L469.38 220.68H469.14ZM463.98 221.08C463.64 223.36 462.56 224.6 458.86 225.22C459.12 225.48 459.44 225.98 459.58 226.3C463.66 225.48 464.94 223.92 465.36 221.08H463.98ZM465.3 221.44L464.08 221.56C464.6 223.66 465.6 225.82 470.34 226.64C470.5 226.26 470.84 225.72 471.12 225.42C466.68 224.78 465.7 223.14 465.3 221.44ZM461.82 219.2C461.3 220.4 460.28 221.78 458.78 222.8C459.14 222.96 459.66 223.28 459.92 223.56C461.48 222.36 462.5 220.88 463.18 219.42L461.82 219.2ZM457.06 229.66H467.14V231.02H457.06V229.66ZM457.06 232H467.14V233.4H457.06V232ZM457.06 227.32H467.14V228.68H457.06V227.32ZM455.6 226.32V234.4H468.64V226.32H455.6ZM463.66 235.42C465.84 236.14 468.02 237 469.28 237.66L470.94 236.9C469.5 236.22 467.08 235.34 464.88 234.66L463.66 235.42ZM458.96 234.62C457.52 235.4 455.12 236.1 453.06 236.54C453.4 236.8 453.92 237.38 454.16 237.68C456.16 237.12 458.7 236.2 460.32 235.24L458.96 234.62ZM480.46 220.22V221.66H488.4V220.22H480.46ZM480.26 227.04V228.46H486.96V227.04H480.26ZM482.98 221.04V225.88C482.98 229.4 482.68 233.44 479.48 236.62C479.84 236.84 480.36 237.34 480.6 237.66C484.06 234.22 484.42 229.8 484.42 225.88V221.04H482.98ZM487.64 220.22C487.66 229.46 487.46 236.78 489.82 237.52C490.84 237.92 491.5 237.22 491.74 233.9C491.5 233.7 491.08 233.2 490.8 232.84C490.74 234.52 490.58 236 490.42 235.96C489.02 235.64 489.08 228.74 489.18 220.22H487.64ZM473.7 225.26V226.46H479.56V225.26H473.7ZM473.76 219.92V221.12H479.48V219.92H473.76ZM473.7 227.94V229.14H479.56V227.94H473.7ZM472.76 222.54V223.78H480.22V222.54H472.76ZM474.36 230.64V231.88H478.24V235.22H474.36V236.48H479.56V230.64H474.36ZM473.68 230.64V237.4H474.98V230.64H473.68ZM493.28 220.28V221.64H510.7V220.28H493.28ZM501.34 220.86V228.6C501.34 231.92 500.72 234.86 492.92 236.3C493.24 236.66 493.66 237.3 493.82 237.62C501.84 235.92 502.9 232.48 502.9 228.62V220.86H501.34ZM496.54 227.78H507.94V229.82H496.54V227.78ZM496.54 224.58H507.94V226.58H496.54V224.58ZM495.12 223.32V231.08H509.46V223.32H495.12ZM497.04 231.24L495.76 231.76C498.44 236.3 503.36 237.24 510.72 237.54C510.8 237.06 511.1 236.42 511.36 236.06C504.14 235.88 499.58 235.2 497.04 231.24ZM520.96 230.3V231.36H528.7V230.3H520.96ZM518.84 220.48V221.64H530.56V220.48H518.84ZM519.34 222.9V223.98H530.08V222.9H519.34ZM518.18 225.36V226.52H531.22V225.36H518.18ZM520.96 232.88V233.98H528.76V232.88H520.96ZM520.02 227.66V237.58H521.42V228.84H528.84V227.66H520.02ZM528.24 227.66V235.9C528.24 236.16 528.14 236.24 527.86 236.24C527.6 236.26 526.64 236.26 525.62 236.24C525.82 236.6 526.02 237.16 526.08 237.52C527.48 237.52 528.38 237.52 528.96 237.3C529.52 237.1 529.66 236.7 529.66 235.92V227.66H528.24ZM523.84 219.2V226.06H525.32V219.2H523.84ZM513.74 220.46C515.02 221.06 516.56 222.02 517.32 222.74L518.18 221.52C517.4 220.82 515.84 219.92 514.58 219.38L513.74 220.46ZM512.74 225.9C514.04 226.44 515.62 227.34 516.4 228.02L517.26 226.78C516.46 226.12 514.84 225.26 513.56 224.78L512.74 225.9ZM513.34 236.36L514.64 237.32C515.74 235.46 517.06 232.92 518.04 230.8L516.9 229.88C515.82 232.16 514.36 234.82 513.34 236.36ZM538.62 223.66V224.96H544.4V223.66H538.62ZM545.58 225.84V227.16H551.2V225.84H545.58ZM540.98 219.3V237.62H542.3V219.3H540.98ZM548.14 226.42V237.6H549.48V226.42H548.14ZM541 224.5C540.4 227.52 539.24 230.86 537.98 232.52C538.28 232.74 538.74 233.22 538.98 233.54C540.26 231.64 541.36 228.06 541.96 224.76L541 224.5ZM542.22 226.96L541.5 227.54C542 228.14 543.26 229.88 543.68 230.62L544.54 229.62C544.18 229.18 542.64 227.4 542.22 226.96ZM544.84 221V227.96C544.84 230.64 544.68 234.06 543.04 236.6C543.38 236.78 543.86 237.24 544.04 237.54C545.92 234.74 546.18 230.8 546.18 227.98V221.78C546.44 221.74 546.56 221.66 546.58 221.52L544.84 221ZM549.74 219.32C548.68 220.02 546.78 220.82 545.1 221.38C545.28 221.68 545.52 222.16 545.62 222.44C547.42 221.92 549.52 221.18 551 220.34L549.74 219.32ZM534.22 220.64V221.98H537V232.56H534.22V233.9H538.26V220.64H534.22ZM534.28 226.5V227.82H537.68V226.5H534.28ZM533.48 220.64V235.5H534.72V220.64H533.48ZM559.42 230.72H564.36V232.34H559.42V230.72ZM558.2 229.74V233.34H565.64V229.74H558.2ZM562.52 232.96V235.52C562.52 236.74 562.82 237.06 564.06 237.06C564.32 237.06 565.4 237.06 565.64 237.06C566.56 237.06 566.92 236.66 567.04 235.04C566.68 234.96 566.18 234.78 565.92 234.6C565.88 235.8 565.82 235.94 565.46 235.94C565.24 235.94 564.42 235.94 564.24 235.94C563.86 235.94 563.82 235.9 563.82 235.52V232.96H562.52ZM559.64 233.32C559.4 234.84 558.58 235.68 556.28 236.16C556.54 236.38 556.9 236.9 557.04 237.2C559.66 236.5 560.6 235.34 560.9 233.32H559.64ZM554.66 222.7V223.74H560.1V222.7H554.66ZM560.7 227.2V228.32H564.3V227.2H560.7ZM563.66 222.7V223.74H569.16V222.7H563.66ZM568.56 220.18V235.76C568.56 235.98 568.5 236.04 568.3 236.04C568.08 236.06 567.5 236.06 566.86 236.04C567.08 236.44 567.26 237.16 567.3 237.58C568.28 237.58 569 237.54 569.46 237.28C569.92 237.02 570.06 236.56 570.06 235.76V220.18H568.56ZM554.7 220.18V221.28H559.56V225.22H554.7V226.34H560.98V220.18H554.7ZM569.4 220.18H562.78V226.34H569.4V225.22H564.2V221.28H569.4V220.18ZM553.92 220.18V237.58H555.4V220.18H553.92ZM563.18 227.2V227.84H563.52C564.06 229.16 565.28 230.34 566.52 231.06C566.74 230.78 567.18 230.36 567.48 230.16C566.28 229.6 565.04 228.48 564.54 227.2H563.18ZM559.04 227.54C558.58 228.6 557.54 229.72 556.4 230.38C556.66 230.58 557.06 230.94 557.28 231.18C558.52 230.42 559.68 229.12 560.28 227.84L559.04 227.54ZM579.82 220.32V221.36H590.88V220.32H579.82ZM580.52 222.32V223.32H590.32V222.32H580.52ZM584.48 219.22V222.86H585.94V219.22H584.48ZM585.92 224.54V225.44C585.92 226.36 586.2 226.54 587.36 226.54C587.56 226.54 588.98 226.54 589.22 226.54C589.92 226.54 590.22 226.38 590.3 226C590.04 225.96 589.68 225.88 589.46 225.74C589.42 225.8 589.34 225.8 589.04 225.8C588.76 225.8 587.66 225.8 587.44 225.8C587 225.8 586.94 225.76 586.94 225.46V224.54H585.92ZM583.66 224.6C583.62 225.62 583.2 225.94 581.3 226.08C581.48 226.24 581.7 226.58 581.76 226.8C584 226.58 584.58 225.96 584.6 224.6H583.66ZM581.2 225H589.46V227.24H581.2V225ZM579.96 224.12V228.1H590.74V224.12H579.96ZM581.92 231.34H588.8V232.2H581.92V231.34ZM581.92 232.92H588.8V233.84H581.92V232.92ZM581.92 229.76H588.8V230.6H581.92V229.76ZM580.56 228.84V234.74H590.2V228.84H580.56ZM586.22 235.48C587.66 236.18 589.24 237.04 590.16 237.64L591.38 236.8C590.36 236.2 588.64 235.36 587.16 234.68L586.22 235.48ZM583 234.72C582.14 235.44 580.34 236.24 578.82 236.68C579.12 236.92 579.56 237.34 579.78 237.62C581.28 237.16 583.1 236.3 584.24 235.46L583 234.72ZM573.58 225.26V226.46H578.72V225.26H573.58ZM573.7 219.92V221.12H578.66V219.92H573.7ZM573.58 227.94V229.14H578.72V227.94H573.58ZM572.76 222.54V223.78H579.22V222.54H572.76ZM574.28 230.64V231.88H577.44V235.22H574.28V236.46H578.7V230.64H574.28ZM573.54 230.64V237.4H574.78V230.64H573.54Z" fill="white"/>
<path d="M751.4 189.2V207.58H752.88V189.2H751.4ZM749.6 193.06C749.46 194.68 749.08 196.88 748.56 198.22L749.74 198.62C750.26 197.16 750.64 194.86 750.74 193.24L749.6 193.06ZM752.92 192.88C753.52 194.08 754.18 195.68 754.4 196.64L755.54 196.06C755.28 195.14 754.62 193.6 754 192.42L752.92 192.88ZM755.66 192.4V193.82H764.08V199.2H765.56V192.4H755.66ZM754.6 198.4V199.84H767.28V198.4H754.6ZM761.32 198.7L759.98 198.98C761.06 203 763.06 206.22 766.38 207.66C766.62 207.24 767.1 206.6 767.46 206.28C764.32 205.12 762.26 202.16 761.32 198.7ZM759.58 189.2V195.88C759.58 199.38 759.38 203.8 753.94 206.52C754.28 206.82 754.78 207.36 754.98 207.68C760.58 204.62 761.08 199.8 761.08 195.88V189.2H759.58ZM773.22 197.1H768.96V198.5H771.76V204.18H773.22V197.1ZM773.22 203.52H771.86C770.84 204.38 769.66 205.26 768.7 205.9L769.5 207.44C770.58 206.56 771.6 205.7 772.56 204.84C773.84 206.42 775.64 207.12 778.24 207.22C780.46 207.3 784.6 207.26 786.8 207.18C786.86 206.72 787.12 206 787.28 205.64C784.92 205.8 780.42 205.86 778.24 205.78C775.94 205.68 774.16 205 773.22 203.52ZM769.18 190.6C770.48 191.48 771.98 192.84 772.62 193.8L773.8 192.82C773.1 191.84 771.6 190.54 770.28 189.7L769.18 190.6ZM776.58 195.46H784.52V198H776.58V195.46ZM775.18 194.24V199.22H785.98V194.24H775.18ZM774.36 191.3V192.6H786.88V191.3H774.36ZM779.74 189.24V205.02H781.18V189.24H779.74ZM779.24 198.74C778.14 200.58 775.96 202.44 773.98 203.3C774.3 203.56 774.74 204.08 774.96 204.44C776.98 203.38 779.16 201.3 780.34 199.16L779.24 198.74ZM781.54 198.74L780.48 199.22C781.74 201.2 784.02 203.32 785.98 204.38C786.2 204 786.66 203.5 787 203.2C785.02 202.34 782.74 200.5 781.54 198.74ZM793.88 195.4H802.18V197.02H793.88V195.4ZM792.46 194.38V198.02H803.66V194.38H792.46ZM790.32 201.3V202.4H805.82V201.3H790.32ZM789.16 203.72V204.82H806.86V203.72H789.16ZM797.2 199.62V206.06C797.2 206.36 797.08 206.44 796.74 206.46C796.38 206.48 795.06 206.48 793.68 206.44C793.88 206.78 794.12 207.26 794.2 207.62C796.02 207.62 797.12 207.62 797.8 207.44C798.46 207.24 798.7 206.9 798.7 206.08V199.62H797.2ZM803.62 198.42C800.76 198.92 795.36 199.18 790.96 199.22C791.08 199.5 791.22 199.94 791.24 200.24C795.72 200.24 801.2 199.96 804.58 199.36L803.62 198.42ZM797.18 189.2V192.64H798.7V189.2H797.18ZM789.58 191.88V195.88H791V193.16H805.02V195.88H806.5V191.88H789.58ZM791.54 189.84C792.14 190.52 792.76 191.48 793.04 192.08L794.42 191.44C794.1 190.86 793.46 189.96 792.86 189.3L791.54 189.84ZM803.2 189.32C802.82 189.96 802.06 190.92 801.5 191.52L802.7 192C803.3 191.46 804.04 190.66 804.72 189.84L803.2 189.32ZM816.44 190.12V191.38H825.1V193.5H816.44V194.76H826.56V190.12H816.44ZM815.64 190.12V196C815.64 199.18 815.48 203.54 813.6 206.66C813.9 206.82 814.5 207.24 814.74 207.5C816.74 204.22 817.02 199.34 817.02 196V190.12H815.64ZM816.62 196.12V197.34H826.9V196.12H816.62ZM820.06 196.44C819.7 197.5 819.06 199.06 818.52 200.04L819.56 200.38C820.16 199.46 820.88 198 821.48 196.8L820.06 196.44ZM817.04 199.72L817.18 200.96C819.44 200.86 822.6 200.72 825.64 200.54L825.66 199.44C822.48 199.56 819.2 199.68 817.04 199.72ZM823.08 198.16C824.2 199.16 825.5 200.6 826.1 201.52L827.12 200.88C826.5 199.96 825.16 198.6 824.02 197.62L823.08 198.16ZM817.28 202.6V203.76H826.16V202.6H817.28ZM816.24 205.82V207.02H827.22V205.82H816.24ZM820.98 200.66V206.4H822.32V200.66H820.98ZM808.54 199.58L808.94 201.04C810.64 200.5 812.84 199.78 814.92 199.06L814.72 197.68C812.44 198.42 810.1 199.14 808.54 199.58ZM808.82 193.24V194.64H814.9V193.24H808.82ZM811.34 189.22V205.86C811.34 206.16 811.22 206.22 810.98 206.22C810.74 206.24 809.98 206.24 809.1 206.22C809.3 206.64 809.48 207.26 809.54 207.62C810.8 207.62 811.58 207.58 812.04 207.34C812.54 207.1 812.74 206.7 812.74 205.86V189.22H811.34ZM829.14 193.18V194.6H836.86V193.18H829.14ZM832.32 189.46V193.9H833.74V189.46H832.32ZM841.46 193.36V194.78H847.2V193.36H841.46ZM838.02 205.22V206.64H845.58V205.22H838.02ZM840.7 189.2V199.4H842.22V189.2H840.7ZM837.32 198.78V207.58H838.78V200.18H844.82V207.5H846.34V198.78H837.32ZM828.76 203.84L829.08 205.34C831.28 204.84 834.32 204.12 837.16 203.44L837 202.06C833.98 202.76 830.82 203.44 828.76 203.84ZM829.9 195.64C830.36 197.86 830.72 200.76 830.7 202.64L832.02 202.42C831.98 200.48 831.64 197.64 831.12 195.42L829.9 195.64ZM834.56 195.2C834.36 197.54 833.88 200.9 833.42 202.88L834.66 203.16C835.14 201.2 835.68 197.98 836.04 195.48L834.56 195.2ZM850.18 193.68V207.62H851.7V195.16H865.14V193.68H850.18ZM864.4 193.68V205.64C864.4 205.96 864.3 206.06 863.94 206.08C863.56 206.1 862.28 206.1 860.98 206.06C861.2 206.48 861.44 207.16 861.5 207.6C863.18 207.6 864.36 207.58 865.04 207.34C865.72 207.08 865.92 206.6 865.92 205.66V193.68H864.4ZM853.68 190.1V191.44H857.96V190.1H853.68ZM856.94 190.1V190.84H857.26C857.56 196.66 859.1 200.88 863.12 202.88C863.36 202.48 863.86 201.9 864.18 201.58C860.26 199.9 858.84 195.86 858.6 190.1H856.94ZM857.1 194.08C856.58 197.84 854.9 200.34 851.88 201.82C852.2 202.06 852.68 202.64 852.9 202.98C856.12 201.32 857.84 198.44 858.52 194.32L857.1 194.08ZM869.92 190.68C871.32 191.12 873.18 191.84 874.12 192.36L874.78 191.2C873.82 190.7 871.96 190.02 870.58 189.66L869.92 190.68ZM868.92 194.9L869.5 196.22C871.02 195.76 872.9 195.14 874.72 194.56L874.56 193.38C872.48 193.96 870.36 194.56 868.92 194.9ZM877.5 190.68L876.62 191.82H885.54V190.68H877.5ZM885.14 190.68V190.9C884.74 191.74 884.06 192.74 883.42 193.36L884.62 193.78C885.34 193.08 886.08 191.96 886.64 190.92L885.64 190.62L885.38 190.68H885.14ZM879.98 191.08C879.64 193.36 878.56 194.6 874.86 195.22C875.12 195.48 875.44 195.98 875.58 196.3C879.66 195.48 880.94 193.92 881.36 191.08H879.98ZM881.3 191.44L880.08 191.56C880.6 193.66 881.6 195.82 886.34 196.64C886.5 196.26 886.84 195.72 887.12 195.42C882.68 194.78 881.7 193.14 881.3 191.44ZM877.82 189.2C877.3 190.4 876.28 191.78 874.78 192.8C875.14 192.96 875.66 193.28 875.92 193.56C877.48 192.36 878.5 190.88 879.18 189.42L877.82 189.2ZM873.06 199.66H883.14V201.02H873.06V199.66ZM873.06 202H883.14V203.4H873.06V202ZM873.06 197.32H883.14V198.68H873.06V197.32ZM871.6 196.32V204.4H884.64V196.32H871.6ZM879.66 205.42C881.84 206.14 884.02 207 885.28 207.66L886.94 206.9C885.5 206.22 883.08 205.34 880.88 204.66L879.66 205.42ZM874.96 204.62C873.52 205.4 871.12 206.1 869.06 206.54C869.4 206.8 869.92 207.38 870.16 207.68C872.16 207.12 874.7 206.2 876.32 205.24L874.96 204.62ZM896.46 190.22V191.66H904.4V190.22H896.46ZM896.26 197.04V198.46H902.96V197.04H896.26ZM898.98 191.04V195.88C898.98 199.4 898.68 203.44 895.48 206.62C895.84 206.84 896.36 207.34 896.6 207.66C900.06 204.22 900.42 199.8 900.42 195.88V191.04H898.98ZM903.64 190.22C903.66 199.46 903.46 206.78 905.82 207.52C906.84 207.92 907.5 207.22 907.74 203.9C907.5 203.7 907.08 203.2 906.8 202.84C906.74 204.52 906.58 206 906.42 205.96C905.02 205.64 905.08 198.74 905.18 190.22H903.64ZM889.7 195.26V196.46H895.56V195.26H889.7ZM889.76 189.92V191.12H895.48V189.92H889.76ZM889.7 197.94V199.14H895.56V197.94H889.7ZM888.76 192.54V193.78H896.22V192.54H888.76ZM890.36 200.64V201.88H894.24V205.22H890.36V206.48H895.56V200.64H890.36ZM889.68 200.64V207.4H890.98V200.64H889.68ZM911.14 208.14C913.24 207.42 914.6 205.78 914.6 203.62C914.6 202.22 914 201.3 912.88 201.3C912.08 201.3 911.36 201.8 911.36 202.74C911.36 203.7 912.04 204.18 912.86 204.18C913.24 204.18 913.64 204.08 913.92 203.72L912.84 202.2L913.22 203.9C913.22 205.4 912.32 206.42 910.68 207.1L911.14 208.14ZM943.36 190.06C944.34 190.7 945.48 191.66 946.02 192.32L946.88 191.44C946.32 190.78 945.16 189.88 944.18 189.3L943.36 190.06ZM937.08 198.1V199.26H939.94V202.32H937.08V203.5H941.02V198.1H937.08ZM945.3 195.54C944.22 200.56 942.04 204.28 938.34 206.46C938.62 206.72 939.14 207.22 939.36 207.48C943.08 205.02 945.4 201.16 946.62 195.78L945.3 195.54ZM934.14 192.4V197.8C934.14 200.52 933.96 204.22 932.16 206.86C932.48 207.02 933.06 207.4 933.3 207.66C935.18 204.86 935.48 200.72 935.48 197.8V192.4H934.14ZM934.96 192.4V193.76H946.94V192.4H934.96ZM936.32 195.36V196.52H941.12V195.36H936.32ZM936.46 198.1V204.72H937.54V198.1H936.46ZM929.7 190.46C930.88 191.04 932.28 191.94 932.96 192.6L933.86 191.4C933.14 190.74 931.72 189.9 930.56 189.4L929.7 190.46ZM928.74 195.88C929.92 196.4 931.36 197.24 932.06 197.88L932.92 196.66C932.2 196.02 930.76 195.24 929.58 194.78L928.74 195.88ZM929.06 206.44L930.4 207.24C931.28 205.32 932.32 202.74 933.08 200.56L931.88 199.76C931.06 202.1 929.88 204.84 929.06 206.44ZM941.38 189.4C941.66 199.52 942.6 207.54 945.62 207.62C946.36 207.62 947.1 206.76 947.5 203.5C947.24 203.38 946.64 203.04 946.4 202.74C946.24 204.74 945.98 205.86 945.62 205.84C944 205.76 942.92 198.12 942.76 189.4H941.38ZM957.22 189.24V199.36C957.22 199.68 957.1 199.76 956.76 199.78C956.4 199.78 955.18 199.8 953.86 199.76C954.1 200.2 954.34 200.86 954.4 201.3C956.08 201.3 957.2 201.26 957.86 201.02C958.54 200.76 958.74 200.32 958.74 199.38V189.24H957.22ZM961.56 192.24C963.28 194.32 965.1 197.14 965.8 198.96L967.3 198.16C966.54 196.3 964.64 193.56 962.9 191.56L961.56 192.24ZM962.88 197.7C961.16 202.84 957.32 205.26 950.24 206.18C950.56 206.56 950.9 207.2 951.04 207.66C958.46 206.5 962.54 203.82 964.44 198.18L962.88 197.7ZM952.78 191.74C952.04 193.94 950.5 196.62 948.76 198.32C949.16 198.52 949.74 198.94 950.08 199.22C951.88 197.4 953.46 194.58 954.42 192.14L952.78 191.74ZM824.94 220.86V222.14H836.76V220.86H824.94ZM824.56 231.9V233.16H836.76V231.9H824.56ZM827.94 219.22V223.66H829.36V219.22H827.94ZM832.48 219.22V223.66H833.94V219.22H832.48ZM827.3 227.66H834.24V229.1H827.3V227.66ZM827.3 225.16H834.24V226.58H827.3V225.16ZM825.88 224.04V230.24H835.7V224.04H825.88ZM829.98 230.04C829.62 233.38 828.7 235.42 824.04 236.42C824.32 236.72 824.7 237.28 824.84 237.62C829.88 236.42 831.06 233.98 831.46 230.04H829.98ZM831.8 232.32L830.52 232.6C831.46 235.14 833.4 236.84 836.24 237.6C836.44 237.22 836.84 236.66 837.16 236.36C834.52 235.82 832.62 234.38 831.8 232.32ZM818.72 229.84L819.1 231.28C820.78 230.74 822.92 230.06 824.96 229.4L824.76 228.02C822.54 228.74 820.24 229.44 818.72 229.84ZM818.92 223.24V224.64H824.72V223.24H818.92ZM821.22 219.22V235.72C821.22 236.02 821.12 236.1 820.88 236.1C820.64 236.1 819.86 236.1 819 236.08C819.18 236.5 819.38 237.12 819.42 237.48C820.68 237.48 821.46 237.44 821.94 237.2C822.44 236.96 822.62 236.56 822.62 235.74V219.22H821.22ZM847.2 232.1V237.64H848.7V232.1H847.2ZM847.2 219.2V224.8H848.68V219.2H847.2ZM846.46 225.16C845.64 226.12 844.14 227.44 843.02 228.26L844.12 228.88C845.28 228.08 846.7 226.92 847.86 225.84L846.46 225.16ZM850.78 226.46C848.9 228.16 845.74 230.42 843.3 231.8L844.36 232.52C846.8 231.16 849.88 229.04 852.14 227.2L850.78 226.46ZM841.48 228.2C843.02 228.98 844.9 230.18 845.82 231.02L846.86 230.06C845.88 229.22 843.98 228.08 842.48 227.34L841.48 228.2ZM850.56 229.78C852.34 230.84 854.54 232.48 855.6 233.54L856.66 232.62C855.54 231.56 853.32 230.02 851.56 228.98L850.56 229.78ZM850.62 234.06C852.38 234.96 854.54 236.36 855.58 237.34L856.82 236.44C855.68 235.46 853.48 234.12 851.76 233.28L850.62 234.06ZM839.3 231.48L839.38 232.86C843.18 232.82 849.08 232.64 854.62 232.48L854.7 231.28C849 231.4 842.96 231.48 839.3 231.48ZM843.78 233.26C842.58 234.44 840.66 235.6 838.88 236.34C839.24 236.6 839.8 237.12 840.06 237.4C841.8 236.54 843.86 235.16 845.2 233.78L843.78 233.26ZM839.52 220.98V222.3H856.42V220.98H839.52ZM839.46 224.22V227.98H840.88V225.52H855.12V227.98H856.6V224.22H839.46ZM866.42 221.6V222.92H876.42V221.6H866.42ZM865.56 225.48V226.82H877.28V225.48H865.56ZM865.66 229.1V230.44H877.06V229.1H865.66ZM870.62 219.2V226.3H872.1V219.2H870.62ZM873.26 226.62V235.8C873.26 236.1 873.16 236.18 872.82 236.2C872.5 236.22 871.38 236.22 870.14 236.18C870.36 236.58 870.6 237.18 870.66 237.58C872.26 237.58 873.28 237.56 873.9 237.34C874.52 237.12 874.72 236.68 874.72 235.82V226.62H873.26ZM866.88 231.84C867.9 232.88 868.98 234.38 869.42 235.36L870.72 234.56C870.24 233.58 869.12 232.16 868.08 231.12L866.88 231.84ZM860.22 220.52V221.88H863.82V232.3H860.22V233.66H865.22V220.52H860.22ZM860.28 226.34V227.68H864.48V226.34H860.28ZM859.5 220.52V235.3H860.92V220.52H859.5ZM884.94 231.46V232.62H891V231.46H884.94ZM884.88 228.44V229.62H890.28V234.58H884.88V235.74H891.7V228.44H884.88ZM884.22 228.44V236.76H885.6V228.44H884.22ZM880.54 222.9V224H886.1V222.9H880.54ZM889.76 222.9V224H895.42V222.9H889.76ZM894.8 220.06V235.62C894.8 235.96 894.68 236.08 894.32 236.08C893.96 236.1 892.74 236.12 891.52 236.06C891.74 236.48 891.98 237.18 892.04 237.6C893.72 237.6 894.8 237.58 895.44 237.34C896.08 237.08 896.3 236.58 896.3 235.62V220.06H894.8ZM880.66 220.06V221.22H885.64V225.78H880.66V226.94H887.06V220.06H880.66ZM895.54 220.06H888.86V226.96H895.54V225.82H890.3V221.22H895.54V220.06ZM879.8 220.06V237.62H881.28V220.06H879.8Z" fill="white"/>
<path d="M1097.2 201.4V206.52H1098.64V201.4H1097.2ZM1090.24 201.14V202.18H1105.76V201.14H1090.24ZM1089.02 206.08V207.16H1106.98V206.08H1089.02ZM1093.56 202.3C1093.06 203.58 1091.86 204.62 1090.48 205.28C1090.74 205.48 1091.14 205.92 1091.3 206.14C1092.76 205.34 1094.08 204.08 1094.7 202.5L1093.56 202.3ZM1101.6 202.28C1101.26 203.6 1100.32 204.6 1099.04 205.24C1099.28 205.44 1099.7 205.9 1099.84 206.12C1101.24 205.34 1102.34 204.08 1102.78 202.44L1101.6 202.28ZM1093.06 204.24C1094.04 204.72 1095.24 205.48 1095.86 206.02L1096.42 205.18C1095.82 204.66 1094.6 203.94 1093.64 203.5L1093.06 204.24ZM1101.34 204.28C1102.44 204.74 1103.78 205.5 1104.5 206.06L1105.06 205.14C1104.36 204.62 1102.98 203.92 1101.88 203.48L1101.34 204.28ZM1090.76 189.98V190.98H1105.26V189.98H1090.76ZM1091.76 193.82V194.66H1096.2V193.82H1091.76ZM1091.32 195.52V196.36H1096.2V195.52H1091.32ZM1099.62 195.52V196.36H1104.68V195.52H1099.62ZM1099.62 193.82V194.66H1104.22V193.82H1099.62ZM1097.2 190.38V196.66H1098.64V190.38H1097.2ZM1089.52 191.98V195.12H1090.78V192.9H1105.16V195.12H1106.46V191.98H1089.52ZM1091.4 198.02H1093.58V199.52H1091.4V198.02ZM1090.3 197.18V200.38H1094.72V197.18H1090.3ZM1096.82 198.02H1099.06V199.52H1096.82V198.02ZM1095.7 197.18V200.38H1100.2V197.18H1095.7ZM1102.32 198.02H1104.64V199.52H1102.32V198.02ZM1101.22 197.18V200.38H1105.8V197.18H1101.22ZM1115.84 199.82V207.6H1117.22V201.2H1124.38V207.5H1125.82V199.82H1115.84ZM1125.08 189.28C1122.86 190.08 1118.8 190.7 1115.32 191.08C1115.5 191.42 1115.7 192 1115.76 192.36C1119.34 192.02 1123.52 191.4 1126.26 190.46L1125.08 189.28ZM1120.16 191.02V200.62H1121.6V191.02H1120.16ZM1114.38 195.08V196.52H1127.12V195.08H1114.38ZM1116.78 205.36V206.74H1125.04V205.36H1116.78ZM1109.8 190.52C1111.04 191.18 1112.7 192.16 1113.54 192.76L1114.42 191.54C1113.56 190.96 1111.86 190.06 1110.64 189.46L1109.8 190.52ZM1108.82 196.04C1110.04 196.68 1111.7 197.64 1112.52 198.2L1113.36 196.98C1112.52 196.4 1110.84 195.52 1109.66 194.94L1108.82 196.04ZM1109.3 206.32L1110.56 207.34C1111.74 205.48 1113.14 202.98 1114.2 200.86L1113.12 199.88C1111.96 202.16 1110.38 204.8 1109.3 206.32ZM1132.9 197.1H1128.92V198.5H1131.46V204.18H1132.9V197.1ZM1132.9 203.58H1131.6C1130.66 204.44 1129.58 205.34 1128.7 205.98L1129.48 207.44C1130.48 206.56 1131.4 205.7 1132.28 204.84C1133.52 206.42 1135.34 207.12 1137.98 207.22C1140.22 207.32 1144.5 207.28 1146.76 207.18C1146.82 206.74 1147.06 206.04 1147.24 205.7C1144.82 205.86 1140.2 205.92 1137.98 205.82C1135.6 205.74 1133.84 205.06 1132.9 203.58ZM1129.1 190.54C1130.32 191.52 1131.7 192.92 1132.26 193.92L1133.5 192.98C1132.88 192 1131.48 190.62 1130.24 189.72L1129.1 190.54ZM1139.62 191.54V205.28H1141.06V191.54H1139.62ZM1136.56 198.62H1144.18V199.98H1136.56V198.62ZM1136.56 196.32H1144.18V197.64H1136.56V196.32ZM1135.26 195.3V201H1145.54V195.3H1135.26ZM1134.2 189.92V192.52H1135.54V191.06H1145.2V192.52H1146.6V189.92H1134.2ZM1134.62 192.96V194.08H1146.12V192.96H1134.62ZM1133.86 202.2V203.38H1146.96V202.2H1133.86ZM1151.9 190.62V192.06H1164.84V190.62H1151.9ZM1151.9 195.28V196.7H1164.82V195.28H1151.9ZM1151.8 200.06V201.48H1164.86V200.06H1151.8ZM1151.06 190.62V197.86C1151.06 200.68 1150.84 204.24 1148.64 206.72C1148.96 206.92 1149.56 207.42 1149.8 207.72C1152.18 205.06 1152.54 200.92 1152.54 197.88V190.62H1151.06ZM1164.24 190.62V205.56C1164.24 205.94 1164.1 206.06 1163.72 206.08C1163.34 206.08 1161.98 206.1 1160.56 206.04C1160.78 206.44 1161.02 207.1 1161.08 207.5C1162.98 207.52 1164.14 207.5 1164.82 207.26C1165.48 207 1165.72 206.54 1165.72 205.56V190.62H1164.24ZM1157.34 191.16V207.42H1158.86V191.16H1157.34ZM1171.14 208.14C1173.24 207.42 1174.6 205.78 1174.6 203.62C1174.6 202.22 1174 201.3 1172.88 201.3C1172.08 201.3 1171.36 201.8 1171.36 202.74C1171.36 203.7 1172.04 204.18 1172.86 204.18C1173.24 204.18 1173.64 204.08 1173.92 203.72L1172.84 202.2L1173.22 203.9C1173.22 205.4 1172.32 206.42 1170.68 207.1L1171.14 208.14ZM1199.64 189.44V193.66H1201.14V189.44H1199.64ZM1193.6 192.9V194.3H1206.86V192.9H1193.6ZM1199.56 193.44C1198.08 196.14 1195.52 198.54 1192.8 200.02C1193.12 200.32 1193.64 200.96 1193.84 201.26C1196.58 199.56 1199.3 196.92 1201 193.92L1199.56 193.44ZM1193.84 205.84L1194.3 207.3C1196.52 206.78 1199.6 206.04 1202.46 205.34L1202.32 203.96C1199.22 204.7 1195.96 205.42 1193.84 205.84ZM1206.02 196.2C1204.94 197.34 1203.08 198.92 1201.74 199.8L1202.58 200.68C1203.96 199.84 1205.78 198.44 1207.14 197.26L1206.02 196.2ZM1201.3 193.74L1199.96 193.96C1200.9 200.06 1202.72 205.1 1206.54 207.42C1206.78 207 1207.26 206.44 1207.6 206.14C1203.98 204.16 1202.14 199.3 1201.3 193.74ZM1193.36 189.26C1192.2 192.28 1190.3 195.26 1188.28 197.14C1188.56 197.5 1188.98 198.3 1189.14 198.64C1191.32 196.44 1193.42 193.08 1194.76 189.7L1193.36 189.26ZM1191.28 194.42V207.56H1192.72V193.02L1192.68 193L1191.28 194.42ZM1196.32 198.66V205.98H1197.74V197.26L1197.72 197.24L1196.32 198.66ZM1210.68 190.02V191.22H1225.3V190.02H1210.68ZM1209.28 198.88V200.1H1226.76V198.88H1209.28ZM1211.86 194.58V195.6H1216.18V194.58H1211.86ZM1211.44 196.68V197.7H1216.18V196.68H1211.44ZM1219.7 196.68V197.7H1224.6V196.68H1219.7ZM1219.7 194.58V195.6H1224.12V194.58H1219.7ZM1217.2 190.48V198.22H1218.66V190.48H1217.2ZM1215.22 202.32V207.46H1216.62V202.32H1215.22ZM1219.66 202.32V207.46H1221.04V202.32H1219.66ZM1209.52 192.38V196.22H1210.88V193.48H1225.08V196.22H1226.5V192.38H1209.52ZM1210.84 201.54V207.58H1212.26V202.78H1224.56V201.54H1210.84ZM1224.18 201.54V206.1C1224.18 206.28 1224.12 206.34 1223.9 206.36C1223.68 206.38 1223 206.38 1222.2 206.36C1222.38 206.72 1222.6 207.24 1222.66 207.6C1223.76 207.6 1224.5 207.62 1225 207.38C1225.52 207.16 1225.62 206.8 1225.62 206.12V201.54H1224.18ZM1217.22 199.34C1217.08 200.16 1216.72 201.36 1216.42 202.18L1217.74 202.32C1218.08 201.58 1218.5 200.48 1218.86 199.4L1217.22 199.34ZM1229.28 192.56V194.02H1246.78V192.56H1229.28ZM1238.6 193.86L1237.42 194.22C1239.06 199.48 1242 204.06 1246.26 206.14C1246.5 205.7 1247 205.12 1247.36 204.82C1243.18 203 1240.1 198.66 1238.6 193.86ZM1244.6 194.84C1243.52 196.32 1241.66 198.26 1240.3 199.4L1241.36 200.22C1242.76 199.08 1244.58 197.3 1245.9 195.78L1244.6 194.84ZM1240.6 190.22C1241.88 190.9 1243.48 191.9 1244.26 192.6L1245.22 191.52C1244.38 190.86 1242.74 189.92 1241.52 189.28L1240.6 190.22ZM1230.36 195.98C1231.6 197.08 1232.98 198.68 1233.58 199.72L1234.8 198.86C1234.18 197.8 1232.74 196.28 1231.52 195.22L1230.36 195.98ZM1237.18 189.26V205.58C1237.18 205.96 1237.04 206.06 1236.68 206.08C1236.28 206.1 1234.98 206.1 1233.58 206.06C1233.82 206.52 1234.06 207.22 1234.14 207.64C1235.9 207.64 1237.1 207.62 1237.78 207.34C1238.44 207.1 1238.72 206.64 1238.72 205.58V189.26H1237.18ZM1228.74 204.32L1229.66 205.66C1231.44 204.66 1233.8 203.26 1235.96 201.92L1235.48 200.58C1233.04 202 1230.42 203.46 1228.74 204.32ZM1251.4 189.2V207.58H1252.88V189.2H1251.4ZM1249.6 193.06C1249.46 194.68 1249.08 196.88 1248.56 198.22L1249.74 198.62C1250.26 197.16 1250.64 194.86 1250.74 193.24L1249.6 193.06ZM1252.92 192.88C1253.52 194.08 1254.18 195.68 1254.4 196.64L1255.54 196.06C1255.28 195.14 1254.62 193.6 1254 192.42L1252.92 192.88ZM1255.66 192.4V193.82H1264.08V199.2H1265.56V192.4H1255.66ZM1254.6 198.4V199.84H1267.28V198.4H1254.6ZM1261.32 198.7L1259.98 198.98C1261.06 203 1263.06 206.22 1266.38 207.66C1266.62 207.24 1267.1 206.6 1267.46 206.28C1264.32 205.12 1262.26 202.16 1261.32 198.7ZM1259.58 189.2V195.88C1259.58 199.38 1259.38 203.8 1253.94 206.52C1254.28 206.82 1254.78 207.36 1254.98 207.68C1260.58 204.62 1261.08 199.8 1261.08 195.88V189.2H1259.58ZM1273.22 197.1H1268.96V198.5H1271.76V204.18H1273.22V197.1ZM1273.22 203.52H1271.86C1270.84 204.38 1269.66 205.26 1268.7 205.9L1269.5 207.44C1270.58 206.56 1271.6 205.7 1272.56 204.84C1273.84 206.42 1275.64 207.12 1278.24 207.22C1280.46 207.3 1284.6 207.26 1286.8 207.18C1286.86 206.72 1287.12 206 1287.28 205.64C1284.92 205.8 1280.42 205.86 1278.24 205.78C1275.94 205.68 1274.16 205 1273.22 203.52ZM1269.18 190.6C1270.48 191.48 1271.98 192.84 1272.62 193.8L1273.8 192.82C1273.1 191.84 1271.6 190.54 1270.28 189.7L1269.18 190.6ZM1276.58 195.46H1284.52V198H1276.58V195.46ZM1275.18 194.24V199.22H1285.98V194.24H1275.18ZM1274.36 191.3V192.6H1286.88V191.3H1274.36ZM1279.74 189.24V205.02H1281.18V189.24H1279.74ZM1279.24 198.74C1278.14 200.58 1275.96 202.44 1273.98 203.3C1274.3 203.56 1274.74 204.08 1274.96 204.44C1276.98 203.38 1279.16 201.3 1280.34 199.16L1279.24 198.74ZM1281.54 198.74L1280.48 199.22C1281.74 201.2 1284.02 203.32 1285.98 204.38C1286.2 204 1286.66 203.5 1287 203.2C1285.02 202.34 1282.74 200.5 1281.54 198.74ZM1148.5 225.38V226.76H1154.98V225.38H1148.5ZM1148.5 230.46V231.82H1154.98V230.46H1148.5ZM1147.72 220.34V236.52H1149.18V221.7H1154.28V236.52H1155.78V220.34H1147.72ZM1145.62 235.66V237.04H1157.32V235.66H1145.62ZM1141.9 219.22C1141.38 220.54 1140.46 222.46 1139.7 223.62L1140.74 224.06C1141.52 222.98 1142.48 221.2 1143.24 219.72L1141.9 219.22ZM1144.32 221.5C1143.22 223.62 1141.32 226.62 1139.78 228.4L1140.74 228.9C1142.26 227.18 1144.22 224.3 1145.62 222.06L1144.32 221.5ZM1138.74 223.42C1139.82 224.38 1141.08 225.76 1141.62 226.7L1142.42 225.56C1141.88 224.68 1140.62 223.36 1139.5 222.42L1138.74 223.42ZM1143.68 226.14C1144.5 227.46 1145.3 229.2 1145.6 230.32L1146.8 229.76C1146.5 228.66 1145.64 226.94 1144.8 225.66L1143.68 226.14ZM1138.7 228.16L1138.82 229.5C1140.72 229.4 1143.26 229.26 1145.8 229.1V227.88C1143.16 228 1140.5 228.1 1138.7 228.16ZM1144.18 230.92C1144.74 232.16 1145.28 233.78 1145.46 234.82L1146.68 234.4C1146.46 233.36 1145.9 231.78 1145.32 230.56L1144.18 230.92ZM1139.8 230.64C1139.56 232.4 1139.16 234.18 1138.5 235.4C1138.82 235.54 1139.42 235.82 1139.68 235.98C1140.32 234.7 1140.82 232.76 1141.1 230.88L1139.8 230.64ZM1142.1 228.74V237.66H1143.46V228.74H1142.1ZM1162.96 225.74V227.08H1173.06V225.74H1162.96ZM1162.6 235.46V236.8H1173.32V235.46H1162.6ZM1161.92 229.6V237.62H1163.38V230.96H1172.64V237.62H1174.16V229.6H1161.92ZM1167.94 220.74C1169.82 223.3 1173.34 226.12 1176.48 227.76C1176.74 227.32 1177.1 226.8 1177.48 226.44C1174.28 225.02 1170.78 222.24 1168.62 219.26H1167.1C1165.52 221.84 1162.18 224.9 1158.66 226.68C1159 227 1159.4 227.54 1159.6 227.88C1163.02 226.02 1166.3 223.18 1167.94 220.74ZM1183.46 237.12L1184.82 235.96C1183.56 234.5 1181.76 232.7 1180.32 231.54L1179.02 232.68C1180.44 233.84 1182.16 235.54 1183.46 237.12ZM1198.96 224.86L1199.08 226C1200.62 225.94 1202.58 225.86 1204.58 225.76L1204.62 224.76C1202.46 224.82 1200.42 224.84 1198.96 224.86ZM1199.22 221.78C1200.04 222.46 1201.04 223.44 1201.48 224.08L1202.2 223.18C1201.74 222.56 1200.74 221.64 1199.9 221L1199.22 221.78ZM1202.94 223.86C1203.58 224.62 1204.32 225.68 1204.62 226.38L1205.52 225.84C1205.18 225.18 1204.44 224.14 1203.78 223.38L1202.94 223.86ZM1203.2 227.04C1203.6 227.74 1204.02 228.68 1204.18 229.3L1205.16 228.88C1204.98 228.28 1204.56 227.36 1204.12 226.7L1203.2 227.04ZM1201.74 219.18C1201.36 219.96 1200.64 221.14 1200.1 221.84L1200.94 222.24C1201.52 221.56 1202.22 220.56 1202.82 219.64L1201.74 219.18ZM1203.34 220.9C1202.48 222.2 1200.98 224.04 1199.82 225.12L1200.64 225.58C1201.8 224.52 1203.28 222.84 1204.4 221.46L1203.34 220.9ZM1201.6 225.22V230.62H1202.78V225.22H1201.6ZM1199.98 226.74C1199.74 227.82 1199.38 228.94 1198.8 229.76C1199.1 229.88 1199.58 230.16 1199.8 230.32C1200.34 229.48 1200.82 228.2 1201.12 226.98L1199.98 226.74ZM1210.3 224.86L1210.46 226C1212.02 225.94 1214.04 225.86 1216.08 225.76L1216.1 224.76C1213.9 224.82 1211.8 224.84 1210.3 224.86ZM1210.58 221.94C1211.4 222.58 1212.4 223.48 1212.88 224.08L1213.56 223.16C1213.1 222.58 1212.08 221.72 1211.26 221.14L1210.58 221.94ZM1214.34 223.78C1215.1 224.6 1215.98 225.76 1216.36 226.5L1217.26 225.92C1216.86 225.18 1215.98 224.1 1215.18 223.26L1214.34 223.78ZM1214.8 227.12C1215.38 228 1215.98 229.22 1216.22 230L1217.2 229.52C1216.96 228.76 1216.34 227.58 1215.72 226.7L1214.8 227.12ZM1213.12 219.18C1212.72 219.96 1211.98 221.14 1211.4 221.84L1212.28 222.26C1212.86 221.58 1213.6 220.56 1214.2 219.64L1213.12 219.18ZM1214.94 220.74C1214.02 222.08 1212.42 223.94 1211.2 225.06L1212 225.54C1213.26 224.46 1214.82 222.72 1216 221.3L1214.94 220.74ZM1213.02 225.22V230.62H1214.22V225.22H1213.02ZM1211.34 226.74C1211.12 227.78 1210.74 228.84 1210.16 229.62C1210.46 229.74 1210.94 229.98 1211.16 230.14C1211.7 229.32 1212.16 228.12 1212.44 226.98L1211.34 226.74ZM1205.72 219.74V220.62H1210.02V219.74H1205.72ZM1205.68 223.26V224.14H1210.08V223.26H1205.68ZM1203.54 231.12V232.36H1216.5V231.12H1203.54ZM1205.68 224.98V225.84H1210.08V224.98H1205.68ZM1204.9 221.46V222.42H1210.68V221.46H1204.9ZM1212.08 231.48C1209.86 234.58 1204.44 235.88 1198.8 236.38C1199.04 236.7 1199.42 237.34 1199.54 237.68C1205.24 236.96 1210.86 235.56 1213.52 231.94L1212.08 231.48ZM1204.82 229.34C1203.7 231.16 1201.48 232.68 1199.24 233.58C1199.56 233.8 1200.08 234.34 1200.3 234.6C1202.54 233.56 1204.9 231.86 1206.18 229.76L1204.82 229.34ZM1203.76 232.04L1202.56 232.62C1205.54 235.44 1210.98 237.06 1216.48 237.64C1216.66 237.26 1217 236.7 1217.28 236.36C1211.82 235.92 1206.38 234.44 1203.76 232.04ZM1206.74 227.62H1209V229.08H1206.74V227.62ZM1205.64 226.74V229.96H1210.12V226.74H1205.64ZM1227.72 219.7V234.52C1227.72 236.72 1228.36 237.32 1230.46 237.32C1230.92 237.32 1234.06 237.32 1234.58 237.32C1236.66 237.32 1237.1 236.18 1237.34 232.9C1236.9 232.8 1236.28 232.52 1235.9 232.24C1235.76 235.16 1235.6 235.9 1234.5 235.9C1233.82 235.9 1231.1 235.9 1230.56 235.9C1229.44 235.9 1229.24 235.66 1229.24 234.54V219.7H1227.72ZM1235.22 223.02C1233.52 224.58 1230.66 226.44 1228.1 227.78C1228.32 228.1 1228.62 228.62 1228.72 228.96C1231.36 227.58 1234.3 225.96 1236.32 224.3L1235.22 223.02ZM1224.24 219.52C1222.92 222.68 1220.72 225.72 1218.4 227.66C1218.7 228.02 1219.16 228.8 1219.32 229.16C1221.8 226.94 1224.2 223.52 1225.7 220L1224.24 219.52ZM1221.96 224.74V237.58H1223.44V223.3L1223.42 223.28L1221.96 224.74Z" fill="white"/>
</svg>
