<svg width="840" height="472" viewBox="0 0 840 472" fill="none" xmlns="http://www.w3.org/2000/svg">
<mask id="mask0_2992_12742" style="mask-type:alpha" maskUnits="userSpaceOnUse" x="0" y="0" width="840" height="472">
<rect width="840" height="472" fill="#D9D9D9"/>
</mask>
<g mask="url(#mask0_2992_12742)">
<rect width="840" height="472" fill="#0C1C24"/>
<circle cx="549" cy="243" r="5.5" stroke="#EDEFED"/>
<path d="M373 243L542 243" stroke="#EDEFED"/>
<circle cx="549" cy="102" r="5.5" stroke="#EDEFED"/>
<path d="M373 102L542 102" stroke="#EDEFED"/>
<circle cx="279" cy="472" r="436" fill="#FF0A00" fill-opacity="0.2"/>
<circle cx="279" cy="470" r="282" fill="#FF0A00" fill-opacity="0.4"/>
<circle cx="279" cy="472" r="150" fill="#FF0A00"/>
<path d="M217.256 376.9H231.656V383.74H217.256V376.9ZM214.628 374.308V386.332H234.392V374.308H214.628ZM209.408 390.148V405.88H211.964V392.74H219.524V405.592H222.224V390.148H209.408ZM226.148 390.148V405.88H228.74V392.74H236.984V405.664H239.684V390.148H226.148ZM210.56 401.344V403.936H220.604V401.344H210.56ZM227.48 401.344V403.936H238.172V401.344H227.48ZM257.288 396.016V398.392H277.592V396.016H257.288ZM269.42 390.976V405.844H271.976V390.976H269.42ZM265.892 372.652C265.496 374.02 264.704 375.928 264.02 377.26L266.216 377.872C267.008 376.72 268.052 374.884 268.952 373.264L265.892 372.652ZM266.504 377.584V383.38C266.504 387.016 265.496 391.3 258.62 394.216C259.16 394.576 260.024 395.296 260.42 395.764C267.692 392.632 268.844 387.772 268.844 383.452V377.584H266.504ZM247.928 382.66V385.036H257.972V382.66H247.928ZM252.644 372.796V384.1H255.02V372.796H252.644ZM248.072 390.328V392.668H253.724V405.88H256.136V390.328H248.072ZM246.776 373.516V387.304C246.776 392.596 246.452 399.868 244.364 405.052C245.084 405.268 246.164 405.664 246.704 405.952C248.756 400.516 249.152 393.064 249.152 387.304V373.516H246.776ZM261.284 384.172H274.064V387.988H261.284V384.172ZM261.284 378.376H274.064V382.12H261.284V378.376ZM258.836 376.216V390.112H276.584V376.216H258.836ZM286.412 372.868V405.844H288.86V372.868H286.412ZM281.3 384.856V387.412H292.892V384.856H281.3ZM286.268 386.188C285.296 390.364 283.028 395.836 280.904 398.644C281.372 399.4 282.056 400.588 282.344 401.416C284.612 398.104 286.844 391.768 287.96 386.944L286.268 386.188ZM288.788 388.096L287.456 389.14C288.464 390.688 290.984 395.152 291.74 397.024L293.54 394.936C292.856 393.784 289.688 389.14 288.788 388.096ZM281.696 375.568C282.632 378.052 283.46 381.364 283.676 383.488L285.656 382.984C285.404 380.86 284.576 377.62 283.532 375.1L281.696 375.568ZM291.668 374.956C291.164 377.404 290.156 380.932 289.364 383.056L291.02 383.596C291.956 381.58 293.036 378.196 293.936 375.532L291.668 374.956ZM295.16 375.712V377.764H313.484V375.712H295.16ZM296.06 379.996V381.976H312.692V379.996H296.06ZM294.152 384.424V386.512H314.384V384.424H294.152ZM302.72 372.796V385.576H305.312V372.796H302.72ZM296.42 388.708V405.844H298.976V390.76H310.28V388.708H296.42ZM309.452 388.708V403.108C309.452 403.504 309.344 403.648 308.876 403.648C308.408 403.648 306.932 403.648 305.312 403.612C305.636 404.26 305.96 405.196 306.104 405.844C308.336 405.844 309.848 405.844 310.784 405.484C311.756 405.088 312.008 404.404 312.008 403.108V388.708H309.452ZM297.788 393.424V395.368H310.496V393.424H297.788ZM297.788 398.068V400.012H310.496V398.068H297.788ZM333.356 386.116V388.492H349.124V386.116H333.356ZM333.284 393.244V395.692H349.52V393.244H333.284ZM339.728 372.76V405.88H342.32V372.76H339.728ZM331.988 379.024V397.24H334.508V381.472H347.828V397.06H350.384V379.024H331.988ZM318.56 379.528V382.012H329.432V379.528H318.56ZM323.492 372.796V380.752H326.12V372.796H323.492ZM326.408 387.7L324.86 389.068C326.012 390.184 328.856 393.136 329.9 394.468L331.484 392.272C330.692 391.48 327.38 388.42 326.408 387.7ZM328.46 379.528V380.104C326.444 385.54 321.728 391.012 317.228 393.928C317.696 394.396 318.38 395.656 318.632 396.34C323.42 392.992 328.532 386.944 331.016 380.392L329.504 379.42L329.036 379.528H328.46ZM323.492 390.364V405.844H326.12V387.124L323.492 390.364Z" fill="white"/>
<path d="M173.52 430.04V431.14H178.4V430.04H173.52ZM173.32 442.6V443.74H179.56V442.6H173.32ZM172.42 434.52V435.52H179.1V434.52H172.42ZM171.78 432.24V435.5C171.78 437.8 171.52 440.94 169.66 443.22C169.94 443.4 170.48 443.88 170.68 444.16C172.72 441.68 173.1 438.06 173.1 435.54V432.24H171.78ZM172.52 432.24V433.36H178.38V436.7H172.48V437.82H179.74V432.24H172.52ZM172.78 439.06V444.58H174.08V440.2H178.7V444.44H180.04V439.06H172.78ZM181.38 428.62V439.7H182.82V428.62H181.38ZM185.88 426.58V442.64C185.88 443 185.74 443.12 185.36 443.12C185 443.14 183.8 443.16 182.44 443.1C182.66 443.54 182.9 444.22 182.96 444.6C184.76 444.62 185.84 444.58 186.46 444.32C187.08 444.08 187.34 443.64 187.34 442.62V426.58H185.88ZM174.94 426.4C173.96 428.04 172.14 430.08 169.66 431.56C169.96 431.78 170.42 432.26 170.62 432.6C173.26 430.88 175.1 428.78 176.24 427.16V426.72H175.76V426.4H174.94ZM175.22 426.4V427.46H175.52C176.98 428.52 178.8 430.28 179.74 431.32L180.74 430.2C179.72 429.14 177.82 427.52 176.3 426.4H175.22ZM200.74 432.96V434.36H208.18V432.96H200.74ZM190.22 428.3V429.58H199.04V428.3H190.22ZM190 436.24V437.54H199.14V436.24H190ZM189.94 432.88V434.16H199.28V432.88H189.94ZM204.46 433.52V444.5H205.92V433.52H204.46ZM193.92 426.28V428.96H195.38V426.28H193.92ZM193.92 433.92V444.58H195.38V433.92H193.92ZM200.02 427.84V434.84C200.02 437.68 199.74 441.14 197.18 443.66C197.54 443.86 198.08 444.36 198.26 444.7C201.08 441.92 201.44 437.86 201.44 434.86V428.68C201.72 428.64 201.84 428.56 201.86 428.4L200.02 427.84ZM206.72 426.44C205.26 427.16 202.62 427.86 200.38 428.34C200.56 428.64 200.76 429.16 200.84 429.48C203.24 429.06 206.04 428.38 207.92 427.54L206.72 426.44ZM195.24 437.92L194.42 438.6C195.16 439.22 197.04 440.98 197.68 441.72L198.56 440.6C198.06 440.14 195.88 438.36 195.24 437.92ZM191.42 429.94C191.82 430.86 192.14 432.06 192.2 432.84L193.46 432.5C193.36 431.74 193.02 430.56 192.6 429.68L191.42 429.94ZM196.54 429.64C196.32 430.48 195.9 431.72 195.54 432.52L196.74 432.8C197.1 432.06 197.52 430.94 197.9 429.94L196.54 429.64ZM193.94 436.9C192.98 438.86 191.16 441.02 189.54 442.08C189.88 442.32 190.32 442.8 190.56 443.14C192.16 441.9 194 439.54 195.02 437.32L193.94 436.9ZM219.4 425.4H218.58V445.4H219.4V425.4ZM238 434V435.26H241.42V434H238ZM240.96 434V434.22C240.88 438.28 240.8 439.66 240.58 439.98C240.48 440.14 240.32 440.18 240.1 440.18C239.86 440.18 239.28 440.18 238.62 440.1C238.82 440.48 238.96 441.06 238.98 441.48C239.66 441.52 240.34 441.52 240.72 441.46C241.18 441.42 241.44 441.28 241.7 440.92C242.08 440.42 242.16 438.86 242.24 434.58C242.24 434.4 242.24 434 242.24 434H240.96ZM244.98 426.92C245.74 427.64 246.64 428.66 247.04 429.3L248.08 428.64C247.66 427.98 246.76 427.02 245.98 426.36L244.98 426.92ZM246.42 432.88C245.44 437.6 243.34 441.48 240.66 443.74C240.98 443.94 241.42 444.3 241.62 444.52C244.38 442.14 246.56 438.18 247.72 433.38L246.42 432.88ZM242.92 426.26C243.1 436.74 243.62 444.5 246.62 444.62C247.34 444.64 248.08 443.78 248.46 440.52C248.22 440.4 247.64 440.06 247.4 439.8C247.26 441.74 247.02 442.92 246.64 442.92C245 442.82 244.28 435.44 244.26 426.26H242.92ZM237.7 429.9V431.26H248.06V429.9H237.7ZM237.12 429.9V435.18C237.12 437.74 236.98 441.22 235.62 443.76C235.94 443.9 236.52 444.38 236.74 444.64C238.24 441.96 238.5 437.94 238.5 435.18V429.9H237.12ZM230.58 432.26V433.46H235.72V432.26H230.58ZM230.7 426.92V428.12H235.66V426.92H230.7ZM230.58 434.94V436.14H235.72V434.94H230.58ZM229.76 429.54V430.78H236.22V429.54H229.76ZM231.28 437.64V438.88H234.44V442.22H231.28V443.46H235.7V437.64H231.28ZM230.54 437.64V444.4H231.78V437.64H230.54ZM257.08 427.16V428.38H266.34V427.16H257.08ZM256.84 432.7V433.94H266.7V432.7H256.84ZM256.84 435.48V436.72H266.66V435.48H256.84ZM257.42 442.42V443.66H266.1V442.42H257.42ZM255.2 429.92V431.18H268.22V429.92H255.2ZM256.64 438.26V444.6H258.08V439.48H265.38V444.54H266.88V438.26H256.64ZM254.52 426.26C253.36 429.3 251.4 432.28 249.38 434.18C249.66 434.54 250.08 435.32 250.22 435.66C252.44 433.44 254.58 430.08 255.94 426.7L254.52 426.26ZM252.44 431.42V444.56H253.88V430.02L253.86 430L252.44 431.42ZM279.4 425.4H278.58V445.4H279.4V425.4ZM291.76 426.94V428.34H296.4V426.94H291.76ZM291.76 431.62V433.02H296.44V431.62H291.76ZM299.56 433.8V435.2H306.82V433.8H299.56ZM291.72 436.42V437.84H296.4V436.42H291.72ZM291.14 426.94V434.14C291.14 437.08 291.04 441.1 289.66 443.92C290.02 444.06 290.62 444.4 290.9 444.64C292.32 441.68 292.52 437.26 292.52 434.14V426.94H291.14ZM295.56 426.94V442.8C295.56 443.08 295.46 443.16 295.18 443.18C294.94 443.2 294.1 443.2 293.16 443.18C293.36 443.56 293.54 444.24 293.6 444.6C294.96 444.62 295.76 444.58 296.28 444.34C296.78 444.08 296.96 443.62 296.96 442.82V426.94H295.56ZM305.78 427V430.86C305.78 431.1 305.7 431.18 305.38 431.18C305.06 431.2 304 431.2 302.8 431.18C302.98 431.54 303.2 432.04 303.28 432.46C304.8 432.46 305.8 432.46 306.42 432.24C307.06 432.02 307.22 431.62 307.22 430.88V427H305.78ZM306.42 433.8V434.08C305.56 438.46 303.08 441.88 300.24 443.38C300.54 443.64 300.94 444.16 301.12 444.5C304.24 442.64 306.8 439.18 307.8 434.06L306.92 433.76L306.68 433.8H306.42ZM301.8 434.66L300.6 434.98C301.86 439.24 304.18 442.86 307.42 444.62C307.64 444.28 308.06 443.76 308.4 443.48C305.26 441.96 302.94 438.54 301.8 434.66ZM298.72 427V444.6H300.14V428.4H306.18V427H298.72ZM310.14 427.2V428.5H316.96V427.2H310.14ZM317.86 437.42V438.72H326.54V437.42H317.86ZM309.92 433.24V434.58H317.44V433.24H309.92ZM313.42 433.78V442.86C313.42 443.08 313.34 443.14 313.12 443.16C312.88 443.16 312.08 443.16 311.22 443.14C311.42 443.54 311.62 444.16 311.66 444.54C312.9 444.54 313.68 444.52 314.18 444.3C314.72 444.04 314.86 443.64 314.86 442.86V433.78H313.42ZM326.02 437.42V437.66C325.72 441.16 325.36 442.56 324.94 442.96C324.76 443.14 324.58 443.16 324.26 443.16C323.94 443.16 323.14 443.14 322.28 443.06C322.5 443.46 322.64 444.06 322.68 444.46C323.58 444.52 324.46 444.52 324.92 444.48C325.46 444.44 325.82 444.32 326.18 443.96C326.76 443.36 327.12 441.84 327.5 438.08C327.54 437.86 327.56 437.42 327.56 437.42H326.02ZM321.6 435.44C321.26 438.9 320.48 441.92 316.32 443.46C316.64 443.72 317.04 444.26 317.22 444.62C321.74 442.86 322.72 439.48 323.1 435.44H321.6ZM310.84 430.54C312.54 431.3 314.58 432.56 315.58 433.48L316.58 432.38C315.54 431.46 313.46 430.28 311.78 429.58L310.84 430.54ZM317.04 433.24V433.5C316.72 434.94 316.22 436.72 315.7 437.82L316.76 438.34C317.38 437.1 317.98 435.18 318.4 433.5L317.48 433.18L317.26 433.24H317.04ZM325.06 428.92C323.98 432.02 321.18 433.8 317.54 434.72C317.84 435.04 318.3 435.66 318.48 435.98C322.26 434.8 325.26 432.8 326.6 429.18L325.06 428.92ZM320.78 426.2C319.98 428.12 318.52 429.94 316.94 431.12C317.32 431.32 317.92 431.74 318.18 432C319.72 430.72 321.26 428.72 322.2 426.58L320.78 426.2ZM320.42 429.34L319.18 429.76C320.78 432.84 323.78 435.08 327.44 436.06C327.64 435.66 328.08 435.08 328.4 434.78C324.84 434 321.86 432 320.42 429.34ZM313.24 433.68C312.58 435.98 311.16 438.6 309.72 439.96C309.98 440.32 310.34 440.94 310.5 441.36C312.06 439.8 313.5 436.7 314.26 434.06L313.24 433.68ZM320.34 428.32L319.72 429.6H327.98V428.32H320.34ZM316.6 427.2V427.48C315.94 428.56 314.54 430.02 313.26 430.86C313.56 431.04 314.02 431.36 314.28 431.6C315.66 430.68 317.22 429.16 318.14 427.76L317.16 427.14L316.92 427.2H316.6ZM339.4 425.4H338.58V445.4H339.4V425.4ZM356.48 433H361.34V437.6H356.48V433ZM355.06 431.66V438.92H362.84V431.66H355.06ZM350.64 427.02V444.58H352.18V428.54H365.76V444.58H367.36V427.02H350.64ZM351.5 442.1V443.52H366.68V442.1H351.5ZM377.44 431.92V433H388.28V431.92H377.44ZM379.7 428.56H386V429.92H379.7V428.56ZM378.44 427.56V430.9H387.32V427.56H378.44ZM382.1 426.18V432.48H383.48V426.18H382.1ZM379.88 437.02H385.82V438.2H379.88V437.02ZM379.88 439.12H385.82V440.32H379.88V439.12ZM379.88 434.92H385.82V436.08H379.88V434.92ZM378.5 433.94V441.3H387.24V433.94H378.5ZM383.74 442.18C385.04 442.98 386.52 444.02 387.38 444.78L388.5 444.02C387.58 443.24 386.04 442.22 384.66 441.44L383.74 442.18ZM380.6 441.5C379.68 442.38 378.06 443.18 376.58 443.7C376.88 443.96 377.38 444.52 377.58 444.78C379.1 444.14 380.9 443.08 381.96 441.96L380.6 441.5ZM370.98 432.04V444.58H372.24V432.04H370.98ZM371.76 434.34V435.32H376.4V434.34H371.76ZM372.18 429.8V430.9H376.1V429.8H372.18ZM371.72 438.94V440.1H376.96V438.94H371.72ZM371.76 441.42V442.64H377.14V441.42H371.76ZM371.7 432.04V433.1H375.68V436.62H371.7V437.68H376.94V432.04H371.7ZM373.1 426.22C372.38 427.7 371.14 429.6 369.42 431.06C369.74 431.24 370.18 431.64 370.4 431.94C372.24 430.3 373.5 428.32 374.3 426.92V426.54H373.86V426.22H373.1ZM373.54 426.22V427.16H373.78C374.98 428.18 376.34 429.86 377.02 430.88L377.96 429.84C377.26 428.84 375.8 427.3 374.58 426.22H373.54Z" fill="#FFFBF7"/>
<path d="M217.256 230.9H231.656V237.74H217.256V230.9ZM214.628 228.308V240.332H234.392V228.308H214.628ZM209.408 244.148V259.88H211.964V246.74H219.524V259.592H222.224V244.148H209.408ZM226.148 244.148V259.88H228.74V246.74H236.984V259.664H239.684V244.148H226.148ZM210.56 255.344V257.936H220.604V255.344H210.56ZM227.48 255.344V257.936H238.172V255.344H227.48ZM257.288 250.016V252.392H277.592V250.016H257.288ZM269.42 244.976V259.844H271.976V244.976H269.42ZM265.892 226.652C265.496 228.02 264.704 229.928 264.02 231.26L266.216 231.872C267.008 230.72 268.052 228.884 268.952 227.264L265.892 226.652ZM266.504 231.584V237.38C266.504 241.016 265.496 245.3 258.62 248.216C259.16 248.576 260.024 249.296 260.42 249.764C267.692 246.632 268.844 241.772 268.844 237.452V231.584H266.504ZM247.928 236.66V239.036H257.972V236.66H247.928ZM252.644 226.796V238.1H255.02V226.796H252.644ZM248.072 244.328V246.668H253.724V259.88H256.136V244.328H248.072ZM246.776 227.516V241.304C246.776 246.596 246.452 253.868 244.364 259.052C245.084 259.268 246.164 259.664 246.704 259.952C248.756 254.516 249.152 247.064 249.152 241.304V227.516H246.776ZM261.284 238.172H274.064V241.988H261.284V238.172ZM261.284 232.376H274.064V236.12H261.284V232.376ZM258.836 230.216V244.112H276.584V230.216H258.836ZM292.136 228.956V259.88H294.656V231.368H310.604V259.592H313.196V228.956H292.136ZM296.132 236.588V238.712H309.38V236.588H296.132ZM293.504 255.308V257.72H312.044V255.308H293.504ZM301.604 232.52V243.932H303.8V232.52H301.604ZM299.732 244.688H305.816V250.268H299.732V244.688ZM297.644 242.672V252.32H307.976V242.672H297.644ZM288.392 226.94C286.628 232.412 283.676 237.848 280.436 241.376C280.904 242.024 281.66 243.5 281.876 244.148C285.476 240.008 288.824 233.816 290.876 227.66L288.392 226.94ZM285.404 235.76V259.952H287.96V233.24L287.924 233.204L285.404 235.76ZM322.736 226.76V259.844H325.472V226.76H322.736ZM319.424 233.6C319.172 236.516 318.524 240.476 317.552 242.888L319.676 243.608C320.648 241.016 321.296 236.84 321.476 233.924L319.424 233.6ZM325.724 233.384C326.732 235.4 327.812 238.028 328.208 239.612L330.224 238.604C329.828 237.056 328.712 234.5 327.596 232.556L325.724 233.384ZM333.068 228.452C332.276 233.312 330.836 238.208 328.712 241.376C329.396 241.664 330.62 242.24 331.16 242.636C333.176 239.252 334.76 234.14 335.696 228.884L333.068 228.452ZM333.104 234.392L332.276 236.984H349.844V234.392H333.104ZM338.936 226.904V257.504H341.636V226.904H338.936ZM331.268 244.472V247.028H349.052V244.472H331.268ZM328.568 256.028V258.62H350.708V256.028H328.568Z" fill="white"/>
<path d="M217.256 88.9H231.656V95.74H217.256V88.9ZM214.628 86.308V98.332H234.392V86.308H214.628ZM209.408 102.148V117.88H211.964V104.74H219.524V117.592H222.224V102.148H209.408ZM226.148 102.148V117.88H228.74V104.74H236.984V117.664H239.684V102.148H226.148ZM210.56 113.344V115.936H220.604V113.344H210.56ZM227.48 113.344V115.936H238.172V113.344H227.48ZM257.288 108.016V110.392H277.592V108.016H257.288ZM269.42 102.976V117.844H271.976V102.976H269.42ZM265.892 84.652C265.496 86.02 264.704 87.928 264.02 89.26L266.216 89.872C267.008 88.72 268.052 86.884 268.952 85.264L265.892 84.652ZM266.504 89.584V95.38C266.504 99.016 265.496 103.3 258.62 106.216C259.16 106.576 260.024 107.296 260.42 107.764C267.692 104.632 268.844 99.772 268.844 95.452V89.584H266.504ZM247.928 94.66V97.036H257.972V94.66H247.928ZM252.644 84.796V96.1H255.02V84.796H252.644ZM248.072 102.328V104.668H253.724V117.88H256.136V102.328H248.072ZM246.776 85.516V99.304C246.776 104.596 246.452 111.868 244.364 117.052C245.084 117.268 246.164 117.664 246.704 117.952C248.756 112.516 249.152 105.064 249.152 99.304V85.516H246.776ZM261.284 96.172H274.064V99.988H261.284V96.172ZM261.284 90.376H274.064V94.12H261.284V90.376ZM258.836 88.216V102.112H276.584V88.216H258.836ZM281.912 86.992V89.548H300.452V86.992H281.912ZM281.336 98.872V101.392H300.956V98.872H281.336ZM294.404 87.676V117.88H297.068V87.676H294.404ZM286.052 87.64V99.232C286.052 105.28 285.548 111.472 281.156 116.296C281.804 116.692 282.776 117.556 283.208 118.096C288.032 112.804 288.608 106 288.608 99.232V87.64H286.052ZM310.28 85.372C308.084 88.288 303.944 91.312 300.488 93.04C301.208 93.544 302 94.372 302.468 94.948C306.104 92.932 310.172 89.728 312.836 86.416L310.28 85.372ZM311.36 95.272C308.948 98.404 304.556 101.68 300.884 103.552C301.568 104.056 302.36 104.884 302.792 105.46C306.644 103.3 311.036 99.844 313.808 96.316L311.36 95.272ZM312.152 105.028C309.452 109.528 304.34 113.488 299.012 115.72C299.696 116.26 300.488 117.232 300.92 117.88C306.5 115.288 311.648 111.004 314.708 106.036L312.152 105.028ZM328.388 102.94C335.768 107.296 336.56 113.416 334.112 115.036C333.428 115.54 332.636 115.612 331.772 115.612C330.98 115.612 329.756 115.612 328.532 115.468C329 116.188 329.252 117.232 329.288 117.916C330.368 117.952 331.448 117.988 332.24 117.988C333.716 117.988 334.652 117.736 335.84 116.98C339.548 114.568 338.756 106.468 330.152 101.572L328.388 102.94ZM332.096 104.128C329.216 106.324 323.564 108.412 319.136 109.348C319.604 109.816 320.288 110.68 320.648 111.256C325.112 110.14 330.836 107.692 334.004 105.136L332.096 104.128ZM334.508 107.404C330.98 110.644 324.14 113.74 318.488 115.108C319.028 115.648 319.748 116.584 320.108 117.16C325.652 115.54 332.6 112.156 336.452 108.484L334.508 107.404ZM327.56 87.172V89.332H338.18V87.172H327.56ZM334.184 98.728C330.62 101.104 324.32 103.084 318.956 104.164C319.388 104.632 320.108 105.676 320.396 106.144C325.76 104.812 332.312 102.544 336.272 99.736L334.184 98.728ZM337.28 99.196L335.048 99.736C337.388 107.98 341.996 114.028 349.34 116.8C349.7 116.08 350.492 115.072 351.068 114.568C344.012 112.264 339.404 106.54 337.28 99.196ZM347.72 100.744C345.524 102.616 341.636 105.1 338.864 106.504L340.556 107.908C343.4 106.576 347.144 104.308 349.916 102.364L347.72 100.744ZM324.86 94.12H344.552V98.26H324.86V94.12ZM322.304 92.032V100.348H347.18V92.032H322.304ZM328.532 84.652C326.624 87.604 323.096 91.168 318.38 93.76C318.956 94.156 319.82 95.02 320.216 95.632C325.184 92.608 328.82 88.828 331.34 85.228L328.532 84.652ZM333.14 93.04V99.448H335.804V93.04H333.14ZM337.172 87.172V87.712C336.452 89.188 334.868 91.42 333.392 92.716C334.004 93.04 334.868 93.616 335.372 93.976C336.956 92.572 338.864 90.268 340.016 88.252L338.18 87.064L337.748 87.172H337.172Z" fill="white"/>
<path d="M181 292.94V294.22H195.94V292.94H181ZM195.3 292.94L195.28 293.14C195.04 295.74 194.74 296.84 194.36 297.16C194.18 297.32 193.96 297.34 193.54 297.34C193.12 297.34 191.88 297.32 190.68 297.2C190.9 297.58 191.08 298.12 191.12 298.52C192.34 298.58 193.52 298.6 194.12 298.56C194.76 298.54 195.2 298.44 195.58 298.08C196.12 297.58 196.46 296.38 196.76 293.58C196.8 293.38 196.82 292.94 196.82 292.94H195.3ZM188.12 291.24C187.64 294.64 186.36 296.54 180.24 297.4C180.52 297.7 180.84 298.3 180.94 298.66C187.48 297.62 189.06 295.3 189.66 291.24H188.12ZM181.5 280.98V282.16H194.82V280.98H181.5ZM194.38 280.98V281.3C193.16 282.18 190.74 283.26 188.72 283.84C188.96 284.04 189.34 284.48 189.52 284.74C191.78 284.06 194.34 282.94 196.14 281.8L195.12 280.9L194.78 280.98H194.38ZM184.6 283.48C186.9 284.08 189.88 285.14 191.38 285.94L192.48 284.98C190.86 284.18 187.88 283.2 185.64 282.66L184.6 283.48ZM183.5 288.76H194.76V290.34H183.5V288.76ZM183.5 286.1H194.76V287.68H183.5V286.1ZM182.06 285V291.46H196.28V285H182.06ZM188.26 285.32V290.9H189.7V285.32H188.26ZM199.88 283.48V284.88H208.4V283.48H199.88ZM202.84 287.64V289.02H206.46V287.64H202.84ZM203.42 280.24V283.98H204.9V280.24H203.42ZM212.9 281.94C213.84 284.48 215.6 287.24 217.62 288.88C217.82 288.42 218.14 287.82 218.42 287.42C216.5 286.04 214.66 283.16 213.62 280.22H212.08C211.3 282.94 209.56 285.96 207.56 287.54C207.82 287.9 208.16 288.5 208.32 288.9C210.36 287.24 212.08 284.38 212.9 281.94ZM202.06 284.3C202.02 289.66 201.86 294.8 199.58 297.62C199.96 297.88 200.48 298.34 200.72 298.68C203.2 295.54 203.44 290.1 203.54 284.3H202.06ZM206 287.64V287.94C205.88 294.32 205.72 296.52 205.36 297C205.2 297.22 205.04 297.28 204.74 297.26C204.42 297.26 203.68 297.26 202.84 297.2C203.08 297.58 203.22 298.16 203.26 298.56C204.1 298.62 204.94 298.62 205.42 298.58C205.96 298.5 206.3 298.36 206.62 297.92C207.14 297.22 207.26 294.98 207.4 288.34C207.42 288.12 207.42 287.64 207.42 287.64H206ZM210.74 288.86C212.1 289.74 213.68 291.04 214.42 291.98L215.46 290.92C214.7 290 213.08 288.76 211.72 287.92L210.74 288.86ZM209.12 294.28C211.56 295.42 214.48 297.26 215.9 298.62L216.86 297.3C215.42 295.96 212.44 294.2 210.02 293.14L209.12 294.28ZM228.2 280.2V283.08H229.74V280.2H228.2ZM225.84 283.38C225.5 286.26 224.58 287.9 220.28 288.74C220.58 289.02 220.94 289.58 221.08 289.94C225.82 288.92 227.02 286.88 227.42 283.38H225.84ZM230.4 283.4V287.1C230.4 288.5 230.84 288.9 232.58 288.9C232.94 288.9 235.08 288.9 235.44 288.9C236.74 288.9 237.16 288.44 237.3 286.68C236.9 286.6 236.32 286.4 236.02 286.18C235.94 287.46 235.84 287.64 235.28 287.64C234.84 287.64 233.08 287.64 232.74 287.64C232 287.64 231.88 287.58 231.88 287.1V283.4H230.4ZM220.54 282.24V285.86H222.04V283.6H236.02V285.6H237.58V282.24H220.54ZM220.12 291.22V292.62H237.88V291.22H220.12ZM228.08 288.62C227.72 293.42 226.84 296.12 219.84 297.3C220.14 297.62 220.52 298.24 220.64 298.62C228.08 297.26 229.22 294.08 229.68 288.62H228.08ZM230.08 291.66L228.68 291.92C229.88 295.98 232.38 297.92 237.24 298.6C237.44 298.16 237.86 297.5 238.22 297.14C233.56 296.68 231.08 295.02 230.08 291.66ZM240.02 281.28V282.66H246.74V281.28H240.02ZM241.98 287.44V288.78H244.92V294.74H241.98V296.08H246.26V287.44H241.98ZM242.6 281.94C242.06 285.28 241.1 288.4 239.54 290.44C239.8 290.84 240.16 291.7 240.24 292.06C242.12 289.66 243.3 286.02 244.04 282.24L242.6 281.94ZM241.34 287.44V297.7H242.66V287.44H241.34ZM248.44 283.3V284.66H256.82V283.3H248.44ZM256.46 283.3V283.54C256.24 284.74 255.86 286.22 255.5 287.14L256.68 287.46C257.1 286.46 257.56 284.86 257.88 283.5L256.92 283.24L256.7 283.3H256.46ZM251.88 280.22V288.7H253.24V280.22H251.88ZM247.76 283.3V288.44C247.76 291.26 247.58 295.1 245.78 297.84C246.1 297.98 246.7 298.36 246.92 298.58C248.8 295.7 249.1 291.42 249.1 288.44V283.3H247.76ZM248.56 288.02V289.34H256.04V288.02H248.56ZM255.8 288.02V288.28C254.72 292.8 251.56 296.06 248.1 297.4C248.4 297.68 248.78 298.22 248.94 298.56C252.66 296.92 255.92 293.56 257.18 288.3L256.32 287.96L256.06 288.02H255.8ZM250.16 288.88L248.92 289.22C250.44 293.64 253.24 296.98 257.24 298.58C257.44 298.2 257.88 297.64 258.18 297.38C254.3 296.02 251.5 292.86 250.16 288.88ZM269.4 279.4H268.58V299.4H269.4V279.4ZM291.44 284.86V287.1H292.84V284.86H291.44ZM288.32 284.42V285.46H296V284.42H288.32ZM286.56 290.54V291.48H295.82V290.54H286.56ZM295.66 290.46V291.54H298.1V290.46H295.66ZM286.86 286.62V287.64H297.72V286.62H286.86ZM287.64 288.54V289.52H295.16V292.58H287.58V293.56H296.5V288.54H287.64ZM289.08 294.48V296.92C289.08 298.24 289.48 298.56 291.12 298.56C291.46 298.56 293.58 298.56 293.94 298.56C295.1 298.56 295.5 298.18 295.62 296.66C295.26 296.58 294.74 296.4 294.46 296.2C294.4 297.26 294.3 297.4 293.78 297.4C293.32 297.4 291.58 297.4 291.26 297.4C290.54 297.4 290.42 297.32 290.42 296.92V294.48H289.08ZM287.26 294.58C286.96 295.68 286.36 297.04 285.62 297.86L286.78 298.44C287.54 297.56 288.06 296.16 288.42 295L287.26 294.58ZM290.4 294.06C291.28 294.52 292.3 295.32 292.8 295.9L293.64 295.08C293.12 294.52 292.1 293.76 291.22 293.32L290.4 294.06ZM294.78 294.88C295.8 295.9 296.8 297.34 297.22 298.34L298.4 297.7C297.94 296.72 296.94 295.34 295.88 294.36L294.78 294.88ZM295.84 280.34C294.06 280.74 290.84 281.1 288.12 281.26C288.26 281.54 288.42 281.96 288.48 282.26C291.3 282.1 294.62 281.78 296.9 281.26L295.84 280.34ZM287.76 280.98C287.36 282.36 286.68 283.76 285.82 284.72C286.16 284.88 286.74 285.24 286.98 285.42C287.82 284.4 288.6 282.84 289.08 281.28L287.76 280.98ZM290.98 282.4C291.2 283.02 291.38 283.8 291.42 284.34L292.66 284.04C292.62 283.54 292.4 282.76 292.14 282.18L290.98 282.4ZM294.64 282.08C295.54 283 296.52 284.3 296.94 285.18L298.04 284.52C297.58 283.68 296.62 282.44 295.66 281.54L294.64 282.08ZM282.58 281.86V298.62H284V281.86H282.58ZM279.9 285.96V287.34H286.2V285.96H279.9ZM282.64 286.5C282.06 288.94 280.72 292.06 279.48 293.7C279.72 294.04 280.08 294.64 280.24 295.06C281.58 293.18 282.9 289.62 283.56 286.86L282.64 286.5ZM285.28 280.6C284.04 281.2 281.76 281.7 279.82 282.02C280 282.34 280.2 282.82 280.26 283.12C282.3 282.86 284.7 282.36 286.32 281.68L285.28 280.6ZM283.94 287.92L283.28 288.52C283.8 289.18 285.16 291.14 285.56 291.98L286.42 290.86C286.06 290.38 284.4 288.38 283.94 287.92ZM312.16 280.36V296.24H313.56V280.36H312.16ZM307.88 284.64V285.8H318.36V284.64H307.88ZM308.32 292.8V293.96H317.98V292.8H308.32ZM308.92 290.06V291.22H317.42V290.06H308.92ZM304.38 281.86V283.12H307.28V281.86H304.38ZM305.14 287.48V288.64H307.7V287.48H305.14ZM306.96 281.86V282.04C306.3 283.68 304.92 286.96 303.82 289.28L305.08 289.58C306.16 287.24 307.52 284.14 308.34 282.06L307.38 281.8L307.14 281.86H306.96ZM307.3 287.48V287.72C306.9 292.48 305.52 295.86 303.36 297.44C303.66 297.72 304.04 298.22 304.22 298.54C306.7 296.6 308.12 293.14 308.6 287.6L307.8 287.44L307.56 287.48H307.3ZM305.22 290.26L304.06 290.62C305.38 296.82 308.02 298.24 312.8 298.24H317.9C317.98 297.84 318.2 297.2 318.42 296.86C317.56 296.88 313.5 296.88 312.86 296.88C308.78 296.88 306.3 295.68 305.22 290.26ZM309.24 281.96V283.12H315.86V287.36H309.24V288.54H317.16V281.96H309.24ZM303.34 280.32C302.48 283.26 301.04 286.14 299.4 288.04C299.64 288.42 300.02 289.24 300.16 289.58C302 287.36 303.66 284 304.7 280.7L303.34 280.32ZM301.92 285.38V298.56H303.26V284.08L303.24 284.06L301.92 285.38ZM329.4 279.4H328.58V299.4H329.4V279.4ZM345.8 290.5V297.38H347.18V291.8H349.12V297.38H350.3V291.8H352.26V297.38H353.46V291.8H355.44V297.38H356.86V290.5H345.8ZM344 296.7V298.02H358.24V296.7H344ZM340.78 281.48C341.98 282.06 343.46 283.02 344.16 283.74L345.04 282.52C344.32 281.82 342.84 280.92 341.62 280.38L340.78 281.48ZM339.74 286.88C340.98 287.42 342.46 288.3 343.18 288.98L344.06 287.74C343.3 287.08 341.8 286.24 340.58 285.74L339.74 286.88ZM340.22 297.42L341.54 298.34C342.56 296.48 343.76 294 344.64 291.88L343.46 290.98C342.48 293.26 341.16 295.88 340.22 297.42ZM347.9 282.32H354.7V287.82H347.9V282.32ZM346.54 281.14V289H356.14V281.14H346.54ZM350.98 282.68C350.72 284.2 349.82 285.78 348.3 286.64C348.52 286.82 348.84 287.18 348.98 287.38C350.68 286.44 351.74 284.62 352.08 282.8L350.98 282.68ZM350.54 284.74C351.52 285.54 352.76 286.68 353.36 287.38L354.14 286.68C353.52 286 352.28 284.92 351.3 284.16L350.54 284.74ZM366.6 285.62V286.86H377.6V285.62H366.6ZM365.98 288.44V289.7H378.04V288.44H365.98ZM368.74 291.06V292.22H375.6V291.06H368.74ZM367.2 283.06C367.56 283.86 367.96 284.94 368.14 285.62L369.36 285.2C369.18 284.58 368.74 283.52 368.36 282.74L367.2 283.06ZM370.78 282.64C371 283.52 371.22 284.68 371.32 285.38L372.6 285.08C372.5 284.42 372.24 283.3 371.98 282.44L370.78 282.64ZM376.36 280.34C374.02 280.86 369.76 281.2 366.3 281.34C366.44 281.64 366.62 282.14 366.66 282.48C370.18 282.4 374.52 282.08 377.26 281.46L376.36 280.34ZM369.88 291.86L368.62 292.24C370.26 295.56 373.34 297.76 377.46 298.66C377.66 298.28 378.06 297.7 378.38 297.38C374.4 296.68 371.3 294.7 369.88 291.86ZM375.6 282.24C375.12 283.32 374.26 284.86 373.58 285.84L374.7 286.28C375.42 285.34 376.3 283.92 377.02 282.7L375.6 282.24ZM375.26 291.06V291.3C374.16 294.9 371.24 296.7 367.54 297.52C367.82 297.78 368.22 298.32 368.38 298.66C372.22 297.66 375.34 295.62 376.66 291.38L375.82 291.02L375.56 291.06H375.26ZM369.12 286.42C368.84 289.88 368.3 295.04 364.28 297.54C364.64 297.78 365.08 298.26 365.3 298.6C369.54 295.82 370.22 290.4 370.58 286.42H369.12ZM361.22 281.72V283.08H364.3V293.38H361.22V294.74H365.66V281.72H361.22ZM361.3 287.46V288.8H365.02V287.46H361.3ZM360.5 281.72V296.3H361.84V281.72H360.5Z" fill="#FFFBF7"/>
<path d="M185.58 140.26V141.58H197.56V140.26H185.58ZM184.72 154.74V156.02H198.16V154.74H184.72ZM186.64 143.46V155.1H188V144.62H194.98V155.1H196.36V143.46H186.64ZM187.58 146.32V147.44H195.3V146.32H187.58ZM187.54 149.14V150.24H195.6V149.14H187.54ZM187.54 151.96V153.08H195.34V151.96H187.54ZM190.96 138.22C190.8 139.9 190.38 142.34 190 143.82L191.32 143.96C191.74 142.56 192.22 140.22 192.56 138.32L190.96 138.22ZM184.26 138.24C183.2 141.28 181.48 144.26 179.62 146.22C179.88 146.56 180.32 147.34 180.46 147.7C182.52 145.44 184.42 142.04 185.66 138.66L184.26 138.24ZM182.16 143.48V156.6H183.56V142.08L183.54 142.06L182.16 143.48ZM208.62 142.66H215.24V144.3H208.62V142.66ZM208.62 139.96H215.24V141.58H208.62V139.96ZM207.18 138.82V145.44H216.74V138.82H207.18ZM205.94 146.82V148.08H217.7V146.82H205.94ZM205.48 149.8V151.12H218.06V149.8H205.48ZM213.56 147.92V154.92C213.56 155.18 213.48 155.26 213.16 155.28C212.86 155.3 211.86 155.3 210.72 155.26C210.92 155.66 211.16 156.22 211.22 156.62C212.72 156.62 213.68 156.62 214.28 156.38C214.88 156.16 215.06 155.76 215.06 154.96V147.92H213.56ZM207.22 152.14C208.12 153.02 209.2 154.26 209.68 155.06L210.82 154.22C210.3 153.44 209.2 152.26 208.28 151.42L207.22 152.14ZM204.38 142.66C203.18 144.74 201.24 146.8 199.42 148.12C199.68 148.46 200.1 149.26 200.22 149.56C202.2 148 204.34 145.58 205.7 143.2L204.38 142.66ZM204 138.26C203.14 139.68 201.34 141.34 199.74 142.38C200 142.68 200.38 143.26 200.54 143.6C202.32 142.42 204.24 140.54 205.44 138.82L204 138.26ZM202.58 146.2V156.6H204.04V144.82L203.98 144.78L202.58 146.2ZM227.08 139.16V140.38H236.34V139.16H227.08ZM226.84 144.7V145.94H236.7V144.7H226.84ZM226.84 147.48V148.72H236.66V147.48H226.84ZM227.42 154.42V155.66H236.1V154.42H227.42ZM225.2 141.92V143.18H238.22V141.92H225.2ZM226.64 150.26V156.6H228.08V151.48H235.38V156.54H236.88V150.26H226.64ZM224.52 138.26C223.36 141.3 221.4 144.28 219.38 146.18C219.66 146.54 220.08 147.32 220.22 147.66C222.44 145.44 224.58 142.08 225.94 138.7L224.52 138.26ZM222.44 143.42V156.56H223.88V142.02L223.86 142L222.44 143.42ZM239.98 140.5V141.86H248.66V140.5H239.98ZM243.62 138.3V144.58H244.96V138.3H243.62ZM241.68 144.92H246.98V147.64H241.68V144.92ZM240.44 143.68V148.88H248.26V143.68H240.44ZM243.54 148.16C242.74 150.16 241.04 152.54 239.56 153.8C239.8 154.14 240.12 154.72 240.28 155.14C241.9 153.7 243.6 150.92 244.52 148.6L243.54 148.16ZM244.82 149.4L244.14 150.1C244.94 150.76 246.9 152.62 247.56 153.42L248.44 152.16C247.9 151.7 245.52 149.84 244.82 149.4ZM249.22 139.16V140.48H256.88V139.16H249.22ZM250.78 148.48H255.94V149.8H250.78V148.48ZM250.78 150.76H255.94V152.12H250.78V150.76ZM250.78 146.2H255.94V147.5H250.78V146.2ZM249.42 145.2V153.12H257.36V145.2H249.42ZM254.08 153.96C255.2 154.74 256.58 155.88 257.22 156.6L258.38 155.76C257.66 155.02 256.26 153.92 255.16 153.2L254.08 153.96ZM251.24 153.16C250.48 154.04 248.96 155.06 247.62 155.62C247.92 155.88 248.38 156.32 248.62 156.6C249.96 156 251.54 154.94 252.54 153.9L251.24 153.16ZM256.34 139.16V139.36C256.16 141.88 256 142.84 255.74 143.1C255.6 143.26 255.44 143.28 255.18 143.28C254.92 143.28 254.22 143.26 253.52 143.18C253.7 143.54 253.86 144.06 253.88 144.46C254.64 144.5 255.4 144.5 255.78 144.46C256.28 144.44 256.58 144.32 256.86 144C257.28 143.56 257.48 142.44 257.66 139.74C257.7 139.54 257.7 139.16 257.7 139.16H256.34ZM251.92 139.74C251.64 141.88 250.48 143.22 248.52 144C248.82 144.24 249.32 144.76 249.5 145.04C251.62 144.02 252.96 142.42 253.36 139.82L251.92 139.74ZM243.68 144.18V148.54H243.62V156.58H244.96V148.54H244.88V144.18H243.68ZM269.4 137.4H268.58V157.4H269.4V137.4ZM279.92 150.9V152.14H298.08V150.9H279.92ZM280.5 139.76V140.96H297.26V139.76H280.5ZM291.84 149.6V154.96C291.84 155.22 291.74 155.3 291.42 155.32C291.08 155.34 289.96 155.34 288.76 155.3C288.96 155.68 289.16 156.22 289.22 156.6C290.84 156.6 291.86 156.6 292.5 156.4C293.12 156.18 293.28 155.78 293.28 155V149.6H291.84ZM288.22 138.24V148.96H289.7V138.24H288.22ZM283.12 152.98C284.32 153.72 285.72 154.82 286.4 155.62L287.5 154.62C286.8 153.84 285.32 152.78 284.14 152.1L283.12 152.98ZM283.46 145.3H294.58V146.54H283.46V145.3ZM283.46 143.1H294.58V144.32H283.46V143.1ZM282.04 142.1V147.56H296.04V142.1H282.04ZM291.96 147.98C293.54 148.52 295.44 149.56 296.42 150.36L297.32 149.5C296.32 148.76 294.42 147.76 292.82 147.22L291.96 147.98ZM280.72 148.72L280.78 149.9C284.56 149.84 290.24 149.72 295.58 149.58L295.66 148.56C290.18 148.66 284.36 148.72 280.72 148.72ZM300.26 150.56V151.82H317.78V150.56H300.26ZM300.34 141.78V143.06H317.7V141.78H300.34ZM301.14 145.2V146.44H316.98V145.2H301.14ZM302.16 147.9V149.06H316V147.9H302.16ZM308.22 145.78V156.62H309.7V145.78H308.22ZM306.38 138.2V142.38H307.8V138.2H306.38ZM310.16 138.2V142.32H311.6V138.2H310.16ZM307.74 151.06C306.04 152.8 302.7 154.34 299.74 155C300.06 155.32 300.5 155.9 300.72 156.28C303.7 155.44 307.08 153.7 308.94 151.62L307.74 151.06ZM310.18 151.02L309 151.52C310.88 153.68 314.22 155.5 317.26 156.34C317.48 155.92 317.94 155.32 318.28 155C315.24 154.36 311.88 152.82 310.18 151.02ZM314.8 138.44C314.46 139.36 313.8 140.68 313.26 141.52L314.48 141.92C315.04 141.14 315.76 139.96 316.34 138.86L314.8 138.44ZM312.12 142.68C311.88 143.4 311.36 144.44 310.96 145.14L312.22 145.52C312.66 144.88 313.18 143.96 313.68 143.06L312.12 142.68ZM301.96 138.86C302.6 139.8 303.32 141.08 303.6 141.88L304.94 141.38C304.66 140.56 303.92 139.3 303.24 138.4L301.96 138.86ZM304.56 143.2C305 143.86 305.44 144.8 305.6 145.4L307.08 145.08C306.9 144.48 306.44 143.58 305.98 142.92L304.56 143.2ZM329.4 137.4H328.58V157.4H329.4V137.4ZM346.98 148.68C347.5 149.38 347.98 150.3 348.14 150.92L349 150.58C348.84 149.98 348.34 149.08 347.82 148.4L346.98 148.68ZM343.72 146.94C344.52 147.54 345.4 148.4 345.8 149.02L346.42 148.32C346 147.72 345.12 146.9 344.32 146.34L343.72 146.94ZM346.1 145.02C345.76 145.6 345.12 146.5 344.64 147.08L345.38 147.42C345.88 146.9 346.52 146.14 347.06 145.42L346.1 145.02ZM347.54 146.42C346.82 147.42 345.5 148.94 344.5 149.84L345.16 150.2C346.18 149.34 347.46 147.96 348.42 146.82L347.54 146.42ZM349.58 150.92V156.24H350.7V150.92H349.58ZM343.46 149.7L343.6 150.64C344.94 150.56 346.56 150.46 348.26 150.32V149.44C346.44 149.56 344.72 149.64 343.46 149.7ZM352.38 148.58C352.96 149.32 353.5 150.32 353.7 151L354.58 150.66C354.38 149.98 353.8 149 353.24 148.3L352.38 148.58ZM348.58 146.92C349.4 147.52 350.32 148.42 350.72 149.06L351.38 148.38C350.98 147.76 350.04 146.9 349.24 146.32L348.58 146.92ZM351.1 144.98C350.72 145.6 350.02 146.6 349.5 147.2L350.24 147.54C350.8 146.98 351.48 146.16 352.06 145.38L351.1 144.98ZM352.52 146.46C351.76 147.48 350.36 148.98 349.32 149.86L349.98 150.22C351.06 149.38 352.42 148.02 353.42 146.9L352.52 146.46ZM348.84 149.7L349.06 150.64C350.42 150.54 352.1 150.44 353.78 150.3V149.42C351.88 149.54 350.14 149.64 348.84 149.7ZM344.26 151.22V154.04H347.72V153.1H345.28V151.22H344.26ZM352.64 151.22V153.1H350.38V154.04H353.68V151.22H352.64ZM347.18 150.92V152.7C347.18 153.8 346.9 154.92 344.68 155.6C344.94 155.8 345.28 156.22 345.42 156.48C347.92 155.6 348.28 154.22 348.28 152.72V150.92H347.18ZM341.52 141.66V142.68H347.14V141.66H341.52ZM350.72 141.66V142.68H356.48V141.66H350.72ZM355.92 139.06V154.72C355.92 154.98 355.84 155.08 355.58 155.08C355.3 155.1 354.46 155.1 353.58 155.06C353.78 155.46 353.98 156.16 354.04 156.56C355.28 156.56 356.14 156.54 356.68 156.28C357.22 156.02 357.38 155.56 357.38 154.72V139.06H355.92ZM341.64 139.06V140.16H346.66V144.12H341.64V145.22H348.08V139.06H341.64ZM356.64 139.06H349.86V145.22H356.64V144.12H351.28V140.16H356.64V139.06ZM340.74 139.06V156.62H342.18V139.06H340.74ZM370.88 146.28V149.5H372.3V146.28H370.88ZM365.94 146.84V147.8H369.82V146.84H365.94ZM365.72 148.76V149.72H369.76V148.76H365.72ZM373.4 148.76V149.72H377.66V148.76H373.4ZM373.4 146.84V147.8H377.44V146.84H373.4ZM373.64 143.06H375.6V144.84H373.64V143.06ZM370.7 143.06H372.62V144.84H370.7V143.06ZM367.84 143.06H369.68V144.84H367.84V143.06ZM366.52 142.04V145.86H376.98V142.04H366.52ZM365.4 139.84V141.04H377.88V139.84H365.4ZM370.86 138.2V140.48H372.3V138.2H370.86ZM371.36 149.5C370 150.8 367.32 151.74 364.88 152.28C365.12 152.54 365.54 153.16 365.7 153.46C368.22 152.74 371.08 151.58 372.64 149.94L371.36 149.5ZM365.96 155.18L366.34 156.42C368.22 156.08 370.66 155.62 373.02 155.14L372.94 154.02C370.4 154.48 367.74 154.92 365.96 155.18ZM376.36 150.46C375.5 151.18 374.02 152.18 372.94 152.74L373.72 153.46C374.8 152.94 376.26 152.1 377.38 151.32L376.36 150.46ZM372.34 150.1L371.16 150.42C372.3 153.36 374.48 155.62 377.42 156.62C377.62 156.28 378.02 155.74 378.34 155.46C375.54 154.64 373.36 152.62 372.34 150.1ZM362.16 138.2V156.58H363.54V138.2H362.16ZM360.48 142.06C360.46 143.8 360.2 145.98 359.54 147.22L360.52 147.64C361.22 146.28 361.5 143.98 361.5 142.22L360.48 142.06ZM363.78 141.76C364.24 143.08 364.6 144.8 364.68 145.82L365.7 145.46C365.62 144.46 365.22 142.8 364.74 141.5L363.78 141.76ZM367.98 152.1V155.48H369.38V151.6L368.68 151.38L367.98 152.1Z" fill="#FFFBF7"/>
<path d="M579.92 87.88H576.736V89H578.768V93.544H579.92V87.88ZM579.92 93.064H578.88C578.128 93.752 577.264 94.472 576.56 94.984L577.184 96.152C577.984 95.448 578.72 94.76 579.424 94.072C580.416 95.336 581.872 95.896 583.984 95.976C585.776 96.056 589.2 96.024 591.008 95.944C591.056 95.592 591.248 95.032 591.392 94.76C589.456 94.888 585.76 94.936 583.984 94.856C582.08 94.792 580.672 94.248 579.92 93.064ZM576.88 82.632C577.856 83.416 578.96 84.536 579.408 85.336L580.4 84.584C579.904 83.8 578.784 82.696 577.792 81.976L576.88 82.632ZM580.992 84.536V85.48H591.216V84.536H580.992ZM582.272 88.568V89.496H587.648V88.568H582.272ZM587.536 90.008V90.92H589.92V90.008H587.536ZM585.488 82.84V88.184H586.624V82.84H585.488ZM585.168 84.968C584.176 86.312 582.224 87.608 580.48 88.2C580.72 88.408 581.04 88.792 581.216 89.064C582.976 88.344 584.96 86.872 586.032 85.32L585.168 84.968ZM586.944 85.016L586.128 85.32C587.152 86.808 589.024 88.248 590.768 88.92C590.928 88.648 591.248 88.248 591.488 88.024C589.76 87.496 587.888 86.28 586.944 85.016ZM589.584 90.008V90.168C589.44 91.912 589.28 92.616 589.024 92.84C588.912 92.952 588.768 92.968 588.496 92.968C588.224 92.968 587.472 92.952 586.704 92.872C586.864 93.144 586.976 93.528 587.008 93.816C587.792 93.864 588.56 93.864 588.96 93.832C589.376 93.816 589.68 93.736 589.936 93.48C590.288 93.16 590.496 92.344 590.672 90.456C590.688 90.296 590.72 90.008 590.72 90.008H589.584ZM589.728 81.832C587.856 82.264 584.368 82.536 581.472 82.648C581.584 82.888 581.712 83.272 581.744 83.512C584.688 83.416 588.272 83.144 590.528 82.648L589.728 81.832ZM584.256 88.824C584.048 90.888 583.456 92.392 580.992 93.16C581.216 93.368 581.52 93.784 581.632 94.056C584.384 93.112 585.12 91.32 585.376 88.824H584.256ZM587.344 88.568C587.216 89.464 586.992 90.552 586.784 91.32L587.824 91.464C588.016 90.68 588.256 89.544 588.432 88.568H587.344ZM596.72 87.88H593.536V89H595.568V93.544H596.72V87.88ZM596.72 93.064H595.68C594.928 93.752 594.064 94.472 593.36 94.984L593.984 96.152C594.784 95.448 595.52 94.76 596.224 94.072C597.216 95.336 598.672 95.896 600.784 95.976C602.576 96.056 606 96.024 607.808 95.944C607.856 95.592 608.048 95.032 608.192 94.76C606.256 94.888 602.56 94.936 600.784 94.856C598.88 94.792 597.472 94.248 596.72 93.064ZM593.68 82.632C594.656 83.416 595.76 84.536 596.208 85.336L597.2 84.584C596.704 83.8 595.584 82.696 594.592 81.976L593.68 82.632ZM598.272 87.08V94.024H599.344V88.04H606.928V87.08H598.272ZM602.144 84.376V87.48H603.056V85.224H605.504V84.376H602.144ZM599.52 82.12V87.4H600.592V83.064H605.024V87.4H606.112V82.12H599.52ZM601.232 89.064V89.928H603.92V91.624H601.232V92.456H604.848V89.064H601.232ZM606.256 87.08V92.84C606.256 93 606.192 93.048 606.016 93.064C605.84 93.064 605.232 93.064 604.56 93.048C604.704 93.32 604.848 93.736 604.896 94.024C605.84 94.024 606.464 94.024 606.848 93.848C607.264 93.688 607.36 93.384 607.36 92.84V87.08H606.256ZM600.688 89.064V93.096H601.616V89.064H600.688ZM620.064 82.568V83.64H623.024V82.568H620.064ZM616.368 83.352V84.376H619.744V83.352H616.368ZM620.224 85.528V86.536H622.992V85.528H620.224ZM620.192 88.52V89.528H622.912V88.52H620.192ZM612.304 85.528V86.536H615.024V85.528H612.304ZM612.368 88.504V89.528H615.04V88.504H612.368ZM611.664 82.68L611.984 91.976H613.072L612.784 83.304C612.976 83.272 613.056 83.208 613.088 83.112L611.664 82.68ZM622.368 82.568C622.384 85.512 622.256 89.592 622.08 91.944H623.216C623.376 89.64 623.472 85.576 623.488 82.568H622.368ZM614.608 81.72C613.968 82.152 612.896 82.728 611.968 83.16C612.096 83.4 612.288 83.784 612.352 83.992C613.376 83.608 614.576 83.096 615.552 82.584L614.608 81.72ZM615.84 87.72V91.88H616.832V87.72H615.84ZM615.856 81.704V87.016H618.976V86.04H616.896V81.704H615.856ZM618.384 86.04V91.864H619.424V86.04H618.384ZM610.304 91.464V92.584H624.912V91.464H610.304ZM619.088 93.608C620.8 94.456 622.624 95.544 623.696 96.328L624.816 95.512C623.648 94.712 621.712 93.64 619.936 92.808L619.088 93.608ZM614.896 92.84C613.904 93.72 611.984 94.824 610.432 95.464C610.72 95.688 611.136 96.072 611.344 96.312C612.864 95.64 614.752 94.552 616.016 93.56L614.896 92.84ZM634.336 82.728C635.808 84.712 638.592 86.904 641.072 88.184C641.28 87.832 641.568 87.416 641.856 87.128C639.344 86.008 636.576 83.864 634.88 81.544H633.648C632.416 83.56 629.76 85.928 626.992 87.32C627.248 87.576 627.584 87.992 627.728 88.28C630.432 86.84 633.008 84.632 634.336 82.728ZM630.368 86.44V87.528H638.4V86.44H630.368ZM628.304 89.656V90.728H640.48V89.656H628.304ZM627.568 94.712V95.768H641.248V94.712H627.568ZM633.696 86.856V95.272H634.96V86.856H633.696ZM629.632 91.544C630.272 92.44 630.896 93.688 631.104 94.488L632.144 94.04C631.92 93.24 631.264 92.024 630.608 91.144L629.632 91.544ZM638 91.112C637.6 92.024 636.848 93.304 636.272 94.088L637.184 94.488C637.776 93.736 638.528 92.584 639.136 91.576L638 91.112ZM649.456 90.248V91.352H657.792V90.248H649.456ZM648.448 94.728V95.832H658.56V94.728H648.448ZM648.928 83.24V85.992H649.984V84.28H657.312V85.848H658.416V83.24H648.928ZM652.944 81.56V83.912H654.112V81.56H652.944ZM652.928 90.776V95.304H654.112V90.776H652.928ZM654.304 84.152V87.432C654.304 88.52 654.56 88.824 655.68 88.824C655.904 88.824 656.912 88.824 657.152 88.824C658.032 88.824 658.32 88.424 658.432 86.84C658.128 86.776 657.68 86.6 657.456 86.424C657.424 87.656 657.36 87.816 657.024 87.816C656.816 87.816 656 87.816 655.84 87.816C655.472 87.816 655.408 87.768 655.408 87.432V84.152H654.304ZM651.68 84.2C651.584 86.584 651.184 87.816 648.864 88.472C649.088 88.68 649.36 89.064 649.456 89.32C652.112 88.52 652.656 86.984 652.784 84.2H651.68ZM643.632 89.864L643.936 91.032C645.312 90.552 647.088 89.912 648.768 89.272L648.56 88.184C646.752 88.824 644.88 89.48 643.632 89.864ZM643.856 84.792V85.912H648.656V84.792H643.856ZM645.872 81.576V94.888C645.872 95.128 645.776 95.176 645.584 95.176C645.392 95.192 644.784 95.192 644.08 95.176C644.24 95.512 644.384 96.008 644.432 96.296C645.44 96.296 646.064 96.264 646.432 96.072C646.832 95.88 646.992 95.56 646.992 94.888V81.576H645.872ZM660.848 91.352V92.36H675.152V91.352H660.848ZM663.536 85.512V86.36H673.44V85.512H663.536ZM663.536 87.432V88.296H673.488V87.432H663.536ZM663.344 83.464V84.456H674.096V83.464H663.344ZM667.664 84.024V89.768H668.832V84.024H667.664ZM667.36 90.072V96.28H668.56V90.072H667.36ZM667.104 91.72C665.648 93.16 662.832 94.504 660.448 95.112C660.72 95.352 661.072 95.8 661.248 96.12C663.6 95.384 666.448 93.864 668.032 92.2L667.104 91.72ZM668.832 91.72L667.904 92.2C669.488 93.816 672.32 95.288 674.704 95.992C674.88 95.688 675.216 95.24 675.472 95C673.072 94.408 670.272 93.128 668.832 91.72ZM668.416 81.56C668.192 82.248 667.728 83.24 667.344 83.88L668.4 84.104C668.816 83.496 669.312 82.6 669.76 81.752L668.416 81.56ZM664.24 81.544C663.52 83 662.208 84.872 660.416 86.28C660.688 86.44 661.088 86.808 661.296 87.08C663.2 85.48 664.544 83.528 665.488 81.768L664.24 81.544ZM662.784 84.12V90.36H674.72V89.4H663.936V84.12H662.784ZM680.176 84.248V85.016H689.36V84.248H680.176ZM679.984 91.096V91.848H689.6V91.096H679.984ZM681.696 92.328C682.224 92.776 682.816 93.416 683.088 93.848L683.904 93.384C683.632 92.952 683.008 92.328 682.464 91.928L681.696 92.328ZM681.76 87.576H687.808V88.28H681.76V87.576ZM681.76 86.296H687.808V86.968H681.76V86.296ZM680.8 85.672V88.92H688.8V85.672H680.8ZM686.272 90.504V93.304C686.272 93.464 686.224 93.512 686.048 93.512C685.872 93.528 685.264 93.528 684.608 93.512C684.72 93.72 684.848 93.976 684.896 94.216C685.856 94.216 686.464 94.216 686.816 94.088C687.2 93.976 687.296 93.816 687.296 93.336V90.504H686.272ZM680.208 89.736L680.272 90.504C682.336 90.472 685.296 90.376 688.176 90.28L688.208 89.64C685.232 89.704 682.192 89.736 680.208 89.736ZM686.832 89.336C687.44 89.8 688.208 90.52 688.576 91L689.264 90.472C688.896 90.024 688.144 89.352 687.488 88.888L686.832 89.336ZM684.208 83.512V90.04L685.232 89.976V83.512H684.208ZM678.336 82.296V96.296H679.44V83.256H690.128V96.216H691.28V82.296H678.336ZM678.88 94.488V95.448H690.624V94.488H678.88ZM697.264 85.624V96.264H698.464V85.624H697.264ZM697.888 85.624V86.68H704.752V88.664H697.888V89.72H705.952V85.624H697.888ZM697.856 91.256V92.328H705.696V96.2H706.88V91.256H697.856ZM697.888 94.488V95.56H706.368V94.488H697.888ZM700.928 81.592V83.96H702.192V81.592H700.928ZM694.848 82.968V86.44H696.016V84.104H707.104V86.44H708.32V82.968H694.848ZM720.56 87.304V89.352H721.6V87.304H720.56ZM722.464 83.88C722.288 84.568 721.904 85.592 721.616 86.232L722.352 86.504C722.672 85.912 723.072 84.984 723.44 84.2L722.464 83.88ZM718.896 84.264C719.216 84.952 719.52 85.896 719.6 86.488L720.432 86.184C720.336 85.608 720.032 84.68 719.664 83.992L718.896 84.264ZM717.008 82.328V96.312H718.096V83.4H724.672V82.328H717.008ZM724.224 82.328V94.936C724.224 95.16 724.16 95.224 723.936 95.24C723.728 95.24 723.008 95.256 722.288 95.224C722.432 95.528 722.592 96.008 722.624 96.296C723.664 96.296 724.352 96.264 724.768 96.104C725.2 95.912 725.328 95.592 725.328 94.936V82.328H724.224ZM718.704 86.456V87.4H723.6V86.456H718.704ZM718.576 89.08V90.024H723.696V89.08H718.576ZM719.248 89.608V92.28C719.248 93.432 719.504 93.816 720.64 93.816C720.848 93.816 722.224 93.816 722.512 93.816C722.896 93.816 723.264 93.816 723.472 93.736C723.44 93.496 723.408 93.048 723.376 92.776C723.168 92.824 722.736 92.84 722.496 92.84C722.224 92.84 720.928 92.84 720.64 92.84C720.336 92.84 720.288 92.712 720.288 92.296V89.608H719.248ZM713.536 81.576C713.12 82.632 712.368 84.2 711.792 85.128L712.608 85.48C713.232 84.6 713.984 83.16 714.592 81.976L713.536 81.576ZM715.328 83.4C714.448 85.08 712.944 87.464 711.744 88.888L712.48 89.304C713.68 87.912 715.232 85.64 716.336 83.864L715.328 83.4ZM710.976 84.904C711.824 85.72 712.784 86.856 713.184 87.624L713.872 86.728C713.456 85.992 712.48 84.92 711.616 84.136L710.976 84.904ZM714.704 87.064C715.344 88.12 715.968 89.544 716.176 90.44L717.12 90.008C716.896 89.128 716.24 87.752 715.568 86.696L714.704 87.064ZM710.848 88.648L710.976 89.72C712.432 89.624 714.352 89.512 716.256 89.384V88.376C714.24 88.488 712.24 88.584 710.848 88.648ZM715.12 90.936C715.504 91.864 715.84 93.08 715.936 93.864L716.864 93.576C716.752 92.792 716.416 91.592 716 90.664L715.12 90.936ZM711.808 90.712C711.632 92.104 711.328 93.544 710.816 94.52C711.056 94.632 711.536 94.84 711.728 94.968C712.24 93.944 712.608 92.408 712.816 90.888L711.808 90.712ZM713.504 89.112V96.28H714.56V89.112H713.504ZM728.56 82.584V83.72H741.936V82.584H728.56ZM732.16 86.072V87.16H738.752V86.072H732.16ZM731.232 90.648V91.736H738.256V90.648H731.232ZM728.016 94.456V95.576H742.4V94.456H728.016ZM732.192 83.352C731.712 86.184 730.864 90.136 730.224 92.44L731.504 92.568C732.112 90.264 732.928 86.296 733.472 83.352H732.192ZM738.208 86.072C737.968 88.824 737.456 92.648 737.072 94.888H738.368C738.72 92.712 739.168 88.888 739.472 86.072H738.208ZM745.104 92.024V92.936H752.4V92.024H745.104ZM744.672 84.312V85.24H752.656V84.312H744.672ZM748.144 82.856V94.632H749.248V82.856H748.144ZM744.656 94.664L744.832 95.704C746.864 95.496 749.76 95.16 752.48 94.84L752.464 93.896C749.6 94.2 746.608 94.488 744.656 94.664ZM746.144 89.032H751.328V90.216H746.144V89.032ZM746.144 87.08H751.328V88.232H746.144V87.08ZM745.136 86.248V91.048H752.352V86.248H745.136ZM751.776 81.72C750.128 82.104 747.216 82.392 744.832 82.52C744.96 82.76 745.072 83.16 745.12 83.416C747.52 83.336 750.496 83.064 752.384 82.648L751.776 81.72ZM752.544 85.304V86.424H758.32V85.304H752.544ZM757.856 85.304V85.592C757.68 92.072 757.504 94.376 757.104 94.872C756.96 95.08 756.8 95.128 756.544 95.128C756.224 95.128 755.52 95.112 754.736 95.048C754.928 95.368 755.056 95.864 755.088 96.2C755.824 96.248 756.592 96.248 757.04 96.2C757.52 96.152 757.84 96.008 758.128 95.592C758.656 94.904 758.816 92.664 758.992 85.912C758.992 85.752 759.008 85.304 759.008 85.304H757.856ZM754.48 81.768C754.464 87.816 754.544 92.888 750.88 95.512C751.168 95.704 751.584 96.088 751.776 96.376C755.6 93.512 755.616 88.136 755.632 81.768H754.48ZM769.776 88.088C768.848 89.736 767.168 91.208 765.44 92.136C765.696 92.344 766.096 92.808 766.256 93.032C768.016 91.96 769.792 90.312 770.864 88.424L769.776 88.088ZM769.872 81.56C769.296 82.44 768.272 83.64 767.488 84.392L768.336 84.888C769.136 84.168 770.128 83.08 770.928 82.104L769.872 81.56ZM772.96 82.792C771.648 84.44 769.392 86.632 767.648 87.976L768.464 88.504C770.224 87.192 772.448 85.112 774.048 83.384L772.96 82.792ZM766.16 84.152C767.408 84.968 768.864 86.184 769.552 86.984L770.32 86.12C769.616 85.304 768.112 84.168 766.896 83.384L766.16 84.152ZM772.768 86.056C773.776 87.144 774.88 88.648 775.344 89.608L776.368 89.016C775.856 88.056 774.72 86.584 773.696 85.544L772.768 86.056ZM765.632 87.64L765.728 88.728C768.112 88.664 771.632 88.552 774.992 88.44L775.04 87.448C771.568 87.544 767.92 87.608 765.632 87.64ZM768.736 90.568L767.76 90.904C769.312 93.624 772.176 95.512 775.632 96.312C775.792 95.992 776.112 95.544 776.368 95.288C772.976 94.632 770.112 92.904 768.736 90.568ZM769.104 89.88L768.272 90.84H773.872V89.88H769.104ZM773.488 89.88V90.072C772.224 92.888 768.816 94.648 765.392 95.304C765.616 95.544 765.888 96.024 766 96.328C769.648 95.496 773.2 93.624 774.688 90.2L773.92 89.832L773.712 89.88H773.488ZM765.072 84.824C764.128 86.52 762.608 88.2 761.12 89.288C761.344 89.544 761.696 90.104 761.808 90.36C763.376 89.08 765.056 87.144 766.16 85.224L765.072 84.824ZM764.704 81.576C764 82.712 762.56 84.072 761.312 84.92C761.52 85.144 761.824 85.56 761.984 85.8C763.344 84.84 764.848 83.336 765.776 81.992L764.704 81.576ZM763.632 87.8V96.344H764.768V86.904L764.608 86.824L763.632 87.8ZM582.016 108.392C581.2 109.64 579.648 111.032 577.424 112.024C577.696 112.2 578.064 112.6 578.24 112.888C580.592 111.72 582.208 110.2 583.312 108.648L582.016 108.392ZM581.84 109.592L580.976 110.552H587.408V109.592H581.84ZM587.072 109.592V109.784C585.248 112.6 580.672 114.536 576.56 115.288C576.784 115.56 577.04 116.04 577.152 116.344C581.456 115.432 586.176 113.4 588.32 110.04L587.52 109.544L587.296 109.592H587.072ZM581.376 110.344L580.32 110.824C582.464 113.592 586.336 115.304 590.64 115.976C590.816 115.624 591.136 115.112 591.408 114.84C587.12 114.296 583.248 112.744 581.376 110.344ZM579.584 115.352V120.264H580.768V116.376H587.248V120.248H588.48V115.352H579.584ZM580.176 118.712V119.736H587.856V118.712H580.176ZM583.344 105.576V107.656H584.576V105.576H583.344ZM577.216 107.016V110.04H578.4V108.12H589.536V110.04H590.752V107.016H577.216ZM596.256 114.056V115.176H605.488V114.056H596.256ZM596.368 109.736V110.856H604.992V116.04H606.192V109.736H596.368ZM604.736 105.608C602.72 106.312 599.12 106.984 596 107.4C596.144 107.656 596.304 108.088 596.352 108.36C599.552 107.944 603.264 107.304 605.728 106.504L604.736 105.608ZM595.632 107.064V112.232C595.632 114.504 595.424 117.368 593.408 119.464C593.712 119.608 594.16 120.024 594.336 120.28C596.544 117.976 596.848 114.632 596.848 112.248V107.736C597.072 107.704 597.168 107.64 597.184 107.512L595.632 107.064ZM610.576 106.456V107.56H617.472V106.456H610.576ZM618.608 111.016V112.168H625.04V111.016H618.608ZM622.08 111.768V120.296H623.264V111.768H622.08ZM618.144 107.144V111.416C618.144 113.864 617.92 117.08 615.696 119.448C615.984 119.592 616.416 119.992 616.592 120.248C618.992 117.672 619.328 114.008 619.328 111.416V107.752C619.552 107.72 619.632 107.656 619.648 107.544L618.144 107.144ZM611.168 109.224V113.544C611.168 115.384 611.056 117.848 609.936 119.576C610.192 119.72 610.688 120.088 610.88 120.312C612.112 118.424 612.304 115.592 612.304 113.544V109.224H611.168ZM623.664 105.752C622.464 106.44 620.304 107.128 618.4 107.576C618.56 107.848 618.752 108.28 618.816 108.552C620.816 108.088 623.136 107.432 624.72 106.664L623.664 105.752ZM611.824 109.224V110.328H615.904V113.128H611.824V114.216H617.072V109.224H611.824ZM637.264 106.168C638.08 106.456 639.056 106.952 639.536 107.368L640.192 106.568C639.68 106.168 638.688 105.72 637.888 105.464L637.264 106.168ZM628.992 107.192V108.184H641.456V107.192H628.992ZM630.128 109.272V110.12H635.04V109.272H630.128ZM630.384 111.208V114.12H631.392V111.208H630.384ZM638.88 108.952C638.112 111.352 636.608 113.352 634.672 114.6C634.912 114.808 635.36 115.208 635.536 115.432C637.488 114.04 639.104 111.88 640 109.224L638.88 108.952ZM635.104 105.56C635.36 110.936 637.648 115.576 640.176 115.576C641.2 115.576 641.632 115.016 641.824 112.984C641.52 112.872 641.12 112.664 640.88 112.44C640.8 113.896 640.64 114.472 640.24 114.472C638.608 114.488 636.432 110.488 636.256 105.56H635.104ZM630.384 111.208V112.056H633.76V113.704H630.384V114.568H634.784V111.208H630.384ZM631.184 116.04V118.536C631.184 119.768 631.6 120.088 633.296 120.088C633.648 120.088 636.032 120.088 636.4 120.088C637.76 120.088 638.112 119.64 638.272 117.752C637.936 117.672 637.44 117.512 637.184 117.32C637.12 118.808 637.008 119 636.304 119C635.776 119 633.776 119 633.376 119C632.528 119 632.368 118.92 632.368 118.52V116.04H631.184ZM632.432 115.512C633.424 116.024 634.592 116.84 635.136 117.464L635.952 116.696C635.392 116.072 634.208 115.304 633.2 114.84L632.432 115.512ZM637.952 116.52C639.104 117.448 640.256 118.808 640.704 119.784L641.776 119.192C641.28 118.2 640.08 116.872 638.928 115.976L637.952 116.52ZM629.152 116.136C628.8 117.336 628.096 118.552 627.024 119.288L628.016 119.96C629.152 119.144 629.808 117.8 630.208 116.504L629.152 116.136ZM628.432 107.192V109.592C628.432 111.224 628.256 113.48 626.912 115.144C627.152 115.272 627.632 115.672 627.792 115.896C629.264 114.088 629.552 111.464 629.552 109.608V107.192H628.432ZM644.352 110.184V113.448H645.472V111.256H656.88V113.448H658.048V110.184H644.352ZM646.288 113.064V114.184H655.232V113.064H646.288ZM656.304 105.512C653.568 106.088 648.64 106.504 644.496 106.696C644.608 106.968 644.752 107.416 644.784 107.72C648.944 107.56 653.936 107.144 657.152 106.472L656.304 105.512ZM645.84 108.056C646.272 108.744 646.736 109.656 646.928 110.232L648.016 109.88C647.824 109.304 647.344 108.408 646.88 107.752L645.84 108.056ZM650.096 107.72C650.464 108.472 650.8 109.464 650.896 110.088L652.032 109.816C651.936 109.192 651.552 108.216 651.184 107.48L650.096 107.72ZM655.568 107.448C655.184 108.344 654.48 109.624 653.92 110.424L654.88 110.76C655.456 110.008 656.208 108.824 656.784 107.8L655.568 107.448ZM654.8 113.064V113.272C653.136 116.808 648.816 118.504 644.016 119.16C644.256 119.416 644.592 119.944 644.72 120.248C649.6 119.432 654.128 117.576 656.096 113.512L655.296 113.016L655.072 113.064H654.8ZM647.856 113.8L646.8 114.248C648.896 117.576 652.752 119.528 657.632 120.232C657.776 119.896 658.112 119.384 658.352 119.112C653.536 118.536 649.68 116.744 647.856 113.8ZM660.8 106.616V107.704H669.008V106.616H660.8ZM661.28 114.232V115.32H668.544V114.232H661.28ZM664.336 112.328V118.776L665.52 118.6V112.328H664.336ZM660.624 118.6L660.816 119.8C662.944 119.512 666.096 119.064 669.072 118.648L669.04 117.528C665.952 117.944 662.704 118.376 660.624 118.6ZM660.768 110.968L660.864 112.104C662.768 111.992 665.504 111.848 668.128 111.688L668.16 110.632C665.408 110.776 662.592 110.904 660.768 110.968ZM665.872 109.016C666.832 110.152 667.904 111.704 668.368 112.68L669.328 112.104C668.864 111.144 667.744 109.64 666.768 108.52L665.872 109.016ZM663.568 107.192C663.216 108.456 662.528 110.328 661.968 111.464L663.024 111.72C663.616 110.616 664.304 108.856 664.864 107.448L663.568 107.192ZM669.712 107.496V116.36H670.864V107.496H669.712ZM673.488 106.024V118.68C673.488 118.968 673.408 119.048 673.12 119.064C672.8 119.064 671.808 119.08 670.736 119.032C670.912 119.4 671.088 119.96 671.152 120.296C672.448 120.296 673.424 120.264 673.952 120.056C674.48 119.864 674.672 119.496 674.672 118.664V106.024H673.488ZM678.896 108.136V109.208H682.64V117.512H678.896V118.6H683.76V108.136H678.896ZM678.176 108.136V119.88H679.296V108.136H678.176ZM678.816 112.584V113.656H683.232V112.584H678.816ZM680.624 105.528C680.496 106.36 680.192 107.576 679.92 108.344L680.88 108.584C681.2 107.864 681.6 106.76 681.92 105.768L680.624 105.528ZM686.032 108.088V109.208H690.944V108.088H686.032ZM690.528 108.088V108.344C690.304 115.4 690.048 118.056 689.52 118.632C689.344 118.84 689.152 118.888 688.832 118.888C688.464 118.888 687.504 118.872 686.464 118.792C686.688 119.112 686.832 119.608 686.864 119.96C687.76 120.008 688.704 120.04 689.248 119.976C689.808 119.928 690.176 119.784 690.528 119.32C691.168 118.536 691.392 116.056 691.648 108.712C691.648 108.536 691.648 108.088 691.648 108.088H690.528ZM686.368 105.496C685.856 107.72 684.976 109.928 683.888 111.336C684.176 111.496 684.672 111.832 684.88 112.024C685.984 110.504 686.928 108.152 687.52 105.768L686.368 105.496ZM685.632 112.248C686.512 113.416 687.584 115 688.064 115.976L689.088 115.336C688.576 114.392 687.472 112.84 686.56 111.704L685.632 112.248ZM704.464 106.168C705.28 106.456 706.256 106.952 706.736 107.368L707.392 106.568C706.88 106.168 705.888 105.72 705.088 105.464L704.464 106.168ZM696.192 107.192V108.184H708.656V107.192H696.192ZM697.328 109.272V110.12H702.24V109.272H697.328ZM697.584 111.208V114.12H698.592V111.208H697.584ZM706.08 108.952C705.312 111.352 703.808 113.352 701.872 114.6C702.112 114.808 702.56 115.208 702.736 115.432C704.688 114.04 706.304 111.88 707.2 109.224L706.08 108.952ZM702.304 105.56C702.56 110.936 704.848 115.576 707.376 115.576C708.4 115.576 708.832 115.016 709.024 112.984C708.72 112.872 708.32 112.664 708.08 112.44C708 113.896 707.84 114.472 707.44 114.472C705.808 114.488 703.632 110.488 703.456 105.56H702.304ZM697.584 111.208V112.056H700.96V113.704H697.584V114.568H701.984V111.208H697.584ZM698.384 116.04V118.536C698.384 119.768 698.8 120.088 700.496 120.088C700.848 120.088 703.232 120.088 703.6 120.088C704.96 120.088 705.312 119.64 705.472 117.752C705.136 117.672 704.64 117.512 704.384 117.32C704.32 118.808 704.208 119 703.504 119C702.976 119 700.976 119 700.576 119C699.728 119 699.568 118.92 699.568 118.52V116.04H698.384ZM699.632 115.512C700.624 116.024 701.792 116.84 702.336 117.464L703.152 116.696C702.592 116.072 701.408 115.304 700.4 114.84L699.632 115.512ZM705.152 116.52C706.304 117.448 707.456 118.808 707.904 119.784L708.976 119.192C708.48 118.2 707.28 116.872 706.128 115.976L705.152 116.52ZM696.352 116.136C696 117.336 695.296 118.552 694.224 119.288L695.216 119.96C696.352 119.144 697.008 117.8 697.408 116.504L696.352 116.136ZM695.632 107.192V109.592C695.632 111.224 695.456 113.48 694.112 115.144C694.352 115.272 694.832 115.672 694.992 115.896C696.464 114.088 696.752 111.464 696.752 109.608V107.192H695.632ZM715.008 114.456H721.696V115.24H715.008V114.456ZM715.008 115.944H721.696V116.76H715.008V115.944ZM715.008 112.968H721.696V113.752H715.008V112.968ZM713.872 112.232V117.48H722.88V112.232H713.872ZM719.344 117.032V118.712C719.344 119.816 719.744 120.088 721.296 120.088C721.6 120.088 723.696 120.088 724.032 120.088C725.248 120.088 725.6 119.656 725.712 117.896C725.408 117.848 724.944 117.688 724.704 117.512C724.64 118.936 724.528 119.128 723.92 119.128C723.44 119.128 721.728 119.128 721.392 119.128C720.656 119.128 720.528 119.064 720.528 118.712V117.032H719.344ZM715.936 117.08C715.52 118.472 714.4 119.08 711.024 119.368C711.216 119.592 711.472 120.024 711.552 120.28C715.296 119.864 716.624 119 717.104 117.08H715.936ZM711.616 110.632V112.92H712.704V111.464H724.064V112.92H725.184V110.632H711.616ZM712.96 106.232L713.184 111.08H714.256L714.048 106.776C714.24 106.744 714.336 106.68 714.368 106.6L712.96 106.232ZM722.784 106.184C722.752 107.72 722.656 109.784 722.512 111.048H723.616C723.728 109.816 723.824 107.768 723.872 106.184H722.784ZM720.448 106.184V106.968H723.072V106.184H720.448ZM715.808 105.56C715.184 105.896 714.08 106.408 713.296 106.68L713.856 107.176C714.64 106.92 715.696 106.552 716.496 106.104L715.808 105.56ZM713.52 107.704V108.44H716.208V107.704H713.52ZM713.52 109.16V109.912H716.304V109.16H713.52ZM720.64 107.704V108.44H723.344V107.704H720.64ZM720.544 109.16V109.912H723.28V109.16H720.544ZM719.056 105.656C718.512 106.424 717.52 107.112 716.544 107.592C716.736 107.72 717.024 107.992 717.136 108.136C718.112 107.592 719.184 106.744 719.808 105.864L719.056 105.656ZM716.992 106.408C717.776 106.824 718.688 107.496 719.12 107.976L719.664 107.448C719.2 106.968 718.272 106.344 717.504 105.944L716.992 106.408ZM719.248 108.056C718.64 108.904 717.552 109.672 716.496 110.2C716.672 110.328 716.976 110.6 717.088 110.744C718.144 110.152 719.312 109.24 719.984 108.264L719.248 108.056ZM717.024 108.808C717.872 109.288 718.848 110.008 719.344 110.552L719.888 110.024C719.392 109.496 718.384 108.808 717.552 108.344L717.024 108.808Z" fill="#FFFBF7"/>
<path d="M583.936 227.728C585.408 229.712 588.192 231.904 590.672 233.184C590.88 232.832 591.168 232.416 591.456 232.128C588.944 231.008 586.176 228.864 584.48 226.544H583.248C582.016 228.56 579.36 230.928 576.592 232.32C576.848 232.576 577.184 232.992 577.328 233.28C580.032 231.84 582.608 229.632 583.936 227.728ZM579.968 231.44V232.528H588V231.44H579.968ZM577.904 234.656V235.728H590.08V234.656H577.904ZM577.168 239.712V240.768H590.848V239.712H577.168ZM583.296 231.856V240.272H584.56V231.856H583.296ZM579.232 236.544C579.872 237.44 580.496 238.688 580.704 239.488L581.744 239.04C581.52 238.24 580.864 237.024 580.208 236.144L579.232 236.544ZM587.6 236.112C587.2 237.024 586.448 238.304 585.872 239.088L586.784 239.488C587.376 238.736 588.128 237.584 588.736 236.576L587.6 236.112ZM599.056 235.248V236.352H607.392V235.248H599.056ZM598.048 239.728V240.832H608.16V239.728H598.048ZM598.528 228.24V230.992H599.584V229.28H606.912V230.848H608.016V228.24H598.528ZM602.544 226.56V228.912H603.712V226.56H602.544ZM602.528 235.776V240.304H603.712V235.776H602.528ZM603.904 229.152V232.432C603.904 233.52 604.16 233.824 605.28 233.824C605.504 233.824 606.512 233.824 606.752 233.824C607.632 233.824 607.92 233.424 608.032 231.84C607.728 231.776 607.28 231.6 607.056 231.424C607.024 232.656 606.96 232.816 606.624 232.816C606.416 232.816 605.6 232.816 605.44 232.816C605.072 232.816 605.008 232.768 605.008 232.432V229.152H603.904ZM601.28 229.2C601.184 231.584 600.784 232.816 598.464 233.472C598.688 233.68 598.96 234.064 599.056 234.32C601.712 233.52 602.256 231.984 602.384 229.2H601.28ZM593.232 234.864L593.536 236.032C594.912 235.552 596.688 234.912 598.368 234.272L598.16 233.184C596.352 233.824 594.48 234.48 593.232 234.864ZM593.456 229.792V230.912H598.256V229.792H593.456ZM595.472 226.576V239.888C595.472 240.128 595.376 240.176 595.184 240.176C594.992 240.192 594.384 240.192 593.68 240.176C593.84 240.512 593.984 241.008 594.032 241.296C595.04 241.296 595.664 241.264 596.032 241.072C596.432 240.88 596.592 240.56 596.592 239.888V226.576H595.472ZM614.416 228.4H620.816V231.44H614.416V228.4ZM613.248 227.248V232.592H622.032V227.248H613.248ZM610.928 234.288V241.28H612.064V235.44H615.424V241.152H616.624V234.288H610.928ZM618.368 234.288V241.28H619.52V235.44H623.184V241.184H624.384V234.288H618.368ZM611.44 239.264V240.416H615.904V239.264H611.44ZM618.96 239.264V240.416H623.712V239.264H618.96ZM632.688 236.896V237.952H641.712V236.896H632.688ZM638.08 234.656V241.264H639.216V234.656H638.08ZM636.512 226.512C636.336 227.12 635.984 227.968 635.68 228.56L636.656 228.832C637.008 228.32 637.472 227.504 637.872 226.784L636.512 226.512ZM636.784 228.704V231.28C636.784 232.896 636.336 234.8 633.28 236.096C633.52 236.256 633.904 236.576 634.08 236.784C637.312 235.392 637.824 233.232 637.824 231.312V228.704H636.784ZM628.528 230.96V232.016H632.992V230.96H628.528ZM630.624 226.576V231.6H631.68V226.576H630.624ZM628.592 234.368V235.408H631.104V241.28H632.176V234.368H628.592ZM628.016 226.896V233.024C628.016 235.376 627.872 238.608 626.944 240.912C627.264 241.008 627.744 241.184 627.984 241.312C628.896 238.896 629.072 235.584 629.072 233.024V226.896H628.016ZM634.464 231.632H640.144V233.328H634.464V231.632ZM634.464 229.056H640.144V230.72H634.464V229.056ZM633.376 228.096V234.272H641.264V228.096H633.376ZM646.576 231.68V232.768H655.808V231.68H646.576ZM650.592 229.136C650.464 233.424 650.144 236.256 646.384 237.68C646.64 237.904 646.976 238.336 647.104 238.608C651.12 236.992 651.568 233.824 651.728 229.136H650.592ZM651.824 232.288L650.832 232.448C651.44 235.504 652.72 237.552 655.216 238.56C655.376 238.256 655.712 237.792 655.968 237.584C653.616 236.768 652.368 234.928 651.824 232.288ZM644.512 227.312V241.28H645.712V228.464H656.688V241.28H657.92V227.312H644.512ZM645.216 239.408V240.56H657.184V239.408H645.216ZM668.128 232.048V232.752H674.288V232.048H668.128ZM668.128 233.648V234.352H674.288V233.648H668.128ZM667.664 235.28V236.096H674.96V235.28H667.664ZM671.392 229.024C671.232 229.456 670.896 230.128 670.64 230.592L671.504 230.864C671.792 230.464 672.144 229.904 672.48 229.328L671.392 229.024ZM665.696 228.944C664.992 230.432 663.824 231.904 662.64 232.864C662.88 233.04 663.28 233.456 663.44 233.632C664.64 232.56 665.872 230.912 666.704 229.248L665.696 228.944ZM668.512 228.912C667.936 230.304 666.976 231.696 665.952 232.64C666.192 232.8 666.608 233.136 666.784 233.312C667.808 232.304 668.864 230.736 669.536 229.2L668.512 228.912ZM670.672 230.752V235.6H671.696V230.752H670.672ZM666.56 237.52V239.76C666.56 240.88 666.912 241.168 668.352 241.168C668.656 241.168 670.64 241.168 670.944 241.168C672.064 241.168 672.4 240.784 672.512 239.2C672.224 239.12 671.76 238.96 671.52 238.784C671.472 240.016 671.376 240.176 670.832 240.176C670.416 240.176 668.784 240.176 668.464 240.176C667.792 240.176 667.664 240.112 667.664 239.76V237.52H666.56ZM667.424 236.848C668.4 237.312 669.568 238.032 670.128 238.56L670.88 237.808C670.288 237.28 669.088 236.608 668.128 236.176L667.424 236.848ZM672.016 237.76C672.944 238.72 673.936 240.064 674.32 240.944L675.344 240.416C674.912 239.52 673.904 238.224 672.96 237.296L672.016 237.76ZM664.64 237.472C664.32 238.528 663.696 239.664 662.784 240.32L663.696 240.912C664.688 240.192 665.248 238.944 665.616 237.808L664.64 237.472ZM668.32 230.4L667.744 231.184H674.704V230.4H668.32ZM667.664 231.296V235.76H668.688V230.416L667.664 231.296ZM667.84 226.576V228.416H669.072V226.576H667.84ZM662.384 227.808V228.832H675.232V227.808H662.384ZM661.728 227.808V232.64C661.728 234.992 661.632 238.272 660.464 240.608C660.72 240.72 661.2 241.088 661.392 241.296C662.656 238.816 662.848 235.136 662.848 232.64V227.808H661.728ZM664.64 231.408V236.432H665.68V230.416L665.664 230.384L664.64 231.408ZM677.904 227.696V228.912H691.68V227.696H677.904ZM685.744 232.352C687.648 233.648 690.048 235.52 691.168 236.752L692.144 235.84C690.96 234.608 688.512 232.8 686.64 231.584L685.744 232.352ZM685.44 228.112C683.952 231.12 680.976 234.192 677.504 235.936C677.744 236.192 678.128 236.672 678.32 236.976C681.936 235.072 684.928 231.904 686.752 228.592L685.44 228.112ZM684.128 231.312V241.264H685.424V230.032L684.128 231.312ZM697.552 230.208V231.264H705.696V230.208H697.552ZM698.368 232.944V239.2H699.488V232.944H698.368ZM698.976 232.944V233.952H703.712V236.992H698.976V238.032H704.832V232.944H698.976ZM694.992 227.392V241.312H696.16V228.544H707.776V227.392H694.992ZM707.04 227.392V239.76C707.04 240.032 706.944 240.128 706.656 240.144C706.384 240.16 705.44 240.16 704.432 240.128C704.624 240.448 704.816 240.976 704.864 241.296C706.256 241.312 707.056 241.28 707.536 241.072C708.032 240.88 708.224 240.512 708.224 239.76V227.392H707.04ZM712.496 229.136V230.208H716.24V238.512H712.496V239.6H717.36V229.136H712.496ZM711.776 229.136V240.88H712.896V229.136H711.776ZM712.416 233.584V234.656H716.832V233.584H712.416ZM714.224 226.528C714.096 227.36 713.792 228.576 713.52 229.344L714.48 229.584C714.8 228.864 715.2 227.76 715.52 226.768L714.224 226.528ZM719.632 229.088V230.208H724.544V229.088H719.632ZM724.128 229.088V229.344C723.904 236.4 723.648 239.056 723.12 239.632C722.944 239.84 722.752 239.888 722.432 239.888C722.064 239.888 721.104 239.872 720.064 239.792C720.288 240.112 720.432 240.608 720.464 240.96C721.36 241.008 722.304 241.04 722.848 240.976C723.408 240.928 723.776 240.784 724.128 240.32C724.768 239.536 724.992 237.056 725.248 229.712C725.248 229.536 725.248 229.088 725.248 229.088H724.128ZM719.968 226.496C719.456 228.72 718.576 230.928 717.488 232.336C717.776 232.496 718.272 232.832 718.48 233.024C719.584 231.504 720.528 229.152 721.12 226.768L719.968 226.496ZM719.232 233.248C720.112 234.416 721.184 236 721.664 236.976L722.688 236.336C722.176 235.392 721.072 233.84 720.16 232.704L719.232 233.248ZM728.288 228.08V229.184H742.128V228.08H728.288ZM734.528 226.576V228.72H735.76V226.576H734.528ZM728.976 230.88V241.264H730.112V231.952H741.056V230.88H728.976ZM740.416 230.88V239.808C740.416 240.048 740.336 240.128 740.048 240.128C739.76 240.144 738.8 240.16 737.76 240.112C737.92 240.432 738.112 240.976 738.16 241.296C739.488 241.296 740.368 241.264 740.896 241.088C741.408 240.896 741.568 240.512 741.568 239.808V230.88H740.416ZM733.008 231.664C732.88 233.344 732.368 234.144 730.208 234.576C730.416 234.768 730.688 235.184 730.8 235.44C733.264 234.848 733.936 233.76 734.096 231.664H733.008ZM735.984 231.664V233.552C735.984 234.544 736.24 234.8 737.392 234.8C737.616 234.8 738.816 234.8 739.056 234.8C739.904 234.8 740.192 234.48 740.288 233.184C740 233.12 739.568 232.976 739.36 232.816C739.312 233.776 739.248 233.872 738.912 233.872C738.656 233.872 737.712 233.872 737.504 233.872C737.104 233.872 737.04 233.84 737.04 233.536V231.664H735.984ZM732.224 235.632V240.544H733.296V235.632H732.224ZM732.864 235.632V236.576H737.216V238.624H732.864V239.568H738.304V235.632H732.864ZM731.36 229.184C731.712 229.808 732.064 230.64 732.208 231.184L733.424 230.896C733.264 230.368 732.896 229.552 732.528 228.944L731.36 229.184ZM737.808 228.896C737.584 229.488 737.168 230.384 736.832 230.944L738 231.184C738.336 230.656 738.736 229.904 739.12 229.136L737.808 228.896ZM745.008 236.448V237.456H759.024V236.448H745.008ZM745.072 229.424V230.448H758.96V229.424H745.072ZM745.712 232.16V233.152H758.384V232.16H745.712ZM746.528 234.32V235.248H757.6V234.32H746.528ZM751.376 232.624V241.296H752.56V232.624H751.376ZM749.904 226.56V229.904H751.04V226.56H749.904ZM752.928 226.56V229.856H754.08V226.56H752.928ZM750.992 236.848C749.632 238.24 746.96 239.472 744.592 240C744.848 240.256 745.2 240.72 745.376 241.024C747.76 240.352 750.464 238.96 751.952 237.296L750.992 236.848ZM752.944 236.816L752 237.216C753.504 238.944 756.176 240.4 758.608 241.072C758.784 240.736 759.152 240.256 759.424 240C756.992 239.488 754.304 238.256 752.944 236.816ZM756.64 226.752C756.368 227.488 755.84 228.544 755.408 229.216L756.384 229.536C756.832 228.912 757.408 227.968 757.872 227.088L756.64 226.752ZM754.496 230.144C754.304 230.72 753.888 231.552 753.568 232.112L754.576 232.416C754.928 231.904 755.344 231.168 755.744 230.448L754.496 230.144ZM746.368 227.088C746.88 227.84 747.456 228.864 747.68 229.504L748.752 229.104C748.528 228.448 747.936 227.44 747.392 226.72L746.368 227.088ZM748.448 230.56C748.8 231.088 749.152 231.84 749.28 232.32L750.464 232.064C750.32 231.584 749.952 230.864 749.584 230.336L748.448 230.56ZM761.872 231.216V232.272H775.648V231.216H761.872ZM768.24 230.208V241.28H769.504V230.208H768.24ZM763.024 233.52V237.664H764.288V234.56H774.112V233.52H763.024ZM773.52 233.52V236.512C773.52 236.656 773.472 236.72 773.28 236.72C773.104 236.736 772.496 236.736 771.84 236.704C771.968 236.976 772.16 237.344 772.24 237.664C773.152 237.664 773.792 237.664 774.208 237.488C774.64 237.328 774.752 237.056 774.752 236.512V233.52H773.52ZM768.352 235.792C766.976 237.616 764.208 239.136 761.472 239.76C761.744 240.016 762.08 240.464 762.24 240.768C764.992 239.984 767.76 238.304 769.28 236.176L768.352 235.792ZM769.216 235.744L768.576 236.432C769.792 237.984 772.368 239.872 775.504 240.704C775.68 240.384 776.032 239.92 776.272 239.648C773.104 238.96 770.384 237.264 769.216 235.744ZM763.504 227.968V229.008H768.56V227.968H763.504ZM769.648 227.968V229.008H775.856V227.968H769.648ZM763.84 226.512C763.296 227.904 762.368 229.296 761.312 230.208C761.6 230.352 762.096 230.688 762.32 230.864C763.344 229.888 764.352 228.368 764.992 226.816L763.84 226.512ZM770.032 226.512C769.536 227.952 768.576 229.296 767.472 230.16C767.776 230.32 768.272 230.672 768.48 230.88C769.568 229.904 770.624 228.4 771.216 226.8L770.032 226.512ZM764.448 228.752C764.864 229.424 765.28 230.32 765.44 230.88L766.496 230.496C766.336 229.936 765.872 229.072 765.472 228.432L764.448 228.752ZM771.072 228.688C771.552 229.36 772.048 230.256 772.256 230.848L773.328 230.48C773.104 229.888 772.576 229.008 772.096 228.368L771.072 228.688ZM779.456 227.504V228.56H783.168V236.896H779.456V237.952H784.112V227.504H779.456ZM778.816 227.504V239.392H779.76V227.504H778.816ZM779.36 232.048V233.072H783.664V232.048H779.36ZM786.016 239.6V240.656H791.536V239.6H786.016ZM786.752 228.272V229.296H791.328V228.272H786.752ZM781.024 228.048V237.408H781.84V228.048H781.024ZM785.296 235.424V241.216H786.432V236.496H790.88V241.184H792.064V235.424H785.296ZM791.056 228.272V228.496C789.84 231.552 786.736 234.096 783.84 235.184C784.08 235.408 784.384 235.84 784.544 236.128C787.632 234.832 790.832 232.224 792.256 228.608L791.472 228.208L791.248 228.272H791.056ZM787.344 226.512C786.608 228.352 785.296 230.08 783.824 231.184C784.096 231.376 784.544 231.792 784.736 232C786.208 230.784 787.632 228.88 788.496 226.816L787.344 226.512ZM786.736 229.104L785.904 229.696C787.008 231.92 789.376 234.624 792.576 235.936C792.752 235.632 793.104 235.168 793.344 234.944C790.144 233.776 787.776 231.232 786.736 229.104ZM581.424 255.504V264.768H582.608V255.504H581.424ZM585.264 255.504V264.768H586.448V255.504H585.264ZM583.2 251.952C583.04 252.992 582.688 254.496 582.368 255.472L583.552 255.632C583.904 254.72 584.32 253.328 584.672 252.08L583.2 251.952ZM577.664 254.928V265.296H578.896V256.048H589.712V254.928H577.664ZM589.168 254.928V263.776C589.168 264 589.104 264.064 588.848 264.08C588.608 264.096 587.792 264.112 586.896 264.08C587.072 264.384 587.248 264.88 587.312 265.2C588.464 265.2 589.264 265.184 589.76 264.992C590.24 264.8 590.368 264.464 590.368 263.776V254.928H589.168ZM576.848 251.408V252.624H591.2V251.408H576.848ZM593.776 251.456V252.56H600.672V251.456H593.776ZM601.808 256.016V257.168H608.24V256.016H601.808ZM605.28 256.768V265.296H606.464V256.768H605.28ZM601.344 252.144V256.416C601.344 258.864 601.12 262.08 598.896 264.448C599.184 264.592 599.616 264.992 599.792 265.248C602.192 262.672 602.528 259.008 602.528 256.416V252.752C602.752 252.72 602.832 252.656 602.848 252.544L601.344 252.144ZM594.368 254.224V258.544C594.368 260.384 594.256 262.848 593.136 264.576C593.392 264.72 593.888 265.088 594.08 265.312C595.312 263.424 595.504 260.592 595.504 258.544V254.224H594.368ZM606.864 250.752C605.664 251.44 603.504 252.128 601.6 252.576C601.76 252.848 601.952 253.28 602.016 253.552C604.016 253.088 606.336 252.432 607.92 251.664L606.864 250.752ZM595.024 254.224V255.328H599.104V258.128H595.024V259.216H600.272V254.224H595.024ZM611.744 251.216V252.176H623.44V251.216H611.744ZM610.624 258.304V259.28H624.608V258.304H610.624ZM612.688 254.864V255.68H616.144V254.864H612.688ZM612.352 256.544V257.36H616.144V256.544H612.352ZM618.96 256.544V257.36H622.88V256.544H618.96ZM618.96 254.864V255.68H622.496V254.864H618.96ZM616.96 251.584V257.776H618.128V251.584H616.96ZM615.376 261.056V265.168H616.496V261.056H615.376ZM618.928 261.056V265.168H620.032V261.056H618.928ZM610.816 253.104V256.176H611.904V253.984H623.264V256.176H624.4V253.104H610.816ZM611.872 260.432V265.264H613.008V261.424H622.848V260.432H611.872ZM622.544 260.432V264.08C622.544 264.224 622.496 264.272 622.32 264.288C622.144 264.304 621.6 264.304 620.96 264.288C621.104 264.576 621.28 264.992 621.328 265.28C622.208 265.28 622.8 265.296 623.2 265.104C623.616 264.928 623.696 264.64 623.696 264.096V260.432H622.544ZM616.976 258.672C616.864 259.328 616.576 260.288 616.336 260.944L617.392 261.056C617.664 260.464 618 259.584 618.288 258.72L616.976 258.672ZM627.12 259.312V260.32H641.68V259.312H627.12ZM627.504 251.264V252.32H641.28V251.264H627.504ZM632.672 257.632C631.68 259.2 630.192 261.344 629.168 262.64L630.304 263.024C631.328 261.712 632.8 259.616 633.84 257.952L632.672 257.632ZM637.472 259.664C636.192 262.784 633.056 263.92 627.344 264.224C627.536 264.496 627.728 264.928 627.808 265.28C633.808 264.832 637.216 263.52 638.624 260L637.472 259.664ZM630.032 262.48C634.096 263.232 638.016 264.32 640.464 265.328L641.184 264.352C638.704 263.376 634.592 262.304 630.64 261.6L630.032 262.48ZM631.872 251.664V257.248H633.008V251.664H631.872ZM635.6 251.664V257.248H636.736V251.664H635.6ZM629.424 254.672H639.408V256.848H629.424V254.672ZM628.304 253.696V257.84H640.608V253.696H628.304ZM647.584 254.624H654.912V256.144H647.584V254.624ZM647.584 257.056H654.912V258.592H647.584V257.056ZM647.584 252.192H654.912V253.712H647.584V252.192ZM646.4 251.232V259.552H656.144V251.232H646.4ZM644.096 260.656V261.776H658.304V260.656H644.096ZM652.528 263.088C654.336 263.76 656.208 264.624 657.328 265.28L658.48 264.464C657.248 263.808 655.232 262.944 653.392 262.288L652.528 263.088ZM648.816 262.208C647.744 262.96 645.664 263.856 644.016 264.352C644.288 264.608 644.656 265.024 644.848 265.28C646.48 264.736 648.544 263.84 649.904 262.976L648.816 262.208ZM667.52 250.704V254.448H668.656V250.704H667.52ZM671.648 250.704V254.448H672.8V250.704H671.648ZM670.576 257.584V265.2H671.568V257.584H670.576ZM664.928 252.064V253.12H675.312V252.064H664.928ZM667.888 259.552V260.416H674.256V259.552H667.888ZM667.888 261.792V262.64H674.256V261.792H667.888ZM665.728 255.008V256.064H675.376V255.008H665.728ZM665.2 255.008V258.448C665.2 260.256 665.088 262.752 663.936 264.544C664.192 264.688 664.656 265.072 664.832 265.28C666.096 263.344 666.32 260.464 666.32 258.464V255.008H665.2ZM667.28 257.248V265.28H668.32V258.16H674.416V257.248H667.28ZM673.92 257.248V264.112C673.92 264.288 673.872 264.336 673.68 264.352C673.504 264.368 672.944 264.368 672.256 264.352C672.4 264.624 672.512 265.024 672.56 265.296C673.504 265.296 674.112 265.28 674.496 265.12C674.88 264.944 674.976 264.656 674.976 264.112V257.248H673.92ZM663.712 250.656C662.944 253.12 661.68 255.584 660.272 257.184C660.48 257.488 660.8 258.128 660.912 258.416C662.496 256.544 663.92 253.728 664.832 250.96L663.712 250.656ZM662.432 254.576V265.28H663.568V253.504L663.536 253.472L662.432 254.576ZM678.896 253.136V254.208H682.64V262.512H678.896V263.6H683.76V253.136H678.896ZM678.176 253.136V264.88H679.296V253.136H678.176ZM678.816 257.584V258.656H683.232V257.584H678.816ZM680.624 250.528C680.496 251.36 680.192 252.576 679.92 253.344L680.88 253.584C681.2 252.864 681.6 251.76 681.92 250.768L680.624 250.528ZM686.032 253.088V254.208H690.944V253.088H686.032ZM690.528 253.088V253.344C690.304 260.4 690.048 263.056 689.52 263.632C689.344 263.84 689.152 263.888 688.832 263.888C688.464 263.888 687.504 263.872 686.464 263.792C686.688 264.112 686.832 264.608 686.864 264.96C687.76 265.008 688.704 265.04 689.248 264.976C689.808 264.928 690.176 264.784 690.528 264.32C691.168 263.536 691.392 261.056 691.648 253.712C691.648 253.536 691.648 253.088 691.648 253.088H690.528ZM686.368 250.496C685.856 252.72 684.976 254.928 683.888 256.336C684.176 256.496 684.672 256.832 684.88 257.024C685.984 255.504 686.928 253.152 687.52 250.768L686.368 250.496ZM685.632 257.248C686.512 258.416 687.584 260 688.064 260.976L689.088 260.336C688.576 259.392 687.472 257.84 686.56 256.704L685.632 257.248ZM696.336 250.56V265.264H697.552V250.56H696.336ZM694.864 253.6C694.752 254.896 694.464 256.656 694.032 257.728L694.976 258.048C695.408 256.896 695.696 255.04 695.776 253.744L694.864 253.6ZM697.664 253.504C698.112 254.4 698.592 255.568 698.768 256.272L699.664 255.824C699.488 255.136 698.992 254 698.496 253.136L697.664 253.504ZM700.928 251.312C700.576 253.472 699.936 255.648 698.992 257.056C699.296 257.184 699.84 257.44 700.08 257.616C700.976 256.112 701.68 253.84 702.096 251.504L700.928 251.312ZM700.944 253.952L700.576 255.104H708.384V253.952H700.944ZM703.536 250.624V264.224H704.736V250.624H703.536ZM700.128 258.432V259.568H708.032V258.432H700.128ZM698.928 263.568V264.72H708.768V263.568H698.928ZM719.248 252.288V253.344H723.76V252.288H719.248ZM717.792 259.424V265.296H718.912V260.464H723.376V265.248H724.528V259.424H717.792ZM718.272 263.536V264.592H723.984V263.536H718.272ZM719.712 250.544C718.96 252.48 717.664 254.304 716.192 255.456C716.464 255.632 716.944 256.048 717.136 256.256C718.592 254.992 720 252.992 720.864 250.864L719.712 250.544ZM723.424 252.288V252.496C722.256 255.888 719.056 258.352 715.84 259.36C716.08 259.584 716.384 260.032 716.528 260.336C719.936 259.104 723.232 256.56 724.608 252.592L723.856 252.24L723.648 252.288H723.424ZM719.152 253.12L718.272 253.68C719.36 256.064 721.712 258.72 725.28 259.968C725.44 259.68 725.776 259.2 726.016 258.976C722.496 257.904 720.144 255.392 719.152 253.12ZM711.216 254V255.136H716.848V254H711.216ZM713.632 250.56V265.264H714.768V250.56H713.632ZM713.584 254.704C713.104 257.008 711.968 259.776 710.832 261.216C711.056 261.488 711.344 261.952 711.472 262.272C712.672 260.656 713.808 257.536 714.336 254.96L713.584 254.704ZM714.688 255.776L714.096 256.304C714.544 256.88 715.696 258.528 716.08 259.232L716.8 258.304C716.48 257.872 715.072 256.16 714.688 255.776Z" fill="#FFFBF7"/>
</g>
</svg>
