<svg width="840" height="472" viewBox="0 0 840 472" fill="none" xmlns="http://www.w3.org/2000/svg">
<mask id="mask0_2992_12742" style="mask-type:alpha" maskUnits="userSpaceOnUse" x="0" y="0" width="840" height="472">
<rect width="840" height="472" fill="#D9D9D9"/>
</mask>
<g mask="url(#mask0_2992_12742)">
<rect width="840" height="472" fill="#0C1C24"/>
<circle cx="549" cy="243" r="5.5" stroke="#EDEFED"/>
<path d="M373 243L542 243" stroke="#EDEFED"/>
<circle cx="549" cy="102" r="5.5" stroke="#EDEFED"/>
<path d="M373 102L542 102" stroke="#EDEFED"/>
<circle cx="279" cy="472" r="436" fill="#FF0A00" fill-opacity="0.2"/>
<circle cx="279" cy="470" r="282" fill="#FF0A00" fill-opacity="0.4"/>
<circle cx="279" cy="472" r="150" fill="#FF0A00"/>
<path d="M217.256 376.9H231.656V383.74H217.256V376.9ZM214.628 374.308V386.332H234.392V374.308H214.628ZM209.408 390.148V405.88H211.964V392.74H219.524V405.592H222.224V390.148H209.408ZM226.148 390.148V405.88H228.74V392.74H236.984V405.664H239.684V390.148H226.148ZM210.56 401.344V403.936H220.604V401.344H210.56ZM227.48 401.344V403.936H238.172V401.344H227.48ZM257.288 396.016V398.392H277.592V396.016H257.288ZM269.42 390.976V405.844H271.976V390.976H269.42ZM265.892 372.652C265.496 374.02 264.704 375.928 264.02 377.26L266.216 377.872C267.008 376.72 268.052 374.884 268.952 373.264L265.892 372.652ZM266.504 377.584V383.38C266.504 387.016 265.496 391.3 258.62 394.216C259.16 394.576 260.024 395.296 260.42 395.764C267.692 392.632 268.844 387.772 268.844 383.452V377.584H266.504ZM247.928 382.66V385.036H257.972V382.66H247.928ZM252.644 372.796V384.1H255.02V372.796H252.644ZM248.072 390.328V392.668H253.724V405.88H256.136V390.328H248.072ZM246.776 373.516V387.304C246.776 392.596 246.452 399.868 244.364 405.052C245.084 405.268 246.164 405.664 246.704 405.952C248.756 400.516 249.152 393.064 249.152 387.304V373.516H246.776ZM261.284 384.172H274.064V387.988H261.284V384.172ZM261.284 378.376H274.064V382.12H261.284V378.376ZM258.836 376.216V390.112H276.584V376.216H258.836ZM286.412 372.868V405.844H288.86V372.868H286.412ZM281.3 384.856V387.412H292.892V384.856H281.3ZM286.268 386.188C285.296 390.364 283.028 395.836 280.904 398.644C281.372 399.4 282.056 400.588 282.344 401.416C284.612 398.104 286.844 391.768 287.96 386.944L286.268 386.188ZM288.788 388.096L287.456 389.14C288.464 390.688 290.984 395.152 291.74 397.024L293.54 394.936C292.856 393.784 289.688 389.14 288.788 388.096ZM281.696 375.568C282.632 378.052 283.46 381.364 283.676 383.488L285.656 382.984C285.404 380.86 284.576 377.62 283.532 375.1L281.696 375.568ZM291.668 374.956C291.164 377.404 290.156 380.932 289.364 383.056L291.02 383.596C291.956 381.58 293.036 378.196 293.936 375.532L291.668 374.956ZM295.16 375.712V377.764H313.484V375.712H295.16ZM296.06 379.996V381.976H312.692V379.996H296.06ZM294.152 384.424V386.512H314.384V384.424H294.152ZM302.72 372.796V385.576H305.312V372.796H302.72ZM296.42 388.708V405.844H298.976V390.76H310.28V388.708H296.42ZM309.452 388.708V403.108C309.452 403.504 309.344 403.648 308.876 403.648C308.408 403.648 306.932 403.648 305.312 403.612C305.636 404.26 305.96 405.196 306.104 405.844C308.336 405.844 309.848 405.844 310.784 405.484C311.756 405.088 312.008 404.404 312.008 403.108V388.708H309.452ZM297.788 393.424V395.368H310.496V393.424H297.788ZM297.788 398.068V400.012H310.496V398.068H297.788ZM333.356 386.116V388.492H349.124V386.116H333.356ZM333.284 393.244V395.692H349.52V393.244H333.284ZM339.728 372.76V405.88H342.32V372.76H339.728ZM331.988 379.024V397.24H334.508V381.472H347.828V397.06H350.384V379.024H331.988ZM318.56 379.528V382.012H329.432V379.528H318.56ZM323.492 372.796V380.752H326.12V372.796H323.492ZM326.408 387.7L324.86 389.068C326.012 390.184 328.856 393.136 329.9 394.468L331.484 392.272C330.692 391.48 327.38 388.42 326.408 387.7ZM328.46 379.528V380.104C326.444 385.54 321.728 391.012 317.228 393.928C317.696 394.396 318.38 395.656 318.632 396.34C323.42 392.992 328.532 386.944 331.016 380.392L329.504 379.42L329.036 379.528H328.46ZM323.492 390.364V405.844H326.12V387.124L323.492 390.364Z" fill="white"/>
<path d="M173.52 430.04V431.14H178.4V430.04H173.52ZM173.32 442.6V443.74H179.56V442.6H173.32ZM172.42 434.52V435.52H179.1V434.52H172.42ZM171.78 432.24V435.5C171.78 437.8 171.52 440.94 169.66 443.22C169.94 443.4 170.48 443.88 170.68 444.16C172.72 441.68 173.1 438.06 173.1 435.54V432.24H171.78ZM172.52 432.24V433.36H178.38V436.7H172.48V437.82H179.74V432.24H172.52ZM172.78 439.06V444.58H174.08V440.2H178.7V444.44H180.04V439.06H172.78ZM181.38 428.62V439.7H182.82V428.62H181.38ZM185.88 426.58V442.64C185.88 443 185.74 443.12 185.36 443.12C185 443.14 183.8 443.16 182.44 443.1C182.66 443.54 182.9 444.22 182.96 444.6C184.76 444.62 185.84 444.58 186.46 444.32C187.08 444.08 187.34 443.64 187.34 442.62V426.58H185.88ZM174.94 426.4C173.96 428.04 172.14 430.08 169.66 431.56C169.96 431.78 170.42 432.26 170.62 432.6C173.26 430.88 175.1 428.78 176.24 427.16V426.72H175.76V426.4H174.94ZM175.22 426.4V427.46H175.52C176.98 428.52 178.8 430.28 179.74 431.32L180.74 430.2C179.72 429.14 177.82 427.52 176.3 426.4H175.22ZM200.74 432.96V434.36H208.18V432.96H200.74ZM190.22 428.3V429.58H199.04V428.3H190.22ZM190 436.24V437.54H199.14V436.24H190ZM189.94 432.88V434.16H199.28V432.88H189.94ZM204.46 433.52V444.5H205.92V433.52H204.46ZM193.92 426.28V428.96H195.38V426.28H193.92ZM193.92 433.92V444.58H195.38V433.92H193.92ZM200.02 427.84V434.84C200.02 437.68 199.74 441.14 197.18 443.66C197.54 443.86 198.08 444.36 198.26 444.7C201.08 441.92 201.44 437.86 201.44 434.86V428.68C201.72 428.64 201.84 428.56 201.86 428.4L200.02 427.84ZM206.72 426.44C205.26 427.16 202.62 427.86 200.38 428.34C200.56 428.64 200.76 429.16 200.84 429.48C203.24 429.06 206.04 428.38 207.92 427.54L206.72 426.44ZM195.24 437.92L194.42 438.6C195.16 439.22 197.04 440.98 197.68 441.72L198.56 440.6C198.06 440.14 195.88 438.36 195.24 437.92ZM191.42 429.94C191.82 430.86 192.14 432.06 192.2 432.84L193.46 432.5C193.36 431.74 193.02 430.56 192.6 429.68L191.42 429.94ZM196.54 429.64C196.32 430.48 195.9 431.72 195.54 432.52L196.74 432.8C197.1 432.06 197.52 430.94 197.9 429.94L196.54 429.64ZM193.94 436.9C192.98 438.86 191.16 441.02 189.54 442.08C189.88 442.32 190.32 442.8 190.56 443.14C192.16 441.9 194 439.54 195.02 437.32L193.94 436.9ZM219.4 425.4H218.58V445.4H219.4V425.4ZM238 434V435.26H241.42V434H238ZM240.96 434V434.22C240.88 438.28 240.8 439.66 240.58 439.98C240.48 440.14 240.32 440.18 240.1 440.18C239.86 440.18 239.28 440.18 238.62 440.1C238.82 440.48 238.96 441.06 238.98 441.48C239.66 441.52 240.34 441.52 240.72 441.46C241.18 441.42 241.44 441.28 241.7 440.92C242.08 440.42 242.16 438.86 242.24 434.58C242.24 434.4 242.24 434 242.24 434H240.96ZM244.98 426.92C245.74 427.64 246.64 428.66 247.04 429.3L248.08 428.64C247.66 427.98 246.76 427.02 245.98 426.36L244.98 426.92ZM246.42 432.88C245.44 437.6 243.34 441.48 240.66 443.74C240.98 443.94 241.42 444.3 241.62 444.52C244.38 442.14 246.56 438.18 247.72 433.38L246.42 432.88ZM242.92 426.26C243.1 436.74 243.62 444.5 246.62 444.62C247.34 444.64 248.08 443.78 248.46 440.52C248.22 440.4 247.64 440.06 247.4 439.8C247.26 441.74 247.02 442.92 246.64 442.92C245 442.82 244.28 435.44 244.26 426.26H242.92ZM237.7 429.9V431.26H248.06V429.9H237.7ZM237.12 429.9V435.18C237.12 437.74 236.98 441.22 235.62 443.76C235.94 443.9 236.52 444.38 236.74 444.64C238.24 441.96 238.5 437.94 238.5 435.18V429.9H237.12ZM230.58 432.26V433.46H235.72V432.26H230.58ZM230.7 426.92V428.12H235.66V426.92H230.7ZM230.58 434.94V436.14H235.72V434.94H230.58ZM229.76 429.54V430.78H236.22V429.54H229.76ZM231.28 437.64V438.88H234.44V442.22H231.28V443.46H235.7V437.64H231.28ZM230.54 437.64V444.4H231.78V437.64H230.54ZM257.08 427.16V428.38H266.34V427.16H257.08ZM256.84 432.7V433.94H266.7V432.7H256.84ZM256.84 435.48V436.72H266.66V435.48H256.84ZM257.42 442.42V443.66H266.1V442.42H257.42ZM255.2 429.92V431.18H268.22V429.92H255.2ZM256.64 438.26V444.6H258.08V439.48H265.38V444.54H266.88V438.26H256.64ZM254.52 426.26C253.36 429.3 251.4 432.28 249.38 434.18C249.66 434.54 250.08 435.32 250.22 435.66C252.44 433.44 254.58 430.08 255.94 426.7L254.52 426.26ZM252.44 431.42V444.56H253.88V430.02L253.86 430L252.44 431.42ZM279.4 425.4H278.58V445.4H279.4V425.4ZM291.76 426.94V428.34H296.4V426.94H291.76ZM291.76 431.62V433.02H296.44V431.62H291.76ZM299.56 433.8V435.2H306.82V433.8H299.56ZM291.72 436.42V437.84H296.4V436.42H291.72ZM291.14 426.94V434.14C291.14 437.08 291.04 441.1 289.66 443.92C290.02 444.06 290.62 444.4 290.9 444.64C292.32 441.68 292.52 437.26 292.52 434.14V426.94H291.14ZM295.56 426.94V442.8C295.56 443.08 295.46 443.16 295.18 443.18C294.94 443.2 294.1 443.2 293.16 443.18C293.36 443.56 293.54 444.24 293.6 444.6C294.96 444.62 295.76 444.58 296.28 444.34C296.78 444.08 296.96 443.62 296.96 442.82V426.94H295.56ZM305.78 427V430.86C305.78 431.1 305.7 431.18 305.38 431.18C305.06 431.2 304 431.2 302.8 431.18C302.98 431.54 303.2 432.04 303.28 432.46C304.8 432.46 305.8 432.46 306.42 432.24C307.06 432.02 307.22 431.62 307.22 430.88V427H305.78ZM306.42 433.8V434.08C305.56 438.46 303.08 441.88 300.24 443.38C300.54 443.64 300.94 444.16 301.12 444.5C304.24 442.64 306.8 439.18 307.8 434.06L306.92 433.76L306.68 433.8H306.42ZM301.8 434.66L300.6 434.98C301.86 439.24 304.18 442.86 307.42 444.62C307.64 444.28 308.06 443.76 308.4 443.48C305.26 441.96 302.94 438.54 301.8 434.66ZM298.72 427V444.6H300.14V428.4H306.18V427H298.72ZM310.14 427.2V428.5H316.96V427.2H310.14ZM317.86 437.42V438.72H326.54V437.42H317.86ZM309.92 433.24V434.58H317.44V433.24H309.92ZM313.42 433.78V442.86C313.42 443.08 313.34 443.14 313.12 443.16C312.88 443.16 312.08 443.16 311.22 443.14C311.42 443.54 311.62 444.16 311.66 444.54C312.9 444.54 313.68 444.52 314.18 444.3C314.72 444.04 314.86 443.64 314.86 442.86V433.78H313.42ZM326.02 437.42V437.66C325.72 441.16 325.36 442.56 324.94 442.96C324.76 443.14 324.58 443.16 324.26 443.16C323.94 443.16 323.14 443.14 322.28 443.06C322.5 443.46 322.64 444.06 322.68 444.46C323.58 444.52 324.46 444.52 324.92 444.48C325.46 444.44 325.82 444.32 326.18 443.96C326.76 443.36 327.12 441.84 327.5 438.08C327.54 437.86 327.56 437.42 327.56 437.42H326.02ZM321.6 435.44C321.26 438.9 320.48 441.92 316.32 443.46C316.64 443.72 317.04 444.26 317.22 444.62C321.74 442.86 322.72 439.48 323.1 435.44H321.6ZM310.84 430.54C312.54 431.3 314.58 432.56 315.58 433.48L316.58 432.38C315.54 431.46 313.46 430.28 311.78 429.58L310.84 430.54ZM317.04 433.24V433.5C316.72 434.94 316.22 436.72 315.7 437.82L316.76 438.34C317.38 437.1 317.98 435.18 318.4 433.5L317.48 433.18L317.26 433.24H317.04ZM325.06 428.92C323.98 432.02 321.18 433.8 317.54 434.72C317.84 435.04 318.3 435.66 318.48 435.98C322.26 434.8 325.26 432.8 326.6 429.18L325.06 428.92ZM320.78 426.2C319.98 428.12 318.52 429.94 316.94 431.12C317.32 431.32 317.92 431.74 318.18 432C319.72 430.72 321.26 428.72 322.2 426.58L320.78 426.2ZM320.42 429.34L319.18 429.76C320.78 432.84 323.78 435.08 327.44 436.06C327.64 435.66 328.08 435.08 328.4 434.78C324.84 434 321.86 432 320.42 429.34ZM313.24 433.68C312.58 435.98 311.16 438.6 309.72 439.96C309.98 440.32 310.34 440.94 310.5 441.36C312.06 439.8 313.5 436.7 314.26 434.06L313.24 433.68ZM320.34 428.32L319.72 429.6H327.98V428.32H320.34ZM316.6 427.2V427.48C315.94 428.56 314.54 430.02 313.26 430.86C313.56 431.04 314.02 431.36 314.28 431.6C315.66 430.68 317.22 429.16 318.14 427.76L317.16 427.14L316.92 427.2H316.6ZM339.4 425.4H338.58V445.4H339.4V425.4ZM356.48 433H361.34V437.6H356.48V433ZM355.06 431.66V438.92H362.84V431.66H355.06ZM350.64 427.02V444.58H352.18V428.54H365.76V444.58H367.36V427.02H350.64ZM351.5 442.1V443.52H366.68V442.1H351.5ZM377.44 431.92V433H388.28V431.92H377.44ZM379.7 428.56H386V429.92H379.7V428.56ZM378.44 427.56V430.9H387.32V427.56H378.44ZM382.1 426.18V432.48H383.48V426.18H382.1ZM379.88 437.02H385.82V438.2H379.88V437.02ZM379.88 439.12H385.82V440.32H379.88V439.12ZM379.88 434.92H385.82V436.08H379.88V434.92ZM378.5 433.94V441.3H387.24V433.94H378.5ZM383.74 442.18C385.04 442.98 386.52 444.02 387.38 444.78L388.5 444.02C387.58 443.24 386.04 442.22 384.66 441.44L383.74 442.18ZM380.6 441.5C379.68 442.38 378.06 443.18 376.58 443.7C376.88 443.96 377.38 444.52 377.58 444.78C379.1 444.14 380.9 443.08 381.96 441.96L380.6 441.5ZM370.98 432.04V444.58H372.24V432.04H370.98ZM371.76 434.34V435.32H376.4V434.34H371.76ZM372.18 429.8V430.9H376.1V429.8H372.18ZM371.72 438.94V440.1H376.96V438.94H371.72ZM371.76 441.42V442.64H377.14V441.42H371.76ZM371.7 432.04V433.1H375.68V436.62H371.7V437.68H376.94V432.04H371.7ZM373.1 426.22C372.38 427.7 371.14 429.6 369.42 431.06C369.74 431.24 370.18 431.64 370.4 431.94C372.24 430.3 373.5 428.32 374.3 426.92V426.54H373.86V426.22H373.1ZM373.54 426.22V427.16H373.78C374.98 428.18 376.34 429.86 377.02 430.88L377.96 429.84C377.26 428.84 375.8 427.3 374.58 426.22H373.54Z" fill="#FFFBF7"/>
<path d="M217.256 230.9H231.656V237.74H217.256V230.9ZM214.628 228.308V240.332H234.392V228.308H214.628ZM209.408 244.148V259.88H211.964V246.74H219.524V259.592H222.224V244.148H209.408ZM226.148 244.148V259.88H228.74V246.74H236.984V259.664H239.684V244.148H226.148ZM210.56 255.344V257.936H220.604V255.344H210.56ZM227.48 255.344V257.936H238.172V255.344H227.48ZM257.288 250.016V252.392H277.592V250.016H257.288ZM269.42 244.976V259.844H271.976V244.976H269.42ZM265.892 226.652C265.496 228.02 264.704 229.928 264.02 231.26L266.216 231.872C267.008 230.72 268.052 228.884 268.952 227.264L265.892 226.652ZM266.504 231.584V237.38C266.504 241.016 265.496 245.3 258.62 248.216C259.16 248.576 260.024 249.296 260.42 249.764C267.692 246.632 268.844 241.772 268.844 237.452V231.584H266.504ZM247.928 236.66V239.036H257.972V236.66H247.928ZM252.644 226.796V238.1H255.02V226.796H252.644ZM248.072 244.328V246.668H253.724V259.88H256.136V244.328H248.072ZM246.776 227.516V241.304C246.776 246.596 246.452 253.868 244.364 259.052C245.084 259.268 246.164 259.664 246.704 259.952C248.756 254.516 249.152 247.064 249.152 241.304V227.516H246.776ZM261.284 238.172H274.064V241.988H261.284V238.172ZM261.284 232.376H274.064V236.12H261.284V232.376ZM258.836 230.216V244.112H276.584V230.216H258.836ZM292.136 228.956V259.88H294.656V231.368H310.604V259.592H313.196V228.956H292.136ZM296.132 236.588V238.712H309.38V236.588H296.132ZM293.504 255.308V257.72H312.044V255.308H293.504ZM301.604 232.52V243.932H303.8V232.52H301.604ZM299.732 244.688H305.816V250.268H299.732V244.688ZM297.644 242.672V252.32H307.976V242.672H297.644ZM288.392 226.94C286.628 232.412 283.676 237.848 280.436 241.376C280.904 242.024 281.66 243.5 281.876 244.148C285.476 240.008 288.824 233.816 290.876 227.66L288.392 226.94ZM285.404 235.76V259.952H287.96V233.24L287.924 233.204L285.404 235.76ZM322.736 226.76V259.844H325.472V226.76H322.736ZM319.424 233.6C319.172 236.516 318.524 240.476 317.552 242.888L319.676 243.608C320.648 241.016 321.296 236.84 321.476 233.924L319.424 233.6ZM325.724 233.384C326.732 235.4 327.812 238.028 328.208 239.612L330.224 238.604C329.828 237.056 328.712 234.5 327.596 232.556L325.724 233.384ZM333.068 228.452C332.276 233.312 330.836 238.208 328.712 241.376C329.396 241.664 330.62 242.24 331.16 242.636C333.176 239.252 334.76 234.14 335.696 228.884L333.068 228.452ZM333.104 234.392L332.276 236.984H349.844V234.392H333.104ZM338.936 226.904V257.504H341.636V226.904H338.936ZM331.268 244.472V247.028H349.052V244.472H331.268ZM328.568 256.028V258.62H350.708V256.028H328.568Z" fill="white"/>
<path d="M217.256 88.9H231.656V95.74H217.256V88.9ZM214.628 86.308V98.332H234.392V86.308H214.628ZM209.408 102.148V117.88H211.964V104.74H219.524V117.592H222.224V102.148H209.408ZM226.148 102.148V117.88H228.74V104.74H236.984V117.664H239.684V102.148H226.148ZM210.56 113.344V115.936H220.604V113.344H210.56ZM227.48 113.344V115.936H238.172V113.344H227.48ZM257.288 108.016V110.392H277.592V108.016H257.288ZM269.42 102.976V117.844H271.976V102.976H269.42ZM265.892 84.652C265.496 86.02 264.704 87.928 264.02 89.26L266.216 89.872C267.008 88.72 268.052 86.884 268.952 85.264L265.892 84.652ZM266.504 89.584V95.38C266.504 99.016 265.496 103.3 258.62 106.216C259.16 106.576 260.024 107.296 260.42 107.764C267.692 104.632 268.844 99.772 268.844 95.452V89.584H266.504ZM247.928 94.66V97.036H257.972V94.66H247.928ZM252.644 84.796V96.1H255.02V84.796H252.644ZM248.072 102.328V104.668H253.724V117.88H256.136V102.328H248.072ZM246.776 85.516V99.304C246.776 104.596 246.452 111.868 244.364 117.052C245.084 117.268 246.164 117.664 246.704 117.952C248.756 112.516 249.152 105.064 249.152 99.304V85.516H246.776ZM261.284 96.172H274.064V99.988H261.284V96.172ZM261.284 90.376H274.064V94.12H261.284V90.376ZM258.836 88.216V102.112H276.584V88.216H258.836ZM281.912 86.992V89.548H300.452V86.992H281.912ZM281.336 98.872V101.392H300.956V98.872H281.336ZM294.404 87.676V117.88H297.068V87.676H294.404ZM286.052 87.64V99.232C286.052 105.28 285.548 111.472 281.156 116.296C281.804 116.692 282.776 117.556 283.208 118.096C288.032 112.804 288.608 106 288.608 99.232V87.64H286.052ZM310.28 85.372C308.084 88.288 303.944 91.312 300.488 93.04C301.208 93.544 302 94.372 302.468 94.948C306.104 92.932 310.172 89.728 312.836 86.416L310.28 85.372ZM311.36 95.272C308.948 98.404 304.556 101.68 300.884 103.552C301.568 104.056 302.36 104.884 302.792 105.46C306.644 103.3 311.036 99.844 313.808 96.316L311.36 95.272ZM312.152 105.028C309.452 109.528 304.34 113.488 299.012 115.72C299.696 116.26 300.488 117.232 300.92 117.88C306.5 115.288 311.648 111.004 314.708 106.036L312.152 105.028ZM328.388 102.94C335.768 107.296 336.56 113.416 334.112 115.036C333.428 115.54 332.636 115.612 331.772 115.612C330.98 115.612 329.756 115.612 328.532 115.468C329 116.188 329.252 117.232 329.288 117.916C330.368 117.952 331.448 117.988 332.24 117.988C333.716 117.988 334.652 117.736 335.84 116.98C339.548 114.568 338.756 106.468 330.152 101.572L328.388 102.94ZM332.096 104.128C329.216 106.324 323.564 108.412 319.136 109.348C319.604 109.816 320.288 110.68 320.648 111.256C325.112 110.14 330.836 107.692 334.004 105.136L332.096 104.128ZM334.508 107.404C330.98 110.644 324.14 113.74 318.488 115.108C319.028 115.648 319.748 116.584 320.108 117.16C325.652 115.54 332.6 112.156 336.452 108.484L334.508 107.404ZM327.56 87.172V89.332H338.18V87.172H327.56ZM334.184 98.728C330.62 101.104 324.32 103.084 318.956 104.164C319.388 104.632 320.108 105.676 320.396 106.144C325.76 104.812 332.312 102.544 336.272 99.736L334.184 98.728ZM337.28 99.196L335.048 99.736C337.388 107.98 341.996 114.028 349.34 116.8C349.7 116.08 350.492 115.072 351.068 114.568C344.012 112.264 339.404 106.54 337.28 99.196ZM347.72 100.744C345.524 102.616 341.636 105.1 338.864 106.504L340.556 107.908C343.4 106.576 347.144 104.308 349.916 102.364L347.72 100.744ZM324.86 94.12H344.552V98.26H324.86V94.12ZM322.304 92.032V100.348H347.18V92.032H322.304ZM328.532 84.652C326.624 87.604 323.096 91.168 318.38 93.76C318.956 94.156 319.82 95.02 320.216 95.632C325.184 92.608 328.82 88.828 331.34 85.228L328.532 84.652ZM333.14 93.04V99.448H335.804V93.04H333.14ZM337.172 87.172V87.712C336.452 89.188 334.868 91.42 333.392 92.716C334.004 93.04 334.868 93.616 335.372 93.976C336.956 92.572 338.864 90.268 340.016 88.252L338.18 87.064L337.748 87.172H337.172Z" fill="white"/>
<path d="M181 292.94V294.22H195.94V292.94H181ZM195.3 292.94L195.28 293.14C195.04 295.74 194.74 296.84 194.36 297.16C194.18 297.32 193.96 297.34 193.54 297.34C193.12 297.34 191.88 297.32 190.68 297.2C190.9 297.58 191.08 298.12 191.12 298.52C192.34 298.58 193.52 298.6 194.12 298.56C194.76 298.54 195.2 298.44 195.58 298.08C196.12 297.58 196.46 296.38 196.76 293.58C196.8 293.38 196.82 292.94 196.82 292.94H195.3ZM188.12 291.24C187.64 294.64 186.36 296.54 180.24 297.4C180.52 297.7 180.84 298.3 180.94 298.66C187.48 297.62 189.06 295.3 189.66 291.24H188.12ZM181.5 280.98V282.16H194.82V280.98H181.5ZM194.38 280.98V281.3C193.16 282.18 190.74 283.26 188.72 283.84C188.96 284.04 189.34 284.48 189.52 284.74C191.78 284.06 194.34 282.94 196.14 281.8L195.12 280.9L194.78 280.98H194.38ZM184.6 283.48C186.9 284.08 189.88 285.14 191.38 285.94L192.48 284.98C190.86 284.18 187.88 283.2 185.64 282.66L184.6 283.48ZM183.5 288.76H194.76V290.34H183.5V288.76ZM183.5 286.1H194.76V287.68H183.5V286.1ZM182.06 285V291.46H196.28V285H182.06ZM188.26 285.32V290.9H189.7V285.32H188.26ZM199.88 283.48V284.88H208.4V283.48H199.88ZM202.84 287.64V289.02H206.46V287.64H202.84ZM203.42 280.24V283.98H204.9V280.24H203.42ZM212.9 281.94C213.84 284.48 215.6 287.24 217.62 288.88C217.82 288.42 218.14 287.82 218.42 287.42C216.5 286.04 214.66 283.16 213.62 280.22H212.08C211.3 282.94 209.56 285.96 207.56 287.54C207.82 287.9 208.16 288.5 208.32 288.9C210.36 287.24 212.08 284.38 212.9 281.94ZM202.06 284.3C202.02 289.66 201.86 294.8 199.58 297.62C199.96 297.88 200.48 298.34 200.72 298.68C203.2 295.54 203.44 290.1 203.54 284.3H202.06ZM206 287.64V287.94C205.88 294.32 205.72 296.52 205.36 297C205.2 297.22 205.04 297.28 204.74 297.26C204.42 297.26 203.68 297.26 202.84 297.2C203.08 297.58 203.22 298.16 203.26 298.56C204.1 298.62 204.94 298.62 205.42 298.58C205.96 298.5 206.3 298.36 206.62 297.92C207.14 297.22 207.26 294.98 207.4 288.34C207.42 288.12 207.42 287.64 207.42 287.64H206ZM210.74 288.86C212.1 289.74 213.68 291.04 214.42 291.98L215.46 290.92C214.7 290 213.08 288.76 211.72 287.92L210.74 288.86ZM209.12 294.28C211.56 295.42 214.48 297.26 215.9 298.62L216.86 297.3C215.42 295.96 212.44 294.2 210.02 293.14L209.12 294.28ZM228.2 280.2V283.08H229.74V280.2H228.2ZM225.84 283.38C225.5 286.26 224.58 287.9 220.28 288.74C220.58 289.02 220.94 289.58 221.08 289.94C225.82 288.92 227.02 286.88 227.42 283.38H225.84ZM230.4 283.4V287.1C230.4 288.5 230.84 288.9 232.58 288.9C232.94 288.9 235.08 288.9 235.44 288.9C236.74 288.9 237.16 288.44 237.3 286.68C236.9 286.6 236.32 286.4 236.02 286.18C235.94 287.46 235.84 287.64 235.28 287.64C234.84 287.64 233.08 287.64 232.74 287.64C232 287.64 231.88 287.58 231.88 287.1V283.4H230.4ZM220.54 282.24V285.86H222.04V283.6H236.02V285.6H237.58V282.24H220.54ZM220.12 291.22V292.62H237.88V291.22H220.12ZM228.08 288.62C227.72 293.42 226.84 296.12 219.84 297.3C220.14 297.62 220.52 298.24 220.64 298.62C228.08 297.26 229.22 294.08 229.68 288.62H228.08ZM230.08 291.66L228.68 291.92C229.88 295.98 232.38 297.92 237.24 298.6C237.44 298.16 237.86 297.5 238.22 297.14C233.56 296.68 231.08 295.02 230.08 291.66ZM240.02 281.28V282.66H246.74V281.28H240.02ZM241.98 287.44V288.78H244.92V294.74H241.98V296.08H246.26V287.44H241.98ZM242.6 281.94C242.06 285.28 241.1 288.4 239.54 290.44C239.8 290.84 240.16 291.7 240.24 292.06C242.12 289.66 243.3 286.02 244.04 282.24L242.6 281.94ZM241.34 287.44V297.7H242.66V287.44H241.34ZM248.44 283.3V284.66H256.82V283.3H248.44ZM256.46 283.3V283.54C256.24 284.74 255.86 286.22 255.5 287.14L256.68 287.46C257.1 286.46 257.56 284.86 257.88 283.5L256.92 283.24L256.7 283.3H256.46ZM251.88 280.22V288.7H253.24V280.22H251.88ZM247.76 283.3V288.44C247.76 291.26 247.58 295.1 245.78 297.84C246.1 297.98 246.7 298.36 246.92 298.58C248.8 295.7 249.1 291.42 249.1 288.44V283.3H247.76ZM248.56 288.02V289.34H256.04V288.02H248.56ZM255.8 288.02V288.28C254.72 292.8 251.56 296.06 248.1 297.4C248.4 297.68 248.78 298.22 248.94 298.56C252.66 296.92 255.92 293.56 257.18 288.3L256.32 287.96L256.06 288.02H255.8ZM250.16 288.88L248.92 289.22C250.44 293.64 253.24 296.98 257.24 298.58C257.44 298.2 257.88 297.64 258.18 297.38C254.3 296.02 251.5 292.86 250.16 288.88ZM269.4 279.4H268.58V299.4H269.4V279.4ZM291.44 284.86V287.1H292.84V284.86H291.44ZM288.32 284.42V285.46H296V284.42H288.32ZM286.56 290.54V291.48H295.82V290.54H286.56ZM295.66 290.46V291.54H298.1V290.46H295.66ZM286.86 286.62V287.64H297.72V286.62H286.86ZM287.64 288.54V289.52H295.16V292.58H287.58V293.56H296.5V288.54H287.64ZM289.08 294.48V296.92C289.08 298.24 289.48 298.56 291.12 298.56C291.46 298.56 293.58 298.56 293.94 298.56C295.1 298.56 295.5 298.18 295.62 296.66C295.26 296.58 294.74 296.4 294.46 296.2C294.4 297.26 294.3 297.4 293.78 297.4C293.32 297.4 291.58 297.4 291.26 297.4C290.54 297.4 290.42 297.32 290.42 296.92V294.48H289.08ZM287.26 294.58C286.96 295.68 286.36 297.04 285.62 297.86L286.78 298.44C287.54 297.56 288.06 296.16 288.42 295L287.26 294.58ZM290.4 294.06C291.28 294.52 292.3 295.32 292.8 295.9L293.64 295.08C293.12 294.52 292.1 293.76 291.22 293.32L290.4 294.06ZM294.78 294.88C295.8 295.9 296.8 297.34 297.22 298.34L298.4 297.7C297.94 296.72 296.94 295.34 295.88 294.36L294.78 294.88ZM295.84 280.34C294.06 280.74 290.84 281.1 288.12 281.26C288.26 281.54 288.42 281.96 288.48 282.26C291.3 282.1 294.62 281.78 296.9 281.26L295.84 280.34ZM287.76 280.98C287.36 282.36 286.68 283.76 285.82 284.72C286.16 284.88 286.74 285.24 286.98 285.42C287.82 284.4 288.6 282.84 289.08 281.28L287.76 280.98ZM290.98 282.4C291.2 283.02 291.38 283.8 291.42 284.34L292.66 284.04C292.62 283.54 292.4 282.76 292.14 282.18L290.98 282.4ZM294.64 282.08C295.54 283 296.52 284.3 296.94 285.18L298.04 284.52C297.58 283.68 296.62 282.44 295.66 281.54L294.64 282.08ZM282.58 281.86V298.62H284V281.86H282.58ZM279.9 285.96V287.34H286.2V285.96H279.9ZM282.64 286.5C282.06 288.94 280.72 292.06 279.48 293.7C279.72 294.04 280.08 294.64 280.24 295.06C281.58 293.18 282.9 289.62 283.56 286.86L282.64 286.5ZM285.28 280.6C284.04 281.2 281.76 281.7 279.82 282.02C280 282.34 280.2 282.82 280.26 283.12C282.3 282.86 284.7 282.36 286.32 281.68L285.28 280.6ZM283.94 287.92L283.28 288.52C283.8 289.18 285.16 291.14 285.56 291.98L286.42 290.86C286.06 290.38 284.4 288.38 283.94 287.92ZM312.16 280.36V296.24H313.56V280.36H312.16ZM307.88 284.64V285.8H318.36V284.64H307.88ZM308.32 292.8V293.96H317.98V292.8H308.32ZM308.92 290.06V291.22H317.42V290.06H308.92ZM304.38 281.86V283.12H307.28V281.86H304.38ZM305.14 287.48V288.64H307.7V287.48H305.14ZM306.96 281.86V282.04C306.3 283.68 304.92 286.96 303.82 289.28L305.08 289.58C306.16 287.24 307.52 284.14 308.34 282.06L307.38 281.8L307.14 281.86H306.96ZM307.3 287.48V287.72C306.9 292.48 305.52 295.86 303.36 297.44C303.66 297.72 304.04 298.22 304.22 298.54C306.7 296.6 308.12 293.14 308.6 287.6L307.8 287.44L307.56 287.48H307.3ZM305.22 290.26L304.06 290.62C305.38 296.82 308.02 298.24 312.8 298.24H317.9C317.98 297.84 318.2 297.2 318.42 296.86C317.56 296.88 313.5 296.88 312.86 296.88C308.78 296.88 306.3 295.68 305.22 290.26ZM309.24 281.96V283.12H315.86V287.36H309.24V288.54H317.16V281.96H309.24ZM303.34 280.32C302.48 283.26 301.04 286.14 299.4 288.04C299.64 288.42 300.02 289.24 300.16 289.58C302 287.36 303.66 284 304.7 280.7L303.34 280.32ZM301.92 285.38V298.56H303.26V284.08L303.24 284.06L301.92 285.38ZM329.4 279.4H328.58V299.4H329.4V279.4ZM345.8 290.5V297.38H347.18V291.8H349.12V297.38H350.3V291.8H352.26V297.38H353.46V291.8H355.44V297.38H356.86V290.5H345.8ZM344 296.7V298.02H358.24V296.7H344ZM340.78 281.48C341.98 282.06 343.46 283.02 344.16 283.74L345.04 282.52C344.32 281.82 342.84 280.92 341.62 280.38L340.78 281.48ZM339.74 286.88C340.98 287.42 342.46 288.3 343.18 288.98L344.06 287.74C343.3 287.08 341.8 286.24 340.58 285.74L339.74 286.88ZM340.22 297.42L341.54 298.34C342.56 296.48 343.76 294 344.64 291.88L343.46 290.98C342.48 293.26 341.16 295.88 340.22 297.42ZM347.9 282.32H354.7V287.82H347.9V282.32ZM346.54 281.14V289H356.14V281.14H346.54ZM350.98 282.68C350.72 284.2 349.82 285.78 348.3 286.64C348.52 286.82 348.84 287.18 348.98 287.38C350.68 286.44 351.74 284.62 352.08 282.8L350.98 282.68ZM350.54 284.74C351.52 285.54 352.76 286.68 353.36 287.38L354.14 286.68C353.52 286 352.28 284.92 351.3 284.16L350.54 284.74ZM366.6 285.62V286.86H377.6V285.62H366.6ZM365.98 288.44V289.7H378.04V288.44H365.98ZM368.74 291.06V292.22H375.6V291.06H368.74ZM367.2 283.06C367.56 283.86 367.96 284.94 368.14 285.62L369.36 285.2C369.18 284.58 368.74 283.52 368.36 282.74L367.2 283.06ZM370.78 282.64C371 283.52 371.22 284.68 371.32 285.38L372.6 285.08C372.5 284.42 372.24 283.3 371.98 282.44L370.78 282.64ZM376.36 280.34C374.02 280.86 369.76 281.2 366.3 281.34C366.44 281.64 366.62 282.14 366.66 282.48C370.18 282.4 374.52 282.08 377.26 281.46L376.36 280.34ZM369.88 291.86L368.62 292.24C370.26 295.56 373.34 297.76 377.46 298.66C377.66 298.28 378.06 297.7 378.38 297.38C374.4 296.68 371.3 294.7 369.88 291.86ZM375.6 282.24C375.12 283.32 374.26 284.86 373.58 285.84L374.7 286.28C375.42 285.34 376.3 283.92 377.02 282.7L375.6 282.24ZM375.26 291.06V291.3C374.16 294.9 371.24 296.7 367.54 297.52C367.82 297.78 368.22 298.32 368.38 298.66C372.22 297.66 375.34 295.62 376.66 291.38L375.82 291.02L375.56 291.06H375.26ZM369.12 286.42C368.84 289.88 368.3 295.04 364.28 297.54C364.64 297.78 365.08 298.26 365.3 298.6C369.54 295.82 370.22 290.4 370.58 286.42H369.12ZM361.22 281.72V283.08H364.3V293.38H361.22V294.74H365.66V281.72H361.22ZM361.3 287.46V288.8H365.02V287.46H361.3ZM360.5 281.72V296.3H361.84V281.72H360.5Z" fill="#FFFBF7"/>
<path d="M185.58 140.26V141.58H197.56V140.26H185.58ZM184.72 154.74V156.02H198.16V154.74H184.72ZM186.64 143.46V155.1H188V144.62H194.98V155.1H196.36V143.46H186.64ZM187.58 146.32V147.44H195.3V146.32H187.58ZM187.54 149.14V150.24H195.6V149.14H187.54ZM187.54 151.96V153.08H195.34V151.96H187.54ZM190.96 138.22C190.8 139.9 190.38 142.34 190 143.82L191.32 143.96C191.74 142.56 192.22 140.22 192.56 138.32L190.96 138.22ZM184.26 138.24C183.2 141.28 181.48 144.26 179.62 146.22C179.88 146.56 180.32 147.34 180.46 147.7C182.52 145.44 184.42 142.04 185.66 138.66L184.26 138.24ZM182.16 143.48V156.6H183.56V142.08L183.54 142.06L182.16 143.48ZM208.62 142.66H215.24V144.3H208.62V142.66ZM208.62 139.96H215.24V141.58H208.62V139.96ZM207.18 138.82V145.44H216.74V138.82H207.18ZM205.94 146.82V148.08H217.7V146.82H205.94ZM205.48 149.8V151.12H218.06V149.8H205.48ZM213.56 147.92V154.92C213.56 155.18 213.48 155.26 213.16 155.28C212.86 155.3 211.86 155.3 210.72 155.26C210.92 155.66 211.16 156.22 211.22 156.62C212.72 156.62 213.68 156.62 214.28 156.38C214.88 156.16 215.06 155.76 215.06 154.96V147.92H213.56ZM207.22 152.14C208.12 153.02 209.2 154.26 209.68 155.06L210.82 154.22C210.3 153.44 209.2 152.26 208.28 151.42L207.22 152.14ZM204.38 142.66C203.18 144.74 201.24 146.8 199.42 148.12C199.68 148.46 200.1 149.26 200.22 149.56C202.2 148 204.34 145.58 205.7 143.2L204.38 142.66ZM204 138.26C203.14 139.68 201.34 141.34 199.74 142.38C200 142.68 200.38 143.26 200.54 143.6C202.32 142.42 204.24 140.54 205.44 138.82L204 138.26ZM202.58 146.2V156.6H204.04V144.82L203.98 144.78L202.58 146.2ZM227.08 139.16V140.38H236.34V139.16H227.08ZM226.84 144.7V145.94H236.7V144.7H226.84ZM226.84 147.48V148.72H236.66V147.48H226.84ZM227.42 154.42V155.66H236.1V154.42H227.42ZM225.2 141.92V143.18H238.22V141.92H225.2ZM226.64 150.26V156.6H228.08V151.48H235.38V156.54H236.88V150.26H226.64ZM224.52 138.26C223.36 141.3 221.4 144.28 219.38 146.18C219.66 146.54 220.08 147.32 220.22 147.66C222.44 145.44 224.58 142.08 225.94 138.7L224.52 138.26ZM222.44 143.42V156.56H223.88V142.02L223.86 142L222.44 143.42ZM239.98 140.5V141.86H248.66V140.5H239.98ZM243.62 138.3V144.58H244.96V138.3H243.62ZM241.68 144.92H246.98V147.64H241.68V144.92ZM240.44 143.68V148.88H248.26V143.68H240.44ZM243.54 148.16C242.74 150.16 241.04 152.54 239.56 153.8C239.8 154.14 240.12 154.72 240.28 155.14C241.9 153.7 243.6 150.92 244.52 148.6L243.54 148.16ZM244.82 149.4L244.14 150.1C244.94 150.76 246.9 152.62 247.56 153.42L248.44 152.16C247.9 151.7 245.52 149.84 244.82 149.4ZM249.22 139.16V140.48H256.88V139.16H249.22ZM250.78 148.48H255.94V149.8H250.78V148.48ZM250.78 150.76H255.94V152.12H250.78V150.76ZM250.78 146.2H255.94V147.5H250.78V146.2ZM249.42 145.2V153.12H257.36V145.2H249.42ZM254.08 153.96C255.2 154.74 256.58 155.88 257.22 156.6L258.38 155.76C257.66 155.02 256.26 153.92 255.16 153.2L254.08 153.96ZM251.24 153.16C250.48 154.04 248.96 155.06 247.62 155.62C247.92 155.88 248.38 156.32 248.62 156.6C249.96 156 251.54 154.94 252.54 153.9L251.24 153.16ZM256.34 139.16V139.36C256.16 141.88 256 142.84 255.74 143.1C255.6 143.26 255.44 143.28 255.18 143.28C254.92 143.28 254.22 143.26 253.52 143.18C253.7 143.54 253.86 144.06 253.88 144.46C254.64 144.5 255.4 144.5 255.78 144.46C256.28 144.44 256.58 144.32 256.86 144C257.28 143.56 257.48 142.44 257.66 139.74C257.7 139.54 257.7 139.16 257.7 139.16H256.34ZM251.92 139.74C251.64 141.88 250.48 143.22 248.52 144C248.82 144.24 249.32 144.76 249.5 145.04C251.62 144.02 252.96 142.42 253.36 139.82L251.92 139.74ZM243.68 144.18V148.54H243.62V156.58H244.96V148.54H244.88V144.18H243.68ZM269.4 137.4H268.58V157.4H269.4V137.4ZM279.92 150.9V152.14H298.08V150.9H279.92ZM280.5 139.76V140.96H297.26V139.76H280.5ZM291.84 149.6V154.96C291.84 155.22 291.74 155.3 291.42 155.32C291.08 155.34 289.96 155.34 288.76 155.3C288.96 155.68 289.16 156.22 289.22 156.6C290.84 156.6 291.86 156.6 292.5 156.4C293.12 156.18 293.28 155.78 293.28 155V149.6H291.84ZM288.22 138.24V148.96H289.7V138.24H288.22ZM283.12 152.98C284.32 153.72 285.72 154.82 286.4 155.62L287.5 154.62C286.8 153.84 285.32 152.78 284.14 152.1L283.12 152.98ZM283.46 145.3H294.58V146.54H283.46V145.3ZM283.46 143.1H294.58V144.32H283.46V143.1ZM282.04 142.1V147.56H296.04V142.1H282.04ZM291.96 147.98C293.54 148.52 295.44 149.56 296.42 150.36L297.32 149.5C296.32 148.76 294.42 147.76 292.82 147.22L291.96 147.98ZM280.72 148.72L280.78 149.9C284.56 149.84 290.24 149.72 295.58 149.58L295.66 148.56C290.18 148.66 284.36 148.72 280.72 148.72ZM300.26 150.56V151.82H317.78V150.56H300.26ZM300.34 141.78V143.06H317.7V141.78H300.34ZM301.14 145.2V146.44H316.98V145.2H301.14ZM302.16 147.9V149.06H316V147.9H302.16ZM308.22 145.78V156.62H309.7V145.78H308.22ZM306.38 138.2V142.38H307.8V138.2H306.38ZM310.16 138.2V142.32H311.6V138.2H310.16ZM307.74 151.06C306.04 152.8 302.7 154.34 299.74 155C300.06 155.32 300.5 155.9 300.72 156.28C303.7 155.44 307.08 153.7 308.94 151.62L307.74 151.06ZM310.18 151.02L309 151.52C310.88 153.68 314.22 155.5 317.26 156.34C317.48 155.92 317.94 155.32 318.28 155C315.24 154.36 311.88 152.82 310.18 151.02ZM314.8 138.44C314.46 139.36 313.8 140.68 313.26 141.52L314.48 141.92C315.04 141.14 315.76 139.96 316.34 138.86L314.8 138.44ZM312.12 142.68C311.88 143.4 311.36 144.44 310.96 145.14L312.22 145.52C312.66 144.88 313.18 143.96 313.68 143.06L312.12 142.68ZM301.96 138.86C302.6 139.8 303.32 141.08 303.6 141.88L304.94 141.38C304.66 140.56 303.92 139.3 303.24 138.4L301.96 138.86ZM304.56 143.2C305 143.86 305.44 144.8 305.6 145.4L307.08 145.08C306.9 144.48 306.44 143.58 305.98 142.92L304.56 143.2ZM329.4 137.4H328.58V157.4H329.4V137.4ZM346.98 148.68C347.5 149.38 347.98 150.3 348.14 150.92L349 150.58C348.84 149.98 348.34 149.08 347.82 148.4L346.98 148.68ZM343.72 146.94C344.52 147.54 345.4 148.4 345.8 149.02L346.42 148.32C346 147.72 345.12 146.9 344.32 146.34L343.72 146.94ZM346.1 145.02C345.76 145.6 345.12 146.5 344.64 147.08L345.38 147.42C345.88 146.9 346.52 146.14 347.06 145.42L346.1 145.02ZM347.54 146.42C346.82 147.42 345.5 148.94 344.5 149.84L345.16 150.2C346.18 149.34 347.46 147.96 348.42 146.82L347.54 146.42ZM349.58 150.92V156.24H350.7V150.92H349.58ZM343.46 149.7L343.6 150.64C344.94 150.56 346.56 150.46 348.26 150.32V149.44C346.44 149.56 344.72 149.64 343.46 149.7ZM352.38 148.58C352.96 149.32 353.5 150.32 353.7 151L354.58 150.66C354.38 149.98 353.8 149 353.24 148.3L352.38 148.58ZM348.58 146.92C349.4 147.52 350.32 148.42 350.72 149.06L351.38 148.38C350.98 147.76 350.04 146.9 349.24 146.32L348.58 146.92ZM351.1 144.98C350.72 145.6 350.02 146.6 349.5 147.2L350.24 147.54C350.8 146.98 351.48 146.16 352.06 145.38L351.1 144.98ZM352.52 146.46C351.76 147.48 350.36 148.98 349.32 149.86L349.98 150.22C351.06 149.38 352.42 148.02 353.42 146.9L352.52 146.46ZM348.84 149.7L349.06 150.64C350.42 150.54 352.1 150.44 353.78 150.3V149.42C351.88 149.54 350.14 149.64 348.84 149.7ZM344.26 151.22V154.04H347.72V153.1H345.28V151.22H344.26ZM352.64 151.22V153.1H350.38V154.04H353.68V151.22H352.64ZM347.18 150.92V152.7C347.18 153.8 346.9 154.92 344.68 155.6C344.94 155.8 345.28 156.22 345.42 156.48C347.92 155.6 348.28 154.22 348.28 152.72V150.92H347.18ZM341.52 141.66V142.68H347.14V141.66H341.52ZM350.72 141.66V142.68H356.48V141.66H350.72ZM355.92 139.06V154.72C355.92 154.98 355.84 155.08 355.58 155.08C355.3 155.1 354.46 155.1 353.58 155.06C353.78 155.46 353.98 156.16 354.04 156.56C355.28 156.56 356.14 156.54 356.68 156.28C357.22 156.02 357.38 155.56 357.38 154.72V139.06H355.92ZM341.64 139.06V140.16H346.66V144.12H341.64V145.22H348.08V139.06H341.64ZM356.64 139.06H349.86V145.22H356.64V144.12H351.28V140.16H356.64V139.06ZM340.74 139.06V156.62H342.18V139.06H340.74ZM370.88 146.28V149.5H372.3V146.28H370.88ZM365.94 146.84V147.8H369.82V146.84H365.94ZM365.72 148.76V149.72H369.76V148.76H365.72ZM373.4 148.76V149.72H377.66V148.76H373.4ZM373.4 146.84V147.8H377.44V146.84H373.4ZM373.64 143.06H375.6V144.84H373.64V143.06ZM370.7 143.06H372.62V144.84H370.7V143.06ZM367.84 143.06H369.68V144.84H367.84V143.06ZM366.52 142.04V145.86H376.98V142.04H366.52ZM365.4 139.84V141.04H377.88V139.84H365.4ZM370.86 138.2V140.48H372.3V138.2H370.86ZM371.36 149.5C370 150.8 367.32 151.74 364.88 152.28C365.12 152.54 365.54 153.16 365.7 153.46C368.22 152.74 371.08 151.58 372.64 149.94L371.36 149.5ZM365.96 155.18L366.34 156.42C368.22 156.08 370.66 155.62 373.02 155.14L372.94 154.02C370.4 154.48 367.74 154.92 365.96 155.18ZM376.36 150.46C375.5 151.18 374.02 152.18 372.94 152.74L373.72 153.46C374.8 152.94 376.26 152.1 377.38 151.32L376.36 150.46ZM372.34 150.1L371.16 150.42C372.3 153.36 374.48 155.62 377.42 156.62C377.62 156.28 378.02 155.74 378.34 155.46C375.54 154.64 373.36 152.62 372.34 150.1ZM362.16 138.2V156.58H363.54V138.2H362.16ZM360.48 142.06C360.46 143.8 360.2 145.98 359.54 147.22L360.52 147.64C361.22 146.28 361.5 143.98 361.5 142.22L360.48 142.06ZM363.78 141.76C364.24 143.08 364.6 144.8 364.68 145.82L365.7 145.46C365.62 144.46 365.22 142.8 364.74 141.5L363.78 141.76ZM367.98 152.1V155.48H369.38V151.6L368.68 151.38L367.98 152.1Z" fill="#FFFBF7"/>
<path d="M579.92 87.88H576.736V89H578.768V93.544H579.92V87.88ZM579.92 93.064H578.88C578.128 93.752 577.264 94.472 576.56 94.984L577.184 96.152C577.984 95.448 578.72 94.76 579.424 94.072C580.416 95.336 581.872 95.896 583.984 95.976C585.776 96.056 589.2 96.024 591.008 95.944C591.056 95.592 591.248 95.032 591.392 94.76C589.456 94.888 585.76 94.936 583.984 94.856C582.08 94.792 580.672 94.248 579.92 93.064ZM576.88 82.632C577.856 83.416 578.96 84.536 579.408 85.336L580.4 84.584C579.904 83.8 578.784 82.696 577.792 81.976L576.88 82.632ZM580.992 84.536V85.48H591.216V84.536H580.992ZM582.272 88.568V89.496H587.648V88.568H582.272ZM587.536 90.008V90.92H589.92V90.008H587.536ZM585.488 82.84V88.184H586.624V82.84H585.488ZM585.168 84.968C584.176 86.312 582.224 87.608 580.48 88.2C580.72 88.408 581.04 88.792 581.216 89.064C582.976 88.344 584.96 86.872 586.032 85.32L585.168 84.968ZM586.944 85.016L586.128 85.32C587.152 86.808 589.024 88.248 590.768 88.92C590.928 88.648 591.248 88.248 591.488 88.024C589.76 87.496 587.888 86.28 586.944 85.016ZM589.584 90.008V90.168C589.44 91.912 589.28 92.616 589.024 92.84C588.912 92.952 588.768 92.968 588.496 92.968C588.224 92.968 587.472 92.952 586.704 92.872C586.864 93.144 586.976 93.528 587.008 93.816C587.792 93.864 588.56 93.864 588.96 93.832C589.376 93.816 589.68 93.736 589.936 93.48C590.288 93.16 590.496 92.344 590.672 90.456C590.688 90.296 590.72 90.008 590.72 90.008H589.584ZM589.728 81.832C587.856 82.264 584.368 82.536 581.472 82.648C581.584 82.888 581.712 83.272 581.744 83.512C584.688 83.416 588.272 83.144 590.528 82.648L589.728 81.832ZM584.256 88.824C584.048 90.888 583.456 92.392 580.992 93.16C581.216 93.368 581.52 93.784 581.632 94.056C584.384 93.112 585.12 91.32 585.376 88.824H584.256ZM587.344 88.568C587.216 89.464 586.992 90.552 586.784 91.32L587.824 91.464C588.016 90.68 588.256 89.544 588.432 88.568H587.344ZM596.72 87.88H593.536V89H595.568V93.544H596.72V87.88ZM596.72 93.064H595.68C594.928 93.752 594.064 94.472 593.36 94.984L593.984 96.152C594.784 95.448 595.52 94.76 596.224 94.072C597.216 95.336 598.672 95.896 600.784 95.976C602.576 96.056 606 96.024 607.808 95.944C607.856 95.592 608.048 95.032 608.192 94.76C606.256 94.888 602.56 94.936 600.784 94.856C598.88 94.792 597.472 94.248 596.72 93.064ZM593.68 82.632C594.656 83.416 595.76 84.536 596.208 85.336L597.2 84.584C596.704 83.8 595.584 82.696 594.592 81.976L593.68 82.632ZM598.272 87.08V94.024H599.344V88.04H606.928V87.08H598.272ZM602.144 84.376V87.48H603.056V85.224H605.504V84.376H602.144ZM599.52 82.12V87.4H600.592V83.064H605.024V87.4H606.112V82.12H599.52ZM601.232 89.064V89.928H603.92V91.624H601.232V92.456H604.848V89.064H601.232ZM606.256 87.08V92.84C606.256 93 606.192 93.048 606.016 93.064C605.84 93.064 605.232 93.064 604.56 93.048C604.704 93.32 604.848 93.736 604.896 94.024C605.84 94.024 606.464 94.024 606.848 93.848C607.264 93.688 607.36 93.384 607.36 92.84V87.08H606.256ZM600.688 89.064V93.096H601.616V89.064H600.688ZM620.064 82.568V83.64H623.024V82.568H620.064ZM616.368 83.352V84.376H619.744V83.352H616.368ZM620.224 85.528V86.536H622.992V85.528H620.224ZM620.192 88.52V89.528H622.912V88.52H620.192ZM612.304 85.528V86.536H615.024V85.528H612.304ZM612.368 88.504V89.528H615.04V88.504H612.368ZM611.664 82.68L611.984 91.976H613.072L612.784 83.304C612.976 83.272 613.056 83.208 613.088 83.112L611.664 82.68ZM622.368 82.568C622.384 85.512 622.256 89.592 622.08 91.944H623.216C623.376 89.64 623.472 85.576 623.488 82.568H622.368ZM614.608 81.72C613.968 82.152 612.896 82.728 611.968 83.16C612.096 83.4 612.288 83.784 612.352 83.992C613.376 83.608 614.576 83.096 615.552 82.584L614.608 81.72ZM615.84 87.72V91.88H616.832V87.72H615.84ZM615.856 81.704V87.016H618.976V86.04H616.896V81.704H615.856ZM618.384 86.04V91.864H619.424V86.04H618.384ZM610.304 91.464V92.584H624.912V91.464H610.304ZM619.088 93.608C620.8 94.456 622.624 95.544 623.696 96.328L624.816 95.512C623.648 94.712 621.712 93.64 619.936 92.808L619.088 93.608ZM614.896 92.84C613.904 93.72 611.984 94.824 610.432 95.464C610.72 95.688 611.136 96.072 611.344 96.312C612.864 95.64 614.752 94.552 616.016 93.56L614.896 92.84ZM630.064 85.624V96.264H631.264V85.624H630.064ZM630.688 85.624V86.68H637.552V88.664H630.688V89.72H638.752V85.624H630.688ZM630.656 91.256V92.328H638.496V96.2H639.68V91.256H630.656ZM630.688 94.488V95.56H639.168V94.488H630.688ZM633.728 81.592V83.96H634.992V81.592H633.728ZM627.648 82.968V86.44H628.816V84.104H639.904V86.44H641.12V82.968H627.648ZM644.032 84.328V85.48H658.352V84.328H644.032ZM649.264 88.12V89.272H655.664V88.12H649.264ZM655.232 88.12L655.216 88.328C654.944 92.712 654.624 94.504 654.112 94.968C653.936 95.128 653.712 95.144 653.36 95.144C652.944 95.144 651.808 95.144 650.656 95.032C650.88 95.368 651.056 95.864 651.072 96.216C652.16 96.264 653.216 96.296 653.776 96.264C654.384 96.216 654.784 96.104 655.152 95.72C655.776 95.08 656.096 93.304 656.416 88.696C656.448 88.52 656.464 88.12 656.464 88.12H655.232ZM648.992 84.968C648.816 88.792 648.544 93.256 643.872 95.368C644.176 95.608 644.56 96.04 644.736 96.344C649.616 94.008 650.08 89.208 650.32 84.968H648.992ZM650.512 81.528V84.824H651.744V81.528H650.512ZM670.16 87.304V89.352H671.2V87.304H670.16ZM672.064 83.88C671.888 84.568 671.504 85.592 671.216 86.232L671.952 86.504C672.272 85.912 672.672 84.984 673.04 84.2L672.064 83.88ZM668.496 84.264C668.816 84.952 669.12 85.896 669.2 86.488L670.032 86.184C669.936 85.608 669.632 84.68 669.264 83.992L668.496 84.264ZM666.608 82.328V96.312H667.696V83.4H674.272V82.328H666.608ZM673.824 82.328V94.936C673.824 95.16 673.76 95.224 673.536 95.24C673.328 95.24 672.608 95.256 671.888 95.224C672.032 95.528 672.192 96.008 672.224 96.296C673.264 96.296 673.952 96.264 674.368 96.104C674.8 95.912 674.928 95.592 674.928 94.936V82.328H673.824ZM668.304 86.456V87.4H673.2V86.456H668.304ZM668.176 89.08V90.024H673.296V89.08H668.176ZM668.848 89.608V92.28C668.848 93.432 669.104 93.816 670.24 93.816C670.448 93.816 671.824 93.816 672.112 93.816C672.496 93.816 672.864 93.816 673.072 93.736C673.04 93.496 673.008 93.048 672.976 92.776C672.768 92.824 672.336 92.84 672.096 92.84C671.824 92.84 670.528 92.84 670.24 92.84C669.936 92.84 669.888 92.712 669.888 92.296V89.608H668.848ZM663.136 81.576C662.72 82.632 661.968 84.2 661.392 85.128L662.208 85.48C662.832 84.6 663.584 83.16 664.192 81.976L663.136 81.576ZM664.928 83.4C664.048 85.08 662.544 87.464 661.344 88.888L662.08 89.304C663.28 87.912 664.832 85.64 665.936 83.864L664.928 83.4ZM660.576 84.904C661.424 85.72 662.384 86.856 662.784 87.624L663.472 86.728C663.056 85.992 662.08 84.92 661.216 84.136L660.576 84.904ZM664.304 87.064C664.944 88.12 665.568 89.544 665.776 90.44L666.72 90.008C666.496 89.128 665.84 87.752 665.168 86.696L664.304 87.064ZM660.448 88.648L660.576 89.72C662.032 89.624 663.952 89.512 665.856 89.384V88.376C663.84 88.488 661.84 88.584 660.448 88.648ZM664.72 90.936C665.104 91.864 665.44 93.08 665.536 93.864L666.464 93.576C666.352 92.792 666.016 91.592 665.6 90.664L664.72 90.936ZM661.408 90.712C661.232 92.104 660.928 93.544 660.416 94.52C660.656 94.632 661.136 94.84 661.328 94.968C661.84 93.944 662.208 92.408 662.416 90.888L661.408 90.712ZM663.104 89.112V96.28H664.16V89.112H663.104ZM677.712 84.744V85.88H683.888V84.744H677.712ZM680.256 81.768V85.32H681.392V81.768H680.256ZM687.568 84.888V86.024H692.16V84.888H687.568ZM684.816 94.376V95.512H690.864V94.376H684.816ZM686.96 81.56V89.72H688.176V81.56H686.96ZM684.256 89.224V96.264H685.424V90.344H690.256V96.2H691.472V89.224H684.256ZM677.408 93.272L677.664 94.472C679.424 94.072 681.856 93.496 684.128 92.952L684 91.848C681.584 92.408 679.056 92.952 677.408 93.272ZM678.32 86.712C678.688 88.488 678.976 90.808 678.96 92.312L680.016 92.136C679.984 90.584 679.712 88.312 679.296 86.536L678.32 86.712ZM682.048 86.36C681.888 88.232 681.504 90.92 681.136 92.504L682.128 92.728C682.512 91.16 682.944 88.584 683.232 86.584L682.048 86.36ZM694.96 82.584V83.72H708.336V82.584H694.96ZM698.56 86.072V87.16H705.152V86.072H698.56ZM697.632 90.648V91.736H704.656V90.648H697.632ZM694.416 94.456V95.576H708.8V94.456H694.416ZM698.592 83.352C698.112 86.184 697.264 90.136 696.624 92.44L697.904 92.568C698.512 90.264 699.328 86.296 699.872 83.352H698.592ZM704.608 86.072C704.368 88.824 703.856 92.648 703.472 94.888H704.768C705.12 92.712 705.568 88.888 705.872 86.072H704.608ZM711.504 92.024V92.936H718.8V92.024H711.504ZM711.072 84.312V85.24H719.056V84.312H711.072ZM714.544 82.856V94.632H715.648V82.856H714.544ZM711.056 94.664L711.232 95.704C713.264 95.496 716.16 95.16 718.88 94.84L718.864 93.896C716 94.2 713.008 94.488 711.056 94.664ZM712.544 89.032H717.728V90.216H712.544V89.032ZM712.544 87.08H717.728V88.232H712.544V87.08ZM711.536 86.248V91.048H718.752V86.248H711.536ZM718.176 81.72C716.528 82.104 713.616 82.392 711.232 82.52C711.36 82.76 711.472 83.16 711.52 83.416C713.92 83.336 716.896 83.064 718.784 82.648L718.176 81.72ZM718.944 85.304V86.424H724.72V85.304H718.944ZM724.256 85.304V85.592C724.08 92.072 723.904 94.376 723.504 94.872C723.36 95.08 723.2 95.128 722.944 95.128C722.624 95.128 721.92 95.112 721.136 95.048C721.328 95.368 721.456 95.864 721.488 96.2C722.224 96.248 722.992 96.248 723.44 96.2C723.92 96.152 724.24 96.008 724.528 95.592C725.056 94.904 725.216 92.664 725.392 85.912C725.392 85.752 725.408 85.304 725.408 85.304H724.256ZM720.88 81.768C720.864 87.816 720.944 92.888 717.28 95.512C717.568 95.704 717.984 96.088 718.176 96.376C722 93.512 722.016 88.136 722.032 81.768H720.88ZM736.176 88.088C735.248 89.736 733.568 91.208 731.84 92.136C732.096 92.344 732.496 92.808 732.656 93.032C734.416 91.96 736.192 90.312 737.264 88.424L736.176 88.088ZM736.272 81.56C735.696 82.44 734.672 83.64 733.888 84.392L734.736 84.888C735.536 84.168 736.528 83.08 737.328 82.104L736.272 81.56ZM739.36 82.792C738.048 84.44 735.792 86.632 734.048 87.976L734.864 88.504C736.624 87.192 738.848 85.112 740.448 83.384L739.36 82.792ZM732.56 84.152C733.808 84.968 735.264 86.184 735.952 86.984L736.72 86.12C736.016 85.304 734.512 84.168 733.296 83.384L732.56 84.152ZM739.168 86.056C740.176 87.144 741.28 88.648 741.744 89.608L742.768 89.016C742.256 88.056 741.12 86.584 740.096 85.544L739.168 86.056ZM732.032 87.64L732.128 88.728C734.512 88.664 738.032 88.552 741.392 88.44L741.44 87.448C737.968 87.544 734.32 87.608 732.032 87.64ZM735.136 90.568L734.16 90.904C735.712 93.624 738.576 95.512 742.032 96.312C742.192 95.992 742.512 95.544 742.768 95.288C739.376 94.632 736.512 92.904 735.136 90.568ZM735.504 89.88L734.672 90.84H740.272V89.88H735.504ZM739.888 89.88V90.072C738.624 92.888 735.216 94.648 731.792 95.304C732.016 95.544 732.288 96.024 732.4 96.328C736.048 95.496 739.6 93.624 741.088 90.2L740.32 89.832L740.112 89.88H739.888ZM731.472 84.824C730.528 86.52 729.008 88.2 727.52 89.288C727.744 89.544 728.096 90.104 728.208 90.36C729.776 89.08 731.456 87.144 732.56 85.224L731.472 84.824ZM731.104 81.576C730.4 82.712 728.96 84.072 727.712 84.92C727.92 85.144 728.224 85.56 728.384 85.8C729.744 84.84 731.248 83.336 732.176 81.992L731.104 81.576ZM730.032 87.8V96.344H731.168V86.904L731.008 86.824L730.032 87.8ZM582.016 108.392C581.2 109.64 579.648 111.032 577.424 112.024C577.696 112.2 578.064 112.6 578.24 112.888C580.592 111.72 582.208 110.2 583.312 108.648L582.016 108.392ZM581.84 109.592L580.976 110.552H587.408V109.592H581.84ZM587.072 109.592V109.784C585.248 112.6 580.672 114.536 576.56 115.288C576.784 115.56 577.04 116.04 577.152 116.344C581.456 115.432 586.176 113.4 588.32 110.04L587.52 109.544L587.296 109.592H587.072ZM581.376 110.344L580.32 110.824C582.464 113.592 586.336 115.304 590.64 115.976C590.816 115.624 591.136 115.112 591.408 114.84C587.12 114.296 583.248 112.744 581.376 110.344ZM579.584 115.352V120.264H580.768V116.376H587.248V120.248H588.48V115.352H579.584ZM580.176 118.712V119.736H587.856V118.712H580.176ZM583.344 105.576V107.656H584.576V105.576H583.344ZM577.216 107.016V110.04H578.4V108.12H589.536V110.04H590.752V107.016H577.216ZM596.256 114.056V115.176H605.488V114.056H596.256ZM596.368 109.736V110.856H604.992V116.04H606.192V109.736H596.368ZM604.736 105.608C602.72 106.312 599.12 106.984 596 107.4C596.144 107.656 596.304 108.088 596.352 108.36C599.552 107.944 603.264 107.304 605.728 106.504L604.736 105.608ZM595.632 107.064V112.232C595.632 114.504 595.424 117.368 593.408 119.464C593.712 119.608 594.16 120.024 594.336 120.28C596.544 117.976 596.848 114.632 596.848 112.248V107.736C597.072 107.704 597.168 107.64 597.184 107.512L595.632 107.064ZM610.576 106.456V107.56H617.472V106.456H610.576ZM618.608 111.016V112.168H625.04V111.016H618.608ZM622.08 111.768V120.296H623.264V111.768H622.08ZM618.144 107.144V111.416C618.144 113.864 617.92 117.08 615.696 119.448C615.984 119.592 616.416 119.992 616.592 120.248C618.992 117.672 619.328 114.008 619.328 111.416V107.752C619.552 107.72 619.632 107.656 619.648 107.544L618.144 107.144ZM611.168 109.224V113.544C611.168 115.384 611.056 117.848 609.936 119.576C610.192 119.72 610.688 120.088 610.88 120.312C612.112 118.424 612.304 115.592 612.304 113.544V109.224H611.168ZM623.664 105.752C622.464 106.44 620.304 107.128 618.4 107.576C618.56 107.848 618.752 108.28 618.816 108.552C620.816 108.088 623.136 107.432 624.72 106.664L623.664 105.752ZM611.824 109.224V110.328H615.904V113.128H611.824V114.216H617.072V109.224H611.824ZM637.264 106.168C638.08 106.456 639.056 106.952 639.536 107.368L640.192 106.568C639.68 106.168 638.688 105.72 637.888 105.464L637.264 106.168ZM628.992 107.192V108.184H641.456V107.192H628.992ZM630.128 109.272V110.12H635.04V109.272H630.128ZM630.384 111.208V114.12H631.392V111.208H630.384ZM638.88 108.952C638.112 111.352 636.608 113.352 634.672 114.6C634.912 114.808 635.36 115.208 635.536 115.432C637.488 114.04 639.104 111.88 640 109.224L638.88 108.952ZM635.104 105.56C635.36 110.936 637.648 115.576 640.176 115.576C641.2 115.576 641.632 115.016 641.824 112.984C641.52 112.872 641.12 112.664 640.88 112.44C640.8 113.896 640.64 114.472 640.24 114.472C638.608 114.488 636.432 110.488 636.256 105.56H635.104ZM630.384 111.208V112.056H633.76V113.704H630.384V114.568H634.784V111.208H630.384ZM631.184 116.04V118.536C631.184 119.768 631.6 120.088 633.296 120.088C633.648 120.088 636.032 120.088 636.4 120.088C637.76 120.088 638.112 119.64 638.272 117.752C637.936 117.672 637.44 117.512 637.184 117.32C637.12 118.808 637.008 119 636.304 119C635.776 119 633.776 119 633.376 119C632.528 119 632.368 118.92 632.368 118.52V116.04H631.184ZM632.432 115.512C633.424 116.024 634.592 116.84 635.136 117.464L635.952 116.696C635.392 116.072 634.208 115.304 633.2 114.84L632.432 115.512ZM637.952 116.52C639.104 117.448 640.256 118.808 640.704 119.784L641.776 119.192C641.28 118.2 640.08 116.872 638.928 115.976L637.952 116.52ZM629.152 116.136C628.8 117.336 628.096 118.552 627.024 119.288L628.016 119.96C629.152 119.144 629.808 117.8 630.208 116.504L629.152 116.136ZM628.432 107.192V109.592C628.432 111.224 628.256 113.48 626.912 115.144C627.152 115.272 627.632 115.672 627.792 115.896C629.264 114.088 629.552 111.464 629.552 109.608V107.192H628.432ZM644.352 110.184V113.448H645.472V111.256H656.88V113.448H658.048V110.184H644.352ZM646.288 113.064V114.184H655.232V113.064H646.288ZM656.304 105.512C653.568 106.088 648.64 106.504 644.496 106.696C644.608 106.968 644.752 107.416 644.784 107.72C648.944 107.56 653.936 107.144 657.152 106.472L656.304 105.512ZM645.84 108.056C646.272 108.744 646.736 109.656 646.928 110.232L648.016 109.88C647.824 109.304 647.344 108.408 646.88 107.752L645.84 108.056ZM650.096 107.72C650.464 108.472 650.8 109.464 650.896 110.088L652.032 109.816C651.936 109.192 651.552 108.216 651.184 107.48L650.096 107.72ZM655.568 107.448C655.184 108.344 654.48 109.624 653.92 110.424L654.88 110.76C655.456 110.008 656.208 108.824 656.784 107.8L655.568 107.448ZM654.8 113.064V113.272C653.136 116.808 648.816 118.504 644.016 119.16C644.256 119.416 644.592 119.944 644.72 120.248C649.6 119.432 654.128 117.576 656.096 113.512L655.296 113.016L655.072 113.064H654.8ZM647.856 113.8L646.8 114.248C648.896 117.576 652.752 119.528 657.632 120.232C657.776 119.896 658.112 119.384 658.352 119.112C653.536 118.536 649.68 116.744 647.856 113.8ZM660.8 106.616V107.704H669.008V106.616H660.8ZM661.28 114.232V115.32H668.544V114.232H661.28ZM664.336 112.328V118.776L665.52 118.6V112.328H664.336ZM660.624 118.6L660.816 119.8C662.944 119.512 666.096 119.064 669.072 118.648L669.04 117.528C665.952 117.944 662.704 118.376 660.624 118.6ZM660.768 110.968L660.864 112.104C662.768 111.992 665.504 111.848 668.128 111.688L668.16 110.632C665.408 110.776 662.592 110.904 660.768 110.968ZM665.872 109.016C666.832 110.152 667.904 111.704 668.368 112.68L669.328 112.104C668.864 111.144 667.744 109.64 666.768 108.52L665.872 109.016ZM663.568 107.192C663.216 108.456 662.528 110.328 661.968 111.464L663.024 111.72C663.616 110.616 664.304 108.856 664.864 107.448L663.568 107.192ZM669.712 107.496V116.36H670.864V107.496H669.712ZM673.488 106.024V118.68C673.488 118.968 673.408 119.048 673.12 119.064C672.8 119.064 671.808 119.08 670.736 119.032C670.912 119.4 671.088 119.96 671.152 120.296C672.448 120.296 673.424 120.264 673.952 120.056C674.48 119.864 674.672 119.496 674.672 118.664V106.024H673.488ZM678.896 108.136V109.208H682.64V117.512H678.896V118.6H683.76V108.136H678.896ZM678.176 108.136V119.88H679.296V108.136H678.176ZM678.816 112.584V113.656H683.232V112.584H678.816ZM680.624 105.528C680.496 106.36 680.192 107.576 679.92 108.344L680.88 108.584C681.2 107.864 681.6 106.76 681.92 105.768L680.624 105.528ZM686.032 108.088V109.208H690.944V108.088H686.032ZM690.528 108.088V108.344C690.304 115.4 690.048 118.056 689.52 118.632C689.344 118.84 689.152 118.888 688.832 118.888C688.464 118.888 687.504 118.872 686.464 118.792C686.688 119.112 686.832 119.608 686.864 119.96C687.76 120.008 688.704 120.04 689.248 119.976C689.808 119.928 690.176 119.784 690.528 119.32C691.168 118.536 691.392 116.056 691.648 108.712C691.648 108.536 691.648 108.088 691.648 108.088H690.528ZM686.368 105.496C685.856 107.72 684.976 109.928 683.888 111.336C684.176 111.496 684.672 111.832 684.88 112.024C685.984 110.504 686.928 108.152 687.52 105.768L686.368 105.496ZM685.632 112.248C686.512 113.416 687.584 115 688.064 115.976L689.088 115.336C688.576 114.392 687.472 112.84 686.56 111.704L685.632 112.248ZM704.464 106.168C705.28 106.456 706.256 106.952 706.736 107.368L707.392 106.568C706.88 106.168 705.888 105.72 705.088 105.464L704.464 106.168ZM696.192 107.192V108.184H708.656V107.192H696.192ZM697.328 109.272V110.12H702.24V109.272H697.328ZM697.584 111.208V114.12H698.592V111.208H697.584ZM706.08 108.952C705.312 111.352 703.808 113.352 701.872 114.6C702.112 114.808 702.56 115.208 702.736 115.432C704.688 114.04 706.304 111.88 707.2 109.224L706.08 108.952ZM702.304 105.56C702.56 110.936 704.848 115.576 707.376 115.576C708.4 115.576 708.832 115.016 709.024 112.984C708.72 112.872 708.32 112.664 708.08 112.44C708 113.896 707.84 114.472 707.44 114.472C705.808 114.488 703.632 110.488 703.456 105.56H702.304ZM697.584 111.208V112.056H700.96V113.704H697.584V114.568H701.984V111.208H697.584ZM698.384 116.04V118.536C698.384 119.768 698.8 120.088 700.496 120.088C700.848 120.088 703.232 120.088 703.6 120.088C704.96 120.088 705.312 119.64 705.472 117.752C705.136 117.672 704.64 117.512 704.384 117.32C704.32 118.808 704.208 119 703.504 119C702.976 119 700.976 119 700.576 119C699.728 119 699.568 118.92 699.568 118.52V116.04H698.384ZM699.632 115.512C700.624 116.024 701.792 116.84 702.336 117.464L703.152 116.696C702.592 116.072 701.408 115.304 700.4 114.84L699.632 115.512ZM705.152 116.52C706.304 117.448 707.456 118.808 707.904 119.784L708.976 119.192C708.48 118.2 707.28 116.872 706.128 115.976L705.152 116.52ZM696.352 116.136C696 117.336 695.296 118.552 694.224 119.288L695.216 119.96C696.352 119.144 697.008 117.8 697.408 116.504L696.352 116.136ZM695.632 107.192V109.592C695.632 111.224 695.456 113.48 694.112 115.144C694.352 115.272 694.832 115.672 694.992 115.896C696.464 114.088 696.752 111.464 696.752 109.608V107.192H695.632ZM715.008 114.456H721.696V115.24H715.008V114.456ZM715.008 115.944H721.696V116.76H715.008V115.944ZM715.008 112.968H721.696V113.752H715.008V112.968ZM713.872 112.232V117.48H722.88V112.232H713.872ZM719.344 117.032V118.712C719.344 119.816 719.744 120.088 721.296 120.088C721.6 120.088 723.696 120.088 724.032 120.088C725.248 120.088 725.6 119.656 725.712 117.896C725.408 117.848 724.944 117.688 724.704 117.512C724.64 118.936 724.528 119.128 723.92 119.128C723.44 119.128 721.728 119.128 721.392 119.128C720.656 119.128 720.528 119.064 720.528 118.712V117.032H719.344ZM715.936 117.08C715.52 118.472 714.4 119.08 711.024 119.368C711.216 119.592 711.472 120.024 711.552 120.28C715.296 119.864 716.624 119 717.104 117.08H715.936ZM711.616 110.632V112.92H712.704V111.464H724.064V112.92H725.184V110.632H711.616ZM712.96 106.232L713.184 111.08H714.256L714.048 106.776C714.24 106.744 714.336 106.68 714.368 106.6L712.96 106.232ZM722.784 106.184C722.752 107.72 722.656 109.784 722.512 111.048H723.616C723.728 109.816 723.824 107.768 723.872 106.184H722.784ZM720.448 106.184V106.968H723.072V106.184H720.448ZM715.808 105.56C715.184 105.896 714.08 106.408 713.296 106.68L713.856 107.176C714.64 106.92 715.696 106.552 716.496 106.104L715.808 105.56ZM713.52 107.704V108.44H716.208V107.704H713.52ZM713.52 109.16V109.912H716.304V109.16H713.52ZM720.64 107.704V108.44H723.344V107.704H720.64ZM720.544 109.16V109.912H723.28V109.16H720.544ZM719.056 105.656C718.512 106.424 717.52 107.112 716.544 107.592C716.736 107.72 717.024 107.992 717.136 108.136C718.112 107.592 719.184 106.744 719.808 105.864L719.056 105.656ZM716.992 106.408C717.776 106.824 718.688 107.496 719.12 107.976L719.664 107.448C719.2 106.968 718.272 106.344 717.504 105.944L716.992 106.408ZM719.248 108.056C718.64 108.904 717.552 109.672 716.496 110.2C716.672 110.328 716.976 110.6 717.088 110.744C718.144 110.152 719.312 109.24 719.984 108.264L719.248 108.056ZM717.024 108.808C717.872 109.288 718.848 110.008 719.344 110.552L719.888 110.024C719.392 109.496 718.384 108.808 717.552 108.344L717.024 108.808Z" fill="#FFFBF7"/>
<path d="M580.816 228.4H587.216V231.44H580.816V228.4ZM579.648 227.248V232.592H588.432V227.248H579.648ZM577.328 234.288V241.28H578.464V235.44H581.824V241.152H583.024V234.288H577.328ZM584.768 234.288V241.28H585.92V235.44H589.584V241.184H590.784V234.288H584.768ZM577.84 239.264V240.416H582.304V239.264H577.84ZM585.36 239.264V240.416H590.112V239.264H585.36ZM599.088 236.896V237.952H608.112V236.896H599.088ZM604.48 234.656V241.264H605.616V234.656H604.48ZM602.912 226.512C602.736 227.12 602.384 227.968 602.08 228.56L603.056 228.832C603.408 228.32 603.872 227.504 604.272 226.784L602.912 226.512ZM603.184 228.704V231.28C603.184 232.896 602.736 234.8 599.68 236.096C599.92 236.256 600.304 236.576 600.48 236.784C603.712 235.392 604.224 233.232 604.224 231.312V228.704H603.184ZM594.928 230.96V232.016H599.392V230.96H594.928ZM597.024 226.576V231.6H598.08V226.576H597.024ZM594.992 234.368V235.408H597.504V241.28H598.576V234.368H594.992ZM594.416 226.896V233.024C594.416 235.376 594.272 238.608 593.344 240.912C593.664 241.008 594.144 241.184 594.384 241.312C595.296 238.896 595.472 235.584 595.472 233.024V226.896H594.416ZM600.864 231.632H606.544V233.328H600.864V231.632ZM600.864 229.056H606.544V230.72H600.864V229.056ZM599.776 228.096V234.272H607.664V228.096H599.776ZM612.976 231.68V232.768H622.208V231.68H612.976ZM616.992 229.136C616.864 233.424 616.544 236.256 612.784 237.68C613.04 237.904 613.376 238.336 613.504 238.608C617.52 236.992 617.968 233.824 618.128 229.136H616.992ZM618.224 232.288L617.232 232.448C617.84 235.504 619.12 237.552 621.616 238.56C621.776 238.256 622.112 237.792 622.368 237.584C620.016 236.768 618.768 234.928 618.224 232.288ZM610.912 227.312V241.28H612.112V228.464H623.088V241.28H624.32V227.312H610.912ZM611.616 239.408V240.56H623.584V239.408H611.616ZM634.528 232.048V232.752H640.688V232.048H634.528ZM634.528 233.648V234.352H640.688V233.648H634.528ZM634.064 235.28V236.096H641.36V235.28H634.064ZM637.792 229.024C637.632 229.456 637.296 230.128 637.04 230.592L637.904 230.864C638.192 230.464 638.544 229.904 638.88 229.328L637.792 229.024ZM632.096 228.944C631.392 230.432 630.224 231.904 629.04 232.864C629.28 233.04 629.68 233.456 629.84 233.632C631.04 232.56 632.272 230.912 633.104 229.248L632.096 228.944ZM634.912 228.912C634.336 230.304 633.376 231.696 632.352 232.64C632.592 232.8 633.008 233.136 633.184 233.312C634.208 232.304 635.264 230.736 635.936 229.2L634.912 228.912ZM637.072 230.752V235.6H638.096V230.752H637.072ZM632.96 237.52V239.76C632.96 240.88 633.312 241.168 634.752 241.168C635.056 241.168 637.04 241.168 637.344 241.168C638.464 241.168 638.8 240.784 638.912 239.2C638.624 239.12 638.16 238.96 637.92 238.784C637.872 240.016 637.776 240.176 637.232 240.176C636.816 240.176 635.184 240.176 634.864 240.176C634.192 240.176 634.064 240.112 634.064 239.76V237.52H632.96ZM633.824 236.848C634.8 237.312 635.968 238.032 636.528 238.56L637.28 237.808C636.688 237.28 635.488 236.608 634.528 236.176L633.824 236.848ZM638.416 237.76C639.344 238.72 640.336 240.064 640.72 240.944L641.744 240.416C641.312 239.52 640.304 238.224 639.36 237.296L638.416 237.76ZM631.04 237.472C630.72 238.528 630.096 239.664 629.184 240.32L630.096 240.912C631.088 240.192 631.648 238.944 632.016 237.808L631.04 237.472ZM634.72 230.4L634.144 231.184H641.104V230.4H634.72ZM634.064 231.296V235.76H635.088V230.416L634.064 231.296ZM634.24 226.576V228.416H635.472V226.576H634.24ZM628.784 227.808V228.832H641.632V227.808H628.784ZM628.128 227.808V232.64C628.128 234.992 628.032 238.272 626.864 240.608C627.12 240.72 627.6 241.088 627.792 241.296C629.056 238.816 629.248 235.136 629.248 232.64V227.808H628.128ZM631.04 231.408V236.432H632.08V230.416L632.064 230.384L631.04 231.408ZM644.304 227.696V228.912H658.08V227.696H644.304ZM652.144 232.352C654.048 233.648 656.448 235.52 657.568 236.752L658.544 235.84C657.36 234.608 654.912 232.8 653.04 231.584L652.144 232.352ZM651.84 228.112C650.352 231.12 647.376 234.192 643.904 235.936C644.144 236.192 644.528 236.672 644.72 236.976C648.336 235.072 651.328 231.904 653.152 228.592L651.84 228.112ZM650.528 231.312V241.264H651.824V230.032L650.528 231.312ZM663.952 230.208V231.264H672.096V230.208H663.952ZM664.768 232.944V239.2H665.888V232.944H664.768ZM665.376 232.944V233.952H670.112V236.992H665.376V238.032H671.232V232.944H665.376ZM661.392 227.392V241.312H662.56V228.544H674.176V227.392H661.392ZM673.44 227.392V239.76C673.44 240.032 673.344 240.128 673.056 240.144C672.784 240.16 671.84 240.16 670.832 240.128C671.024 240.448 671.216 240.976 671.264 241.296C672.656 241.312 673.456 241.28 673.936 241.072C674.432 240.88 674.624 240.512 674.624 239.76V227.392H673.44ZM678.896 229.136V230.208H682.64V238.512H678.896V239.6H683.76V229.136H678.896ZM678.176 229.136V240.88H679.296V229.136H678.176ZM678.816 233.584V234.656H683.232V233.584H678.816ZM680.624 226.528C680.496 227.36 680.192 228.576 679.92 229.344L680.88 229.584C681.2 228.864 681.6 227.76 681.92 226.768L680.624 226.528ZM686.032 229.088V230.208H690.944V229.088H686.032ZM690.528 229.088V229.344C690.304 236.4 690.048 239.056 689.52 239.632C689.344 239.84 689.152 239.888 688.832 239.888C688.464 239.888 687.504 239.872 686.464 239.792C686.688 240.112 686.832 240.608 686.864 240.96C687.76 241.008 688.704 241.04 689.248 240.976C689.808 240.928 690.176 240.784 690.528 240.32C691.168 239.536 691.392 237.056 691.648 229.712C691.648 229.536 691.648 229.088 691.648 229.088H690.528ZM686.368 226.496C685.856 228.72 684.976 230.928 683.888 232.336C684.176 232.496 684.672 232.832 684.88 233.024C685.984 231.504 686.928 229.152 687.52 226.768L686.368 226.496ZM685.632 233.248C686.512 234.416 687.584 236 688.064 236.976L689.088 236.336C688.576 235.392 687.472 233.84 686.56 232.704L685.632 233.248ZM694.688 228.08V229.184H708.528V228.08H694.688ZM700.928 226.576V228.72H702.16V226.576H700.928ZM695.376 230.88V241.264H696.512V231.952H707.456V230.88H695.376ZM706.816 230.88V239.808C706.816 240.048 706.736 240.128 706.448 240.128C706.16 240.144 705.2 240.16 704.16 240.112C704.32 240.432 704.512 240.976 704.56 241.296C705.888 241.296 706.768 241.264 707.296 241.088C707.808 240.896 707.968 240.512 707.968 239.808V230.88H706.816ZM699.408 231.664C699.28 233.344 698.768 234.144 696.608 234.576C696.816 234.768 697.088 235.184 697.2 235.44C699.664 234.848 700.336 233.76 700.496 231.664H699.408ZM702.384 231.664V233.552C702.384 234.544 702.64 234.8 703.792 234.8C704.016 234.8 705.216 234.8 705.456 234.8C706.304 234.8 706.592 234.48 706.688 233.184C706.4 233.12 705.968 232.976 705.76 232.816C705.712 233.776 705.648 233.872 705.312 233.872C705.056 233.872 704.112 233.872 703.904 233.872C703.504 233.872 703.44 233.84 703.44 233.536V231.664H702.384ZM698.624 235.632V240.544H699.696V235.632H698.624ZM699.264 235.632V236.576H703.616V238.624H699.264V239.568H704.704V235.632H699.264ZM697.76 229.184C698.112 229.808 698.464 230.64 698.608 231.184L699.824 230.896C699.664 230.368 699.296 229.552 698.928 228.944L697.76 229.184ZM704.208 228.896C703.984 229.488 703.568 230.384 703.232 230.944L704.4 231.184C704.736 230.656 705.136 229.904 705.52 229.136L704.208 228.896ZM711.408 236.448V237.456H725.424V236.448H711.408ZM711.472 229.424V230.448H725.36V229.424H711.472ZM712.112 232.16V233.152H724.784V232.16H712.112ZM712.928 234.32V235.248H724V234.32H712.928ZM717.776 232.624V241.296H718.96V232.624H717.776ZM716.304 226.56V229.904H717.44V226.56H716.304ZM719.328 226.56V229.856H720.48V226.56H719.328ZM717.392 236.848C716.032 238.24 713.36 239.472 710.992 240C711.248 240.256 711.6 240.72 711.776 241.024C714.16 240.352 716.864 238.96 718.352 237.296L717.392 236.848ZM719.344 236.816L718.4 237.216C719.904 238.944 722.576 240.4 725.008 241.072C725.184 240.736 725.552 240.256 725.824 240C723.392 239.488 720.704 238.256 719.344 236.816ZM723.04 226.752C722.768 227.488 722.24 228.544 721.808 229.216L722.784 229.536C723.232 228.912 723.808 227.968 724.272 227.088L723.04 226.752ZM720.896 230.144C720.704 230.72 720.288 231.552 719.968 232.112L720.976 232.416C721.328 231.904 721.744 231.168 722.144 230.448L720.896 230.144ZM712.768 227.088C713.28 227.84 713.856 228.864 714.08 229.504L715.152 229.104C714.928 228.448 714.336 227.44 713.792 226.72L712.768 227.088ZM714.848 230.56C715.2 231.088 715.552 231.84 715.68 232.32L716.864 232.064C716.72 231.584 716.352 230.864 715.984 230.336L714.848 230.56ZM728.272 231.216V232.272H742.048V231.216H728.272ZM734.64 230.208V241.28H735.904V230.208H734.64ZM729.424 233.52V237.664H730.688V234.56H740.512V233.52H729.424ZM739.92 233.52V236.512C739.92 236.656 739.872 236.72 739.68 236.72C739.504 236.736 738.896 236.736 738.24 236.704C738.368 236.976 738.56 237.344 738.64 237.664C739.552 237.664 740.192 237.664 740.608 237.488C741.04 237.328 741.152 237.056 741.152 236.512V233.52H739.92ZM734.752 235.792C733.376 237.616 730.608 239.136 727.872 239.76C728.144 240.016 728.48 240.464 728.64 240.768C731.392 239.984 734.16 238.304 735.68 236.176L734.752 235.792ZM735.616 235.744L734.976 236.432C736.192 237.984 738.768 239.872 741.904 240.704C742.08 240.384 742.432 239.92 742.672 239.648C739.504 238.96 736.784 237.264 735.616 235.744ZM729.904 227.968V229.008H734.96V227.968H729.904ZM736.048 227.968V229.008H742.256V227.968H736.048ZM730.24 226.512C729.696 227.904 728.768 229.296 727.712 230.208C728 230.352 728.496 230.688 728.72 230.864C729.744 229.888 730.752 228.368 731.392 226.816L730.24 226.512ZM736.432 226.512C735.936 227.952 734.976 229.296 733.872 230.16C734.176 230.32 734.672 230.672 734.88 230.88C735.968 229.904 737.024 228.4 737.616 226.8L736.432 226.512ZM730.848 228.752C731.264 229.424 731.68 230.32 731.84 230.88L732.896 230.496C732.736 229.936 732.272 229.072 731.872 228.432L730.848 228.752ZM737.472 228.688C737.952 229.36 738.448 230.256 738.656 230.848L739.728 230.48C739.504 229.888 738.976 229.008 738.496 228.368L737.472 228.688ZM745.856 227.504V228.56H749.568V236.896H745.856V237.952H750.512V227.504H745.856ZM745.216 227.504V239.392H746.16V227.504H745.216ZM745.76 232.048V233.072H750.064V232.048H745.76ZM752.416 239.6V240.656H757.936V239.6H752.416ZM753.152 228.272V229.296H757.728V228.272H753.152ZM747.424 228.048V237.408H748.24V228.048H747.424ZM751.696 235.424V241.216H752.832V236.496H757.28V241.184H758.464V235.424H751.696ZM757.456 228.272V228.496C756.24 231.552 753.136 234.096 750.24 235.184C750.48 235.408 750.784 235.84 750.944 236.128C754.032 234.832 757.232 232.224 758.656 228.608L757.872 228.208L757.648 228.272H757.456ZM753.744 226.512C753.008 228.352 751.696 230.08 750.224 231.184C750.496 231.376 750.944 231.792 751.136 232C752.608 230.784 754.032 228.88 754.896 226.816L753.744 226.512ZM753.136 229.104L752.304 229.696C753.408 231.92 755.776 234.624 758.976 235.936C759.152 235.632 759.504 235.168 759.744 234.944C756.544 233.776 754.176 231.232 753.136 229.104ZM581.424 255.504V264.768H582.608V255.504H581.424ZM585.264 255.504V264.768H586.448V255.504H585.264ZM583.2 251.952C583.04 252.992 582.688 254.496 582.368 255.472L583.552 255.632C583.904 254.72 584.32 253.328 584.672 252.08L583.2 251.952ZM577.664 254.928V265.296H578.896V256.048H589.712V254.928H577.664ZM589.168 254.928V263.776C589.168 264 589.104 264.064 588.848 264.08C588.608 264.096 587.792 264.112 586.896 264.08C587.072 264.384 587.248 264.88 587.312 265.2C588.464 265.2 589.264 265.184 589.76 264.992C590.24 264.8 590.368 264.464 590.368 263.776V254.928H589.168ZM576.848 251.408V252.624H591.2V251.408H576.848ZM593.776 251.456V252.56H600.672V251.456H593.776ZM601.808 256.016V257.168H608.24V256.016H601.808ZM605.28 256.768V265.296H606.464V256.768H605.28ZM601.344 252.144V256.416C601.344 258.864 601.12 262.08 598.896 264.448C599.184 264.592 599.616 264.992 599.792 265.248C602.192 262.672 602.528 259.008 602.528 256.416V252.752C602.752 252.72 602.832 252.656 602.848 252.544L601.344 252.144ZM594.368 254.224V258.544C594.368 260.384 594.256 262.848 593.136 264.576C593.392 264.72 593.888 265.088 594.08 265.312C595.312 263.424 595.504 260.592 595.504 258.544V254.224H594.368ZM606.864 250.752C605.664 251.44 603.504 252.128 601.6 252.576C601.76 252.848 601.952 253.28 602.016 253.552C604.016 253.088 606.336 252.432 607.92 251.664L606.864 250.752ZM595.024 254.224V255.328H599.104V258.128H595.024V259.216H600.272V254.224H595.024ZM611.744 251.216V252.176H623.44V251.216H611.744ZM610.624 258.304V259.28H624.608V258.304H610.624ZM612.688 254.864V255.68H616.144V254.864H612.688ZM612.352 256.544V257.36H616.144V256.544H612.352ZM618.96 256.544V257.36H622.88V256.544H618.96ZM618.96 254.864V255.68H622.496V254.864H618.96ZM616.96 251.584V257.776H618.128V251.584H616.96ZM615.376 261.056V265.168H616.496V261.056H615.376ZM618.928 261.056V265.168H620.032V261.056H618.928ZM610.816 253.104V256.176H611.904V253.984H623.264V256.176H624.4V253.104H610.816ZM611.872 260.432V265.264H613.008V261.424H622.848V260.432H611.872ZM622.544 260.432V264.08C622.544 264.224 622.496 264.272 622.32 264.288C622.144 264.304 621.6 264.304 620.96 264.288C621.104 264.576 621.28 264.992 621.328 265.28C622.208 265.28 622.8 265.296 623.2 265.104C623.616 264.928 623.696 264.64 623.696 264.096V260.432H622.544ZM616.976 258.672C616.864 259.328 616.576 260.288 616.336 260.944L617.392 261.056C617.664 260.464 618 259.584 618.288 258.72L616.976 258.672ZM627.12 259.312V260.32H641.68V259.312H627.12ZM627.504 251.264V252.32H641.28V251.264H627.504ZM632.672 257.632C631.68 259.2 630.192 261.344 629.168 262.64L630.304 263.024C631.328 261.712 632.8 259.616 633.84 257.952L632.672 257.632ZM637.472 259.664C636.192 262.784 633.056 263.92 627.344 264.224C627.536 264.496 627.728 264.928 627.808 265.28C633.808 264.832 637.216 263.52 638.624 260L637.472 259.664ZM630.032 262.48C634.096 263.232 638.016 264.32 640.464 265.328L641.184 264.352C638.704 263.376 634.592 262.304 630.64 261.6L630.032 262.48ZM631.872 251.664V257.248H633.008V251.664H631.872ZM635.6 251.664V257.248H636.736V251.664H635.6ZM629.424 254.672H639.408V256.848H629.424V254.672ZM628.304 253.696V257.84H640.608V253.696H628.304ZM647.584 254.624H654.912V256.144H647.584V254.624ZM647.584 257.056H654.912V258.592H647.584V257.056ZM647.584 252.192H654.912V253.712H647.584V252.192ZM646.4 251.232V259.552H656.144V251.232H646.4ZM644.096 260.656V261.776H658.304V260.656H644.096ZM652.528 263.088C654.336 263.76 656.208 264.624 657.328 265.28L658.48 264.464C657.248 263.808 655.232 262.944 653.392 262.288L652.528 263.088ZM648.816 262.208C647.744 262.96 645.664 263.856 644.016 264.352C644.288 264.608 644.656 265.024 644.848 265.28C646.48 264.736 648.544 263.84 649.904 262.976L648.816 262.208ZM667.52 250.704V254.448H668.656V250.704H667.52ZM671.648 250.704V254.448H672.8V250.704H671.648ZM670.576 257.584V265.2H671.568V257.584H670.576ZM664.928 252.064V253.12H675.312V252.064H664.928ZM667.888 259.552V260.416H674.256V259.552H667.888ZM667.888 261.792V262.64H674.256V261.792H667.888ZM665.728 255.008V256.064H675.376V255.008H665.728ZM665.2 255.008V258.448C665.2 260.256 665.088 262.752 663.936 264.544C664.192 264.688 664.656 265.072 664.832 265.28C666.096 263.344 666.32 260.464 666.32 258.464V255.008H665.2ZM667.28 257.248V265.28H668.32V258.16H674.416V257.248H667.28ZM673.92 257.248V264.112C673.92 264.288 673.872 264.336 673.68 264.352C673.504 264.368 672.944 264.368 672.256 264.352C672.4 264.624 672.512 265.024 672.56 265.296C673.504 265.296 674.112 265.28 674.496 265.12C674.88 264.944 674.976 264.656 674.976 264.112V257.248H673.92ZM663.712 250.656C662.944 253.12 661.68 255.584 660.272 257.184C660.48 257.488 660.8 258.128 660.912 258.416C662.496 256.544 663.92 253.728 664.832 250.96L663.712 250.656ZM662.432 254.576V265.28H663.568V253.504L663.536 253.472L662.432 254.576ZM678.896 253.136V254.208H682.64V262.512H678.896V263.6H683.76V253.136H678.896ZM678.176 253.136V264.88H679.296V253.136H678.176ZM678.816 257.584V258.656H683.232V257.584H678.816ZM680.624 250.528C680.496 251.36 680.192 252.576 679.92 253.344L680.88 253.584C681.2 252.864 681.6 251.76 681.92 250.768L680.624 250.528ZM686.032 253.088V254.208H690.944V253.088H686.032ZM690.528 253.088V253.344C690.304 260.4 690.048 263.056 689.52 263.632C689.344 263.84 689.152 263.888 688.832 263.888C688.464 263.888 687.504 263.872 686.464 263.792C686.688 264.112 686.832 264.608 686.864 264.96C687.76 265.008 688.704 265.04 689.248 264.976C689.808 264.928 690.176 264.784 690.528 264.32C691.168 263.536 691.392 261.056 691.648 253.712C691.648 253.536 691.648 253.088 691.648 253.088H690.528ZM686.368 250.496C685.856 252.72 684.976 254.928 683.888 256.336C684.176 256.496 684.672 256.832 684.88 257.024C685.984 255.504 686.928 253.152 687.52 250.768L686.368 250.496ZM685.632 257.248C686.512 258.416 687.584 260 688.064 260.976L689.088 260.336C688.576 259.392 687.472 257.84 686.56 256.704L685.632 257.248ZM696.336 250.56V265.264H697.552V250.56H696.336ZM694.864 253.6C694.752 254.896 694.464 256.656 694.032 257.728L694.976 258.048C695.408 256.896 695.696 255.04 695.776 253.744L694.864 253.6ZM697.664 253.504C698.112 254.4 698.592 255.568 698.768 256.272L699.664 255.824C699.488 255.136 698.992 254 698.496 253.136L697.664 253.504ZM700.928 251.312C700.576 253.472 699.936 255.648 698.992 257.056C699.296 257.184 699.84 257.44 700.08 257.616C700.976 256.112 701.68 253.84 702.096 251.504L700.928 251.312ZM700.944 253.952L700.576 255.104H708.384V253.952H700.944ZM703.536 250.624V264.224H704.736V250.624H703.536ZM700.128 258.432V259.568H708.032V258.432H700.128ZM698.928 263.568V264.72H708.768V263.568H698.928ZM719.248 252.288V253.344H723.76V252.288H719.248ZM717.792 259.424V265.296H718.912V260.464H723.376V265.248H724.528V259.424H717.792ZM718.272 263.536V264.592H723.984V263.536H718.272ZM719.712 250.544C718.96 252.48 717.664 254.304 716.192 255.456C716.464 255.632 716.944 256.048 717.136 256.256C718.592 254.992 720 252.992 720.864 250.864L719.712 250.544ZM723.424 252.288V252.496C722.256 255.888 719.056 258.352 715.84 259.36C716.08 259.584 716.384 260.032 716.528 260.336C719.936 259.104 723.232 256.56 724.608 252.592L723.856 252.24L723.648 252.288H723.424ZM719.152 253.12L718.272 253.68C719.36 256.064 721.712 258.72 725.28 259.968C725.44 259.68 725.776 259.2 726.016 258.976C722.496 257.904 720.144 255.392 719.152 253.12ZM711.216 254V255.136H716.848V254H711.216ZM713.632 250.56V265.264H714.768V250.56H713.632ZM713.584 254.704C713.104 257.008 711.968 259.776 710.832 261.216C711.056 261.488 711.344 261.952 711.472 262.272C712.672 260.656 713.808 257.536 714.336 254.96L713.584 254.704ZM714.688 255.776L714.096 256.304C714.544 256.88 715.696 258.528 716.08 259.232L716.8 258.304C716.48 257.872 715.072 256.16 714.688 255.776Z" fill="#FFFBF7"/>
</g>
</svg>
