<svg width="74" height="62" viewBox="0 0 74 62" fill="none" xmlns="http://www.w3.org/2000/svg">
<path d="M3.48643 36.7348L3.58951 35.7401L3.50544 35.7314L3.4211 35.737L3.48643 36.7348ZM24.8125 60.4193H23.8125V61.4193H24.8125V60.4193ZM1.10194 36.8126L0.101944 36.8126V37.8126L1.10194 37.8126V36.8126ZM1.10194 36.609H2.10194V35.609H1.10194V36.609ZM1.00359 36.609L0.00359344 36.609V37.609L1.00359 37.609V36.609ZM1.00359 36.6067H2.00359V35.6088L1.00566 35.6067L1.00359 36.6067ZM0.999908 36.6067L-9.15527e-05 36.6067V37.6046L0.997838 37.6067L0.999908 36.6067ZM0.999908 24.6067V23.6067H-9.15527e-05V24.6067H0.999908ZM1.40964 24.609L1.39842 25.609H1.40964V24.609ZM4.23698 24.609V25.609H4.3022L4.36685 25.6005L4.23698 24.609ZM24.9146 1.00003V3.05176e-05H23.9146V1.00003H24.9146ZM36.9146 1.00003H37.9146V3.05176e-05H36.9146V1.00003ZM28.0395 24.609L27.2875 23.9499L25.8333 25.609H28.0395V24.609ZM73 24.609H74V23.609H73V24.609ZM73 36.609V37.609H74V36.609H73ZM27.7613 36.609V35.609H25.5314L27.0146 37.2741L27.7613 36.609ZM36.8125 60.4193V61.4193H37.8125V60.4193H36.8125ZM3.38336 37.7295C14.8441 38.9171 23.8125 48.5811 23.8125 60.4193H25.8125C25.8125 47.5426 16.0558 37.032 3.58951 35.7401L3.38336 37.7295ZM1.10194 37.8126C1.9252 37.8126 2.74208 37.7857 3.55177 37.7327L3.4211 35.737C2.65488 35.7871 1.88159 35.8126 1.10194 35.8126V37.8126ZM0.101944 36.609V36.8126L2.10194 36.8126V36.609L0.101944 36.609ZM1.10194 35.609H1.00359V37.609H1.10194V35.609ZM2.00359 36.609V36.6067L0.00359344 36.6067V36.609L2.00359 36.609ZM0.997838 37.6067L1.00152 37.6067L1.00566 35.6067L1.00198 35.6067L0.997838 37.6067ZM-9.15527e-05 24.6067V36.6067L1.99991 36.6067V24.6067H-9.15527e-05ZM1.42085 23.6091C1.28072 23.6075 1.1404 23.6067 0.999908 23.6067V25.6067C1.13292 25.6067 1.26576 25.6075 1.39842 25.6089L1.42085 23.6091ZM1.40964 25.609H4.23698V23.609H1.40964V25.609ZM23.9146 1.00003C23.9146 12.5633 15.3207 22.1487 4.10711 23.6175L4.36685 25.6005C16.5673 24.0025 25.9146 13.5763 25.9146 1.00003H23.9146ZM36.9146 3.05176e-05H24.9146V2.00003H36.9146V3.05176e-05ZM28.7915 25.2681C34.4766 18.782 37.9146 10.2823 37.9146 1.00003H35.9146C35.9146 9.77968 32.6646 17.815 27.2875 23.9499L28.7915 25.2681ZM28.0395 25.609L73 25.609V23.609L28.0395 23.609V25.609ZM72 24.609V36.609H74V24.609H72ZM73 35.609L27.7613 35.609V37.609L73 37.609V35.609ZM37.8125 60.4193C37.8125 51.0033 34.2917 42.4371 28.508 35.9439L27.0146 37.2741C32.4843 43.4149 35.8125 51.512 35.8125 60.4193H37.8125ZM24.8125 61.4193H36.8125V59.4193H24.8125V61.4193Z" fill="#0C1C24"/>
</svg>
