<svg width="220" height="150" viewBox="0 0 220 150" fill="none" xmlns="http://www.w3.org/2000/svg">
<path d="M120.943 27.1044C121.101 25.4903 121.843 23.993 123.026 22.9024C124.209 21.8118 125.748 21.2056 127.347 21.2012C128.425 21.2075 129.485 21.485 130.431 22.0087C131.378 22.5324 132.182 23.2861 132.772 24.2024V24.2024" stroke="black" stroke-width="2" stroke-miterlimit="10" stroke-linecap="round"/>
<path d="M157.993 26.3851C157.993 26.137 157.993 25.889 157.993 25.641C157.995 24.3772 157.587 23.1478 156.833 22.1426C156.078 21.1374 155.018 20.4123 153.817 20.0793C152.616 19.7463 151.34 19.8239 150.186 20.3001C149.033 20.7763 148.066 21.6247 147.435 22.7141C147.096 23.2951 146.864 23.9339 146.751 24.5992V24.5992C146.713 24.9039 146.713 25.2122 146.751 25.5169V25.5169C146.738 25.7152 146.738 25.914 146.751 26.1122V26.1122" stroke="black" stroke-width="2" stroke-miterlimit="10" stroke-linecap="round"/>
<path d="M168.162 54.3883C168.136 53.0352 167.625 51.7381 166.724 50.7406C165.822 49.7431 164.593 49.1137 163.267 48.9706C161.941 48.8275 160.609 49.1805 159.521 49.9634C158.434 50.7463 157.665 51.9052 157.359 53.2225V53.2225" stroke="black" stroke-width="1.7659" stroke-miterlimit="10" stroke-linecap="round"/>
<path d="M110.727 37.3977C110.727 35.6149 111.424 33.9052 112.666 32.6447C113.908 31.3841 115.593 30.6759 117.35 30.6759C118.568 30.6685 119.763 31.0126 120.796 31.668" stroke="black" stroke-width="2" stroke-miterlimit="10" stroke-linecap="round"/>
<path d="M52.0718 60.3918C51.8849 60.1197 51.7444 59.8175 51.6562 59.498C51.7296 59.7215 51.8519 60.0442 52.0718 60.3918Z" fill="#38D6D6"/>
<path d="M132.725 22.9124C132.696 20.9389 133.441 19.0345 134.795 17.6181C136.149 16.2017 138.003 15.3893 139.947 15.3597C141.892 15.3301 143.768 16.0857 145.164 17.4602C146.56 18.8348 147.36 20.7157 147.389 22.6892V22.6892" stroke="black" stroke-width="2" stroke-miterlimit="10" stroke-linecap="round"/>
<path d="M146.729 26.2363C146.733 26.3023 146.733 26.3685 146.729 26.4344V26.4344" stroke="#38D6D6" stroke-width="1.7659" stroke-miterlimit="10" stroke-linecap="round"/>
<path d="M168.162 54.3882C168.162 54.3882 169.335 77.7532 162.272 93.2306C165.696 100.444 170.115 107.125 175.396 113.073C175.396 113.073 170.924 136.116 137.075 142.838C137.075 142.838 120.651 128.749 109.824 101.069L110.655 37.4722" stroke="black" stroke-width="2" stroke-miterlimit="10" stroke-linecap="round"/>
<path d="M132.725 22.9126C132.505 28.6422 130.428 58.4561 131.723 69.3697" stroke="black" stroke-width="2" stroke-miterlimit="10" stroke-linecap="round"/>
<path d="M146.801 24.5991C146.801 24.5991 144.161 50.3452 144.503 64.9297" stroke="black" stroke-width="2" stroke-miterlimit="10" stroke-linecap="round"/>
<path d="M158.045 25.6411C157.429 34.0228 157.609 42.4452 158.583 50.7919" stroke="black" stroke-width="2" stroke-miterlimit="10" stroke-linecap="round"/>
<path d="M157.384 53.2471C156.06 58.6789 155.346 64.2457 155.258 69.8407" stroke="black" stroke-width="1.7659" stroke-miterlimit="10" stroke-linecap="round"/>
<path d="M157.459 68.5015C157.459 68.5015 146.534 73.0653 145.605 94.2972" stroke="black" stroke-width="2" stroke-miterlimit="10" stroke-linecap="round"/>
<path d="M120.968 27.0303C120.43 33.8513 120.601 55.2071 120.675 64.2356" stroke="black" stroke-width="2" stroke-miterlimit="10" stroke-linecap="round"/>
<path d="M115.615 67.9805C115.396 54.785 114.809 42.4576 114.516 37.5713V37.3977C114.516 35.536 113.787 33.7506 112.49 32.4342C111.193 31.1178 109.434 30.3783 107.599 30.3783C106.429 30.3797 105.278 30.6781 104.251 31.2464C104.251 29.7086 104.08 28.394 104.007 27.4266C104.019 27.3029 104.019 27.1783 104.007 27.0546C104.009 26.5793 103.959 26.1052 103.86 25.6408C103.595 24.2711 102.942 23.0101 101.979 22.0135C101.016 21.0168 99.7869 20.3282 98.4429 20.0327C97.0989 19.7372 95.6991 19.8478 94.4163 20.3507C93.1335 20.8537 92.0239 21.727 91.2247 22.8628C91.2497 21.0381 90.6132 19.2677 89.4361 17.8881C88.2591 16.5085 86.6236 15.616 84.8405 15.3803C83.0575 15.1445 81.2513 15.5819 79.7652 16.6093C78.2792 17.6368 77.2171 19.1826 76.7807 20.9529C75.7697 20.0266 74.5156 19.4178 73.1705 19.2004C71.8254 18.9831 70.4471 19.1665 69.2026 19.7284C67.9582 20.2903 66.9011 21.2065 66.1596 22.3661C65.4181 23.5256 65.0242 24.8785 65.0253 26.2609C65.0217 26.9337 65.1206 27.603 65.3186 28.2451C66.2717 34.9173 68.8623 49.9235 70.2065 59.3736C68.913 56.3457 67.1007 53.5745 64.8541 51.1885C64.6774 51.0338 64.4895 50.8928 64.292 50.7668C63.5704 50.0249 62.7102 49.4366 61.7618 49.0362C60.8134 48.6359 59.7958 48.4316 58.7686 48.4353C56.6944 48.4353 54.7053 49.2715 53.2386 50.76C51.7719 52.2485 50.948 54.2674 50.948 56.3724C50.9391 57.2706 51.0965 58.1625 51.4122 59.0016V59.1752C51.4207 59.2494 51.4207 59.3243 51.4122 59.3985C51.4122 59.6217 51.6567 59.9441 51.8278 60.2914C51.9989 60.6386 51.8278 60.2914 51.8278 60.2914C53.0742 62.9205 55.7136 68.6998 57.5221 73.2885C59.7787 78.9535 61.6966 84.7516 63.2654 90.651C63.2654 90.651 56.349 105.756 48.6016 112.974C48.6016 112.974 56.5447 136.017 85.7502 142.738C85.7502 142.738 101.049 125.674 108.919 111.238C116.789 96.8022 115.811 81.5233 115.615 67.9805Z" fill="#FF7754"/>
<path d="M76.7812 21.0024C79.2741 33.0877 80.9076 45.3391 81.6692 57.6621" stroke="black" stroke-width="2" stroke-miterlimit="10" stroke-linecap="round"/>
<path d="M91.1758 22.8633C92.3489 28.4937 93.6198 50.8169 93.6198 55.6536" stroke="black" stroke-width="2" stroke-miterlimit="10" stroke-linecap="round"/>
<path d="M104.227 31.2466C104.715 39.9774 104.886 51.6599 104.544 56.9927" stroke="black" stroke-width="2" stroke-miterlimit="10" stroke-linecap="round"/>
<path d="M70.1348 59.498C72.465 64.87 74.2106 70.4841 75.3404 76.2405" stroke="black" stroke-width="2" stroke-miterlimit="10" stroke-linecap="round"/>
<path d="M174.399 15.0565L179.914 5" stroke="black" stroke-width="2" stroke-miterlimit="10" stroke-linecap="round"/>
<path d="M182.976 40.9951H202.5" stroke="black" stroke-width="2" stroke-miterlimit="10" stroke-linecap="round"/>
<path d="M186.654 72.0249L197.828 78.0989" stroke="black" stroke-width="2" stroke-miterlimit="10" stroke-linecap="round"/>
<path d="M48.7557 15.0565L43.2402 5" stroke="black" stroke-width="2" stroke-miterlimit="10" stroke-linecap="round"/>
<path d="M37.0241 40.9951H17.5" stroke="black" stroke-width="2" stroke-miterlimit="10" stroke-linecap="round"/>
<path d="M43.3833 72.0249L32.209 78.0989" stroke="black" stroke-width="2" stroke-miterlimit="10" stroke-linecap="round"/>
</svg>
