<svg width="290" height="290" viewBox="0 0 290 290" fill="none" xmlns="http://www.w3.org/2000/svg">
<path d="M54.2269 272.88L50.9309 284H48.8669L46.5309 275.584L44.0509 284L42.0029 284.016L38.8509 272.88H40.7869L43.0909 281.936L45.5869 272.88H47.6349L49.9549 281.888L52.2749 272.88H54.2269ZM65.4112 279.376C65.4112 279.707 65.3899 280.005 65.3472 280.272H58.6112C58.6646 280.976 58.9259 281.541 59.3952 281.968C59.8646 282.395 60.4406 282.608 61.1232 282.608C62.1046 282.608 62.7979 282.197 63.2032 281.376H65.1712C64.9046 282.187 64.4192 282.853 63.7152 283.376C63.0219 283.888 62.1579 284.144 61.1232 284.144C60.2806 284.144 59.5232 283.957 58.8512 283.584C58.1899 283.2 57.6672 282.667 57.2832 281.984C56.9099 281.291 56.7232 280.491 56.7232 279.584C56.7232 278.677 56.9046 277.883 57.2672 277.2C57.6406 276.507 58.1579 275.973 58.8192 275.6C59.4912 275.227 60.2592 275.04 61.1232 275.04C61.9552 275.04 62.6966 275.221 63.3472 275.584C63.9979 275.947 64.5046 276.459 64.8672 277.12C65.2299 277.771 65.4112 278.523 65.4112 279.376ZM63.5072 278.8C63.4966 278.128 63.2566 277.589 62.7872 277.184C62.3179 276.779 61.7366 276.576 61.0432 276.576C60.4139 276.576 59.8752 276.779 59.4272 277.184C58.9792 277.579 58.7126 278.117 58.6272 278.8H63.5072ZM73.9545 279.552C73.9545 278.667 74.1358 277.883 74.4985 277.2C74.8718 276.517 75.3732 275.989 76.0025 275.616C76.6425 275.232 77.3518 275.04 78.1305 275.04C78.7065 275.04 79.2718 275.168 79.8265 275.424C80.3918 275.669 80.8398 276 81.1705 276.416V272.16H83.0105V284H81.1705V282.672C80.8718 283.099 80.4558 283.451 79.9225 283.728C79.3998 284.005 78.7972 284.144 78.1145 284.144C77.3465 284.144 76.6425 283.952 76.0025 283.568C75.3732 283.173 74.8718 282.629 74.4985 281.936C74.1358 281.232 73.9545 280.437 73.9545 279.552ZM81.1705 279.584C81.1705 278.976 81.0425 278.448 80.7865 278C80.5412 277.552 80.2158 277.211 79.8105 276.976C79.4052 276.741 78.9678 276.624 78.4985 276.624C78.0292 276.624 77.5918 276.741 77.1865 276.976C76.7812 277.2 76.4505 277.536 76.1945 277.984C75.9492 278.421 75.8265 278.944 75.8265 279.552C75.8265 280.16 75.9492 280.693 76.1945 281.152C76.4505 281.611 76.7812 281.963 77.1865 282.208C77.6025 282.443 78.0398 282.56 78.4985 282.56C78.9678 282.56 79.4052 282.443 79.8105 282.208C80.2158 281.973 80.5412 281.632 80.7865 281.184C81.0425 280.725 81.1705 280.192 81.1705 279.584ZM95.0863 279.376C95.0863 279.707 95.0649 280.005 95.0223 280.272H88.2863C88.3396 280.976 88.6009 281.541 89.0703 281.968C89.5396 282.395 90.1156 282.608 90.7983 282.608C91.7796 282.608 92.4729 282.197 92.8783 281.376H94.8463C94.5796 282.187 94.0943 282.853 93.3903 283.376C92.6969 283.888 91.8329 284.144 90.7983 284.144C89.9556 284.144 89.1983 283.957 88.5263 283.584C87.8649 283.2 87.3423 282.667 86.9583 281.984C86.5849 281.291 86.3983 280.491 86.3983 279.584C86.3983 278.677 86.5796 277.883 86.9423 277.2C87.3156 276.507 87.8329 275.973 88.4943 275.6C89.1663 275.227 89.9343 275.04 90.7983 275.04C91.6303 275.04 92.3716 275.221 93.0223 275.584C93.6729 275.947 94.1796 276.459 94.5423 277.12C94.9049 277.771 95.0863 278.523 95.0863 279.376ZM93.1823 278.8C93.1716 278.128 92.9316 277.589 92.4623 277.184C91.9929 276.779 91.4116 276.576 90.7183 276.576C90.0889 276.576 89.5503 276.779 89.1023 277.184C88.6543 277.579 88.3876 278.117 88.3023 278.8H93.1823ZM102.177 276.672H100.545V284H98.7053V276.672H97.6653V275.184H98.7053V274.56C98.7053 273.547 98.9719 272.811 99.5053 272.352C100.049 271.883 100.897 271.648 102.049 271.648V273.168C101.495 273.168 101.105 273.275 100.881 273.488C100.657 273.691 100.545 274.048 100.545 274.56V275.184H102.177V276.672ZM106.322 274.016C105.991 274.016 105.714 273.904 105.49 273.68C105.266 273.456 105.154 273.179 105.154 272.848C105.154 272.517 105.266 272.24 105.49 272.016C105.714 271.792 105.991 271.68 106.322 271.68C106.642 271.68 106.914 271.792 107.138 272.016C107.362 272.24 107.474 272.517 107.474 272.848C107.474 273.179 107.362 273.456 107.138 273.68C106.914 273.904 106.642 274.016 106.322 274.016ZM107.218 275.184V284H105.394V275.184H107.218ZM115.66 275.04C116.354 275.04 116.972 275.184 117.516 275.472C118.071 275.76 118.503 276.187 118.812 276.752C119.122 277.317 119.276 278 119.276 278.8V284H117.468V279.072C117.468 278.283 117.271 277.68 116.876 277.264C116.482 276.837 115.943 276.624 115.26 276.624C114.578 276.624 114.034 276.837 113.628 277.264C113.234 277.68 113.036 278.283 113.036 279.072V284H111.212V275.184H113.036V276.192C113.335 275.829 113.714 275.547 114.172 275.344C114.642 275.141 115.138 275.04 115.66 275.04ZM131.283 279.376C131.283 279.707 131.262 280.005 131.219 280.272H124.483C124.536 280.976 124.798 281.541 125.267 281.968C125.736 282.395 126.312 282.608 126.995 282.608C127.976 282.608 128.67 282.197 129.075 281.376H131.043C130.776 282.187 130.291 282.853 129.587 283.376C128.894 283.888 128.03 284.144 126.995 284.144C126.152 284.144 125.395 283.957 124.723 283.584C124.062 283.2 123.539 282.667 123.155 281.984C122.782 281.291 122.595 280.491 122.595 279.584C122.595 278.677 122.776 277.883 123.139 277.2C123.512 276.507 124.03 275.973 124.691 275.6C125.363 275.227 126.131 275.04 126.995 275.04C127.827 275.04 128.568 275.221 129.219 275.584C129.87 275.947 130.376 276.459 130.739 277.12C131.102 277.771 131.283 278.523 131.283 279.376ZM129.379 278.8C129.368 278.128 129.128 277.589 128.659 277.184C128.19 276.779 127.608 276.576 126.915 276.576C126.286 276.576 125.747 276.779 125.299 277.184C124.851 277.579 124.584 278.117 124.499 278.8H129.379ZM148.514 279.376C148.514 279.707 148.493 280.005 148.45 280.272H141.714C141.768 280.976 142.029 281.541 142.498 281.968C142.968 282.395 143.544 282.608 144.226 282.608C145.208 282.608 145.901 282.197 146.306 281.376H148.274C148.008 282.187 147.522 282.853 146.818 283.376C146.125 283.888 145.261 284.144 144.226 284.144C143.384 284.144 142.626 283.957 141.954 283.584C141.293 283.2 140.77 282.667 140.386 281.984C140.013 281.291 139.826 280.491 139.826 279.584C139.826 278.677 140.008 277.883 140.37 277.2C140.744 276.507 141.261 275.973 141.922 275.6C142.594 275.227 143.362 275.04 144.226 275.04C145.058 275.04 145.8 275.221 146.45 275.584C147.101 275.947 147.608 276.459 147.97 277.12C148.333 277.771 148.514 278.523 148.514 279.376ZM146.61 278.8C146.6 278.128 146.36 277.589 145.89 277.184C145.421 276.779 144.84 276.576 144.146 276.576C143.517 276.576 142.978 276.779 142.53 277.184C142.082 277.579 141.816 278.117 141.73 278.8H146.61ZM155.685 279.536L158.533 284H156.469L154.565 281.008L152.773 284H150.869L153.717 279.664L150.869 275.184H152.933L154.837 278.176L156.629 275.184H158.533L155.685 279.536ZM163.318 276.48C163.627 276.075 164.048 275.733 164.582 275.456C165.115 275.179 165.718 275.04 166.39 275.04C167.158 275.04 167.856 275.232 168.486 275.616C169.126 275.989 169.627 276.517 169.99 277.2C170.352 277.883 170.534 278.667 170.534 279.552C170.534 280.437 170.352 281.232 169.99 281.936C169.627 282.629 169.126 283.173 168.486 283.568C167.856 283.952 167.158 284.144 166.39 284.144C165.718 284.144 165.12 284.011 164.598 283.744C164.075 283.467 163.648 283.125 163.318 282.72V288.192H161.494V275.184H163.318V276.48ZM168.678 279.552C168.678 278.944 168.55 278.421 168.294 277.984C168.048 277.536 167.718 277.2 167.302 276.976C166.896 276.741 166.459 276.624 165.99 276.624C165.531 276.624 165.094 276.741 164.678 276.976C164.272 277.211 163.942 277.552 163.686 278C163.44 278.448 163.318 278.976 163.318 279.584C163.318 280.192 163.44 280.725 163.686 281.184C163.942 281.632 164.272 281.973 164.678 282.208C165.094 282.443 165.531 282.56 165.99 282.56C166.459 282.56 166.896 282.443 167.302 282.208C167.718 281.963 168.048 281.611 168.294 281.152C168.55 280.693 168.678 280.16 168.678 279.552ZM182.018 279.376C182.018 279.707 181.996 280.005 181.954 280.272H175.218C175.271 280.976 175.532 281.541 176.002 281.968C176.471 282.395 177.047 282.608 177.73 282.608C178.711 282.608 179.404 282.197 179.81 281.376H181.778C181.511 282.187 181.026 282.853 180.322 283.376C179.628 283.888 178.764 284.144 177.73 284.144C176.887 284.144 176.13 283.957 175.458 283.584C174.796 283.2 174.274 282.667 173.89 281.984C173.516 281.291 173.33 280.491 173.33 279.584C173.33 278.677 173.511 277.883 173.874 277.2C174.247 276.507 174.764 275.973 175.426 275.6C176.098 275.227 176.866 275.04 177.73 275.04C178.562 275.04 179.303 275.221 179.954 275.584C180.604 275.947 181.111 276.459 181.474 277.12C181.836 277.771 182.018 278.523 182.018 279.376ZM180.114 278.8C180.103 278.128 179.863 277.589 179.394 277.184C178.924 276.779 178.343 276.576 177.65 276.576C177.02 276.576 176.482 276.779 176.034 277.184C175.586 277.579 175.319 278.117 175.234 278.8H180.114ZM187.236 276.464C187.503 276.016 187.855 275.669 188.292 275.424C188.74 275.168 189.268 275.04 189.876 275.04V276.928H189.412C188.698 276.928 188.154 277.109 187.78 277.472C187.418 277.835 187.236 278.464 187.236 279.36V284H185.412V275.184H187.236V276.464ZM194.081 274.016C193.75 274.016 193.473 273.904 193.249 273.68C193.025 273.456 192.913 273.179 192.913 272.848C192.913 272.517 193.025 272.24 193.249 272.016C193.473 271.792 193.75 271.68 194.081 271.68C194.401 271.68 194.673 271.792 194.897 272.016C195.121 272.24 195.233 272.517 195.233 272.848C195.233 273.179 195.121 273.456 194.897 273.68C194.673 273.904 194.401 274.016 194.081 274.016ZM194.977 275.184V284H193.153V275.184H194.977ZM207.052 279.376C207.052 279.707 207.031 280.005 206.988 280.272H200.252C200.305 280.976 200.567 281.541 201.036 281.968C201.505 282.395 202.081 282.608 202.764 282.608C203.745 282.608 204.439 282.197 204.844 281.376H206.812C206.545 282.187 206.06 282.853 205.356 283.376C204.663 283.888 203.799 284.144 202.764 284.144C201.921 284.144 201.164 283.957 200.492 283.584C199.831 283.2 199.308 282.667 198.924 281.984C198.551 281.291 198.364 280.491 198.364 279.584C198.364 278.677 198.545 277.883 198.908 277.2C199.281 276.507 199.799 275.973 200.46 275.6C201.132 275.227 201.9 275.04 202.764 275.04C203.596 275.04 204.337 275.221 204.988 275.584C205.639 275.947 206.145 276.459 206.508 277.12C206.871 277.771 207.052 278.523 207.052 279.376ZM205.148 278.8C205.137 278.128 204.897 277.589 204.428 277.184C203.959 276.779 203.377 276.576 202.684 276.576C202.055 276.576 201.516 276.779 201.068 277.184C200.62 277.579 200.353 278.117 200.268 278.8H205.148ZM214.895 275.04C215.588 275.04 216.207 275.184 216.751 275.472C217.306 275.76 217.738 276.187 218.047 276.752C218.356 277.317 218.511 278 218.511 278.8V284H216.703V279.072C216.703 278.283 216.506 277.68 216.111 277.264C215.716 276.837 215.178 276.624 214.495 276.624C213.812 276.624 213.268 276.837 212.863 277.264C212.468 277.68 212.271 278.283 212.271 279.072V284H210.447V275.184H212.271V276.192C212.57 275.829 212.948 275.547 213.407 275.344C213.876 275.141 214.372 275.04 214.895 275.04ZM221.83 279.584C221.83 278.677 222.011 277.883 222.374 277.2C222.747 276.507 223.259 275.973 223.91 275.6C224.56 275.227 225.307 275.04 226.15 275.04C227.216 275.04 228.096 275.296 228.79 275.808C229.494 276.309 229.968 277.029 230.214 277.968H228.246C228.086 277.531 227.83 277.189 227.478 276.944C227.126 276.699 226.683 276.576 226.15 276.576C225.403 276.576 224.806 276.843 224.358 277.376C223.92 277.899 223.702 278.635 223.702 279.584C223.702 280.533 223.92 281.275 224.358 281.808C224.806 282.341 225.403 282.608 226.15 282.608C227.206 282.608 227.904 282.144 228.246 281.216H230.214C229.958 282.112 229.478 282.827 228.774 283.36C228.07 283.883 227.195 284.144 226.15 284.144C225.307 284.144 224.56 283.957 223.91 283.584C223.259 283.2 222.747 282.667 222.374 281.984C222.011 281.291 221.83 280.491 221.83 279.584ZM241.711 279.376C241.711 279.707 241.69 280.005 241.647 280.272H234.911C234.965 280.976 235.226 281.541 235.695 281.968C236.165 282.395 236.741 282.608 237.423 282.608C238.405 282.608 239.098 282.197 239.503 281.376H241.471C241.205 282.187 240.719 282.853 240.015 283.376C239.322 283.888 238.458 284.144 237.423 284.144C236.581 284.144 235.823 283.957 235.151 283.584C234.49 283.2 233.967 282.667 233.583 281.984C233.21 281.291 233.023 280.491 233.023 279.584C233.023 278.677 233.205 277.883 233.567 277.2C233.941 276.507 234.458 275.973 235.119 275.6C235.791 275.227 236.559 275.04 237.423 275.04C238.255 275.04 238.997 275.221 239.647 275.584C240.298 275.947 240.805 276.459 241.167 277.12C241.53 277.771 241.711 278.523 241.711 279.376ZM239.807 278.8C239.797 278.128 239.557 277.589 239.087 277.184C238.618 276.779 238.037 276.576 237.343 276.576C236.714 276.576 236.175 276.779 235.727 277.184C235.279 277.579 235.013 278.117 234.927 278.8H239.807ZM248.306 284.144C247.613 284.144 246.989 284.021 246.434 283.776C245.89 283.52 245.458 283.179 245.138 282.752C244.818 282.315 244.648 281.829 244.626 281.296H246.514C246.546 281.669 246.722 281.984 247.042 282.24C247.373 282.485 247.784 282.608 248.274 282.608C248.786 282.608 249.181 282.512 249.458 282.32C249.746 282.117 249.89 281.861 249.89 281.552C249.89 281.221 249.73 280.976 249.41 280.816C249.101 280.656 248.605 280.48 247.922 280.288C247.261 280.107 246.722 279.931 246.306 279.76C245.89 279.589 245.528 279.328 245.218 278.976C244.92 278.624 244.77 278.16 244.77 277.584C244.77 277.115 244.909 276.688 245.186 276.304C245.464 275.909 245.858 275.6 246.37 275.376C246.893 275.152 247.49 275.04 248.162 275.04C249.165 275.04 249.97 275.296 250.578 275.808C251.197 276.309 251.528 276.997 251.57 277.872H249.746C249.714 277.477 249.554 277.163 249.266 276.928C248.978 276.693 248.589 276.576 248.098 276.576C247.618 276.576 247.25 276.667 246.994 276.848C246.738 277.029 246.61 277.269 246.61 277.568C246.61 277.803 246.696 278 246.866 278.16C247.037 278.32 247.245 278.448 247.49 278.544C247.736 278.629 248.098 278.741 248.578 278.88C249.218 279.051 249.741 279.227 250.146 279.408C250.562 279.579 250.92 279.835 251.218 280.176C251.517 280.517 251.672 280.971 251.682 281.536C251.682 282.037 251.544 282.485 251.266 282.88C250.989 283.275 250.594 283.584 250.082 283.808C249.581 284.032 248.989 284.144 248.306 284.144Z" fill="#FFFBF7"/>
<circle cx="150" cy="125" r="114.5" stroke="#FFFBF7" stroke-opacity="0.3" stroke-dasharray="3 3"/>
<circle cx="150" cy="125" r="35" fill="#FFFBF7"/>
<circle cx="150" cy="125" r="67.5" stroke="#FFFBF7" stroke-opacity="0.3" stroke-dasharray="3 3"/>
<circle cx="150" cy="125" r="90.5" stroke="#FFFBF7"/>
</svg>
